#BigLog_LOD1_12032_469.obj

v -0.04854779 -2.640371 0.5635296
v -0.4105114 -2.640371 -0.2368659
v -0.4187278 -2.640368 0.2437904
v 0.6646546 -2.64037 -0.01857642
v 0.4753759 -2.640376 -0.4269458
v 0.005599419 -2.640373 -0.5163916
v 0.4686873 -2.640368 0.4390314
v 0.4710259 2.640375 -0.4340372
v -0.3923804 2.640372 -0.2597476
v 0.005437905 2.640373 -0.5454008
v 0.4444335 2.640374 0.4320239
v 0.0127719 2.640368 0.534523
v -0.4053524 2.640373 0.2209075
v 0.7043034 2.640375 -0.01365439

vn 0.9624023 -0.2553711 -0.09100342
vn 0.9624023 -0.2553711 -0.09100342
vn 0.9624023 -0.2553711 -0.09100342
vn 0.9624023 -0.2553711 -0.09100342
vn 0.9624023 -0.2553711 -0.09100342
vn 0.9624023 -0.2553711 -0.09100342
vn 0.9624023 -0.2553711 -0.09100342
vn -0.9604492 0.2617188 0.0949707
vn -0.9604492 0.2617188 0.0949707
vn -0.9624023 0.2553711 0.09100342
vn -0.9604492 0.2617188 0.0949707
vn -0.9604492 0.2617188 0.0949707
vn -0.9604492 0.2617188 0.0949707
vn -0.9604492 0.2617188 0.0949707

vt 0.3920898 0.9853516
vt 0.06225586 0.2836914
vt 0.06225586 0.7163086
vt 0.9853516 0.5
vt 0.8027344 0.1107178
vt 0.3920898 0.0144043
vt 0.8027344 0.8891602
vt 0.8027344 0.1107178
vt 0.06225586 0.2836914
vt 0.3920898 0.0144043
vt 0.8027344 0.8891602
vt 0.3920898 0.9853516
vt 0.06225586 0.7163086
vt 0.9853516 0.5

g BigLog_LOD1_12032_469
usemtl BigLog_LOD1_12032_469
usemap BigLog_LOD1_12032_469
f 1/1/1 3/3/3 2/2/2
f 1/1/1 2/2/2 4/4/4
f 2/2/2 5/5/5 4/4/4
f 2/2/2 6/6/6 5/5/5
f 7/7/7 1/1/1 4/4/4
f 8/8/8 10/10/10 9/9/9
f 8/8/8 9/9/9 11/11/11
f 9/9/9 12/12/12 11/11/11
f 9/9/9 13/13/13 12/12/12
f 14/14/14 8/8/8 11/11/11
