#BigLog_LOD1_13963_473.obj

v -0.04854838 -2.640372 0.5635335
v -0.4105106 -2.640372 -0.236858
v -0.4187241 -2.640372 0.2437865
v 0.6646565 -2.640372 -0.01857479
v 0.4753806 -2.640372 -0.4269507
v 0.005599898 -2.640372 -0.5163919
v 0.4686889 -2.640372 0.4390395
v 0.4710204 2.640372 -0.4340411
v -0.392381 2.640371 -0.2597426
v 0.005436878 2.640372 -0.5453989
v 0.4444323 2.640372 0.4320243
v 0.01277084 2.640371 0.5345287
v -0.405355 2.640373 0.2209047
v 0.7043002 2.640372 -0.01365704

vn -0.06524658 -0.9912109 0.1130371
vn -0.06524658 -0.9912109 0.1130371
vn -0.06524658 -0.9912109 0.1130371
vn -0.06524658 -0.9912109 0.1130371
vn -0.06524658 -0.9912109 0.1130371
vn -0.06524658 -0.9912109 0.1130371
vn -0.06524658 -0.9912109 0.1130371
vn 0.06427002 0.9907227 -0.1207886
vn 0.06427002 0.9907227 -0.1207886
vn 0.06524658 0.9912109 -0.1130371
vn 0.06427002 0.9907227 -0.1207886
vn 0.06427002 0.9907227 -0.1207886
vn 0.06427002 0.9907227 -0.1207886
vn 0.06427002 0.9907227 -0.1207886

vt 0.3920898 0.9853516
vt 0.06225586 0.2836914
vt 0.06225586 0.7163086
vt 0.9853516 0.5
vt 0.8027344 0.1107178
vt 0.3920898 0.0144043
vt 0.8027344 0.8891602
vt 0.8027344 0.1107178
vt 0.06225586 0.2836914
vt 0.3920898 0.0144043
vt 0.8027344 0.8891602
vt 0.3920898 0.9853516
vt 0.06225586 0.7163086
vt 0.9853516 0.5

g BigLog_LOD1_13963_473
usemtl BigLog_LOD1_13963_473
usemap BigLog_LOD1_13963_473
f 1/1/1 3/3/3 2/2/2
f 1/1/1 2/2/2 4/4/4
f 2/2/2 5/5/5 4/4/4
f 2/2/2 6/6/6 5/5/5
f 7/7/7 1/1/1 4/4/4
f 8/8/8 10/10/10 9/9/9
f 8/8/8 9/9/9 11/11/11
f 9/9/9 12/12/12 11/11/11
f 9/9/9 13/13/13 12/12/12
f 14/14/14 8/8/8 11/11/11
