#BigLog_LOD0_14753_24.obj

v 0.4686889 -2.640372 0.4390395
v -0.04854838 -2.640372 0.5635335
v 0.1979444 -2.640373 0.5246985
v 0.6646565 -2.640372 -0.01857479
v -0.4105106 -2.640372 -0.236858
v -0.4187241 -2.640372 0.2437865
v -0.2219507 -2.640372 0.4081725
v -0.4429804 -2.640372 0.0195461
v 0.4753806 -2.640372 -0.4269507
v 0.005599898 -2.640372 -0.5163919
v -0.2152683 -2.640372 -0.4578913
v 0.2520927 -2.640372 -0.555227
v 0.5874623 -2.640372 -0.2481423
v 0.5792395 -2.640371 0.2324284
v 0.7043002 2.640372 -0.01365704
v 0.4710204 2.640372 -0.4340411
v 0.6055914 2.640372 -0.244996
v 0.4444323 2.640372 0.4320243
v -0.392381 2.640371 -0.2597426
v 0.005436878 2.640372 -0.5453989
v 0.2519325 2.640372 -0.5527353
v -0.2196146 2.640371 -0.4268628
v 0.01277084 2.640371 0.5345287
v -0.405355 2.640373 0.2209047
v -0.4033407 2.640372 -0.01236631
v -0.2462098 2.640372 0.439111
v 0.2592664 2.640371 0.5271924
v 0.5926179 2.640372 0.2355698
v 0.7103461 -1.543531 -0.04693422
v 0.7084088 -1.510251 0.03468559
v 0.7144502 -1.51009 -0.01405994
v 0.701238 -1.594376 0.0664345
v 0.6966478 -1.543289 0.06474143
v 0.7257345 -1.628864 -0.009787885
v 0.7195259 -1.627977 0.03750891
v 0.7148519 -1.593489 -0.04669222
v 0.2377448 -1.607027 -0.6816547
v 0.1572523 -1.640951 -0.7109886
v 0.2053566 -1.641918 -0.6991394
v 0.1247762 -1.555698 -0.7099446
v 0.1253407 -1.607994 -0.710347
v 0.2024564 -1.522016 -0.6982562
v 0.1541898 -1.52395 -0.7100256
v 0.2370261 -1.557633 -0.6810899
v -0.112205 -0.5527318 -0.7083277
v -0.1931068 -0.5861717 -0.7054309
v -0.1443602 -0.585849 -0.7119576
v -0.2263853 -0.4995495 -0.6929387
v -0.2242886 -0.5524904 -0.6930165
v -0.154909 -0.4669959 -0.7101832
v -0.2035053 -0.4704598 -0.702773
v -0.1141434 -0.5030941 -0.7073669
v -0.7106678 -0.5528922 -0.09222635
v -0.7257363 -0.5867363 -0.009057987
v -0.7192855 -0.586817 -0.05926336
v -0.7256561 -0.5015639 0.02526564
v -0.7257313 -0.5528926 0.02485432
v -0.7191301 -0.4677201 -0.05717431
v -0.7254944 -0.4684455 -0.006892813
v -0.7104235 -0.502289 -0.09174126
v 0.7049419 0.5566801 -0.04008576
v 0.7134902 0.5895553 0.03944831
v 0.7127602 0.5892337 -0.009626652
v 0.70736 0.5049487 0.07191442
v 0.7064763 0.5563577 0.07159266
v 0.7147784 0.4717496 -0.008342077
v 0.7154998 0.4718305 0.04048938
v 0.7057529 0.5050285 -0.0400067
v 0.1282406 0.5080906 -0.6871343
v 0.04411831 0.4742471 -0.7066329
v 0.09359105 0.4731196 -0.6996254
v 0.0137353 0.5582114 -0.7022884
v 0.01284985 0.506963 -0.7042209
v 0.09858827 0.5918123 -0.6950347
v 0.04886938 0.5925375 -0.7023628
v 0.1288894 0.5589354 -0.6856028
v 0.4777139 1.543208 -0.5033371
v 0.4190514 1.509849 -0.5660293
v 0.4553141 1.508721 -0.5310599
v 0.3985809 1.59212 -0.5865766
v 0.3944709 1.542081 -0.5840794
v 0.4699755 1.626044 -0.5333102
v 0.4350103 1.628138 -0.5681241
v 0.4831933 1.594214 -0.5056697
v -0.6823803 1.579872 -0.03428777
v -0.6771468 1.546271 0.0485464
v -0.6837516 1.547156 -0.001812282
v -0.6595763 1.630797 0.08263738
v -0.666433 1.580758 0.08336224
v -0.6676373 1.664157 -0.002294349
v -0.6607909 1.6644 0.04830482
v -0.6753734 1.630959 -0.03477082
v 0.391011 1.549091 0.5772269
v 0.4549883 1.516054 0.5347562
v 0.4153469 1.518632 0.5650515
v 0.4862527 1.602757 0.5065533
v 0.4816633 1.551669 0.506074
v 0.4322625 1.636277 0.5605516
v 0.470624 1.633376 0.5296012
v 0.3943099 1.599856 0.5771405
v 0.5093788 -2.162458 -0.5897996
v 0.4678 -2.075191 -0.6056742
v 0.4712645 -2.126036 -0.6057494
v 0.5287163 -2.042878 -0.5621584
v 0.4918139 -2.045135 -0.593985
v 0.5557164 -2.129018 -0.532666
v 0.5503955 -2.077528 -0.5321044
v 0.5443515 -2.159477 -0.5574816
v 0.5304131 -2.159155 0.5130106
v 0.5460392 -2.075997 0.4847294
v 0.5499141 -2.126278 0.4868105
v 0.4784377 -2.042475 0.5412061
v 0.518803 -2.040703 0.5109972
v 0.4557173 -2.12515 0.5574837
v 0.4526496 -2.074142 0.555462
v 0.4907698 -2.160202 0.5433042
v 0.5786818 -1.112353 -0.325012
v 0.5564343 -1.027825 -0.3561188
v 0.5574834 -1.077542 -0.3560371
v 0.5960847 -0.9940629 -0.2802924
v 0.5751353 -0.9937407 -0.326707
v 0.6064734 -1.078751 -0.2479006
v 0.6052684 -1.027503 -0.2479019
v 0.5993046 -1.111063 -0.2786059
v 0.2064074 -1.119444 0.6520822
v 0.2371822 -1.035642 0.6367019
v 0.2375877 -1.085036 0.6354808
v 0.1549953 -1.001798 0.6710192
v 0.2028553 -0.9997035 0.6563628
v 0.1259088 -1.08552 0.6710241
v 0.1253444 -1.033466 0.6726348
v 0.1585388 -1.11896 0.66716
v -0.5151823 0.998575 -0.5578889
v -0.5329928 1.083022 -0.5305725
v -0.5333891 1.031693 -0.5307345
v -0.477709 1.115817 -0.5908491
v -0.5140502 1.11622 -0.5576476
v -0.4508788 1.031532 -0.6064011
v -0.4505613 1.083425 -0.6062394
v -0.4789203 0.9987363 -0.5910092
v -0.4706182 1.000186 0.5433019
v -0.4435436 1.085196 0.5543505
v -0.444272 1.031452 0.554496
v -0.5080934 1.118316 0.5147712
v -0.467484 1.115012 0.5437944
v -0.5378283 1.033708 0.4853679
v -0.5369378 1.081894 0.4852057
v -0.5111509 0.9978499 0.5142096
v 0.6395949 2.037158 -0.3213083
v 0.6379879 2.119025 -0.3472566
v 0.6314579 2.067133 -0.3466115
v 0.6803668 2.152064 -0.2716751
v 0.6569198 2.152869 -0.3171966
v 0.6864089 2.070437 -0.2415391
v 0.692372 2.119913 -0.2425049
v 0.6624011 2.033854 -0.2761041
v -0.6343573 2.073902 -0.2736093
v -0.6187251 2.158026 -0.2412959
v -0.6258945 2.107584 -0.2404105
v -0.6019683 2.189613 -0.3201814
v -0.6176758 2.191385 -0.2756198
v -0.590681 2.10863 -0.3420157
v -0.5854495 2.159799 -0.3408875
v -0.6205797 2.072854 -0.3160747
v -0.5648161 2.063668 0.3135742
v -0.5358139 2.149001 0.3384709
v -0.538709 2.098639 0.3399226
v -0.5747316 2.182362 0.2669107
v -0.5561114 2.182522 0.3121181
v -0.5823045 2.097995 0.2350066
v -0.5787565 2.149081 0.2344469
v -0.5828639 2.064232 0.2692485
v -0.08649872 2.059639 0.7119473
v -0.04210541 2.147068 0.7109917
v -0.04532609 2.09598 0.7116292
v -0.1153525 2.179621 0.6974533
v -0.06804904 2.1768 0.710512
v -0.1541901 2.092999 0.6810153
v -0.1497574 2.144167 0.6789955
v -0.1325942 2.06262 0.6976198
v 0.7074462 2.043281 0.3176049
v 0.7250084 2.127728 0.2909324
v 0.7214639 2.075513 0.2898048
v 0.6888269 2.16141 0.361683
v 0.7155778 2.15996 0.3198597
v 0.6589326 2.075996 0.3859371
v 0.6617533 2.126198 0.3876207
v 0.6800439 2.042717 0.3599118

vn -0.06524658 -0.9912109 0.1130371
vn -0.06524658 -0.9912109 0.1130371
vn -0.06524658 -0.9912109 0.1130371
vn -0.06524658 -0.9912109 0.1130371
vn -0.06524658 -0.9912109 0.1130371
vn -0.06524658 -0.9912109 0.1130371
vn 0.06427002 0.9907227 -0.1207886
vn -0.06524658 -0.9912109 0.1130371
vn -0.06524658 -0.9912109 0.1130371
vn -0.06524658 -0.9912109 0.1130371
vn -0.06524658 -0.9912109 0.1130371
vn -0.06524658 -0.9912109 0.1130371
vn -0.06524658 -0.9912109 0.1130371
vn -0.06524658 -0.9912109 0.1130371
vn 0.06427002 0.9907227 -0.1207886
vn 0.06427002 0.9907227 -0.1207886
vn 0.06427002 0.9907227 -0.1207886
vn 0.06524658 0.9912109 -0.1130371
vn 0.06427002 0.9907227 -0.1207886
vn 0.06427002 0.9907227 -0.1207886
vn 0.06427002 0.9907227 -0.1207886
vn 0.06427002 0.9907227 -0.1207886
vn 0.06427002 0.9907227 -0.1207886
vn 0.06427002 0.9907227 -0.1207886
vn 0.06524658 0.9912109 -0.1130371
vn 0.06524658 0.9912109 -0.1130371
vn 0.06524658 0.9912109 -0.1130371
vn 0.06524658 0.9912109 -0.1130371
vn 0.1279297 0.1430664 0.9814453
vn 0.01574707 0.04953003 0.9985352
vn 0.01701355 -0.1174316 0.9931641
vn -0.06222534 0.2717285 0.9604492
vn -0.3222656 0.2283936 0.9189453
vn 0.02923584 0.3649902 0.9306641
vn 0.05075073 0.4985352 0.8652344
vn 0.3254395 0.1715088 0.9296875
vn 0.9863281 0.006313324 0.1638184
vn 0.9921875 0.07751465 0.09967041
vn 0.9755859 0.1968994 0.09661865
vn 0.9916992 -0.08929443 0.09411621
vn 0.9892578 -0.06817627 -0.1306152
vn 0.9775391 -0.1539307 0.1427002
vn 0.9511719 -0.2697754 0.1508789
vn 0.9384766 -0.0007395744 0.3457031
vn 0.9765625 -0.03735352 -0.2119141
vn 0.9619141 0.01980591 -0.2719727
vn 0.953125 0.1395264 -0.2680664
vn 0.9477539 -0.1468506 -0.2836914
vn 0.8666992 -0.1254883 -0.4824219
vn 0.953125 -0.1964111 -0.2312012
vn 0.9257813 -0.3115234 -0.2150879
vn 0.9985352 -0.04904175 -0.03044128
vn -0.002244949 -0.08966064 -0.9960938
vn -0.01574707 -0.04953003 -0.9985352
vn 0.003328323 0.01239014 -1
vn -0.003803253 -0.1364746 -0.9907227
vn -0.1254883 -0.104248 -0.9868164
vn -0.0193634 -0.1741943 -0.984375
vn -0.005058289 -0.2369385 -0.9716797
vn 0.1244507 -0.1203613 -0.9848633
vn 0.1239014 0.08087158 0.9887695
vn 0.1951904 0.00403595 0.980957
vn 0.1080933 -0.1157227 0.9873047
vn 0.1292725 0.1661377 0.9775391
vn -0.08856201 0.1418457 0.9858398
vn 0.1330566 0.2353516 0.9628906
vn 0.1644287 0.3474121 0.9233398
vn 0.3684082 0.09692383 0.9248047
vn 0.9990234 -0.000767231 0.04370117
vn 0.9985352 0.05810547 0.005535126
vn 0.9892578 0.1456299 0.005027771
vn 0.9980469 -0.06185913 -0.005146027
vn 0.9863281 -0.04730225 -0.1563721
vn 0.9921875 -0.1192627 0.04168701
vn 0.9775391 -0.2049561 0.04495239
vn 0.9799805 -0.01290894 0.1986084
vn 0.7719727 -0.04293823 0.6337891
vn 0.8071289 0.0287323 0.5898438
vn 0.8032227 0.1462402 0.5776367
vn 0.8051758 -0.114502 0.5820313
vn 0.9047852 -0.09313965 0.4157715
vn 0.7626953 -0.1865234 0.6191406
vn 0.7338867 -0.2963867 0.6108398
vn 0.6303711 -0.06463623 0.7739258
vn -0.2137451 0.04525757 -0.9760742
vn -0.2634277 0.05792236 -0.9628906
vn -0.244873 0.07208252 -0.9667969
vn -0.2341309 0.03123474 -0.9716797
vn -0.2785645 0.04348755 -0.9594727
vn -0.2424316 0.02407837 -0.9697266
vn -0.2626953 0.002244949 -0.9648438
vn -0.2246094 0.03829956 -0.9736328
vn -0.7294922 0.1308594 0.6713867
vn -0.6977539 0.178833 0.6938477
vn -0.6806641 0.2937012 0.6708984
vn -0.6728516 0.02435303 0.7392578
vn -0.5317383 0.05923462 0.8447266
vn -0.7036133 -0.03253174 0.7094727
vn -0.6943359 -0.1445313 0.7050781
vn -0.847168 0.0894165 0.5239258
vn 0.8466797 0.112854 0.5200195
vn 0.8999023 0.02032471 0.435791
vn 0.9575195 -0.000951767 0.2875977
vn 0.8012695 0.04574585 0.5966797
vn 0.7856445 -0.2164307 0.5795898
vn 0.7329102 0.1297607 0.6679688
vn 0.6123047 0.1505127 0.7763672
vn 0.796875 0.3503418 0.4921875
vn -0.6728516 0.2412109 0.699707
vn -0.6333008 0.2045898 0.7460938
vn -0.5512695 0.2142334 0.8061523
vn -0.7397461 0.1610107 0.6533203
vn -0.7143555 -0.001349449 0.699707
vn -0.7709961 0.1970215 0.6054688
vn -0.8354492 0.175415 0.5205078
vn -0.6665039 0.3913574 0.6347656
vn 0.5493164 0.1054688 0.8291016
vn 0.5908203 0.06811523 0.8041992
vn 0.6503906 0.06658936 0.7568359
vn 0.5 0.06524658 0.8637695
vn 0.5146484 -0.07928467 0.8535156
vn 0.4428711 0.1038208 0.890625
vn 0.3681641 0.1125488 0.9228516
vn 0.5205078 0.2484131 0.8168945
vn -0.890625 0.1217651 0.4382324
vn -0.8603516 0.08770752 0.5019531
vn -0.8076172 0.1015015 0.5810547
vn -0.9243164 0.04577637 0.3791504
vn -0.8959961 -0.1246338 0.4262695
vn -0.9458008 0.0791626 0.3146973
vn -0.9775391 0.05996704 0.2015381
vn -0.8793945 0.2880859 0.3786621
vn 0.6181641 -0.08898926 -0.7807617
vn 0.5620117 -0.1291504 -0.8168945
vn 0.4523926 -0.1219482 -0.8833008
vn 0.6713867 -0.1569824 -0.7246094
vn 0.6152344 -0.3342285 -0.7138672
vn 0.7241211 -0.1156616 -0.6801758
vn 0.8012695 -0.1176147 -0.5864258
vn 0.6469727 0.09399414 -0.7568359
vn -0.8862305 0.04705811 -0.4609375
vn -0.9179688 0.009178162 -0.3969727
vn -0.9584961 0.03320313 -0.282959
vn -0.8583984 -0.02412415 -0.512207
vn -0.8676758 -0.1837158 -0.4616699
vn -0.8232422 0.006576538 -0.5678711
vn -0.7714844 -0.01273346 -0.6357422
vn -0.8413086 0.2056885 -0.4997559
vn 0.5532227 -0.06079102 0.8310547
vn 0.5415039 -0.05108643 0.8393555
vn 0.5234375 -0.05657959 0.8500977
vn 0.5556641 -0.05316162 0.8295898
vn 0.5644531 -0.02259827 0.8251953
vn 0.5693359 -0.05517578 0.8203125
vn 0.5825195 -0.05715942 0.8110352
vn 0.5449219 -0.08355713 0.8344727
vn 0.1381836 0.09228516 -0.9863281
vn 0.01068878 0.003993988 -1
vn -0.2137451 0.04525757 -0.9760742
vn 0.2875977 -0.07995605 -0.9545898
vn 0.1765137 -0.40625 -0.8964844
vn 0.4216309 -0.01976013 -0.9067383
vn 0.6083984 -0.04223633 -0.7924805
vn 0.1988525 0.3747559 -0.9057617
vn -0.5234375 0.05657959 -0.8500977
vn -0.6196289 0.007274628 -0.784668
vn -0.7421875 0.03686523 -0.6689453
vn -0.4404297 -0.05712891 -0.8959961
vn -0.484375 -0.3215332 -0.8134766
vn -0.3486328 -0.004707336 -0.9375
vn -0.1211548 -0.04196167 -0.9916992
vn -0.4318848 0.3039551 -0.8491211
vn -0.9814453 0.1307373 -0.1397705
vn -0.9970703 0.07366943 -0.02812195
vn -0.9897461 0.08978271 0.1123657
vn -0.9794922 0.05285645 -0.1950684
vn -0.9755859 -0.1772461 -0.1306152
vn -0.9448242 0.1083984 -0.309082
vn -0.8930664 0.08947754 -0.4406738
vn -0.9174805 0.3503418 -0.1878662
vn -0.4140625 0.09039307 0.9057617
vn -0.3537598 0.05807495 0.9335938
vn -0.2661133 0.05575562 0.9624023
vn -0.4621582 0.03582764 0.8862305
vn -0.440918 -0.1074219 0.8911133
vn -0.5112305 0.07507324 0.8564453
vn -0.5820313 0.06640625 0.8105469
vn -0.4221191 0.2376709 0.875

vt 0.8027344 0.8891602
vt 0.3920898 0.9853516
vt 0.6079102 0.9853516
vt 0.9853516 0.5
vt 0.06225586 0.2836914
vt 0.06225586 0.7163086
vt 0.1975098 0.8891602
vt 0.0144043 0.5
vt 0.8027344 0.1107178
vt 0.3920898 0.0144043
vt 0.1975098 0.1107178
vt 0.6079102 0.0144043
vt 0.9375 0.2836914
vt 0.9375 0.7163086
vt 0.9853516 0.5
vt 0.8027344 0.1107178
vt 0.9375 0.2836914
vt 0.8027344 0.8891602
vt 0.06225586 0.2836914
vt 0.3920898 0.0144043
vt 0.6079102 0.0144043
vt 0.1975098 0.1107178
vt 0.3920898 0.9853516
vt 0.06225586 0.7163086
vt 0.0144043 0.5
vt 0.1975098 0.8891602
vt 0.6079102 0.9853516
vt 0.9375 0.7163086
vt 0.3212891 0.878418
vt 0.09863281 0.3188477
vt 0.09735107 0.6567383
vt 0.6733398 0.0947876
vt 0.3200684 0.1030884
vt 0.9199219 0.637207
vt 0.9135742 0.3085938
vt 0.6669922 0.8803711
vt 0.6992188 0.08459473
vt 0.9331055 0.6713867
vt 0.940918 0.3295898
vt 0.3449707 0.8867188
vt 0.7060547 0.8833008
vt 0.1139526 0.3481445
vt 0.1273193 0.6899414
vt 0.3583984 0.08843994
vt 0.09033203 0.3225098
vt 0.6557617 0.1119995
vt 0.3193359 0.1018066
vt 0.8642578 0.7163086
vt 0.8623047 0.3513184
vt 0.3640137 0.9228516
vt 0.699707 0.9106445
vt 0.09161377 0.6650391
vt 0.102478 0.3161621
vt 0.675293 0.08270264
vt 0.3288574 0.08270264
vt 0.9116211 0.6694336
vt 0.9086914 0.3154297
vt 0.3435059 0.9023438
vt 0.6899414 0.8974609
vt 0.1049805 0.6645508
vt 0.8813477 0.6748047
vt 0.3327637 0.9013672
vt 0.6708984 0.8994141
vt 0.1088257 0.3181152
vt 0.1113892 0.6723633
vt 0.6625977 0.08905029
vt 0.3256836 0.08972168
vt 0.8808594 0.3188477
vt 0.675293 0.1011963
vt 0.909668 0.6938477
vt 0.9179688 0.3493652
vt 0.3295898 0.8974609
vt 0.6831055 0.9052734
vt 0.09991455 0.3110352
vt 0.0947876 0.6577148
vt 0.3244629 0.0947876
vt 0.8896484 0.6933594
vt 0.2990723 0.918457
vt 0.6459961 0.9262695
vt 0.09924316 0.3544922
vt 0.09033203 0.7006836
vt 0.7080078 0.1139526
vt 0.3679199 0.09924316
vt 0.9057617 0.3398438
vt 0.6918945 0.08074951
vt 0.9267578 0.6513672
vt 0.9208984 0.3007813
vt 0.3378906 0.8999023
vt 0.6855469 0.8984375
vt 0.1069336 0.3122559
vt 0.1056519 0.6645508
vt 0.3366699 0.08392334
vt 0.2912598 0.8857422
vt 0.1036987 0.3442383
vt 0.09735107 0.6879883
vt 0.7182617 0.09667969
vt 0.3647461 0.0947876
vt 0.9150391 0.6337891
vt 0.9189453 0.2939453
vt 0.6420898 0.8920898
vt 0.08587646 0.3430176
vt 0.7119141 0.09924316
vt 0.3608398 0.09222412
vt 0.894043 0.6264648
vt 0.9018555 0.2900391
vt 0.2861328 0.8583984
vt 0.6430664 0.8579102
vt 0.08392334 0.6723633
vt 0.3022461 0.9326172
vt 0.09863281 0.3544922
vt 0.08587646 0.7016602
vt 0.7045898 0.1260986
vt 0.3569336 0.1139526
vt 0.8974609 0.6943359
vt 0.9057617 0.3422852
vt 0.6459961 0.9399414
vt 0.102478 0.3532715
vt 0.6855469 0.0947876
vt 0.3430176 0.09863281
vt 0.9169922 0.6835938
vt 0.9189453 0.3327637
vt 0.3339844 0.9165039
vt 0.6875 0.9125977
vt 0.1107178 0.7036133
vt 0.9169922 0.6660156
vt 0.340332 0.8999023
vt 0.6811523 0.9052734
vt 0.1062622 0.2888184
vt 0.09222412 0.6333008
vt 0.6850586 0.09735107
vt 0.3256836 0.09094238
vt 0.9135742 0.3193359
vt 0.9150391 0.6430664
vt 0.3327637 0.8603516
vt 0.6860352 0.8618164
vt 0.1069336 0.2990723
vt 0.1043701 0.6376953
vt 0.6875 0.09033203
vt 0.3303223 0.08972168
vt 0.9140625 0.3046875
vt 0.1260986 0.2924805
vt 0.7128906 0.09735107
vt 0.3422852 0.1005249
vt 0.9399414 0.6171875
vt 0.9179688 0.2727051
vt 0.3583984 0.9018555
vt 0.6899414 0.8979492
vt 0.1107178 0.6362305
vt 0.1304932 0.2626953
vt 0.6992188 0.09863281
vt 0.3391113 0.08203125
vt 0.9272461 0.6953125
vt 0.9331055 0.3422852
vt 0.3620605 0.8984375
vt 0.7045898 0.9116211
vt 0.1075439 0.6108398
vt 0.3410645 0.9082031
vt 0.164917 0.3110352
vt 0.1433105 0.6611328
vt 0.7167969 0.1036987
vt 0.3908691 0.09222412
vt 0.8847656 0.6538086
vt 0.8886719 0.2990723
vt 0.6494141 0.9165039
vt 0.9052734 0.6318359
vt 0.3105469 0.8666992
vt 0.6582031 0.8686523
vt 0.08459473 0.3085938
vt 0.08392334 0.6459961
vt 0.6625977 0.08520508
vt 0.3098145 0.09094238
vt 0.9013672 0.3022461
vt 0.6245117 0.08013916
vt 0.887207 0.7026367
vt 0.8896484 0.3500977
vt 0.3679199 0.8916016
vt 0.6943359 0.894043
vt 0.1433105 0.2773438
vt 0.1490479 0.6308594
vt 0.3059082 0.07818604
vt 0.338623 0.8886719
vt 0.1184082 0.3078613
vt 0.1247559 0.668457
vt 0.6625977 0.07244873
vt 0.3212891 0.08270264
vt 0.9150391 0.6650391
vt 0.9140625 0.3188477
vt 0.6855469 0.8920898

g BigLog_LOD0_14753_24
usemtl BigLog_LOD0_14753_24
usemap BigLog_LOD0_14753_24
f 1/1/1 3/3/3 2/2/2
f 1/1/1 2/2/2 4/4/4
f 2/2/2 5/5/5 4/4/4
f 2/2/2 6/6/6 5/5/5
f 2/2/2 7/7/7 6/6/6
f 6/6/6 8/8/8 5/5/5
f 5/5/5 9/9/9 4/4/4
f 5/5/5 10/10/10 9/9/9
f 5/5/5 11/11/11 10/10/10
f 10/10/10 12/12/12 9/9/9
f 9/9/9 13/13/13 4/4/4
f 14/14/14 1/1/1 4/4/4
f 15/15/15 17/17/17 16/16/16
f 15/15/15 16/16/16 18/18/18
f 16/16/16 19/19/19 18/18/18
f 16/16/16 20/20/20 19/19/19
f 16/16/16 21/21/21 20/20/20
f 20/20/20 22/22/22 19/19/19
f 19/19/19 23/23/23 18/18/18
f 19/19/19 24/24/24 23/23/23
f 19/19/19 25/25/25 24/24/24
f 24/24/24 26/26/26 23/23/23
f 23/23/23 27/27/27 18/18/18
f 28/28/28 15/15/15 18/18/18
f 29/29/29 31/31/31 30/30/30
f 29/29/29 30/30/30 32/32/32
f 30/30/30 33/33/33 32/32/32
f 29/29/29 32/32/32 34/34/34
f 32/32/32 35/35/35 34/34/34
f 36/36/36 29/29/29 34/34/34
f 37/37/37 39/39/39 38/38/38
f 37/37/37 38/38/38 40/40/40
f 38/38/38 41/41/41 40/40/40
f 37/37/37 40/40/40 42/42/42
f 40/40/40 43/43/43 42/42/42
f 44/44/44 37/37/37 42/42/42
f 45/45/45 47/47/47 46/46/46
f 45/45/45 46/46/46 48/48/48
f 46/46/46 49/49/49 48/48/48
f 45/45/45 48/48/48 50/50/50
f 48/48/48 51/51/51 50/50/50
f 52/52/52 45/45/45 50/50/50
f 53/53/53 55/55/55 54/54/54
f 53/53/53 54/54/54 56/56/56
f 54/54/54 57/57/57 56/56/56
f 53/53/53 56/56/56 58/58/58
f 56/56/56 59/59/59 58/58/58
f 60/60/60 53/53/53 58/58/58
f 61/61/61 63/63/63 62/62/62
f 61/61/61 62/62/62 64/64/64
f 62/62/62 65/65/65 64/64/64
f 61/61/61 64/64/64 66/66/66
f 64/64/64 67/67/67 66/66/66
f 68/68/68 61/61/61 66/66/66
f 69/69/69 71/71/71 70/70/70
f 69/69/69 70/70/70 72/72/72
f 70/70/70 73/73/73 72/72/72
f 69/69/69 72/72/72 74/74/74
f 72/72/72 75/75/75 74/74/74
f 76/76/76 69/69/69 74/74/74
f 77/77/77 79/79/79 78/78/78
f 77/77/77 78/78/78 80/80/80
f 78/78/78 81/81/81 80/80/80
f 77/77/77 80/80/80 82/82/82
f 80/80/80 83/83/83 82/82/82
f 84/84/84 77/77/77 82/82/82
f 85/85/85 87/87/87 86/86/86
f 85/85/85 86/86/86 88/88/88
f 86/86/86 89/89/89 88/88/88
f 85/85/85 88/88/88 90/90/90
f 88/88/88 91/91/91 90/90/90
f 92/92/92 85/85/85 90/90/90
f 93/93/93 95/95/95 94/94/94
f 93/93/93 94/94/94 96/96/96
f 94/94/94 97/97/97 96/96/96
f 93/93/93 96/96/96 98/98/98
f 96/96/96 99/99/99 98/98/98
f 100/100/100 93/93/93 98/98/98
f 101/101/101 103/103/103 102/102/102
f 101/101/101 102/102/102 104/104/104
f 102/102/102 105/105/105 104/104/104
f 101/101/101 104/104/104 106/106/106
f 104/104/104 107/107/107 106/106/106
f 108/108/108 101/101/101 106/106/106
f 109/109/109 111/111/111 110/110/110
f 109/109/109 110/110/110 112/112/112
f 110/110/110 113/113/113 112/112/112
f 109/109/109 112/112/112 114/114/114
f 112/112/112 115/115/115 114/114/114
f 116/116/116 109/109/109 114/114/114
f 117/117/117 119/119/119 118/118/118
f 117/117/117 118/118/118 120/120/120
f 118/118/118 121/121/121 120/120/120
f 117/117/117 120/120/120 122/122/122
f 120/120/120 123/123/123 122/122/122
f 124/124/124 117/117/117 122/122/122
f 125/125/125 127/127/127 126/126/126
f 125/125/125 126/126/126 128/128/128
f 126/126/126 129/129/129 128/128/128
f 125/125/125 128/128/128 130/130/130
f 128/128/128 131/131/131 130/130/130
f 132/132/132 125/125/125 130/130/130
f 133/133/133 135/135/135 134/134/134
f 133/133/133 134/134/134 136/136/136
f 134/134/134 137/137/137 136/136/136
f 133/133/133 136/136/136 138/138/138
f 136/136/136 139/139/139 138/138/138
f 140/140/140 133/133/133 138/138/138
f 141/141/141 143/143/143 142/142/142
f 141/141/141 142/142/142 144/144/144
f 142/142/142 145/145/145 144/144/144
f 141/141/141 144/144/144 146/146/146
f 144/144/144 147/147/147 146/146/146
f 148/148/148 141/141/141 146/146/146
f 149/149/149 151/151/151 150/150/150
f 149/149/149 150/150/150 152/152/152
f 150/150/150 153/153/153 152/152/152
f 149/149/149 152/152/152 154/154/154
f 152/152/152 155/155/155 154/154/154
f 156/156/156 149/149/149 154/154/154
f 157/157/157 159/159/159 158/158/158
f 157/157/157 158/158/158 160/160/160
f 158/158/158 161/161/161 160/160/160
f 157/157/157 160/160/160 162/162/162
f 160/160/160 163/163/163 162/162/162
f 164/164/164 157/157/157 162/162/162
f 165/165/165 167/167/167 166/166/166
f 165/165/165 166/166/166 168/168/168
f 166/166/166 169/169/169 168/168/168
f 165/165/165 168/168/168 170/170/170
f 168/168/168 171/171/171 170/170/170
f 172/172/172 165/165/165 170/170/170
f 173/173/173 175/175/175 174/174/174
f 173/173/173 174/174/174 176/176/176
f 174/174/174 177/177/177 176/176/176
f 173/173/173 176/176/176 178/178/178
f 176/176/176 179/179/179 178/178/178
f 180/180/180 173/173/173 178/178/178
f 181/181/181 183/183/183 182/182/182
f 181/181/181 182/182/182 184/184/184
f 182/182/182 185/185/185 184/184/184
f 181/181/181 184/184/184 186/186/186
f 184/184/184 187/187/187 186/186/186
f 188/188/188 181/181/181 186/186/186
