#Bridge3_(18)_1972_112.obj

v -4.82817 17.33061 5.505815
v 4.828194 17.33063 5.505815
v -4.828172 -17.33062 5.50582
v 4.828192 -17.33062 5.50582

vn 0.01586914 0.9995117 0.01586914
vn 0.01586914 0.9995117 0.01586914
vn 0.01586914 0.9995117 0.01586914
vn 0.01586914 0.9995117 0.01586914

vt -2.367188 -0.1204834
vt -2.367188 1.479492
vt 3.367188 -0.1204834
vt 3.367188 1.479492

g Bridge3_(18)_1972_112
usemtl Bridge3_(18)_1972_112
usemap Bridge3_(18)_1972_112
f 1/1/1 3/3/3 2/2/2
f 2/2/2 3/3/3 4/4/4
