#Bridge3_(15)_1906_286.obj

v -4.828197 17.33062 5.505816
v 4.828151 17.33063 5.505816
v -4.828164 -17.33062 5.505816
v 4.828184 -17.33061 5.505816

vn 0.01582336 0.9995117 0.01593018
vn 0.01582336 0.9995117 0.01593018
vn 0.01582336 0.9995117 0.01593018
vn 0.01582336 0.9995117 0.01593018

vt -2.367188 -0.1204834
vt -2.367188 1.479492
vt 3.367188 -0.1204834
vt 3.367188 1.479492

g Bridge3_(15)_1906_286
usemtl Bridge3_(15)_1906_286
usemap Bridge3_(15)_1906_286
f 1/1/1 3/3/3 2/2/2
f 2/2/2 3/3/3 4/4/4
