#BridgeLong_LOD1_13707_98.obj

v 0.8058979 0.03710547 0.3334077
v 0.8058979 0.0758242 0.3334077
v -0.7273187 0.0758242 0.3296983
v -0.7273187 0.03710547 0.3296983
v 0.4970725 0.07559244 9.998031
v -1.035446 0.03710547 9.952126
v -1.035446 0.07559244 9.952126
v 0.4970725 0.03710547 9.998031
v -0.7273187 0.03710547 0.3296983
v -0.7273187 0.0758242 0.3296983
v -1.035446 0.07559244 9.952126
v -1.035446 0.03710547 9.952126
v -0.7273187 0.03710547 0.3296983
v -1.035446 0.03710547 9.952126
v 0.4970725 0.03710547 9.998031
v 0.8058979 0.03710547 0.3334077
v 0.8058979 0.0758242 0.3334077
v 0.8058979 0.03710547 0.3334077
v 0.4970725 0.03710547 9.998031
v 0.4970725 0.07559244 9.998031
v 0.4970725 0.07559244 9.998031
v -1.035446 0.07559244 9.952126
v -0.7273187 0.0758242 0.3296983
v 0.8058979 0.0758242 0.3334077

vn 0.9995117 0.003921509 -0.0241394
vn 0.9995117 0.003921509 -0.0241394
vn 0.9995117 0.003921509 -0.0241394
vn 0.9995117 0.003921509 -0.0241394
vn -1 -0.003921509 0.0006103516
vn -1 -0.003921509 0.0006103516
vn -1 -0.003921509 0.0006103516
vn -1 -0.003921509 0.0006103516
vn -0.02806091 -0.003921509 -0.9995117
vn -0.02806091 -0.003921509 -0.9995117
vn -0.02806091 -0.003921509 -0.9995117
vn -0.02806091 -0.003921509 -0.9995117
vn 0.0001100302 -1 0.003921509
vn 0.0001100302 -1 0.003921509
vn 0.0001100302 -1 0.003921509
vn 0.0001100302 -1 0.003921509
vn 0.02806091 0.003921509 0.9995117
vn 0.02806091 0.003921509 0.9995117
vn 0.02806091 0.003921509 0.9995117
vn 0.02806091 0.003921509 0.9995117
vn -0.0001100302 1 -0.003921509
vn -0.0001100302 1 -0.003921509
vn -0.0001100302 1 -0.003921509
vn -0.0001100302 1 -0.003921509

vt -0.3425293 0.2386475
vt -0.3425293 0.1878662
vt 1.342773 0.1878662
vt 1.342773 0.2386475
vt -0.4433594 0.6972656
vt 1.444336 0.7543945
vt 1.444336 0.6972656
vt -0.4433594 0.7543945
vt 0.03216553 0.2746582
vt 0.03216553 0.3054199
vt 0.03216553 0.1669922
vt 0.03216553 0.137085
vt 0.8676758 3.658203
vt 1.058594 -2.308594
vt 0.1079712 -2.335938
vt -0.08319092 3.65625
vt 0.03216553 0.3066406
vt 0.03216553 0.3366699
vt 0.03356934 0.1705322
vt 0.03356934 0.140625
vt 0.105835 -2.335938
vt 1.055664 -2.308594
vt 0.8647461 3.658203
vt -0.08532715 3.65625

g BridgeLong_LOD1_13707_98
usemtl BridgeLong_LOD1_13707_98
usemap BridgeLong_LOD1_13707_98
f 1/1/1 3/3/3 2/2/2
f 3/3/3 1/1/1 4/4/4
f 5/5/5 7/7/7 6/6/6
f 5/5/5 6/6/6 8/8/8
f 9/9/9 11/11/11 10/10/10
f 11/11/11 9/9/9 12/12/12
f 13/13/13 15/15/15 14/14/14
f 15/15/15 13/13/13 16/16/16
f 17/17/17 19/19/19 18/18/18
f 19/19/19 17/17/17 20/20/20
f 21/21/21 23/23/23 22/22/22
f 23/23/23 21/21/21 24/24/24
