#BridgeTurn90_(1)_1995_157.obj

v 11.36561 -13.51957 2.064889
v 11.36561 -13.51957 1.01959
v 9.940223 -12.22086 2.06489
v 9.940223 -12.22086 1.01959
v 8.894939 -10.57373 2.064888
v 8.894939 -10.57373 1.019591
v 10.16196 -11.99913 2.06489
v 10.16196 -11.99913 1.01959
v 3.129966 -19.09448 1.019587
v 3.129966 -19.09448 2.064887
v 1.102715 -16.8455 1.019588
v 1.102715 -16.8455 2.064888
v 2.876535 -19.31623 1.019587
v 2.876535 -19.31623 2.064887
v 5.157172 -21.34345 1.019586
v 5.157172 -21.34345 2.064886
v 4.84042 -0.05737569 1.019595
v 4.840419 -0.05737612 2.064892
v 4.935448 -1.989601 1.019594
v 4.935448 -1.989601 2.064891
v 4.935448 -1.989601 1.019594
v 4.935448 -1.989601 2.064891
v 5.283874 -3.890133 1.019593
v 5.283874 -3.890133 2.06489
v 5.283874 -3.890133 1.019593
v 5.283874 -3.890133 2.06489
v 5.82236 -5.759012 1.019593
v 5.82236 -5.759013 2.064889
v 6.582613 -7.532851 2.064888
v 6.582613 -7.532851 1.019592
v 5.82236 -5.759013 2.064889
v 5.82236 -5.759012 1.019593
v 7.501204 -9.211667 2.064888
v 7.501204 -9.211667 1.019591
v 6.582613 -7.532851 2.064888
v 6.582613 -7.532851 1.019592
v 8.641514 -10.79545 2.064887
v 8.641514 -10.79545 1.019591
v 7.501204 -9.211667 1.019591
v 7.501204 -9.211667 2.064888
v 9.940223 -12.22086 2.06489
v 9.940223 -12.22086 1.01959
v 8.641514 -10.79545 2.064887
v 8.641514 -10.79545 1.019591
v 20.20317 -17.13059 2.064888
v 22.13537 -17.22561 2.064885
v 22.13537 -17.22561 1.019589
v 20.20317 -17.13059 1.019589
v 20.20317 -17.13059 2.064888
v 20.20317 -17.13059 1.019589
v 18.30259 -16.81383 1.019589
v 18.30259 -16.81383 2.064888
v 16.43376 -16.27535 2.064888
v 18.30259 -16.81383 2.064888
v 18.30259 -16.81383 1.019589
v 16.43376 -16.27535 1.019589
v 16.43376 -16.27535 2.064888
v 16.43376 -16.27535 1.019589
v 14.65989 -15.54681 1.019589
v 14.65989 -15.54681 2.064888
v 12.94943 -14.62822 2.064889
v 14.65989 -15.54681 2.064888
v 14.65989 -15.54681 1.019589
v 12.94943 -14.62822 1.019589
v 12.94943 -14.62822 2.064889
v 12.94943 -14.62822 1.019589
v 11.36561 -13.51957 1.01959
v 11.36561 -13.51957 2.064889
v 22.13537 -16.90887 1.019589
v 22.13537 -16.90887 2.064885
v 20.23481 -16.78215 1.019589
v 20.23481 -16.78216 2.064885
v 20.23481 -16.78215 1.019589
v 20.23481 -16.78216 2.064885
v 18.36598 -16.49709 1.019589
v 18.36598 -16.49709 2.064888
v 16.52879 -15.9586 2.064888
v 16.52879 -15.9586 1.019589
v 18.36598 -16.49709 2.064888
v 18.36598 -16.49709 1.019589
v 14.78663 -15.26172 2.064889
v 14.78663 -15.26172 1.019589
v 16.52879 -15.9586 2.064888
v 16.52879 -15.9586 1.019589
v 13.13949 -14.34313 2.064889
v 13.13949 -14.34313 1.019589
v 14.78663 -15.26172 2.064889
v 14.78663 -15.26172 1.019589
v 11.58736 -13.23449 2.064889
v 11.58736 -13.23449 1.01959
v 13.13949 -14.34313 2.064889
v 13.13949 -14.34313 1.019589
v 10.16196 -11.99913 2.06489
v 10.16196 -11.99913 1.01959
v 11.58736 -13.23449 1.01959
v 11.58736 -13.23449 2.064889
v 5.283905 -1.957933 2.064891
v 5.157205 -0.05739187 2.064892
v 5.157205 -0.05739145 1.019595
v 5.283905 -1.957933 1.019594
v 5.60067 -3.826799 2.06489
v 5.283905 -1.957933 2.064891
v 5.283905 -1.957933 1.019594
v 5.60067 -3.826798 1.019593
v 6.139122 -5.632317 2.064889
v 5.60067 -3.826799 2.06489
v 5.60067 -3.826798 1.019593
v 6.139122 -5.632316 1.019593
v 6.867669 -7.374478 2.064889
v 6.139122 -5.632317 2.064889
v 6.139122 -5.632316 1.019593
v 6.867669 -7.374477 1.019592
v 7.78626 -9.053294 2.064888
v 6.867669 -7.374478 2.064889
v 6.867669 -7.374477 1.019592
v 7.786261 -9.053293 1.019591
v 8.894939 -10.57373 2.064888
v 7.78626 -9.053294 2.064888
v 7.786261 -9.053293 1.019591
v 8.894939 -10.57373 1.019591
v 22.16707 -26.88671 1.019585
v 22.16707 -26.88671 2.064884
v 19.15787 -26.72832 1.019585
v 19.15787 -26.72832 2.064884
v 19.15787 -26.72832 1.019585
v 19.15787 -26.72832 2.064884
v 16.18036 -26.25321 1.019585
v 16.18036 -26.25321 2.064884
v 16.18036 -26.25321 1.019585
v 16.18036 -26.25321 2.064884
v 13.26617 -25.42962 1.019585
v 13.26617 -25.42962 2.064884
v 13.26617 -25.42962 1.019585
v 13.26617 -25.42962 2.064884
v 10.4787 -24.28931 1.019585
v 10.4787 -24.28931 2.064885
v 10.4787 -24.28931 1.019585
v 10.4787 -24.28931 2.064885
v 7.849632 -22.83222 1.019586
v 7.849632 -22.83222 2.064885
v 7.849632 -22.83222 1.019586
v 7.849632 -22.83222 2.064885
v 5.378936 -21.09007 1.019586
v 5.378936 -21.09007 2.064886
v 5.378936 -21.09007 1.019586
v 5.378936 -21.09007 2.064886
v 3.129966 -19.09448 1.019587
v 3.129966 -19.09448 2.064887
v -4.662264 -3.09825 2.06489
v -4.820669 -0.08905443 2.064891
v -4.820669 -0.08905401 1.019595
v -4.662264 -3.09825 1.019593
v -4.123807 -6.075765 2.064892
v -4.662264 -3.09825 2.06489
v -4.662264 -3.09825 1.019593
v -4.123807 -6.075765 1.019592
v -3.30024 -8.989937 2.064891
v -4.123807 -6.075765 2.064892
v -4.123807 -6.075765 1.019592
v -3.30024 -8.989936 1.019591
v -2.128238 -11.74573 2.064889
v -3.30024 -8.989937 2.064891
v -3.30024 -8.989936 1.019591
v -2.128238 -11.74573 1.01959
v -2.128238 -11.74573 2.064889
v -2.128238 -11.74573 1.01959
v -0.6711407 -14.40649 1.019589
v -0.6711408 -14.40649 2.064888
v 1.102715 -16.8455 2.064888
v -0.6711408 -14.40649 2.064888
v -0.6711407 -14.40649 1.019589
v 1.102715 -16.8455 1.019588
v -5.1691 -0.08906353 1.019595
v -5.1691 -0.08906395 2.064891
v -4.979021 -3.161618 1.019593
v -4.979021 -3.161619 2.06489
v -4.979021 -3.161618 1.019593
v -4.979021 -3.161619 2.06489
v -4.47223 -6.170794 1.019592
v -4.47223 -6.170794 2.064892
v -4.47223 -6.170794 1.019592
v -4.47223 -6.170794 2.064892
v -3.616976 -9.084973 1.019591
v -3.616976 -9.084974 2.064891
v -3.616976 -9.084973 1.019591
v -3.616976 -9.084974 2.064891
v -2.413294 -11.9041 1.01959
v -2.413294 -11.9041 2.064889
v -2.413294 -11.9041 1.01959
v -2.413294 -11.9041 2.064889
v -0.9561965 -14.56486 1.019589
v -0.9561966 -14.56486 2.064888
v -0.9561965 -14.56486 1.019589
v -0.9561966 -14.56486 2.064888
v 0.849284 -17.06725 2.064888
v 0.849284 -17.06725 1.019588
v 0.849284 -17.06725 1.019588
v 0.849284 -17.06725 2.064888
v 2.876535 -19.31623 1.019587
v 2.876535 -19.31623 2.064887
v 19.12618 -27.07677 2.064884
v 22.16703 -27.23513 2.064884
v 22.16703 -27.23513 1.019585
v 19.12618 -27.07677 1.019585
v 19.12618 -27.07677 2.064884
v 19.12618 -27.07677 1.019585
v 16.11697 -26.56995 1.019585
v 16.11697 -26.56995 2.064884
v 13.17114 -25.74639 2.064884
v 16.11697 -26.56995 2.064884
v 16.11697 -26.56995 1.019585
v 13.17114 -25.74639 1.019585
v 10.35201 -24.57439 2.064885
v 13.17114 -25.74639 2.064884
v 13.17114 -25.74639 1.019585
v 10.35201 -24.57439 1.019585
v 7.659568 -23.11731 2.064885
v 10.35201 -24.57439 2.064885
v 10.35201 -24.57439 1.019585
v 7.659568 -23.11731 1.019586
v 5.157172 -21.34345 2.064886
v 7.659568 -23.11731 2.064885
v 7.659568 -23.11731 1.019586
v 5.157172 -21.34345 1.019586

vn -0.8769531 -0.1411133 -0.4597168
vn -0.8769531 -0.1411133 -0.4597168
vn -0.8769531 -0.1411133 -0.4597168
vn -0.8769531 -0.1411133 -0.4597168
vn 0.828125 -1.192093E-07 0.5605469
vn 0.828125 -1.192093E-07 0.5605469
vn 0.828125 -1.192093E-07 0.5605469
vn 0.828125 -1.192093E-07 0.5605469
vn 0.828125 -1.192093E-07 0.5605469
vn 0.828125 -1.192093E-07 0.5605469
vn 0.828125 -1.192093E-07 0.5605469
vn 0.828125 -1.192093E-07 0.5605469
vn -0.8769531 -0.1411133 -0.4597168
vn -0.8769531 -0.1411133 -0.4597168
vn -0.8769531 -0.1411133 -0.4597168
vn -0.8769531 -0.1411133 -0.4597168
vn -0.2783203 5.960464E-08 -0.9604492
vn -0.2783203 5.960464E-08 -0.9604492
vn -0.2783203 5.960464E-08 -0.9604492
vn -0.2783203 5.960464E-08 -0.9604492
vn -0.3962402 5.960464E-08 -0.9179688
vn -0.3962402 5.960464E-08 -0.9179688
vn -0.3962402 5.960464E-08 -0.9179688
vn -0.3962402 5.960464E-08 -0.9179688
vn -0.4848633 1.192093E-07 -0.8745117
vn -0.4848633 1.192093E-07 -0.8745117
vn -0.4848633 1.192093E-07 -0.8745117
vn -0.4848633 1.192093E-07 -0.8745117
vn -0.5932617 1.192093E-07 -0.8046875
vn -0.5932617 1.192093E-07 -0.8046875
vn -0.5932617 1.192093E-07 -0.8046875
vn -0.5932617 1.192093E-07 -0.8046875
vn -0.6801758 1.192093E-07 -0.7333984
vn -0.6801758 1.192093E-07 -0.7333984
vn -0.6801758 1.192093E-07 -0.7333984
vn -0.6801758 1.192093E-07 -0.7333984
vn -0.7592773 1.192093E-07 -0.6508789
vn -0.7592773 1.192093E-07 -0.6508789
vn -0.7592773 1.192093E-07 -0.6508789
vn -0.7592773 1.192093E-07 -0.6508789
vn -0.828125 1.192093E-07 -0.5605469
vn -0.828125 1.192093E-07 -0.5605469
vn -0.828125 1.192093E-07 -0.5605469
vn -0.828125 1.192093E-07 -0.5605469
vn -0.9824219 1.192093E-07 0.185791
vn -0.9824219 1.192093E-07 0.185791
vn -0.9824219 1.192093E-07 0.185791
vn -0.9824219 1.192093E-07 0.185791
vn -0.9980469 1.192093E-07 0.06161499
vn -0.9980469 1.192093E-07 0.06161499
vn -0.9980469 1.192093E-07 0.06161499
vn -0.9980469 1.192093E-07 0.06161499
vn -0.9995117 1.192093E-07 -0.03726196
vn -0.9995117 1.192093E-07 -0.03726196
vn -0.9995117 1.192093E-07 -0.03726196
vn -0.9995117 1.192093E-07 -0.03726196
vn -0.9907227 1.192093E-07 -0.1367188
vn -0.9907227 1.192093E-07 -0.1367188
vn -0.9907227 1.192093E-07 -0.1367188
vn -0.9907227 1.192093E-07 -0.1367188
vn -0.9614258 1.192093E-07 -0.2751465
vn -0.9614258 1.192093E-07 -0.2751465
vn -0.9614258 1.192093E-07 -0.2751465
vn -0.9614258 1.192093E-07 -0.2751465
vn -0.9238281 1.192093E-07 -0.3830566
vn -0.9238281 1.192093E-07 -0.3830566
vn -0.9238281 1.192093E-07 -0.3830566
vn -0.9238281 1.192093E-07 -0.3830566
vn 0.9824219 -1.192093E-07 -0.185791
vn 0.9824219 -1.192093E-07 -0.185791
vn 0.9824219 -1.192093E-07 -0.185791
vn 0.9824219 -1.192093E-07 -0.185791
vn 0.9980469 -1.192093E-07 -0.06161499
vn 0.9980469 -1.192093E-07 -0.06161499
vn 0.9980469 -1.192093E-07 -0.06161499
vn 0.9980469 -1.192093E-07 -0.06161499
vn 0.9995117 -1.192093E-07 0.03726196
vn 0.9995117 -1.192093E-07 0.03726196
vn 0.9995117 -1.192093E-07 0.03726196
vn 0.9995117 -1.192093E-07 0.03726196
vn 0.9907227 -1.192093E-07 0.1367188
vn 0.9907227 -1.192093E-07 0.1367188
vn 0.9907227 -1.192093E-07 0.1367188
vn 0.9907227 -1.192093E-07 0.1367188
vn 0.9614258 -1.192093E-07 0.2751465
vn 0.9614258 -1.192093E-07 0.2751465
vn 0.9614258 -1.192093E-07 0.2751465
vn 0.9614258 -1.192093E-07 0.2751465
vn 0.9238281 -1.192093E-07 0.3830566
vn 0.9238281 -1.192093E-07 0.3830566
vn 0.9238281 -1.192093E-07 0.3830566
vn 0.9238281 -1.192093E-07 0.3830566
vn 0.8769531 -0.1411133 0.4597168
vn 0.8769531 -0.1411133 0.4597168
vn 0.8769531 -0.1411133 0.4597168
vn 0.8769531 -0.1411133 0.4597168
vn 0.2783203 -5.960464E-08 0.9604492
vn 0.2783203 -5.960464E-08 0.9604492
vn 0.2783203 -5.960464E-08 0.9604492
vn 0.2783203 -5.960464E-08 0.9604492
vn 0.3962402 -5.960464E-08 0.9179688
vn 0.3962402 -5.960464E-08 0.9179688
vn 0.3962402 -5.960464E-08 0.9179688
vn 0.3962402 -5.960464E-08 0.9179688
vn 0.4848633 -1.192093E-07 0.8745117
vn 0.4848633 -1.192093E-07 0.8745117
vn 0.4848633 -1.192093E-07 0.8745117
vn 0.4848633 -1.192093E-07 0.8745117
vn 0.5932617 -1.192093E-07 0.8046875
vn 0.5932617 -1.192093E-07 0.8046875
vn 0.5932617 -1.192093E-07 0.8046875
vn 0.5932617 -1.192093E-07 0.8046875
vn 0.6801758 -1.192093E-07 0.7333984
vn 0.6801758 -1.192093E-07 0.7333984
vn 0.6801758 -1.192093E-07 0.7333984
vn 0.6801758 -1.192093E-07 0.7333984
vn 0.7592773 -1.192093E-07 0.6508789
vn 0.7592773 -1.192093E-07 0.6508789
vn 0.7592773 -1.192093E-07 0.6508789
vn 0.7592773 -1.192093E-07 0.6508789
vn 0.9824219 -1.192093E-07 -0.185791
vn 0.9824219 -1.192093E-07 -0.185791
vn 0.9824219 -1.192093E-07 -0.185791
vn 0.9824219 -1.192093E-07 -0.185791
vn 0.9980469 -1.192093E-07 -0.06161499
vn 0.9980469 -1.192093E-07 -0.06161499
vn 0.9980469 -1.192093E-07 -0.06161499
vn 0.9980469 -1.192093E-07 -0.06161499
vn 0.9995117 -1.192093E-07 0.03726196
vn 0.9995117 -1.192093E-07 0.03726196
vn 0.9995117 -1.192093E-07 0.03726196
vn 0.9995117 -1.192093E-07 0.03726196
vn 0.9907227 -1.192093E-07 0.1367188
vn 0.9907227 -1.192093E-07 0.1367188
vn 0.9907227 -1.192093E-07 0.1367188
vn 0.9907227 -1.192093E-07 0.1367188
vn 0.9614258 -1.192093E-07 0.2751465
vn 0.9614258 -1.192093E-07 0.2751465
vn 0.9614258 -1.192093E-07 0.2751465
vn 0.9614258 -1.192093E-07 0.2751465
vn 0.9238281 -1.192093E-07 0.3830566
vn 0.9238281 -1.192093E-07 0.3830566
vn 0.9238281 -1.192093E-07 0.3830566
vn 0.9238281 -1.192093E-07 0.3830566
vn 0.8769531 -0.1411133 0.4597168
vn 0.8769531 -0.1411133 0.4597168
vn 0.8769531 -0.1411133 0.4597168
vn 0.8769531 -0.1411133 0.4597168
vn 0.2783203 -5.960464E-08 0.9604492
vn 0.2783203 -5.960464E-08 0.9604492
vn 0.2783203 -5.960464E-08 0.9604492
vn 0.2783203 -5.960464E-08 0.9604492
vn 0.3962402 -5.960464E-08 0.9179688
vn 0.3962402 -5.960464E-08 0.9179688
vn 0.3962402 -5.960464E-08 0.9179688
vn 0.3962402 -5.960464E-08 0.9179688
vn 0.4848633 -1.192093E-07 0.8745117
vn 0.4848633 -1.192093E-07 0.8745117
vn 0.4848633 -1.192093E-07 0.8745117
vn 0.4848633 -1.192093E-07 0.8745117
vn 0.5932617 -1.192093E-07 0.8046875
vn 0.5932617 -1.192093E-07 0.8046875
vn 0.5932617 -1.192093E-07 0.8046875
vn 0.5932617 -1.192093E-07 0.8046875
vn 0.6801758 -1.192093E-07 0.7333984
vn 0.6801758 -1.192093E-07 0.7333984
vn 0.6801758 -1.192093E-07 0.7333984
vn 0.6801758 -1.192093E-07 0.7333984
vn 0.7592773 -1.192093E-07 0.6508789
vn 0.7592773 -1.192093E-07 0.6508789
vn 0.7592773 -1.192093E-07 0.6508789
vn 0.7592773 -1.192093E-07 0.6508789
vn -0.2783203 5.960464E-08 -0.9604492
vn -0.2783203 5.960464E-08 -0.9604492
vn -0.2783203 5.960464E-08 -0.9604492
vn -0.2783203 5.960464E-08 -0.9604492
vn -0.3962402 5.960464E-08 -0.9179688
vn -0.3962402 5.960464E-08 -0.9179688
vn -0.3962402 5.960464E-08 -0.9179688
vn -0.3962402 5.960464E-08 -0.9179688
vn -0.4848633 1.192093E-07 -0.8745117
vn -0.4848633 1.192093E-07 -0.8745117
vn -0.4848633 1.192093E-07 -0.8745117
vn -0.4848633 1.192093E-07 -0.8745117
vn -0.5932617 1.192093E-07 -0.8046875
vn -0.5932617 1.192093E-07 -0.8046875
vn -0.5932617 1.192093E-07 -0.8046875
vn -0.5932617 1.192093E-07 -0.8046875
vn -0.6801758 1.192093E-07 -0.7333984
vn -0.6801758 1.192093E-07 -0.7333984
vn -0.6801758 1.192093E-07 -0.7333984
vn -0.6801758 1.192093E-07 -0.7333984
vn -0.7592773 1.192093E-07 -0.6508789
vn -0.7592773 1.192093E-07 -0.6508789
vn -0.7592773 1.192093E-07 -0.6508789
vn -0.7592773 1.192093E-07 -0.6508789
vn -0.828125 1.192093E-07 -0.5605469
vn -0.828125 1.192093E-07 -0.5605469
vn -0.828125 1.192093E-07 -0.5605469
vn -0.828125 1.192093E-07 -0.5605469
vn -0.9824219 1.192093E-07 0.185791
vn -0.9824219 1.192093E-07 0.185791
vn -0.9824219 1.192093E-07 0.185791
vn -0.9824219 1.192093E-07 0.185791
vn -0.9980469 1.192093E-07 0.06161499
vn -0.9980469 1.192093E-07 0.06161499
vn -0.9980469 1.192093E-07 0.06161499
vn -0.9980469 1.192093E-07 0.06161499
vn -0.9995117 1.192093E-07 -0.03726196
vn -0.9995117 1.192093E-07 -0.03726196
vn -0.9995117 1.192093E-07 -0.03726196
vn -0.9995117 1.192093E-07 -0.03726196
vn -0.9907227 1.192093E-07 -0.1367188
vn -0.9907227 1.192093E-07 -0.1367188
vn -0.9907227 1.192093E-07 -0.1367188
vn -0.9907227 1.192093E-07 -0.1367188
vn -0.9614258 1.192093E-07 -0.2751465
vn -0.9614258 1.192093E-07 -0.2751465
vn -0.9614258 1.192093E-07 -0.2751465
vn -0.9614258 1.192093E-07 -0.2751465
vn -0.9238281 1.192093E-07 -0.3830566
vn -0.9238281 1.192093E-07 -0.3830566
vn -0.9238281 1.192093E-07 -0.3830566
vn -0.9238281 1.192093E-07 -0.3830566

vt 0.9916992 0.9746094
vt 0.9916992 0.753418
vt 0.4790039 0.9746094
vt 0.4790039 0.753418
vt 0.9916992 0.9746094
vt 0.9916992 0.753418
vt 0.4790039 0.9746094
vt 0.4790039 0.753418
vt 0.4790039 0.753418
vt 0.4790039 0.9746094
vt 0.9916992 0.753418
vt 0.9916992 0.9746094
vt 0.4790039 0.753418
vt 0.4790039 0.9746094
vt 0.9916992 0.753418
vt 0.9916992 0.9746094
vt 0.4790039 0.753418
vt 0.4790039 0.9746094
vt 0.9916992 0.753418
vt 0.9916992 0.9746094
vt 0.4790039 0.753418
vt 0.4790039 0.9746094
vt 0.9916992 0.753418
vt 0.9916992 0.9746094
vt 0.4790039 0.753418
vt 0.4790039 0.9746094
vt 0.9916992 0.753418
vt 0.9916992 0.9746094
vt 0.9916992 0.9746094
vt 0.9916992 0.753418
vt 0.4790039 0.9746094
vt 0.4790039 0.753418
vt 0.9916992 0.9746094
vt 0.9916992 0.753418
vt 0.4790039 0.9746094
vt 0.4790039 0.753418
vt 0.9916992 0.9746094
vt 0.9916992 0.753418
vt 0.4790039 0.753418
vt 0.4790039 0.9746094
vt 0.9916992 0.9746094
vt 0.9916992 0.753418
vt 0.4790039 0.9746094
vt 0.4790039 0.753418
vt 0.4790039 0.9746094
vt 0.9916992 0.9746094
vt 0.9916992 0.753418
vt 0.4790039 0.753418
vt 0.9916992 0.9746094
vt 0.9916992 0.753418
vt 0.4790039 0.753418
vt 0.4790039 0.9746094
vt 0.4790039 0.9746094
vt 0.9916992 0.9746094
vt 0.9916992 0.753418
vt 0.4790039 0.753418
vt 0.9916992 0.9746094
vt 0.9916992 0.753418
vt 0.4790039 0.753418
vt 0.4790039 0.9746094
vt 0.4790039 0.9746094
vt 0.9916992 0.9746094
vt 0.9916992 0.753418
vt 0.4790039 0.753418
vt 0.9916992 0.9746094
vt 0.9916992 0.753418
vt 0.4790039 0.753418
vt 0.4790039 0.9746094
vt 0.4790039 0.753418
vt 0.4790039 0.9746094
vt 0.9916992 0.753418
vt 0.9916992 0.9746094
vt 0.4790039 0.753418
vt 0.4790039 0.9746094
vt 0.9916992 0.753418
vt 0.9916992 0.9746094
vt 0.9916992 0.9746094
vt 0.9916992 0.753418
vt 0.4790039 0.9746094
vt 0.4790039 0.753418
vt 0.9916992 0.9746094
vt 0.9916992 0.753418
vt 0.4790039 0.9746094
vt 0.4790039 0.753418
vt 0.9916992 0.9746094
vt 0.9916992 0.753418
vt 0.4790039 0.9746094
vt 0.4790039 0.753418
vt 0.9916992 0.9746094
vt 0.9916992 0.753418
vt 0.4790039 0.9746094
vt 0.4790039 0.753418
vt 0.9916992 0.9746094
vt 0.9916992 0.753418
vt 0.4790039 0.753418
vt 0.4790039 0.9746094
vt 0.4790039 0.9746094
vt 0.9916992 0.9746094
vt 0.9916992 0.753418
vt 0.4790039 0.753418
vt 0.4790039 0.9746094
vt 0.9916992 0.9746094
vt 0.9916992 0.753418
vt 0.4790039 0.753418
vt 0.4790039 0.9746094
vt 0.9916992 0.9746094
vt 0.9916992 0.753418
vt 0.4790039 0.753418
vt 0.4790039 0.9746094
vt 0.9916992 0.9746094
vt 0.9916992 0.753418
vt 0.4790039 0.753418
vt 0.4790039 0.9746094
vt 0.9916992 0.9746094
vt 0.9916992 0.753418
vt 0.4790039 0.753418
vt 0.4790039 0.9746094
vt 0.9916992 0.9746094
vt 0.9916992 0.753418
vt 0.4790039 0.753418
vt 0.4790039 0.753418
vt 0.4790039 0.9746094
vt 0.9916992 0.753418
vt 0.9916992 0.9746094
vt 0.4790039 0.753418
vt 0.4790039 0.9746094
vt 0.9916992 0.753418
vt 0.9916992 0.9746094
vt 0.4790039 0.753418
vt 0.4790039 0.9746094
vt 0.9916992 0.753418
vt 0.9916992 0.9746094
vt 0.4790039 0.753418
vt 0.4790039 0.9746094
vt 0.9916992 0.753418
vt 0.9916992 0.9746094
vt 0.4790039 0.753418
vt 0.4790039 0.9746094
vt 0.9916992 0.753418
vt 0.9916992 0.9746094
vt 0.4790039 0.753418
vt 0.4790039 0.9746094
vt 0.9916992 0.753418
vt 0.9916992 0.9746094
vt 0.4790039 0.753418
vt 0.4790039 0.9746094
vt 0.9916992 0.753418
vt 0.9916992 0.9746094
vt 0.4790039 0.9746094
vt 0.9916992 0.9746094
vt 0.9916992 0.753418
vt 0.4790039 0.753418
vt 0.4790039 0.9746094
vt 0.9916992 0.9746094
vt 0.9916992 0.753418
vt 0.4790039 0.753418
vt 0.4790039 0.9746094
vt 0.9916992 0.9746094
vt 0.9916992 0.753418
vt 0.4790039 0.753418
vt 0.4790039 0.9746094
vt 0.9916992 0.9746094
vt 0.9916992 0.753418
vt 0.4790039 0.753418
vt 0.9916992 0.9746094
vt 0.9916992 0.753418
vt 0.4790039 0.753418
vt 0.4790039 0.9746094
vt 0.4790039 0.9746094
vt 0.9916992 0.9746094
vt 0.9916992 0.753418
vt 0.4790039 0.753418
vt 0.4790039 0.753418
vt 0.4790039 0.9746094
vt 0.9916992 0.753418
vt 0.9916992 0.9746094
vt 0.4790039 0.753418
vt 0.4790039 0.9746094
vt 0.9916992 0.753418
vt 0.9916992 0.9746094
vt 0.4790039 0.753418
vt 0.4790039 0.9746094
vt 0.9916992 0.753418
vt 0.9916992 0.9746094
vt 0.4790039 0.753418
vt 0.4790039 0.9746094
vt 0.9916992 0.753418
vt 0.9916992 0.9746094
vt 0.4790039 0.753418
vt 0.4790039 0.9746094
vt 0.9916992 0.753418
vt 0.9916992 0.9746094
vt 0.4790039 0.753418
vt 0.4790039 0.9746094
vt 0.9916992 0.9746094
vt 0.9916992 0.753418
vt 0.4790039 0.753418
vt 0.4790039 0.9746094
vt 0.9916992 0.753418
vt 0.9916992 0.9746094
vt 0.4790039 0.9746094
vt 0.9916992 0.9746094
vt 0.9916992 0.753418
vt 0.4790039 0.753418
vt 0.9916992 0.9746094
vt 0.9916992 0.753418
vt 0.4790039 0.753418
vt 0.4790039 0.9746094
vt 0.4790039 0.9746094
vt 0.9916992 0.9746094
vt 0.9916992 0.753418
vt 0.4790039 0.753418
vt 0.4790039 0.9746094
vt 0.9916992 0.9746094
vt 0.9916992 0.753418
vt 0.4790039 0.753418
vt 0.4790039 0.9746094
vt 0.9916992 0.9746094
vt 0.9916992 0.753418
vt 0.4790039 0.753418
vt 0.4790039 0.9746094
vt 0.9916992 0.9746094
vt 0.9916992 0.753418
vt 0.4790039 0.753418

g BridgeTurn90_(1)_1995_157
usemtl BridgeTurn90_(1)_1995_157
usemap BridgeTurn90_(1)_1995_157
f 1/1/1 3/3/3 2/2/2
f 3/3/3 4/4/4 2/2/2
f 5/5/5 7/7/7 6/6/6
f 7/7/7 8/8/8 6/6/6
f 9/9/9 11/11/11 10/10/10
f 12/12/12 10/10/10 11/11/11
f 13/13/13 15/15/15 14/14/14
f 16/16/16 14/14/14 15/15/15
f 17/17/17 19/19/19 18/18/18
f 20/20/20 18/18/18 19/19/19
f 21/21/21 23/23/23 22/22/22
f 24/24/24 22/22/22 23/23/23
f 25/25/25 27/27/27 26/26/26
f 28/28/28 26/26/26 27/27/27
f 29/29/29 31/31/31 30/30/30
f 31/31/31 32/32/32 30/30/30
f 33/33/33 35/35/35 34/34/34
f 35/35/35 36/36/36 34/34/34
f 37/37/37 39/39/39 38/38/38
f 39/39/39 37/37/37 40/40/40
f 41/41/41 43/43/43 42/42/42
f 43/43/43 44/44/44 42/42/42
f 45/45/45 47/47/47 46/46/46
f 47/47/47 45/45/45 48/48/48
f 49/49/49 51/51/51 50/50/50
f 51/51/51 49/49/49 52/52/52
f 53/53/53 55/55/55 54/54/54
f 55/55/55 53/53/53 56/56/56
f 57/57/57 59/59/59 58/58/58
f 59/59/59 57/57/57 60/60/60
f 61/61/61 63/63/63 62/62/62
f 63/63/63 61/61/61 64/64/64
f 65/65/65 67/67/67 66/66/66
f 67/67/67 65/65/65 68/68/68
f 69/69/69 71/71/71 70/70/70
f 72/72/72 70/70/70 71/71/71
f 73/73/73 75/75/75 74/74/74
f 76/76/76 74/74/74 75/75/75
f 77/77/77 79/79/79 78/78/78
f 79/79/79 80/80/80 78/78/78
f 81/81/81 83/83/83 82/82/82
f 83/83/83 84/84/84 82/82/82
f 85/85/85 87/87/87 86/86/86
f 87/87/87 88/88/88 86/86/86
f 89/89/89 91/91/91 90/90/90
f 91/91/91 92/92/92 90/90/90
f 93/93/93 95/95/95 94/94/94
f 95/95/95 93/93/93 96/96/96
f 97/97/97 99/99/99 98/98/98
f 99/99/99 97/97/97 100/100/100
f 101/101/101 103/103/103 102/102/102
f 103/103/103 101/101/101 104/104/104
f 105/105/105 107/107/107 106/106/106
f 107/107/107 105/105/105 108/108/108
f 109/109/109 111/111/111 110/110/110
f 111/111/111 109/109/109 112/112/112
f 113/113/113 115/115/115 114/114/114
f 115/115/115 113/113/113 116/116/116
f 117/117/117 119/119/119 118/118/118
f 119/119/119 117/117/117 120/120/120
f 121/121/121 123/123/123 122/122/122
f 124/124/124 122/122/122 123/123/123
f 125/125/125 127/127/127 126/126/126
f 128/128/128 126/126/126 127/127/127
f 129/129/129 131/131/131 130/130/130
f 132/132/132 130/130/130 131/131/131
f 133/133/133 135/135/135 134/134/134
f 136/136/136 134/134/134 135/135/135
f 137/137/137 139/139/139 138/138/138
f 140/140/140 138/138/138 139/139/139
f 141/141/141 143/143/143 142/142/142
f 144/144/144 142/142/142 143/143/143
f 145/145/145 147/147/147 146/146/146
f 148/148/148 146/146/146 147/147/147
f 149/149/149 151/151/151 150/150/150
f 151/151/151 149/149/149 152/152/152
f 153/153/153 155/155/155 154/154/154
f 155/155/155 153/153/153 156/156/156
f 157/157/157 159/159/159 158/158/158
f 159/159/159 157/157/157 160/160/160
f 161/161/161 163/163/163 162/162/162
f 163/163/163 161/161/161 164/164/164
f 165/165/165 167/167/167 166/166/166
f 167/167/167 165/165/165 168/168/168
f 169/169/169 171/171/171 170/170/170
f 171/171/171 169/169/169 172/172/172
f 173/173/173 175/175/175 174/174/174
f 176/176/176 174/174/174 175/175/175
f 177/177/177 179/179/179 178/178/178
f 180/180/180 178/178/178 179/179/179
f 181/181/181 183/183/183 182/182/182
f 184/184/184 182/182/182 183/183/183
f 185/185/185 187/187/187 186/186/186
f 188/188/188 186/186/186 187/187/187
f 189/189/189 191/191/191 190/190/190
f 192/192/192 190/190/190 191/191/191
f 193/193/193 195/195/195 194/194/194
f 195/195/195 193/193/193 196/196/196
f 197/197/197 199/199/199 198/198/198
f 200/200/200 198/198/198 199/199/199
f 201/201/201 203/203/203 202/202/202
f 203/203/203 201/201/201 204/204/204
f 205/205/205 207/207/207 206/206/206
f 207/207/207 205/205/205 208/208/208
f 209/209/209 211/211/211 210/210/210
f 211/211/211 209/209/209 212/212/212
f 213/213/213 215/215/215 214/214/214
f 215/215/215 213/213/213 216/216/216
f 217/217/217 219/219/219 218/218/218
f 219/219/219 217/217/217 220/220/220
f 221/221/221 223/223/223 222/222/222
f 223/223/223 221/221/221 224/224/224
