#BridgeTurn180_(3)_1926_252.obj

v 5.77247 -0.7435936 1.002828
v 5.604141 -0.7646506 2.075934
v 5.77247 -0.7435936 2.075934
v 5.604141 -0.7646506 1.002828
v 5.498931 -0.4069441 1.002828
v 5.604136 -0.427981 2.075934
v 5.498931 -0.4069441 2.075934
v 5.604136 -0.427981 1.002828
v 5.667262 -10.4226 1.00283
v 5.667262 -10.4226 2.075935
v 3.352722 -10.19114 1.00283
v 3.352722 -10.19114 2.075935
v 5.667262 -10.75925 1.00283
v 5.667262 -10.75925 2.075935
v 8.065969 -10.46468 1.002829
v 8.065969 -10.46468 2.075935
v 4.846654 -0.1754783 1.002828
v 4.825612 -0.007163788 2.075934
v 4.846654 -0.1754783 2.075934
v 4.825612 -0.007163788 1.002828
v 4.909774 -0.3438132 2.075934
v 4.909774 -0.3438132 1.002828
v 4.846654 -0.1754783 1.002828
v 4.846654 -0.1754783 2.075934
v 4.993942 -0.4700542 1.002828
v 4.909774 -0.3438132 2.075934
v 4.993942 -0.4700542 2.075934
v 4.909774 -0.3438132 1.002828
v 5.120188 -0.5963156 2.075934
v 5.120188 -0.5963156 1.002828
v 4.993942 -0.4700542 1.002828
v 4.993942 -0.4700542 2.075934
v 5.267476 -0.680483 1.002828
v 5.120188 -0.5963156 2.075934
v 5.267476 -0.680483 2.075934
v 5.120188 -0.5963156 1.002828
v 5.435806 -0.7435935 2.075934
v 5.435806 -0.7435935 1.002828
v 5.267476 -0.680483 1.002828
v 5.267476 -0.680483 2.075934
v 5.604141 -0.7646506 1.002828
v 5.435806 -0.7435935 2.075934
v 5.604141 -0.7646506 2.075934
v 5.435806 -0.7435935 1.002828
v 6.340581 -0.1544423 2.075934
v 6.361623 0.01389258 2.075934
v 6.361623 0.01389258 1.002828
v 6.340581 -0.1544423 1.002828
v 6.340581 -0.1544423 2.075934
v 6.340581 -0.1544423 1.002828
v 6.277461 -0.3227771 1.002828
v 6.277461 -0.3227771 2.075934
v 6.193293 -0.4700548 2.075934
v 6.277461 -0.3227771 2.075934
v 6.277461 -0.3227771 1.002828
v 6.193293 -0.4700548 1.002828
v 6.193293 -0.4700548 2.075934
v 6.193293 -0.4700548 1.002828
v 6.067047 -0.596316 1.002828
v 6.067047 -0.596316 2.075934
v 5.919759 -0.6804834 2.075934
v 6.067047 -0.596316 2.075934
v 6.067047 -0.596316 1.002828
v 5.919759 -0.6804834 1.002828
v 5.919759 -0.6804834 2.075934
v 5.919759 -0.6804834 1.002828
v 5.77247 -0.7435936 1.002828
v 5.77247 -0.7435936 2.075934
v 6.003922 -0.09131144 1.002828
v 6.024963 -0.007164368 2.075934
v 6.003922 -0.09131144 2.075934
v 6.024963 -0.007164368 1.002828
v 5.98288 -0.1754789 1.002828
v 6.003922 -0.09131144 2.075934
v 5.982879 -0.1754789 2.075934
v 6.003922 -0.09131144 1.002828
v 5.919759 -0.2596463 2.075934
v 5.919759 -0.2596463 1.002828
v 5.98288 -0.1754789 1.002828
v 5.982879 -0.1754789 2.075934
v 5.856633 -0.3227769 1.002828
v 5.919759 -0.2596463 2.075934
v 5.856633 -0.3227769 2.075934
v 5.919759 -0.2596463 1.002828
v 5.772466 -0.3859075 1.002828
v 5.856633 -0.3227769 2.075934
v 5.772466 -0.3859075 2.075934
v 5.856633 -0.3227769 1.002828
v 5.688303 -0.4069442 1.002828
v 5.772466 -0.3859075 2.075934
v 5.688303 -0.4069442 2.075934
v 5.772466 -0.3859075 1.002828
v 5.604136 -0.427981 1.002828
v 5.688303 -0.4069442 2.075934
v 5.604136 -0.427981 2.075934
v 5.688303 -0.4069442 1.002828
v 5.183314 -0.09131104 2.075934
v 5.162272 -0.007163951 2.075934
v 5.162272 -0.007163951 1.002828
v 5.183314 -0.09131104 1.002828
v 5.204356 -0.1965356 2.075934
v 5.183314 -0.09131104 2.075934
v 5.183314 -0.09131104 1.002828
v 5.20435 -0.1965356 1.002828
v 5.267476 -0.2596459 2.075934
v 5.204356 -0.1965356 2.075934
v 5.20435 -0.1965356 1.002828
v 5.267476 -0.2596459 1.002828
v 5.330602 -0.3438134 2.075934
v 5.267476 -0.2596459 2.075934
v 5.267476 -0.2596459 1.002828
v 5.330602 -0.3438134 1.002828
v 5.414764 -0.3859073 2.075934
v 5.330602 -0.3438134 2.075934
v 5.330602 -0.3438134 1.002828
v 5.414764 -0.3859073 1.002828
v 5.498931 -0.4069441 2.075934
v 5.414764 -0.3859073 2.075934
v 5.414764 -0.3859073 1.002828
v 5.498931 -0.4069441 1.002828
v 16.01958 0.07701857 1.002828
v 16.01958 0.07701857 2.075933
v 15.76708 -2.237535 1.002828
v 15.76708 -2.237535 2.075933
v 15.76708 -2.237535 1.002828
v 15.76708 -2.237535 2.075933
v 15.03064 -4.446863 1.002828
v 15.03064 -4.446863 2.075935
v 15.03064 -4.446863 1.002828
v 15.03064 -4.446863 2.075935
v 13.7892 -6.445783 1.002829
v 13.7892 -6.445783 2.075935
v 12.14798 -8.108053 2.075934
v 12.14798 -8.108053 1.002829
v 13.7892 -6.445783 2.075935
v 13.7892 -6.445783 1.002829
v 12.14798 -8.108053 1.002829
v 12.14798 -8.108053 2.075934
v 10.19114 -9.370523 1.002829
v 10.19114 -9.370523 2.075936
v 10.19114 -9.370523 1.002829
v 10.19114 -9.370523 2.075936
v 7.981802 -10.14907 1.002829
v 7.981802 -10.14907 2.075935
v 7.981802 -10.14907 1.002829
v 7.981802 -10.14907 2.075935
v 5.667262 -10.4226 1.00283
v 5.667262 -10.4226 2.075935
v -4.558804 -2.384823 2.075934
v -4.832342 -0.07026943 2.075934
v -4.832342 -0.07026943 1.002828
v -4.558804 -2.384823 1.002828
v -3.759234 -4.594152 2.075934
v -4.558804 -2.384823 2.075934
v -4.558804 -2.384823 1.002828
v -3.759234 -4.594152 1.002829
v -2.5178 -6.551 2.075934
v -3.759234 -4.594152 2.075934
v -3.759234 -4.594152 1.002829
v -2.5178 -6.551 1.002829
v -0.855539 -8.192214 2.075935
v -2.5178 -6.551 2.075934
v -2.5178 -6.551 1.002829
v -0.8555389 -8.192214 1.002829
v 1.143382 -9.433649 2.075935
v -0.855539 -8.192214 2.075935
v -0.8555389 -8.192214 1.002829
v 1.143382 -9.433649 1.002829
v 3.352722 -10.19114 2.075935
v 1.143382 -9.433649 2.075935
v 1.143382 -9.433649 1.002829
v 3.352722 -10.19114 1.00283
v -5.169002 -0.07026926 1.002828
v -5.169002 -0.07026926 2.075934
v -4.874426 -2.46899 1.002828
v -4.874427 -2.46899 2.075934
v -4.874426 -2.46899 1.002828
v -4.874427 -2.46899 2.075934
v -4.074857 -4.74145 1.002829
v -4.074857 -4.74145 2.075934
v -4.074857 -4.74145 1.002829
v -4.074857 -4.74145 2.075934
v -2.770298 -6.782444 1.002829
v -2.770298 -6.782444 2.075934
v -1.044911 -8.465754 2.075935
v -1.044911 -8.465754 1.002829
v -2.770298 -6.782444 2.075934
v -2.770298 -6.782444 1.002829
v -1.044911 -8.465754 1.002829
v -1.044911 -8.465754 2.075935
v 0.996094 -9.728225 1.002829
v 0.9960939 -9.728225 2.075935
v 0.996094 -9.728225 1.002829
v 0.9960939 -9.728225 2.075935
v 3.268554 -10.50677 2.075935
v 3.268555 -10.50677 1.00283
v 3.268555 -10.50677 1.00283
v 3.268554 -10.50677 2.075935
v 5.667262 -10.75925 1.00283
v 5.667262 -10.75925 2.075935
v 16.10374 -2.321702 2.075933
v 16.35624 0.07701841 2.075933
v 16.35624 0.07701841 1.002828
v 16.10374 -2.321702 1.002828
v 16.10374 -2.321702 2.075933
v 16.10374 -2.321702 1.002828
v 15.32521 -4.594162 1.002828
v 15.32521 -4.594162 2.075935
v 14.06274 -6.656212 2.075935
v 15.32521 -4.594162 2.075935
v 15.32521 -4.594162 1.002828
v 14.06274 -6.656212 1.002829
v 14.06274 -6.656212 2.075935
v 14.06274 -6.656212 1.002829
v 12.35839 -8.360556 1.002829
v 12.35839 -8.360556 2.075934
v 10.33843 -9.665099 2.075936
v 12.35839 -8.360556 2.075934
v 12.35839 -8.360556 1.002829
v 10.33843 -9.665099 1.002829
v 10.33843 -9.665099 2.075936
v 10.33843 -9.665099 1.002829
v 8.065969 -10.46468 1.002829
v 8.065969 -10.46468 2.075935

vn 0.1080322 1.192093E-07 0.9941406
vn 0.1080322 1.192093E-07 0.9941406
vn 0.1080322 1.192093E-07 0.9941406
vn 0.1080322 1.192093E-07 0.9941406
vn 0.1074219 -1.192093E-07 -0.9941406
vn 0.1074219 -1.192093E-07 -0.9941406
vn 0.1074219 -1.192093E-07 -0.9941406
vn 0.1074219 -1.192093E-07 -0.9941406
vn 0.1074219 -1.192093E-07 -0.9941406
vn 0.1074219 -1.192093E-07 -0.9941406
vn 0.1074219 -1.192093E-07 -0.9941406
vn 0.1074219 -1.192093E-07 -0.9941406
vn 0.1080322 1.192093E-07 0.9941406
vn 0.1080322 1.192093E-07 0.9941406
vn 0.1080322 1.192093E-07 0.9941406
vn 0.1080322 1.192093E-07 0.9941406
vn -0.9941406 1.192093E-07 0.1074219
vn -0.9941406 1.192093E-07 0.1074219
vn -0.9941406 1.192093E-07 0.1074219
vn -0.9941406 1.192093E-07 0.1074219
vn -0.9365234 -0.118103 0.3295898
vn -0.9365234 -0.118103 0.3295898
vn -0.9365234 -0.118103 0.3295898
vn -0.9365234 -0.118103 0.3295898
vn -0.8364258 1.192093E-07 0.5478516
vn -0.8364258 1.192093E-07 0.5478516
vn -0.8364258 1.192093E-07 0.5478516
vn -0.8364258 1.192093E-07 0.5478516
vn -0.7099609 1.192093E-07 0.7045898
vn -0.7099609 1.192093E-07 0.7045898
vn -0.7099609 1.192093E-07 0.7045898
vn -0.7099609 1.192093E-07 0.7045898
vn -0.5249023 -0.1580811 0.8364258
vn -0.5249023 -0.1580811 0.8364258
vn -0.5249023 -0.1580811 0.8364258
vn -0.5249023 -0.1580811 0.8364258
vn -0.3352051 -0.1433105 0.9311523
vn -0.3352051 -0.1433105 0.9311523
vn -0.3352051 -0.1433105 0.9311523
vn -0.3352051 -0.1433105 0.9311523
vn -0.1134644 1.192093E-07 0.9936523
vn -0.1134644 1.192093E-07 0.9936523
vn -0.1134644 1.192093E-07 0.9936523
vn -0.1134644 1.192093E-07 0.9936523
vn 0.9941406 -5.960464E-08 0.1080322
vn 0.9941406 -5.960464E-08 0.1080322
vn 0.9941406 -5.960464E-08 0.1080322
vn 0.9941406 -5.960464E-08 0.1080322
vn 0.9311523 -0.1555176 0.3295898
vn 0.9311523 -0.1555176 0.3295898
vn 0.9311523 -0.1555176 0.3295898
vn 0.9311523 -0.1555176 0.3295898
vn 0.8364258 -0.175293 0.5195313
vn 0.8364258 -0.175293 0.5195313
vn 0.8364258 -0.175293 0.5195313
vn 0.8364258 -0.175293 0.5195313
vn 0.7070313 0 0.7070313
vn 0.7070313 0 0.7070313
vn 0.7070313 0 0.7070313
vn 0.7070313 0 0.7070313
vn 0.550293 5.960464E-08 0.8349609
vn 0.550293 5.960464E-08 0.8349609
vn 0.550293 5.960464E-08 0.8349609
vn 0.550293 5.960464E-08 0.8349609
vn 0.3295898 -0.1555176 0.9311523
vn 0.3295898 -0.1555176 0.9311523
vn 0.3295898 -0.1555176 0.9311523
vn 0.3295898 -0.1555176 0.9311523
vn -0.9936523 5.960464E-08 -0.112854
vn -0.9936523 5.960464E-08 -0.112854
vn -0.9936523 5.960464E-08 -0.112854
vn -0.9936523 5.960464E-08 -0.112854
vn -0.9365234 -0.1014404 -0.3352051
vn -0.9365234 -0.1014404 -0.3352051
vn -0.9365234 -0.1014404 -0.3352051
vn -0.9365234 -0.1014404 -0.3352051
vn -0.8417969 -0.1256104 -0.5249023
vn -0.8417969 -0.1256104 -0.5249023
vn -0.8417969 -0.1256104 -0.5249023
vn -0.8417969 -0.1256104 -0.5249023
vn -0.7070313 0 -0.7070313
vn -0.7070313 0 -0.7070313
vn -0.7070313 0 -0.7070313
vn -0.7070313 0 -0.7070313
vn -0.5249023 -0.1256104 -0.8417969
vn -0.5249023 -0.1256104 -0.8417969
vn -0.5249023 -0.1256104 -0.8417969
vn -0.5249023 -0.1256104 -0.8417969
vn -0.3352051 -0.1014404 -0.9365234
vn -0.3352051 -0.1014404 -0.9365234
vn -0.3352051 -0.1014404 -0.9365234
vn -0.3352051 -0.1014404 -0.9365234
vn -0.112854 -1.192093E-07 -0.9936523
vn -0.112854 -1.192093E-07 -0.9936523
vn -0.112854 -1.192093E-07 -0.9936523
vn -0.112854 -1.192093E-07 -0.9936523
vn 0.9936523 -1.192093E-07 -0.1134644
vn 0.9936523 -1.192093E-07 -0.1134644
vn 0.9936523 -1.192093E-07 -0.1134644
vn 0.9936523 -1.192093E-07 -0.1134644
vn 0.9311523 -0.1433105 -0.3352051
vn 0.9311523 -0.1433105 -0.3352051
vn 0.9311523 -0.1433105 -0.3352051
vn 0.9311523 -0.1433105 -0.3352051
vn 0.8364258 -0.1580811 -0.5249023
vn 0.8364258 -0.1580811 -0.5249023
vn 0.8364258 -0.1580811 -0.5249023
vn 0.8364258 -0.1580811 -0.5249023
vn 0.7045898 -1.192093E-07 -0.7099609
vn 0.7045898 -1.192093E-07 -0.7099609
vn 0.7045898 -1.192093E-07 -0.7099609
vn 0.7045898 -1.192093E-07 -0.7099609
vn 0.5195313 -0.1467285 -0.8417969
vn 0.5195313 -0.1467285 -0.8417969
vn 0.5195313 -0.1467285 -0.8417969
vn 0.5195313 -0.1467285 -0.8417969
vn 0.3295898 -0.118103 -0.9365234
vn 0.3295898 -0.118103 -0.9365234
vn 0.3295898 -0.118103 -0.9365234
vn 0.3295898 -0.118103 -0.9365234
vn -0.9936523 5.960464E-08 -0.112854
vn -0.9936523 5.960464E-08 -0.112854
vn -0.9936523 5.960464E-08 -0.112854
vn -0.9936523 5.960464E-08 -0.112854
vn -0.9365234 -0.1014404 -0.3352051
vn -0.9365234 -0.1014404 -0.3352051
vn -0.9365234 -0.1014404 -0.3352051
vn -0.9365234 -0.1014404 -0.3352051
vn -0.8417969 -0.1256104 -0.5249023
vn -0.8417969 -0.1256104 -0.5249023
vn -0.8417969 -0.1256104 -0.5249023
vn -0.8417969 -0.1256104 -0.5249023
vn -0.7070313 0 -0.7070313
vn -0.7070313 0 -0.7070313
vn -0.7070313 0 -0.7070313
vn -0.7070313 0 -0.7070313
vn -0.5249023 -0.1256104 -0.8417969
vn -0.5249023 -0.1256104 -0.8417969
vn -0.5249023 -0.1256104 -0.8417969
vn -0.5249023 -0.1256104 -0.8417969
vn -0.3352051 -0.1014404 -0.9365234
vn -0.3352051 -0.1014404 -0.9365234
vn -0.3352051 -0.1014404 -0.9365234
vn -0.3352051 -0.1014404 -0.9365234
vn -0.112854 -1.192093E-07 -0.9936523
vn -0.112854 -1.192093E-07 -0.9936523
vn -0.112854 -1.192093E-07 -0.9936523
vn -0.112854 -1.192093E-07 -0.9936523
vn 0.9936523 -1.192093E-07 -0.1134644
vn 0.9936523 -1.192093E-07 -0.1134644
vn 0.9936523 -1.192093E-07 -0.1134644
vn 0.9936523 -1.192093E-07 -0.1134644
vn 0.9311523 -0.1433105 -0.3352051
vn 0.9311523 -0.1433105 -0.3352051
vn 0.9311523 -0.1433105 -0.3352051
vn 0.9311523 -0.1433105 -0.3352051
vn 0.8364258 -0.1580811 -0.5249023
vn 0.8364258 -0.1580811 -0.5249023
vn 0.8364258 -0.1580811 -0.5249023
vn 0.8364258 -0.1580811 -0.5249023
vn 0.7045898 -1.192093E-07 -0.7099609
vn 0.7045898 -1.192093E-07 -0.7099609
vn 0.7045898 -1.192093E-07 -0.7099609
vn 0.7045898 -1.192093E-07 -0.7099609
vn 0.5195313 -0.1467285 -0.8417969
vn 0.5195313 -0.1467285 -0.8417969
vn 0.5195313 -0.1467285 -0.8417969
vn 0.5195313 -0.1467285 -0.8417969
vn 0.3295898 -0.118103 -0.9365234
vn 0.3295898 -0.118103 -0.9365234
vn 0.3295898 -0.118103 -0.9365234
vn 0.3295898 -0.118103 -0.9365234
vn -0.9941406 1.192093E-07 0.1074219
vn -0.9941406 1.192093E-07 0.1074219
vn -0.9941406 1.192093E-07 0.1074219
vn -0.9941406 1.192093E-07 0.1074219
vn -0.9365234 -0.118103 0.3295898
vn -0.9365234 -0.118103 0.3295898
vn -0.9365234 -0.118103 0.3295898
vn -0.9365234 -0.118103 0.3295898
vn -0.8364258 1.192093E-07 0.5478516
vn -0.8364258 1.192093E-07 0.5478516
vn -0.8364258 1.192093E-07 0.5478516
vn -0.8364258 1.192093E-07 0.5478516
vn -0.7099609 1.192093E-07 0.7045898
vn -0.7099609 1.192093E-07 0.7045898
vn -0.7099609 1.192093E-07 0.7045898
vn -0.7099609 1.192093E-07 0.7045898
vn -0.5249023 -0.1580811 0.8364258
vn -0.5249023 -0.1580811 0.8364258
vn -0.5249023 -0.1580811 0.8364258
vn -0.5249023 -0.1580811 0.8364258
vn -0.3352051 -0.1433105 0.9311523
vn -0.3352051 -0.1433105 0.9311523
vn -0.3352051 -0.1433105 0.9311523
vn -0.3352051 -0.1433105 0.9311523
vn -0.1134644 1.192093E-07 0.9936523
vn -0.1134644 1.192093E-07 0.9936523
vn -0.1134644 1.192093E-07 0.9936523
vn -0.1134644 1.192093E-07 0.9936523
vn 0.9941406 -5.960464E-08 0.1080322
vn 0.9941406 -5.960464E-08 0.1080322
vn 0.9941406 -5.960464E-08 0.1080322
vn 0.9941406 -5.960464E-08 0.1080322
vn 0.9311523 -0.1555176 0.3295898
vn 0.9311523 -0.1555176 0.3295898
vn 0.9311523 -0.1555176 0.3295898
vn 0.9311523 -0.1555176 0.3295898
vn 0.8364258 -0.175293 0.5195313
vn 0.8364258 -0.175293 0.5195313
vn 0.8364258 -0.175293 0.5195313
vn 0.8364258 -0.175293 0.5195313
vn 0.7070313 0 0.7070313
vn 0.7070313 0 0.7070313
vn 0.7070313 0 0.7070313
vn 0.7070313 0 0.7070313
vn 0.550293 5.960464E-08 0.8349609
vn 0.550293 5.960464E-08 0.8349609
vn 0.550293 5.960464E-08 0.8349609
vn 0.550293 5.960464E-08 0.8349609
vn 0.3295898 -0.1555176 0.9311523
vn 0.3295898 -0.1555176 0.9311523
vn 0.3295898 -0.1555176 0.9311523
vn 0.3295898 -0.1555176 0.9311523

vt 0.9926758 0.753418
vt 0.4787598 0.9731445
vt 0.9926758 0.9731445
vt 0.4787598 0.753418
vt 0.9926758 0.753418
vt 0.4787598 0.9731445
vt 0.9926758 0.9731445
vt 0.4787598 0.753418
vt 0.4787598 0.753418
vt 0.4787598 0.9731445
vt 0.9926758 0.753418
vt 0.9926758 0.9731445
vt 0.4787598 0.753418
vt 0.4787598 0.9731445
vt 0.9926758 0.753418
vt 0.9926758 0.9731445
vt 0.9926758 0.753418
vt 0.4787598 0.9731445
vt 0.9926758 0.9731445
vt 0.4787598 0.753418
vt 0.9926758 0.9731445
vt 0.9926758 0.753418
vt 0.4787598 0.753418
vt 0.4787598 0.9731445
vt 0.9926758 0.753418
vt 0.4787598 0.9731445
vt 0.9926758 0.9731445
vt 0.4787598 0.753418
vt 0.9926758 0.9731445
vt 0.9926758 0.753418
vt 0.4787598 0.753418
vt 0.4787598 0.9731445
vt 0.9926758 0.753418
vt 0.4787598 0.9731445
vt 0.9926758 0.9731445
vt 0.4787598 0.753418
vt 0.9926758 0.9731445
vt 0.9926758 0.753418
vt 0.4787598 0.753418
vt 0.4787598 0.9731445
vt 0.9926758 0.753418
vt 0.4787598 0.9731445
vt 0.9926758 0.9731445
vt 0.4787598 0.753418
vt 0.4787598 0.9731445
vt 0.9926758 0.9731445
vt 0.9926758 0.753418
vt 0.4787598 0.753418
vt 0.9926758 0.9731445
vt 0.9926758 0.753418
vt 0.4787598 0.753418
vt 0.4787598 0.9731445
vt 0.4787598 0.9731445
vt 0.9926758 0.9731445
vt 0.9926758 0.753418
vt 0.4787598 0.753418
vt 0.9926758 0.9731445
vt 0.9926758 0.753418
vt 0.4787598 0.753418
vt 0.4787598 0.9731445
vt 0.4787598 0.9731445
vt 0.9926758 0.9731445
vt 0.9926758 0.753418
vt 0.4787598 0.753418
vt 0.9926758 0.9731445
vt 0.9926758 0.753418
vt 0.4787598 0.753418
vt 0.4787598 0.9731445
vt 0.9926758 0.753418
vt 0.4787598 0.9731445
vt 0.9926758 0.9731445
vt 0.4787598 0.753418
vt 0.9926758 0.753418
vt 0.4787598 0.9731445
vt 0.9926758 0.9731445
vt 0.4787598 0.753418
vt 0.9926758 0.9731445
vt 0.9926758 0.753418
vt 0.4787598 0.753418
vt 0.4787598 0.9731445
vt 0.9926758 0.753418
vt 0.4787598 0.9731445
vt 0.9926758 0.9731445
vt 0.4787598 0.753418
vt 0.9926758 0.753418
vt 0.4787598 0.9731445
vt 0.9926758 0.9731445
vt 0.4787598 0.753418
vt 0.9926758 0.753418
vt 0.4787598 0.9731445
vt 0.9926758 0.9731445
vt 0.4787598 0.753418
vt 0.9926758 0.753418
vt 0.4787598 0.9731445
vt 0.9926758 0.9731445
vt 0.4787598 0.753418
vt 0.4787598 0.9731445
vt 0.9926758 0.9731445
vt 0.9926758 0.753418
vt 0.4787598 0.753418
vt 0.4787598 0.9731445
vt 0.9926758 0.9731445
vt 0.9926758 0.753418
vt 0.4787598 0.753418
vt 0.4787598 0.9731445
vt 0.9926758 0.9731445
vt 0.9926758 0.753418
vt 0.4787598 0.753418
vt 0.4787598 0.9731445
vt 0.9926758 0.9731445
vt 0.9926758 0.753418
vt 0.4787598 0.753418
vt 0.4787598 0.9731445
vt 0.9926758 0.9731445
vt 0.9926758 0.753418
vt 0.4787598 0.753418
vt 0.4787598 0.9731445
vt 0.9926758 0.9731445
vt 0.9926758 0.753418
vt 0.4787598 0.753418
vt 0.4787598 0.753418
vt 0.4787598 0.9731445
vt 0.9926758 0.753418
vt 0.9926758 0.9731445
vt 0.4787598 0.753418
vt 0.4787598 0.9731445
vt 0.9926758 0.753418
vt 0.9926758 0.9731445
vt 0.4787598 0.753418
vt 0.4787598 0.9731445
vt 0.9926758 0.753418
vt 0.9926758 0.9731445
vt 0.9926758 0.9731445
vt 0.9926758 0.753418
vt 0.4787598 0.9731445
vt 0.4787598 0.753418
vt 0.4787598 0.753418
vt 0.4787598 0.9731445
vt 0.9926758 0.753418
vt 0.9926758 0.9731445
vt 0.4787598 0.753418
vt 0.4787598 0.9731445
vt 0.9926758 0.753418
vt 0.9926758 0.9731445
vt 0.4787598 0.753418
vt 0.4787598 0.9731445
vt 0.9926758 0.753418
vt 0.9926758 0.9731445
vt 0.4787598 0.9731445
vt 0.9926758 0.9731445
vt 0.9926758 0.753418
vt 0.4787598 0.753418
vt 0.4787598 0.9731445
vt 0.9926758 0.9731445
vt 0.9926758 0.753418
vt 0.4787598 0.753418
vt 0.4787598 0.9731445
vt 0.9926758 0.9731445
vt 0.9926758 0.753418
vt 0.4787598 0.753418
vt 0.4787598 0.9731445
vt 0.9926758 0.9731445
vt 0.9926758 0.753418
vt 0.4787598 0.753418
vt 0.4787598 0.9731445
vt 0.9926758 0.9731445
vt 0.9926758 0.753418
vt 0.4787598 0.753418
vt 0.4787598 0.9731445
vt 0.9926758 0.9731445
vt 0.9926758 0.753418
vt 0.4787598 0.753418
vt 0.4787598 0.753418
vt 0.4787598 0.9731445
vt 0.9926758 0.753418
vt 0.9926758 0.9731445
vt 0.4787598 0.753418
vt 0.4787598 0.9731445
vt 0.9926758 0.753418
vt 0.9926758 0.9731445
vt 0.4787598 0.753418
vt 0.4787598 0.9731445
vt 0.9926758 0.753418
vt 0.9926758 0.9731445
vt 0.9926758 0.9731445
vt 0.9926758 0.753418
vt 0.4787598 0.9731445
vt 0.4787598 0.753418
vt 0.4787598 0.753418
vt 0.4787598 0.9731445
vt 0.9926758 0.753418
vt 0.9926758 0.9731445
vt 0.4787598 0.753418
vt 0.4787598 0.9731445
vt 0.9926758 0.9731445
vt 0.9926758 0.753418
vt 0.4787598 0.753418
vt 0.4787598 0.9731445
vt 0.9926758 0.753418
vt 0.9926758 0.9731445
vt 0.4787598 0.9731445
vt 0.9926758 0.9731445
vt 0.9926758 0.753418
vt 0.4787598 0.753418
vt 0.9926758 0.9731445
vt 0.9926758 0.753418
vt 0.4787598 0.753418
vt 0.4787598 0.9731445
vt 0.4787598 0.9731445
vt 0.9926758 0.9731445
vt 0.9926758 0.753418
vt 0.4787598 0.753418
vt 0.9926758 0.9731445
vt 0.9926758 0.753418
vt 0.4787598 0.753418
vt 0.4787598 0.9731445
vt 0.4787598 0.9731445
vt 0.9926758 0.9731445
vt 0.9926758 0.753418
vt 0.4787598 0.753418
vt 0.9926758 0.9731445
vt 0.9926758 0.753418
vt 0.4787598 0.753418
vt 0.4787598 0.9731445

g BridgeTurn180_(3)_1926_252
usemtl BridgeTurn180_(3)_1926_252
usemap BridgeTurn180_(3)_1926_252
f 1/1/1 3/3/3 2/2/2
f 2/2/2 4/4/4 1/1/1
f 5/5/5 7/7/7 6/6/6
f 6/6/6 8/8/8 5/5/5
f 9/9/9 11/11/11 10/10/10
f 12/12/12 10/10/10 11/11/11
f 13/13/13 15/15/15 14/14/14
f 16/16/16 14/14/14 15/15/15
f 17/17/17 19/19/19 18/18/18
f 18/18/18 20/20/20 17/17/17
f 21/21/21 23/23/23 22/22/22
f 23/23/23 21/21/21 24/24/24
f 25/25/25 27/27/27 26/26/26
f 26/26/26 28/28/28 25/25/25
f 29/29/29 31/31/31 30/30/30
f 31/31/31 29/29/29 32/32/32
f 33/33/33 35/35/35 34/34/34
f 34/34/34 36/36/36 33/33/33
f 37/37/37 39/39/39 38/38/38
f 39/39/39 37/37/37 40/40/40
f 41/41/41 43/43/43 42/42/42
f 42/42/42 44/44/44 41/41/41
f 45/45/45 47/47/47 46/46/46
f 47/47/47 45/45/45 48/48/48
f 49/49/49 51/51/51 50/50/50
f 51/51/51 49/49/49 52/52/52
f 53/53/53 55/55/55 54/54/54
f 55/55/55 53/53/53 56/56/56
f 57/57/57 59/59/59 58/58/58
f 59/59/59 57/57/57 60/60/60
f 61/61/61 63/63/63 62/62/62
f 63/63/63 61/61/61 64/64/64
f 65/65/65 67/67/67 66/66/66
f 67/67/67 65/65/65 68/68/68
f 69/69/69 71/71/71 70/70/70
f 70/70/70 72/72/72 69/69/69
f 73/73/73 75/75/75 74/74/74
f 74/74/74 76/76/76 73/73/73
f 77/77/77 79/79/79 78/78/78
f 79/79/79 77/77/77 80/80/80
f 81/81/81 83/83/83 82/82/82
f 82/82/82 84/84/84 81/81/81
f 85/85/85 87/87/87 86/86/86
f 86/86/86 88/88/88 85/85/85
f 89/89/89 91/91/91 90/90/90
f 90/90/90 92/92/92 89/89/89
f 93/93/93 95/95/95 94/94/94
f 94/94/94 96/96/96 93/93/93
f 97/97/97 99/99/99 98/98/98
f 99/99/99 97/97/97 100/100/100
f 101/101/101 103/103/103 102/102/102
f 103/103/103 101/101/101 104/104/104
f 105/105/105 107/107/107 106/106/106
f 107/107/107 105/105/105 108/108/108
f 109/109/109 111/111/111 110/110/110
f 111/111/111 109/109/109 112/112/112
f 113/113/113 115/115/115 114/114/114
f 115/115/115 113/113/113 116/116/116
f 117/117/117 119/119/119 118/118/118
f 119/119/119 117/117/117 120/120/120
f 121/121/121 123/123/123 122/122/122
f 124/124/124 122/122/122 123/123/123
f 125/125/125 127/127/127 126/126/126
f 128/128/128 126/126/126 127/127/127
f 129/129/129 131/131/131 130/130/130
f 132/132/132 130/130/130 131/131/131
f 133/133/133 135/135/135 134/134/134
f 135/135/135 136/136/136 134/134/134
f 137/137/137 139/139/139 138/138/138
f 140/140/140 138/138/138 139/139/139
f 141/141/141 143/143/143 142/142/142
f 144/144/144 142/142/142 143/143/143
f 145/145/145 147/147/147 146/146/146
f 148/148/148 146/146/146 147/147/147
f 149/149/149 151/151/151 150/150/150
f 151/151/151 149/149/149 152/152/152
f 153/153/153 155/155/155 154/154/154
f 155/155/155 153/153/153 156/156/156
f 157/157/157 159/159/159 158/158/158
f 159/159/159 157/157/157 160/160/160
f 161/161/161 163/163/163 162/162/162
f 163/163/163 161/161/161 164/164/164
f 165/165/165 167/167/167 166/166/166
f 167/167/167 165/165/165 168/168/168
f 169/169/169 171/171/171 170/170/170
f 171/171/171 169/169/169 172/172/172
f 173/173/173 175/175/175 174/174/174
f 176/176/176 174/174/174 175/175/175
f 177/177/177 179/179/179 178/178/178
f 180/180/180 178/178/178 179/179/179
f 181/181/181 183/183/183 182/182/182
f 184/184/184 182/182/182 183/183/183
f 185/185/185 187/187/187 186/186/186
f 187/187/187 188/188/188 186/186/186
f 189/189/189 191/191/191 190/190/190
f 192/192/192 190/190/190 191/191/191
f 193/193/193 195/195/195 194/194/194
f 195/195/195 193/193/193 196/196/196
f 197/197/197 199/199/199 198/198/198
f 200/200/200 198/198/198 199/199/199
f 201/201/201 203/203/203 202/202/202
f 203/203/203 201/201/201 204/204/204
f 205/205/205 207/207/207 206/206/206
f 207/207/207 205/205/205 208/208/208
f 209/209/209 211/211/211 210/210/210
f 211/211/211 209/209/209 212/212/212
f 213/213/213 215/215/215 214/214/214
f 215/215/215 213/213/213 216/216/216
f 217/217/217 219/219/219 218/218/218
f 219/219/219 217/217/217 220/220/220
f 221/221/221 223/223/223 222/222/222
f 223/223/223 221/221/221 224/224/224
