#Bridge3_(3)_1788_230.obj

v -4.828168 17.33061 5.505816
v 4.828184 17.33061 5.505816
v -4.828184 -17.33061 5.505817
v 4.828168 -17.33061 5.505817

vn -0.01586914 0.9995117 0.01586914
vn -0.01586914 0.9995117 0.01586914
vn -0.01586914 0.9995117 0.01586914
vn -0.01586914 0.9995117 0.01586914

vt -2.367188 -0.1204834
vt -2.367188 1.479492
vt 3.367188 -0.1204834
vt 3.367188 1.479492

g Bridge3_(3)_1788_230
usemtl Bridge3_(3)_1788_230
usemap Bridge3_(3)_1788_230
f 1/1/1 3/3/3 2/2/2
f 2/2/2 3/3/3 4/4/4
