#BridgeTurn90_2078_202.obj

v 8.6415 -10.79544 1.019594
v 3.129927 -19.09448 1.019592
v 1.102677 -16.8455 1.019592
v 9.940201 -12.22085 1.019594
v 5.378899 -21.09005 1.019592
v 11.36561 -13.51955 1.019593
v 12.94939 -14.6282 1.019593
v 7.849608 -22.83221 1.019593
v 14.65989 -15.5468 1.019593
v 10.47869 -24.2893 1.019593
v 13.26615 -25.42962 1.019593
v 16.43372 -16.27534 1.019593
v 16.18032 -26.25319 1.019593
v 18.30259 -16.81383 1.019593
v 19.15784 -26.72832 1.019593
v 20.20313 -17.13059 1.019593
v 22.13535 -17.22561 1.019594
v 22.16703 -26.8867 1.019593
v -0.6711594 -14.40648 1.019593
v 7.501171 -9.211656 1.019593
v -2.128245 -11.74572 1.019592
v 6.582576 -7.53285 1.019593
v 5.82236 -5.759004 1.019593
v -3.300247 -8.98993 1.019592
v -4.123813 -6.075762 1.019593
v 5.283871 -3.890138 1.019593
v 4.935441 -1.989601 1.019594
v -4.662301 -3.098253 1.019593
v 4.840414 -0.05738371 1.019594
v -4.820682 -0.08905143 1.019592

vn 0.01586914 0.9995117 0.01586914
vn 0.01586914 0.9995117 0.01586914
vn 0.01586914 0.9995117 0.01586914
vn 0.01586914 0.9995117 0.01586914
vn 0.01586914 0.9995117 0.01586914
vn 0.01586914 0.9995117 0.01586914
vn 0.01586914 0.9995117 0.01586914
vn 0.01586914 0.9995117 0.01586914
vn 0.01586914 0.9995117 0.01586914
vn 0.01586914 0.9995117 0.01586914
vn 0.01586914 0.9995117 0.01586914
vn 0.01586914 0.9995117 0.01586914
vn 0.01586914 0.9995117 0.01586914
vn 0.01586914 0.9995117 0.01586914
vn 0.01586914 0.9995117 0.01586914
vn 0.01586914 0.9995117 0.01586914
vn 0.01586914 0.9995117 0.01586914
vn 0.01586914 0.9995117 0.01586914
vn 0.01586914 0.9995117 0.01586914
vn 0.01586914 0.9995117 0.01586914
vn 0.01586914 0.9995117 0.01586914
vn 0.01586914 0.9995117 0.01586914
vn 0.01586914 0.9995117 0.01586914
vn 0.01586914 0.9995117 0.01586914
vn 0.01586914 0.9995117 0.01586914
vn 0.01586914 0.9995117 0.01586914
vn 0.01586914 0.9995117 0.01586914
vn 0.01586914 0.9995117 0.01586914
vn 0.01586914 0.9995117 0.01586914
vn 0.01586914 0.9995117 0.01586914

vt 0.08959961 1.479492
vt 0.5014648 -0.1204834
vt 0.08959961 -0.1204834
vt 0.5014648 1.479492
vt 0.9101563 -0.1204834
vt 0.9101563 1.479492
vt 1.319336 1.479492
vt 1.319336 -0.1204834
vt 1.728516 1.479492
vt 1.728516 -0.1204834
vt 2.136719 -0.1204834
vt 2.136719 1.479492
vt 2.548828 -0.1204834
vt 2.548828 1.479492
vt 2.958984 -0.1204834
vt 2.958984 1.479492
vt 3.367188 1.479492
vt 3.367188 -0.1204834
vt -0.3193359 -0.1204834
vt -0.3193359 1.479492
vt -0.7285156 -0.1204834
vt -0.7285156 1.479492
vt -1.137695 1.479492
vt -1.137695 -0.1204834
vt -1.548828 -0.1204834
vt -1.548828 1.479492
vt -1.958008 1.479492
vt -1.958008 -0.1204834
vt -2.367188 1.479492
vt -2.367188 -0.1204834

g BridgeTurn90_2078_202
usemtl BridgeTurn90_2078_202
usemap BridgeTurn90_2078_202
f 1/1/1 3/3/3 2/2/2
f 2/2/2 4/4/4 1/1/1
f 5/5/5 4/4/4 2/2/2
f 5/5/5 6/6/6 4/4/4
f 5/5/5 7/7/7 6/6/6
f 7/7/7 5/5/5 8/8/8
f 8/8/8 9/9/9 7/7/7
f 9/9/9 8/8/8 10/10/10
f 11/11/11 9/9/9 10/10/10
f 9/9/9 11/11/11 12/12/12
f 13/13/13 12/12/12 11/11/11
f 12/12/12 13/13/13 14/14/14
f 15/15/15 14/14/14 13/13/13
f 14/14/14 15/15/15 16/16/16
f 15/15/15 17/17/17 16/16/16
f 17/17/17 15/15/15 18/18/18
f 3/3/3 20/20/20 19/19/19
f 20/20/20 21/21/21 19/19/19
f 21/21/21 20/20/20 22/22/22
f 23/23/23 21/21/21 22/22/22
f 21/21/21 23/23/23 24/24/24
f 23/23/23 25/25/25 24/24/24
f 25/25/25 23/23/23 26/26/26
f 27/27/27 25/25/25 26/26/26
f 25/25/25 27/27/27 28/28/28
f 29/29/29 28/28/28 27/27/27
f 28/28/28 29/29/29 30/30/30
f 20/20/20 3/3/3 1/1/1
