#BridgeTurn90_(2)_1762_262.obj

v 8.641497 -10.79545 1.019593
v 3.129914 -19.09447 1.019593
v 1.10268 -16.8455 1.019593
v 9.940204 -12.22086 1.019593
v 5.378908 -21.09004 1.019593
v 11.36561 -13.51955 1.019593
v 12.94939 -14.62821 1.019593
v 7.849598 -22.83221 1.019593
v 14.65989 -15.5468 1.019593
v 10.4787 -24.28929 1.019593
v 13.26614 -25.42962 1.019593
v 16.43372 -16.27534 1.019593
v 16.18031 -26.25319 1.019593
v 18.30258 -16.81383 1.019593
v 19.15783 -26.72833 1.019593
v 20.20313 -17.13058 1.019593
v 22.13535 -17.22561 1.019593
v 22.16702 -26.88671 1.019593
v -0.67117 -14.40648 1.019593
v 7.501178 -9.21166 1.019593
v -2.128244 -11.74571 1.019593
v 6.582577 -7.532848 1.019593
v 5.822365 -5.759008 1.019593
v -3.300249 -8.989932 1.019593
v -4.123812 -6.075763 1.019593
v 5.28387 -3.890142 1.019593
v 4.935429 -1.9896 1.019593
v -4.662307 -3.098243 1.019593
v 4.840413 -0.05738279 1.019593
v -4.820673 -0.0890583 1.019593

vn -0.01586914 0.9995117 0.01586914
vn -0.01586914 0.9995117 0.01586914
vn -0.01586914 0.9995117 0.01586914
vn -0.01586914 0.9995117 0.01586914
vn -0.01586914 0.9995117 0.01586914
vn -0.01586914 0.9995117 0.01586914
vn -0.01586914 0.9995117 0.01586914
vn -0.01586914 0.9995117 0.01586914
vn -0.01586914 0.9995117 0.01586914
vn -0.01586914 0.9995117 0.01586914
vn -0.01586914 0.9995117 0.01586914
vn -0.01586914 0.9995117 0.01586914
vn -0.01586914 0.9995117 0.01586914
vn -0.01586914 0.9995117 0.01586914
vn -0.01586914 0.9995117 0.01586914
vn -0.01586914 0.9995117 0.01586914
vn -0.01586914 0.9995117 0.01586914
vn -0.01586914 0.9995117 0.01586914
vn -0.01586914 0.9995117 0.01586914
vn -0.01586914 0.9995117 0.01586914
vn -0.01586914 0.9995117 0.01586914
vn -0.01586914 0.9995117 0.01586914
vn -0.01586914 0.9995117 0.01586914
vn -0.01586914 0.9995117 0.01586914
vn -0.01586914 0.9995117 0.01586914
vn -0.01586914 0.9995117 0.01586914
vn -0.01586914 0.9995117 0.01586914
vn -0.01586914 0.9995117 0.01586914
vn -0.01586914 0.9995117 0.01586914
vn -0.01586914 0.9995117 0.01586914

vt 0.08959961 1.479492
vt 0.5014648 -0.1204834
vt 0.08959961 -0.1204834
vt 0.5014648 1.479492
vt 0.9101563 -0.1204834
vt 0.9101563 1.479492
vt 1.319336 1.479492
vt 1.319336 -0.1204834
vt 1.728516 1.479492
vt 1.728516 -0.1204834
vt 2.136719 -0.1204834
vt 2.136719 1.479492
vt 2.548828 -0.1204834
vt 2.548828 1.479492
vt 2.958984 -0.1204834
vt 2.958984 1.479492
vt 3.367188 1.479492
vt 3.367188 -0.1204834
vt -0.3193359 -0.1204834
vt -0.3193359 1.479492
vt -0.7285156 -0.1204834
vt -0.7285156 1.479492
vt -1.137695 1.479492
vt -1.137695 -0.1204834
vt -1.548828 -0.1204834
vt -1.548828 1.479492
vt -1.958008 1.479492
vt -1.958008 -0.1204834
vt -2.367188 1.479492
vt -2.367188 -0.1204834

g BridgeTurn90_(2)_1762_262
usemtl BridgeTurn90_(2)_1762_262
usemap BridgeTurn90_(2)_1762_262
f 1/1/1 3/3/3 2/2/2
f 2/2/2 4/4/4 1/1/1
f 5/5/5 4/4/4 2/2/2
f 5/5/5 6/6/6 4/4/4
f 5/5/5 7/7/7 6/6/6
f 7/7/7 5/5/5 8/8/8
f 8/8/8 9/9/9 7/7/7
f 9/9/9 8/8/8 10/10/10
f 11/11/11 9/9/9 10/10/10
f 9/9/9 11/11/11 12/12/12
f 13/13/13 12/12/12 11/11/11
f 12/12/12 13/13/13 14/14/14
f 15/15/15 14/14/14 13/13/13
f 14/14/14 15/15/15 16/16/16
f 15/15/15 17/17/17 16/16/16
f 17/17/17 15/15/15 18/18/18
f 3/3/3 20/20/20 19/19/19
f 20/20/20 21/21/21 19/19/19
f 21/21/21 20/20/20 22/22/22
f 23/23/23 21/21/21 22/22/22
f 21/21/21 23/23/23 24/24/24
f 23/23/23 25/25/25 24/24/24
f 25/25/25 23/23/23 26/26/26
f 27/27/27 25/25/25 26/26/26
f 25/25/25 27/27/27 28/28/28
f 29/29/29 28/28/28 27/27/27
f 28/28/28 29/29/29 30/30/30
f 20/20/20 3/3/3 1/1/1
