#BridgeTurn180_(1)_2046_270.obj

v 5.435806 -0.7435939 1.002827
v 5.604141 -0.7646511 1.002827
v 5.667262 -10.42259 1.002828
v 3.352722 -10.19114 1.002829
v 5.77247 -0.7435941 1.002827
v 7.981802 -10.14905 1.002828
v 5.919759 -0.6804838 1.002827
v 10.19114 -9.370529 1.002828
v 12.14798 -8.108058 1.002828
v 6.067047 -0.5963164 1.002827
v 13.7892 -6.445787 1.002828
v 6.193293 -0.4700551 1.002827
v 6.277461 -0.3227773 1.002827
v 15.03064 -4.446866 1.002828
v 15.76708 -2.237536 1.002827
v 6.340581 -0.1544424 1.002827
v 16.01958 0.07701862 1.002827
v 6.361623 0.01389259 1.002827
v 5.267476 -0.6804835 1.002827
v 1.143382 -9.433656 1.002828
v 5.120188 -0.596316 1.002827
v -0.8555389 -8.19222 1.002828
v 4.993942 -0.4700545 1.002827
v -2.5178 -6.551004 1.002828
v 4.909774 -0.3438134 1.002827
v -3.759234 -4.594155 1.002828
v -4.558804 -2.384825 1.002828
v 4.846654 -0.1754784 1.002827
v 4.825612 -0.007163792 1.002827
v -4.832342 -0.07026947 1.002827

vn 0.01308441 1 0.01308441
vn 0.01308441 1 0.01308441
vn 0.01308441 1 0.01308441
vn 0.01308441 1 0.01308441
vn 0.01308441 1 0.01308441
vn 0.01308441 1 0.01308441
vn 0.01308441 1 0.01308441
vn 0.01308441 1 0.01308441
vn 0.01308441 1 0.01308441
vn 0.01308441 1 0.01308441
vn 0.01308441 1 0.01308441
vn 0.01308441 1 0.01308441
vn 0.01308441 1 0.01308441
vn 0.01308441 1 0.01308441
vn 0.01308441 1 0.01308441
vn 0.01308441 1 0.01308441
vn 0.01308441 1 0.01308441
vn 0.01308441 1 0.01308441
vn 0.01308441 1 0.01308441
vn 0.01308441 1 0.01308441
vn 0.01308441 1 0.01308441
vn 0.01308441 1 0.01308441
vn 0.01308441 1 0.01308441
vn 0.01308441 1 0.01308441
vn 0.01308441 1 0.01308441
vn 0.01308441 1 0.01308441
vn 0.01308441 1 0.01308441
vn 0.01308441 1 0.01308441
vn 0.01308441 1 0.01308441
vn 0.01308441 1 0.01308441

vt 0.6064453 0.387207
vt 0.5800781 0.3903809
vt 0.6655273 1.941406
vt 1.035156 1.879883
vt 0.5507813 0.3903809
vt 0.2888184 1.921875
vt 0.5244141 0.3806152
vt -0.07110596 1.817383
vt -0.3984375 1.637695
vt 0.5014648 0.3674316
vt -0.6796875 1.385742
vt 0.4819336 0.3510742
vt 0.4655762 0.328125
vt -0.8959961 1.078125
vt -1.040039 0.730957
vt 0.4558105 0.302002
vt -1.102539 0.3608398
vt 0.4492188 0.2758789
vt 0.6323242 0.3771973
vt 1.381836 1.735352
vt 0.6523438 0.3608398
vt 1.689453 1.519531
vt 0.671875 0.3413086
vt 1.938477 1.241211
vt 0.6850586 0.3151855
vt 2.121094 0.9106445
vt 2.222656 0.5507813
vt 0.6914063 0.2888184
vt 0.6948242 0.2626953
vt 2.246094 0.1776123

g BridgeTurn180_(1)_2046_270
usemtl BridgeTurn180_(1)_2046_270
usemap BridgeTurn180_(1)_2046_270
f 1/1/1 3/3/3 2/2/2
f 3/3/3 1/1/1 4/4/4
f 3/3/3 5/5/5 2/2/2
f 5/5/5 3/3/3 6/6/6
f 6/6/6 7/7/7 5/5/5
f 7/7/7 6/6/6 8/8/8
f 7/7/7 8/8/8 9/9/9
f 7/7/7 9/9/9 10/10/10
f 10/10/10 9/9/9 11/11/11
f 11/11/11 12/12/12 10/10/10
f 11/11/11 13/13/13 12/12/12
f 13/13/13 11/11/11 14/14/14
f 13/13/13 14/14/14 15/15/15
f 15/15/15 16/16/16 13/13/13
f 17/17/17 16/16/16 15/15/15
f 16/16/16 17/17/17 18/18/18
f 4/4/4 1/1/1 19/19/19
f 20/20/20 19/19/19 21/21/21
f 20/20/20 21/21/21 22/22/22
f 23/23/23 22/22/22 21/21/21
f 22/22/22 23/23/23 24/24/24
f 25/25/25 24/24/24 23/23/23
f 24/24/24 25/25/25 26/26/26
f 25/25/25 27/27/27 26/26/26
f 27/27/27 25/25/25 28/28/28
f 29/29/29 27/27/27 28/28/28
f 27/27/27 29/29/29 30/30/30
f 4/4/4 19/19/19 20/20/20
