#DTv2-96mSection_(M)_2087_37.obj

v -4.411094 -37.79528 0.06206056
v -4.411094 0.02064141 0.6005083
v -4.411094 0.02064141 0.06205606
v -4.411094 -37.79528 0.6005128
v -4.411094 -37.79528 0.6005128
v -4.57677 0.02064141 0.6005083
v -4.411094 0.02064141 0.6005083
v -4.57677 -37.79528 0.6005128
v -4.57677 0.02064141 0.6005083
v -4.57677 -37.79528 -0.103617
v -4.57677 0.02064141 -0.1036216
v -4.57677 -37.79528 0.6005128
v 4.41124 -37.79528 0.6005128
v 4.41124 0.02064141 0.06205606
v 4.41124 0.02064141 0.6005083
v 4.41124 -37.79528 0.06206056
v 4.576916 -37.79528 0.6005128
v 4.41124 0.02064141 0.6005083
v 4.576916 0.02064141 0.6005083
v 4.41124 -37.79528 0.6005128
v 4.576916 -37.79528 -0.103617
v 4.576916 0.02064141 0.6005083
v 4.576916 0.02064141 -0.1036216
v 4.576916 -37.79528 0.6005128

vn 1 0 0.01586914
vn 1 0 0.01586914
vn 1 0 0.01586914
vn 1 0 0.01586914
vn -0.01586914 0.9995117 0.01586914
vn -0.01586914 0.9995117 0.01586914
vn -0.01586914 0.9995117 0.01586914
vn -0.01586914 0.9995117 0.01586914
vn -1 0 -0.01586914
vn -1 0 -0.01586914
vn -1 0 -0.01586914
vn -1 0 -0.01586914
vn -1 0 -0.01586914
vn -1 0 -0.01586914
vn -1 0 -0.01586914
vn -1 0 -0.01586914
vn -0.01586914 0.9995117 0.01586914
vn -0.01586914 0.9995117 0.01586914
vn -0.01586914 0.9995117 0.01586914
vn -0.01586914 0.9995117 0.01586914
vn 1 0 0.01586914
vn 1 0 0.01586914
vn 1 0 0.01586914
vn 1 0 0.01586914

vt -0.00146389 0.2001953
vt 16 1
vt 16 0.2001953
vt -0.00146389 1
vt -0.00146389 0.340332
vt 16 0.6582031
vt 16 0.340332
vt -0.00146389 0.6582031
vt -12 1
vt 4 -0.00146389
vt -12 -0.00146389
vt 4 1
vt 4 1
vt -12 0.2001953
vt -12 1
vt 4 0.2001953
vt 4 0.6582031
vt -12 0.340332
vt -12 0.6582031
vt 4 0.340332
vt -0.00146389 -0.00146389
vt 16 1
vt 16 -0.00146389
vt -0.00146389 1

g DTv2-96mSection_(M)_2087_37
usemtl DTv2-96mSection_(M)_2087_37
usemap DTv2-96mSection_(M)_2087_37
f 1/1/1 3/3/3 2/2/2
f 2/2/2 4/4/4 1/1/1
f 5/5/5 7/7/7 6/6/6
f 6/6/6 8/8/8 5/5/5
f 9/9/9 11/11/11 10/10/10
f 10/10/10 12/12/12 9/9/9
f 13/13/13 15/15/15 14/14/14
f 14/14/14 16/16/16 13/13/13
f 17/17/17 19/19/19 18/18/18
f 18/18/18 20/20/20 17/17/17
f 21/21/21 23/23/23 22/22/22
f 22/22/22 24/24/24 21/21/21
