#DTv2-96mSection_(M)_2087_38.obj

v 3.748529 -37.79528 0.02064116
v -3.748383 0.02064141 0.02063665
v 3.748529 0.02064141 0.02063665
v -3.748383 -37.79528 0.02064116
v -3.95548 -37.79528 0.02064116
v -3.872641 0.02064141 0.02063665
v -3.872641 -37.79528 0.02064116
v -3.95548 0.02064141 0.02063665
v 3.955625 -37.79528 0.02064116
v 3.872787 0.02064141 0.02063665
v 3.955625 0.02064141 0.02063665
v 3.872787 -37.79528 0.02064116

vn 0.01586914 0.9995117 0.01586914
vn 0.01586914 0.9995117 0.01586914
vn 0.01586914 0.9995117 0.01586914
vn -0.01586914 0.9995117 0.01586914
vn 0.01586914 0.9995117 0.01586914
vn 0.01586914 0.9995117 0.01586914
vn 0.01586914 0.9995117 0.01586914
vn 0.01586914 0.9995117 0.01586914
vn 0.01586914 0.9995117 0.01586914
vn 0.01586914 0.9995117 0.01586914
vn 0.01586914 0.9995117 0.01586914
vn 0.01586914 0.9995117 0.01586914

vt 0.9794922 -2.996094
vt 0.01904297 1
vt 0.9794922 1
vt 0.01904297 -2.996094
vt 0.001955032 -0.9995117
vt 0.008789063 2.996094
vt 0.008789063 -0.9995117
vt 0.001955032 2.996094
vt 1 -2.996094
vt 0.9931641 1
vt 1 1
vt 0.9931641 -2.996094

g DTv2-96mSection_(M)_2087_38
usemtl DTv2-96mSection_(M)_2087_38
usemap DTv2-96mSection_(M)_2087_38
f 1/1/1 3/3/3 2/2/2
f 2/2/2 4/4/4 1/1/1
f 5/5/5 7/7/7 6/6/6
f 6/6/6 8/8/8 5/5/5
f 9/9/9 11/11/11 10/10/10
f 10/10/10 12/12/12 9/9/9
