#DTv2-144mSection_(M)_(2)_1982_54.obj

v -3.738288 0.02497341 0.02497338
v 3.748233 -56.69291 0.02497338
v -3.738288 -56.69291 0.02497338
v 3.748233 0.02497341 0.02497338
v -3.917964 -56.69291 0.02497338
v -3.858072 0.02497341 0.02497338
v -3.858072 -56.69291 0.02497338
v -3.917964 0.02497341 0.02497338
v 3.92791 0.02497341 0.02497338
v 3.868017 -56.69291 0.02497338
v 3.868017 0.02497341 0.02497338
v 3.92791 -56.69291 0.02497338

vn -0.01586914 0.9995117 0.01586914
vn -0.01586914 0.9995117 0.01586914
vn -0.01586914 0.9995117 -0.01586914
vn -0.01586914 0.9995117 0.01586914
vn -0.01586914 0.9995117 0.01586914
vn -0.01586914 0.9995117 0.01586914
vn -0.01586914 0.9995117 0.01586914
vn -0.01586914 0.9995117 0.01586914
vn -0.01586914 0.9995117 0.01586914
vn -0.01586914 0.9995117 0.01586914
vn -0.01586914 0.9995117 0.01586914
vn -0.01586914 0.9995117 0.01586914

vt 0.01904297 1
vt 0.9794922 -4.996094
vt 0.01904297 -4.996094
vt 0.9794922 1
vt 0.001955032 -2.996094
vt 0.008789063 2.996094
vt 0.008789063 -2.996094
vt 0.001955032 2.996094
vt 1 1
vt 0.9931641 -4.996094
vt 0.9931641 1
vt 1 -4.996094

g DTv2-144mSection_(M)_(2)_1982_54
usemtl DTv2-144mSection_(M)_(2)_1982_54
usemap DTv2-144mSection_(M)_(2)_1982_54
f 1/1/1 3/3/3 2/2/2
f 2/2/2 4/4/4 1/1/1
f 5/5/5 7/7/7 6/6/6
f 6/6/6 8/8/8 5/5/5
f 9/9/9 11/11/11 10/10/10
f 10/10/10 12/12/12 9/9/9
