#DTv2-96mSection_(M)_(2)_1872_24.obj

v 4.41124 -37.79528 0.06206056
v 3.955626 0.0206369 0.02063665
v 4.41124 0.0206369 0.06205606
v 3.955626 -37.79528 0.02064116
v -3.95548 -37.79528 0.02064116
v -4.411093 0.0206369 0.06205606
v -3.95548 0.0206369 0.02063665
v -4.411093 -37.79528 0.06206056

vn -0.111084 0.9936523 0.01586914
vn -0.111084 0.9936523 0.01586914
vn -0.111084 0.9936523 0.01586914
vn -0.111084 0.9936523 0.01586914
vn 0.111084 0.9936523 0.01586914
vn 0.111084 0.9936523 0.01586914
vn 0.111084 0.9936523 0.01586914
vn 0.111084 0.9936523 0.01586914

vt 0.4018555 -0.00146389
vt 0.9008789 16
vt 0.4018555 16
vt 0.9008789 -0.00146389
vt 0.9008789 4
vt 0.4018555 -12
vt 0.9008789 -12
vt 0.4018555 4

g DTv2-96mSection_(M)_(2)_1872_24
usemtl DTv2-96mSection_(M)_(2)_1872_24
usemap DTv2-96mSection_(M)_(2)_1872_24
f 1/1/1 3/3/3 2/2/2
f 2/2/2 4/4/4 1/1/1
f 5/5/5 7/7/7 6/6/6
f 6/6/6 8/8/8 5/5/5
