#MEP_Con_01_d_LOD_02(Clone)_12770_450.obj

v -0.08018836 -0.5056338 -0.4106903
v 0.267496 25.89249 0.1725726
v -0.04636467 -0.5109878 0.4552803
v 0.4119356 -0.5056338 -0.07355319
v 0.267496 25.89249 0.1725726
v -0.4544694 -0.5109878 -0.0536832
v -0.08018836 -0.5056338 -0.4106903
v -0.04636467 -0.5109878 0.4552803
v 0.267496 25.89249 0.1725726
v 0.4119356 -0.5056338 -0.07355319
v -0.4544694 -0.5109878 -0.0536832
v 0.267496 25.89249 0.1725726
v -1.312153 22.14209 -3.090904
v 0.295265 22.1108 3.861377
v 1.260273 31.69208 2.40293
v -1.430706 31.06985 -1.938221
v 3.068608 22.20161 0.2798124
v -4.062609 22.24152 0.2209236
v -1.393432 31.55883 0.9901069
v 2.110437 31.41819 -0.9953315
v -2.505393 18.03639 6.018255
v 2.951771 18.47284 -6.524171
v 1.613839 25.98559 -3.503536
v 0.753556 25.84997 3.10408
v -4.738571 17.61271 -2.888827
v 5.471883 18.45897 3.430031
v 3.15469 26.49347 2.0832
v -3.677447 25.86773 -1.333996
v -1.312153 22.14209 -3.090904
v 1.260273 31.69208 2.40293
v 0.295265 22.1108 3.861377
v -1.430706 31.06985 -1.938221
v 3.068608 22.20161 0.2798124
v -1.393432 31.55883 0.9901069
v -4.062609 22.24152 0.2209236
v 2.110437 31.41819 -0.9953315
v -2.505393 18.03639 6.018255
v 1.613839 25.98559 -3.503536
v 2.951771 18.47284 -6.524171
v 0.753556 25.84997 3.10408
v -4.738571 17.61271 -2.888827
v 3.15469 26.49347 2.0832
v 5.471883 18.45897 3.430031
v -3.677447 25.86773 -1.333996

vn -0.9326172 0.01226807 0.3603516
vn -0.9111328 0.01528931 -0.4118652
vn -0.9326172 0.01226807 0.3603516
vn -0.345459 0.009185791 -0.9384766
vn -0.9111328 0.01528931 -0.4118652
vn -0.345459 0.009185791 -0.9384766
vn 0.9326172 -0.01226807 -0.3603516
vn 0.9326172 -0.01226807 -0.3603516
vn 0.9111328 -0.01528931 0.4118652
vn 0.345459 -0.009185791 0.9384766
vn 0.345459 -0.009185791 0.9384766
vn 0.9111328 -0.01528931 0.4118652
vn 0.7871094 -0.06695557 -0.6132813
vn 0.8413086 -0.1313477 -0.5244141
vn 0.7319336 -0.01147461 -0.6811523
vn 0.6240234 0.08007813 -0.7773438
vn 0.4404297 -0.0151062 0.8974609
vn 0.3144531 -0.07977295 0.9458008
vn 0.5976563 0.07446289 0.7983398
vn 0.7412109 0.1693115 0.6494141
vn -0.9873047 0.1546631 0.04110718
vn -0.996582 -0.002838135 -0.08068848
vn -0.9926758 0.1181641 0.01261902
vn -0.9179688 0.3459473 0.1934814
vn 0.1763916 0.0574646 -0.9824219
vn 0.2219238 0.009002686 -0.9750977
vn 0.1854248 0.04794312 -0.9814453
vn 0.1237183 0.1120605 -0.9858398
vn -0.7871094 0.06695557 0.6132813
vn -0.7319336 0.01147461 0.6811523
vn -0.8413086 0.1313477 0.5244141
vn -0.6240234 -0.08007813 0.7773438
vn -0.4404297 0.0151062 -0.8974609
vn -0.5976563 -0.07446289 -0.7983398
vn -0.3144531 0.07977295 -0.9458008
vn -0.7412109 -0.1693115 -0.6494141
vn 0.9873047 -0.1546631 -0.04110718
vn 0.9926758 -0.1181641 -0.01261902
vn 0.996582 0.002838135 0.08068848
vn 0.9179688 -0.3459473 -0.1934814
vn -0.1763916 -0.0574646 0.9824219
vn -0.1854248 -0.04794312 0.9814453
vn -0.2219238 -0.009002686 0.9750977
vn -0.1237183 -0.1120605 0.9858398

vt 0.9433594 0.3640137
vt 0.9321289 0.4221191
vt 0.9516602 0.3674316
vt 0.9433594 0.3640137
vt 0.9321289 0.4221191
vt 0.9516602 0.3674316
vt 0.9433594 0.3640137
vt 0.9516602 0.3674316
vt 0.9321289 0.4221191
vt 0.9433594 0.3640137
vt 0.9516602 0.3674316
vt 0.9321289 0.4221191
vt 0.001989365 0.007873535
vt 0.9863281 0.002599716
vt 0.7783203 0.996582
vt 0.1824951 0.9921875
vt 0.001989365 0.007873535
vt 0.9863281 0.002599716
vt 0.7783203 0.996582
vt 0.1824951 0.9921875
vt 0.001989365 0.007873535
vt 0.9863281 0.002599716
vt 0.7783203 0.996582
vt 0.1824951 0.9921875
vt 0.001989365 0.007873535
vt 0.9863281 0.002599716
vt 0.7783203 0.996582
vt 0.1824951 0.9921875
vt 0.001989365 0.007873535
vt 0.7783203 0.996582
vt 0.9863281 0.002599716
vt 0.1824951 0.9921875
vt 0.001989365 0.007873535
vt 0.7783203 0.996582
vt 0.9863281 0.002599716
vt 0.1824951 0.9921875
vt 0.001989365 0.007873535
vt 0.7783203 0.996582
vt 0.9863281 0.002599716
vt 0.1824951 0.9921875
vt 0.001989365 0.007873535
vt 0.7783203 0.996582
vt 0.9863281 0.002599716
vt 0.1824951 0.9921875

g MEP_Con_01_d_LOD_02(Clone)_12770_450
usemtl MEP_Con_01_d_LOD_02(Clone)_12770_450
usemap MEP_Con_01_d_LOD_02(Clone)_12770_450
f 1/1/1 3/3/3 2/2/2
f 4/4/4 6/6/6 5/5/5
f 7/7/7 9/9/9 8/8/8
f 10/10/10 12/12/12 11/11/11
f 13/13/13 15/15/15 14/14/14
f 16/16/16 15/15/15 13/13/13
f 17/17/17 19/19/19 18/18/18
f 20/20/20 19/19/19 17/17/17
f 21/21/21 23/23/23 22/22/22
f 24/24/24 23/23/23 21/21/21
f 25/25/25 27/27/27 26/26/26
f 28/28/28 27/27/27 25/25/25
f 29/29/29 31/31/31 30/30/30
f 32/32/32 29/29/29 30/30/30
f 33/33/33 35/35/35 34/34/34
f 36/36/36 33/33/33 34/34/34
f 37/37/37 39/39/39 38/38/38
f 40/40/40 37/37/37 38/38/38
f 41/41/41 43/43/43 42/42/42
f 44/44/44 41/41/41 42/42/42
