#MEP_ConTrunk_01_d_11845_87.obj

v 0.0009120418 -0.2513421 0.635752
v -0.5480738 -0.2513421 0.318798
v 0.0001412598 0.516072 0.3713326
v -0.3194626 0.507429 0.186061
v -0.08489034 10.50702 0.4098425
v 0.1915533 10.509 0.4220471
v -0.1888481 10.46097 0.132264
v 0.3343674 31.1316 -0.04992248
v 0.3343674 31.1316 -0.04992248
v -0.5480742 -0.2513421 -0.3151206
v 0.001669815 0.499974 -0.3677315
v -0.3187328 0.499378 -0.1834846
v 0.0009079098 -0.2513421 -0.6320832
v 0.1016906 10.44951 -0.09537464
v -0.1888481 10.46097 0.132264
v 0.3343674 31.1316 -0.04992248
v -0.5480738 -0.2513421 0.318798
v -0.3187328 0.499378 -0.1834846
v -0.3194626 0.507429 0.186061
v -0.5480742 -0.2513421 -0.3151206
v -0.1888481 10.46097 0.132264
v 0.5498937 -0.2513421 -0.3151293
v 0.3213047 0.5086169 -0.1824072
v 0.0009079098 -0.2513421 -0.6320832
v 0.001669815 0.499974 -0.3677315
v 0.1016906 10.44951 -0.09537464
v 0.3622824 10.50174 0.1512307
v 0.3343674 31.1316 -0.04992248
v 0.5498937 -0.2513421 -0.3151293
v 0.5498942 -0.2513421 0.3187894
v 0.3213047 0.5086169 -0.1824072
v 0.320523 0.5166659 0.1871366
v 0.0009120418 -0.2513421 0.635752
v 0.0001412598 0.516072 0.3713326
v 0.1915533 10.509 0.4220471
v 0.3622824 10.50174 0.1512307
v 0.3343674 31.1316 -0.04992248

vn 0.7836914 0.3254395 0.5292969
vn -0.0682373 0.3288574 0.9418945
vn 0.8144531 0.168335 0.5551758
vn -0.07849121 0.1781006 0.980957
vn 0.342041 0.01809692 0.9394531
vn 0.9931641 0.006835938 0.1148071
vn -0.7602539 0.0249939 0.6494141
vn -0.01177216 1 -0.01255798
vn -0.01177216 1 -0.01255798
vn -0.8481445 0.3325195 0.4128418
vn -0.8144531 0.1922607 -0.5478516
vn -0.8847656 0.1900635 0.4250488
vn -0.7822266 0.3310547 -0.5273438
vn -0.8017578 0.01980591 -0.597168
vn -0.7602539 0.0249939 0.6494141
vn -0.01177216 1 -0.01255798
vn -0.0682373 0.3288574 0.9418945
vn -0.8847656 0.1900635 0.4250488
vn -0.07849121 0.1781006 0.980957
vn -0.8481445 0.3325195 0.4128418
vn -0.7602539 0.0249939 0.6494141
vn 0.06634521 0.3286133 -0.9423828
vn 0.06536865 0.1802979 -0.9814453
vn -0.7822266 0.3310547 -0.5273438
vn -0.8144531 0.1922607 -0.5478516
vn -0.8017578 0.01980591 -0.597168
vn 0.456543 0.005493164 -0.8896484
vn -0.01177216 1 -0.01255798
vn 0.06634521 0.3286133 -0.9423828
vn 0.8496094 0.326416 -0.4145508
vn 0.06536865 0.1802979 -0.9814453
vn 0.8857422 0.1682129 -0.4326172
vn 0.7836914 0.3254395 0.5292969
vn 0.8144531 0.168335 0.5551758
vn 0.9931641 0.006835938 0.1148071
vn 0.456543 0.005493164 -0.8896484
vn -0.01177216 1 -0.01255798

vt 0.333252 0.003404617
vt 0.166748 0.003404617
vt 0.333252 0.2583008
vt 0.166748 0.2575684
vt 0.166748 2.923828
vt 0.333252 2.925781
vt 5.799532E-05 2.923828
vt 0.166748 6.832031
vt 5.799532E-05 6.832031
vt 1 0.003404617
vt 0.8334961 0.2558594
vt 1 0.2563477
vt 0.8334961 0.003404617
vt 0.7290039 2.921875
vt 1 2.923828
vt 0.8334961 6.832031
vt 0.166748 0.003404617
vt 5.799532E-05 0.2563477
vt 0.166748 0.2575684
vt 5.799532E-05 0.003404617
vt 5.799532E-05 2.923828
vt 0.6665039 0.003404617
vt 0.6665039 0.2563477
vt 0.8334961 0.003404617
vt 0.8334961 0.2558594
vt 0.7290039 2.921875
vt 0.5 2.923828
vt 0.5 6.832031
vt 0.6665039 0.003404617
vt 0.5 0.003404617
vt 0.6665039 0.2563477
vt 0.5 0.2575684
vt 0.333252 0.003404617
vt 0.333252 0.2583008
vt 0.333252 2.925781
vt 0.5 2.923828
vt 0.333252 6.832031

g MEP_ConTrunk_01_d_11845_87
usemtl MEP_ConTrunk_01_d_11845_87
usemap MEP_ConTrunk_01_d_11845_87
f 1/1/1 3/3/3 2/2/2
f 3/3/3 4/4/4 2/2/2
f 4/4/4 3/3/3 5/5/5
f 3/3/3 6/6/6 5/5/5
f 4/4/4 5/5/5 7/7/7
f 6/6/6 8/8/8 5/5/5
f 5/5/5 9/9/9 7/7/7
f 10/10/10 12/12/12 11/11/11
f 13/13/13 10/10/10 11/11/11
f 11/11/11 12/12/12 14/14/14
f 12/12/12 15/15/15 14/14/14
f 15/15/15 16/16/16 14/14/14
f 17/17/17 19/19/19 18/18/18
f 20/20/20 17/17/17 18/18/18
f 18/18/18 19/19/19 21/21/21
f 22/22/22 24/24/24 23/23/23
f 24/24/24 25/25/25 23/23/23
f 25/25/25 26/26/26 23/23/23
f 23/23/23 26/26/26 27/27/27
f 26/26/26 28/28/28 27/27/27
f 29/29/29 31/31/31 30/30/30
f 31/31/31 32/32/32 30/30/30
f 30/30/30 32/32/32 33/33/33
f 32/32/32 34/34/34 33/33/33
f 34/34/34 32/32/32 35/35/35
f 32/32/32 36/36/36 35/35/35
f 32/32/32 31/31/31 36/36/36
f 36/36/36 37/37/37 35/35/35
