#MEP_Con_01_h_LOD_01(Clone)_12184_269.obj

v -0.9886348 1.8701 2.022388
v -0.04146101 2.738964 0.1920427
v 0.1753417 3.133241 -0.009904496
v -0.1296289 2.017378 0.5884059
v 0.06085267 5.013865 0.3298883
v -0.04063077 5.410986 0.05558207
v 1.980713 3.836672 2.319811
v 0.4005438 4.29571 0.5631897
v 0.05843252 5.161913 -0.07769819
v -0.01365065 5.602562 0.131801
v -0.2754736 3.565519 -2.601871
v -0.09599749 4.395245 -0.3495988
v -0.1546957 7.074161 0.1252661
v 0.1510317 7.44681 0.02076147
v -2.565892 6.258063 1.722576
v -0.4860695 6.428028 0.5230538
v 0.1437528 6.999117 -0.09008234
v -0.007078993 7.390817 0.02216121
v 1.258542 5.592319 -2.036182
v 0.1633228 6.328564 -0.3764751
v -0.1149576 9.198686 -0.03920678
v -0.01338556 9.653197 0.1231255
v -2.010522 7.554882 -1.693343
v -0.4600966 8.447343 -0.08303949
v -0.007253537 9.326726 0.27795
v 0.0438634 9.7173 -0.01884889
v 0.4093187 8.302306 3.072314
v 0.1829192 8.640229 0.6999858
v -0.04146101 2.738964 0.1920427
v -0.9886348 1.8701 2.022388
v 0.1753417 3.133241 -0.009904496
v -0.1296289 2.017378 0.5884059
v 0.06085267 5.013865 0.3298883
v 1.980713 3.836672 2.319811
v -0.04063077 5.410986 0.05558207
v 0.4005438 4.29571 0.5631897
v 0.05843252 5.161913 -0.07769819
v -0.2754736 3.565519 -2.601871
v -0.01365065 5.602562 0.131801
v -0.09599749 4.395245 -0.3495988
v -0.1546957 7.074161 0.1252661
v -2.565892 6.258063 1.722576
v 0.1510317 7.44681 0.02076147
v -0.4860695 6.428028 0.5230538
v 0.1437528 6.999117 -0.09008234
v 1.258542 5.592319 -2.036182
v -0.007078993 7.390817 0.02216121
v 0.1633228 6.328564 -0.3764751
v -0.1149576 9.198686 -0.03920678
v -2.010522 7.554882 -1.693343
v -0.01338556 9.653197 0.1231255
v -0.4600966 8.447343 -0.08303949
v -0.007253537 9.326726 0.27795
v 0.4093187 8.302306 3.072314
v 0.0438634 9.7173 -0.01884889
v 0.1829192 8.640229 0.6999858
v -0.7609046 10.36044 1.125331
v -2.972184 11.57432 2.589996
v -0.2411206 10.70937 0.3411498
v 0.2145282 10.92739 0.02163467
v -0.7609046 10.36044 1.125331
v -0.2411206 10.70937 0.3411498
v -2.972184 11.57432 2.589996
v 0.2145282 10.92739 0.02163467
v -0.09567222 5.061844 0.02499152
v 0.1386448 5.473125 0.1635543
v -2.790358 3.783173 -0.3425357
v -0.4850452 4.333046 0.07774475
v 0.1548657 6.976057 0.1772845
v 0.1947096 7.401443 -0.06909982
v 0.9399963 5.51322 2.682303
v 0.341606 6.220922 0.4609306
v 0.1576537 9.229545 0.07540015
v -0.1367874 9.724119 -0.05382315
v 3.39319 7.663885 0.08664476
v 0.6009017 8.352187 -0.045018
v -0.09567222 5.061844 0.02499152
v -2.790358 3.783173 -0.3425357
v 0.1386448 5.473125 0.1635543
v -0.4850452 4.333046 0.07774475
v 0.1548657 6.976057 0.1772845
v 0.9399963 5.51322 2.682303
v 0.1947096 7.401443 -0.06909982
v 0.341606 6.220922 0.4609306
v 0.1576537 9.229545 0.07540015
v 3.39319 7.663885 0.08664476
v -0.1367874 9.724119 -0.05382315
v 0.6009017 8.352187 -0.045018
v -0.4775378 10.73707 -1.029083
v -0.1793569 10.03951 -4.580516
v 0.05299008 11.63629 -0.343111
v 0.1226276 12.25096 0.07050131
v -0.4775378 10.73707 -1.029083
v 0.05299008 11.63629 -0.343111
v -0.1793569 10.03951 -4.580516
v 0.1226276 12.25096 0.07050131
v -0.3181396 11.67299 -0.008468088
v 0.2608228 12.28067 0.04632819
v -5.330859 10.70736 -0.46437
v -1.31408 10.75051 0.3802536
v -0.3181396 11.67299 -0.008468088
v -5.330859 10.70736 -0.46437
v 0.2608228 12.28067 0.04632819
v -1.31408 10.75051 0.3802536
v 0.02403298 16.23364 -0.2524385
v 0.1418858 16.52573 0.03857347
v -1.716074 15.66677 -2.117503
v -0.3265677 15.68114 -0.5526079
v -0.07613957 17.31449 -0.02762481
v 0.2186622 17.74557 -0.05021443
v -2.789901 16.08077 1.094365
v -0.4231597 16.56796 0.27632
v 0.02403298 16.23364 -0.2524385
v -1.716074 15.66677 -2.117503
v 0.1418858 16.52573 0.03857347
v -0.3265677 15.68114 -0.5526079
v -0.07613957 17.31449 -0.02762481
v -2.789901 16.08077 1.094365
v 0.2186622 17.74557 -0.05021443
v -0.4231597 16.56796 0.27632
v -0.20252 13.99218 -0.176461
v 0.1882867 14.39918 0.0928774
v -3.364394 13.64519 -2.27309
v -1.038209 13.37294 -0.3173547
v -0.20252 13.99218 -0.176461
v -3.364394 13.64519 -2.27309
v 0.1882867 14.39918 0.0928774
v -1.038209 13.37294 -0.3173547
v -0.06775545 19.07122 -0.1653383
v 0.2588514 19.4246 -0.02302983
v -2.255342 18.38868 -1.455726
v -0.5306059 18.36757 -0.1466468
v -0.06775545 19.07122 -0.1653383
v -2.255342 18.38868 -1.455726
v 0.2588514 19.4246 -0.02302983
v -0.5306059 18.36757 -0.1466468
v -0.1596357 14.85503 -0.03273576
v 0.2875845 15.06024 -0.1312358
v -2.729278 15.14348 1.599145
v -0.7542756 14.40186 0.3554738
v -0.1596357 14.85503 -0.03273576
v -2.729278 15.14348 1.599145
v 0.2875845 15.06024 -0.1312358
v -0.7542756 14.40186 0.3554738
v -0.04379145 13.34469 -0.01564385
v 0.08033993 13.79207 0.1507574
v -2.022192 11.81187 -1.679327
v -0.4253758 12.61157 -0.06562226
v 0.07094992 13.46418 0.3023862
v 0.1402363 13.8547 0.009232812
v 0.4449133 12.3931 3.085264
v 0.2285292 12.76508 0.7170965
v -0.04379145 13.34469 -0.01564385
v -2.022192 11.81187 -1.679327
v 0.08033993 13.79207 0.1507574
v -0.4253758 12.61157 -0.06562226
v 0.07094992 13.46418 0.3023862
v 0.4449133 12.3931 3.085264
v 0.1402363 13.8547 0.009232812
v 0.2285292 12.76508 0.7170965
v 0.2302961 13.36106 0.09835912
v -0.03996179 13.87068 -0.02507184
v 3.385472 11.63914 0.08357818
v 0.629813 12.46432 -0.0320677
v 0.2302961 13.36106 0.09835912
v 3.385472 11.63914 0.08357818
v -0.03996179 13.87068 -0.02507184
v 0.629813 12.46432 -0.0320677
v 0.2360517 15.53636 -0.1273867
v 0.05767824 15.98374 -0.02120673
v 2.096149 14.00354 -1.922359
v 0.3253915 14.80325 -0.5017232
v -0.09216806 15.65585 -0.04629724
v 0.1922249 16.04637 0.05305935
v -2.898827 14.58478 0.03674178
v -0.5209852 14.95675 0.06739171
v 0.2360517 15.53636 -0.1273867
v 2.096149 14.00354 -1.922359
v 0.05767824 15.98374 -0.02120673
v 0.3253915 14.80325 -0.5017232
v -0.09216806 15.65585 -0.04629724
v -2.898827 14.58478 0.03674178
v 0.1922249 16.04637 0.05305935
v -0.5209852 14.95675 0.06739171
v 0.1048141 15.52808 0.2381887
v 0.1981136 16.03845 -0.04254196
v 0.4747162 13.79365 3.364703
v 0.2773267 14.62944 0.6168964
v 0.1048141 15.52808 0.2381887
v 0.4747162 13.79365 3.364703
v 0.1981136 16.03845 -0.04254196
v 0.2773267 14.62944 0.6168964
v 0.2624699 19.86199 -0.5207641
v 1.230036 19.65501 -1.722448
v 0.2621192 20.38085 -0.1571685
v 0.1857425 20.67361 0.03212278
v 0.2624699 19.86199 -0.5207641
v 0.2621192 20.38085 -0.1571685
v 1.230036 19.65501 -1.722448
v 0.1857425 20.67361 0.03212278
v 0.4766005 21.22732 0.0962205
v 1.005941 20.87008 1.110805
v 0.2917361 21.67425 0.03163002
v 0.2208516 21.92543 -0.05453827
v 0.4766005 21.22732 0.0962205
v 0.2917361 21.67425 0.03163002
v 1.005941 20.87008 1.110805
v 0.2208516 21.92543 -0.05453827
v -0.08021497 -0.2053583 -0.4106928
v 0.2617596 23.88826 -0.03481871
v -0.04636839 -0.2107122 0.4552831
v 0.4119085 -0.2053583 -0.07355313
v 0.2617596 23.88826 -0.03481871
v -0.4544958 -0.2107122 -0.05368264
v -0.08021497 -0.2053583 -0.4106928
v -0.04636839 -0.2107122 0.4552831
v 0.2617596 23.88826 -0.03481871
v 0.4119085 -0.2053583 -0.07355313
v -0.4544958 -0.2107122 -0.05368264
v 0.2617596 23.88826 -0.03481871

vn -0.703125 -0.05743408 -0.7089844
vn -0.765625 0.2324219 -0.5996094
vn -0.7695313 0.3356934 -0.5429688
vn -0.6533203 -0.1831055 -0.734375
vn -0.7919922 0.276123 0.5444336
vn -0.734375 0.3781738 0.5634766
vn -0.887207 -0.0004272461 0.4614258
vn -0.9047852 -0.1489258 0.3991699
vn 0.9799805 0.1971436 0.0291748
vn 0.9555664 0.2932129 -0.03567505
vn 0.9794922 -0.05969238 0.1921387
vn 0.9423828 -0.1953125 0.2724609
vn -0.3330078 0.1641846 -0.9287109
vn -0.3549805 0.2751465 -0.8935547
vn -0.2556152 -0.12854 -0.9580078
vn -0.2044678 -0.2807617 -0.9375
vn 0.7495117 0.1552734 0.6430664
vn 0.7739258 0.2526855 0.5805664
vn 0.6396484 -0.1022949 0.7617188
vn 0.5561523 -0.2366943 0.796875
vn 0.8193359 0.06439209 -0.5698242
vn 0.7709961 0.1627197 -0.6152344
vn 0.8886719 -0.1895752 -0.4174805
vn 0.8920898 -0.3186035 -0.3198242
vn -0.9770508 0.203125 -0.06304932
vn -0.9501953 0.3103027 -0.02006531
vn -0.9824219 -0.08221436 -0.168335
vn -0.9477539 -0.2322998 -0.2183838
vn 0.765625 -0.2324219 0.5996094
vn 0.703125 0.05743408 0.7089844
vn 0.7695313 -0.3356934 0.5429688
vn 0.6533203 0.1831055 0.734375
vn 0.7919922 -0.276123 -0.5444336
vn 0.887207 0.0004272461 -0.4614258
vn 0.734375 -0.3781738 -0.5634766
vn 0.9047852 0.1489258 -0.3991699
vn -0.9799805 -0.1971436 -0.0291748
vn -0.9794922 0.05969238 -0.1921387
vn -0.9555664 -0.2932129 0.03567505
vn -0.9423828 0.1953125 -0.2724609
vn 0.3330078 -0.1641846 0.9287109
vn 0.2556152 0.12854 0.9580078
vn 0.3549805 -0.2753906 0.8935547
vn 0.2044678 0.2807617 0.9375
vn -0.7495117 -0.1552734 -0.6430664
vn -0.6396484 0.1022949 -0.7617188
vn -0.7739258 -0.2526855 -0.5805664
vn -0.5561523 0.2366943 -0.796875
vn -0.8193359 -0.06439209 0.5698242
vn -0.8886719 0.1895752 0.4174805
vn -0.7709961 -0.1627197 0.6152344
vn -0.8920898 0.3186035 0.3198242
vn 0.9770508 -0.203125 0.06304932
vn 0.9824219 0.08221436 0.168335
vn 0.9501953 -0.3103027 0.02006531
vn 0.9477539 0.2322998 0.2183838
vn 0.4470215 0.4326172 0.7827148
vn 0.4375 0.2866211 0.8520508
vn 0.3891602 -0.00567627 0.9208984
vn 0.3603516 -0.1206055 0.9248047
vn -0.4470215 -0.4326172 -0.7827148
vn -0.3891602 0.00567627 -0.9208984
vn -0.4375 -0.2866211 -0.8520508
vn -0.3603516 0.1206055 -0.9248047
vn 0.2971191 0.2327881 -0.9262695
vn 0.2382813 0.3344727 -0.9116211
vn 0.4279785 -0.04095459 -0.902832
vn 0.4819336 -0.1864014 -0.8564453
vn -0.9580078 0.2440186 0.1513672
vn -0.9169922 0.3415527 0.2050781
vn -1 -0.01940918 0.005172729
vn -0.984375 -0.1601563 -0.07348633
vn -0.1673584 0.2365723 0.9570313
vn -0.1096191 0.3376465 0.9350586
vn -0.3032227 -0.03546143 0.9521484
vn -0.3647461 -0.1801758 0.9135742
vn -0.2971191 -0.2327881 0.9262695
vn -0.4279785 0.04095459 0.902832
vn -0.2382813 -0.3344727 0.9116211
vn -0.4819336 0.1864014 0.8564453
vn 0.9580078 -0.2440186 -0.1513672
vn 1 0.01940918 -0.005172729
vn 0.9169922 -0.3415527 -0.2050781
vn 0.984375 0.1601563 0.07348633
vn 0.1673584 -0.2365723 -0.9570313
vn 0.3032227 0.03546143 -0.9521484
vn 0.1096191 -0.3376465 -0.9350586
vn 0.3647461 0.1801758 -0.9135742
vn -0.6953125 0.5996094 -0.3967285
vn -0.796875 0.4755859 -0.3730469
vn -0.9296875 0.2111816 -0.3022461
vn -0.9584961 0.1017456 -0.2668457
vn 0.6953125 -0.5996094 0.3967285
vn 0.9296875 -0.2111816 0.3022461
vn 0.796875 -0.4755859 0.3730469
vn 0.9584961 -0.1017456 0.2668457
vn 0.3869629 -0.1119385 -0.9150391
vn 0.3686523 0.004272461 -0.9296875
vn 0.4086914 -0.4001465 -0.8203125
vn 0.4047852 -0.5395508 -0.7382813
vn -0.3869629 0.1119385 0.9150391
vn -0.4086914 0.4001465 0.8203125
vn -0.3686523 -0.004272461 0.9296875
vn -0.4047852 0.5395508 0.7382813
vn 0.8071289 0.3354492 -0.486084
vn 0.7539063 0.4416504 -0.486084
vn 0.8891602 0.04428101 -0.4550781
vn 0.8999023 -0.1137085 -0.4208984
vn -0.1746826 0.1734619 -0.9692383
vn -0.2159424 0.2792969 -0.9355469
vn -0.05877686 -0.1068726 -0.9926758
vn 0.005729675 -0.2531738 -0.9672852
vn -0.8071289 -0.3354492 0.486084
vn -0.8891602 -0.04428101 0.4550781
vn -0.7539063 -0.4416504 0.486084
vn -0.8999023 0.1137085 0.4208984
vn 0.1746826 -0.1734619 0.9692383
vn 0.05877686 0.1068726 0.9926758
vn 0.2159424 -0.2792969 0.9355469
vn -0.005729675 0.2531738 0.9672852
vn 0.7685547 -0.09454346 -0.6328125
vn 0.7646484 0.02337646 -0.644043
vn 0.7285156 -0.3881836 -0.5644531
vn 0.6796875 -0.53125 -0.5058594
vn -0.7685547 0.09454346 0.6328125
vn -0.7285156 0.3881836 0.5644531
vn -0.7646484 -0.02340698 0.644043
vn -0.6796875 0.53125 0.5058594
vn 0.7524414 -0.2202148 -0.6206055
vn 0.7509766 -0.1654053 -0.6391602
vn 0.7470703 -0.3383789 -0.5717773
vn 0.7416992 -0.3847656 -0.5498047
vn -0.7524414 0.2202148 0.6206055
vn -0.7470703 0.3383789 0.5717773
vn -0.7509766 0.1654053 0.6391602
vn -0.7416992 0.3847656 0.5498047
vn -0.2076416 0.4333496 -0.8769531
vn -0.182373 0.5361328 -0.8242188
vn -0.2585449 0.1437988 -0.9550781
vn -0.276123 -0.01712036 -0.9609375
vn 0.2076416 -0.4333496 0.8769531
vn 0.2585449 -0.1437988 0.9550781
vn 0.182373 -0.5361328 0.8242188
vn 0.276123 0.01712036 0.9609375
vn 0.8198242 0.04150391 -0.5712891
vn 0.7758789 0.1429443 -0.6142578
vn 0.878418 -0.21875 -0.4248047
vn 0.8764648 -0.3500977 -0.3303223
vn -0.9672852 0.2474365 -0.05480957
vn -0.9360352 0.3522949 -0.009414673
vn -0.9853516 -0.03491211 -0.166626
vn -0.9575195 -0.1851807 -0.2203369
vn -0.8198242 -0.04150391 0.5712891
vn -0.878418 0.21875 0.4248047
vn -0.7758789 -0.1429443 0.6142578
vn -0.8764648 0.3500977 0.3303223
vn 0.9672852 -0.2474365 0.05480957
vn 0.9853516 0.03491211 0.166626
vn 0.9360352 -0.3522949 0.009414673
vn 0.9575195 0.1851807 0.2203369
vn -0.1542969 0.2213135 0.9628906
vn -0.09216309 0.3203125 0.9428711
vn -0.302002 -0.04428101 0.9521484
vn -0.3701172 -0.1851807 0.9101563
vn 0.1542969 -0.2213135 -0.9628906
vn 0.302002 0.04428101 -0.9521484
vn 0.09216309 -0.3203125 -0.9428711
vn 0.3701172 0.1851807 -0.9101563
vn 0.4829102 0.04150391 0.8745117
vn 0.5302734 0.1429443 0.8354492
vn 0.331543 -0.21875 0.9179688
vn 0.2374268 -0.3500977 0.90625
vn 0.1549072 0.2474365 -0.956543
vn 0.1065674 0.3522949 -0.9296875
vn 0.2680664 -0.03491211 -0.9628906
vn 0.3186035 -0.1851807 -0.9296875
vn -0.4829102 -0.04150391 -0.8745117
vn -0.331543 0.21875 -0.9179688
vn -0.5302734 -0.1429443 -0.8354492
vn -0.2374268 0.3500977 -0.90625
vn -0.1549072 -0.2474365 0.956543
vn -0.2680664 0.03491211 0.9628906
vn -0.1065674 -0.3522949 0.9296875
vn -0.3186035 0.1851807 0.9296875
vn -0.9736328 0.2233887 -0.04229736
vn -0.9467773 0.3220215 0.01751709
vn -0.9804688 -0.04159546 -0.1915283
vn -0.9467773 -0.182251 -0.2644043
vn 0.9736328 -0.2233887 0.04229736
vn 0.9804688 0.04159546 0.1915283
vn 0.9467773 -0.3220215 -0.01751709
vn 0.9467773 0.182251 0.2644043
vn -0.4660645 0.4272461 -0.7744141
vn -0.5058594 0.364502 -0.7817383
vn -0.5825195 0.2202148 -0.7822266
vn -0.609375 0.15979 -0.7763672
vn 0.4660645 -0.4272461 0.7744141
vn 0.5825195 -0.2202148 0.7822266
vn 0.5058594 -0.364502 0.7817383
vn 0.609375 -0.15979 0.7763672
vn 0.9453125 0.3144531 -0.08483887
vn 0.9584961 0.2546387 -0.1276855
vn 0.9682617 0.1193848 -0.2186279
vn 0.965332 0.06329346 -0.2541504
vn -0.9453125 -0.3144531 0.08483887
vn -0.9682617 -0.1193848 0.2186279
vn -0.9584961 -0.2546387 0.1276855
vn -0.965332 -0.06329346 0.2541504
vn -0.9692383 0.0135498 -0.2460938
vn -0.5043945 0.01071167 -0.8632813
vn -0.9692383 0.0135498 -0.2460938
vn 0.2617188 0.001434326 -0.965332
vn -0.5043945 0.01071167 -0.8632813
vn 0.2617188 0.001434326 -0.965332
vn 0.9692383 -0.0135498 0.2460938
vn 0.9692383 -0.0135498 0.2460938
vn 0.5043945 -0.01071167 0.8632813
vn -0.2617188 -0.001434326 0.965332
vn -0.2617188 -0.001434326 0.965332
vn 0.5043945 -0.01071167 0.8632813

vt 0.8422852 0.7006836
vt 0.9926758 0.2159424
vt 0.9921875 0.08068848
vt 0.9970703 0.3566895
vt 0.9926758 0.2159424
vt 0.9921875 0.08068848
vt 0.8422852 0.7006836
vt 0.9970703 0.3566895
vt 0.9926758 0.2159424
vt 0.9921875 0.08068848
vt 0.8422852 0.7006836
vt 0.9970703 0.3566895
vt 0.9926758 0.2159424
vt 0.9921875 0.08068848
vt 0.8422852 0.7006836
vt 0.9970703 0.3566895
vt 0.9926758 0.2159424
vt 0.9921875 0.08068848
vt 0.8422852 0.7006836
vt 0.9970703 0.3566895
vt 0.9926758 0.2159424
vt 0.9921875 0.08068848
vt 0.8422852 0.7006836
vt 0.9970703 0.3566895
vt 0.9926758 0.2159424
vt 0.9921875 0.08068848
vt 0.8422852 0.7006836
vt 0.9970703 0.3566895
vt 0.9926758 0.2159424
vt 0.8422852 0.7006836
vt 0.9921875 0.08068848
vt 0.9970703 0.3566895
vt 0.9926758 0.2159424
vt 0.8422852 0.7006836
vt 0.9921875 0.08068848
vt 0.9970703 0.3566895
vt 0.9926758 0.2159424
vt 0.8422852 0.7006836
vt 0.9921875 0.08068848
vt 0.9970703 0.3566895
vt 0.9926758 0.2159424
vt 0.8422852 0.7006836
vt 0.9921875 0.08068848
vt 0.9970703 0.3566895
vt 0.9926758 0.2159424
vt 0.8422852 0.7006836
vt 0.9921875 0.08068848
vt 0.9970703 0.3566895
vt 0.9926758 0.2159424
vt 0.8422852 0.7006836
vt 0.9921875 0.08068848
vt 0.9970703 0.3566895
vt 0.9926758 0.2159424
vt 0.8422852 0.7006836
vt 0.9921875 0.08068848
vt 0.9970703 0.3566895
vt 0.9970703 0.3566895
vt 0.8422852 0.7006836
vt 0.9926758 0.2159424
vt 0.9921875 0.08068848
vt 0.9970703 0.3566895
vt 0.9926758 0.2159424
vt 0.8422852 0.7006836
vt 0.9921875 0.08068848
vt 0.9926758 0.2159424
vt 0.9921875 0.08068848
vt 0.8422852 0.7006836
vt 0.9970703 0.3566895
vt 0.9926758 0.2159424
vt 0.9921875 0.08068848
vt 0.8422852 0.7006836
vt 0.9970703 0.3566895
vt 0.9926758 0.2159424
vt 0.9921875 0.08068848
vt 0.8422852 0.7006836
vt 0.9970703 0.3566895
vt 0.9926758 0.2159424
vt 0.8422852 0.7006836
vt 0.9921875 0.08068848
vt 0.9970703 0.3566895
vt 0.9926758 0.2159424
vt 0.8422852 0.7006836
vt 0.9921875 0.08068848
vt 0.9970703 0.3566895
vt 0.9926758 0.2159424
vt 0.8422852 0.7006836
vt 0.9921875 0.08068848
vt 0.9970703 0.3566895
vt 0.9970703 0.3566895
vt 0.8422852 0.7006836
vt 0.9926758 0.2159424
vt 0.9921875 0.08068848
vt 0.9970703 0.3566895
vt 0.9926758 0.2159424
vt 0.8422852 0.7006836
vt 0.9921875 0.08068848
vt 0.9926758 0.2159424
vt 0.9921875 0.08068848
vt 0.8422852 0.7006836
vt 0.9970703 0.3566895
vt 0.9926758 0.2159424
vt 0.8422852 0.7006836
vt 0.9921875 0.08068848
vt 0.9970703 0.3566895
vt 0.9926758 0.2159424
vt 0.9921875 0.08068848
vt 0.8422852 0.7006836
vt 0.9970703 0.3566895
vt 0.9926758 0.2159424
vt 0.9921875 0.08068848
vt 0.8422852 0.7006836
vt 0.9970703 0.3566895
vt 0.9926758 0.2159424
vt 0.8422852 0.7006836
vt 0.9921875 0.08068848
vt 0.9970703 0.3566895
vt 0.9926758 0.2159424
vt 0.8422852 0.7006836
vt 0.9921875 0.08068848
vt 0.9970703 0.3566895
vt 0.9926758 0.2159424
vt 0.9921875 0.08068848
vt 0.8422852 0.7006836
vt 0.9970703 0.3566895
vt 0.9926758 0.2159424
vt 0.8422852 0.7006836
vt 0.9921875 0.08068848
vt 0.9970703 0.3566895
vt 0.9926758 0.2159424
vt 0.9921875 0.08068848
vt 0.8422852 0.7006836
vt 0.9970703 0.3566895
vt 0.9926758 0.2159424
vt 0.8422852 0.7006836
vt 0.9921875 0.08068848
vt 0.9970703 0.3566895
vt 0.9926758 0.2159424
vt 0.9921875 0.08068848
vt 0.8422852 0.7006836
vt 0.9970703 0.3566895
vt 0.9926758 0.2159424
vt 0.8422852 0.7006836
vt 0.9921875 0.08068848
vt 0.9970703 0.3566895
vt 0.9926758 0.2159424
vt 0.9921875 0.08068848
vt 0.8422852 0.7006836
vt 0.9970703 0.3566895
vt 0.9926758 0.2159424
vt 0.9921875 0.08068848
vt 0.8422852 0.7006836
vt 0.9970703 0.3566895
vt 0.9926758 0.2159424
vt 0.8422852 0.7006836
vt 0.9921875 0.08068848
vt 0.9970703 0.3566895
vt 0.9926758 0.2159424
vt 0.8422852 0.7006836
vt 0.9921875 0.08068848
vt 0.9970703 0.3566895
vt 0.9926758 0.2159424
vt 0.9921875 0.08068848
vt 0.8422852 0.7006836
vt 0.9970703 0.3566895
vt 0.9926758 0.2159424
vt 0.8422852 0.7006836
vt 0.9921875 0.08068848
vt 0.9970703 0.3566895
vt 0.9926758 0.2159424
vt 0.9921875 0.08068848
vt 0.8422852 0.7006836
vt 0.9970703 0.3566895
vt 0.9926758 0.2159424
vt 0.9921875 0.08068848
vt 0.8422852 0.7006836
vt 0.9970703 0.3566895
vt 0.9926758 0.2159424
vt 0.8422852 0.7006836
vt 0.9921875 0.08068848
vt 0.9970703 0.3566895
vt 0.9926758 0.2159424
vt 0.8422852 0.7006836
vt 0.9921875 0.08068848
vt 0.9970703 0.3566895
vt 0.9926758 0.2159424
vt 0.9921875 0.08068848
vt 0.8422852 0.7006836
vt 0.9970703 0.3566895
vt 0.9926758 0.2159424
vt 0.8422852 0.7006836
vt 0.9921875 0.08068848
vt 0.9970703 0.3566895
vt 0.9970703 0.3566895
vt 0.8422852 0.7006836
vt 0.9926758 0.2159424
vt 0.9921875 0.08068848
vt 0.9970703 0.3566895
vt 0.9926758 0.2159424
vt 0.8422852 0.7006836
vt 0.9921875 0.08068848
vt 0.9970703 0.3566895
vt 0.8422852 0.7006836
vt 0.9926758 0.2159424
vt 0.9921875 0.08068848
vt 0.9970703 0.3566895
vt 0.9926758 0.2159424
vt 0.8422852 0.7006836
vt 0.9921875 0.08068848
vt 0.9433594 0.3640137
vt 0.9321289 0.4221191
vt 0.9516602 0.3674316
vt 0.9433594 0.3640137
vt 0.9321289 0.4221191
vt 0.9516602 0.3674316
vt 0.9433594 0.3640137
vt 0.9516602 0.3674316
vt 0.9321289 0.4221191
vt 0.9433594 0.3640137
vt 0.9516602 0.3674316
vt 0.9321289 0.4221191

g MEP_Con_01_h_LOD_01(Clone)_12184_269
usemtl MEP_Con_01_h_LOD_01(Clone)_12184_269
usemap MEP_Con_01_h_LOD_01(Clone)_12184_269
f 1/1/1 3/3/3 2/2/2
f 4/4/4 1/1/1 2/2/2
f 5/5/5 7/7/7 6/6/6
f 8/8/8 7/7/7 5/5/5
f 9/9/9 11/11/11 10/10/10
f 12/12/12 11/11/11 9/9/9
f 13/13/13 15/15/15 14/14/14
f 16/16/16 15/15/15 13/13/13
f 17/17/17 19/19/19 18/18/18
f 20/20/20 19/19/19 17/17/17
f 21/21/21 23/23/23 22/22/22
f 24/24/24 23/23/23 21/21/21
f 25/25/25 27/27/27 26/26/26
f 28/28/28 27/27/27 25/25/25
f 29/29/29 31/31/31 30/30/30
f 32/32/32 29/29/29 30/30/30
f 33/33/33 35/35/35 34/34/34
f 36/36/36 33/33/33 34/34/34
f 37/37/37 39/39/39 38/38/38
f 40/40/40 37/37/37 38/38/38
f 41/41/41 43/43/43 42/42/42
f 44/44/44 41/41/41 42/42/42
f 45/45/45 47/47/47 46/46/46
f 48/48/48 45/45/45 46/46/46
f 49/49/49 51/51/51 50/50/50
f 52/52/52 49/49/49 50/50/50
f 53/53/53 55/55/55 54/54/54
f 56/56/56 53/53/53 54/54/54
f 57/57/57 59/59/59 58/58/58
f 59/59/59 60/60/60 58/58/58
f 61/61/61 63/63/63 62/62/62
f 62/62/62 63/63/63 64/64/64
f 65/65/65 67/67/67 66/66/66
f 68/68/68 67/67/67 65/65/65
f 69/69/69 71/71/71 70/70/70
f 72/72/72 71/71/71 69/69/69
f 73/73/73 75/75/75 74/74/74
f 76/76/76 75/75/75 73/73/73
f 77/77/77 79/79/79 78/78/78
f 80/80/80 77/77/77 78/78/78
f 81/81/81 83/83/83 82/82/82
f 84/84/84 81/81/81 82/82/82
f 85/85/85 87/87/87 86/86/86
f 88/88/88 85/85/85 86/86/86
f 89/89/89 91/91/91 90/90/90
f 91/91/91 92/92/92 90/90/90
f 93/93/93 95/95/95 94/94/94
f 94/94/94 95/95/95 96/96/96
f 97/97/97 99/99/99 98/98/98
f 100/100/100 99/99/99 97/97/97
f 101/101/101 103/103/103 102/102/102
f 104/104/104 101/101/101 102/102/102
f 105/105/105 107/107/107 106/106/106
f 108/108/108 107/107/107 105/105/105
f 109/109/109 111/111/111 110/110/110
f 112/112/112 111/111/111 109/109/109
f 113/113/113 115/115/115 114/114/114
f 116/116/116 113/113/113 114/114/114
f 117/117/117 119/119/119 118/118/118
f 120/120/120 117/117/117 118/118/118
f 121/121/121 123/123/123 122/122/122
f 124/124/124 123/123/123 121/121/121
f 125/125/125 127/127/127 126/126/126
f 128/128/128 125/125/125 126/126/126
f 129/129/129 131/131/131 130/130/130
f 132/132/132 131/131/131 129/129/129
f 133/133/133 135/135/135 134/134/134
f 136/136/136 133/133/133 134/134/134
f 137/137/137 139/139/139 138/138/138
f 140/140/140 139/139/139 137/137/137
f 141/141/141 143/143/143 142/142/142
f 144/144/144 141/141/141 142/142/142
f 145/145/145 147/147/147 146/146/146
f 148/148/148 147/147/147 145/145/145
f 149/149/149 151/151/151 150/150/150
f 152/152/152 151/151/151 149/149/149
f 153/153/153 155/155/155 154/154/154
f 156/156/156 153/153/153 154/154/154
f 157/157/157 159/159/159 158/158/158
f 160/160/160 157/157/157 158/158/158
f 161/161/161 163/163/163 162/162/162
f 164/164/164 163/163/163 161/161/161
f 165/165/165 167/167/167 166/166/166
f 168/168/168 165/165/165 166/166/166
f 169/169/169 171/171/171 170/170/170
f 172/172/172 171/171/171 169/169/169
f 173/173/173 175/175/175 174/174/174
f 176/176/176 175/175/175 173/173/173
f 177/177/177 179/179/179 178/178/178
f 180/180/180 177/177/177 178/178/178
f 181/181/181 183/183/183 182/182/182
f 184/184/184 181/181/181 182/182/182
f 185/185/185 187/187/187 186/186/186
f 188/188/188 187/187/187 185/185/185
f 189/189/189 191/191/191 190/190/190
f 192/192/192 189/189/189 190/190/190
f 193/193/193 195/195/195 194/194/194
f 195/195/195 196/196/196 194/194/194
f 197/197/197 199/199/199 198/198/198
f 198/198/198 199/199/199 200/200/200
f 201/201/201 203/203/203 202/202/202
f 203/203/203 204/204/204 202/202/202
f 205/205/205 207/207/207 206/206/206
f 206/206/206 207/207/207 208/208/208
f 209/209/209 211/211/211 210/210/210
f 212/212/212 214/214/214 213/213/213
f 215/215/215 217/217/217 216/216/216
f 218/218/218 220/220/220 219/219/219
