#MEP_Con_01_h_14504_434.obj

v -0.9886169 1.8701 2.02237
v -0.04146822 2.738964 0.1920203
v 0.1753512 3.133242 -0.009922088
v -0.1296214 2.017378 0.5883791
v 0.06086287 5.013865 0.3298563
v -0.04062128 5.410986 0.05556254
v 1.980737 3.836672 2.319799
v 0.4005502 4.29571 0.5631676
v 0.05843456 5.161913 -0.07769835
v -0.01363064 5.602562 0.1317787
v -0.275465 3.56552 -2.601887
v -0.09598059 4.395245 -0.3496023
v -0.1546676 7.074161 0.1252526
v 0.1510415 7.44681 0.02073809
v -2.565901 6.258064 1.722548
v -0.4860713 6.428028 0.5230478
v 0.1437688 6.999117 -0.09008724
v -0.007080768 7.390817 0.02215104
v 1.258546 5.592319 -2.036196
v 0.1633471 6.328564 -0.3764873
v -0.1149376 9.198686 -0.03922769
v -0.01337672 9.653197 0.1230908
v -2.010512 7.554882 -1.693361
v -0.4600715 8.447343 -0.08304828
v -0.007244142 9.326726 0.2779293
v 0.04386315 9.7173 -0.01886849
v 0.4093294 8.302306 3.072287
v 0.1829413 8.640229 0.6999729
v -0.04146822 2.738964 0.1920203
v -0.9886169 1.8701 2.02237
v 0.1753512 3.133242 -0.009922088
v -0.1296214 2.017378 0.5883791
v 0.06086287 5.013865 0.3298563
v 1.980737 3.836672 2.319799
v -0.04062128 5.410986 0.05556254
v 0.4005502 4.29571 0.5631676
v 0.05843456 5.161913 -0.07769835
v -0.275465 3.56552 -2.601887
v -0.01363064 5.602562 0.1317787
v -0.09598059 4.395245 -0.3496023
v -0.1546676 7.074161 0.1252526
v -2.565901 6.258064 1.722548
v 0.1510415 7.44681 0.02073809
v -0.4860713 6.428028 0.5230478
v 0.1437688 6.999117 -0.09008724
v 1.258546 5.592319 -2.036196
v -0.007080768 7.390817 0.02215104
v 0.1633471 6.328564 -0.3764873
v -0.1149376 9.198686 -0.03922769
v -2.010512 7.554882 -1.693361
v -0.01337672 9.653197 0.1230908
v -0.4600715 8.447343 -0.08304828
v -0.007244142 9.326726 0.2779293
v 0.4093294 8.302306 3.072287
v 0.04386315 9.7173 -0.01886849
v 0.1829413 8.640229 0.6999729
v -0.7608995 10.36044 1.125321
v -2.972186 11.57432 2.589994
v -0.2411271 10.70937 0.3411295
v 0.2145318 10.92739 0.02161832
v -0.7608995 10.36044 1.125321
v -0.2411271 10.70937 0.3411295
v -2.972186 11.57432 2.589994
v 0.2145318 10.92739 0.02161832
v -0.09564871 5.061844 0.02497989
v 0.1386504 5.473125 0.1635424
v -2.790347 3.783173 -0.3425648
v -0.4850483 4.333046 0.07772322
v 0.1548629 6.976057 0.1772562
v 0.1947316 7.401443 -0.06911807
v 0.9400053 5.51322 2.682283
v 0.3416156 6.220922 0.4609101
v 0.1576479 9.229545 0.07538781
v -0.1367645 9.724119 -0.05382769
v 3.393201 7.663885 0.08662776
v 0.6009173 8.352187 -0.04503423
v -0.09564871 5.061844 0.02497989
v -2.790347 3.783173 -0.3425648
v 0.1386504 5.473125 0.1635424
v -0.4850483 4.333046 0.07772322
v 0.1548629 6.976057 0.1772562
v 0.9400053 5.51322 2.682283
v 0.1947316 7.401443 -0.06911807
v 0.3416156 6.220922 0.4609101
v 0.1576479 9.229545 0.07538781
v 3.393201 7.663885 0.08662776
v -0.1367645 9.724119 -0.05382769
v 0.6009173 8.352187 -0.04503423
v -0.4775286 10.73707 -1.029101
v -0.1793402 10.03951 -4.580531
v 0.05300994 11.63629 -0.3431219
v 0.1226309 12.25096 0.07048722
v -0.4775286 10.73707 -1.029101
v 0.05300994 11.63629 -0.3431219
v -0.1793402 10.03951 -4.580531
v 0.1226309 12.25096 0.07048722
v -0.3181404 11.67299 -0.00849025
v 0.2608309 12.28067 0.04632694
v -5.330858 10.70736 -0.4643889
v -1.314053 10.75051 0.3802365
v -0.3181404 11.67299 -0.00849025
v -5.330858 10.70736 -0.4643889
v 0.2608309 12.28067 0.04632694
v -1.314053 10.75051 0.3802365
v 0.02405231 16.23364 -0.2524433
v 0.1418815 16.52574 0.03854666
v -1.716066 15.66677 -2.117506
v -0.3265549 15.68114 -0.5526221
v -0.1478983 17.37599 -0.005131003
v 0.237985 17.72493 -0.05599474
v -3.08048 16.89673 1.141863
v -0.658996 16.75802 0.3512456
v 0.02405231 16.23364 -0.2524433
v -1.716066 15.66677 -2.117506
v 0.1418815 16.52574 0.03854666
v -0.3265549 15.68114 -0.5526221
v -0.1478983 17.37599 -0.005131003
v -3.08048 16.89673 1.141863
v 0.237985 17.72493 -0.05599474
v -0.658996 16.75802 0.3512456
v -0.2024978 13.99218 -0.1764883
v 0.1882913 14.39918 0.09285439
v -3.364376 13.64519 -2.273115
v -1.0382 13.37294 -0.3173692
v -0.2024978 13.99218 -0.1764883
v -3.364376 13.64519 -2.273115
v 0.1882913 14.39918 0.09285439
v -1.0382 13.37294 -0.3173692
v -0.1262895 19.11485 -0.1159856
v 0.2234975 19.45665 -0.003603833
v -2.271988 18.42253 -1.469928
v -0.6588461 18.46833 -0.02611025
v -0.1262895 19.11485 -0.1159856
v -2.271988 18.42253 -1.469928
v 0.2234975 19.45665 -0.003603833
v -0.6588461 18.46833 -0.02611025
v -0.1596199 14.85503 -0.03274668
v 0.2875811 15.06024 -0.131253
v -2.729254 15.14348 1.599122
v -0.7542734 14.40186 0.3554555
v -0.1596199 14.85503 -0.03274668
v -2.729254 15.14348 1.599122
v 0.2875811 15.06024 -0.131253
v -0.7542734 14.40186 0.3554555
v -0.04378826 13.34469 -0.01565843
v 0.08034825 13.79207 0.1507505
v -2.022175 11.81187 -1.679339
v -0.4253666 12.61157 -0.06563944
v 0.07094469 13.46418 0.3023582
v 0.1402464 13.8547 0.009213268
v 0.4449328 12.3931 3.085231
v 0.2285468 12.76508 0.7170778
v -0.04378826 13.34469 -0.01565843
v -2.022175 11.81187 -1.679339
v 0.08034825 13.79207 0.1507505
v -0.4253666 12.61157 -0.06563944
v 0.07094469 13.46418 0.3023582
v 0.4449328 12.3931 3.085231
v 0.1402464 13.8547 0.009213268
v 0.2285468 12.76508 0.7170778
v 0.2303065 13.36106 0.09833448
v -0.03994935 13.87068 -0.02509882
v 3.385472 11.63914 0.08357666
v 0.6298091 12.46432 -0.03209404
v 0.2303065 13.36106 0.09833448
v 3.385472 11.63914 0.08357666
v -0.03994935 13.87068 -0.02509882
v 0.6298091 12.46432 -0.03209404
v 0.2360699 15.53636 -0.127402
v 0.05767734 15.98374 -0.0212326
v 2.09617 14.00354 -1.922386
v 0.3253959 14.80325 -0.5017304
v -0.09215316 15.65585 -0.04631538
v 0.1922195 16.04637 0.05303915
v -2.898813 14.58478 0.03672093
v -0.5209708 14.95675 0.06738606
v 0.2360699 15.53636 -0.127402
v 2.09617 14.00354 -1.922386
v 0.05767734 15.98374 -0.0212326
v 0.3253959 14.80325 -0.5017304
v -0.09215316 15.65585 -0.04631538
v -2.898813 14.58478 0.03672093
v 0.1922195 16.04637 0.05303915
v -0.5209708 14.95675 0.06738606
v 0.07627121 15.52952 0.206671
v 0.2270946 16.03914 -0.04932368
v -0.2366196 13.80761 3.346299
v 0.1645083 14.63278 0.6175528
v 0.07627121 15.52952 0.206671
v -0.2366196 13.80761 3.346299
v 0.2270946 16.03914 -0.04932368
v 0.1645083 14.63278 0.6175528
v 0.2624703 19.86199 -0.520769
v 1.230041 19.65501 -1.722477
v 0.262116 20.38085 -0.1571939
v 0.1857538 20.67361 0.03210267
v 0.2624703 19.86199 -0.520769
v 0.262116 20.38085 -0.1571939
v 1.230041 19.65501 -1.722477
v 0.1857538 20.67361 0.03210267
v 0.4766113 21.22732 0.09619939
v 1.005932 20.87008 1.110788
v 0.2917368 21.67425 0.03159761
v 0.220857 21.92544 -0.05454152
v 0.4766113 21.22732 0.09619939
v 0.2917368 21.67425 0.03159761
v 1.005932 20.87008 1.110788
v 0.220857 21.92544 -0.05454152

vn -0.777832 -0.05743408 0.6259766
vn -0.675293 0.2324219 0.699707
vn -0.6196289 0.3356934 0.7094727
vn -0.7983398 -0.1831055 0.5737305
vn 0.4599609 0.276123 0.84375
vn 0.4846191 0.3781738 0.7885742
vn 0.3671875 -0.0004272461 0.9301758
vn 0.3037109 -0.1489258 0.940918
vn 0.130249 0.1971436 -0.9716797
vn 0.06323242 0.2932129 -0.9541016
vn 0.2922363 -0.05969238 -0.9545898
vn 0.3681641 -0.1953125 -0.9091797
vn -0.9580078 0.1641846 0.2352295
vn -0.925293 0.2751465 0.2607422
vn -0.9794922 -0.12854 0.1552734
vn -0.9536133 -0.2807617 0.1065063
vn 0.7172852 0.1552734 -0.6791992
vn 0.6572266 0.2526855 -0.7099609
vn 0.8237305 -0.1022949 -0.5576172
vn 0.8500977 -0.2366943 -0.4709473
vn -0.4821777 0.06439209 -0.8735352
vn -0.5327148 0.1627197 -0.8305664
vn -0.3234863 -0.1895752 -0.9272461
vn -0.2258301 -0.3186035 -0.9204102
vn -0.1636963 0.203125 0.965332
vn -0.1181641 0.3103027 0.9433594
vn -0.2687988 -0.08221436 0.9594727
vn -0.3151855 -0.2322998 0.9204102
vn 0.675293 -0.2324219 -0.699707
vn 0.777832 0.05743408 -0.6259766
vn 0.6196289 -0.3356934 -0.7094727
vn 0.7983398 0.1831055 -0.5737305
vn -0.4599609 -0.276123 -0.84375
vn -0.3671875 0.0004272461 -0.9301758
vn -0.4846191 -0.3781738 -0.7885742
vn -0.3037109 0.1489258 -0.940918
vn -0.130249 -0.1971436 0.9716797
vn -0.2922363 0.05969238 0.9545898
vn -0.06323242 -0.2932129 0.9541016
vn -0.3681641 0.1953125 0.9091797
vn 0.9580078 -0.1641846 -0.2352295
vn 0.9794922 0.12854 -0.1552734
vn 0.925293 -0.2753906 -0.2607422
vn 0.9536133 0.2807617 -0.1065063
vn -0.7172852 -0.1552734 0.6791992
vn -0.8237305 0.1022949 0.5576172
vn -0.6572266 -0.2526855 0.7099609
vn -0.8500977 0.2366943 0.4709473
vn 0.4821777 -0.06439209 0.8735352
vn 0.3234863 0.1895752 0.9272461
vn 0.5327148 -0.1627197 0.8305664
vn 0.2258301 0.3186035 0.9204102
vn 0.1636963 -0.203125 -0.965332
vn 0.2687988 0.08221436 -0.9594727
vn 0.1181641 -0.3103027 -0.9433594
vn 0.3151855 0.2322998 -0.9204102
vn 0.824707 0.4326172 -0.3637695
vn 0.8930664 0.2866211 -0.347168
vn 0.956543 -0.00567627 -0.2919922
vn 0.9575195 -0.1206055 -0.2626953
vn -0.824707 -0.4326172 0.3637695
vn -0.956543 0.00567627 0.2919922
vn -0.8930664 -0.2866211 0.347168
vn -0.9575195 0.1206055 0.2626953
vn -0.8901367 0.2327881 -0.3913574
vn -0.8823242 0.3344727 -0.3310547
vn -0.8540039 -0.04095459 -0.519043
vn -0.8017578 -0.1864014 -0.5678711
vn 0.05157471 0.2440186 0.9682617
vn 0.1091919 0.3415527 0.9335938
vn -0.09814453 -0.01940918 0.9951172
vn -0.1748047 -0.1601563 0.9716797
vn 0.9345703 0.2365723 0.2653809
vn 0.918457 0.3376465 0.2055664
vn 0.9160156 -0.03546143 0.4001465
vn 0.8710938 -0.1801758 0.4572754
vn 0.8901367 -0.2327881 0.3913574
vn 0.8540039 0.04095459 0.519043
vn 0.8823242 -0.3344727 0.3310547
vn 0.8017578 0.1864014 0.5678711
vn -0.05157471 -0.2440186 -0.9682617
vn 0.09814453 0.01940918 -0.9951172
vn -0.1091919 -0.3415527 -0.9335938
vn 0.1748047 0.1601563 -0.9716797
vn -0.9345703 -0.2365723 -0.2653809
vn -0.9160156 0.03546143 -0.4001465
vn -0.918457 -0.3376465 -0.2055664
vn -0.8710938 0.1801758 -0.4572754
vn -0.4665527 0.5996094 0.6503906
vn -0.4533691 0.4755859 0.7539063
vn -0.3967285 0.2111816 0.8935547
vn -0.3642578 0.1017456 0.9257813
vn 0.4665527 -0.5996094 -0.6503906
vn 0.3967285 -0.2111816 -0.8935547
vn 0.4533691 -0.4755859 -0.7539063
vn 0.3642578 -0.1017456 -0.9257813
vn -0.8706055 -0.1119385 -0.4794922
vn -0.8867188 0.004272461 -0.4626465
vn -0.7734375 -0.4001465 -0.4912109
vn -0.6923828 -0.5395508 -0.4790039
vn 0.8706055 0.1119385 0.4794922
vn 0.7734375 0.4001465 0.4912109
vn 0.8867188 -0.004272461 0.4626465
vn 0.6923828 0.5395508 0.4790039
vn -0.4001465 0.3354492 -0.8530273
vn -0.4055176 0.4416504 -0.800293
vn -0.3605957 0.04428101 -0.9316406
vn -0.3256836 -0.1137085 -0.9384766
vn -0.9814453 0.1907959 0.01094818
vn -0.9521484 0.3041992 0.02877808
vn -0.9931641 -0.1096802 -0.03500366
vn -0.9619141 -0.2668457 -0.05834961
vn 0.4001465 -0.3354492 0.8530273
vn 0.3605957 -0.04428101 0.9316406
vn 0.4055176 -0.4416504 0.800293
vn 0.3256836 0.1137085 0.9384766
vn 0.9814453 -0.1907959 -0.01094818
vn 0.9931641 0.1096802 0.03500366
vn 0.9521484 -0.3041992 -0.02877808
vn 0.9619141 0.2668457 0.05834961
vn -0.5498047 -0.09454346 -0.8295898
vn -0.5615234 0.02337646 -0.8271484
vn -0.486084 -0.3881836 -0.7832031
vn -0.4331055 -0.53125 -0.7280273
vn 0.5498047 0.09454346 0.8295898
vn 0.486084 0.3881836 0.7832031
vn 0.5615234 -0.02340698 0.8271484
vn 0.4331055 0.53125 0.7280273
vn -0.4370117 -0.4003906 -0.8051758
vn -0.4614258 -0.3491211 -0.8154297
vn -0.3776855 -0.5092773 -0.7734375
vn -0.3520508 -0.5507813 -0.7568359
vn 0.4370117 0.4003906 0.8051758
vn 0.3776855 0.5092773 0.7734375
vn 0.4614258 0.3491211 0.8154297
vn 0.3520508 0.5507813 0.7568359
vn -0.8935547 0.4333496 0.1159058
vn -0.8383789 0.5361328 0.09625244
vn -0.9770508 0.1437988 0.1584473
vn -0.984375 -0.01712036 0.175293
vn 0.8935547 -0.4333496 -0.1159058
vn 0.9770508 -0.1437988 -0.1584473
vn 0.8383789 -0.5361328 -0.09625244
vn 0.984375 0.01712036 -0.175293
vn -0.4833984 0.04150391 -0.8745117
vn -0.5307617 0.1429443 -0.8354492
vn -0.3317871 -0.21875 -0.9174805
vn -0.237915 -0.3500977 -0.9057617
vn -0.1544189 0.2474365 0.956543
vn -0.1060791 0.3522949 0.9296875
vn -0.2675781 -0.03491211 0.9628906
vn -0.3181152 -0.1851807 0.9296875
vn 0.4833984 -0.04150391 0.8745117
vn 0.3317871 0.21875 0.9174805
vn 0.5307617 -0.1429443 0.8354492
vn 0.237915 0.3500977 0.9057617
vn 0.1544189 -0.2474365 -0.956543
vn 0.2675781 0.03491211 -0.9628906
vn 0.1060791 -0.3522949 -0.9296875
vn 0.3181152 0.1851807 -0.9296875
vn 0.9418945 0.2213135 0.2529297
vn 0.9282227 0.3203125 0.1890869
vn 0.9160156 -0.04428101 0.3989258
vn 0.8671875 -0.1851807 0.4621582
vn -0.9418945 -0.2213135 -0.2529297
vn -0.9160156 0.04428101 -0.3989258
vn -0.9282227 -0.3203125 -0.1890869
vn -0.8671875 0.1851807 -0.4621582
vn 0.9199219 0.04150391 -0.3898926
vn 0.8857422 0.1429443 -0.4411621
vn 0.9472656 -0.21875 -0.2348633
vn 0.9257813 -0.3500977 -0.1425781
vn -0.9355469 0.2474365 -0.2529297
vn -0.9140625 0.3522949 -0.2020264
vn -0.9301758 -0.03491211 -0.3659668
vn -0.8916016 -0.1851807 -0.4128418
vn -0.9199219 -0.04150391 0.3898926
vn -0.9472656 0.21875 0.2348633
vn -0.8857422 -0.1429443 0.4411621
vn -0.9257813 0.3500977 0.1425781
vn 0.9355469 -0.2474365 0.2529297
vn 0.9301758 0.03491211 0.3659668
vn 0.9140625 -0.3522949 0.2020264
vn 0.8916016 0.1851807 0.4128418
vn -0.3493652 0.2213135 0.9106445
vn -0.2844238 0.3203125 0.9038086
vn -0.4919434 -0.04428101 0.8696289
vn -0.5498047 -0.1851807 0.8144531
vn 0.3493652 -0.2213135 -0.9106445
vn 0.4919434 0.04428101 -0.8696289
vn 0.2844238 -0.3203125 -0.9038086
vn 0.5498047 0.1851807 -0.8144531
vn -0.8188477 0.4272461 0.3835449
vn -0.8300781 0.364502 0.4223633
vn -0.8383789 0.2202148 0.4985352
vn -0.8354492 0.15979 0.5258789
vn 0.8188477 -0.4272461 -0.3835449
vn 0.8383789 -0.2202148 -0.4985352
vn 0.8300781 -0.364502 -0.4223633
vn 0.8354492 -0.15979 -0.5258789
vn 0.01329041 0.3144531 -0.9492188
vn -0.02798462 0.2546387 -0.9667969
vn -0.1174316 0.1193848 -0.9858398
vn -0.1530762 0.06329346 -0.9863281
vn -0.01329041 -0.3144531 0.9492188
vn 0.1174316 -0.1193848 0.9858398
vn 0.02798462 -0.2546387 0.9667969
vn 0.1530762 -0.06329346 0.9863281

vt 0.8422852 0.7006836
vt 0.9926758 0.2159424
vt 0.9921875 0.08068848
vt 0.9970703 0.3566895
vt 0.9926758 0.2159424
vt 0.9921875 0.08068848
vt 0.8422852 0.7006836
vt 0.9970703 0.3566895
vt 0.9926758 0.2159424
vt 0.9921875 0.08068848
vt 0.8422852 0.7006836
vt 0.9970703 0.3566895
vt 0.9926758 0.2159424
vt 0.9921875 0.08068848
vt 0.8422852 0.7006836
vt 0.9970703 0.3566895
vt 0.9926758 0.2159424
vt 0.9921875 0.08068848
vt 0.8422852 0.7006836
vt 0.9970703 0.3566895
vt 0.9926758 0.2159424
vt 0.9921875 0.08068848
vt 0.8422852 0.7006836
vt 0.9970703 0.3566895
vt 0.9926758 0.2159424
vt 0.9921875 0.08068848
vt 0.8422852 0.7006836
vt 0.9970703 0.3566895
vt 0.9926758 0.2159424
vt 0.8422852 0.7006836
vt 0.9921875 0.08068848
vt 0.9970703 0.3566895
vt 0.9926758 0.2159424
vt 0.8422852 0.7006836
vt 0.9921875 0.08068848
vt 0.9970703 0.3566895
vt 0.9926758 0.2159424
vt 0.8422852 0.7006836
vt 0.9921875 0.08068848
vt 0.9970703 0.3566895
vt 0.9926758 0.2159424
vt 0.8422852 0.7006836
vt 0.9921875 0.08068848
vt 0.9970703 0.3566895
vt 0.9926758 0.2159424
vt 0.8422852 0.7006836
vt 0.9921875 0.08068848
vt 0.9970703 0.3566895
vt 0.9926758 0.2159424
vt 0.8422852 0.7006836
vt 0.9921875 0.08068848
vt 0.9970703 0.3566895
vt 0.9926758 0.2159424
vt 0.8422852 0.7006836
vt 0.9921875 0.08068848
vt 0.9970703 0.3566895
vt 0.9970703 0.3566895
vt 0.8422852 0.7006836
vt 0.9926758 0.2159424
vt 0.9921875 0.08068848
vt 0.9970703 0.3566895
vt 0.9926758 0.2159424
vt 0.8422852 0.7006836
vt 0.9921875 0.08068848
vt 0.9926758 0.2159424
vt 0.9921875 0.08068848
vt 0.8422852 0.7006836
vt 0.9970703 0.3566895
vt 0.9926758 0.2159424
vt 0.9921875 0.08068848
vt 0.8422852 0.7006836
vt 0.9970703 0.3566895
vt 0.9926758 0.2159424
vt 0.9921875 0.08068848
vt 0.8422852 0.7006836
vt 0.9970703 0.3566895
vt 0.9926758 0.2159424
vt 0.8422852 0.7006836
vt 0.9921875 0.08068848
vt 0.9970703 0.3566895
vt 0.9926758 0.2159424
vt 0.8422852 0.7006836
vt 0.9921875 0.08068848
vt 0.9970703 0.3566895
vt 0.9926758 0.2159424
vt 0.8422852 0.7006836
vt 0.9921875 0.08068848
vt 0.9970703 0.3566895
vt 0.9970703 0.3566895
vt 0.8422852 0.7006836
vt 0.9926758 0.2159424
vt 0.9921875 0.08068848
vt 0.9970703 0.3566895
vt 0.9926758 0.2159424
vt 0.8422852 0.7006836
vt 0.9921875 0.08068848
vt 0.9926758 0.2159424
vt 0.9921875 0.08068848
vt 0.8422852 0.7006836
vt 0.9970703 0.3566895
vt 0.9926758 0.2159424
vt 0.8422852 0.7006836
vt 0.9921875 0.08068848
vt 0.9970703 0.3566895
vt 0.9926758 0.2159424
vt 0.9921875 0.08068848
vt 0.8422852 0.7006836
vt 0.9970703 0.3566895
vt 0.9926758 0.2159424
vt 0.9921875 0.08068848
vt 0.8422852 0.7006836
vt 0.9970703 0.3566895
vt 0.9926758 0.2159424
vt 0.8422852 0.7006836
vt 0.9921875 0.08068848
vt 0.9970703 0.3566895
vt 0.9926758 0.2159424
vt 0.8422852 0.7006836
vt 0.9921875 0.08068848
vt 0.9970703 0.3566895
vt 0.9926758 0.2159424
vt 0.9921875 0.08068848
vt 0.8422852 0.7006836
vt 0.9970703 0.3566895
vt 0.9926758 0.2159424
vt 0.8422852 0.7006836
vt 0.9921875 0.08068848
vt 0.9970703 0.3566895
vt 0.9926758 0.2159424
vt 0.9921875 0.08068848
vt 0.8422852 0.7006836
vt 0.9970703 0.3566895
vt 0.9926758 0.2159424
vt 0.8422852 0.7006836
vt 0.9921875 0.08068848
vt 0.9970703 0.3566895
vt 0.9926758 0.2159424
vt 0.9921875 0.08068848
vt 0.8422852 0.7006836
vt 0.9970703 0.3566895
vt 0.9926758 0.2159424
vt 0.8422852 0.7006836
vt 0.9921875 0.08068848
vt 0.9970703 0.3566895
vt 0.9926758 0.2159424
vt 0.9921875 0.08068848
vt 0.8422852 0.7006836
vt 0.9970703 0.3566895
vt 0.9926758 0.2159424
vt 0.9921875 0.08068848
vt 0.8422852 0.7006836
vt 0.9970703 0.3566895
vt 0.9926758 0.2159424
vt 0.8422852 0.7006836
vt 0.9921875 0.08068848
vt 0.9970703 0.3566895
vt 0.9926758 0.2159424
vt 0.8422852 0.7006836
vt 0.9921875 0.08068848
vt 0.9970703 0.3566895
vt 0.9926758 0.2159424
vt 0.9921875 0.08068848
vt 0.8422852 0.7006836
vt 0.9970703 0.3566895
vt 0.9926758 0.2159424
vt 0.8422852 0.7006836
vt 0.9921875 0.08068848
vt 0.9970703 0.3566895
vt 0.9926758 0.2159424
vt 0.9921875 0.08068848
vt 0.8422852 0.7006836
vt 0.9970703 0.3566895
vt 0.9926758 0.2159424
vt 0.9921875 0.08068848
vt 0.8422852 0.7006836
vt 0.9970703 0.3566895
vt 0.9926758 0.2159424
vt 0.8422852 0.7006836
vt 0.9921875 0.08068848
vt 0.9970703 0.3566895
vt 0.9926758 0.2159424
vt 0.8422852 0.7006836
vt 0.9921875 0.08068848
vt 0.9970703 0.3566895
vt 0.9926758 0.2159424
vt 0.9921875 0.08068848
vt 0.8422852 0.7006836
vt 0.9970703 0.3566895
vt 0.9926758 0.2159424
vt 0.8422852 0.7006836
vt 0.9921875 0.08068848
vt 0.9970703 0.3566895
vt 0.9970703 0.3566895
vt 0.8422852 0.7006836
vt 0.9926758 0.2159424
vt 0.9921875 0.08068848
vt 0.9970703 0.3566895
vt 0.9926758 0.2159424
vt 0.8422852 0.7006836
vt 0.9921875 0.08068848
vt 0.9970703 0.3566895
vt 0.8422852 0.7006836
vt 0.9926758 0.2159424
vt 0.9921875 0.08068848
vt 0.9970703 0.3566895
vt 0.9926758 0.2159424
vt 0.8422852 0.7006836
vt 0.9921875 0.08068848

g MEP_Con_01_h_14504_434
usemtl MEP_Con_01_h_14504_434
usemap MEP_Con_01_h_14504_434
f 1/1/1 3/3/3 2/2/2
f 4/4/4 1/1/1 2/2/2
f 5/5/5 7/7/7 6/6/6
f 8/8/8 7/7/7 5/5/5
f 9/9/9 11/11/11 10/10/10
f 12/12/12 11/11/11 9/9/9
f 13/13/13 15/15/15 14/14/14
f 16/16/16 15/15/15 13/13/13
f 17/17/17 19/19/19 18/18/18
f 20/20/20 19/19/19 17/17/17
f 21/21/21 23/23/23 22/22/22
f 24/24/24 23/23/23 21/21/21
f 25/25/25 27/27/27 26/26/26
f 28/28/28 27/27/27 25/25/25
f 29/29/29 31/31/31 30/30/30
f 32/32/32 29/29/29 30/30/30
f 33/33/33 35/35/35 34/34/34
f 36/36/36 33/33/33 34/34/34
f 37/37/37 39/39/39 38/38/38
f 40/40/40 37/37/37 38/38/38
f 41/41/41 43/43/43 42/42/42
f 44/44/44 41/41/41 42/42/42
f 45/45/45 47/47/47 46/46/46
f 48/48/48 45/45/45 46/46/46
f 49/49/49 51/51/51 50/50/50
f 52/52/52 49/49/49 50/50/50
f 53/53/53 55/55/55 54/54/54
f 56/56/56 53/53/53 54/54/54
f 57/57/57 59/59/59 58/58/58
f 59/59/59 60/60/60 58/58/58
f 61/61/61 63/63/63 62/62/62
f 62/62/62 63/63/63 64/64/64
f 65/65/65 67/67/67 66/66/66
f 68/68/68 67/67/67 65/65/65
f 69/69/69 71/71/71 70/70/70
f 72/72/72 71/71/71 69/69/69
f 73/73/73 75/75/75 74/74/74
f 76/76/76 75/75/75 73/73/73
f 77/77/77 79/79/79 78/78/78
f 80/80/80 77/77/77 78/78/78
f 81/81/81 83/83/83 82/82/82
f 84/84/84 81/81/81 82/82/82
f 85/85/85 87/87/87 86/86/86
f 88/88/88 85/85/85 86/86/86
f 89/89/89 91/91/91 90/90/90
f 91/91/91 92/92/92 90/90/90
f 93/93/93 95/95/95 94/94/94
f 94/94/94 95/95/95 96/96/96
f 97/97/97 99/99/99 98/98/98
f 100/100/100 99/99/99 97/97/97
f 101/101/101 103/103/103 102/102/102
f 104/104/104 101/101/101 102/102/102
f 105/105/105 107/107/107 106/106/106
f 108/108/108 107/107/107 105/105/105
f 109/109/109 111/111/111 110/110/110
f 112/112/112 111/111/111 109/109/109
f 113/113/113 115/115/115 114/114/114
f 116/116/116 113/113/113 114/114/114
f 117/117/117 119/119/119 118/118/118
f 120/120/120 117/117/117 118/118/118
f 121/121/121 123/123/123 122/122/122
f 124/124/124 123/123/123 121/121/121
f 125/125/125 127/127/127 126/126/126
f 128/128/128 125/125/125 126/126/126
f 129/129/129 131/131/131 130/130/130
f 132/132/132 131/131/131 129/129/129
f 133/133/133 135/135/135 134/134/134
f 136/136/136 133/133/133 134/134/134
f 137/137/137 139/139/139 138/138/138
f 140/140/140 139/139/139 137/137/137
f 141/141/141 143/143/143 142/142/142
f 144/144/144 141/141/141 142/142/142
f 145/145/145 147/147/147 146/146/146
f 148/148/148 147/147/147 145/145/145
f 149/149/149 151/151/151 150/150/150
f 152/152/152 151/151/151 149/149/149
f 153/153/153 155/155/155 154/154/154
f 156/156/156 153/153/153 154/154/154
f 157/157/157 159/159/159 158/158/158
f 160/160/160 157/157/157 158/158/158
f 161/161/161 163/163/163 162/162/162
f 164/164/164 163/163/163 161/161/161
f 165/165/165 167/167/167 166/166/166
f 168/168/168 165/165/165 166/166/166
f 169/169/169 171/171/171 170/170/170
f 172/172/172 171/171/171 169/169/169
f 173/173/173 175/175/175 174/174/174
f 176/176/176 175/175/175 173/173/173
f 177/177/177 179/179/179 178/178/178
f 180/180/180 177/177/177 178/178/178
f 181/181/181 183/183/183 182/182/182
f 184/184/184 181/181/181 182/182/182
f 185/185/185 187/187/187 186/186/186
f 188/188/188 187/187/187 185/185/185
f 189/189/189 191/191/191 190/190/190
f 192/192/192 189/189/189 190/190/190
f 193/193/193 195/195/195 194/194/194
f 195/195/195 196/196/196 194/194/194
f 197/197/197 199/199/199 198/198/198
f 198/198/198 199/199/199 200/200/200
f 201/201/201 203/203/203 202/202/202
f 203/203/203 204/204/204 202/202/202
f 205/205/205 207/207/207 206/206/206
f 206/206/206 207/207/207 208/208/208
