#MEP_Con_01_f_LOD_02(Clone)_14772_397.obj

v 1.207705 11.8727 -1.938247
v -1.258473 20.74399 1.482485
v 0.3704647 11.94678 2.309898
v 1.792852 20.68254 -1.119132
v -2.081303 11.88785 -0.7485111
v 1.608247 20.67806 0.7281288
v 2.488728 11.75238 0.9168486
v -1.396132 20.76712 -0.3666942
v -2.139296 6.102907 5.123923
v 2.138243 5.805046 -4.67777
v 1.279156 14.63286 -2.889718
v 0.4644381 14.15287 2.291854
v -4.344389 6.037307 -2.191822
v 4.661175 6.037306 3.58816
v 2.389136 14.78854 1.609282
v -2.410109 14.83608 -1.032893
v 1.207705 11.8727 -1.938247
v 0.3704647 11.94678 2.309898
v -1.258473 20.74399 1.482485
v 1.792852 20.68254 -1.119132
v -2.081303 11.88785 -0.7485111
v 2.488728 11.75238 0.9168486
v 1.608247 20.67806 0.7281288
v -1.396132 20.76712 -0.3666942
v -2.139296 6.102907 5.123923
v 1.279156 14.63286 -2.889718
v 2.138243 5.805046 -4.67777
v 0.4644381 14.15287 2.291854
v -4.344389 6.037307 -2.191822
v 2.389136 14.78854 1.609282
v 4.661175 6.037306 3.58816
v -2.410109 14.83608 -1.032893
v -0.05434095 -0.137548 -0.440769
v 0.2283227 19.82228 0.1680847
v -0.02294772 -0.142512 0.3622093
v 0.4020034 -0.137548 -0.1281546
v 0.2283227 19.82228 0.1680847
v -0.4014022 -0.142512 -0.1097345
v -0.05434095 -0.137548 -0.440769
v -0.02294772 -0.142512 0.3622093
v 0.2283227 19.82228 0.1680847
v 0.4020034 -0.137548 -0.1281546
v -0.4014022 -0.142512 -0.1097345
v 0.2283227 19.82228 0.1680847

vn -0.07415771 -0.1195679 -0.9902344
vn 0.232666 0.02542114 -0.972168
vn -0.2446289 -0.1958008 -0.949707
vn 0.407959 0.1130981 -0.9057617
vn -0.9956055 -0.01394653 0.09338379
vn -0.9956055 -0.01394653 0.09338379
vn -0.9956055 -0.01394653 0.09338379
vn -0.9956055 -0.01394653 0.09338379
vn -0.1218872 0.08380127 -0.9887695
vn -0.03207397 -0.008209229 -0.9995117
vn -0.144165 0.1067505 -0.9838867
vn -0.2963867 0.2648926 -0.9174805
vn 0.9941406 -0.02877808 0.1029663
vn 0.9907227 -0.04998779 0.126709
vn 0.9951172 -0.02337646 0.09686279
vn 0.9980469 0.009307861 0.05996704
vn 0.07415771 0.1195679 0.9902344
vn 0.2446289 0.1958008 0.949707
vn -0.232666 -0.02542114 0.972168
vn -0.407959 -0.1130981 0.9057617
vn 0.9956055 0.01394653 -0.09338379
vn 0.9956055 0.01394653 -0.09338379
vn 0.9956055 0.01394653 -0.09338379
vn 0.9956055 0.01394653 -0.09338379
vn 0.1218872 -0.08380127 0.9887695
vn 0.144165 -0.1067505 0.9838867
vn 0.03207397 0.008209229 0.9995117
vn 0.2963867 -0.2648926 0.9174805
vn -0.9941406 0.02877808 -0.1029663
vn -0.9951172 0.02337646 -0.09686279
vn -0.9907227 0.04998779 -0.126709
vn -0.9980469 -0.009307861 -0.05996704
vn -0.4638672 0.01293945 -0.8857422
vn 0.3059082 0.01965332 -0.9516602
vn -0.4638672 0.01293945 -0.8857422
vn 0.8930664 0.01461792 -0.449707
vn 0.3059082 0.01965332 -0.9516602
vn 0.8930664 0.01461792 -0.449707
vn 0.4638672 -0.01293945 0.8857422
vn 0.4638672 -0.01293945 0.8857422
vn -0.3059082 -0.01965332 0.9516602
vn -0.8930664 -0.01461792 0.449707
vn -0.8930664 -0.01461792 0.449707
vn -0.3059082 -0.01965332 0.9516602

vt 0.001989365 0.007873535
vt 0.7783203 0.996582
vt 0.9863281 0.002599716
vt 0.1824951 0.9921875
vt 0.001989365 0.007873535
vt 0.7783203 0.996582
vt 0.9863281 0.002599716
vt 0.1824951 0.9921875
vt 0.001989365 0.007873535
vt 0.9863281 0.002599716
vt 0.7783203 0.996582
vt 0.1824951 0.9921875
vt 0.001989365 0.007873535
vt 0.9863281 0.002599716
vt 0.7783203 0.996582
vt 0.1824951 0.9921875
vt 0.001989365 0.007873535
vt 0.9863281 0.002599716
vt 0.7783203 0.996582
vt 0.1824951 0.9921875
vt 0.001989365 0.007873535
vt 0.9863281 0.002599716
vt 0.7783203 0.996582
vt 0.1824951 0.9921875
vt 0.001989365 0.007873535
vt 0.7783203 0.996582
vt 0.9863281 0.002599716
vt 0.1824951 0.9921875
vt 0.001989365 0.007873535
vt 0.7783203 0.996582
vt 0.9863281 0.002599716
vt 0.1824951 0.9921875
vt 0.9433594 0.3640137
vt 0.9321289 0.4221191
vt 0.9516602 0.3674316
vt 0.9433594 0.3640137
vt 0.9321289 0.4221191
vt 0.9516602 0.3674316
vt 0.9433594 0.3640137
vt 0.9516602 0.3674316
vt 0.9321289 0.4221191
vt 0.9433594 0.3640137
vt 0.9516602 0.3674316
vt 0.9321289 0.4221191

g MEP_Con_01_f_LOD_02(Clone)_14772_397
usemtl MEP_Con_01_f_LOD_02(Clone)_14772_397
usemap MEP_Con_01_f_LOD_02(Clone)_14772_397
f 1/1/1 3/3/3 2/2/2
f 4/4/4 1/1/1 2/2/2
f 5/5/5 7/7/7 6/6/6
f 8/8/8 5/5/5 6/6/6
f 9/9/9 11/11/11 10/10/10
f 12/12/12 11/11/11 9/9/9
f 13/13/13 15/15/15 14/14/14
f 16/16/16 15/15/15 13/13/13
f 17/17/17 19/19/19 18/18/18
f 20/20/20 19/19/19 17/17/17
f 21/21/21 23/23/23 22/22/22
f 24/24/24 23/23/23 21/21/21
f 25/25/25 27/27/27 26/26/26
f 28/28/28 25/25/25 26/26/26
f 29/29/29 31/31/31 30/30/30
f 32/32/32 29/29/29 30/30/30
f 33/33/33 35/35/35 34/34/34
f 36/36/36 38/38/38 37/37/37
f 39/39/39 41/41/41 40/40/40
f 42/42/42 44/44/44 43/43/43
