#MEP_ConTrunk_01_d_11618_34.obj

v 0.0009279581 -0.251342 0.635764
v -0.5480779 -0.251342 0.3187962
v 0.0001563107 0.516072 0.37135
v -0.3194502 0.507429 0.1860666
v -0.08488494 10.50702 0.409861
v 0.1915678 10.509 0.4220593
v -0.1888346 10.46097 0.1322795
v 0.3343776 31.1316 -0.04991135
v 0.3343776 31.1316 -0.04991135
v -0.5480759 -0.251342 -0.3151136
v 0.00168228 0.499974 -0.3677199
v -0.3187232 0.499378 -0.1834693
v 0.0009065036 -0.251342 -0.6320725
v 0.1017 10.44951 -0.09536045
v -0.1888346 10.46097 0.1322795
v 0.3343776 31.1316 -0.04991135
v -0.5480779 -0.251342 0.3187962
v -0.3187232 0.499378 -0.1834693
v -0.3194502 0.507429 0.1860666
v -0.5480759 -0.251342 -0.3151136
v -0.1888346 10.46097 0.1322795
v 0.5499123 -0.251342 -0.3151048
v 0.321327 0.508617 -0.1823837
v 0.0009065036 -0.251342 -0.6320725
v 0.00168228 0.499974 -0.3677199
v 0.1017 10.44951 -0.09536045
v 0.3622927 10.50174 0.1512451
v 0.3343776 31.1316 -0.04991135
v 0.5499123 -0.251342 -0.3151048
v 0.5499103 -0.251342 0.3188051
v 0.321327 0.508617 -0.1823837
v 0.320528 0.516666 0.1871503
v 0.0009279581 -0.251342 0.635764
v 0.0001563107 0.516072 0.37135
v 0.1915678 10.509 0.4220593
v 0.3622927 10.50174 0.1512451
v 0.3343776 31.1316 -0.04991135

vn -0.7875977 0.3254395 0.5229492
vn -0.8452148 0.3288574 -0.4216309
vn -0.8232422 0.168335 0.5419922
vn -0.8774414 0.1781006 -0.4458008
vn -0.9990234 0.01809692 -0.04116821
vn -0.4841309 0.006835938 0.875
vn -0.3110352 0.0249939 -0.9501953
vn 0.01609802 1 -0.006111145
vn 0.01609802 1 -0.006111145
vn -0.0592041 0.3325195 -0.9414063
vn 0.8164063 0.1922607 -0.5444336
vn -0.056427 0.1900635 -0.9799805
vn 0.7856445 0.3310547 -0.5229492
vn 0.8574219 0.01980591 -0.5146484
vn -0.3110352 0.0249939 -0.9501953
vn 0.01609802 1 -0.006111145
vn -0.8452148 0.3288574 -0.4216309
vn -0.056427 0.1900635 -0.9799805
vn -0.8774414 0.1781006 -0.4458008
vn -0.0592041 0.3325195 -0.9414063
vn -0.3110352 0.0249939 -0.9501953
vn 0.8461914 0.3286133 0.4199219
vn 0.8828125 0.1802979 0.4338379
vn 0.7856445 0.3310547 -0.5229492
vn 0.8164063 0.1922607 -0.5444336
vn 0.8574219 0.01980591 -0.5146484
vn 0.6489258 0.005493164 0.7607422
vn 0.01609802 1 -0.006111145
vn 0.8461914 0.3286133 0.4199219
vn 0.05996704 0.326416 0.9433594
vn 0.8828125 0.1802979 0.4338379
vn 0.06304932 0.1682129 0.9838867
vn -0.7875977 0.3254395 0.5229492
vn -0.8232422 0.168335 0.5419922
vn -0.4841309 0.006835938 0.875
vn 0.6489258 0.005493164 0.7607422
vn 0.01609802 1 -0.006111145

vt 0.333252 0.003404617
vt 0.166748 0.003404617
vt 0.333252 0.2583008
vt 0.166748 0.2575684
vt 0.166748 2.923828
vt 0.333252 2.925781
vt 5.799532E-05 2.923828
vt 0.166748 6.832031
vt 5.799532E-05 6.832031
vt 1 0.003404617
vt 0.8334961 0.2558594
vt 1 0.2563477
vt 0.8334961 0.003404617
vt 0.7290039 2.921875
vt 1 2.923828
vt 0.8334961 6.832031
vt 0.166748 0.003404617
vt 5.799532E-05 0.2563477
vt 0.166748 0.2575684
vt 5.799532E-05 0.003404617
vt 5.799532E-05 2.923828
vt 0.6665039 0.003404617
vt 0.6665039 0.2563477
vt 0.8334961 0.003404617
vt 0.8334961 0.2558594
vt 0.7290039 2.921875
vt 0.5 2.923828
vt 0.5 6.832031
vt 0.6665039 0.003404617
vt 0.5 0.003404617
vt 0.6665039 0.2563477
vt 0.5 0.2575684
vt 0.333252 0.003404617
vt 0.333252 0.2583008
vt 0.333252 2.925781
vt 0.5 2.923828
vt 0.333252 6.832031

g MEP_ConTrunk_01_d_11618_34
usemtl MEP_ConTrunk_01_d_11618_34
usemap MEP_ConTrunk_01_d_11618_34
f 1/1/1 3/3/3 2/2/2
f 3/3/3 4/4/4 2/2/2
f 4/4/4 3/3/3 5/5/5
f 3/3/3 6/6/6 5/5/5
f 4/4/4 5/5/5 7/7/7
f 6/6/6 8/8/8 5/5/5
f 5/5/5 9/9/9 7/7/7
f 10/10/10 12/12/12 11/11/11
f 13/13/13 10/10/10 11/11/11
f 11/11/11 12/12/12 14/14/14
f 12/12/12 15/15/15 14/14/14
f 15/15/15 16/16/16 14/14/14
f 17/17/17 19/19/19 18/18/18
f 20/20/20 17/17/17 18/18/18
f 18/18/18 19/19/19 21/21/21
f 22/22/22 24/24/24 23/23/23
f 24/24/24 25/25/25 23/23/23
f 25/25/25 26/26/26 23/23/23
f 23/23/23 26/26/26 27/27/27
f 26/26/26 28/28/28 27/27/27
f 29/29/29 31/31/31 30/30/30
f 31/31/31 32/32/32 30/30/30
f 30/30/30 32/32/32 33/33/33
f 32/32/32 34/34/34 33/33/33
f 34/34/34 32/32/32 35/35/35
f 32/32/32 36/36/36 35/35/35
f 32/32/32 31/31/31 36/36/36
f 36/36/36 37/37/37 35/35/35
