#MEP_ConTrunk_01_f_14852_83.obj

v 0.0009313519 -0.277461 0.6593504
v -0.5684041 -0.277461 0.3306204
v 0.002464994 0.571019 0.3749881
v -0.3262243 0.561558 0.1844302
v -0.08082192 8.782871 0.2618044
v 0.1649098 8.784748 0.2726424
v -0.1732373 8.739295 0.01503633
v 0.3012298 20.26084 0.210948
v 0.3012298 20.26084 0.210948
v -0.568408 -0.277461 -0.3267896
v 0.004025951 0.553398 -0.3850738
v -0.3254786 0.552746 -0.1955789
v 0.0009331398 -0.277461 -0.6555024
v 0.08504331 8.728449 -0.1873188
v -0.1732373 8.739295 0.01503633
v 0.3012298 20.26084 0.210948
v -0.5684041 -0.277461 0.3306204
v -0.3254786 0.552746 -0.1955789
v -0.3262243 0.561558 0.1844302
v -0.568408 -0.277461 -0.3267896
v -0.1732373 8.739295 0.01503633
v 0.5702781 -0.277461 -0.3268053
v 0.3327357 0.562858 -0.1944885
v 0.0009331398 -0.277461 -0.6555024
v 0.004025951 0.553398 -0.3850738
v 0.08504331 8.728449 -0.1873188
v 0.3166983 8.777877 0.03190346
v 0.3012298 20.26084 0.210948
v 0.5702781 -0.277461 -0.3268053
v 0.5702875 -0.277461 0.3306348
v 0.3327357 0.562858 -0.1944885
v 0.3319355 0.57167 0.1855615
v 0.0009313519 -0.277461 0.6593504
v 0.002464994 0.571019 0.3749881
v 0.1649098 8.784748 0.2726424
v 0.3166983 8.777877 0.03190346
v 0.3012298 20.26084 0.210948

vn -0.1706543 0.3173828 0.9326172
vn -0.8925781 0.3193359 0.3188477
vn -0.1801758 0.1719971 0.9682617
vn -0.9296875 0.1781006 0.3227539
vn -0.7265625 0.02322388 0.6870117
vn 0.2956543 0.006652832 0.9550781
vn -0.8969727 0.03915405 -0.4406738
vn 0.01747131 0.9995117 0.01496887
vn 0.01747131 0.9995117 0.01496887
vn -0.7246094 0.3156738 -0.6123047
vn 0.1750488 0.1777344 -0.9682617
vn -0.7460938 0.1810303 -0.640625
vn 0.1690674 0.3085938 -0.9360352
vn 0.2216797 0.03442383 -0.9746094
vn -0.8969727 0.03915405 -0.4406738
vn 0.01747131 0.9995117 0.01496887
vn -0.8925781 0.3193359 0.3188477
vn -0.7460938 0.1810303 -0.640625
vn -0.9296875 0.1781006 0.3227539
vn -0.7246094 0.3156738 -0.6123047
vn -0.8969727 0.03915405 -0.4406738
vn 0.8964844 0.3078613 -0.3190918
vn 0.9267578 0.1693115 -0.3352051
vn 0.1690674 0.3085938 -0.9360352
vn 0.1750488 0.1777344 -0.9682617
vn 0.2216797 0.03442383 -0.9746094
vn 0.9985352 0.01202393 0.05224609
vn 0.01747131 0.9995117 0.01496887
vn 0.8964844 0.3078613 -0.3190918
vn 0.7231445 0.3127441 0.6157227
vn 0.9267578 0.1693115 -0.3352051
vn 0.7524414 0.1663818 0.637207
vn -0.1706543 0.3173828 0.9326172
vn -0.1801758 0.1719971 0.9682617
vn 0.2956543 0.006652832 0.9550781
vn 0.9985352 0.01202393 0.05224609
vn 0.01747131 0.9995117 0.01496887

vt 0.333252 0.003404617
vt 0.166748 0.003404617
vt 0.333252 0.2583008
vt 0.166748 0.2575684
vt 0.166748 2.626953
vt 0.333252 2.626953
vt 5.799532E-05 2.625
vt 0.166748 6.253906
vt 5.799532E-05 6.253906
vt 1 0.003404617
vt 0.8334961 0.2558594
vt 1 0.2563477
vt 0.8334961 0.003404617
vt 0.7290039 2.625
vt 1 2.625
vt 0.8334961 6.253906
vt 0.166748 0.003404617
vt 5.799532E-05 0.2563477
vt 0.166748 0.2575684
vt 5.799532E-05 0.003404617
vt 5.799532E-05 2.625
vt 0.6665039 0.003404617
vt 0.6665039 0.2563477
vt 0.8334961 0.003404617
vt 0.8334961 0.2558594
vt 0.7290039 2.625
vt 0.5 2.626953
vt 0.5 6.253906
vt 0.6665039 0.003404617
vt 0.5 0.003404617
vt 0.6665039 0.2563477
vt 0.5 0.2575684
vt 0.333252 0.003404617
vt 0.333252 0.2583008
vt 0.333252 2.626953
vt 0.5 2.626953
vt 0.333252 6.253906

g MEP_ConTrunk_01_f_14852_83
usemtl MEP_ConTrunk_01_f_14852_83
usemap MEP_ConTrunk_01_f_14852_83
f 1/1/1 3/3/3 2/2/2
f 3/3/3 4/4/4 2/2/2
f 4/4/4 3/3/3 5/5/5
f 3/3/3 6/6/6 5/5/5
f 4/4/4 5/5/5 7/7/7
f 6/6/6 8/8/8 5/5/5
f 5/5/5 9/9/9 7/7/7
f 10/10/10 12/12/12 11/11/11
f 13/13/13 10/10/10 11/11/11
f 11/11/11 12/12/12 14/14/14
f 12/12/12 15/15/15 14/14/14
f 15/15/15 16/16/16 14/14/14
f 17/17/17 19/19/19 18/18/18
f 20/20/20 17/17/17 18/18/18
f 18/18/18 19/19/19 21/21/21
f 22/22/22 24/24/24 23/23/23
f 24/24/24 25/25/25 23/23/23
f 25/25/25 26/26/26 23/23/23
f 23/23/23 26/26/26 27/27/27
f 26/26/26 28/28/28 27/27/27
f 29/29/29 31/31/31 30/30/30
f 31/31/31 32/32/32 30/30/30
f 30/30/30 32/32/32 33/33/33
f 32/32/32 34/34/34 33/33/33
f 34/34/34 32/32/32 35/35/35
f 32/32/32 36/36/36 35/35/35
f 32/32/32 31/31/31 36/36/36
f 36/36/36 37/37/37 35/35/35
