#MEP_ConTrunk_01_f_14952_145.obj

v 0.0009572785 -0.277461 0.6593463
v -0.5683913 -0.277461 0.3306283
v 0.002481614 0.571019 0.3749909
v -0.3262188 0.561558 0.1844219
v -0.08080427 8.782871 0.261797
v 0.1649314 8.784748 0.2726295
v -0.173229 8.739295 0.01502649
v 0.3012516 20.26084 0.2109536
v 0.3012516 20.26084 0.2109536
v -0.5683898 -0.277461 -0.3267911
v 0.004034486 0.553398 -0.3850693
v -0.3254599 0.552746 -0.1955966
v 0.0009449052 -0.277461 -0.6555192
v 0.0850496 8.728449 -0.1873353
v -0.173229 8.739295 0.01502649
v 0.3012516 20.26084 0.2109536
v -0.5683913 -0.277461 0.3306283
v -0.3254599 0.552746 -0.1955966
v -0.3262188 0.561558 0.1844219
v -0.5683898 -0.277461 -0.3267911
v -0.173229 8.739295 0.01502649
v 0.5702934 -0.277461 -0.3268012
v 0.3327501 0.562858 -0.1944738
v 0.0009449052 -0.277461 -0.6555192
v 0.004034486 0.553398 -0.3850693
v 0.0850496 8.728449 -0.1873353
v 0.3167076 8.777877 0.03189055
v 0.3012516 20.26084 0.2109536
v 0.5702934 -0.277461 -0.3268012
v 0.5702904 -0.277461 0.3306193
v 0.3327501 0.562858 -0.1944738
v 0.3319393 0.57167 0.1855424
v 0.0009572785 -0.277461 0.6593463
v 0.002481614 0.571019 0.3749909
v 0.1649314 8.784748 0.2726295
v 0.3167076 8.777877 0.03189055
v 0.3012516 20.26084 0.2109536

vn -0.5229492 0.3173828 0.7910156
vn -0.9458008 0.3193359 -0.05688477
vn -0.5454102 0.1719971 0.8203125
vn -0.9814453 0.1781006 -0.06787109
vn -0.9375 0.02322388 0.3469238
vn -0.1029053 0.006652832 0.9946289
vn -0.6518555 0.03915405 -0.7573242
vn 0.01019287 0.9995117 0.02062988
vn 0.01019287 0.9995117 0.02062988
vn -0.4265137 0.3156738 -0.8476563
vn 0.5410156 0.1777344 -0.8222656
vn -0.4350586 0.1810303 -0.8818359
vn 0.5229492 0.3085938 -0.7944336
vn 0.5864258 0.03442383 -0.8095703
vn -0.6518555 0.03915405 -0.7573242
vn 0.01019287 0.9995117 0.02062988
vn -0.9458008 0.3193359 -0.05688477
vn -0.4350586 0.1810303 -0.8818359
vn -0.9814453 0.1781006 -0.06787109
vn -0.4265137 0.3156738 -0.8476563
vn -0.6518555 0.03915405 -0.7573242
vn 0.949707 0.3078613 0.05810547
vn 0.9838867 0.1693115 0.0552063
vn 0.5229492 0.3085938 -0.7944336
vn 0.5410156 0.1777344 -0.8222656
vn 0.5864258 0.03442383 -0.8095703
vn 0.8979492 0.01202393 0.4396973
vn 0.01019287 0.9995117 0.02062988
vn 0.949707 0.3078613 0.05810547
vn 0.423584 0.3127441 0.8500977
vn 0.9838867 0.1693115 0.0552063
vn 0.4423828 0.1663818 0.8813477
vn -0.5229492 0.3173828 0.7910156
vn -0.5454102 0.1719971 0.8203125
vn -0.1029053 0.006652832 0.9946289
vn 0.8979492 0.01202393 0.4396973
vn 0.01019287 0.9995117 0.02062988

vt 0.333252 0.003404617
vt 0.166748 0.003404617
vt 0.333252 0.2583008
vt 0.166748 0.2575684
vt 0.166748 2.626953
vt 0.333252 2.626953
vt 5.799532E-05 2.625
vt 0.166748 6.253906
vt 5.799532E-05 6.253906
vt 1 0.003404617
vt 0.8334961 0.2558594
vt 1 0.2563477
vt 0.8334961 0.003404617
vt 0.7290039 2.625
vt 1 2.625
vt 0.8334961 6.253906
vt 0.166748 0.003404617
vt 5.799532E-05 0.2563477
vt 0.166748 0.2575684
vt 5.799532E-05 0.003404617
vt 5.799532E-05 2.625
vt 0.6665039 0.003404617
vt 0.6665039 0.2563477
vt 0.8334961 0.003404617
vt 0.8334961 0.2558594
vt 0.7290039 2.625
vt 0.5 2.626953
vt 0.5 6.253906
vt 0.6665039 0.003404617
vt 0.5 0.003404617
vt 0.6665039 0.2563477
vt 0.5 0.2575684
vt 0.333252 0.003404617
vt 0.333252 0.2583008
vt 0.333252 2.626953
vt 0.5 2.626953
vt 0.333252 6.253906

g MEP_ConTrunk_01_f_14952_145
usemtl MEP_ConTrunk_01_f_14952_145
usemap MEP_ConTrunk_01_f_14952_145
f 1/1/1 3/3/3 2/2/2
f 3/3/3 4/4/4 2/2/2
f 4/4/4 3/3/3 5/5/5
f 3/3/3 6/6/6 5/5/5
f 4/4/4 5/5/5 7/7/7
f 6/6/6 8/8/8 5/5/5
f 5/5/5 9/9/9 7/7/7
f 10/10/10 12/12/12 11/11/11
f 13/13/13 10/10/10 11/11/11
f 11/11/11 12/12/12 14/14/14
f 12/12/12 15/15/15 14/14/14
f 15/15/15 16/16/16 14/14/14
f 17/17/17 19/19/19 18/18/18
f 20/20/20 17/17/17 18/18/18
f 18/18/18 19/19/19 21/21/21
f 22/22/22 24/24/24 23/23/23
f 24/24/24 25/25/25 23/23/23
f 25/25/25 26/26/26 23/23/23
f 23/23/23 26/26/26 27/27/27
f 26/26/26 28/28/28 27/27/27
f 29/29/29 31/31/31 30/30/30
f 31/31/31 32/32/32 30/30/30
f 30/30/30 32/32/32 33/33/33
f 32/32/32 34/34/34 33/33/33
f 34/34/34 32/32/32 35/35/35
f 32/32/32 36/36/36 35/35/35
f 32/32/32 31/31/31 36/36/36
f 36/36/36 37/37/37 35/35/35
