#MEP_Con_01_d_LOD_02(Clone)_13862_369.obj

v -0.08020241 -0.505634 -0.4106887
v 0.2674703 25.89249 0.1725888
v -0.0463663 -0.510988 0.4552837
v 0.4119267 -0.505634 -0.07355233
v 0.2674703 25.89249 0.1725888
v -0.4544917 -0.510988 -0.0536707
v -0.08020241 -0.505634 -0.4106887
v -0.0463663 -0.510988 0.4552837
v 0.2674703 25.89249 0.1725888
v 0.4119267 -0.505634 -0.07355233
v -0.4544917 -0.510988 -0.0536707
v 0.2674703 25.89249 0.1725888
v -1.31216 22.14209 -3.090907
v 0.2952396 22.1108 3.861398
v 1.260255 31.69208 2.40295
v -1.430733 31.06985 -1.938209
v 3.068597 22.20161 0.279827
v -4.062617 22.24152 0.2209149
v -1.393453 31.55883 0.9901279
v 2.110426 31.41819 -0.9953282
v -2.505409 18.03639 6.018262
v 2.951759 18.47284 -6.524158
v 1.613814 25.98559 -3.503529
v 0.753548 25.84997 3.104079
v -4.738581 17.61271 -2.888805
v 5.471859 18.45897 3.430046
v 3.154682 26.49347 2.083198
v -3.677454 25.86773 -1.334001
v -1.31216 22.14209 -3.090907
v 1.260255 31.69208 2.40295
v 0.2952396 22.1108 3.861398
v -1.430733 31.06985 -1.938209
v 3.068597 22.20161 0.279827
v -1.393453 31.55883 0.9901279
v -4.062617 22.24152 0.2209149
v 2.110426 31.41819 -0.9953282
v -2.505409 18.03639 6.018262
v 1.613814 25.98559 -3.503529
v 2.951759 18.47284 -6.524158
v 0.753548 25.84997 3.104079
v -4.738581 17.61271 -2.888805
v 3.154682 26.49347 2.083198
v 5.471859 18.45897 3.430046
v -3.677454 25.86773 -1.334001

vn -0.8334961 0.01226807 -0.5527344
vn -0.1907959 0.01528931 -0.9814453
vn -0.8334961 0.01226807 -0.5527344
vn 0.565918 0.009185791 -0.8242188
vn -0.1907959 0.01528931 -0.9814453
vn 0.565918 0.009185791 -0.8242188
vn 0.8334961 -0.01226807 0.5527344
vn 0.8334961 -0.01226807 0.5527344
vn 0.1907959 -0.01528931 0.9814453
vn -0.565918 -0.009185791 0.8242188
vn -0.565918 -0.009185791 0.8242188
vn 0.1907959 -0.01528931 0.9814453
vn 0.9555664 -0.06695557 0.2875977
vn 0.9145508 -0.1313477 0.3830566
vn 0.9790039 -0.01147461 0.2032471
vn 0.9951172 0.08007813 0.05960083
vn -0.4775391 -0.0151062 0.878418
vn -0.5898438 -0.07977295 0.8037109
vn -0.3054199 0.07446289 0.9492188
vn -0.1013184 0.1693115 0.9804688
vn -0.6044922 0.1546631 -0.7817383
vn -0.5107422 -0.002838135 -0.8598633
vn -0.5844727 0.1181641 -0.8027344
vn -0.6889648 0.3459473 -0.637207
vn 0.9038086 0.0574646 -0.4243164
vn 0.9238281 0.009002686 -0.3828125
vn 0.9077148 0.04794312 -0.4162598
vn 0.8759766 0.1120605 -0.4692383
vn -0.9555664 0.06695557 -0.2875977
vn -0.9790039 0.01147461 -0.2032471
vn -0.9145508 0.1313477 -0.3830566
vn -0.9951172 -0.08007813 -0.05960083
vn 0.4775391 0.0151062 -0.878418
vn 0.3054199 -0.07446289 -0.9492188
vn 0.5898438 0.07977295 -0.8037109
vn 0.1013184 -0.1693115 -0.9804688
vn 0.6044922 -0.1546631 0.7817383
vn 0.5844727 -0.1181641 0.8027344
vn 0.5107422 0.002838135 0.8598633
vn 0.6889648 -0.3459473 0.637207
vn -0.9038086 -0.0574646 0.4243164
vn -0.9077148 -0.04794312 0.4162598
vn -0.9238281 -0.009002686 0.3828125
vn -0.8759766 -0.1120605 0.4692383

vt 0.9433594 0.3640137
vt 0.9321289 0.4221191
vt 0.9516602 0.3674316
vt 0.9433594 0.3640137
vt 0.9321289 0.4221191
vt 0.9516602 0.3674316
vt 0.9433594 0.3640137
vt 0.9516602 0.3674316
vt 0.9321289 0.4221191
vt 0.9433594 0.3640137
vt 0.9516602 0.3674316
vt 0.9321289 0.4221191
vt 0.001989365 0.007873535
vt 0.9863281 0.002599716
vt 0.7783203 0.996582
vt 0.1824951 0.9921875
vt 0.001989365 0.007873535
vt 0.9863281 0.002599716
vt 0.7783203 0.996582
vt 0.1824951 0.9921875
vt 0.001989365 0.007873535
vt 0.9863281 0.002599716
vt 0.7783203 0.996582
vt 0.1824951 0.9921875
vt 0.001989365 0.007873535
vt 0.9863281 0.002599716
vt 0.7783203 0.996582
vt 0.1824951 0.9921875
vt 0.001989365 0.007873535
vt 0.7783203 0.996582
vt 0.9863281 0.002599716
vt 0.1824951 0.9921875
vt 0.001989365 0.007873535
vt 0.7783203 0.996582
vt 0.9863281 0.002599716
vt 0.1824951 0.9921875
vt 0.001989365 0.007873535
vt 0.7783203 0.996582
vt 0.9863281 0.002599716
vt 0.1824951 0.9921875
vt 0.001989365 0.007873535
vt 0.7783203 0.996582
vt 0.9863281 0.002599716
vt 0.1824951 0.9921875

g MEP_Con_01_d_LOD_02(Clone)_13862_369
usemtl MEP_Con_01_d_LOD_02(Clone)_13862_369
usemap MEP_Con_01_d_LOD_02(Clone)_13862_369
f 1/1/1 3/3/3 2/2/2
f 4/4/4 6/6/6 5/5/5
f 7/7/7 9/9/9 8/8/8
f 10/10/10 12/12/12 11/11/11
f 13/13/13 15/15/15 14/14/14
f 16/16/16 15/15/15 13/13/13
f 17/17/17 19/19/19 18/18/18
f 20/20/20 19/19/19 17/17/17
f 21/21/21 23/23/23 22/22/22
f 24/24/24 23/23/23 21/21/21
f 25/25/25 27/27/27 26/26/26
f 28/28/28 27/27/27 25/25/25
f 29/29/29 31/31/31 30/30/30
f 32/32/32 29/29/29 30/30/30
f 33/33/33 35/35/35 34/34/34
f 36/36/36 33/33/33 34/34/34
f 37/37/37 39/39/39 38/38/38
f 40/40/40 37/37/37 38/38/38
f 41/41/41 43/43/43 42/42/42
f 44/44/44 41/41/41 42/42/42
