#MEP_Con_01_h_12649_350.obj

v -0.9886404 1.8701 2.022396
v -0.0414596 2.738964 0.192042
v 0.1753542 3.133242 -0.009913937
v -0.1296213 2.017378 0.5884005
v 0.06087823 5.013865 0.3298859
v -0.04063215 5.410986 0.05557808
v 1.980713 3.836672 2.319811
v 0.4005539 4.29571 0.5631861
v 0.05843468 5.161913 -0.077692
v -0.01363687 5.602562 0.1317979
v -0.2754845 3.565519 -2.601863
v -0.09599816 4.395245 -0.3495893
v -0.1546742 7.07416 0.1252609
v 0.1510343 7.44681 0.02076724
v -2.565907 6.258064 1.722583
v -0.4860768 6.428028 0.5230617
v 0.1437636 6.999117 -0.09008934
v -0.007100895 7.390816 0.02216407
v 1.258533 5.592319 -2.036183
v 0.1633298 6.328564 -0.3764787
v -0.1149428 9.198687 -0.03920974
v -0.0133929 9.653198 0.1231248
v -2.01051 7.554882 -1.69335
v -0.4600967 8.447344 -0.08303092
v -0.007245751 9.326727 0.2779465
v 0.04385063 9.7173 -0.01884882
v 0.4093364 8.302307 3.072312
v 0.1829193 8.64023 0.6999871
v -0.0414596 2.738964 0.192042
v -0.9886404 1.8701 2.022396
v 0.1753542 3.133242 -0.009913937
v -0.1296213 2.017378 0.5884005
v 0.06087823 5.013865 0.3298859
v 1.980713 3.836672 2.319811
v -0.04063215 5.410986 0.05557808
v 0.4005539 4.29571 0.5631861
v 0.05843468 5.161913 -0.077692
v -0.2754845 3.565519 -2.601863
v -0.01363687 5.602562 0.1317979
v -0.09599816 4.395245 -0.3495893
v -0.1546742 7.07416 0.1252609
v -2.565907 6.258064 1.722583
v 0.1510343 7.44681 0.02076724
v -0.4860768 6.428028 0.5230617
v 0.1437636 6.999117 -0.09008934
v 1.258533 5.592319 -2.036183
v -0.007100895 7.390816 0.02216407
v 0.1633298 6.328564 -0.3764787
v -0.1149428 9.198687 -0.03920974
v -2.01051 7.554882 -1.69335
v -0.0133929 9.653198 0.1231248
v -0.4600967 8.447344 -0.08303092
v -0.007245751 9.326727 0.2779465
v 0.4093364 8.302307 3.072312
v 0.04385063 9.7173 -0.01884882
v 0.1829193 8.64023 0.6999871
v -0.7609113 10.36044 1.125329
v -2.972187 11.57432 2.590006
v -0.2411279 10.70937 0.3411519
v 0.2145277 10.92739 0.02163515
v -0.7609113 10.36044 1.125329
v -0.2411279 10.70937 0.3411519
v -2.972187 11.57432 2.590006
v 0.2145277 10.92739 0.02163515
v -0.09566012 5.061844 0.02498353
v 0.1386373 5.473125 0.1635637
v -2.79035 3.783173 -0.3425427
v -0.4850437 4.333046 0.07774145
v 0.1548537 6.976057 0.1772848
v 0.1947342 7.401443 -0.06910253
v 0.9399971 5.51322 2.682295
v 0.3415976 6.220922 0.4609444
v 0.1576375 9.229546 0.07541583
v -0.1367819 9.724119 -0.05382259
v 3.393196 7.663885 0.08665061
v 0.6009101 8.352188 -0.04501248
v -0.09566012 5.061844 0.02498353
v -2.79035 3.783173 -0.3425427
v 0.1386373 5.473125 0.1635637
v -0.4850437 4.333046 0.07774145
v 0.1548537 6.976057 0.1772848
v 0.9399971 5.51322 2.682295
v 0.1947342 7.401443 -0.06910253
v 0.3415976 6.220922 0.4609444
v 0.1576375 9.229546 0.07541583
v 3.393196 7.663885 0.08665061
v -0.1367819 9.724119 -0.05382259
v 0.6009101 8.352188 -0.04501248
v -0.4775478 10.73707 -1.029081
v -0.1793609 10.03951 -4.580509
v 0.05300948 11.63629 -0.3431137
v 0.1226289 12.25096 0.07049751
v -0.4775478 10.73707 -1.029081
v 0.05300948 11.63629 -0.3431137
v -0.1793609 10.03951 -4.580509
v 0.1226289 12.25096 0.07049751
v -0.3181342 11.67299 -0.00847472
v 0.2608312 12.28067 0.0463281
v -5.330858 10.70736 -0.4643738
v -1.314079 10.75051 0.3802606
v -0.3181342 11.67299 -0.00847472
v -5.330858 10.70736 -0.4643738
v 0.2608312 12.28067 0.0463281
v -1.314079 10.75051 0.3802606
v 0.02403661 16.23364 -0.2524345
v 0.141877 16.52574 0.03856946
v -1.716084 15.66677 -2.117495
v -0.3265728 15.68114 -0.552612
v -0.1478864 17.37599 -0.005104411
v 0.2379753 17.72493 -0.05595956
v -3.080477 16.89673 1.141876
v -0.659 16.75801 0.3512729
v 0.02403661 16.23364 -0.2524345
v -1.716084 15.66677 -2.117495
v 0.141877 16.52574 0.03856946
v -0.3265728 15.68114 -0.552612
v -0.1478864 17.37599 -0.005104411
v -3.080477 16.89673 1.141876
v 0.2379753 17.72493 -0.05595956
v -0.659 16.75801 0.3512729
v -0.2025041 13.99219 -0.1764586
v 0.1882872 14.39918 0.0928797
v -3.364393 13.64519 -2.273086
v -1.038205 13.37294 -0.3173597
v -0.2025041 13.99219 -0.1764586
v -3.364393 13.64519 -2.273086
v 0.1882872 14.39918 0.0928797
v -1.038205 13.37294 -0.3173597
v -0.1262896 19.11485 -0.1159799
v 0.2234859 19.45665 -0.003595928
v -2.271988 18.42253 -1.469904
v -0.65886 18.46833 -0.02609091
v -0.1262896 19.11485 -0.1159799
v -2.271988 18.42253 -1.469904
v 0.2234859 19.45665 -0.003595928
v -0.65886 18.46833 -0.02609091
v -0.1596389 14.85503 -0.03273223
v 0.2875876 15.06024 -0.1312297
v -2.729256 15.14348 1.599148
v -0.7542794 14.40186 0.3554753
v -0.1596389 14.85503 -0.03273223
v -2.729256 15.14348 1.599148
v 0.2875876 15.06024 -0.1312297
v -0.7542794 14.40186 0.3554753
v -0.04378064 13.34469 -0.01564616
v 0.08035264 13.79207 0.1507587
v -2.022175 11.81187 -1.679331
v -0.4253877 12.61157 -0.06561753
v 0.07093927 13.46418 0.3023944
v 0.1402459 13.8547 0.009234982
v 0.4449351 12.3931 3.085262
v 0.2285394 12.76508 0.7170917
v -0.04378064 13.34469 -0.01564616
v -2.022175 11.81187 -1.679331
v 0.08035264 13.79207 0.1507587
v -0.4253877 12.61157 -0.06561753
v 0.07093927 13.46418 0.3023944
v 0.4449351 12.3931 3.085262
v 0.1402459 13.8547 0.009234982
v 0.2285394 12.76508 0.7170917
v 0.2302963 13.36106 0.09836449
v -0.03994014 13.87068 -0.02507566
v 3.385449 11.63914 0.08359306
v 0.6297919 12.46432 -0.03205137
v 0.2302963 13.36106 0.09836449
v 3.385449 11.63914 0.08359306
v -0.03994014 13.87068 -0.02507566
v 0.6297919 12.46432 -0.03205137
v 0.2360549 15.53636 -0.1273872
v 0.05767425 15.98374 -0.02120505
v 2.096165 14.00354 -1.922358
v 0.3253971 14.80325 -0.5017287
v -0.0921705 15.65585 -0.0462876
v 0.1922172 16.04637 0.05305729
v -2.898831 14.58478 0.03675212
v -0.5209976 14.95675 0.06738942
v 0.2360549 15.53636 -0.1273872
v 2.096165 14.00354 -1.922358
v 0.05767425 15.98374 -0.02120505
v 0.3253971 14.80325 -0.5017287
v -0.0921705 15.65585 -0.0462876
v -2.898831 14.58478 0.03675212
v 0.1922172 16.04637 0.05305729
v -0.5209976 14.95675 0.06738942
v 0.07624743 15.52952 0.2066834
v 0.2270853 16.03914 -0.04929665
v -0.2366139 13.80761 3.346317
v 0.1645043 14.63278 0.6175537
v 0.07624743 15.52952 0.2066834
v -0.2366139 13.80761 3.346317
v 0.2270853 16.03914 -0.04929665
v 0.1645043 14.63278 0.6175537
v 0.2624698 19.86199 -0.5207716
v 1.230025 19.65501 -1.722448
v 0.2621204 20.38085 -0.1571624
v 0.1857391 20.67361 0.03212997
v 0.2624698 19.86199 -0.5207716
v 0.2621204 20.38085 -0.1571624
v 1.230025 19.65501 -1.722448
v 0.1857391 20.67361 0.03212997
v 0.4765999 21.22732 0.09622094
v 1.005942 20.87008 1.110807
v 0.2917459 21.67425 0.03161981
v 0.2208309 21.92544 -0.05453356
v 0.4765999 21.22732 0.09622094
v 0.2917459 21.67425 0.03161981
v 1.005942 20.87008 1.110807
v 0.2208309 21.92544 -0.05453356

vn -0.6489258 -0.05743408 -0.7587891
vn -0.7197266 0.2324219 -0.6542969
vn -0.7275391 0.3356934 -0.5981445
vn -0.5976563 -0.1831055 -0.7807617
vn -0.8300781 0.276123 0.4846191
vn -0.7739258 0.3781738 0.5078125
vn -0.9189453 -0.0004272461 0.3947754
vn -0.9316406 -0.1489258 0.331543
vn 0.9750977 0.1971436 0.1013184
vn 0.9555664 0.2932129 0.03485107
vn 0.9628906 -0.05969238 0.263916
vn 0.9194336 -0.1953125 0.3410645
vn -0.2636719 0.1641846 -0.9506836
vn -0.2880859 0.2751465 -0.9169922
vn -0.1843262 -0.12854 -0.9746094
vn -0.1347656 -0.2807617 -0.9501953
vn 0.7001953 0.1552734 0.6967773
vn 0.7290039 0.2526855 0.6357422
vn 0.581543 -0.1022949 0.8071289
vn 0.4958496 -0.2366943 0.8354492
vn 0.8588867 0.06439209 -0.5078125
vn 0.8144531 0.1627197 -0.5571289
vn 0.9169922 -0.1895752 -0.3508301
vn 0.9135742 -0.3186035 -0.2531738
vn -0.9697266 0.203125 -0.1348877
vn -0.9462891 0.3103027 -0.09008789
vn -0.9672852 -0.08221436 -0.2402344
vn -0.9291992 -0.2322998 -0.2875977
vn 0.7197266 -0.2324219 0.6542969
vn 0.6489258 0.05743408 0.7587891
vn 0.7275391 -0.3356934 0.5981445
vn 0.5976563 0.1831055 0.7807617
vn 0.8300781 -0.276123 -0.4846191
vn 0.9189453 0.0004272461 -0.3947754
vn 0.7739258 -0.3781738 -0.5078125
vn 0.9316406 0.1489258 -0.331543
vn -0.9750977 -0.1971436 -0.1013184
vn -0.9628906 0.05969238 -0.263916
vn -0.9555664 -0.2932129 -0.03485107
vn -0.9194336 0.1953125 -0.3410645
vn 0.2636719 -0.1641846 0.9506836
vn 0.1843262 0.12854 0.9746094
vn 0.2880859 -0.2753906 0.9169922
vn 0.1347656 0.2807617 0.9501953
vn -0.7001953 -0.1552734 -0.6967773
vn -0.581543 0.1022949 -0.8071289
vn -0.7290039 -0.2526855 -0.6357422
vn -0.4958496 0.2366943 -0.8354492
vn -0.8588867 -0.06439209 0.5078125
vn -0.9169922 0.1895752 0.3508301
vn -0.8144531 -0.1627197 0.5571289
vn -0.9135742 0.3186035 0.2531738
vn 0.9697266 -0.203125 0.1348877
vn 0.9672852 0.08221436 0.2402344
vn 0.9462891 -0.3103027 0.09008789
vn 0.9291992 0.2322998 0.2875977
vn 0.3879395 0.4326172 0.8139648
vn 0.3735352 0.2866211 0.8823242
vn 0.3203125 -0.00567627 0.9472656
vn 0.2910156 -0.1206055 0.9492188
vn -0.3879395 -0.4326172 -0.8139648
vn -0.3203125 0.00567627 -0.9472656
vn -0.3735352 -0.2866211 -0.8823242
vn -0.2910156 0.1206055 -0.9492188
vn 0.3647461 0.2327881 -0.9013672
vn 0.3046875 0.3344727 -0.8916016
vn 0.4934082 -0.04095459 -0.8686523
vn 0.543457 -0.1864014 -0.8183594
vn -0.9663086 0.2440186 0.08032227
vn -0.9296875 0.3415527 0.1368408
vn -0.9975586 -0.01940918 -0.06854248
vn -0.9760742 -0.1601563 -0.145874
vn -0.2374268 0.2365723 0.9418945
vn -0.1782227 0.3376465 0.9243164
vn -0.3728027 -0.03546143 0.9272461
vn -0.4311523 -0.1801758 0.8842773
vn -0.3647461 -0.2327881 0.9013672
vn -0.4934082 0.04095459 0.8686523
vn -0.3046875 -0.3344727 0.8916016
vn -0.543457 0.1864014 0.8183594
vn 0.9663086 -0.2440186 -0.08032227
vn 0.9975586 0.01940918 0.06854248
vn 0.9296875 -0.3415527 -0.1368408
vn 0.9760742 0.1601563 0.145874
vn 0.2374268 -0.2365723 -0.9418945
vn 0.3728027 0.03546143 -0.9272461
vn 0.1782227 -0.3376465 -0.9243164
vn 0.4311523 0.1801758 -0.8842773
vn -0.6640625 0.5996094 -0.4470215
vn -0.7670898 0.4755859 -0.4306641
vn -0.9047852 0.2111816 -0.369873
vn -0.9360352 0.1017456 -0.3366699
vn 0.6640625 -0.5996094 0.4470215
vn 0.9047852 -0.2111816 0.369873
vn 0.7670898 -0.4755859 0.4306641
vn 0.9360352 -0.1017456 0.3366699
vn 0.4533691 -0.1119385 -0.8842773
vn 0.4362793 0.004272461 -0.8999023
vn 0.4680176 -0.4001465 -0.7880859
vn 0.458252 -0.5395508 -0.7060547
vn -0.4533691 0.1119385 0.8842773
vn -0.4680176 0.4001465 0.7880859
vn -0.4362793 -0.004272461 0.8999023
vn -0.458252 0.5395508 0.7060547
vn 0.840332 0.3354492 -0.425293
vn 0.7880859 0.4416504 -0.4291992
vn 0.9204102 0.04428101 -0.3881836
vn 0.9287109 -0.1137085 -0.3535156
vn -0.0401001 0.1907959 -0.980957
vn -0.05703735 0.3041992 -0.9506836
vn 0.005489349 -0.1096802 -0.9941406
vn 0.02975464 -0.2668457 -0.9633789
vn -0.840332 -0.3354492 0.425293
vn -0.9204102 -0.04428101 0.3881836
vn -0.7880859 -0.4416504 0.4291992
vn -0.9287109 0.1137085 0.3535156
vn 0.0401001 -0.1907959 0.980957
vn -0.005489349 0.1096802 0.9941406
vn 0.05703735 -0.3041992 0.9506836
vn -0.02975464 0.2668457 0.9633789
vn 0.8129883 -0.09454346 -0.5742188
vn 0.8100586 0.02337646 -0.5854492
vn 0.7680664 -0.3881836 -0.5087891
vn 0.7148438 -0.53125 -0.4545898
vn -0.8129883 0.09454346 0.5742188
vn -0.7680664 0.3881836 0.5087891
vn -0.8100586 -0.02340698 0.5854492
vn -0.7148438 0.53125 0.4545898
vn 0.7919922 -0.4003906 -0.4606934
vn 0.8017578 -0.3491211 -0.4853516
vn 0.7617188 -0.5092773 -0.4006348
vn 0.7460938 -0.5507813 -0.3745117
vn -0.7919922 0.4003906 0.4606934
vn -0.7617188 0.5092773 0.4006348
vn -0.8017578 0.3491211 0.4853516
vn -0.7460938 0.5507813 0.3745117
vn -0.1424561 0.4333496 -0.8901367
vn -0.1211548 0.5361328 -0.8354492
vn -0.1873779 0.1437988 -0.9716797
vn -0.2044678 -0.01712036 -0.9785156
vn 0.1424561 -0.4333496 0.8901367
vn 0.1873779 -0.1437988 0.9716797
vn 0.1211548 -0.5361328 0.8354492
vn 0.2044678 0.01712036 0.9785156
vn 0.8598633 0.04150391 -0.5092773
vn 0.8193359 0.1429443 -0.5551758
vn 0.9072266 -0.21875 -0.3588867
vn 0.8984375 -0.3500977 -0.2646484
vn -0.9604492 0.2474365 -0.1259766
vn -0.9326172 0.3522949 -0.07836914
vn -0.9702148 -0.03491211 -0.2387695
vn -0.9389648 -0.1851807 -0.2902832
vn -0.8598633 -0.04150391 0.5092773
vn -0.9072266 0.21875 0.3588867
vn -0.8193359 -0.1429443 0.5551758
vn -0.8984375 0.3500977 0.2646484
vn 0.9604492 -0.2474365 0.1259766
vn 0.9702148 0.03491211 0.2387695
vn 0.9326172 -0.3522949 0.07836914
vn 0.9389648 0.1851807 0.2902832
vn -0.2248535 0.2213135 0.9487305
vn -0.161499 0.3203125 0.9335938
vn -0.371582 -0.04428101 0.9272461
vn -0.4362793 -0.1851807 0.8803711
vn 0.2248535 -0.2213135 -0.9487305
vn 0.371582 0.04428101 -0.9272461
vn 0.161499 -0.3203125 -0.9335938
vn 0.4362793 0.1851807 -0.8803711
vn 0.4172363 0.04150391 0.9077148
vn 0.4672852 0.1429443 0.8725586
vn 0.2629395 -0.21875 0.9399414
vn 0.1700439 -0.3500977 0.9208984
vn 0.2250977 0.2474365 -0.9423828
vn 0.1748047 0.3522949 -0.9194336
vn 0.3383789 -0.03491211 -0.9404297
vn 0.3862305 -0.1851807 -0.9038086
vn -0.4172363 -0.04150391 -0.9077148
vn -0.2629395 0.21875 -0.9399414
vn -0.4672852 -0.1429443 -0.8725586
vn -0.1700439 0.3500977 -0.9208984
vn -0.2250977 -0.2474365 0.9423828
vn -0.3383789 0.03491211 0.9404297
vn -0.1748047 -0.3522949 0.9194336
vn -0.3862305 0.1851807 0.9038086
vn -0.9204102 0.2213135 -0.3222656
vn -0.9116211 0.3203125 -0.2575684
vn -0.8837891 -0.04428101 -0.4658203
vn -0.8305664 -0.1851807 -0.5253906
vn 0.9204102 -0.2213135 0.3222656
vn 0.8837891 0.04428101 0.4658203
vn 0.9116211 -0.3203125 0.2575684
vn 0.8305664 0.1851807 0.5253906
vn -0.4077148 0.4272461 -0.8071289
vn -0.4467773 0.364502 -0.8168945
vn -0.5234375 0.2202148 -0.8232422
vn -0.550293 0.15979 -0.8193359
vn 0.4077148 -0.4272461 0.8071289
vn 0.5234375 -0.2202148 0.8232422
vn 0.4467773 -0.364502 0.8168945
vn 0.550293 -0.15979 0.8193359
vn 0.9492188 0.3144531 -0.01490021
vn 0.965332 0.2546387 -0.05667114
vn 0.9819336 0.1193848 -0.1467285
vn 0.9814453 0.06329346 -0.182251
vn -0.9492188 -0.3144531 0.01490021
vn -0.9819336 -0.1193848 0.1467285
vn -0.965332 -0.2546387 0.05667114
vn -0.9814453 -0.06329346 0.182251

vt 0.8422852 0.7006836
vt 0.9926758 0.2159424
vt 0.9921875 0.08068848
vt 0.9970703 0.3566895
vt 0.9926758 0.2159424
vt 0.9921875 0.08068848
vt 0.8422852 0.7006836
vt 0.9970703 0.3566895
vt 0.9926758 0.2159424
vt 0.9921875 0.08068848
vt 0.8422852 0.7006836
vt 0.9970703 0.3566895
vt 0.9926758 0.2159424
vt 0.9921875 0.08068848
vt 0.8422852 0.7006836
vt 0.9970703 0.3566895
vt 0.9926758 0.2159424
vt 0.9921875 0.08068848
vt 0.8422852 0.7006836
vt 0.9970703 0.3566895
vt 0.9926758 0.2159424
vt 0.9921875 0.08068848
vt 0.8422852 0.7006836
vt 0.9970703 0.3566895
vt 0.9926758 0.2159424
vt 0.9921875 0.08068848
vt 0.8422852 0.7006836
vt 0.9970703 0.3566895
vt 0.9926758 0.2159424
vt 0.8422852 0.7006836
vt 0.9921875 0.08068848
vt 0.9970703 0.3566895
vt 0.9926758 0.2159424
vt 0.8422852 0.7006836
vt 0.9921875 0.08068848
vt 0.9970703 0.3566895
vt 0.9926758 0.2159424
vt 0.8422852 0.7006836
vt 0.9921875 0.08068848
vt 0.9970703 0.3566895
vt 0.9926758 0.2159424
vt 0.8422852 0.7006836
vt 0.9921875 0.08068848
vt 0.9970703 0.3566895
vt 0.9926758 0.2159424
vt 0.8422852 0.7006836
vt 0.9921875 0.08068848
vt 0.9970703 0.3566895
vt 0.9926758 0.2159424
vt 0.8422852 0.7006836
vt 0.9921875 0.08068848
vt 0.9970703 0.3566895
vt 0.9926758 0.2159424
vt 0.8422852 0.7006836
vt 0.9921875 0.08068848
vt 0.9970703 0.3566895
vt 0.9970703 0.3566895
vt 0.8422852 0.7006836
vt 0.9926758 0.2159424
vt 0.9921875 0.08068848
vt 0.9970703 0.3566895
vt 0.9926758 0.2159424
vt 0.8422852 0.7006836
vt 0.9921875 0.08068848
vt 0.9926758 0.2159424
vt 0.9921875 0.08068848
vt 0.8422852 0.7006836
vt 0.9970703 0.3566895
vt 0.9926758 0.2159424
vt 0.9921875 0.08068848
vt 0.8422852 0.7006836
vt 0.9970703 0.3566895
vt 0.9926758 0.2159424
vt 0.9921875 0.08068848
vt 0.8422852 0.7006836
vt 0.9970703 0.3566895
vt 0.9926758 0.2159424
vt 0.8422852 0.7006836
vt 0.9921875 0.08068848
vt 0.9970703 0.3566895
vt 0.9926758 0.2159424
vt 0.8422852 0.7006836
vt 0.9921875 0.08068848
vt 0.9970703 0.3566895
vt 0.9926758 0.2159424
vt 0.8422852 0.7006836
vt 0.9921875 0.08068848
vt 0.9970703 0.3566895
vt 0.9970703 0.3566895
vt 0.8422852 0.7006836
vt 0.9926758 0.2159424
vt 0.9921875 0.08068848
vt 0.9970703 0.3566895
vt 0.9926758 0.2159424
vt 0.8422852 0.7006836
vt 0.9921875 0.08068848
vt 0.9926758 0.2159424
vt 0.9921875 0.08068848
vt 0.8422852 0.7006836
vt 0.9970703 0.3566895
vt 0.9926758 0.2159424
vt 0.8422852 0.7006836
vt 0.9921875 0.08068848
vt 0.9970703 0.3566895
vt 0.9926758 0.2159424
vt 0.9921875 0.08068848
vt 0.8422852 0.7006836
vt 0.9970703 0.3566895
vt 0.9926758 0.2159424
vt 0.9921875 0.08068848
vt 0.8422852 0.7006836
vt 0.9970703 0.3566895
vt 0.9926758 0.2159424
vt 0.8422852 0.7006836
vt 0.9921875 0.08068848
vt 0.9970703 0.3566895
vt 0.9926758 0.2159424
vt 0.8422852 0.7006836
vt 0.9921875 0.08068848
vt 0.9970703 0.3566895
vt 0.9926758 0.2159424
vt 0.9921875 0.08068848
vt 0.8422852 0.7006836
vt 0.9970703 0.3566895
vt 0.9926758 0.2159424
vt 0.8422852 0.7006836
vt 0.9921875 0.08068848
vt 0.9970703 0.3566895
vt 0.9926758 0.2159424
vt 0.9921875 0.08068848
vt 0.8422852 0.7006836
vt 0.9970703 0.3566895
vt 0.9926758 0.2159424
vt 0.8422852 0.7006836
vt 0.9921875 0.08068848
vt 0.9970703 0.3566895
vt 0.9926758 0.2159424
vt 0.9921875 0.08068848
vt 0.8422852 0.7006836
vt 0.9970703 0.3566895
vt 0.9926758 0.2159424
vt 0.8422852 0.7006836
vt 0.9921875 0.08068848
vt 0.9970703 0.3566895
vt 0.9926758 0.2159424
vt 0.9921875 0.08068848
vt 0.8422852 0.7006836
vt 0.9970703 0.3566895
vt 0.9926758 0.2159424
vt 0.9921875 0.08068848
vt 0.8422852 0.7006836
vt 0.9970703 0.3566895
vt 0.9926758 0.2159424
vt 0.8422852 0.7006836
vt 0.9921875 0.08068848
vt 0.9970703 0.3566895
vt 0.9926758 0.2159424
vt 0.8422852 0.7006836
vt 0.9921875 0.08068848
vt 0.9970703 0.3566895
vt 0.9926758 0.2159424
vt 0.9921875 0.08068848
vt 0.8422852 0.7006836
vt 0.9970703 0.3566895
vt 0.9926758 0.2159424
vt 0.8422852 0.7006836
vt 0.9921875 0.08068848
vt 0.9970703 0.3566895
vt 0.9926758 0.2159424
vt 0.9921875 0.08068848
vt 0.8422852 0.7006836
vt 0.9970703 0.3566895
vt 0.9926758 0.2159424
vt 0.9921875 0.08068848
vt 0.8422852 0.7006836
vt 0.9970703 0.3566895
vt 0.9926758 0.2159424
vt 0.8422852 0.7006836
vt 0.9921875 0.08068848
vt 0.9970703 0.3566895
vt 0.9926758 0.2159424
vt 0.8422852 0.7006836
vt 0.9921875 0.08068848
vt 0.9970703 0.3566895
vt 0.9926758 0.2159424
vt 0.9921875 0.08068848
vt 0.8422852 0.7006836
vt 0.9970703 0.3566895
vt 0.9926758 0.2159424
vt 0.8422852 0.7006836
vt 0.9921875 0.08068848
vt 0.9970703 0.3566895
vt 0.9970703 0.3566895
vt 0.8422852 0.7006836
vt 0.9926758 0.2159424
vt 0.9921875 0.08068848
vt 0.9970703 0.3566895
vt 0.9926758 0.2159424
vt 0.8422852 0.7006836
vt 0.9921875 0.08068848
vt 0.9970703 0.3566895
vt 0.8422852 0.7006836
vt 0.9926758 0.2159424
vt 0.9921875 0.08068848
vt 0.9970703 0.3566895
vt 0.9926758 0.2159424
vt 0.8422852 0.7006836
vt 0.9921875 0.08068848

g MEP_Con_01_h_12649_350
usemtl MEP_Con_01_h_12649_350
usemap MEP_Con_01_h_12649_350
f 1/1/1 3/3/3 2/2/2
f 4/4/4 1/1/1 2/2/2
f 5/5/5 7/7/7 6/6/6
f 8/8/8 7/7/7 5/5/5
f 9/9/9 11/11/11 10/10/10
f 12/12/12 11/11/11 9/9/9
f 13/13/13 15/15/15 14/14/14
f 16/16/16 15/15/15 13/13/13
f 17/17/17 19/19/19 18/18/18
f 20/20/20 19/19/19 17/17/17
f 21/21/21 23/23/23 22/22/22
f 24/24/24 23/23/23 21/21/21
f 25/25/25 27/27/27 26/26/26
f 28/28/28 27/27/27 25/25/25
f 29/29/29 31/31/31 30/30/30
f 32/32/32 29/29/29 30/30/30
f 33/33/33 35/35/35 34/34/34
f 36/36/36 33/33/33 34/34/34
f 37/37/37 39/39/39 38/38/38
f 40/40/40 37/37/37 38/38/38
f 41/41/41 43/43/43 42/42/42
f 44/44/44 41/41/41 42/42/42
f 45/45/45 47/47/47 46/46/46
f 48/48/48 45/45/45 46/46/46
f 49/49/49 51/51/51 50/50/50
f 52/52/52 49/49/49 50/50/50
f 53/53/53 55/55/55 54/54/54
f 56/56/56 53/53/53 54/54/54
f 57/57/57 59/59/59 58/58/58
f 59/59/59 60/60/60 58/58/58
f 61/61/61 63/63/63 62/62/62
f 62/62/62 63/63/63 64/64/64
f 65/65/65 67/67/67 66/66/66
f 68/68/68 67/67/67 65/65/65
f 69/69/69 71/71/71 70/70/70
f 72/72/72 71/71/71 69/69/69
f 73/73/73 75/75/75 74/74/74
f 76/76/76 75/75/75 73/73/73
f 77/77/77 79/79/79 78/78/78
f 80/80/80 77/77/77 78/78/78
f 81/81/81 83/83/83 82/82/82
f 84/84/84 81/81/81 82/82/82
f 85/85/85 87/87/87 86/86/86
f 88/88/88 85/85/85 86/86/86
f 89/89/89 91/91/91 90/90/90
f 91/91/91 92/92/92 90/90/90
f 93/93/93 95/95/95 94/94/94
f 94/94/94 95/95/95 96/96/96
f 97/97/97 99/99/99 98/98/98
f 100/100/100 99/99/99 97/97/97
f 101/101/101 103/103/103 102/102/102
f 104/104/104 101/101/101 102/102/102
f 105/105/105 107/107/107 106/106/106
f 108/108/108 107/107/107 105/105/105
f 109/109/109 111/111/111 110/110/110
f 112/112/112 111/111/111 109/109/109
f 113/113/113 115/115/115 114/114/114
f 116/116/116 113/113/113 114/114/114
f 117/117/117 119/119/119 118/118/118
f 120/120/120 117/117/117 118/118/118
f 121/121/121 123/123/123 122/122/122
f 124/124/124 123/123/123 121/121/121
f 125/125/125 127/127/127 126/126/126
f 128/128/128 125/125/125 126/126/126
f 129/129/129 131/131/131 130/130/130
f 132/132/132 131/131/131 129/129/129
f 133/133/133 135/135/135 134/134/134
f 136/136/136 133/133/133 134/134/134
f 137/137/137 139/139/139 138/138/138
f 140/140/140 139/139/139 137/137/137
f 141/141/141 143/143/143 142/142/142
f 144/144/144 141/141/141 142/142/142
f 145/145/145 147/147/147 146/146/146
f 148/148/148 147/147/147 145/145/145
f 149/149/149 151/151/151 150/150/150
f 152/152/152 151/151/151 149/149/149
f 153/153/153 155/155/155 154/154/154
f 156/156/156 153/153/153 154/154/154
f 157/157/157 159/159/159 158/158/158
f 160/160/160 157/157/157 158/158/158
f 161/161/161 163/163/163 162/162/162
f 164/164/164 163/163/163 161/161/161
f 165/165/165 167/167/167 166/166/166
f 168/168/168 165/165/165 166/166/166
f 169/169/169 171/171/171 170/170/170
f 172/172/172 171/171/171 169/169/169
f 173/173/173 175/175/175 174/174/174
f 176/176/176 175/175/175 173/173/173
f 177/177/177 179/179/179 178/178/178
f 180/180/180 177/177/177 178/178/178
f 181/181/181 183/183/183 182/182/182
f 184/184/184 181/181/181 182/182/182
f 185/185/185 187/187/187 186/186/186
f 188/188/188 187/187/187 185/185/185
f 189/189/189 191/191/191 190/190/190
f 192/192/192 189/189/189 190/190/190
f 193/193/193 195/195/195 194/194/194
f 195/195/195 196/196/196 194/194/194
f 197/197/197 199/199/199 198/198/198
f 198/198/198 199/199/199 200/200/200
f 201/201/201 203/203/203 202/202/202
f 203/203/203 204/204/204 202/202/202
f 205/205/205 207/207/207 206/206/206
f 206/206/206 207/207/207 208/208/208
