#MEP_Con_01_d_LOD_02(Clone)_14187_382.obj

v -0.08019318 -0.505634 -0.4106973
v 0.2674964 25.89249 0.1725661
v -0.04635834 -0.510988 0.4552805
v 0.4119436 -0.505634 -0.07356252
v 0.2674964 25.89249 0.1725661
v -0.4544755 -0.510988 -0.05368926
v -0.08019318 -0.505634 -0.4106973
v -0.04635834 -0.510988 0.4552805
v 0.2674964 25.89249 0.1725661
v 0.4119436 -0.505634 -0.07356252
v -0.4544755 -0.510988 -0.05368926
v 0.2674964 25.89249 0.1725661
v -1.312157 22.14209 -3.090905
v 0.295254 22.1108 3.861379
v 1.260263 31.69208 2.402935
v -1.430719 31.06985 -1.938222
v 3.068613 22.20161 0.2798168
v -4.062622 22.24152 0.2209172
v -1.393431 31.55883 0.9901069
v 2.110441 31.41819 -0.9953322
v -2.505401 18.03639 6.018255
v 2.951776 18.47284 -6.524169
v 1.613837 25.98559 -3.503542
v 0.7535604 25.84997 3.104072
v -4.738554 17.61271 -2.888827
v 5.471874 18.45897 3.430033
v 3.154675 26.49347 2.0832
v -3.67746 25.86773 -1.333996
v -1.312157 22.14209 -3.090905
v 1.260263 31.69208 2.402935
v 0.295254 22.1108 3.861379
v -1.430719 31.06985 -1.938222
v 3.068613 22.20161 0.2798168
v -1.393431 31.55883 0.9901069
v -4.062622 22.24152 0.2209172
v 2.110441 31.41819 -0.9953322
v -2.505401 18.03639 6.018255
v 1.613837 25.98559 -3.503542
v 2.951776 18.47284 -6.524169
v 0.7535604 25.84997 3.104072
v -4.738554 17.61271 -2.888827
v 3.154675 26.49347 2.0832
v 5.471874 18.45897 3.430033
v -3.67746 25.86773 -1.333996

vn -0.119812 0.01226807 0.9926758
vn -0.7915039 0.01528931 0.6108398
vn -0.119812 0.01226807 0.9926758
vn -0.9907227 0.009185791 -0.1357422
vn -0.7915039 0.01528931 0.6108398
vn -0.9907227 0.009185791 -0.1357422
vn 0.119812 -0.01226807 -0.9926758
vn 0.119812 -0.01226807 -0.9926758
vn 0.7915039 -0.01528931 -0.6108398
vn 0.9907227 -0.009185791 0.1357422
vn 0.9907227 -0.009185791 0.1357422
vn 0.7915039 -0.01528931 -0.6108398
vn -0.1716309 -0.06695557 -0.9829102
vn -0.06793213 -0.1313477 -0.9887695
vn -0.2575684 -0.01147461 -0.9663086
vn -0.3933105 0.08007813 -0.9160156
vn 0.9995117 -0.0151062 0.03268433
vn 0.9829102 -0.07977295 0.166626
vn 0.9853516 0.07446289 -0.1529541
vn 0.9213867 0.1693115 -0.3493652
vn -0.4272461 0.1546631 0.890625
vn -0.5395508 -0.002838135 0.8422852
vn -0.4550781 0.1181641 0.8823242
vn -0.2602539 0.3459473 0.9013672
vn -0.784668 0.0574646 -0.6171875
vn -0.7563477 0.009002686 -0.6538086
vn -0.7792969 0.04794312 -0.6245117
vn -0.8125 0.1120605 -0.5722656
vn 0.1716309 0.06695557 0.9829102
vn 0.2575684 0.01147461 0.9663086
vn 0.06793213 0.1313477 0.9887695
vn 0.3933105 -0.08007813 0.9160156
vn -0.9995117 0.0151062 -0.03268433
vn -0.9853516 -0.07446289 0.1529541
vn -0.9829102 0.07977295 -0.166626
vn -0.9213867 -0.1693115 0.3493652
vn 0.4272461 -0.1546631 -0.890625
vn 0.4550781 -0.1181641 -0.8823242
vn 0.5395508 0.002838135 -0.8422852
vn 0.2602539 -0.3459473 -0.9013672
vn 0.784668 -0.0574646 0.6171875
vn 0.7792969 -0.04794312 0.6245117
vn 0.7563477 -0.009002686 0.6538086
vn 0.8125 -0.1120605 0.5722656

vt 0.9433594 0.3640137
vt 0.9321289 0.4221191
vt 0.9516602 0.3674316
vt 0.9433594 0.3640137
vt 0.9321289 0.4221191
vt 0.9516602 0.3674316
vt 0.9433594 0.3640137
vt 0.9516602 0.3674316
vt 0.9321289 0.4221191
vt 0.9433594 0.3640137
vt 0.9516602 0.3674316
vt 0.9321289 0.4221191
vt 0.001989365 0.007873535
vt 0.9863281 0.002599716
vt 0.7783203 0.996582
vt 0.1824951 0.9921875
vt 0.001989365 0.007873535
vt 0.9863281 0.002599716
vt 0.7783203 0.996582
vt 0.1824951 0.9921875
vt 0.001989365 0.007873535
vt 0.9863281 0.002599716
vt 0.7783203 0.996582
vt 0.1824951 0.9921875
vt 0.001989365 0.007873535
vt 0.9863281 0.002599716
vt 0.7783203 0.996582
vt 0.1824951 0.9921875
vt 0.001989365 0.007873535
vt 0.7783203 0.996582
vt 0.9863281 0.002599716
vt 0.1824951 0.9921875
vt 0.001989365 0.007873535
vt 0.7783203 0.996582
vt 0.9863281 0.002599716
vt 0.1824951 0.9921875
vt 0.001989365 0.007873535
vt 0.7783203 0.996582
vt 0.9863281 0.002599716
vt 0.1824951 0.9921875
vt 0.001989365 0.007873535
vt 0.7783203 0.996582
vt 0.9863281 0.002599716
vt 0.1824951 0.9921875

g MEP_Con_01_d_LOD_02(Clone)_14187_382
usemtl MEP_Con_01_d_LOD_02(Clone)_14187_382
usemap MEP_Con_01_d_LOD_02(Clone)_14187_382
f 1/1/1 3/3/3 2/2/2
f 4/4/4 6/6/6 5/5/5
f 7/7/7 9/9/9 8/8/8
f 10/10/10 12/12/12 11/11/11
f 13/13/13 15/15/15 14/14/14
f 16/16/16 15/15/15 13/13/13
f 17/17/17 19/19/19 18/18/18
f 20/20/20 19/19/19 17/17/17
f 21/21/21 23/23/23 22/22/22
f 24/24/24 23/23/23 21/21/21
f 25/25/25 27/27/27 26/26/26
f 28/28/28 27/27/27 25/25/25
f 29/29/29 31/31/31 30/30/30
f 32/32/32 29/29/29 30/30/30
f 33/33/33 35/35/35 34/34/34
f 36/36/36 33/33/33 34/34/34
f 37/37/37 39/39/39 38/38/38
f 40/40/40 37/37/37 38/38/38
f 41/41/41 43/43/43 42/42/42
f 44/44/44 41/41/41 42/42/42
