#MEP_ConTrunk_01_g_14116_199.obj

v 0.0009492142 -0.2774611 0.6593375
v -0.5683955 -0.2774611 0.3306333
v 0.0001647796 0.569701 0.3851252
v -0.3313072 0.560159 0.1929753
v -0.1711737 8.014687 0.2789763
v 0.1277116 8.016972 0.292157
v -0.2835903 7.961686 -0.0211681
v 0.2877182 24.00301 -0.04294519
v 0.2877182 24.00301 -0.04294519
v -0.568396 -0.2774611 -0.3267836
v 0.001738369 0.55193 -0.3813629
v -0.3305428 0.5512719 -0.1902734
v 0.0009480627 -0.2774611 -0.6554962
v 0.03055968 7.948494 -0.2673099
v -0.2835903 7.961686 -0.0211681
v 0.2877182 24.00301 -0.04294519
v -0.5683955 -0.2774611 0.3306333
v -0.3305428 0.5512719 -0.1902734
v -0.3313072 0.560159 0.1929753
v -0.568396 -0.2774611 -0.3267836
v -0.2835903 7.961686 -0.0211681
v 0.5702928 -0.2774611 -0.326792
v 0.3332353 0.5614709 -0.1891455
v 0.0009480627 -0.2774611 -0.6554962
v 0.001738369 0.55193 -0.3813629
v 0.03055968 7.948494 -0.2673099
v 0.3123225 8.008615 -0.0006663863
v 0.2877182 24.00301 -0.04294519
v 0.5702928 -0.2774611 -0.326792
v 0.5702933 -0.2774611 0.3306248
v 0.3332353 0.5614709 -0.1891455
v 0.3324186 0.5703559 0.1940923
v 0.0009492142 -0.2774611 0.6593375
v 0.0001647796 0.569701 0.3851252
v 0.1277116 8.016972 0.292157
v 0.3123225 8.008615 -0.0006663863
v 0.2877182 24.00301 -0.04294519

vn 0.1947021 0.3098145 0.9306641
vn -0.7089844 0.3156738 0.6303711
vn 0.1983643 0.1673584 0.9658203
vn -0.7397461 0.1729736 0.6503906
vn -0.4140625 0.03010559 0.909668
vn 0.6313477 0.01545715 0.7753906
vn -0.9970703 0.03140259 -0.06854248
vn 0.01511383 1 -0.01066589
vn 0.01511383 1 -0.01066589
vn -0.9003906 0.3166504 -0.2983398
vn -0.2004395 0.1737061 -0.9643555
vn -0.9331055 0.1765137 -0.3132324
vn -0.192749 0.310791 -0.9306641
vn -0.1610107 0.01856995 -0.9868164
vn -0.9970703 0.03140259 -0.06854248
vn 0.01511383 1 -0.01066589
vn -0.7089844 0.3156738 0.6303711
vn -0.9331055 0.1765137 -0.3132324
vn -0.7397461 0.1729736 0.6503906
vn -0.9003906 0.3166504 -0.2983398
vn -0.9970703 0.03140259 -0.06854248
vn 0.7104492 0.3059082 -0.6337891
vn 0.7348633 0.164917 -0.6577148
vn -0.192749 0.310791 -0.9306641
vn -0.2004395 0.1737061 -0.9643555
vn -0.1610107 0.01856995 -0.9868164
vn 0.9462891 0.007125854 -0.3237305
vn 0.01511383 1 -0.01066589
vn 0.7104492 0.3059082 -0.6337891
vn 0.9047852 0.3061523 0.2966309
vn 0.7348633 0.164917 -0.6577148
vn 0.9370117 0.1621094 0.3088379
vn 0.1947021 0.3098145 0.9306641
vn 0.1983643 0.1673584 0.9658203
vn 0.6313477 0.01545715 0.7753906
vn 0.9462891 0.007125854 -0.3237305
vn 0.01511383 1 -0.01066589

vt 0.333252 0.003404617
vt 0.166748 0.003404617
vt 0.333252 0.2583008
vt 0.166748 0.2575684
vt 0.166748 2.626953
vt 0.333252 2.626953
vt 5.799532E-05 2.625
vt 0.166748 6.253906
vt 5.799532E-05 6.253906
vt 1 0.003404617
vt 0.8334961 0.2558594
vt 1 0.2563477
vt 0.8334961 0.003404617
vt 0.7290039 2.625
vt 1 2.625
vt 0.8334961 6.253906
vt 0.166748 0.003404617
vt 5.799532E-05 0.2563477
vt 0.166748 0.2575684
vt 5.799532E-05 0.003404617
vt 5.799532E-05 2.625
vt 0.6665039 0.003404617
vt 0.6665039 0.2563477
vt 0.8334961 0.003404617
vt 0.8334961 0.2558594
vt 0.7290039 2.625
vt 0.5 2.626953
vt 0.5 6.253906
vt 0.6665039 0.003404617
vt 0.5 0.003404617
vt 0.6665039 0.2563477
vt 0.5 0.2575684
vt 0.333252 0.003404617
vt 0.333252 0.2583008
vt 0.333252 2.626953
vt 0.5 2.626953
vt 0.333252 6.253906

g MEP_ConTrunk_01_g_14116_199
usemtl MEP_ConTrunk_01_g_14116_199
usemap MEP_ConTrunk_01_g_14116_199
f 1/1/1 3/3/3 2/2/2
f 3/3/3 4/4/4 2/2/2
f 4/4/4 3/3/3 5/5/5
f 3/3/3 6/6/6 5/5/5
f 4/4/4 5/5/5 7/7/7
f 6/6/6 8/8/8 5/5/5
f 5/5/5 9/9/9 7/7/7
f 10/10/10 12/12/12 11/11/11
f 13/13/13 10/10/10 11/11/11
f 11/11/11 12/12/12 14/14/14
f 12/12/12 15/15/15 14/14/14
f 15/15/15 16/16/16 14/14/14
f 17/17/17 19/19/19 18/18/18
f 20/20/20 17/17/17 18/18/18
f 18/18/18 19/19/19 21/21/21
f 22/22/22 24/24/24 23/23/23
f 24/24/24 25/25/25 23/23/23
f 25/25/25 26/26/26 23/23/23
f 23/23/23 26/26/26 27/27/27
f 26/26/26 28/28/28 27/27/27
f 29/29/29 31/31/31 30/30/30
f 31/31/31 32/32/32 30/30/30
f 30/30/30 32/32/32 33/33/33
f 32/32/32 34/34/34 33/33/33
f 34/34/34 32/32/32 35/35/35
f 32/32/32 36/36/36 35/35/35
f 32/32/32 31/31/31 36/36/36
f 36/36/36 37/37/37 35/35/35
