#MEP_Con_01_f_LOD_02(Clone)_12169_347.obj

v 1.207713 11.8727 -1.938252
v -1.25846 20.74399 1.482509
v 0.370465 11.94678 2.309905
v 1.792855 20.68254 -1.119139
v -2.081299 11.88785 -0.7485158
v 1.608258 20.67806 0.7281405
v 2.488725 11.75238 0.916842
v -1.396132 20.76712 -0.3666949
v -2.139302 6.102907 5.123926
v 2.138238 5.805046 -4.677756
v 1.279144 14.63286 -2.88971
v 0.4644442 14.15287 2.291842
v -4.344402 6.037307 -2.191808
v 4.661166 6.037306 3.588156
v 2.389131 14.78854 1.609287
v -2.410109 14.83608 -1.032916
v 1.207713 11.8727 -1.938252
v 0.370465 11.94678 2.309905
v -1.25846 20.74399 1.482509
v 1.792855 20.68254 -1.119139
v -2.081299 11.88785 -0.7485158
v 2.488725 11.75238 0.916842
v 1.608258 20.67806 0.7281405
v -1.396132 20.76712 -0.3666949
v -2.139302 6.102907 5.123926
v 1.279144 14.63286 -2.88971
v 2.138238 5.805046 -4.677756
v 0.4644442 14.15287 2.291842
v -4.344402 6.037307 -2.191808
v 2.389131 14.78854 1.609287
v 4.661166 6.037306 3.588156
v -2.410109 14.83608 -1.032916
v -0.05433635 -0.137548 -0.4407825
v 0.2283298 19.82228 0.16808
v -0.02295288 -0.142512 0.3622198
v 0.4019951 -0.137548 -0.1281648
v 0.2283298 19.82228 0.16808
v -0.4013915 -0.142512 -0.1097337
v -0.05433635 -0.137548 -0.4407825
v -0.02295288 -0.142512 0.3622198
v 0.2283298 19.82228 0.16808
v 0.4019951 -0.137548 -0.1281648
v -0.4013915 -0.142512 -0.1097337
v 0.2283298 19.82228 0.16808

vn -0.7670898 -0.1195679 0.6303711
vn -0.9287109 0.02542114 0.3693848
vn -0.6357422 -0.1958008 0.746582
vn -0.9755859 0.1130981 0.1877441
vn 0.6494141 -0.01394653 0.7602539
vn 0.6494141 -0.01394653 0.7602539
vn 0.6494141 -0.01394653 0.7602539
vn 0.6494141 -0.01394653 0.7602539
vn -0.7387695 0.08380127 0.6689453
vn -0.7988281 -0.008209229 0.6015625
vn -0.7216797 0.1067505 0.684082
vn -0.5795898 0.2648926 0.7705078
vn -0.4880371 -0.02877808 -0.8720703
vn -0.4665527 -0.04998779 -0.8833008
vn -0.4936523 -0.02337646 -0.8696289
vn -0.5253906 0.009307861 -0.8505859
vn 0.7670898 0.1195679 -0.6303711
vn 0.6357422 0.1958008 -0.746582
vn 0.9287109 -0.02542114 -0.3693848
vn 0.9755859 -0.1130981 -0.1877441
vn -0.6494141 0.01394653 -0.7602539
vn -0.6494141 0.01394653 -0.7602539
vn -0.6494141 0.01394653 -0.7602539
vn -0.6494141 0.01394653 -0.7602539
vn 0.7387695 -0.08380127 -0.6689453
vn 0.7216797 -0.1067505 -0.684082
vn 0.7988281 0.008209229 -0.6015625
vn 0.5795898 -0.2648926 -0.7705078
vn 0.4880371 0.02877808 0.8720703
vn 0.4936523 0.02337646 0.8696289
vn 0.4665527 0.04998779 0.8833008
vn 0.5253906 -0.009307861 0.8505859
vn -0.4572754 0.01293945 0.8891602
vn -0.9545898 0.01965332 0.2978516
vn -0.4572754 0.01293945 0.8891602
vn -0.8818359 0.01461792 -0.4714355
vn -0.9545898 0.01965332 0.2978516
vn -0.8818359 0.01461792 -0.4714355
vn 0.4572754 -0.01293945 -0.8891602
vn 0.4572754 -0.01293945 -0.8891602
vn 0.9545898 -0.01965332 -0.2978516
vn 0.8818359 -0.01461792 0.4714355
vn 0.8818359 -0.01461792 0.4714355
vn 0.9545898 -0.01965332 -0.2978516

vt 0.001989365 0.007873535
vt 0.7783203 0.996582
vt 0.9863281 0.002599716
vt 0.1824951 0.9921875
vt 0.001989365 0.007873535
vt 0.7783203 0.996582
vt 0.9863281 0.002599716
vt 0.1824951 0.9921875
vt 0.001989365 0.007873535
vt 0.9863281 0.002599716
vt 0.7783203 0.996582
vt 0.1824951 0.9921875
vt 0.001989365 0.007873535
vt 0.9863281 0.002599716
vt 0.7783203 0.996582
vt 0.1824951 0.9921875
vt 0.001989365 0.007873535
vt 0.9863281 0.002599716
vt 0.7783203 0.996582
vt 0.1824951 0.9921875
vt 0.001989365 0.007873535
vt 0.9863281 0.002599716
vt 0.7783203 0.996582
vt 0.1824951 0.9921875
vt 0.001989365 0.007873535
vt 0.7783203 0.996582
vt 0.9863281 0.002599716
vt 0.1824951 0.9921875
vt 0.001989365 0.007873535
vt 0.7783203 0.996582
vt 0.9863281 0.002599716
vt 0.1824951 0.9921875
vt 0.9433594 0.3640137
vt 0.9321289 0.4221191
vt 0.9516602 0.3674316
vt 0.9433594 0.3640137
vt 0.9321289 0.4221191
vt 0.9516602 0.3674316
vt 0.9433594 0.3640137
vt 0.9516602 0.3674316
vt 0.9321289 0.4221191
vt 0.9433594 0.3640137
vt 0.9516602 0.3674316
vt 0.9321289 0.4221191

g MEP_Con_01_f_LOD_02(Clone)_12169_347
usemtl MEP_Con_01_f_LOD_02(Clone)_12169_347
usemap MEP_Con_01_f_LOD_02(Clone)_12169_347
f 1/1/1 3/3/3 2/2/2
f 4/4/4 1/1/1 2/2/2
f 5/5/5 7/7/7 6/6/6
f 8/8/8 5/5/5 6/6/6
f 9/9/9 11/11/11 10/10/10
f 12/12/12 11/11/11 9/9/9
f 13/13/13 15/15/15 14/14/14
f 16/16/16 15/15/15 13/13/13
f 17/17/17 19/19/19 18/18/18
f 20/20/20 19/19/19 17/17/17
f 21/21/21 23/23/23 22/22/22
f 24/24/24 23/23/23 21/21/21
f 25/25/25 27/27/27 26/26/26
f 28/28/28 25/25/25 26/26/26
f 29/29/29 31/31/31 30/30/30
f 32/32/32 29/29/29 30/30/30
f 33/33/33 35/35/35 34/34/34
f 36/36/36 38/38/38 37/37/37
f 39/39/39 41/41/41 40/40/40
f 42/42/42 44/44/44 43/43/43
