#MEP_ConTrunk_01_f_13942_55.obj

v 0.0009467012 -0.2774611 0.6593376
v -0.5683902 -0.2774611 0.3306174
v 0.00246713 0.5710189 0.3749888
v -0.3262102 0.5615579 0.1844272
v -0.08081528 8.782871 0.2618013
v 0.1649243 8.784748 0.2726302
v -0.1732346 8.739295 0.01503387
v 0.3012338 20.26084 0.2109535
v 0.3012338 20.26084 0.2109535
v -0.5684037 -0.2774611 -0.3267909
v 0.004029378 0.553398 -0.3850603
v -0.3254562 0.5527459 -0.1956023
v 0.0009409384 -0.2774611 -0.6555008
v 0.08506396 8.728449 -0.1873401
v -0.1732346 8.739295 0.01503387
v 0.3012338 20.26084 0.2109535
v -0.5683902 -0.2774611 0.3306174
v -0.3254562 0.5527459 -0.1956023
v -0.3262102 0.5615579 0.1844272
v -0.5684037 -0.2774611 -0.3267909
v -0.1732346 8.739295 0.01503387
v 0.5702991 -0.2774611 -0.3268024
v 0.3327396 0.5628579 -0.1944668
v 0.0009409384 -0.2774611 -0.6555008
v 0.004029378 0.553398 -0.3850603
v 0.08506396 8.728449 -0.1873401
v 0.3167158 8.777877 0.03188402
v 0.3012338 20.26084 0.2109535
v 0.5702991 -0.2774611 -0.3268024
v 0.5702913 -0.2774611 0.3306277
v 0.3327396 0.5628579 -0.1944668
v 0.3319314 0.5716699 0.1855527
v 0.0009467012 -0.2774611 0.6593376
v 0.00246713 0.5710189 0.3749888
v 0.1649243 8.784748 0.2726302
v 0.3167158 8.777877 0.03188402
v 0.3012338 20.26084 0.2109535

vn 0.6606445 0.3173828 0.6801758
vn -0.2580566 0.3193359 0.9116211
vn 0.684082 0.1719971 0.7084961
vn -0.2766113 0.1781006 0.9443359
vn 0.1380615 0.02322388 0.9902344
vn 0.949707 0.006652832 0.3134766
vn -0.8793945 0.03915405 0.4746094
vn 0.02232361 0.9995117 -0.00553894
vn 0.02232361 0.9995117 -0.00553894
vn -0.9194336 0.3156738 0.2349854
vn -0.6870117 0.1777344 -0.7045898
vn -0.9545898 0.1810303 0.2359619
vn -0.6640625 0.3085938 -0.6806641
vn -0.6650391 0.03442383 -0.7460938
vn -0.8793945 0.03915405 0.4746094
vn 0.02232361 0.9995117 -0.00553894
vn -0.2580566 0.3193359 0.9116211
vn -0.9545898 0.1810303 0.2359619
vn -0.2766113 0.1781006 0.9443359
vn -0.9194336 0.3156738 0.2349854
vn -0.8793945 0.03915405 0.4746094
vn 0.2602539 0.3078613 -0.9150391
vn 0.2646484 0.1693115 -0.9492188
vn -0.6640625 0.3085938 -0.6806641
vn -0.6870117 0.1777344 -0.7045898
vn -0.6650391 0.03442383 -0.7460938
vn 0.6220703 0.01202393 -0.7832031
vn 0.02232361 0.9995117 -0.00553894
vn 0.2602539 0.3078613 -0.9150391
vn 0.9208984 0.3127441 -0.2316895
vn 0.2646484 0.1693115 -0.9492188
vn 0.9555664 0.1663818 -0.2434082
vn 0.6606445 0.3173828 0.6801758
vn 0.684082 0.1719971 0.7084961
vn 0.949707 0.006652832 0.3134766
vn 0.6220703 0.01202393 -0.7832031
vn 0.02232361 0.9995117 -0.00553894

vt 0.333252 0.003404617
vt 0.166748 0.003404617
vt 0.333252 0.2583008
vt 0.166748 0.2575684
vt 0.166748 2.626953
vt 0.333252 2.626953
vt 5.799532E-05 2.625
vt 0.166748 6.253906
vt 5.799532E-05 6.253906
vt 1 0.003404617
vt 0.8334961 0.2558594
vt 1 0.2563477
vt 0.8334961 0.003404617
vt 0.7290039 2.625
vt 1 2.625
vt 0.8334961 6.253906
vt 0.166748 0.003404617
vt 5.799532E-05 0.2563477
vt 0.166748 0.2575684
vt 5.799532E-05 0.003404617
vt 5.799532E-05 2.625
vt 0.6665039 0.003404617
vt 0.6665039 0.2563477
vt 0.8334961 0.003404617
vt 0.8334961 0.2558594
vt 0.7290039 2.625
vt 0.5 2.626953
vt 0.5 6.253906
vt 0.6665039 0.003404617
vt 0.5 0.003404617
vt 0.6665039 0.2563477
vt 0.5 0.2575684
vt 0.333252 0.003404617
vt 0.333252 0.2583008
vt 0.333252 2.626953
vt 0.5 2.626953
vt 0.333252 6.253906

g MEP_ConTrunk_01_f_13942_55
usemtl MEP_ConTrunk_01_f_13942_55
usemap MEP_ConTrunk_01_f_13942_55
f 1/1/1 3/3/3 2/2/2
f 3/3/3 4/4/4 2/2/2
f 4/4/4 3/3/3 5/5/5
f 3/3/3 6/6/6 5/5/5
f 4/4/4 5/5/5 7/7/7
f 6/6/6 8/8/8 5/5/5
f 5/5/5 9/9/9 7/7/7
f 10/10/10 12/12/12 11/11/11
f 13/13/13 10/10/10 11/11/11
f 11/11/11 12/12/12 14/14/14
f 12/12/12 15/15/15 14/14/14
f 15/15/15 16/16/16 14/14/14
f 17/17/17 19/19/19 18/18/18
f 20/20/20 17/17/17 18/18/18
f 18/18/18 19/19/19 21/21/21
f 22/22/22 24/24/24 23/23/23
f 24/24/24 25/25/25 23/23/23
f 25/25/25 26/26/26 23/23/23
f 23/23/23 26/26/26 27/27/27
f 26/26/26 28/28/28 27/27/27
f 29/29/29 31/31/31 30/30/30
f 31/31/31 32/32/32 30/30/30
f 30/30/30 32/32/32 33/33/33
f 32/32/32 34/34/34 33/33/33
f 34/34/34 32/32/32 35/35/35
f 32/32/32 36/36/36 35/35/35
f 32/32/32 31/31/31 36/36/36
f 36/36/36 37/37/37 35/35/35
