#MEP_Con_01_d_LOD_02(Clone)_12986_312.obj

v -0.08020236 -0.5056341 -0.4107006
v 0.2674948 25.89249 0.1725531
v -0.04634776 -0.510988 0.4552822
v 0.4119519 -0.5056341 -0.07355482
v 0.2674948 25.89249 0.1725531
v -0.45446 -0.510988 -0.05368337
v -0.08020236 -0.5056341 -0.4107006
v -0.04634776 -0.510988 0.4552822
v 0.2674948 25.89249 0.1725531
v 0.4119519 -0.5056341 -0.07355482
v -0.45446 -0.510988 -0.05368337
v 0.2674948 25.89249 0.1725531
v -1.312162 22.14209 -3.090895
v 0.2952474 22.1108 3.861381
v 1.260282 31.69208 2.402923
v -1.430716 31.06985 -1.938236
v 3.068602 22.20161 0.279811
v -4.062621 22.24152 0.2209118
v -1.393428 31.55883 0.9901125
v 2.11043 31.41819 -0.9953384
v -2.505401 18.03639 6.018243
v 2.951769 18.47284 -6.524151
v 1.613832 25.98559 -3.503549
v 0.7535704 25.84997 3.104072
v -4.738561 17.61271 -2.888812
v 5.471878 18.45897 3.430038
v 3.154687 26.49347 2.083215
v -3.677454 25.86773 -1.333988
v -1.312162 22.14209 -3.090895
v 1.260282 31.69208 2.402923
v 0.2952474 22.1108 3.861381
v -1.430716 31.06985 -1.938236
v 3.068602 22.20161 0.279811
v -1.393428 31.55883 0.9901125
v -4.062621 22.24152 0.2209118
v 2.11043 31.41819 -0.9953384
v -2.505401 18.03639 6.018243
v 1.613832 25.98559 -3.503549
v 2.951769 18.47284 -6.524151
v 0.7535704 25.84997 3.104072
v -4.738561 17.61271 -2.888812
v 3.154687 26.49347 2.083215
v 5.471878 18.45897 3.430038
v -3.677454 25.86773 -1.333988

vn -0.7558594 0.01226807 -0.6547852
vn -0.0637207 0.01528931 -0.9980469
vn -0.7558594 0.01226807 -0.6547852
vn 0.6665039 0.009185791 -0.7451172
vn -0.0637207 0.01528931 -0.9980469
vn 0.6665039 0.009185791 -0.7451172
vn 0.7558594 -0.01226807 0.6547852
vn 0.7558594 -0.01226807 0.6547852
vn 0.0637207 -0.01528931 0.9980469
vn -0.6665039 -0.009185791 0.7451172
vn -0.6665039 -0.009185791 0.7451172
vn 0.0637207 -0.01528931 0.9980469
vn 0.9106445 -0.06695557 0.4074707
vn 0.8579102 -0.1313477 0.4968262
vn 0.9448242 -0.01147461 0.3269043
vn 0.9790039 0.08007813 0.1864014
vn -0.5859375 -0.0151062 0.8100586
vn -0.6879883 -0.07977295 0.7216797
vn -0.4243164 0.07446289 0.9023438
vn -0.2259521 0.1693115 0.9594727
vn -0.4992676 0.1546631 -0.8525391
vn -0.3962402 -0.002838135 -0.9179688
vn -0.4770508 0.1181641 -0.8710938
vn -0.6015625 0.3459473 -0.7202148
vn 0.9506836 0.0574646 -0.3051758
vn 0.965332 0.009002686 -0.2614746
vn 0.9536133 0.04794312 -0.2966309
vn 0.9287109 0.1120605 -0.3532715
vn -0.9106445 0.06695557 -0.4074707
vn -0.9448242 0.01147461 -0.3269043
vn -0.8579102 0.1313477 -0.4968262
vn -0.9790039 -0.08007813 -0.1864014
vn 0.5859375 0.0151062 -0.8100586
vn 0.4243164 -0.07446289 -0.9023438
vn 0.6879883 0.07977295 -0.7216797
vn 0.2259521 -0.1693115 -0.9594727
vn 0.4992676 -0.1546631 0.8525391
vn 0.4770508 -0.1181641 0.8710938
vn 0.3962402 0.002838135 0.9179688
vn 0.6015625 -0.3459473 0.7202148
vn -0.9506836 -0.0574646 0.3051758
vn -0.9536133 -0.04794312 0.2966309
vn -0.965332 -0.009002686 0.2614746
vn -0.9287109 -0.1120605 0.3532715

vt 0.9433594 0.3640137
vt 0.9321289 0.4221191
vt 0.9516602 0.3674316
vt 0.9433594 0.3640137
vt 0.9321289 0.4221191
vt 0.9516602 0.3674316
vt 0.9433594 0.3640137
vt 0.9516602 0.3674316
vt 0.9321289 0.4221191
vt 0.9433594 0.3640137
vt 0.9516602 0.3674316
vt 0.9321289 0.4221191
vt 0.001989365 0.007873535
vt 0.9863281 0.002599716
vt 0.7783203 0.996582
vt 0.1824951 0.9921875
vt 0.001989365 0.007873535
vt 0.9863281 0.002599716
vt 0.7783203 0.996582
vt 0.1824951 0.9921875
vt 0.001989365 0.007873535
vt 0.9863281 0.002599716
vt 0.7783203 0.996582
vt 0.1824951 0.9921875
vt 0.001989365 0.007873535
vt 0.9863281 0.002599716
vt 0.7783203 0.996582
vt 0.1824951 0.9921875
vt 0.001989365 0.007873535
vt 0.7783203 0.996582
vt 0.9863281 0.002599716
vt 0.1824951 0.9921875
vt 0.001989365 0.007873535
vt 0.7783203 0.996582
vt 0.9863281 0.002599716
vt 0.1824951 0.9921875
vt 0.001989365 0.007873535
vt 0.7783203 0.996582
vt 0.9863281 0.002599716
vt 0.1824951 0.9921875
vt 0.001989365 0.007873535
vt 0.7783203 0.996582
vt 0.9863281 0.002599716
vt 0.1824951 0.9921875

g MEP_Con_01_d_LOD_02(Clone)_12986_312
usemtl MEP_Con_01_d_LOD_02(Clone)_12986_312
usemap MEP_Con_01_d_LOD_02(Clone)_12986_312
f 1/1/1 3/3/3 2/2/2
f 4/4/4 6/6/6 5/5/5
f 7/7/7 9/9/9 8/8/8
f 10/10/10 12/12/12 11/11/11
f 13/13/13 15/15/15 14/14/14
f 16/16/16 15/15/15 13/13/13
f 17/17/17 19/19/19 18/18/18
f 20/20/20 19/19/19 17/17/17
f 21/21/21 23/23/23 22/22/22
f 24/24/24 23/23/23 21/21/21
f 25/25/25 27/27/27 26/26/26
f 28/28/28 27/27/27 25/25/25
f 29/29/29 31/31/31 30/30/30
f 32/32/32 29/29/29 30/30/30
f 33/33/33 35/35/35 34/34/34
f 36/36/36 33/33/33 34/34/34
f 37/37/37 39/39/39 38/38/38
f 40/40/40 37/37/37 38/38/38
f 41/41/41 43/43/43 42/42/42
f 44/44/44 41/41/41 42/42/42
