#MEP_ConTrunk_01_f_13455_100.obj

v 0.0009541163 -0.277461 0.6593398
v -0.5683888 -0.277461 0.3306309
v 0.002476432 0.571019 0.3749835
v -0.3262198 0.561558 0.1844213
v -0.08080091 8.782871 0.2617983
v 0.1649203 8.784748 0.2726165
v -0.1732364 8.739295 0.01502051
v 0.3012554 20.26084 0.210952
v 0.3012554 20.26084 0.210952
v -0.5683833 -0.277461 -0.3267865
v 0.004031055 0.553398 -0.3850757
v -0.3254695 0.552746 -0.1956032
v 0.000943501 -0.277461 -0.6555169
v 0.08506244 8.728449 -0.1873213
v -0.1732364 8.739295 0.01502051
v 0.3012554 20.26084 0.210952
v -0.5683888 -0.277461 0.3306309
v -0.3254695 0.552746 -0.1956032
v -0.3262198 0.561558 0.1844213
v -0.5683833 -0.277461 -0.3267865
v -0.1732364 8.739295 0.01502051
v 0.5702863 -0.277461 -0.3268079
v 0.3327404 0.562858 -0.1944837
v 0.000943501 -0.277461 -0.6555169
v 0.004031055 0.553398 -0.3850757
v 0.08506244 8.728449 -0.1873213
v 0.3167067 8.777877 0.03188858
v 0.3012554 20.26084 0.210952
v 0.5702863 -0.277461 -0.3268079
v 0.5703023 -0.277461 0.3306313
v 0.3327404 0.562858 -0.1944837
v 0.3319415 0.57167 0.1855457
v 0.0009541163 -0.277461 0.6593398
v 0.002476432 0.571019 0.3749835
v 0.1649203 8.784748 0.2726165
v 0.3167067 8.777877 0.03188858
v 0.3012554 20.26084 0.210952

vn -0.6640625 0.3173828 0.6767578
vn -0.9179688 0.3193359 -0.236084
vn -0.6918945 0.1719971 0.7011719
vn -0.9506836 0.1781006 -0.2536621
vn -0.9863281 0.02322388 0.1618652
vn -0.2905273 0.006652832 0.9570313
vn -0.4956055 0.03915405 -0.8676758
vn 0.006076813 0.9995117 0.02218628
vn 0.006076813 0.9995117 0.02218628
vn -0.2570801 0.3156738 -0.9135742
vn 0.6875 0.1777344 -0.7041016
vn -0.2590332 0.1810303 -0.9487305
vn 0.6645508 0.3085938 -0.6806641
vn 0.7299805 0.03442383 -0.6826172
vn -0.4956055 0.03915405 -0.8676758
vn 0.006076813 0.9995117 0.02218628
vn -0.9179688 0.3193359 -0.236084
vn -0.2590332 0.1810303 -0.9487305
vn -0.9506836 0.1781006 -0.2536621
vn -0.2570801 0.3156738 -0.9135742
vn -0.4956055 0.03915405 -0.8676758
vn 0.9213867 0.3078613 0.2380371
vn 0.9555664 0.1693115 0.2416992
vn 0.6645508 0.3085938 -0.6806641
vn 0.6875 0.1777344 -0.7041016
vn 0.7299805 0.03442383 -0.6826172
vn 0.7978516 0.01202393 0.6030273
vn 0.006076813 0.9995117 0.02218628
vn 0.9213867 0.3078613 0.2380371
vn 0.2539063 0.3127441 0.9150391
vn 0.9555664 0.1693115 0.2416992
vn 0.2663574 0.1663818 0.9492188
vn -0.6640625 0.3173828 0.6767578
vn -0.6918945 0.1719971 0.7011719
vn -0.2905273 0.006652832 0.9570313
vn 0.7978516 0.01202393 0.6030273
vn 0.006076813 0.9995117 0.02218628

vt 0.333252 0.003404617
vt 0.166748 0.003404617
vt 0.333252 0.2583008
vt 0.166748 0.2575684
vt 0.166748 2.626953
vt 0.333252 2.626953
vt 5.799532E-05 2.625
vt 0.166748 6.253906
vt 5.799532E-05 6.253906
vt 1 0.003404617
vt 0.8334961 0.2558594
vt 1 0.2563477
vt 0.8334961 0.003404617
vt 0.7290039 2.625
vt 1 2.625
vt 0.8334961 6.253906
vt 0.166748 0.003404617
vt 5.799532E-05 0.2563477
vt 0.166748 0.2575684
vt 5.799532E-05 0.003404617
vt 5.799532E-05 2.625
vt 0.6665039 0.003404617
vt 0.6665039 0.2563477
vt 0.8334961 0.003404617
vt 0.8334961 0.2558594
vt 0.7290039 2.625
vt 0.5 2.626953
vt 0.5 6.253906
vt 0.6665039 0.003404617
vt 0.5 0.003404617
vt 0.6665039 0.2563477
vt 0.5 0.2575684
vt 0.333252 0.003404617
vt 0.333252 0.2583008
vt 0.333252 2.626953
vt 0.5 2.626953
vt 0.333252 6.253906

g MEP_ConTrunk_01_f_13455_100
usemtl MEP_ConTrunk_01_f_13455_100
usemap MEP_ConTrunk_01_f_13455_100
f 1/1/1 3/3/3 2/2/2
f 3/3/3 4/4/4 2/2/2
f 4/4/4 3/3/3 5/5/5
f 3/3/3 6/6/6 5/5/5
f 4/4/4 5/5/5 7/7/7
f 6/6/6 8/8/8 5/5/5
f 5/5/5 9/9/9 7/7/7
f 10/10/10 12/12/12 11/11/11
f 13/13/13 10/10/10 11/11/11
f 11/11/11 12/12/12 14/14/14
f 12/12/12 15/15/15 14/14/14
f 15/15/15 16/16/16 14/14/14
f 17/17/17 19/19/19 18/18/18
f 20/20/20 17/17/17 18/18/18
f 18/18/18 19/19/19 21/21/21
f 22/22/22 24/24/24 23/23/23
f 24/24/24 25/25/25 23/23/23
f 25/25/25 26/26/26 23/23/23
f 23/23/23 26/26/26 27/27/27
f 26/26/26 28/28/28 27/27/27
f 29/29/29 31/31/31 30/30/30
f 31/31/31 32/32/32 30/30/30
f 30/30/30 32/32/32 33/33/33
f 32/32/32 34/34/34 33/33/33
f 34/34/34 32/32/32 35/35/35
f 32/32/32 36/36/36 35/35/35
f 32/32/32 31/31/31 36/36/36
f 36/36/36 37/37/37 35/35/35
