#MEP_Con_01_d_LOD_02(Clone)_12968_421.obj

v -0.08019713 -0.505634 -0.410698
v 0.2674871 25.89249 0.1725675
v -0.04635307 -0.510988 0.4552777
v 0.4119375 -0.505634 -0.07357386
v 0.2674871 25.89249 0.1725675
v -0.4544754 -0.510988 -0.05368653
v -0.08019713 -0.505634 -0.410698
v -0.04635307 -0.510988 0.4552777
v 0.2674871 25.89249 0.1725675
v 0.4119375 -0.505634 -0.07357386
v -0.4544754 -0.510988 -0.05368653
v 0.2674871 25.89249 0.1725675
v -1.31216 22.14209 -3.090908
v 0.2952618 22.1108 3.861382
v 1.260265 31.69208 2.402939
v -1.430712 31.06985 -1.938223
v 3.068609 22.20161 0.279822
v -4.062614 22.24152 0.220915
v -1.393439 31.55883 0.9901149
v 2.110442 31.41819 -0.9953323
v -2.505409 18.03639 6.018261
v 2.951773 18.47284 -6.524166
v 1.613832 25.98559 -3.503543
v 0.753547 25.84997 3.104079
v -4.738577 17.61271 -2.888817
v 5.471878 18.45897 3.430043
v 3.154694 26.49347 2.083186
v -3.677441 25.86773 -1.334008
v -1.31216 22.14209 -3.090908
v 1.260265 31.69208 2.402939
v 0.2952618 22.1108 3.861382
v -1.430712 31.06985 -1.938223
v 3.068609 22.20161 0.279822
v -1.393439 31.55883 0.9901149
v -4.062614 22.24152 0.220915
v 2.110442 31.41819 -0.9953323
v -2.505409 18.03639 6.018261
v 1.613832 25.98559 -3.503543
v 2.951773 18.47284 -6.524166
v 0.753547 25.84997 3.104079
v -4.738577 17.61271 -2.888817
v 3.154694 26.49347 2.083186
v 5.471878 18.45897 3.430043
v -3.677441 25.86773 -1.334008

vn -0.5224609 0.01226807 -0.8525391
vn 0.2412109 0.01528931 -0.9702148
vn -0.5224609 0.01226807 -0.8525391
vn 0.8608398 0.009185791 -0.5087891
vn 0.2412109 0.01528931 -0.9702148
vn 0.8608398 0.009185791 -0.5087891
vn 0.5224609 -0.01226807 0.8525391
vn 0.5224609 -0.01226807 0.8525391
vn -0.2412109 -0.01528931 0.9702148
vn -0.8608398 -0.009185791 0.5087891
vn -0.8608398 -0.009185791 0.5087891
vn -0.2412109 -0.01528931 0.9702148
vn 0.7446289 -0.06695557 0.6640625
vn 0.6674805 -0.1313477 0.7333984
vn 0.8017578 -0.01147461 0.5976563
vn 0.8769531 0.08007813 0.473877
vn -0.8037109 -0.0151062 0.5947266
vn -0.8740234 -0.07977295 0.4794922
vn -0.6777344 0.07446289 0.7314453
vn -0.5053711 0.1693115 0.8461914
vn -0.2180176 0.1546631 -0.9633789
vn -0.09997559 -0.002838135 -0.9951172
vn -0.19104 0.1181641 -0.9746094
vn -0.3554688 0.3459473 -0.8681641
vn 0.9985352 0.0574646 -0.003332138
vn 0.9990234 0.009002686 0.04290771
vn 0.9990234 0.04794312 0.005771637
vn 0.9921875 0.1120605 -0.05569458
vn -0.7446289 0.06695557 -0.6640625
vn -0.8017578 0.01147461 -0.5976563
vn -0.6674805 0.1313477 -0.7333984
vn -0.8769531 -0.08007813 -0.473877
vn 0.8037109 0.0151062 -0.5947266
vn 0.6777344 -0.07446289 -0.7314453
vn 0.8740234 0.07977295 -0.4794922
vn 0.5053711 -0.1693115 -0.8461914
vn 0.2180176 -0.1546631 0.9633789
vn 0.19104 -0.1181641 0.9746094
vn 0.09997559 0.002838135 0.9951172
vn 0.3554688 -0.3459473 0.8681641
vn -0.9985352 -0.0574646 0.003332138
vn -0.9990234 -0.04794312 -0.005771637
vn -0.9990234 -0.009002686 -0.04290771
vn -0.9921875 -0.1120605 0.05569458

vt 0.9433594 0.3640137
vt 0.9321289 0.4221191
vt 0.9516602 0.3674316
vt 0.9433594 0.3640137
vt 0.9321289 0.4221191
vt 0.9516602 0.3674316
vt 0.9433594 0.3640137
vt 0.9516602 0.3674316
vt 0.9321289 0.4221191
vt 0.9433594 0.3640137
vt 0.9516602 0.3674316
vt 0.9321289 0.4221191
vt 0.001989365 0.007873535
vt 0.9863281 0.002599716
vt 0.7783203 0.996582
vt 0.1824951 0.9921875
vt 0.001989365 0.007873535
vt 0.9863281 0.002599716
vt 0.7783203 0.996582
vt 0.1824951 0.9921875
vt 0.001989365 0.007873535
vt 0.9863281 0.002599716
vt 0.7783203 0.996582
vt 0.1824951 0.9921875
vt 0.001989365 0.007873535
vt 0.9863281 0.002599716
vt 0.7783203 0.996582
vt 0.1824951 0.9921875
vt 0.001989365 0.007873535
vt 0.7783203 0.996582
vt 0.9863281 0.002599716
vt 0.1824951 0.9921875
vt 0.001989365 0.007873535
vt 0.7783203 0.996582
vt 0.9863281 0.002599716
vt 0.1824951 0.9921875
vt 0.001989365 0.007873535
vt 0.7783203 0.996582
vt 0.9863281 0.002599716
vt 0.1824951 0.9921875
vt 0.001989365 0.007873535
vt 0.7783203 0.996582
vt 0.9863281 0.002599716
vt 0.1824951 0.9921875

g MEP_Con_01_d_LOD_02(Clone)_12968_421
usemtl MEP_Con_01_d_LOD_02(Clone)_12968_421
usemap MEP_Con_01_d_LOD_02(Clone)_12968_421
f 1/1/1 3/3/3 2/2/2
f 4/4/4 6/6/6 5/5/5
f 7/7/7 9/9/9 8/8/8
f 10/10/10 12/12/12 11/11/11
f 13/13/13 15/15/15 14/14/14
f 16/16/16 15/15/15 13/13/13
f 17/17/17 19/19/19 18/18/18
f 20/20/20 19/19/19 17/17/17
f 21/21/21 23/23/23 22/22/22
f 24/24/24 23/23/23 21/21/21
f 25/25/25 27/27/27 26/26/26
f 28/28/28 27/27/27 25/25/25
f 29/29/29 31/31/31 30/30/30
f 32/32/32 29/29/29 30/30/30
f 33/33/33 35/35/35 34/34/34
f 36/36/36 33/33/33 34/34/34
f 37/37/37 39/39/39 38/38/38
f 40/40/40 37/37/37 38/38/38
f 41/41/41 43/43/43 42/42/42
f 44/44/44 41/41/41 42/42/42
