#MEP_Con_01_f_LOD_02(Clone)_11794_396.obj

v 1.207724 11.8727 -1.938256
v -1.25846 20.74399 1.482489
v 0.3704627 11.94678 2.30989
v 1.792845 20.68254 -1.119134
v -2.081307 11.88785 -0.748512
v 1.608245 20.67806 0.7281268
v 2.488707 11.75238 0.9168393
v -1.396136 20.76712 -0.3666789
v -2.139284 6.102907 5.123926
v 2.138227 5.805046 -4.677742
v 1.279155 14.63286 -2.889725
v 0.4644597 14.15287 2.291842
v -4.344414 6.037307 -2.191809
v 4.661168 6.037306 3.588142
v 2.389136 14.78854 1.609295
v -2.410111 14.83608 -1.032911
v 1.207724 11.8727 -1.938256
v 0.3704627 11.94678 2.30989
v -1.25846 20.74399 1.482489
v 1.792845 20.68254 -1.119134
v -2.081307 11.88785 -0.748512
v 2.488707 11.75238 0.9168393
v 1.608245 20.67806 0.7281268
v -1.396136 20.76712 -0.3666789
v -2.139284 6.102907 5.123926
v 1.279155 14.63286 -2.889725
v 2.138227 5.805046 -4.677742
v 0.4644597 14.15287 2.291842
v -4.344414 6.037307 -2.191809
v 2.389136 14.78854 1.609295
v 4.661168 6.037306 3.588142
v -2.410111 14.83608 -1.032911
v -0.05433589 -0.1375482 -0.4407709
v 0.2283379 19.82228 0.1680687
v -0.02295811 -0.1425122 0.3622141
v 0.4020047 -0.1375482 -0.1281564
v 0.2283379 19.82228 0.1680687
v -0.4013724 -0.1425122 -0.1097341
v -0.05433589 -0.1375482 -0.4407709
v -0.02295811 -0.1425122 0.3622141
v 0.2283379 19.82228 0.1680687
v 0.4020047 -0.1375482 -0.1281564
v -0.4013724 -0.1425122 -0.1097341
v 0.2283379 19.82228 0.1680687

vn -0.6245117 -0.1195679 0.7719727
vn -0.8359375 0.02542114 0.5483398
vn -0.4726563 -0.1958008 0.859375
vn -0.9179688 0.1130981 0.380127
vn 0.7890625 -0.01394653 0.6142578
vn 0.7890625 -0.01394653 0.6142578
vn 0.7890625 -0.01394653 0.6142578
vn 0.7890625 -0.01394653 0.6142578
vn -0.5888672 0.08380127 0.8037109
vn -0.6616211 -0.008209229 0.75
vn -0.5693359 0.1067505 0.8149414
vn -0.4130859 0.2648926 0.871582
vn -0.6533203 -0.02877808 -0.7563477
vn -0.6342773 -0.04998779 -0.7714844
vn -0.6582031 -0.02337646 -0.7524414
vn -0.6855469 0.009307861 -0.7275391
vn 0.6245117 0.1195679 -0.7719727
vn 0.4726563 0.1958008 -0.859375
vn 0.8359375 -0.02542114 -0.5483398
vn 0.9179688 -0.1130981 -0.380127
vn -0.7890625 0.01394653 -0.6142578
vn -0.7890625 0.01394653 -0.6142578
vn -0.7890625 0.01394653 -0.6142578
vn -0.7890625 0.01394653 -0.6142578
vn 0.5888672 -0.08380127 -0.8037109
vn 0.5693359 -0.1067505 -0.8149414
vn 0.6616211 0.008209229 -0.75
vn 0.4130859 -0.2648926 -0.871582
vn 0.6533203 0.02877808 0.7563477
vn 0.6582031 0.02337646 0.7524414
vn 0.6342773 0.04998779 0.7714844
vn 0.6855469 -0.009307861 0.7275391
vn -0.2692871 0.01293945 0.9628906
vn -0.875 0.01965332 0.4836426
vn -0.2692871 0.01293945 0.9628906
vn -0.9584961 0.01461792 -0.284668
vn -0.875 0.01965332 0.4836426
vn -0.9584961 0.01461792 -0.284668
vn 0.2692871 -0.01293945 -0.9628906
vn 0.2692871 -0.01293945 -0.9628906
vn 0.875 -0.01965332 -0.4836426
vn 0.9584961 -0.01461792 0.284668
vn 0.9584961 -0.01461792 0.284668
vn 0.875 -0.01965332 -0.4836426

vt 0.001989365 0.007873535
vt 0.7783203 0.996582
vt 0.9863281 0.002599716
vt 0.1824951 0.9921875
vt 0.001989365 0.007873535
vt 0.7783203 0.996582
vt 0.9863281 0.002599716
vt 0.1824951 0.9921875
vt 0.001989365 0.007873535
vt 0.9863281 0.002599716
vt 0.7783203 0.996582
vt 0.1824951 0.9921875
vt 0.001989365 0.007873535
vt 0.9863281 0.002599716
vt 0.7783203 0.996582
vt 0.1824951 0.9921875
vt 0.001989365 0.007873535
vt 0.9863281 0.002599716
vt 0.7783203 0.996582
vt 0.1824951 0.9921875
vt 0.001989365 0.007873535
vt 0.9863281 0.002599716
vt 0.7783203 0.996582
vt 0.1824951 0.9921875
vt 0.001989365 0.007873535
vt 0.7783203 0.996582
vt 0.9863281 0.002599716
vt 0.1824951 0.9921875
vt 0.001989365 0.007873535
vt 0.7783203 0.996582
vt 0.9863281 0.002599716
vt 0.1824951 0.9921875
vt 0.9433594 0.3640137
vt 0.9321289 0.4221191
vt 0.9516602 0.3674316
vt 0.9433594 0.3640137
vt 0.9321289 0.4221191
vt 0.9516602 0.3674316
vt 0.9433594 0.3640137
vt 0.9516602 0.3674316
vt 0.9321289 0.4221191
vt 0.9433594 0.3640137
vt 0.9516602 0.3674316
vt 0.9321289 0.4221191

g MEP_Con_01_f_LOD_02(Clone)_11794_396
usemtl MEP_Con_01_f_LOD_02(Clone)_11794_396
usemap MEP_Con_01_f_LOD_02(Clone)_11794_396
f 1/1/1 3/3/3 2/2/2
f 4/4/4 1/1/1 2/2/2
f 5/5/5 7/7/7 6/6/6
f 8/8/8 5/5/5 6/6/6
f 9/9/9 11/11/11 10/10/10
f 12/12/12 11/11/11 9/9/9
f 13/13/13 15/15/15 14/14/14
f 16/16/16 15/15/15 13/13/13
f 17/17/17 19/19/19 18/18/18
f 20/20/20 19/19/19 17/17/17
f 21/21/21 23/23/23 22/22/22
f 24/24/24 23/23/23 21/21/21
f 25/25/25 27/27/27 26/26/26
f 28/28/28 25/25/25 26/26/26
f 29/29/29 31/31/31 30/30/30
f 32/32/32 29/29/29 30/30/30
f 33/33/33 35/35/35 34/34/34
f 36/36/36 38/38/38 37/37/37
f 39/39/39 41/41/41 40/40/40
f 42/42/42 44/44/44 43/43/43
