#MEP_Con_01_h_LOD_01(Clone)_12924_351.obj

v -0.9886398 1.8701 2.022395
v -0.04145911 2.738964 0.192041
v 0.1753547 3.133242 -0.009914891
v -0.1296209 2.017378 0.5883996
v 0.06087872 5.013865 0.3298849
v -0.04063166 5.410986 0.05557713
v 1.980714 3.836672 2.31981
v 0.4005543 4.29571 0.5631852
v 0.05843517 5.161913 -0.07769296
v -0.01363638 5.602562 0.1317969
v -0.275484 3.565519 -2.601864
v -0.09599767 4.395245 -0.3495903
v -0.1546737 7.07416 0.12526
v 0.1510348 7.44681 0.02076628
v -2.565906 6.258064 1.722582
v -0.4860764 6.428028 0.5230607
v 0.143764 6.999117 -0.09009029
v -0.007100403 7.390816 0.02216311
v 1.258534 5.592319 -2.036184
v 0.1633303 6.328564 -0.3764797
v -0.1149423 9.198686 -0.0392107
v -0.01339241 9.653197 0.1231238
v -2.01051 7.554882 -1.693351
v -0.4600962 8.447343 -0.08303188
v -0.007245259 9.326726 0.2779455
v 0.04385113 9.7173 -0.01884978
v 0.409337 8.302306 3.072311
v 0.1829198 8.640229 0.6999861
v -0.04145911 2.738964 0.192041
v -0.9886398 1.8701 2.022395
v 0.1753547 3.133242 -0.009914891
v -0.1296209 2.017378 0.5883996
v 0.06087872 5.013865 0.3298849
v 1.980714 3.836672 2.31981
v -0.04063166 5.410986 0.05557713
v 0.4005543 4.29571 0.5631852
v 0.05843517 5.161913 -0.07769296
v -0.275484 3.565519 -2.601864
v -0.01363638 5.602562 0.1317969
v -0.09599767 4.395245 -0.3495903
v -0.1546737 7.07416 0.12526
v -2.565906 6.258064 1.722582
v 0.1510348 7.44681 0.02076628
v -0.4860764 6.428028 0.5230607
v 0.143764 6.999117 -0.09009029
v 1.258534 5.592319 -2.036184
v -0.007100403 7.390816 0.02216311
v 0.1633303 6.328564 -0.3764797
v -0.1149423 9.198686 -0.0392107
v -2.01051 7.554882 -1.693351
v -0.01339241 9.653197 0.1231238
v -0.4600962 8.447343 -0.08303188
v -0.007245259 9.326726 0.2779455
v 0.409337 8.302306 3.072311
v 0.04385113 9.7173 -0.01884978
v 0.1829198 8.640229 0.6999861
v -0.7609108 10.36044 1.125328
v -2.972187 11.57432 2.590005
v -0.2411274 10.70937 0.3411509
v 0.2145282 10.92739 0.02163419
v -0.7609108 10.36044 1.125328
v -0.2411274 10.70937 0.3411509
v -2.972187 11.57432 2.590005
v 0.2145282 10.92739 0.02163419
v -0.09565963 5.061844 0.02498257
v 0.1386378 5.473125 0.1635628
v -2.790349 3.783173 -0.3425437
v -0.4850432 4.333046 0.0777405
v 0.1548542 6.976057 0.1772839
v 0.1947347 7.401443 -0.06910348
v 0.9399976 5.51322 2.682294
v 0.3415981 6.220922 0.4609435
v 0.157638 9.229545 0.07541487
v -0.1367815 9.724119 -0.05382354
v 3.393197 7.663885 0.08664966
v 0.6009106 8.352187 -0.04501343
v -0.09565963 5.061844 0.02498257
v -2.790349 3.783173 -0.3425437
v 0.1386378 5.473125 0.1635628
v -0.4850432 4.333046 0.0777405
v 0.1548542 6.976057 0.1772839
v 0.9399976 5.51322 2.682294
v 0.1947347 7.401443 -0.06910348
v 0.3415981 6.220922 0.4609435
v 0.157638 9.229545 0.07541487
v 3.393197 7.663885 0.08664966
v -0.1367815 9.724119 -0.05382354
v 0.6009106 8.352187 -0.04501343
v -0.4775473 10.73707 -1.029082
v -0.1793604 10.03951 -4.58051
v 0.05300997 11.63629 -0.3431147
v 0.1226294 12.25096 0.07049655
v -0.4775473 10.73707 -1.029082
v 0.05300997 11.63629 -0.3431147
v -0.1793604 10.03951 -4.58051
v 0.1226294 12.25096 0.07049655
v -0.3181338 11.67299 -0.008475673
v 0.2608317 12.28067 0.04632714
v -5.330857 10.70736 -0.4643748
v -1.314078 10.75051 0.3802597
v -0.3181338 11.67299 -0.008475673
v -5.330857 10.70736 -0.4643748
v 0.2608317 12.28067 0.04632714
v -1.314078 10.75051 0.3802597
v 0.0240371 16.23364 -0.2524354
v 0.1418775 16.52574 0.03856851
v -1.716084 15.66677 -2.117496
v -0.3265723 15.68114 -0.552613
v -0.07613818 17.31449 -0.02761995
v 0.218652 17.74557 -0.05020303
v -2.789895 16.08077 1.094358
v -0.4231656 16.56796 0.276317
v 0.0240371 16.23364 -0.2524354
v -1.716084 15.66677 -2.117496
v 0.1418775 16.52574 0.03856851
v -0.3265723 15.68114 -0.552613
v -0.07613818 17.31449 -0.02761995
v -2.789895 16.08077 1.094358
v 0.218652 17.74557 -0.05020303
v -0.4231656 16.56796 0.276317
v -0.2025037 13.99218 -0.1764596
v 0.1882877 14.39918 0.09287874
v -3.364393 13.64519 -2.273087
v -1.038205 13.37294 -0.3173606
v -0.2025037 13.99218 -0.1764596
v -3.364393 13.64519 -2.273087
v 0.1882877 14.39918 0.09287874
v -1.038205 13.37294 -0.3173606
v -0.06775979 19.07122 -0.1653405
v 0.2588493 19.4246 -0.02302153
v -2.255337 18.38868 -1.455728
v -0.5306115 18.36757 -0.1466445
v -0.06775979 19.07122 -0.1653405
v -2.255337 18.38868 -1.455728
v 0.2588493 19.4246 -0.02302153
v -0.5306115 18.36757 -0.1466445
v -0.1596384 14.85503 -0.03273318
v 0.2875881 15.06024 -0.1312307
v -2.729256 15.14348 1.599147
v -0.7542789 14.40186 0.3554744
v -0.1596384 14.85503 -0.03273318
v -2.729256 15.14348 1.599147
v 0.2875881 15.06024 -0.1312307
v -0.7542789 14.40186 0.3554744
v -0.04378015 13.34469 -0.01564712
v 0.08035313 13.79207 0.1507577
v -2.022174 11.81187 -1.679332
v -0.4253871 12.61157 -0.06561849
v 0.07093976 13.46418 0.3023934
v 0.1402464 13.8547 0.009234028
v 0.4449355 12.3931 3.085261
v 0.2285399 12.76508 0.7170908
v -0.04378015 13.34469 -0.01564712
v -2.022174 11.81187 -1.679332
v 0.08035313 13.79207 0.1507577
v -0.4253871 12.61157 -0.06561849
v 0.07093976 13.46418 0.3023934
v 0.4449355 12.3931 3.085261
v 0.1402464 13.8547 0.009234028
v 0.2285399 12.76508 0.7170908
v 0.2302968 13.36106 0.09836354
v -0.03993965 13.87068 -0.02507661
v 3.38545 11.63914 0.0835921
v 0.6297924 12.46432 -0.03205233
v 0.2302968 13.36106 0.09836354
v 3.38545 11.63914 0.0835921
v -0.03993965 13.87068 -0.02507661
v 0.6297924 12.46432 -0.03205233
v 0.2360554 15.53636 -0.1273882
v 0.05767474 15.98374 -0.021206
v 2.096166 14.00354 -1.922359
v 0.3253976 14.80325 -0.5017297
v -0.09217001 15.65585 -0.04628855
v 0.1922176 16.04637 0.05305634
v -2.89883 14.58478 0.03675116
v -0.5209972 14.95675 0.06738847
v 0.2360554 15.53636 -0.1273882
v 2.096166 14.00354 -1.922359
v 0.05767474 15.98374 -0.021206
v 0.3253976 14.80325 -0.5017297
v -0.09217001 15.65585 -0.04628855
v -2.89883 14.58478 0.03675116
v 0.1922176 16.04637 0.05305634
v -0.5209972 14.95675 0.06738847
v 0.1048344 15.52809 0.2381893
v 0.1981244 16.03845 -0.04253844
v 0.4747164 13.79365 3.364703
v 0.2773101 14.62944 0.6169024
v 0.1048344 15.52809 0.2381893
v 0.4747164 13.79365 3.364703
v 0.1981244 16.03845 -0.04253844
v 0.2773101 14.62944 0.6169024
v 0.2624703 19.86199 -0.5207726
v 1.230026 19.65501 -1.722449
v 0.2621209 20.38085 -0.1571633
v 0.1857396 20.67361 0.03212901
v 0.2624703 19.86199 -0.5207726
v 0.2621209 20.38085 -0.1571633
v 1.230026 19.65501 -1.722449
v 0.1857396 20.67361 0.03212901
v 0.4766004 21.22732 0.09621999
v 1.005942 20.87008 1.110806
v 0.2917464 21.67425 0.03161885
v 0.2208314 21.92544 -0.05453451
v 0.4766004 21.22732 0.09621999
v 0.2917464 21.67425 0.03161885
v 1.005942 20.87008 1.110806
v 0.2208314 21.92544 -0.05453451
v -0.08021438 -0.205358 -0.4106978
v 0.2617599 23.88826 -0.03482373
v -0.04638212 -0.210712 0.455291
v 0.4119145 -0.205358 -0.07354557
v 0.2617599 23.88826 -0.03482373
v -0.4544807 -0.210712 -0.05368695
v -0.08021438 -0.205358 -0.4106978
v -0.04638212 -0.210712 0.455291
v 0.2617599 23.88826 -0.03482373
v 0.4119145 -0.205358 -0.07354557
v -0.4544807 -0.210712 -0.05368695
v 0.2617599 23.88826 -0.03482373

vn -0.6489258 -0.05743408 -0.7587891
vn -0.7197266 0.2324219 -0.6542969
vn -0.7275391 0.3356934 -0.5981445
vn -0.5976563 -0.1831055 -0.7807617
vn -0.8300781 0.276123 0.4846191
vn -0.7739258 0.3781738 0.5078125
vn -0.9189453 -0.0004272461 0.3947754
vn -0.9316406 -0.1489258 0.331543
vn 0.9750977 0.1971436 0.1013184
vn 0.9555664 0.2932129 0.03485107
vn 0.9628906 -0.05969238 0.263916
vn 0.9194336 -0.1953125 0.3410645
vn -0.2636719 0.1641846 -0.9506836
vn -0.2880859 0.2751465 -0.9169922
vn -0.1843262 -0.12854 -0.9746094
vn -0.1347656 -0.2807617 -0.9501953
vn 0.7001953 0.1552734 0.6967773
vn 0.7290039 0.2526855 0.6357422
vn 0.581543 -0.1022949 0.8071289
vn 0.4958496 -0.2366943 0.8354492
vn 0.8588867 0.06439209 -0.5078125
vn 0.8144531 0.1627197 -0.5571289
vn 0.9169922 -0.1895752 -0.3508301
vn 0.9135742 -0.3186035 -0.2531738
vn -0.9697266 0.203125 -0.1348877
vn -0.9462891 0.3103027 -0.09008789
vn -0.9672852 -0.08221436 -0.2402344
vn -0.9291992 -0.2322998 -0.2875977
vn 0.7197266 -0.2324219 0.6542969
vn 0.6489258 0.05743408 0.7587891
vn 0.7275391 -0.3356934 0.5981445
vn 0.5976563 0.1831055 0.7807617
vn 0.8300781 -0.276123 -0.4846191
vn 0.9189453 0.0004272461 -0.3947754
vn 0.7739258 -0.3781738 -0.5078125
vn 0.9316406 0.1489258 -0.331543
vn -0.9750977 -0.1971436 -0.1013184
vn -0.9628906 0.05969238 -0.263916
vn -0.9555664 -0.2932129 -0.03485107
vn -0.9194336 0.1953125 -0.3410645
vn 0.2636719 -0.1641846 0.9506836
vn 0.1843262 0.12854 0.9746094
vn 0.2880859 -0.2753906 0.9169922
vn 0.1347656 0.2807617 0.9501953
vn -0.7001953 -0.1552734 -0.6967773
vn -0.581543 0.1022949 -0.8071289
vn -0.7290039 -0.2526855 -0.6357422
vn -0.4958496 0.2366943 -0.8354492
vn -0.8588867 -0.06439209 0.5078125
vn -0.9169922 0.1895752 0.3508301
vn -0.8144531 -0.1627197 0.5571289
vn -0.9135742 0.3186035 0.2531738
vn 0.9697266 -0.203125 0.1348877
vn 0.9672852 0.08221436 0.2402344
vn 0.9462891 -0.3103027 0.09008789
vn 0.9291992 0.2322998 0.2875977
vn 0.3879395 0.4326172 0.8139648
vn 0.3735352 0.2866211 0.8823242
vn 0.3203125 -0.00567627 0.9472656
vn 0.2910156 -0.1206055 0.9492188
vn -0.3879395 -0.4326172 -0.8139648
vn -0.3203125 0.00567627 -0.9472656
vn -0.3735352 -0.2866211 -0.8823242
vn -0.2910156 0.1206055 -0.9492188
vn 0.3647461 0.2327881 -0.9013672
vn 0.3046875 0.3344727 -0.8916016
vn 0.4934082 -0.04095459 -0.8686523
vn 0.543457 -0.1864014 -0.8183594
vn -0.9663086 0.2440186 0.08032227
vn -0.9296875 0.3415527 0.1368408
vn -0.9975586 -0.01940918 -0.06854248
vn -0.9760742 -0.1601563 -0.145874
vn -0.2374268 0.2365723 0.9418945
vn -0.1782227 0.3376465 0.9243164
vn -0.3728027 -0.03546143 0.9272461
vn -0.4311523 -0.1801758 0.8842773
vn -0.3647461 -0.2327881 0.9013672
vn -0.4934082 0.04095459 0.8686523
vn -0.3046875 -0.3344727 0.8916016
vn -0.543457 0.1864014 0.8183594
vn 0.9663086 -0.2440186 -0.08032227
vn 0.9975586 0.01940918 0.06854248
vn 0.9296875 -0.3415527 -0.1368408
vn 0.9760742 0.1601563 0.145874
vn 0.2374268 -0.2365723 -0.9418945
vn 0.3728027 0.03546143 -0.9272461
vn 0.1782227 -0.3376465 -0.9243164
vn 0.4311523 0.1801758 -0.8842773
vn -0.6640625 0.5996094 -0.4470215
vn -0.7670898 0.4755859 -0.4306641
vn -0.9047852 0.2111816 -0.369873
vn -0.9360352 0.1017456 -0.3366699
vn 0.6640625 -0.5996094 0.4470215
vn 0.9047852 -0.2111816 0.369873
vn 0.7670898 -0.4755859 0.4306641
vn 0.9360352 -0.1017456 0.3366699
vn 0.4533691 -0.1119385 -0.8842773
vn 0.4362793 0.004272461 -0.8999023
vn 0.4680176 -0.4001465 -0.7880859
vn 0.458252 -0.5395508 -0.7060547
vn -0.4533691 0.1119385 0.8842773
vn -0.4680176 0.4001465 0.7880859
vn -0.4362793 -0.004272461 0.8999023
vn -0.458252 0.5395508 0.7060547
vn 0.840332 0.3354492 -0.425293
vn 0.7880859 0.4416504 -0.4291992
vn 0.9204102 0.04428101 -0.3881836
vn 0.9287109 -0.1137085 -0.3535156
vn -0.1027832 0.1734619 -0.9794922
vn -0.1463623 0.2792969 -0.9487305
vn 0.01457977 -0.1068726 -0.9941406
vn 0.07702637 -0.2531738 -0.9643555
vn -0.840332 -0.3354492 0.425293
vn -0.9204102 -0.04428101 0.3881836
vn -0.7880859 -0.4416504 0.4291992
vn -0.9287109 0.1137085 0.3535156
vn 0.1027832 -0.1734619 0.9794922
vn -0.01457977 0.1068726 0.9941406
vn 0.1463623 -0.2792969 0.9487305
vn -0.07702637 0.2531738 0.9643555
vn 0.8129883 -0.09454346 -0.5742188
vn 0.8100586 0.02337646 -0.5854492
vn 0.7680664 -0.3881836 -0.5087891
vn 0.7148438 -0.53125 -0.4545898
vn -0.8129883 0.09454346 0.5742188
vn -0.7680664 0.3881836 0.5087891
vn -0.8100586 -0.02340698 0.5854492
vn -0.7148438 0.53125 0.4545898
vn 0.7963867 -0.2202148 -0.5634766
vn 0.7963867 -0.1654053 -0.5820313
vn 0.7871094 -0.3383789 -0.5151367
vn 0.7802734 -0.3847656 -0.4934082
vn -0.7963867 0.2202148 0.5634766
vn -0.7871094 0.3383789 0.5151367
vn -0.7963867 0.1654053 0.5820313
vn -0.7802734 0.3847656 0.4934082
vn -0.1424561 0.4333496 -0.8901367
vn -0.1211548 0.5361328 -0.8354492
vn -0.1873779 0.1437988 -0.9716797
vn -0.2044678 -0.01712036 -0.9785156
vn 0.1424561 -0.4333496 0.8901367
vn 0.1873779 -0.1437988 0.9716797
vn 0.1211548 -0.5361328 0.8354492
vn 0.2044678 0.01712036 0.9785156
vn 0.8598633 0.04150391 -0.5092773
vn 0.8193359 0.1429443 -0.5551758
vn 0.9072266 -0.21875 -0.3588867
vn 0.8984375 -0.3500977 -0.2646484
vn -0.9604492 0.2474365 -0.1259766
vn -0.9326172 0.3522949 -0.07836914
vn -0.9702148 -0.03491211 -0.2387695
vn -0.9389648 -0.1851807 -0.2902832
vn -0.8598633 -0.04150391 0.5092773
vn -0.9072266 0.21875 0.3588867
vn -0.8193359 -0.1429443 0.5551758
vn -0.8984375 0.3500977 0.2646484
vn 0.9604492 -0.2474365 0.1259766
vn 0.9702148 0.03491211 0.2387695
vn 0.9326172 -0.3522949 0.07836914
vn 0.9389648 0.1851807 0.2902832
vn -0.2248535 0.2213135 0.9487305
vn -0.161499 0.3203125 0.9335938
vn -0.371582 -0.04428101 0.9272461
vn -0.4362793 -0.1851807 0.8803711
vn 0.2248535 -0.2213135 -0.9487305
vn 0.371582 0.04428101 -0.9272461
vn 0.161499 -0.3203125 -0.9335938
vn 0.4362793 0.1851807 -0.8803711
vn 0.4172363 0.04150391 0.9077148
vn 0.4672852 0.1429443 0.8725586
vn 0.2629395 -0.21875 0.9399414
vn 0.1700439 -0.3500977 0.9208984
vn 0.2250977 0.2474365 -0.9423828
vn 0.1748047 0.3522949 -0.9194336
vn 0.3383789 -0.03491211 -0.9404297
vn 0.3862305 -0.1851807 -0.9038086
vn -0.4172363 -0.04150391 -0.9077148
vn -0.2629395 0.21875 -0.9399414
vn -0.4672852 -0.1429443 -0.8725586
vn -0.1700439 0.3500977 -0.9208984
vn -0.2250977 -0.2474365 0.9423828
vn -0.3383789 0.03491211 0.9404297
vn -0.1748047 -0.3522949 0.9194336
vn -0.3862305 0.1851807 0.9038086
vn -0.9682617 0.2233887 -0.1139526
vn -0.9453125 0.3220215 -0.05230713
vn -0.9638672 -0.04159546 -0.2634277
vn -0.9248047 -0.182251 -0.3334961
vn 0.9682617 -0.2233887 0.1139526
vn 0.9638672 0.04159546 0.2634277
vn 0.9453125 -0.3220215 0.05230713
vn 0.9248047 0.182251 0.3334961
vn -0.4077148 0.4272461 -0.8071289
vn -0.4467773 0.364502 -0.8168945
vn -0.5234375 0.2202148 -0.8232422
vn -0.550293 0.15979 -0.8193359
vn 0.4077148 -0.4272461 0.8071289
vn 0.5234375 -0.2202148 0.8232422
vn 0.4467773 -0.364502 0.8168945
vn 0.550293 -0.15979 0.8193359
vn 0.9492188 0.3144531 -0.01490021
vn 0.965332 0.2546387 -0.05667114
vn 0.9819336 0.1193848 -0.1467285
vn 0.9814453 0.06329346 -0.182251
vn -0.9492188 -0.3144531 0.01490021
vn -0.9819336 -0.1193848 0.1467285
vn -0.965332 -0.2546387 0.05667114
vn -0.9814453 -0.06329346 0.182251
vn -0.9482422 0.0135498 -0.3168945
vn -0.439209 0.01071167 -0.8984375
vn -0.9482422 0.0135498 -0.3168945
vn 0.3322754 0.001434326 -0.9433594
vn -0.439209 0.01071167 -0.8984375
vn 0.3322754 0.001434326 -0.9433594
vn 0.9482422 -0.0135498 0.3168945
vn 0.9482422 -0.0135498 0.3168945
vn 0.439209 -0.01071167 0.8984375
vn -0.3322754 -0.001434326 0.9433594
vn -0.3322754 -0.001434326 0.9433594
vn 0.439209 -0.01071167 0.8984375

vt 0.8422852 0.7006836
vt 0.9926758 0.2159424
vt 0.9921875 0.08068848
vt 0.9970703 0.3566895
vt 0.9926758 0.2159424
vt 0.9921875 0.08068848
vt 0.8422852 0.7006836
vt 0.9970703 0.3566895
vt 0.9926758 0.2159424
vt 0.9921875 0.08068848
vt 0.8422852 0.7006836
vt 0.9970703 0.3566895
vt 0.9926758 0.2159424
vt 0.9921875 0.08068848
vt 0.8422852 0.7006836
vt 0.9970703 0.3566895
vt 0.9926758 0.2159424
vt 0.9921875 0.08068848
vt 0.8422852 0.7006836
vt 0.9970703 0.3566895
vt 0.9926758 0.2159424
vt 0.9921875 0.08068848
vt 0.8422852 0.7006836
vt 0.9970703 0.3566895
vt 0.9926758 0.2159424
vt 0.9921875 0.08068848
vt 0.8422852 0.7006836
vt 0.9970703 0.3566895
vt 0.9926758 0.2159424
vt 0.8422852 0.7006836
vt 0.9921875 0.08068848
vt 0.9970703 0.3566895
vt 0.9926758 0.2159424
vt 0.8422852 0.7006836
vt 0.9921875 0.08068848
vt 0.9970703 0.3566895
vt 0.9926758 0.2159424
vt 0.8422852 0.7006836
vt 0.9921875 0.08068848
vt 0.9970703 0.3566895
vt 0.9926758 0.2159424
vt 0.8422852 0.7006836
vt 0.9921875 0.08068848
vt 0.9970703 0.3566895
vt 0.9926758 0.2159424
vt 0.8422852 0.7006836
vt 0.9921875 0.08068848
vt 0.9970703 0.3566895
vt 0.9926758 0.2159424
vt 0.8422852 0.7006836
vt 0.9921875 0.08068848
vt 0.9970703 0.3566895
vt 0.9926758 0.2159424
vt 0.8422852 0.7006836
vt 0.9921875 0.08068848
vt 0.9970703 0.3566895
vt 0.9970703 0.3566895
vt 0.8422852 0.7006836
vt 0.9926758 0.2159424
vt 0.9921875 0.08068848
vt 0.9970703 0.3566895
vt 0.9926758 0.2159424
vt 0.8422852 0.7006836
vt 0.9921875 0.08068848
vt 0.9926758 0.2159424
vt 0.9921875 0.08068848
vt 0.8422852 0.7006836
vt 0.9970703 0.3566895
vt 0.9926758 0.2159424
vt 0.9921875 0.08068848
vt 0.8422852 0.7006836
vt 0.9970703 0.3566895
vt 0.9926758 0.2159424
vt 0.9921875 0.08068848
vt 0.8422852 0.7006836
vt 0.9970703 0.3566895
vt 0.9926758 0.2159424
vt 0.8422852 0.7006836
vt 0.9921875 0.08068848
vt 0.9970703 0.3566895
vt 0.9926758 0.2159424
vt 0.8422852 0.7006836
vt 0.9921875 0.08068848
vt 0.9970703 0.3566895
vt 0.9926758 0.2159424
vt 0.8422852 0.7006836
vt 0.9921875 0.08068848
vt 0.9970703 0.3566895
vt 0.9970703 0.3566895
vt 0.8422852 0.7006836
vt 0.9926758 0.2159424
vt 0.9921875 0.08068848
vt 0.9970703 0.3566895
vt 0.9926758 0.2159424
vt 0.8422852 0.7006836
vt 0.9921875 0.08068848
vt 0.9926758 0.2159424
vt 0.9921875 0.08068848
vt 0.8422852 0.7006836
vt 0.9970703 0.3566895
vt 0.9926758 0.2159424
vt 0.8422852 0.7006836
vt 0.9921875 0.08068848
vt 0.9970703 0.3566895
vt 0.9926758 0.2159424
vt 0.9921875 0.08068848
vt 0.8422852 0.7006836
vt 0.9970703 0.3566895
vt 0.9926758 0.2159424
vt 0.9921875 0.08068848
vt 0.8422852 0.7006836
vt 0.9970703 0.3566895
vt 0.9926758 0.2159424
vt 0.8422852 0.7006836
vt 0.9921875 0.08068848
vt 0.9970703 0.3566895
vt 0.9926758 0.2159424
vt 0.8422852 0.7006836
vt 0.9921875 0.08068848
vt 0.9970703 0.3566895
vt 0.9926758 0.2159424
vt 0.9921875 0.08068848
vt 0.8422852 0.7006836
vt 0.9970703 0.3566895
vt 0.9926758 0.2159424
vt 0.8422852 0.7006836
vt 0.9921875 0.08068848
vt 0.9970703 0.3566895
vt 0.9926758 0.2159424
vt 0.9921875 0.08068848
vt 0.8422852 0.7006836
vt 0.9970703 0.3566895
vt 0.9926758 0.2159424
vt 0.8422852 0.7006836
vt 0.9921875 0.08068848
vt 0.9970703 0.3566895
vt 0.9926758 0.2159424
vt 0.9921875 0.08068848
vt 0.8422852 0.7006836
vt 0.9970703 0.3566895
vt 0.9926758 0.2159424
vt 0.8422852 0.7006836
vt 0.9921875 0.08068848
vt 0.9970703 0.3566895
vt 0.9926758 0.2159424
vt 0.9921875 0.08068848
vt 0.8422852 0.7006836
vt 0.9970703 0.3566895
vt 0.9926758 0.2159424
vt 0.9921875 0.08068848
vt 0.8422852 0.7006836
vt 0.9970703 0.3566895
vt 0.9926758 0.2159424
vt 0.8422852 0.7006836
vt 0.9921875 0.08068848
vt 0.9970703 0.3566895
vt 0.9926758 0.2159424
vt 0.8422852 0.7006836
vt 0.9921875 0.08068848
vt 0.9970703 0.3566895
vt 0.9926758 0.2159424
vt 0.9921875 0.08068848
vt 0.8422852 0.7006836
vt 0.9970703 0.3566895
vt 0.9926758 0.2159424
vt 0.8422852 0.7006836
vt 0.9921875 0.08068848
vt 0.9970703 0.3566895
vt 0.9926758 0.2159424
vt 0.9921875 0.08068848
vt 0.8422852 0.7006836
vt 0.9970703 0.3566895
vt 0.9926758 0.2159424
vt 0.9921875 0.08068848
vt 0.8422852 0.7006836
vt 0.9970703 0.3566895
vt 0.9926758 0.2159424
vt 0.8422852 0.7006836
vt 0.9921875 0.08068848
vt 0.9970703 0.3566895
vt 0.9926758 0.2159424
vt 0.8422852 0.7006836
vt 0.9921875 0.08068848
vt 0.9970703 0.3566895
vt 0.9926758 0.2159424
vt 0.9921875 0.08068848
vt 0.8422852 0.7006836
vt 0.9970703 0.3566895
vt 0.9926758 0.2159424
vt 0.8422852 0.7006836
vt 0.9921875 0.08068848
vt 0.9970703 0.3566895
vt 0.9970703 0.3566895
vt 0.8422852 0.7006836
vt 0.9926758 0.2159424
vt 0.9921875 0.08068848
vt 0.9970703 0.3566895
vt 0.9926758 0.2159424
vt 0.8422852 0.7006836
vt 0.9921875 0.08068848
vt 0.9970703 0.3566895
vt 0.8422852 0.7006836
vt 0.9926758 0.2159424
vt 0.9921875 0.08068848
vt 0.9970703 0.3566895
vt 0.9926758 0.2159424
vt 0.8422852 0.7006836
vt 0.9921875 0.08068848
vt 0.9433594 0.3640137
vt 0.9321289 0.4221191
vt 0.9516602 0.3674316
vt 0.9433594 0.3640137
vt 0.9321289 0.4221191
vt 0.9516602 0.3674316
vt 0.9433594 0.3640137
vt 0.9516602 0.3674316
vt 0.9321289 0.4221191
vt 0.9433594 0.3640137
vt 0.9516602 0.3674316
vt 0.9321289 0.4221191

g MEP_Con_01_h_LOD_01(Clone)_12924_351
usemtl MEP_Con_01_h_LOD_01(Clone)_12924_351
usemap MEP_Con_01_h_LOD_01(Clone)_12924_351
f 1/1/1 3/3/3 2/2/2
f 4/4/4 1/1/1 2/2/2
f 5/5/5 7/7/7 6/6/6
f 8/8/8 7/7/7 5/5/5
f 9/9/9 11/11/11 10/10/10
f 12/12/12 11/11/11 9/9/9
f 13/13/13 15/15/15 14/14/14
f 16/16/16 15/15/15 13/13/13
f 17/17/17 19/19/19 18/18/18
f 20/20/20 19/19/19 17/17/17
f 21/21/21 23/23/23 22/22/22
f 24/24/24 23/23/23 21/21/21
f 25/25/25 27/27/27 26/26/26
f 28/28/28 27/27/27 25/25/25
f 29/29/29 31/31/31 30/30/30
f 32/32/32 29/29/29 30/30/30
f 33/33/33 35/35/35 34/34/34
f 36/36/36 33/33/33 34/34/34
f 37/37/37 39/39/39 38/38/38
f 40/40/40 37/37/37 38/38/38
f 41/41/41 43/43/43 42/42/42
f 44/44/44 41/41/41 42/42/42
f 45/45/45 47/47/47 46/46/46
f 48/48/48 45/45/45 46/46/46
f 49/49/49 51/51/51 50/50/50
f 52/52/52 49/49/49 50/50/50
f 53/53/53 55/55/55 54/54/54
f 56/56/56 53/53/53 54/54/54
f 57/57/57 59/59/59 58/58/58
f 59/59/59 60/60/60 58/58/58
f 61/61/61 63/63/63 62/62/62
f 62/62/62 63/63/63 64/64/64
f 65/65/65 67/67/67 66/66/66
f 68/68/68 67/67/67 65/65/65
f 69/69/69 71/71/71 70/70/70
f 72/72/72 71/71/71 69/69/69
f 73/73/73 75/75/75 74/74/74
f 76/76/76 75/75/75 73/73/73
f 77/77/77 79/79/79 78/78/78
f 80/80/80 77/77/77 78/78/78
f 81/81/81 83/83/83 82/82/82
f 84/84/84 81/81/81 82/82/82
f 85/85/85 87/87/87 86/86/86
f 88/88/88 85/85/85 86/86/86
f 89/89/89 91/91/91 90/90/90
f 91/91/91 92/92/92 90/90/90
f 93/93/93 95/95/95 94/94/94
f 94/94/94 95/95/95 96/96/96
f 97/97/97 99/99/99 98/98/98
f 100/100/100 99/99/99 97/97/97
f 101/101/101 103/103/103 102/102/102
f 104/104/104 101/101/101 102/102/102
f 105/105/105 107/107/107 106/106/106
f 108/108/108 107/107/107 105/105/105
f 109/109/109 111/111/111 110/110/110
f 112/112/112 111/111/111 109/109/109
f 113/113/113 115/115/115 114/114/114
f 116/116/116 113/113/113 114/114/114
f 117/117/117 119/119/119 118/118/118
f 120/120/120 117/117/117 118/118/118
f 121/121/121 123/123/123 122/122/122
f 124/124/124 123/123/123 121/121/121
f 125/125/125 127/127/127 126/126/126
f 128/128/128 125/125/125 126/126/126
f 129/129/129 131/131/131 130/130/130
f 132/132/132 131/131/131 129/129/129
f 133/133/133 135/135/135 134/134/134
f 136/136/136 133/133/133 134/134/134
f 137/137/137 139/139/139 138/138/138
f 140/140/140 139/139/139 137/137/137
f 141/141/141 143/143/143 142/142/142
f 144/144/144 141/141/141 142/142/142
f 145/145/145 147/147/147 146/146/146
f 148/148/148 147/147/147 145/145/145
f 149/149/149 151/151/151 150/150/150
f 152/152/152 151/151/151 149/149/149
f 153/153/153 155/155/155 154/154/154
f 156/156/156 153/153/153 154/154/154
f 157/157/157 159/159/159 158/158/158
f 160/160/160 157/157/157 158/158/158
f 161/161/161 163/163/163 162/162/162
f 164/164/164 163/163/163 161/161/161
f 165/165/165 167/167/167 166/166/166
f 168/168/168 165/165/165 166/166/166
f 169/169/169 171/171/171 170/170/170
f 172/172/172 171/171/171 169/169/169
f 173/173/173 175/175/175 174/174/174
f 176/176/176 175/175/175 173/173/173
f 177/177/177 179/179/179 178/178/178
f 180/180/180 177/177/177 178/178/178
f 181/181/181 183/183/183 182/182/182
f 184/184/184 181/181/181 182/182/182
f 185/185/185 187/187/187 186/186/186
f 188/188/188 187/187/187 185/185/185
f 189/189/189 191/191/191 190/190/190
f 192/192/192 189/189/189 190/190/190
f 193/193/193 195/195/195 194/194/194
f 195/195/195 196/196/196 194/194/194
f 197/197/197 199/199/199 198/198/198
f 198/198/198 199/199/199 200/200/200
f 201/201/201 203/203/203 202/202/202
f 203/203/203 204/204/204 202/202/202
f 205/205/205 207/207/207 206/206/206
f 206/206/206 207/207/207 208/208/208
f 209/209/209 211/211/211 210/210/210
f 212/212/212 214/214/214 213/213/213
f 215/215/215 217/217/217 216/216/216
f 218/218/218 220/220/220 219/219/219
