#MEP_Con_01_f_LOD_02(Clone)_14523_403.obj

v 1.207708 11.8727 -1.938231
v -1.258476 20.74399 1.482489
v 0.3704484 11.94678 2.3099
v 1.792844 20.68254 -1.119153
v -2.081306 11.88785 -0.7484997
v 1.608234 20.67806 0.7281452
v 2.488708 11.75238 0.9168317
v -1.39614 20.76712 -0.3666751
v -2.139319 6.102907 5.123929
v 2.138227 5.805046 -4.677752
v 1.279131 14.63286 -2.889723
v 0.4644315 14.15287 2.291832
v -4.344416 6.037307 -2.191814
v 4.661145 6.037306 3.588142
v 2.389125 14.78854 1.609296
v -2.410116 14.83608 -1.032912
v 1.207708 11.8727 -1.938231
v 0.3704484 11.94678 2.3099
v -1.258476 20.74399 1.482489
v 1.792844 20.68254 -1.119153
v -2.081306 11.88785 -0.7484997
v 2.488708 11.75238 0.9168317
v 1.608234 20.67806 0.7281452
v -1.39614 20.76712 -0.3666751
v -2.139319 6.102907 5.123929
v 1.279131 14.63286 -2.889723
v 2.138227 5.805046 -4.677752
v 0.4644315 14.15287 2.291832
v -4.344416 6.037307 -2.191814
v 2.389125 14.78854 1.609296
v 4.661145 6.037306 3.588142
v -2.410116 14.83608 -1.032912
v -0.05435203 -0.137548 -0.4407661
v 0.2283067 19.82228 0.168063
v -0.02298071 -0.1425118 0.3622159
v 0.4019921 -0.137548 -0.1281472
v 0.2283067 19.82228 0.168063
v -0.4014102 -0.1425118 -0.1097354
v -0.05435203 -0.137548 -0.4407661
v -0.02298071 -0.1425118 0.3622159
v 0.2283067 19.82228 0.168063
v 0.4019921 -0.137548 -0.1281472
v -0.4014102 -0.1425118 -0.1097354
v 0.2283067 19.82228 0.168063

vn -0.8579102 -0.1195679 -0.4995117
vn -0.6694336 0.02542114 -0.7421875
vn -0.9213867 -0.1958008 -0.3361816
vn -0.515625 0.1130981 -0.8491211
vn -0.4868164 -0.01394653 0.8735352
vn -0.4868164 -0.01394653 0.8735352
vn -0.4868164 -0.01394653 0.8735352
vn -0.4868164 -0.01394653 0.8735352
vn -0.8842773 0.08380127 -0.4597168
vn -0.8417969 -0.008209229 -0.5395508
vn -0.8925781 0.1067505 -0.4382324
vn -0.9243164 0.2648926 -0.2751465
vn 0.6479492 -0.02877808 -0.7612305
vn 0.6655273 -0.04998779 -0.7446289
vn 0.6430664 -0.02337646 -0.7651367
vn 0.6147461 0.009307861 -0.7885742
vn 0.8579102 0.1195679 0.4995117
vn 0.9213867 0.1958008 0.3361816
vn 0.6694336 -0.02542114 0.7421875
vn 0.515625 -0.1130981 0.8491211
vn 0.4868164 0.01394653 -0.8735352
vn 0.4868164 0.01394653 -0.8735352
vn 0.4868164 0.01394653 -0.8735352
vn 0.4868164 0.01394653 -0.8735352
vn 0.8842773 -0.08380127 0.4597168
vn 0.8925781 -0.1067505 0.4382324
vn 0.8417969 0.008209229 0.5395508
vn 0.9243164 -0.2648926 0.2751465
vn -0.6479492 0.02877808 0.7612305
vn -0.6430664 0.02337646 0.7651367
vn -0.6655273 0.04998779 0.7446289
vn -0.6147461 -0.009307861 0.7885742
vn -0.9926758 0.01293945 -0.1192627
vn -0.6113281 0.01965332 -0.7910156
vn -0.9926758 0.01293945 -0.1192627
vn 0.1352539 0.01461792 -0.9907227
vn -0.6113281 0.01965332 -0.7910156
vn 0.1352539 0.01461792 -0.9907227
vn 0.9926758 -0.01293945 0.1192627
vn 0.9926758 -0.01293945 0.1192627
vn 0.6113281 -0.01965332 0.7910156
vn -0.1352539 -0.01461792 0.9907227
vn -0.1352539 -0.01461792 0.9907227
vn 0.6113281 -0.01965332 0.7910156

vt 0.001989365 0.007873535
vt 0.7783203 0.996582
vt 0.9863281 0.002599716
vt 0.1824951 0.9921875
vt 0.001989365 0.007873535
vt 0.7783203 0.996582
vt 0.9863281 0.002599716
vt 0.1824951 0.9921875
vt 0.001989365 0.007873535
vt 0.9863281 0.002599716
vt 0.7783203 0.996582
vt 0.1824951 0.9921875
vt 0.001989365 0.007873535
vt 0.9863281 0.002599716
vt 0.7783203 0.996582
vt 0.1824951 0.9921875
vt 0.001989365 0.007873535
vt 0.9863281 0.002599716
vt 0.7783203 0.996582
vt 0.1824951 0.9921875
vt 0.001989365 0.007873535
vt 0.9863281 0.002599716
vt 0.7783203 0.996582
vt 0.1824951 0.9921875
vt 0.001989365 0.007873535
vt 0.7783203 0.996582
vt 0.9863281 0.002599716
vt 0.1824951 0.9921875
vt 0.001989365 0.007873535
vt 0.7783203 0.996582
vt 0.9863281 0.002599716
vt 0.1824951 0.9921875
vt 0.9433594 0.3640137
vt 0.9321289 0.4221191
vt 0.9516602 0.3674316
vt 0.9433594 0.3640137
vt 0.9321289 0.4221191
vt 0.9516602 0.3674316
vt 0.9433594 0.3640137
vt 0.9516602 0.3674316
vt 0.9321289 0.4221191
vt 0.9433594 0.3640137
vt 0.9516602 0.3674316
vt 0.9321289 0.4221191

g MEP_Con_01_f_LOD_02(Clone)_14523_403
usemtl MEP_Con_01_f_LOD_02(Clone)_14523_403
usemap MEP_Con_01_f_LOD_02(Clone)_14523_403
f 1/1/1 3/3/3 2/2/2
f 4/4/4 1/1/1 2/2/2
f 5/5/5 7/7/7 6/6/6
f 8/8/8 5/5/5 6/6/6
f 9/9/9 11/11/11 10/10/10
f 12/12/12 11/11/11 9/9/9
f 13/13/13 15/15/15 14/14/14
f 16/16/16 15/15/15 13/13/13
f 17/17/17 19/19/19 18/18/18
f 20/20/20 19/19/19 17/17/17
f 21/21/21 23/23/23 22/22/22
f 24/24/24 23/23/23 21/21/21
f 25/25/25 27/27/27 26/26/26
f 28/28/28 25/25/25 26/26/26
f 29/29/29 31/31/31 30/30/30
f 32/32/32 29/29/29 30/30/30
f 33/33/33 35/35/35 34/34/34
f 36/36/36 38/38/38 37/37/37
f 39/39/39 41/41/41 40/40/40
f 42/42/42 44/44/44 43/43/43
