#MEP_Con_01_f_LOD_02(Clone)_14627_330.obj

v 1.207709 11.8727 -1.93825
v -1.258466 20.74399 1.482497
v 0.3704686 11.94678 2.3099
v 1.792844 20.68254 -1.119147
v -2.081305 11.88785 -0.748512
v 1.608263 20.67806 0.7281342
v 2.488726 11.75238 0.9168365
v -1.396127 20.76712 -0.3666843
v -2.139299 6.102907 5.123927
v 2.138239 5.805046 -4.677754
v 1.279135 14.63286 -2.88972
v 0.4644343 14.15287 2.29184
v -4.3444 6.037307 -2.191813
v 4.661155 6.037306 3.588143
v 2.38913 14.78854 1.609289
v -2.410112 14.83608 -1.032908
v 1.207709 11.8727 -1.93825
v 0.3704686 11.94678 2.3099
v -1.258466 20.74399 1.482497
v 1.792844 20.68254 -1.119147
v -2.081305 11.88785 -0.748512
v 2.488726 11.75238 0.9168365
v 1.608263 20.67806 0.7281342
v -1.396127 20.76712 -0.3666843
v -2.139299 6.102907 5.123927
v 1.279135 14.63286 -2.88972
v 2.138239 5.805046 -4.677754
v 0.4644343 14.15287 2.29184
v -4.3444 6.037307 -2.191813
v 2.38913 14.78854 1.609289
v 4.661155 6.037306 3.588143
v -2.410112 14.83608 -1.032908
v -0.05432305 -0.137548 -0.4407641
v 0.2283368 19.82228 0.1680713
v -0.02294906 -0.142512 0.3622161
v 0.4019883 -0.137548 -0.128154
v 0.2283368 19.82228 0.1680713
v -0.4013816 -0.142512 -0.1097327
v -0.05432305 -0.137548 -0.4407641
v -0.02294906 -0.142512 0.3622161
v 0.2283368 19.82228 0.1680713
v 0.4019883 -0.137548 -0.128154
v -0.4013816 -0.142512 -0.1097327
v 0.2283368 19.82228 0.1680713

vn 0.09649658 -0.1195679 -0.9882813
vn 0.395752 0.02542114 -0.9179688
vn -0.07843018 -0.1958008 -0.9775391
vn 0.5571289 0.1130981 -0.8227539
vn -0.996582 -0.01394653 -0.07855225
vn -0.996582 -0.01394653 -0.07855225
vn -0.996582 -0.01394653 -0.07855225
vn -0.996582 -0.01394653 -0.07855225
vn 0.04934692 0.08380127 -0.9951172
vn 0.1396484 -0.008209229 -0.9902344
vn 0.02653503 0.1067505 -0.9941406
vn -0.1348877 0.2648926 -0.9545898
vn 0.9619141 -0.02877808 0.2717285
vn 0.9541016 -0.04998779 0.2946777
vn 0.9638672 -0.02337646 0.2658691
vn 0.9731445 0.009307861 0.2301025
vn -0.09649658 0.1195679 0.9882813
vn 0.07843018 0.1958008 0.9775391
vn -0.395752 -0.02542114 0.9179688
vn -0.5571289 -0.1130981 0.8227539
vn 0.996582 0.01394653 0.07855225
vn 0.996582 0.01394653 0.07855225
vn 0.996582 0.01394653 0.07855225
vn 0.996582 0.01394653 0.07855225
vn -0.04934692 -0.08380127 0.9951172
vn -0.02653503 -0.1067505 0.9941406
vn -0.1396484 0.008209229 0.9902344
vn 0.1348877 -0.2648926 0.9545898
vn -0.9619141 0.02877808 -0.2717285
vn -0.9638672 0.02337646 -0.2658691
vn -0.9541016 0.04998779 -0.2946777
vn -0.9731445 -0.009307861 -0.2301025
vn -0.3054199 0.01293945 -0.9521484
vn 0.4643555 0.01965332 -0.8852539
vn -0.3054199 0.01293945 -0.9521484
vn 0.9570313 0.01461792 -0.2900391
vn 0.4643555 0.01965332 -0.8852539
vn 0.9570313 0.01461792 -0.2900391
vn 0.3054199 -0.01293945 0.9521484
vn 0.3054199 -0.01293945 0.9521484
vn -0.4643555 -0.01965332 0.8852539
vn -0.9570313 -0.01461792 0.2900391
vn -0.9570313 -0.01461792 0.2900391
vn -0.4643555 -0.01965332 0.8852539

vt 0.001989365 0.007873535
vt 0.7783203 0.996582
vt 0.9863281 0.002599716
vt 0.1824951 0.9921875
vt 0.001989365 0.007873535
vt 0.7783203 0.996582
vt 0.9863281 0.002599716
vt 0.1824951 0.9921875
vt 0.001989365 0.007873535
vt 0.9863281 0.002599716
vt 0.7783203 0.996582
vt 0.1824951 0.9921875
vt 0.001989365 0.007873535
vt 0.9863281 0.002599716
vt 0.7783203 0.996582
vt 0.1824951 0.9921875
vt 0.001989365 0.007873535
vt 0.9863281 0.002599716
vt 0.7783203 0.996582
vt 0.1824951 0.9921875
vt 0.001989365 0.007873535
vt 0.9863281 0.002599716
vt 0.7783203 0.996582
vt 0.1824951 0.9921875
vt 0.001989365 0.007873535
vt 0.7783203 0.996582
vt 0.9863281 0.002599716
vt 0.1824951 0.9921875
vt 0.001989365 0.007873535
vt 0.7783203 0.996582
vt 0.9863281 0.002599716
vt 0.1824951 0.9921875
vt 0.9433594 0.3640137
vt 0.9321289 0.4221191
vt 0.9516602 0.3674316
vt 0.9433594 0.3640137
vt 0.9321289 0.4221191
vt 0.9516602 0.3674316
vt 0.9433594 0.3640137
vt 0.9516602 0.3674316
vt 0.9321289 0.4221191
vt 0.9433594 0.3640137
vt 0.9516602 0.3674316
vt 0.9321289 0.4221191

g MEP_Con_01_f_LOD_02(Clone)_14627_330
usemtl MEP_Con_01_f_LOD_02(Clone)_14627_330
usemap MEP_Con_01_f_LOD_02(Clone)_14627_330
f 1/1/1 3/3/3 2/2/2
f 4/4/4 1/1/1 2/2/2
f 5/5/5 7/7/7 6/6/6
f 8/8/8 5/5/5 6/6/6
f 9/9/9 11/11/11 10/10/10
f 12/12/12 11/11/11 9/9/9
f 13/13/13 15/15/15 14/14/14
f 16/16/16 15/15/15 13/13/13
f 17/17/17 19/19/19 18/18/18
f 20/20/20 19/19/19 17/17/17
f 21/21/21 23/23/23 22/22/22
f 24/24/24 23/23/23 21/21/21
f 25/25/25 27/27/27 26/26/26
f 28/28/28 25/25/25 26/26/26
f 29/29/29 31/31/31 30/30/30
f 32/32/32 29/29/29 30/30/30
f 33/33/33 35/35/35 34/34/34
f 36/36/36 38/38/38 37/37/37
f 39/39/39 41/41/41 40/40/40
f 42/42/42 44/44/44 43/43/43
