#MEP_ConTrunk_01_f_12823_189.obj

v 0.0009533424 -0.277461 0.6593245
v -0.5683907 -0.277461 0.3306392
v 0.002474752 0.571019 0.3749719
v -0.3262139 0.561558 0.1844387
v -0.08080768 8.782871 0.2617831
v 0.1649271 8.784748 0.2726205
v -0.1732273 8.739295 0.01501885
v 0.301242 20.26084 0.2109562
v 0.301242 20.26084 0.2109562
v -0.5683942 -0.277461 -0.3267904
v 0.004031636 0.553398 -0.3850589
v -0.3254592 0.552746 -0.1956065
v 0.0009547796 -0.277461 -0.6555042
v 0.08505268 8.728449 -0.1873223
v -0.1732273 8.739295 0.01501885
v 0.301242 20.26084 0.2109562
v -0.5683907 -0.277461 0.3306392
v -0.3254592 0.552746 -0.1956065
v -0.3262139 0.561558 0.1844387
v -0.5683942 -0.277461 -0.3267904
v -0.1732273 8.739295 0.01501885
v 0.5702997 -0.277461 -0.3267883
v 0.332745 0.562858 -0.1944654
v 0.0009547796 -0.277461 -0.6555042
v 0.004031636 0.553398 -0.3850589
v 0.08505268 8.728449 -0.1873223
v 0.3167092 8.777877 0.03188511
v 0.301242 20.26084 0.2109562
v 0.5702997 -0.277461 -0.3267883
v 0.5702947 -0.277461 0.3306109
v 0.332745 0.562858 -0.1944654
v 0.3319436 0.57167 0.1855507
v 0.0009533424 -0.277461 0.6593245
v 0.002474752 0.571019 0.3749719
v 0.1649271 8.784748 0.2726205
v 0.3167092 8.777877 0.03188511
v 0.301242 20.26084 0.2109562

vn -0.02905273 0.3173828 0.9477539
vn -0.8344727 0.3193359 0.4487305
vn -0.03305054 0.1719971 0.984375
vn -0.8706055 0.1781006 0.458252
vn -0.6152344 0.02322388 0.7880859
vn 0.4353027 0.006652832 0.9003906
vn -0.9526367 0.03915405 -0.3015137
vn 0.01951599 0.9995117 0.01218414
vn 0.01951599 0.9995117 0.01218414
vn -0.8081055 0.3156738 -0.4968262
vn 0.02812195 0.1777344 -0.9838867
vn -0.8334961 0.1810303 -0.5214844
vn 0.02700806 0.3085938 -0.9506836
vn 0.07330322 0.03442383 -0.996582
vn -0.9526367 0.03915405 -0.3015137
vn 0.01951599 0.9995117 0.01218414
vn -0.8344727 0.3193359 0.4487305
vn -0.8334961 0.1810303 -0.5214844
vn -0.8706055 0.1781006 0.458252
vn -0.8081055 0.3156738 -0.4968262
vn -0.9526367 0.03915405 -0.3015137
vn 0.8383789 0.3078613 -0.449707
vn 0.8662109 0.1693115 -0.4702148
vn 0.02700806 0.3085938 -0.9506836
vn 0.02812195 0.1777344 -0.9838867
vn 0.07330322 0.03442383 -0.996582
vn 0.9951172 0.01202393 -0.09790039
vn 0.01951599 0.9995117 0.01218414
vn 0.8383789 0.3078613 -0.449707
vn 0.8071289 0.3127441 0.5004883
vn 0.8662109 0.1693115 -0.4702148
vn 0.8393555 0.1663818 0.5170898
vn -0.02905273 0.3173828 0.9477539
vn -0.03305054 0.1719971 0.984375
vn 0.4353027 0.006652832 0.9003906
vn 0.9951172 0.01202393 -0.09790039
vn 0.01951599 0.9995117 0.01218414

vt 0.333252 0.003404617
vt 0.166748 0.003404617
vt 0.333252 0.2583008
vt 0.166748 0.2575684
vt 0.166748 2.626953
vt 0.333252 2.626953
vt 5.799532E-05 2.625
vt 0.166748 6.253906
vt 5.799532E-05 6.253906
vt 1 0.003404617
vt 0.8334961 0.2558594
vt 1 0.2563477
vt 0.8334961 0.003404617
vt 0.7290039 2.625
vt 1 2.625
vt 0.8334961 6.253906
vt 0.166748 0.003404617
vt 5.799532E-05 0.2563477
vt 0.166748 0.2575684
vt 5.799532E-05 0.003404617
vt 5.799532E-05 2.625
vt 0.6665039 0.003404617
vt 0.6665039 0.2563477
vt 0.8334961 0.003404617
vt 0.8334961 0.2558594
vt 0.7290039 2.625
vt 0.5 2.626953
vt 0.5 6.253906
vt 0.6665039 0.003404617
vt 0.5 0.003404617
vt 0.6665039 0.2563477
vt 0.5 0.2575684
vt 0.333252 0.003404617
vt 0.333252 0.2583008
vt 0.333252 2.626953
vt 0.5 2.626953
vt 0.333252 6.253906

g MEP_ConTrunk_01_f_12823_189
usemtl MEP_ConTrunk_01_f_12823_189
usemap MEP_ConTrunk_01_f_12823_189
f 1/1/1 3/3/3 2/2/2
f 3/3/3 4/4/4 2/2/2
f 4/4/4 3/3/3 5/5/5
f 3/3/3 6/6/6 5/5/5
f 4/4/4 5/5/5 7/7/7
f 6/6/6 8/8/8 5/5/5
f 5/5/5 9/9/9 7/7/7
f 10/10/10 12/12/12 11/11/11
f 13/13/13 10/10/10 11/11/11
f 11/11/11 12/12/12 14/14/14
f 12/12/12 15/15/15 14/14/14
f 15/15/15 16/16/16 14/14/14
f 17/17/17 19/19/19 18/18/18
f 20/20/20 17/17/17 18/18/18
f 18/18/18 19/19/19 21/21/21
f 22/22/22 24/24/24 23/23/23
f 24/24/24 25/25/25 23/23/23
f 25/25/25 26/26/26 23/23/23
f 23/23/23 26/26/26 27/27/27
f 26/26/26 28/28/28 27/27/27
f 29/29/29 31/31/31 30/30/30
f 31/31/31 32/32/32 30/30/30
f 30/30/30 32/32/32 33/33/33
f 32/32/32 34/34/34 33/33/33
f 34/34/34 32/32/32 35/35/35
f 32/32/32 36/36/36 35/35/35
f 32/32/32 31/31/31 36/36/36
f 36/36/36 37/37/37 35/35/35
