#MEP_ConTrunk_01_d_14798_103.obj

v 0.0009192429 -0.251342 0.6357675
v -0.5480666 -0.251342 0.3188014
v 0.0001566995 0.516072 0.3713627
v -0.319456 0.507429 0.1860761
v -0.08487325 10.50702 0.4098544
v 0.1915593 10.509 0.4220643
v -0.1888412 10.46097 0.1322704
v 0.3343736 31.1316 -0.04989894
v 0.3343736 31.1316 -0.04989894
v -0.548068 -0.251342 -0.315109
v 0.001673035 0.499974 -0.3677095
v -0.3187245 0.499378 -0.1834607
v 0.0009172722 -0.251342 -0.6320837
v 0.1017028 10.44951 -0.09536362
v -0.1888412 10.46097 0.1322704
v 0.3343736 31.1316 -0.04989894
v -0.5480666 -0.251342 0.3188014
v -0.3187245 0.499378 -0.1834607
v -0.319456 0.507429 0.1860761
v -0.548068 -0.251342 -0.315109
v -0.1888412 10.46097 0.1322704
v 0.5499031 -0.251342 -0.3151175
v 0.3213154 0.508617 -0.1823916
v 0.0009172722 -0.251342 -0.6320837
v 0.001673035 0.499974 -0.3677095
v 0.1017028 10.44951 -0.09536362
v 0.3622975 10.50174 0.1512387
v 0.3343736 31.1316 -0.04989894
v 0.5499031 -0.251342 -0.3151175
v 0.5499045 -0.251342 0.3187928
v 0.3213154 0.508617 -0.1823916
v 0.3205382 0.516666 0.187144
v 0.0009192429 -0.251342 0.6357675
v 0.0001566995 0.516072 0.3713627
v 0.1915593 10.509 0.4220643
v 0.3622975 10.50174 0.1512387
v 0.3343736 31.1316 -0.04989894

vn 0.02619934 0.3254395 0.9453125
vn -0.8051758 0.3288574 0.4931641
vn 0.02334595 0.168335 0.9853516
vn -0.8427734 0.1781006 0.5078125
vn -0.5644531 0.01809692 0.8251953
vn 0.4853516 0.006835938 0.8745117
vn -0.9707031 0.0249939 -0.2397461
vn 0.003349304 1 -0.01689148
vn 0.003349304 1 -0.01689148
vn -0.8295898 0.3325195 -0.4487305
vn -0.02911377 0.1922607 -0.980957
vn -0.8608398 0.1900635 -0.4716797
vn -0.02696228 0.3310547 -0.9433594
vn 0.01812744 0.01980591 -0.9995117
vn -0.9707031 0.0249939 -0.2397461
vn 0.003349304 1 -0.01689148
vn -0.8051758 0.3288574 0.4931641
vn -0.8608398 0.1900635 -0.4716797
vn -0.8427734 0.1781006 0.5078125
vn -0.8295898 0.3325195 -0.4487305
vn -0.9707031 0.0249939 -0.2397461
vn 0.8046875 0.3286133 -0.494873
vn 0.8359375 0.1802979 -0.5185547
vn -0.02696228 0.3310547 -0.9433594
vn -0.02911377 0.1922607 -0.980957
vn 0.01812744 0.01980591 -0.9995117
vn 0.9892578 0.005493164 -0.1470947
vn 0.003349304 1 -0.01689148
vn 0.8046875 0.3286133 -0.494873
vn 0.831543 0.326416 0.4492188
vn 0.8359375 0.1802979 -0.5185547
vn 0.8676758 0.1682129 0.4680176
vn 0.02619934 0.3254395 0.9453125
vn 0.02334595 0.168335 0.9853516
vn 0.4853516 0.006835938 0.8745117
vn 0.9892578 0.005493164 -0.1470947
vn 0.003349304 1 -0.01689148

vt 0.333252 0.003404617
vt 0.166748 0.003404617
vt 0.333252 0.2583008
vt 0.166748 0.2575684
vt 0.166748 2.923828
vt 0.333252 2.925781
vt 5.799532E-05 2.923828
vt 0.166748 6.832031
vt 5.799532E-05 6.832031
vt 1 0.003404617
vt 0.8334961 0.2558594
vt 1 0.2563477
vt 0.8334961 0.003404617
vt 0.7290039 2.921875
vt 1 2.923828
vt 0.8334961 6.832031
vt 0.166748 0.003404617
vt 5.799532E-05 0.2563477
vt 0.166748 0.2575684
vt 5.799532E-05 0.003404617
vt 5.799532E-05 2.923828
vt 0.6665039 0.003404617
vt 0.6665039 0.2563477
vt 0.8334961 0.003404617
vt 0.8334961 0.2558594
vt 0.7290039 2.921875
vt 0.5 2.923828
vt 0.5 6.832031
vt 0.6665039 0.003404617
vt 0.5 0.003404617
vt 0.6665039 0.2563477
vt 0.5 0.2575684
vt 0.333252 0.003404617
vt 0.333252 0.2583008
vt 0.333252 2.925781
vt 0.5 2.923828
vt 0.333252 6.832031

g MEP_ConTrunk_01_d_14798_103
usemtl MEP_ConTrunk_01_d_14798_103
usemap MEP_ConTrunk_01_d_14798_103
f 1/1/1 3/3/3 2/2/2
f 3/3/3 4/4/4 2/2/2
f 4/4/4 3/3/3 5/5/5
f 3/3/3 6/6/6 5/5/5
f 4/4/4 5/5/5 7/7/7
f 6/6/6 8/8/8 5/5/5
f 5/5/5 9/9/9 7/7/7
f 10/10/10 12/12/12 11/11/11
f 13/13/13 10/10/10 11/11/11
f 11/11/11 12/12/12 14/14/14
f 12/12/12 15/15/15 14/14/14
f 15/15/15 16/16/16 14/14/14
f 17/17/17 19/19/19 18/18/18
f 20/20/20 17/17/17 18/18/18
f 18/18/18 19/19/19 21/21/21
f 22/22/22 24/24/24 23/23/23
f 24/24/24 25/25/25 23/23/23
f 25/25/25 26/26/26 23/23/23
f 23/23/23 26/26/26 27/27/27
f 26/26/26 28/28/28 27/27/27
f 29/29/29 31/31/31 30/30/30
f 31/31/31 32/32/32 30/30/30
f 30/30/30 32/32/32 33/33/33
f 32/32/32 34/34/34 33/33/33
f 34/34/34 32/32/32 35/35/35
f 32/32/32 36/36/36 35/35/35
f 32/32/32 31/31/31 36/36/36
f 36/36/36 37/37/37 35/35/35
