#MEP_ConTrunk_01_h_11603_46.obj

v 0.0009476654 -0.2774611 0.6593297
v -0.5683929 -0.2774611 0.3306242
v 0.0001693489 0.5697012 0.3851337
v -0.3312968 0.5601592 0.1929749
v -0.1711691 8.014688 0.2789806
v 0.127715 8.016972 0.2921486
v -0.2835925 7.961687 -0.02117604
v 0.2877223 24.00301 -0.04293884
v 0.2877223 24.00301 -0.04293884
v -0.5683926 -0.2774611 -0.3267962
v 0.00173702 0.55193 -0.3813599
v -0.3305389 0.5512719 -0.1902722
v 0.0009483669 -0.2774611 -0.6555111
v 0.0305663 7.948495 -0.267289
v -0.2835925 7.961687 -0.02117604
v 0.2877223 24.00301 -0.04293884
v -0.5683929 -0.2774611 0.3306242
v -0.3305389 0.5512719 -0.1902722
v -0.3312968 0.5601592 0.1929749
v -0.5683926 -0.2774611 -0.3267962
v -0.2835925 7.961687 -0.02117604
v 0.570289 -0.2774611 -0.3268056
v 0.3332323 0.561471 -0.1891469
v 0.0009483669 -0.2774611 -0.6555111
v 0.00173702 0.55193 -0.3813599
v 0.0305663 7.948495 -0.267289
v 0.3123143 8.008615 -0.0006664415
v 0.2877223 24.00301 -0.04293884
v 0.570289 -0.2774611 -0.3268056
v 0.5702886 -0.2774611 0.3306148
v 0.3332323 0.561471 -0.1891469
v 0.3324256 0.5703559 0.1940974
v 0.0009476654 -0.2774611 0.6593297
v 0.0001693489 0.5697012 0.3851337
v 0.127715 8.016972 0.2921486
v 0.3123143 8.008615 -0.0006664415
v 0.2877223 24.00301 -0.04293884

vn 0.7758789 0.3076172 0.5507813
vn -0.0904541 0.3110352 0.9462891
vn 0.8027344 0.1650391 0.5732422
vn -0.09893799 0.1680908 0.980957
vn 0.3161621 0.0256958 0.9482422
vn 0.9902344 0.01535034 0.1379395
vn -0.7768555 0.02792358 0.6289063
vn 0.003240585 1 -0.01326752
vn 0.003240585 1 -0.01326752
vn -0.862793 0.3144531 0.395752
vn -0.8032227 0.1760254 -0.5688477
vn -0.8969727 0.1739502 0.4067383
vn -0.7749023 0.3129883 -0.5488281
vn -0.7895508 0.02108765 -0.6132813
vn -0.7768555 0.02792358 0.6289063
vn 0.003240585 1 -0.01326752
vn -0.0904541 0.3110352 0.9462891
vn -0.8969727 0.1739502 0.4067383
vn -0.09893799 0.1680908 0.980957
vn -0.862793 0.3144531 0.395752
vn -0.7768555 0.02792358 0.6289063
vn 0.08862305 0.3105469 -0.9462891
vn 0.090271 0.1697998 -0.9814453
vn -0.7749023 0.3129883 -0.5488281
vn -0.8032227 0.1760254 -0.5688477
vn -0.7895508 0.02108765 -0.6132813
vn 0.4726563 0.01165771 -0.8813477
vn 0.003240585 1 -0.01326752
vn 0.08862305 0.3105469 -0.9462891
vn 0.8642578 0.3085938 -0.3972168
vn 0.090271 0.1697998 -0.9814453
vn 0.8964844 0.1645508 -0.4111328
vn 0.7758789 0.3076172 0.5507813
vn 0.8027344 0.1650391 0.5732422
vn 0.9902344 0.01535034 0.1379395
vn 0.4726563 0.01165771 -0.8813477
vn 0.003240585 1 -0.01326752

vt 0.333252 0.003404617
vt 0.166748 0.003404617
vt 0.333252 0.2583008
vt 0.166748 0.2575684
vt 0.166748 2.626953
vt 0.333252 2.626953
vt 5.799532E-05 2.625
vt 0.166748 6.253906
vt 5.799532E-05 6.253906
vt 1 0.003404617
vt 0.8334961 0.2558594
vt 1 0.2563477
vt 0.8334961 0.003404617
vt 0.7290039 2.625
vt 1 2.625
vt 0.8334961 6.253906
vt 0.166748 0.003404617
vt 5.799532E-05 0.2563477
vt 0.166748 0.2575684
vt 5.799532E-05 0.003404617
vt 5.799532E-05 2.625
vt 0.6665039 0.003404617
vt 0.6665039 0.2563477
vt 0.8334961 0.003404617
vt 0.8334961 0.2558594
vt 0.7290039 2.625
vt 0.5 2.626953
vt 0.5 6.253906
vt 0.6665039 0.003404617
vt 0.5 0.003404617
vt 0.6665039 0.2563477
vt 0.5 0.2575684
vt 0.333252 0.003404617
vt 0.333252 0.2583008
vt 0.333252 2.626953
vt 0.5 2.626953
vt 0.333252 6.253906

g MEP_ConTrunk_01_h_11603_46
usemtl MEP_ConTrunk_01_h_11603_46
usemap MEP_ConTrunk_01_h_11603_46
f 1/1/1 3/3/3 2/2/2
f 3/3/3 4/4/4 2/2/2
f 4/4/4 3/3/3 5/5/5
f 3/3/3 6/6/6 5/5/5
f 4/4/4 5/5/5 7/7/7
f 6/6/6 8/8/8 5/5/5
f 5/5/5 9/9/9 7/7/7
f 10/10/10 12/12/12 11/11/11
f 13/13/13 10/10/10 11/11/11
f 11/11/11 12/12/12 14/14/14
f 12/12/12 15/15/15 14/14/14
f 15/15/15 16/16/16 14/14/14
f 17/17/17 19/19/19 18/18/18
f 20/20/20 17/17/17 18/18/18
f 18/18/18 19/19/19 21/21/21
f 22/22/22 24/24/24 23/23/23
f 24/24/24 25/25/25 23/23/23
f 25/25/25 26/26/26 23/23/23
f 23/23/23 26/26/26 27/27/27
f 26/26/26 28/28/28 27/27/27
f 29/29/29 31/31/31 30/30/30
f 31/31/31 32/32/32 30/30/30
f 30/30/30 32/32/32 33/33/33
f 32/32/32 34/34/34 33/33/33
f 34/34/34 32/32/32 35/35/35
f 32/32/32 36/36/36 35/35/35
f 32/32/32 31/31/31 36/36/36
f 36/36/36 37/37/37 35/35/35
