#MEP_ConTrunk_01_g_14618_197.obj

v 0.0009438461 -0.2774611 0.6593428
v -0.5684028 -0.2774611 0.3306317
v 0.0001556493 0.569701 0.3851338
v -0.3312998 0.5601591 0.1929533
v -0.1711641 8.014687 0.2789672
v 0.1277103 8.016973 0.2921459
v -0.283586 7.961687 -0.0211712
v 0.2877177 24.00301 -0.04294711
v 0.2877177 24.00301 -0.04294711
v -0.568393 -0.277461 -0.326794
v 0.00174094 0.55193 -0.3813599
v -0.3305517 0.5512719 -0.1902719
v 0.0009575923 -0.277461 -0.6555137
v 0.03055019 7.948494 -0.2672871
v -0.283586 7.961687 -0.0211712
v 0.2877177 24.00301 -0.04294711
v -0.5684028 -0.2774611 0.3306317
v -0.3305517 0.5512719 -0.1902719
v -0.3312998 0.5601591 0.1929533
v -0.568393 -0.277461 -0.326794
v -0.283586 7.961687 -0.0211712
v 0.5703042 -0.277461 -0.3268027
v 0.3332306 0.561471 -0.1891491
v 0.0009575923 -0.277461 -0.6555137
v 0.00174094 0.55193 -0.3813599
v 0.03055019 7.948494 -0.2672871
v 0.3123269 8.008614 -0.0006619206
v 0.2877177 24.00301 -0.04294711
v 0.5703042 -0.277461 -0.3268027
v 0.5702944 -0.277461 0.330623
v 0.3332306 0.561471 -0.1891491
v 0.3324136 0.570356 0.1940966
v 0.0009438461 -0.2774611 0.6593428
v 0.0001556493 0.569701 0.3851338
v 0.1277103 8.016973 0.2921459
v 0.3123269 8.008614 -0.0006619206
v 0.2877177 24.00301 -0.04294711

vn 0.6308594 0.3098145 0.7109375
vn -0.3024902 0.3156738 0.8994141
vn 0.6518555 0.1673584 0.7397461
vn -0.3188477 0.1729736 0.9316406
vn 0.09240723 0.03010559 0.9951172
vn 0.9331055 0.01545715 0.359375
vn -0.8994141 0.03140259 0.4355469
vn 0.007820129 1 -0.01676941
vn 0.007820129 1 -0.01676941
vn -0.9296875 0.3166504 0.1879883
vn -0.652832 0.1737061 -0.7373047
vn -0.965332 0.1765137 0.1915283
vn -0.6293945 0.310791 -0.7124023
vn -0.6298828 0.01856995 -0.7763672
vn -0.8994141 0.03140259 0.4355469
vn 0.007820129 1 -0.01676941
vn -0.3024902 0.3156738 0.8994141
vn -0.965332 0.1765137 0.1915283
vn -0.3188477 0.1729736 0.9316406
vn -0.9296875 0.3166504 0.1879883
vn -0.8994141 0.03140259 0.4355469
vn 0.3017578 0.3059082 -0.902832
vn 0.3110352 0.164917 -0.9360352
vn -0.6293945 0.310791 -0.7124023
vn -0.652832 0.1737061 -0.7373047
vn -0.6298828 0.01856995 -0.7763672
vn 0.6606445 0.007125854 -0.7504883
vn 0.007820129 1 -0.01676941
vn 0.3017578 0.3059082 -0.902832
vn 0.9326172 0.3061523 -0.1917725
vn 0.3110352 0.164917 -0.9360352
vn 0.9667969 0.1621094 -0.1973877
vn 0.6308594 0.3098145 0.7109375
vn 0.6518555 0.1673584 0.7397461
vn 0.9331055 0.01545715 0.359375
vn 0.6606445 0.007125854 -0.7504883
vn 0.007820129 1 -0.01676941

vt 0.333252 0.003404617
vt 0.166748 0.003404617
vt 0.333252 0.2583008
vt 0.166748 0.2575684
vt 0.166748 2.626953
vt 0.333252 2.626953
vt 5.799532E-05 2.625
vt 0.166748 6.253906
vt 5.799532E-05 6.253906
vt 1 0.003404617
vt 0.8334961 0.2558594
vt 1 0.2563477
vt 0.8334961 0.003404617
vt 0.7290039 2.625
vt 1 2.625
vt 0.8334961 6.253906
vt 0.166748 0.003404617
vt 5.799532E-05 0.2563477
vt 0.166748 0.2575684
vt 5.799532E-05 0.003404617
vt 5.799532E-05 2.625
vt 0.6665039 0.003404617
vt 0.6665039 0.2563477
vt 0.8334961 0.003404617
vt 0.8334961 0.2558594
vt 0.7290039 2.625
vt 0.5 2.626953
vt 0.5 6.253906
vt 0.6665039 0.003404617
vt 0.5 0.003404617
vt 0.6665039 0.2563477
vt 0.5 0.2575684
vt 0.333252 0.003404617
vt 0.333252 0.2583008
vt 0.333252 2.626953
vt 0.5 2.626953
vt 0.333252 6.253906

g MEP_ConTrunk_01_g_14618_197
usemtl MEP_ConTrunk_01_g_14618_197
usemap MEP_ConTrunk_01_g_14618_197
f 1/1/1 3/3/3 2/2/2
f 3/3/3 4/4/4 2/2/2
f 4/4/4 3/3/3 5/5/5
f 3/3/3 6/6/6 5/5/5
f 4/4/4 5/5/5 7/7/7
f 6/6/6 8/8/8 5/5/5
f 5/5/5 9/9/9 7/7/7
f 10/10/10 12/12/12 11/11/11
f 13/13/13 10/10/10 11/11/11
f 11/11/11 12/12/12 14/14/14
f 12/12/12 15/15/15 14/14/14
f 15/15/15 16/16/16 14/14/14
f 17/17/17 19/19/19 18/18/18
f 20/20/20 17/17/17 18/18/18
f 18/18/18 19/19/19 21/21/21
f 22/22/22 24/24/24 23/23/23
f 24/24/24 25/25/25 23/23/23
f 25/25/25 26/26/26 23/23/23
f 23/23/23 26/26/26 27/27/27
f 26/26/26 28/28/28 27/27/27
f 29/29/29 31/31/31 30/30/30
f 31/31/31 32/32/32 30/30/30
f 30/30/30 32/32/32 33/33/33
f 32/32/32 34/34/34 33/33/33
f 34/34/34 32/32/32 35/35/35
f 32/32/32 36/36/36 35/35/35
f 32/32/32 31/31/31 36/36/36
f 36/36/36 37/37/37 35/35/35
