#MEP_Con_01_h_LOD_01(Clone)_14193_433.obj

v -0.9886156 1.8701 2.022381
v -0.04145052 2.738964 0.1920499
v 0.175364 3.133242 -0.009903498
v -0.1296045 2.017378 0.5884095
v 0.06088167 5.013865 0.329886
v -0.04061212 5.410986 0.05557755
v 1.980731 3.836672 2.31979
v 0.4005547 4.29571 0.5631846
v 0.05843655 5.161913 -0.07769465
v -0.01363135 5.602562 0.13178
v -0.2754592 3.565519 -2.601881
v -0.09599183 4.395245 -0.3496132
v -0.1546675 7.07416 0.1252554
v 0.1510443 7.44681 0.02075232
v -2.56588 6.258064 1.722585
v -0.4860768 6.428028 0.5230429
v 0.1437653 6.999117 -0.09008852
v -0.007076629 7.390816 0.0221611
v 1.258549 5.592319 -2.036193
v 0.1633438 6.328564 -0.3764858
v -0.1149409 9.198686 -0.03922635
v -0.01335785 9.653197 0.1231286
v -2.010496 7.554882 -1.693337
v -0.4600683 8.447343 -0.08304369
v -0.007242335 9.326726 0.2779421
v 0.04386767 9.7173 -0.01885734
v 0.4093406 8.302306 3.072308
v 0.1829487 8.640229 0.6999876
v -0.04145052 2.738964 0.1920499
v -0.9886156 1.8701 2.022381
v 0.175364 3.133242 -0.009903498
v -0.1296045 2.017378 0.5884095
v 0.06088167 5.013865 0.329886
v 1.980731 3.836672 2.31979
v -0.04061212 5.410986 0.05557755
v 0.4005547 4.29571 0.5631846
v 0.05843655 5.161913 -0.07769465
v -0.2754592 3.565519 -2.601881
v -0.01363135 5.602562 0.13178
v -0.09599183 4.395245 -0.3496132
v -0.1546675 7.07416 0.1252554
v -2.56588 6.258064 1.722585
v 0.1510443 7.44681 0.02075232
v -0.4860768 6.428028 0.5230429
v 0.1437653 6.999117 -0.09008852
v 1.258549 5.592319 -2.036193
v -0.007076629 7.390816 0.0221611
v 0.1633438 6.328564 -0.3764858
v -0.1149409 9.198686 -0.03922635
v -2.010496 7.554882 -1.693337
v -0.01335785 9.653197 0.1231286
v -0.4600683 8.447343 -0.08304369
v -0.007242335 9.326726 0.2779421
v 0.4093406 8.302306 3.072308
v 0.04386767 9.7173 -0.01885734
v 0.1829487 8.640229 0.6999876
v -0.7608904 10.36044 1.125328
v -2.972187 11.57432 2.589988
v -0.2411154 10.70937 0.3411555
v 0.214547 10.92739 0.02163993
v -0.7608904 10.36044 1.125328
v -0.2411154 10.70937 0.3411555
v -2.972187 11.57432 2.589988
v 0.214547 10.92739 0.02163993
v -0.09564301 5.061844 0.02499
v 0.1386524 5.473125 0.1635528
v -2.790332 3.783173 -0.3425343
v -0.4850411 4.333046 0.07774097
v 0.154862 6.976057 0.1772714
v 0.1947295 7.401443 -0.06911369
v 0.940019 5.51322 2.682304
v 0.3416281 6.220922 0.4609304
v 0.1576591 9.229545 0.07540847
v -0.1367628 9.724119 -0.05382686
v 3.393209 7.663885 0.08664237
v 0.6009256 8.352187 -0.04502204
v -0.09564301 5.061844 0.02499
v -2.790332 3.783173 -0.3425343
v 0.1386524 5.473125 0.1635528
v -0.4850411 4.333046 0.07774097
v 0.154862 6.976057 0.1772714
v 0.940019 5.51322 2.682304
v 0.1947295 7.401443 -0.06911369
v 0.3416281 6.220922 0.4609304
v 0.1576591 9.229545 0.07540847
v 3.393209 7.663885 0.08664237
v -0.1367628 9.724119 -0.05382686
v 0.6009256 8.352187 -0.04502204
v -0.4775255 10.73707 -1.029093
v -0.1793461 10.03951 -4.58053
v 0.05300708 11.63629 -0.3431263
v 0.122641 12.25096 0.07050972
v -0.4775255 10.73707 -1.029093
v 0.05300708 11.63629 -0.3431263
v -0.1793461 10.03951 -4.58053
v 0.122641 12.25096 0.07050972
v -0.3181217 11.67299 -0.008459397
v 0.2608254 12.28067 0.04631431
v -5.330855 10.70736 -0.4643736
v -1.314054 10.75051 0.3802419
v -0.3181217 11.67299 -0.008459397
v -5.330855 10.70736 -0.4643736
v 0.2608254 12.28067 0.04631431
v -1.314054 10.75051 0.3802419
v 0.02405178 16.23364 -0.2524498
v 0.141899 16.52574 0.03858121
v -1.716061 15.66677 -2.1175
v -0.326552 15.68114 -0.5526096
v -0.0761274 17.31449 -0.02762828
v 0.218673 17.74557 -0.0502185
v -2.789879 16.08077 1.094352
v -0.4231545 16.56796 0.276313
v 0.02405178 16.23364 -0.2524498
v -1.716061 15.66677 -2.1175
v 0.141899 16.52574 0.03858121
v -0.326552 15.68114 -0.5526096
v -0.0761274 17.31449 -0.02762828
v -2.789879 16.08077 1.094352
v 0.218673 17.74557 -0.0502185
v -0.4231545 16.56796 0.276313
v -0.2024947 13.99218 -0.1764736
v 0.1883013 14.39918 0.0928803
v -3.364372 13.64519 -2.273099
v -1.038188 13.37294 -0.3173538
v -0.2024947 13.99218 -0.1764736
v -3.364372 13.64519 -2.273099
v 0.1883013 14.39918 0.0928803
v -1.038188 13.37294 -0.3173538
v -0.06774966 19.07122 -0.1653347
v 0.2588648 19.4246 -0.02302091
v -2.255337 18.38868 -1.45574
v -0.5305809 18.36757 -0.146652
v -0.06774966 19.07122 -0.1653347
v -2.255337 18.38868 -1.45574
v 0.2588648 19.4246 -0.02302091
v -0.5305809 18.36757 -0.146652
v -0.1596154 14.85503 -0.03274422
v 0.2875918 15.06024 -0.1312358
v -2.729247 15.14348 1.599137
v -0.7542672 14.40186 0.3554709
v -0.1596154 14.85503 -0.03274422
v -2.729247 15.14348 1.599137
v 0.2875918 15.06024 -0.1312358
v -0.7542672 14.40186 0.3554709
v -0.04377176 13.34468 -0.01563847
v 0.08034801 13.79207 0.1507434
v -2.02217 11.81187 -1.679327
v -0.4253555 12.61157 -0.0656166
v 0.07095333 13.46418 0.3023812
v 0.1402448 13.85469 0.00921921
v 0.4449407 12.3931 3.085251
v 0.2285532 12.76508 0.7170947
v -0.04377176 13.34468 -0.01563847
v -2.02217 11.81187 -1.679327
v 0.08034801 13.79207 0.1507434
v -0.4253555 12.61157 -0.0656166
v 0.07095333 13.46418 0.3023812
v 0.4449407 12.3931 3.085251
v 0.1402448 13.85469 0.00921921
v 0.2285532 12.76508 0.7170947
v 0.2303166 13.36106 0.09835169
v -0.0399451 13.87068 -0.02509
v 3.385468 11.63914 0.08356594
v 0.6298184 12.46432 -0.03207168
v 0.2303166 13.36106 0.09835169
v 3.385468 11.63914 0.08356594
v -0.0399451 13.87068 -0.02509
v 0.6298184 12.46432 -0.03207168
v 0.2360811 15.53636 -0.1273865
v 0.05768263 15.98374 -0.02121454
v 2.096184 14.00354 -1.922362
v 0.3254106 14.80325 -0.5017159
v -0.09215152 15.65585 -0.04630587
v 0.1922254 16.04637 0.0530482
v -2.898808 14.58478 0.03673818
v -0.520972 14.95675 0.06739029
v 0.2360811 15.53636 -0.1273865
v 2.096184 14.00354 -1.922362
v 0.05768263 15.98374 -0.02121454
v 0.3254106 14.80325 -0.5017159
v -0.09215152 15.65585 -0.04630587
v -2.898808 14.58478 0.03673818
v 0.1922254 16.04637 0.0530482
v -0.520972 14.95675 0.06739029
v 0.1048412 15.52809 0.2381788
v 0.1981483 16.03845 -0.04253826
v 0.4747348 13.79365 3.364713
v 0.2773218 14.62944 0.6168852
v 0.1048412 15.52809 0.2381788
v 0.4747348 13.79365 3.364713
v 0.1981483 16.03845 -0.04253826
v 0.2773218 14.62944 0.6168852
v 0.2624688 19.86199 -0.5207767
v 1.230056 19.65501 -1.722439
v 0.2621271 20.38085 -0.1571719
v 0.185761 20.67361 0.03211434
v 0.2624688 19.86199 -0.5207767
v 0.2621271 20.38085 -0.1571719
v 1.230056 19.65501 -1.722439
v 0.185761 20.67361 0.03211434
v 0.4766219 21.22732 0.09621879
v 1.005951 20.87008 1.110815
v 0.2917523 21.67425 0.03162613
v 0.2208627 21.92544 -0.05454166
v 0.4766219 21.22732 0.09621879
v 0.2917523 21.67425 0.03162613
v 1.005951 20.87008 1.110815
v 0.2208627 21.92544 -0.05454166
v -0.08019744 -0.205358 -0.4107048
v 0.261767 23.88826 -0.03481005
v -0.0463609 -0.210712 0.4552769
v 0.4119324 -0.205358 -0.07357029
v 0.261767 23.88826 -0.03481005
v -0.4544815 -0.210712 -0.05370335
v -0.08019744 -0.205358 -0.4107048
v -0.0463609 -0.210712 0.4552769
v 0.261767 23.88826 -0.03481005
v 0.4119324 -0.205358 -0.07357029
v -0.4544815 -0.210712 -0.05370335
v 0.261767 23.88826 -0.03481005

vn -0.8979492 -0.05743408 0.435791
vn -0.8149414 0.2324219 0.5307617
vn -0.7626953 0.3356934 0.5527344
vn -0.90625 -0.1831055 0.3806152
vn 0.2590332 0.276123 0.925293
vn 0.2956543 0.3781738 0.8774414
vn 0.1495361 -0.0004272461 0.9887695
vn 0.08508301 -0.1489258 0.9853516
vn 0.3447266 0.1971436 -0.9179688
vn 0.2753906 0.2932129 -0.9155273
vn 0.4987793 -0.05969238 -0.8647461
vn 0.5625 -0.1953125 -0.8032227
vn -0.9863281 0.1641846 0.01468658
vn -0.9604492 0.2751465 0.04684448
vn -0.9892578 -0.12854 -0.0680542
vn -0.9536133 -0.2807617 -0.1098633
vn 0.8510742 0.1552734 -0.5014648
vn 0.7998047 0.2526855 -0.5449219
vn 0.9277344 -0.1022949 -0.3586426
vn 0.9335938 -0.2366943 -0.2685547
vn -0.2741699 0.06439209 -0.9594727
vn -0.3327637 0.1627197 -0.9287109
vn -0.1074219 -0.1895752 -0.9760742
vn -0.01387024 -0.3186035 -0.9477539
vn -0.3757324 0.203125 0.9042969
vn -0.326416 0.3103027 0.8925781
vn -0.4770508 -0.08221436 0.875
vn -0.5131836 -0.2322998 0.8261719
vn 0.8149414 -0.2324219 -0.5307617
vn 0.8979492 0.05743408 -0.435791
vn 0.7626953 -0.3356934 -0.5527344
vn 0.90625 0.1831055 -0.3806152
vn -0.2590332 -0.276123 -0.925293
vn -0.1495361 0.0004272461 -0.9887695
vn -0.2956543 -0.3781738 -0.8774414
vn -0.08508301 0.1489258 -0.9853516
vn -0.3447266 -0.1971436 0.9179688
vn -0.4987793 0.05969238 0.8647461
vn -0.2753906 -0.2932129 0.9155273
vn -0.5625 0.1953125 0.8032227
vn 0.9863281 -0.1641846 -0.01468658
vn 0.9892578 0.12854 0.0680542
vn 0.9604492 -0.2753906 -0.04684448
vn 0.9536133 0.2807617 0.1098633
vn -0.8510742 -0.1552734 0.5014648
vn -0.9277344 0.1022949 0.3586426
vn -0.7998047 -0.2526855 0.5449219
vn -0.9335938 0.2366943 0.2685547
vn 0.2741699 -0.06439209 0.9594727
vn 0.1074219 0.1895752 0.9760742
vn 0.3327637 -0.1627197 0.9287109
vn 0.01387024 0.3186035 0.9477539
vn 0.3757324 -0.203125 -0.9042969
vn 0.4770508 0.08221436 -0.875
vn 0.326416 -0.3103027 -0.8925781
vn 0.5131836 0.2322998 -0.8261719
vn 0.8852539 0.4326172 -0.1696777
vn 0.9482422 0.2866211 -0.1383057
vn 0.9975586 -0.00567627 -0.07025146
vn 0.9916992 -0.1206055 -0.04165649
vn -0.8852539 -0.4326172 0.1696777
vn -0.9975586 0.00567627 0.07025146
vn -0.9482422 -0.2866211 0.1383057
vn -0.9916992 0.1206055 0.04165649
vn -0.7802734 0.2327881 -0.5805664
vn -0.7856445 0.3344727 -0.5205078
vn -0.7158203 -0.04095459 -0.6967773
vn -0.6542969 -0.1864014 -0.7329102
vn -0.166626 0.2440186 0.9555664
vn -0.1027222 0.3415527 0.934082
vn -0.3186035 -0.01940918 0.9477539
vn -0.3879395 -0.1601563 0.9077148
vn 0.8515625 0.2365723 0.4680176
vn 0.8491211 0.3376465 0.40625
vn 0.8027344 -0.03546143 0.5952148
vn 0.7460938 -0.1801758 0.640625
vn 0.7802734 -0.2327881 0.5805664
vn 0.7158203 0.04095459 0.6967773
vn 0.7856445 -0.3344727 0.5205078
vn 0.6542969 0.1864014 0.7329102
vn 0.166626 -0.2440186 -0.9555664
vn 0.3186035 0.01940918 -0.9477539
vn 0.1027222 -0.3415527 -0.934082
vn 0.3879395 0.1601563 -0.9077148
vn -0.8515625 -0.2365723 -0.4680176
vn -0.8027344 0.03546143 -0.5952148
vn -0.8491211 -0.3376465 -0.40625
vn -0.7460938 0.1801758 -0.640625
vn -0.6000977 0.5996094 0.5292969
vn -0.6108398 0.4755859 0.6333008
vn -0.5869141 0.2111816 0.7817383
vn -0.5625 0.1017456 0.8203125
vn 0.6000977 -0.5996094 -0.5292969
vn 0.5869141 -0.2111816 -0.7817383
vn 0.6108398 -0.4755859 -0.6333008
vn 0.5625 -0.1017456 -0.8203125
vn -0.7407227 -0.1119385 -0.6621094
vn -0.7602539 0.004272461 -0.6494141
vn -0.644043 -0.4001465 -0.6523438
vn -0.5673828 -0.5395508 -0.6220703
vn 0.7407227 0.1119385 0.6621094
vn 0.644043 0.4001465 0.6523438
vn 0.7602539 -0.004272461 0.6494141
vn 0.5673828 0.5395508 0.6220703
vn -0.1989746 0.3354492 -0.9208984
vn -0.2160645 0.4416504 -0.8706055
vn -0.1428223 0.04428101 -0.9887695
vn -0.1071777 -0.1137085 -0.987793
vn -0.9736328 0.1734619 -0.1481934
vn -0.9550781 0.2792969 -0.09832764
vn -0.9580078 -0.1068726 -0.265625
vn -0.9135742 -0.2531738 -0.3183594
vn 0.1989746 -0.3354492 0.9208984
vn 0.1428223 -0.04428101 0.9887695
vn 0.2160645 -0.4416504 0.8706055
vn 0.1071777 0.1137085 0.987793
vn 0.9736328 -0.1734619 0.1481934
vn 0.9580078 0.1068726 0.265625
vn 0.9550781 -0.2792969 0.09832764
vn 0.9135742 0.2531738 0.3183594
vn -0.3500977 -0.09454346 -0.9321289
vn -0.3618164 0.02337646 -0.9321289
vn -0.2980957 -0.3881836 -0.8720703
vn -0.2590332 -0.53125 -0.8066406
vn 0.3500977 0.09454346 0.9321289
vn 0.2980957 0.3881836 0.8720703
vn 0.3618164 -0.02340698 0.9321289
vn 0.2590332 0.53125 0.8066406
vn -0.3435059 -0.2202148 -0.9130859
vn -0.3618164 -0.1654053 -0.9174805
vn -0.2995605 -0.3383789 -0.8920898
vn -0.2802734 -0.3847656 -0.8793945
vn 0.3435059 0.2202148 0.9130859
vn 0.2995605 0.3383789 0.8920898
vn 0.3618164 0.1654053 0.9174805
vn 0.2802734 0.3847656 0.8793945
vn -0.8969727 0.4333496 -0.08721924
vn -0.8388672 0.5361328 -0.09399414
vn -0.9873047 0.1437988 -0.06439209
vn -0.9985352 -0.01712036 -0.04974365
vn 0.8969727 -0.4333496 0.08721924
vn 0.9873047 -0.1437988 0.06439209
vn 0.8388672 -0.5361328 0.09399414
vn 0.9985352 0.01712036 0.04974365
vn -0.2751465 0.04150391 -0.9604492
vn -0.3300781 0.1429443 -0.9331055
vn -0.1178589 -0.21875 -0.96875
vn -0.02893066 -0.3500977 -0.9360352
vn -0.3647461 0.2474365 0.8974609
vn -0.3117676 0.3522949 0.8823242
vn -0.4765625 -0.03491211 0.878418
vn -0.5180664 -0.1851807 0.8349609
vn 0.2751465 -0.04150391 0.9604492
vn 0.1178589 0.21875 0.96875
vn 0.3300781 -0.1429443 0.9331055
vn 0.02893066 0.3500977 0.9360352
vn 0.3647461 -0.2474365 -0.8974609
vn 0.4765625 0.03491211 -0.878418
vn 0.3117676 -0.3522949 -0.8823242
vn 0.5180664 0.1851807 -0.8349609
vn 0.8613281 0.2213135 0.4575195
vn 0.8623047 0.3203125 0.392334
vn 0.8032227 -0.04428101 0.59375
vn 0.7416992 -0.1851807 0.6445313
vn -0.8613281 -0.2213135 -0.4575195
vn -0.8032227 0.04428101 -0.59375
vn -0.8623047 -0.3203125 -0.392334
vn -0.7416992 0.1851807 -0.6445313
vn 0.9838867 0.04150391 -0.1739502
vn 0.9624023 0.1429443 -0.2315674
vn 0.9755859 -0.21875 -0.01667786
vn 0.934082 -0.3500977 0.06848145
vn -0.8549805 0.2474365 -0.4560547
vn -0.8452148 0.3522949 -0.4016113
vn -0.8242188 -0.03491211 -0.5649414
vn -0.7768555 -0.1851807 -0.6020508
vn -0.9838867 -0.04150391 0.1739502
vn -0.9755859 0.21875 0.01667786
vn -0.9624023 -0.1429443 0.2315674
vn -0.934082 0.3500977 -0.06848145
vn 0.8549805 -0.2474365 0.4560547
vn 0.8242188 0.03491211 0.5649414
vn 0.8452148 -0.3522949 0.4016113
vn 0.7768555 0.1851807 0.6020508
vn -0.3549805 0.2233887 0.9077148
vn -0.2895508 0.3220215 0.9013672
vn -0.4985352 -0.04159546 0.8657227
vn -0.5566406 -0.182251 0.8105469
vn 0.3549805 -0.2233887 -0.9077148
vn 0.4985352 0.04159546 -0.8657227
vn 0.2895508 -0.3220215 -0.9013672
vn 0.5566406 0.182251 -0.8105469
vn -0.8837891 0.4272461 0.1904297
vn -0.9033203 0.364502 0.225708
vn -0.9287109 0.2202148 0.2980957
vn -0.9321289 0.15979 0.3254395
vn 0.8837891 -0.4272461 -0.1904297
vn 0.9287109 -0.2202148 -0.2980957
vn 0.9033203 -0.364502 -0.225708
vn 0.9321289 -0.15979 -0.3254395
vn 0.2255859 0.3144531 -0.921875
vn 0.1893311 0.2546387 -0.9482422
vn 0.1063843 0.1193848 -0.9873047
vn 0.07177734 0.06329346 -0.9956055
vn -0.2255859 -0.3144531 0.921875
vn -0.1063843 -0.1193848 0.9873047
vn -0.1893311 -0.2546387 0.9482422
vn -0.07177734 -0.06329346 0.9956055
vn -0.5463867 0.0135498 0.8374023
vn -0.9799805 0.01071167 0.197876
vn -0.5463867 0.0135498 0.8374023
vn -0.8286133 0.001434326 -0.5600586
vn -0.9799805 0.01071167 0.197876
vn -0.8286133 0.001434326 -0.5600586
vn 0.5463867 -0.0135498 -0.8374023
vn 0.5463867 -0.0135498 -0.8374023
vn 0.9799805 -0.01071167 -0.197876
vn 0.8286133 -0.001434326 0.5600586
vn 0.8286133 -0.001434326 0.5600586
vn 0.9799805 -0.01071167 -0.197876

vt 0.8422852 0.7006836
vt 0.9926758 0.2159424
vt 0.9921875 0.08068848
vt 0.9970703 0.3566895
vt 0.9926758 0.2159424
vt 0.9921875 0.08068848
vt 0.8422852 0.7006836
vt 0.9970703 0.3566895
vt 0.9926758 0.2159424
vt 0.9921875 0.08068848
vt 0.8422852 0.7006836
vt 0.9970703 0.3566895
vt 0.9926758 0.2159424
vt 0.9921875 0.08068848
vt 0.8422852 0.7006836
vt 0.9970703 0.3566895
vt 0.9926758 0.2159424
vt 0.9921875 0.08068848
vt 0.8422852 0.7006836
vt 0.9970703 0.3566895
vt 0.9926758 0.2159424
vt 0.9921875 0.08068848
vt 0.8422852 0.7006836
vt 0.9970703 0.3566895
vt 0.9926758 0.2159424
vt 0.9921875 0.08068848
vt 0.8422852 0.7006836
vt 0.9970703 0.3566895
vt 0.9926758 0.2159424
vt 0.8422852 0.7006836
vt 0.9921875 0.08068848
vt 0.9970703 0.3566895
vt 0.9926758 0.2159424
vt 0.8422852 0.7006836
vt 0.9921875 0.08068848
vt 0.9970703 0.3566895
vt 0.9926758 0.2159424
vt 0.8422852 0.7006836
vt 0.9921875 0.08068848
vt 0.9970703 0.3566895
vt 0.9926758 0.2159424
vt 0.8422852 0.7006836
vt 0.9921875 0.08068848
vt 0.9970703 0.3566895
vt 0.9926758 0.2159424
vt 0.8422852 0.7006836
vt 0.9921875 0.08068848
vt 0.9970703 0.3566895
vt 0.9926758 0.2159424
vt 0.8422852 0.7006836
vt 0.9921875 0.08068848
vt 0.9970703 0.3566895
vt 0.9926758 0.2159424
vt 0.8422852 0.7006836
vt 0.9921875 0.08068848
vt 0.9970703 0.3566895
vt 0.9970703 0.3566895
vt 0.8422852 0.7006836
vt 0.9926758 0.2159424
vt 0.9921875 0.08068848
vt 0.9970703 0.3566895
vt 0.9926758 0.2159424
vt 0.8422852 0.7006836
vt 0.9921875 0.08068848
vt 0.9926758 0.2159424
vt 0.9921875 0.08068848
vt 0.8422852 0.7006836
vt 0.9970703 0.3566895
vt 0.9926758 0.2159424
vt 0.9921875 0.08068848
vt 0.8422852 0.7006836
vt 0.9970703 0.3566895
vt 0.9926758 0.2159424
vt 0.9921875 0.08068848
vt 0.8422852 0.7006836
vt 0.9970703 0.3566895
vt 0.9926758 0.2159424
vt 0.8422852 0.7006836
vt 0.9921875 0.08068848
vt 0.9970703 0.3566895
vt 0.9926758 0.2159424
vt 0.8422852 0.7006836
vt 0.9921875 0.08068848
vt 0.9970703 0.3566895
vt 0.9926758 0.2159424
vt 0.8422852 0.7006836
vt 0.9921875 0.08068848
vt 0.9970703 0.3566895
vt 0.9970703 0.3566895
vt 0.8422852 0.7006836
vt 0.9926758 0.2159424
vt 0.9921875 0.08068848
vt 0.9970703 0.3566895
vt 0.9926758 0.2159424
vt 0.8422852 0.7006836
vt 0.9921875 0.08068848
vt 0.9926758 0.2159424
vt 0.9921875 0.08068848
vt 0.8422852 0.7006836
vt 0.9970703 0.3566895
vt 0.9926758 0.2159424
vt 0.8422852 0.7006836
vt 0.9921875 0.08068848
vt 0.9970703 0.3566895
vt 0.9926758 0.2159424
vt 0.9921875 0.08068848
vt 0.8422852 0.7006836
vt 0.9970703 0.3566895
vt 0.9926758 0.2159424
vt 0.9921875 0.08068848
vt 0.8422852 0.7006836
vt 0.9970703 0.3566895
vt 0.9926758 0.2159424
vt 0.8422852 0.7006836
vt 0.9921875 0.08068848
vt 0.9970703 0.3566895
vt 0.9926758 0.2159424
vt 0.8422852 0.7006836
vt 0.9921875 0.08068848
vt 0.9970703 0.3566895
vt 0.9926758 0.2159424
vt 0.9921875 0.08068848
vt 0.8422852 0.7006836
vt 0.9970703 0.3566895
vt 0.9926758 0.2159424
vt 0.8422852 0.7006836
vt 0.9921875 0.08068848
vt 0.9970703 0.3566895
vt 0.9926758 0.2159424
vt 0.9921875 0.08068848
vt 0.8422852 0.7006836
vt 0.9970703 0.3566895
vt 0.9926758 0.2159424
vt 0.8422852 0.7006836
vt 0.9921875 0.08068848
vt 0.9970703 0.3566895
vt 0.9926758 0.2159424
vt 0.9921875 0.08068848
vt 0.8422852 0.7006836
vt 0.9970703 0.3566895
vt 0.9926758 0.2159424
vt 0.8422852 0.7006836
vt 0.9921875 0.08068848
vt 0.9970703 0.3566895
vt 0.9926758 0.2159424
vt 0.9921875 0.08068848
vt 0.8422852 0.7006836
vt 0.9970703 0.3566895
vt 0.9926758 0.2159424
vt 0.9921875 0.08068848
vt 0.8422852 0.7006836
vt 0.9970703 0.3566895
vt 0.9926758 0.2159424
vt 0.8422852 0.7006836
vt 0.9921875 0.08068848
vt 0.9970703 0.3566895
vt 0.9926758 0.2159424
vt 0.8422852 0.7006836
vt 0.9921875 0.08068848
vt 0.9970703 0.3566895
vt 0.9926758 0.2159424
vt 0.9921875 0.08068848
vt 0.8422852 0.7006836
vt 0.9970703 0.3566895
vt 0.9926758 0.2159424
vt 0.8422852 0.7006836
vt 0.9921875 0.08068848
vt 0.9970703 0.3566895
vt 0.9926758 0.2159424
vt 0.9921875 0.08068848
vt 0.8422852 0.7006836
vt 0.9970703 0.3566895
vt 0.9926758 0.2159424
vt 0.9921875 0.08068848
vt 0.8422852 0.7006836
vt 0.9970703 0.3566895
vt 0.9926758 0.2159424
vt 0.8422852 0.7006836
vt 0.9921875 0.08068848
vt 0.9970703 0.3566895
vt 0.9926758 0.2159424
vt 0.8422852 0.7006836
vt 0.9921875 0.08068848
vt 0.9970703 0.3566895
vt 0.9926758 0.2159424
vt 0.9921875 0.08068848
vt 0.8422852 0.7006836
vt 0.9970703 0.3566895
vt 0.9926758 0.2159424
vt 0.8422852 0.7006836
vt 0.9921875 0.08068848
vt 0.9970703 0.3566895
vt 0.9970703 0.3566895
vt 0.8422852 0.7006836
vt 0.9926758 0.2159424
vt 0.9921875 0.08068848
vt 0.9970703 0.3566895
vt 0.9926758 0.2159424
vt 0.8422852 0.7006836
vt 0.9921875 0.08068848
vt 0.9970703 0.3566895
vt 0.8422852 0.7006836
vt 0.9926758 0.2159424
vt 0.9921875 0.08068848
vt 0.9970703 0.3566895
vt 0.9926758 0.2159424
vt 0.8422852 0.7006836
vt 0.9921875 0.08068848
vt 0.9433594 0.3640137
vt 0.9321289 0.4221191
vt 0.9516602 0.3674316
vt 0.9433594 0.3640137
vt 0.9321289 0.4221191
vt 0.9516602 0.3674316
vt 0.9433594 0.3640137
vt 0.9516602 0.3674316
vt 0.9321289 0.4221191
vt 0.9433594 0.3640137
vt 0.9516602 0.3674316
vt 0.9321289 0.4221191

g MEP_Con_01_h_LOD_01(Clone)_14193_433
usemtl MEP_Con_01_h_LOD_01(Clone)_14193_433
usemap MEP_Con_01_h_LOD_01(Clone)_14193_433
f 1/1/1 3/3/3 2/2/2
f 4/4/4 1/1/1 2/2/2
f 5/5/5 7/7/7 6/6/6
f 8/8/8 7/7/7 5/5/5
f 9/9/9 11/11/11 10/10/10
f 12/12/12 11/11/11 9/9/9
f 13/13/13 15/15/15 14/14/14
f 16/16/16 15/15/15 13/13/13
f 17/17/17 19/19/19 18/18/18
f 20/20/20 19/19/19 17/17/17
f 21/21/21 23/23/23 22/22/22
f 24/24/24 23/23/23 21/21/21
f 25/25/25 27/27/27 26/26/26
f 28/28/28 27/27/27 25/25/25
f 29/29/29 31/31/31 30/30/30
f 32/32/32 29/29/29 30/30/30
f 33/33/33 35/35/35 34/34/34
f 36/36/36 33/33/33 34/34/34
f 37/37/37 39/39/39 38/38/38
f 40/40/40 37/37/37 38/38/38
f 41/41/41 43/43/43 42/42/42
f 44/44/44 41/41/41 42/42/42
f 45/45/45 47/47/47 46/46/46
f 48/48/48 45/45/45 46/46/46
f 49/49/49 51/51/51 50/50/50
f 52/52/52 49/49/49 50/50/50
f 53/53/53 55/55/55 54/54/54
f 56/56/56 53/53/53 54/54/54
f 57/57/57 59/59/59 58/58/58
f 59/59/59 60/60/60 58/58/58
f 61/61/61 63/63/63 62/62/62
f 62/62/62 63/63/63 64/64/64
f 65/65/65 67/67/67 66/66/66
f 68/68/68 67/67/67 65/65/65
f 69/69/69 71/71/71 70/70/70
f 72/72/72 71/71/71 69/69/69
f 73/73/73 75/75/75 74/74/74
f 76/76/76 75/75/75 73/73/73
f 77/77/77 79/79/79 78/78/78
f 80/80/80 77/77/77 78/78/78
f 81/81/81 83/83/83 82/82/82
f 84/84/84 81/81/81 82/82/82
f 85/85/85 87/87/87 86/86/86
f 88/88/88 85/85/85 86/86/86
f 89/89/89 91/91/91 90/90/90
f 91/91/91 92/92/92 90/90/90
f 93/93/93 95/95/95 94/94/94
f 94/94/94 95/95/95 96/96/96
f 97/97/97 99/99/99 98/98/98
f 100/100/100 99/99/99 97/97/97
f 101/101/101 103/103/103 102/102/102
f 104/104/104 101/101/101 102/102/102
f 105/105/105 107/107/107 106/106/106
f 108/108/108 107/107/107 105/105/105
f 109/109/109 111/111/111 110/110/110
f 112/112/112 111/111/111 109/109/109
f 113/113/113 115/115/115 114/114/114
f 116/116/116 113/113/113 114/114/114
f 117/117/117 119/119/119 118/118/118
f 120/120/120 117/117/117 118/118/118
f 121/121/121 123/123/123 122/122/122
f 124/124/124 123/123/123 121/121/121
f 125/125/125 127/127/127 126/126/126
f 128/128/128 125/125/125 126/126/126
f 129/129/129 131/131/131 130/130/130
f 132/132/132 131/131/131 129/129/129
f 133/133/133 135/135/135 134/134/134
f 136/136/136 133/133/133 134/134/134
f 137/137/137 139/139/139 138/138/138
f 140/140/140 139/139/139 137/137/137
f 141/141/141 143/143/143 142/142/142
f 144/144/144 141/141/141 142/142/142
f 145/145/145 147/147/147 146/146/146
f 148/148/148 147/147/147 145/145/145
f 149/149/149 151/151/151 150/150/150
f 152/152/152 151/151/151 149/149/149
f 153/153/153 155/155/155 154/154/154
f 156/156/156 153/153/153 154/154/154
f 157/157/157 159/159/159 158/158/158
f 160/160/160 157/157/157 158/158/158
f 161/161/161 163/163/163 162/162/162
f 164/164/164 163/163/163 161/161/161
f 165/165/165 167/167/167 166/166/166
f 168/168/168 165/165/165 166/166/166
f 169/169/169 171/171/171 170/170/170
f 172/172/172 171/171/171 169/169/169
f 173/173/173 175/175/175 174/174/174
f 176/176/176 175/175/175 173/173/173
f 177/177/177 179/179/179 178/178/178
f 180/180/180 177/177/177 178/178/178
f 181/181/181 183/183/183 182/182/182
f 184/184/184 181/181/181 182/182/182
f 185/185/185 187/187/187 186/186/186
f 188/188/188 187/187/187 185/185/185
f 189/189/189 191/191/191 190/190/190
f 192/192/192 189/189/189 190/190/190
f 193/193/193 195/195/195 194/194/194
f 195/195/195 196/196/196 194/194/194
f 197/197/197 199/199/199 198/198/198
f 198/198/198 199/199/199 200/200/200
f 201/201/201 203/203/203 202/202/202
f 203/203/203 204/204/204 202/202/202
f 205/205/205 207/207/207 206/206/206
f 206/206/206 207/207/207 208/208/208
f 209/209/209 211/211/211 210/210/210
f 212/212/212 214/214/214 213/213/213
f 215/215/215 217/217/217 216/216/216
f 218/218/218 220/220/220 219/219/219
