#MEP_ConTrunk_01_h_11692_31.obj

v 0.0009444258 -0.2774611 0.6593319
v -0.5683977 -0.2774611 0.330611
v 0.0001518324 0.5697007 0.3851271
v -0.3313105 0.5601592 0.1929474
v -0.1711792 8.014688 0.2789551
v 0.1276938 8.016972 0.2921408
v -0.2835918 7.961687 -0.02117806
v 0.2877043 24.00301 -0.04295146
v 0.2877043 24.00301 -0.04295146
v -0.5683995 -0.2774611 -0.3268155
v 0.001718151 0.55193 -0.3813568
v -0.3305476 0.5512719 -0.190287
v 0.000940668 -0.2774611 -0.6555212
v 0.0305383 7.948495 -0.2673014
v -0.2835918 7.961687 -0.02117806
v 0.2877043 24.00301 -0.04295146
v -0.5683977 -0.2774611 0.330611
v -0.3305476 0.5512719 -0.190287
v -0.3313105 0.5601592 0.1929474
v -0.5683995 -0.2774611 -0.3268155
v -0.2835918 7.961687 -0.02117806
v 0.5702828 -0.2774611 -0.3268003
v 0.3332222 0.5614715 -0.1891581
v 0.000940668 -0.2774611 -0.6555212
v 0.001718151 0.55193 -0.3813568
v 0.0305383 7.948495 -0.2673014
v 0.3123181 8.008615 -0.0006745988
v 0.2877043 24.00301 -0.04295146
v 0.5702828 -0.2774611 -0.3268003
v 0.5702847 -0.2774611 0.3306262
v 0.3332222 0.5614715 -0.1891581
v 0.3324049 0.5703559 0.194085
v 0.0009444258 -0.2774611 0.6593319
v 0.0001518324 0.5697007 0.3851271
v 0.1276938 8.016972 0.2921408
v 0.3123181 8.008615 -0.0006745988
v 0.2877043 24.00301 -0.04295146

vn 0.3947754 0.3076172 0.8657227
vn -0.5532227 0.3110352 0.7729492
vn 0.4064941 0.1650391 0.8984375
vn -0.578125 0.1680908 0.7983398
vn -0.2027588 0.0256958 0.9790039
vn 0.7871094 0.01535034 0.6166992
vn -0.987793 0.02792358 0.1536865
vn 0.009460449 1 -0.009849548
vn 0.009460449 1 -0.009849548
vn -0.9448242 0.3144531 -0.09082031
vn -0.4091797 0.1760254 -0.8955078
vn -0.9799805 0.1739502 -0.09844971
vn -0.3947754 0.3129883 -0.8637695
vn -0.3752441 0.02108765 -0.9267578
vn -0.987793 0.02792358 0.1536865
vn 0.009460449 1 -0.009849548
vn -0.5532227 0.3110352 0.7729492
vn -0.9799805 0.1739502 -0.09844971
vn -0.578125 0.1680908 0.7983398
vn -0.9448242 0.3144531 -0.09082031
vn -0.987793 0.02792358 0.1536865
vn 0.5517578 0.3105469 -0.7739258
vn 0.5708008 0.1697998 -0.8032227
vn -0.3947754 0.3129883 -0.8637695
vn -0.4091797 0.1760254 -0.8955078
vn -0.3752441 0.02108765 -0.9267578
vn 0.8510742 0.01165771 -0.5249023
vn 0.009460449 1 -0.009849548
vn 0.5517578 0.3105469 -0.7739258
vn 0.9467773 0.3085938 0.09039307
vn 0.5708008 0.1697998 -0.8032227
vn 0.9819336 0.1645508 0.09460449
vn 0.3947754 0.3076172 0.8657227
vn 0.4064941 0.1650391 0.8984375
vn 0.7871094 0.01535034 0.6166992
vn 0.8510742 0.01165771 -0.5249023
vn 0.009460449 1 -0.009849548

vt 0.333252 0.003404617
vt 0.166748 0.003404617
vt 0.333252 0.2583008
vt 0.166748 0.2575684
vt 0.166748 2.626953
vt 0.333252 2.626953
vt 5.799532E-05 2.625
vt 0.166748 6.253906
vt 5.799532E-05 6.253906
vt 1 0.003404617
vt 0.8334961 0.2558594
vt 1 0.2563477
vt 0.8334961 0.003404617
vt 0.7290039 2.625
vt 1 2.625
vt 0.8334961 6.253906
vt 0.166748 0.003404617
vt 5.799532E-05 0.2563477
vt 0.166748 0.2575684
vt 5.799532E-05 0.003404617
vt 5.799532E-05 2.625
vt 0.6665039 0.003404617
vt 0.6665039 0.2563477
vt 0.8334961 0.003404617
vt 0.8334961 0.2558594
vt 0.7290039 2.625
vt 0.5 2.626953
vt 0.5 6.253906
vt 0.6665039 0.003404617
vt 0.5 0.003404617
vt 0.6665039 0.2563477
vt 0.5 0.2575684
vt 0.333252 0.003404617
vt 0.333252 0.2583008
vt 0.333252 2.626953
vt 0.5 2.626953
vt 0.333252 6.253906

g MEP_ConTrunk_01_h_11692_31
usemtl MEP_ConTrunk_01_h_11692_31
usemap MEP_ConTrunk_01_h_11692_31
f 1/1/1 3/3/3 2/2/2
f 3/3/3 4/4/4 2/2/2
f 4/4/4 3/3/3 5/5/5
f 3/3/3 6/6/6 5/5/5
f 4/4/4 5/5/5 7/7/7
f 6/6/6 8/8/8 5/5/5
f 5/5/5 9/9/9 7/7/7
f 10/10/10 12/12/12 11/11/11
f 13/13/13 10/10/10 11/11/11
f 11/11/11 12/12/12 14/14/14
f 12/12/12 15/15/15 14/14/14
f 15/15/15 16/16/16 14/14/14
f 17/17/17 19/19/19 18/18/18
f 20/20/20 17/17/17 18/18/18
f 18/18/18 19/19/19 21/21/21
f 22/22/22 24/24/24 23/23/23
f 24/24/24 25/25/25 23/23/23
f 25/25/25 26/26/26 23/23/23
f 23/23/23 26/26/26 27/27/27
f 26/26/26 28/28/28 27/27/27
f 29/29/29 31/31/31 30/30/30
f 31/31/31 32/32/32 30/30/30
f 30/30/30 32/32/32 33/33/33
f 32/32/32 34/34/34 33/33/33
f 34/34/34 32/32/32 35/35/35
f 32/32/32 36/36/36 35/35/35
f 32/32/32 31/31/31 36/36/36
f 36/36/36 37/37/37 35/35/35
