#MEP_Con_01_h_13249_208.obj

v -0.9886076 1.8701 2.022382
v -0.04145404 2.738964 0.192049
v 0.175365 3.133242 -0.009898238
v -0.1296139 2.017378 0.588401
v 0.06087389 5.013865 0.3298866
v -0.04060501 5.410986 0.05559103
v 1.980746 3.836672 2.31981
v 0.4005498 4.295711 0.5631784
v 0.0584365 5.161913 -0.07770139
v -0.01362302 5.602562 0.131797
v -0.2754613 3.56552 -2.601873
v -0.09597842 4.395246 -0.3495942
v -0.1546679 7.07416 0.1252489
v 0.1510483 7.44681 0.02076162
v -2.565891 6.258064 1.72259
v -0.4860728 6.428029 0.5230486
v 0.143762 6.999117 -0.09008902
v -0.007088382 7.390816 0.02215332
v 1.258561 5.592319 -2.036186
v 0.1633405 6.328565 -0.376479
v -0.1149345 9.198686 -0.03921136
v -0.01336317 9.653197 0.1231132
v -2.010505 7.554883 -1.693341
v -0.4600681 8.447343 -0.08304441
v -0.007238 9.326726 0.2779491
v 0.04386123 9.7173 -0.01886011
v 0.4093448 8.302306 3.072324
v 0.1829381 8.640229 0.6999911
v -0.04145404 2.738964 0.192049
v -0.9886076 1.8701 2.022382
v 0.175365 3.133242 -0.009898238
v -0.1296139 2.017378 0.588401
v 0.06087389 5.013865 0.3298866
v 1.980746 3.836672 2.31981
v -0.04060501 5.410986 0.05559103
v 0.4005498 4.295711 0.5631784
v 0.0584365 5.161913 -0.07770139
v -0.2754613 3.56552 -2.601873
v -0.01362302 5.602562 0.131797
v -0.09597842 4.395246 -0.3495942
v -0.1546679 7.07416 0.1252489
v -2.565891 6.258064 1.72259
v 0.1510483 7.44681 0.02076162
v -0.4860728 6.428029 0.5230486
v 0.143762 6.999117 -0.09008902
v 1.258561 5.592319 -2.036186
v -0.007088382 7.390816 0.02215332
v 0.1633405 6.328565 -0.376479
v -0.1149345 9.198686 -0.03921136
v -2.010505 7.554883 -1.693341
v -0.01336317 9.653197 0.1231132
v -0.4600681 8.447343 -0.08304441
v -0.007238 9.326726 0.2779491
v 0.4093448 8.302306 3.072324
v 0.04386123 9.7173 -0.01886011
v 0.1829381 8.640229 0.6999911
v -0.7608893 10.36044 1.125322
v -2.972179 11.57432 2.589981
v -0.2411173 10.70937 0.3411353
v 0.2145455 10.92739 0.02164167
v -0.7608893 10.36044 1.125322
v -0.2411173 10.70937 0.3411353
v -2.972179 11.57432 2.589981
v 0.2145455 10.92739 0.02164167
v -0.09564887 5.061844 0.02496991
v 0.1386607 5.473125 0.1635585
v -2.790334 3.783173 -0.3425437
v -0.4850372 4.333046 0.07774641
v 0.1548802 6.976058 0.1772945
v 0.1947394 7.401444 -0.06909762
v 0.9400143 5.51322 2.682287
v 0.341619 6.220922 0.4609133
v 0.1576642 9.229545 0.07541351
v -0.1367673 9.724119 -0.05382117
v 3.393203 7.663886 0.08665108
v 0.600916 8.352187 -0.0450304
v -0.09564887 5.061844 0.02496991
v -2.790334 3.783173 -0.3425437
v 0.1386607 5.473125 0.1635585
v -0.4850372 4.333046 0.07774641
v 0.1548802 6.976058 0.1772945
v 0.9400143 5.51322 2.682287
v 0.1947394 7.401444 -0.06909762
v 0.341619 6.220922 0.4609133
v 0.1576642 9.229545 0.07541351
v 3.393203 7.663886 0.08665108
v -0.1367673 9.724119 -0.05382117
v 0.600916 8.352187 -0.0450304
v -0.4775218 10.73707 -1.029089
v -0.1793465 10.03951 -4.580524
v 0.05301906 11.63629 -0.3431079
v 0.1226254 12.25096 0.07049558
v -0.4775218 10.73707 -1.029089
v 0.05301906 11.63629 -0.3431079
v -0.1793465 10.03951 -4.580524
v 0.1226254 12.25096 0.07049558
v -0.3181373 11.67299 -0.008477611
v 0.2608319 12.28067 0.04632385
v -5.330852 10.70736 -0.4643666
v -1.314048 10.75051 0.3802444
v -0.3181373 11.67299 -0.008477611
v -5.330852 10.70736 -0.4643666
v 0.2608319 12.28067 0.04632385
v -1.314048 10.75051 0.3802444
v 0.02406201 16.23364 -0.2524337
v 0.1418846 16.52574 0.03856825
v -1.716071 15.66677 -2.117507
v -0.3265473 15.68114 -0.5526078
v -0.1478859 17.37599 -0.005100906
v 0.2379879 17.72493 -0.05596973
v -3.080486 16.89673 1.141861
v -0.6589778 16.75801 0.3512734
v 0.02406201 16.23364 -0.2524337
v -1.716071 15.66677 -2.117507
v 0.1418846 16.52574 0.03856825
v -0.3265473 15.68114 -0.5526078
v -0.1478859 17.37599 -0.005100906
v -3.080486 16.89673 1.141861
v 0.2379879 17.72493 -0.05596973
v -0.6589778 16.75801 0.3512734
v -0.2024999 13.99218 -0.176471
v 0.1882963 14.39918 0.09286758
v -3.364371 13.64519 -2.273107
v -1.038184 13.37294 -0.3173559
v -0.2024999 13.99218 -0.176471
v -3.364371 13.64519 -2.273107
v 0.1882963 14.39918 0.09286758
v -1.038184 13.37294 -0.3173559
v -0.1262765 19.11485 -0.1159643
v 0.2235044 19.45665 -0.003612429
v -2.271982 18.42253 -1.469913
v -0.6588443 18.46833 -0.02611494
v -0.1262765 19.11485 -0.1159643
v -2.271982 18.42253 -1.469913
v 0.2235044 19.45665 -0.003612429
v -0.6588443 18.46833 -0.02611494
v -0.159618 14.85503 -0.03273111
v 0.2875838 15.06024 -0.1312497
v -2.729247 15.14348 1.599132
v -0.7542742 14.40186 0.3554662
v -0.159618 14.85503 -0.03273111
v -2.729247 15.14348 1.599132
v 0.2875838 15.06024 -0.1312497
v -0.7542742 14.40186 0.3554662
v -0.0437833 13.34469 -0.01565855
v 0.08036122 13.79207 0.1507666
v -2.022182 11.81187 -1.679334
v -0.4253632 12.61157 -0.06562334
v 0.07095539 13.46418 0.3023824
v 0.1402548 13.8547 0.009230822
v 0.4449339 12.3931 3.085246
v 0.2285535 12.76508 0.717101
v -0.0437833 13.34469 -0.01565855
v -2.022182 11.81187 -1.679334
v 0.08036122 13.79207 0.1507666
v -0.4253632 12.61157 -0.06562334
v 0.07095539 13.46418 0.3023824
v 0.4449339 12.3931 3.085246
v 0.1402548 13.8547 0.009230822
v 0.2285535 12.76508 0.717101
v 0.2303175 13.36106 0.09836327
v -0.0399297 13.87068 -0.02507893
v 3.385475 11.63914 0.08358502
v 0.6298211 12.46432 -0.03207947
v 0.2303175 13.36106 0.09836327
v 3.385475 11.63914 0.08358502
v -0.0399297 13.87068 -0.02507893
v 0.6298211 12.46432 -0.03207947
v 0.2360801 15.53636 -0.1273828
v 0.05768461 15.98374 -0.02121991
v 2.096179 14.00354 -1.922383
v 0.3254023 14.80325 -0.5017183
v -0.09214316 15.65585 -0.0463082
v 0.192229 16.04637 0.05304359
v -2.898808 14.58478 0.03674167
v -0.5209747 14.95675 0.06738016
v 0.2360801 15.53636 -0.1273828
v 2.096179 14.00354 -1.922383
v 0.05768461 15.98374 -0.02121991
v 0.3254023 14.80325 -0.5017183
v -0.09214316 15.65585 -0.0463082
v -2.898808 14.58478 0.03674167
v 0.192229 16.04637 0.05304359
v -0.5209747 14.95675 0.06738016
v 0.07627081 15.52952 0.2066614
v 0.2270984 16.03914 -0.0493123
v -0.2366079 13.80761 3.346313
v 0.164514 14.63278 0.6175417
v 0.07627081 15.52952 0.2066614
v -0.2366079 13.80761 3.346313
v 0.2270984 16.03914 -0.0493123
v 0.164514 14.63278 0.6175417
v 0.2624794 19.86199 -0.5207635
v 1.230046 19.65501 -1.722443
v 0.2621344 20.38085 -0.1571741
v 0.1857674 20.67361 0.03211552
v 0.2624794 19.86199 -0.5207635
v 0.2621344 20.38085 -0.1571741
v 1.230046 19.65501 -1.722443
v 0.1857674 20.67361 0.03211552
v 0.4766165 21.22732 0.09621029
v 1.005944 20.87008 1.110789
v 0.2917404 21.67425 0.03161791
v 0.2208667 21.92544 -0.05453539
v 0.4766165 21.22732 0.09621029
v 0.2917404 21.67425 0.03161791
v 1.005944 20.87008 1.110789
v 0.2208667 21.92544 -0.05453539

vn -0.7470703 -0.05743408 0.6621094
vn -0.6416016 0.2324219 0.730957
vn -0.5854492 0.3356934 0.737793
vn -0.7700195 -0.1831055 0.6108398
vn 0.4990234 0.276123 0.8212891
vn 0.5214844 0.3781738 0.7651367
vn 0.4106445 -0.0004272461 0.9116211
vn 0.3476563 -0.1489258 0.9257813
vn 0.08428955 0.1971436 -0.9765625
vn 0.01817322 0.2932129 -0.9560547
vn 0.2470703 -0.05969238 -0.9672852
vn 0.3249512 -0.1953125 -0.925293
vn -0.9458008 0.1641846 0.2802734
vn -0.9121094 0.2751465 0.3041992
vn -0.9711914 -0.12854 0.2012939
vn -0.9477539 -0.2807617 0.1513672
vn 0.6845703 0.1552734 -0.7124023
vn 0.6230469 0.2526855 -0.7402344
vn 0.796875 -0.1022949 -0.5957031
vn 0.8266602 -0.2366943 -0.5102539
vn -0.5229492 0.06439209 -0.8500977
vn -0.5712891 0.1627197 -0.8046875
vn -0.3666992 -0.1895752 -0.9106445
vn -0.269043 -0.3186035 -0.9086914
vn -0.117981 0.203125 0.972168
vn -0.07354736 0.3103027 0.9477539
vn -0.2233887 -0.08221436 0.9711914
vn -0.2714844 -0.2322998 0.934082
vn 0.6416016 -0.2324219 -0.730957
vn 0.7470703 0.05743408 -0.6621094
vn 0.5854492 -0.3356934 -0.737793
vn 0.7700195 0.1831055 -0.6108398
vn -0.4990234 -0.276123 -0.8212891
vn -0.4106445 0.0004272461 -0.9116211
vn -0.5214844 -0.3781738 -0.7651367
vn -0.3476563 0.1489258 -0.9257813
vn -0.08428955 -0.1971436 0.9765625
vn -0.2470703 0.05969238 0.9672852
vn -0.01817322 -0.2932129 0.9560547
vn -0.3249512 0.1953125 0.925293
vn 0.9458008 -0.1641846 -0.2802734
vn 0.9711914 0.12854 -0.2012939
vn 0.9121094 -0.2753906 -0.3041992
vn 0.9477539 0.2807617 -0.1513672
vn -0.6845703 -0.1552734 0.7124023
vn -0.796875 0.1022949 0.5957031
vn -0.6230469 -0.2526855 0.7402344
vn -0.8266602 0.2366943 0.5102539
vn 0.5229492 -0.06439209 0.8500977
vn 0.3666992 0.1895752 0.9106445
vn 0.5712891 -0.1627197 0.8046875
vn 0.269043 0.3186035 0.9086914
vn 0.117981 -0.203125 -0.972168
vn 0.2233887 0.08221436 -0.9711914
vn 0.07354736 -0.3103027 -0.9477539
vn 0.2714844 0.2322998 -0.934082
vn 0.8066406 0.4326172 -0.4020996
vn 0.8754883 0.2866211 -0.388916
vn 0.9414063 -0.00567627 -0.3366699
vn 0.9438477 -0.1206055 -0.3076172
vn -0.8066406 -0.4326172 0.4020996
vn -0.9414063 0.00567627 0.3366699
vn -0.8754883 -0.2866211 0.388916
vn -0.9438477 0.1206055 0.3076172
vn -0.9077148 0.2327881 -0.348877
vn -0.8969727 0.3344727 -0.2893066
vn -0.8774414 -0.04095459 -0.4780273
vn -0.8276367 -0.1864014 -0.5292969
vn 0.09716797 0.2440186 0.9648438
vn 0.1530762 0.3415527 0.9272461
vn -0.05111694 -0.01940918 0.9985352
vn -0.1287842 -0.1601563 0.9785156
vn 0.9462891 0.2365723 0.2209473
vn 0.9272461 0.3376465 0.1621094
vn 0.9335938 -0.03546143 0.3564453
vn 0.8916016 -0.1801758 0.4157715
vn 0.9077148 -0.2327881 0.348877
vn 0.8774414 0.04095459 0.4780273
vn 0.8969727 -0.3344727 0.2893066
vn 0.8276367 0.1864014 0.5292969
vn -0.09716797 -0.2440186 -0.9648438
vn 0.05111694 0.01940918 -0.9985352
vn -0.1530762 -0.3415527 -0.9272461
vn 0.1287842 0.1601563 -0.9785156
vn -0.9462891 -0.2365723 -0.2209473
vn -0.9335938 0.03546143 -0.3564453
vn -0.9272461 -0.3376465 -0.1621094
vn -0.8916016 0.1801758 -0.4157715
vn -0.4353027 0.5996094 0.671875
vn -0.4172363 0.4755859 0.7744141
vn -0.3540039 0.2111816 0.9111328
vn -0.3203125 0.1017456 0.9418945
vn 0.4353027 -0.5996094 -0.671875
vn 0.3540039 -0.2111816 -0.9111328
vn 0.4172363 -0.4755859 -0.7744141
vn 0.3203125 -0.1017456 -0.9418945
vn -0.8920898 -0.1119385 -0.4379883
vn -0.9072266 0.004272461 -0.4204102
vn -0.7958984 -0.4001465 -0.4543457
vn -0.7143555 -0.5395508 -0.4458008
vn 0.8920898 0.1119385 0.4379883
vn 0.7958984 0.4001465 0.4543457
vn 0.9072266 -0.004272461 0.4204102
vn 0.7143555 0.5395508 0.4458008
vn -0.4399414 0.3354492 -0.8330078
vn -0.4428711 0.4416504 -0.7802734
vn -0.4042969 0.04428101 -0.9135742
vn -0.3696289 -0.1137085 -0.9223633
vn -0.9799805 0.1907959 0.05722046
vn -0.949707 0.3041992 0.07366943
vn -0.9936523 -0.1096802 0.01186371
vn -0.9638672 -0.2668457 -0.01292419
vn 0.4399414 -0.3354492 0.8330078
vn 0.4042969 -0.04428101 0.9135742
vn 0.4428711 -0.4416504 0.7802734
vn 0.3696289 0.1137085 0.9223633
vn 0.9799805 -0.1907959 -0.05722046
vn 0.9936523 0.1096802 -0.01186371
vn 0.949707 -0.3041992 -0.07366943
vn 0.9638672 0.2668457 0.01292419
vn -0.5883789 -0.09454346 -0.8027344
vn -0.5996094 0.02337646 -0.7998047
vn -0.5224609 -0.3881836 -0.7592773
vn -0.467041 -0.53125 -0.7070313
vn 0.5883789 0.09454346 0.8027344
vn 0.5224609 0.3881836 0.7592773
vn 0.5996094 -0.02340698 0.7998047
vn 0.467041 0.53125 0.7070313
vn -0.4743652 -0.4003906 -0.7836914
vn -0.4992676 -0.3491211 -0.7929688
vn -0.4138184 -0.5092773 -0.7543945
vn -0.3874512 -0.5507813 -0.7392578
vn 0.4743652 0.4003906 0.7836914
vn 0.4138184 0.5092773 0.7543945
vn 0.4992676 0.3491211 0.7929688
vn 0.3874512 0.5507813 0.7392578
vn -0.887207 0.4333496 0.157959
vn -0.8330078 0.5361328 0.1357422
vn -0.9682617 0.1437988 0.2043457
vn -0.9750977 -0.01712036 0.2214355
vn 0.887207 -0.4333496 -0.157959
vn 0.9682617 -0.1437988 -0.2043457
vn 0.8330078 -0.5361328 -0.1357422
vn 0.9750977 0.01712036 -0.2214355
vn -0.5239258 0.04150391 -0.8505859
vn -0.5698242 0.1429443 -0.8095703
vn -0.3747559 -0.21875 -0.9008789
vn -0.2802734 -0.3500977 -0.8935547
vn -0.1091919 0.2474365 0.9628906
vn -0.06210327 0.3522949 0.9335938
vn -0.2218018 -0.03491211 0.9746094
vn -0.2739258 -0.1851807 0.9438477
vn 0.5239258 -0.04150391 0.8505859
vn 0.3747559 0.21875 0.9008789
vn 0.5698242 -0.1429443 0.8095703
vn 0.2802734 0.3500977 0.8935547
vn 0.1091919 -0.2474365 -0.9628906
vn 0.2218018 0.03491211 -0.9746094
vn 0.06210327 -0.3522949 -0.9335938
vn 0.2739258 0.1851807 -0.9438477
vn 0.9526367 0.2213135 0.208252
vn 0.9360352 0.3203125 0.1451416
vn 0.9335938 -0.04428101 0.3552246
vn 0.8881836 -0.1851807 0.4206543
vn -0.9526367 -0.2213135 -0.208252
vn -0.9335938 0.04428101 -0.3552246
vn -0.9360352 -0.3203125 -0.1451416
vn -0.8881836 0.1851807 -0.4206543
vn 0.9003906 0.04150391 -0.4328613
vn 0.8642578 0.1429443 -0.4824219
vn 0.9350586 -0.21875 -0.2792969
vn 0.9179688 -0.3500977 -0.1860352
vn -0.9462891 0.2474365 -0.2084961
vn -0.9223633 0.3522949 -0.1586914
vn -0.9462891 -0.03491211 -0.3217773
vn -0.9101563 -0.1851807 -0.3703613
vn -0.9003906 -0.04150391 0.4328613
vn -0.9350586 0.21875 0.2792969
vn -0.8642578 -0.1429443 0.4824219
vn -0.9179688 0.3500977 0.1860352
vn 0.9462891 -0.2474365 0.2084961
vn 0.9462891 0.03491211 0.3217773
vn 0.9223633 -0.3522949 0.1586914
vn 0.9101563 0.1851807 0.3703613
vn -0.3061523 0.2213135 0.9257813
vn -0.2415771 0.3203125 0.9160156
vn -0.4501953 -0.04428101 0.8916016
vn -0.5107422 -0.1851807 0.8393555
vn 0.3061523 -0.2213135 -0.9257813
vn 0.4501953 0.04428101 -0.8916016
vn 0.2415771 -0.3203125 -0.9160156
vn 0.5107422 0.1851807 -0.8393555
vn -0.7998047 0.4272461 0.421875
vn -0.809082 0.364502 0.4609375
vn -0.8139648 0.2202148 0.5375977
vn -0.8095703 0.15979 0.5649414
vn 0.7998047 -0.4272461 -0.421875
vn 0.8139648 -0.2202148 -0.5375977
vn 0.809082 -0.364502 -0.4609375
vn 0.8095703 -0.15979 -0.5649414
vn -0.03146362 0.3144531 -0.9487305
vn -0.07354736 0.2546387 -0.9643555
vn -0.1638184 0.1193848 -0.9790039
vn -0.1993408 0.06329346 -0.9780273
vn 0.03146362 -0.3144531 0.9487305
vn 0.1638184 -0.1193848 0.9790039
vn 0.07354736 -0.2546387 0.9643555
vn 0.1993408 -0.06329346 0.9780273

vt 0.8422852 0.7006836
vt 0.9926758 0.2159424
vt 0.9921875 0.08068848
vt 0.9970703 0.3566895
vt 0.9926758 0.2159424
vt 0.9921875 0.08068848
vt 0.8422852 0.7006836
vt 0.9970703 0.3566895
vt 0.9926758 0.2159424
vt 0.9921875 0.08068848
vt 0.8422852 0.7006836
vt 0.9970703 0.3566895
vt 0.9926758 0.2159424
vt 0.9921875 0.08068848
vt 0.8422852 0.7006836
vt 0.9970703 0.3566895
vt 0.9926758 0.2159424
vt 0.9921875 0.08068848
vt 0.8422852 0.7006836
vt 0.9970703 0.3566895
vt 0.9926758 0.2159424
vt 0.9921875 0.08068848
vt 0.8422852 0.7006836
vt 0.9970703 0.3566895
vt 0.9926758 0.2159424
vt 0.9921875 0.08068848
vt 0.8422852 0.7006836
vt 0.9970703 0.3566895
vt 0.9926758 0.2159424
vt 0.8422852 0.7006836
vt 0.9921875 0.08068848
vt 0.9970703 0.3566895
vt 0.9926758 0.2159424
vt 0.8422852 0.7006836
vt 0.9921875 0.08068848
vt 0.9970703 0.3566895
vt 0.9926758 0.2159424
vt 0.8422852 0.7006836
vt 0.9921875 0.08068848
vt 0.9970703 0.3566895
vt 0.9926758 0.2159424
vt 0.8422852 0.7006836
vt 0.9921875 0.08068848
vt 0.9970703 0.3566895
vt 0.9926758 0.2159424
vt 0.8422852 0.7006836
vt 0.9921875 0.08068848
vt 0.9970703 0.3566895
vt 0.9926758 0.2159424
vt 0.8422852 0.7006836
vt 0.9921875 0.08068848
vt 0.9970703 0.3566895
vt 0.9926758 0.2159424
vt 0.8422852 0.7006836
vt 0.9921875 0.08068848
vt 0.9970703 0.3566895
vt 0.9970703 0.3566895
vt 0.8422852 0.7006836
vt 0.9926758 0.2159424
vt 0.9921875 0.08068848
vt 0.9970703 0.3566895
vt 0.9926758 0.2159424
vt 0.8422852 0.7006836
vt 0.9921875 0.08068848
vt 0.9926758 0.2159424
vt 0.9921875 0.08068848
vt 0.8422852 0.7006836
vt 0.9970703 0.3566895
vt 0.9926758 0.2159424
vt 0.9921875 0.08068848
vt 0.8422852 0.7006836
vt 0.9970703 0.3566895
vt 0.9926758 0.2159424
vt 0.9921875 0.08068848
vt 0.8422852 0.7006836
vt 0.9970703 0.3566895
vt 0.9926758 0.2159424
vt 0.8422852 0.7006836
vt 0.9921875 0.08068848
vt 0.9970703 0.3566895
vt 0.9926758 0.2159424
vt 0.8422852 0.7006836
vt 0.9921875 0.08068848
vt 0.9970703 0.3566895
vt 0.9926758 0.2159424
vt 0.8422852 0.7006836
vt 0.9921875 0.08068848
vt 0.9970703 0.3566895
vt 0.9970703 0.3566895
vt 0.8422852 0.7006836
vt 0.9926758 0.2159424
vt 0.9921875 0.08068848
vt 0.9970703 0.3566895
vt 0.9926758 0.2159424
vt 0.8422852 0.7006836
vt 0.9921875 0.08068848
vt 0.9926758 0.2159424
vt 0.9921875 0.08068848
vt 0.8422852 0.7006836
vt 0.9970703 0.3566895
vt 0.9926758 0.2159424
vt 0.8422852 0.7006836
vt 0.9921875 0.08068848
vt 0.9970703 0.3566895
vt 0.9926758 0.2159424
vt 0.9921875 0.08068848
vt 0.8422852 0.7006836
vt 0.9970703 0.3566895
vt 0.9926758 0.2159424
vt 0.9921875 0.08068848
vt 0.8422852 0.7006836
vt 0.9970703 0.3566895
vt 0.9926758 0.2159424
vt 0.8422852 0.7006836
vt 0.9921875 0.08068848
vt 0.9970703 0.3566895
vt 0.9926758 0.2159424
vt 0.8422852 0.7006836
vt 0.9921875 0.08068848
vt 0.9970703 0.3566895
vt 0.9926758 0.2159424
vt 0.9921875 0.08068848
vt 0.8422852 0.7006836
vt 0.9970703 0.3566895
vt 0.9926758 0.2159424
vt 0.8422852 0.7006836
vt 0.9921875 0.08068848
vt 0.9970703 0.3566895
vt 0.9926758 0.2159424
vt 0.9921875 0.08068848
vt 0.8422852 0.7006836
vt 0.9970703 0.3566895
vt 0.9926758 0.2159424
vt 0.8422852 0.7006836
vt 0.9921875 0.08068848
vt 0.9970703 0.3566895
vt 0.9926758 0.2159424
vt 0.9921875 0.08068848
vt 0.8422852 0.7006836
vt 0.9970703 0.3566895
vt 0.9926758 0.2159424
vt 0.8422852 0.7006836
vt 0.9921875 0.08068848
vt 0.9970703 0.3566895
vt 0.9926758 0.2159424
vt 0.9921875 0.08068848
vt 0.8422852 0.7006836
vt 0.9970703 0.3566895
vt 0.9926758 0.2159424
vt 0.9921875 0.08068848
vt 0.8422852 0.7006836
vt 0.9970703 0.3566895
vt 0.9926758 0.2159424
vt 0.8422852 0.7006836
vt 0.9921875 0.08068848
vt 0.9970703 0.3566895
vt 0.9926758 0.2159424
vt 0.8422852 0.7006836
vt 0.9921875 0.08068848
vt 0.9970703 0.3566895
vt 0.9926758 0.2159424
vt 0.9921875 0.08068848
vt 0.8422852 0.7006836
vt 0.9970703 0.3566895
vt 0.9926758 0.2159424
vt 0.8422852 0.7006836
vt 0.9921875 0.08068848
vt 0.9970703 0.3566895
vt 0.9926758 0.2159424
vt 0.9921875 0.08068848
vt 0.8422852 0.7006836
vt 0.9970703 0.3566895
vt 0.9926758 0.2159424
vt 0.9921875 0.08068848
vt 0.8422852 0.7006836
vt 0.9970703 0.3566895
vt 0.9926758 0.2159424
vt 0.8422852 0.7006836
vt 0.9921875 0.08068848
vt 0.9970703 0.3566895
vt 0.9926758 0.2159424
vt 0.8422852 0.7006836
vt 0.9921875 0.08068848
vt 0.9970703 0.3566895
vt 0.9926758 0.2159424
vt 0.9921875 0.08068848
vt 0.8422852 0.7006836
vt 0.9970703 0.3566895
vt 0.9926758 0.2159424
vt 0.8422852 0.7006836
vt 0.9921875 0.08068848
vt 0.9970703 0.3566895
vt 0.9970703 0.3566895
vt 0.8422852 0.7006836
vt 0.9926758 0.2159424
vt 0.9921875 0.08068848
vt 0.9970703 0.3566895
vt 0.9926758 0.2159424
vt 0.8422852 0.7006836
vt 0.9921875 0.08068848
vt 0.9970703 0.3566895
vt 0.8422852 0.7006836
vt 0.9926758 0.2159424
vt 0.9921875 0.08068848
vt 0.9970703 0.3566895
vt 0.9926758 0.2159424
vt 0.8422852 0.7006836
vt 0.9921875 0.08068848

g MEP_Con_01_h_13249_208
usemtl MEP_Con_01_h_13249_208
usemap MEP_Con_01_h_13249_208
f 1/1/1 3/3/3 2/2/2
f 4/4/4 1/1/1 2/2/2
f 5/5/5 7/7/7 6/6/6
f 8/8/8 7/7/7 5/5/5
f 9/9/9 11/11/11 10/10/10
f 12/12/12 11/11/11 9/9/9
f 13/13/13 15/15/15 14/14/14
f 16/16/16 15/15/15 13/13/13
f 17/17/17 19/19/19 18/18/18
f 20/20/20 19/19/19 17/17/17
f 21/21/21 23/23/23 22/22/22
f 24/24/24 23/23/23 21/21/21
f 25/25/25 27/27/27 26/26/26
f 28/28/28 27/27/27 25/25/25
f 29/29/29 31/31/31 30/30/30
f 32/32/32 29/29/29 30/30/30
f 33/33/33 35/35/35 34/34/34
f 36/36/36 33/33/33 34/34/34
f 37/37/37 39/39/39 38/38/38
f 40/40/40 37/37/37 38/38/38
f 41/41/41 43/43/43 42/42/42
f 44/44/44 41/41/41 42/42/42
f 45/45/45 47/47/47 46/46/46
f 48/48/48 45/45/45 46/46/46
f 49/49/49 51/51/51 50/50/50
f 52/52/52 49/49/49 50/50/50
f 53/53/53 55/55/55 54/54/54
f 56/56/56 53/53/53 54/54/54
f 57/57/57 59/59/59 58/58/58
f 59/59/59 60/60/60 58/58/58
f 61/61/61 63/63/63 62/62/62
f 62/62/62 63/63/63 64/64/64
f 65/65/65 67/67/67 66/66/66
f 68/68/68 67/67/67 65/65/65
f 69/69/69 71/71/71 70/70/70
f 72/72/72 71/71/71 69/69/69
f 73/73/73 75/75/75 74/74/74
f 76/76/76 75/75/75 73/73/73
f 77/77/77 79/79/79 78/78/78
f 80/80/80 77/77/77 78/78/78
f 81/81/81 83/83/83 82/82/82
f 84/84/84 81/81/81 82/82/82
f 85/85/85 87/87/87 86/86/86
f 88/88/88 85/85/85 86/86/86
f 89/89/89 91/91/91 90/90/90
f 91/91/91 92/92/92 90/90/90
f 93/93/93 95/95/95 94/94/94
f 94/94/94 95/95/95 96/96/96
f 97/97/97 99/99/99 98/98/98
f 100/100/100 99/99/99 97/97/97
f 101/101/101 103/103/103 102/102/102
f 104/104/104 101/101/101 102/102/102
f 105/105/105 107/107/107 106/106/106
f 108/108/108 107/107/107 105/105/105
f 109/109/109 111/111/111 110/110/110
f 112/112/112 111/111/111 109/109/109
f 113/113/113 115/115/115 114/114/114
f 116/116/116 113/113/113 114/114/114
f 117/117/117 119/119/119 118/118/118
f 120/120/120 117/117/117 118/118/118
f 121/121/121 123/123/123 122/122/122
f 124/124/124 123/123/123 121/121/121
f 125/125/125 127/127/127 126/126/126
f 128/128/128 125/125/125 126/126/126
f 129/129/129 131/131/131 130/130/130
f 132/132/132 131/131/131 129/129/129
f 133/133/133 135/135/135 134/134/134
f 136/136/136 133/133/133 134/134/134
f 137/137/137 139/139/139 138/138/138
f 140/140/140 139/139/139 137/137/137
f 141/141/141 143/143/143 142/142/142
f 144/144/144 141/141/141 142/142/142
f 145/145/145 147/147/147 146/146/146
f 148/148/148 147/147/147 145/145/145
f 149/149/149 151/151/151 150/150/150
f 152/152/152 151/151/151 149/149/149
f 153/153/153 155/155/155 154/154/154
f 156/156/156 153/153/153 154/154/154
f 157/157/157 159/159/159 158/158/158
f 160/160/160 157/157/157 158/158/158
f 161/161/161 163/163/163 162/162/162
f 164/164/164 163/163/163 161/161/161
f 165/165/165 167/167/167 166/166/166
f 168/168/168 165/165/165 166/166/166
f 169/169/169 171/171/171 170/170/170
f 172/172/172 171/171/171 169/169/169
f 173/173/173 175/175/175 174/174/174
f 176/176/176 175/175/175 173/173/173
f 177/177/177 179/179/179 178/178/178
f 180/180/180 177/177/177 178/178/178
f 181/181/181 183/183/183 182/182/182
f 184/184/184 181/181/181 182/182/182
f 185/185/185 187/187/187 186/186/186
f 188/188/188 187/187/187 185/185/185
f 189/189/189 191/191/191 190/190/190
f 192/192/192 189/189/189 190/190/190
f 193/193/193 195/195/195 194/194/194
f 195/195/195 196/196/196 194/194/194
f 197/197/197 199/199/199 198/198/198
f 198/198/198 199/199/199 200/200/200
f 201/201/201 203/203/203 202/202/202
f 203/203/203 204/204/204 202/202/202
f 205/205/205 207/207/207 206/206/206
f 206/206/206 207/207/207 208/208/208
