#MEP_ConTrunk_01_f_13494_21.obj

v 0.0009485831 -0.2774608 0.6593376
v -0.5683997 -0.2774608 0.3306322
v 0.002467144 0.5710192 0.3749788
v -0.3262273 0.5615582 0.1844374
v -0.08081163 8.782871 0.2617878
v 0.1649198 8.784748 0.2726352
v -0.1732155 8.739295 0.01501952
v 0.3012377 20.26084 0.2109446
v 0.3012377 20.26084 0.2109446
v -0.5683932 -0.2774608 -0.3268025
v 0.004035376 0.5533983 -0.3850798
v -0.3254583 0.5527462 -0.195584
v 0.0009437127 -0.2774608 -0.655507
v 0.08504774 8.728449 -0.1873292
v -0.1732155 8.739295 0.01501952
v 0.3012377 20.26084 0.2109446
v -0.5683997 -0.2774608 0.3306322
v -0.3254583 0.5527462 -0.195584
v -0.3262273 0.5615582 0.1844374
v -0.5683932 -0.2774608 -0.3268025
v -0.1732155 8.739295 0.01501952
v 0.5702921 -0.2774608 -0.3268015
v 0.3327489 0.5628582 -0.1944868
v 0.0009437127 -0.2774608 -0.655507
v 0.004035376 0.5533983 -0.3850798
v 0.08504774 8.728449 -0.1873292
v 0.3167009 8.777877 0.03188972
v 0.3012377 20.26084 0.2109446
v 0.5702921 -0.2774608 -0.3268015
v 0.5702855 -0.2774608 0.3306332
v 0.3327489 0.5628582 -0.1944868
v 0.3319373 0.5716702 0.1855414
v 0.0009485831 -0.2774608 0.6593376
v 0.002467144 0.5710192 0.3749788
v 0.1649198 8.784748 0.2726352
v 0.3167009 8.777877 0.03188972
v 0.3012377 20.26084 0.2109446

vn 0.5576172 0.3173828 0.7670898
vn -0.3850098 0.3193359 0.8657227
vn 0.5766602 0.1719971 0.7983398
vn -0.4077148 0.1781006 0.8955078
vn -0.00387764 0.02322388 0.9995117
vn 0.8955078 0.006652832 0.4450684
vn -0.9379883 0.03915405 0.3449707
vn 0.02288818 0.9995117 -0.002315521
vn 0.02288818 0.9995117 -0.002315521
vn -0.9433594 0.3156738 0.1021729
vn -0.5800781 0.1777344 -0.7949219
vn -0.9785156 0.1810303 0.09814453
vn -0.5610352 0.3085938 -0.7680664
vn -0.5522461 0.03442383 -0.8330078
vn -0.9379883 0.03915405 0.3449707
vn 0.02288818 0.9995117 -0.002315521
vn -0.3850098 0.3193359 0.8657227
vn -0.9785156 0.1810303 0.09814453
vn -0.4077148 0.1781006 0.8955078
vn -0.9433594 0.3156738 0.1021729
vn -0.9379883 0.03915405 0.3449707
vn 0.3874512 0.3078613 -0.8691406
vn 0.3967285 0.1693115 -0.9023438
vn -0.5610352 0.3085938 -0.7680664
vn -0.5800781 0.1777344 -0.7949219
vn -0.5522461 0.03442383 -0.8330078
vn 0.7265625 0.01202393 -0.6870117
vn 0.02288818 0.9995117 -0.002315521
vn 0.3874512 0.3078613 -0.8691406
vn 0.9448242 0.3127441 -0.09863281
vn 0.3967285 0.1693115 -0.9023438
vn 0.9804688 0.1663818 -0.1053467
vn 0.5576172 0.3173828 0.7670898
vn 0.5766602 0.1719971 0.7983398
vn 0.8955078 0.006652832 0.4450684
vn 0.7265625 0.01202393 -0.6870117
vn 0.02288818 0.9995117 -0.002315521

vt 0.333252 0.003404617
vt 0.166748 0.003404617
vt 0.333252 0.2583008
vt 0.166748 0.2575684
vt 0.166748 2.626953
vt 0.333252 2.626953
vt 5.799532E-05 2.625
vt 0.166748 6.253906
vt 5.799532E-05 6.253906
vt 1 0.003404617
vt 0.8334961 0.2558594
vt 1 0.2563477
vt 0.8334961 0.003404617
vt 0.7290039 2.625
vt 1 2.625
vt 0.8334961 6.253906
vt 0.166748 0.003404617
vt 5.799532E-05 0.2563477
vt 0.166748 0.2575684
vt 5.799532E-05 0.003404617
vt 5.799532E-05 2.625
vt 0.6665039 0.003404617
vt 0.6665039 0.2563477
vt 0.8334961 0.003404617
vt 0.8334961 0.2558594
vt 0.7290039 2.625
vt 0.5 2.626953
vt 0.5 6.253906
vt 0.6665039 0.003404617
vt 0.5 0.003404617
vt 0.6665039 0.2563477
vt 0.5 0.2575684
vt 0.333252 0.003404617
vt 0.333252 0.2583008
vt 0.333252 2.626953
vt 0.5 2.626953
vt 0.333252 6.253906

g MEP_ConTrunk_01_f_13494_21
usemtl MEP_ConTrunk_01_f_13494_21
usemap MEP_ConTrunk_01_f_13494_21
f 1/1/1 3/3/3 2/2/2
f 3/3/3 4/4/4 2/2/2
f 4/4/4 3/3/3 5/5/5
f 3/3/3 6/6/6 5/5/5
f 4/4/4 5/5/5 7/7/7
f 6/6/6 8/8/8 5/5/5
f 5/5/5 9/9/9 7/7/7
f 10/10/10 12/12/12 11/11/11
f 13/13/13 10/10/10 11/11/11
f 11/11/11 12/12/12 14/14/14
f 12/12/12 15/15/15 14/14/14
f 15/15/15 16/16/16 14/14/14
f 17/17/17 19/19/19 18/18/18
f 20/20/20 17/17/17 18/18/18
f 18/18/18 19/19/19 21/21/21
f 22/22/22 24/24/24 23/23/23
f 24/24/24 25/25/25 23/23/23
f 25/25/25 26/26/26 23/23/23
f 23/23/23 26/26/26 27/27/27
f 26/26/26 28/28/28 27/27/27
f 29/29/29 31/31/31 30/30/30
f 31/31/31 32/32/32 30/30/30
f 30/30/30 32/32/32 33/33/33
f 32/32/32 34/34/34 33/33/33
f 34/34/34 32/32/32 35/35/35
f 32/32/32 36/36/36 35/35/35
f 32/32/32 31/31/31 36/36/36
f 36/36/36 37/37/37 35/35/35
