#MEP_Con_01_h_11689_226.obj

v -0.9886106 1.8701 2.022382
v -0.04146148 2.738964 0.1920464
v 0.1753643 3.133242 -0.009912864
v -0.1296045 2.017378 0.5884056
v 0.06089216 5.013865 0.3298765
v -0.04060955 5.410986 0.05558017
v 1.980739 3.836672 2.319796
v 0.4005502 4.29571 0.5631832
v 0.05843191 5.161913 -0.0776867
v -0.01363274 5.602562 0.1317917
v -0.275462 3.565519 -2.601867
v -0.09598074 4.395245 -0.3496003
v -0.1546759 7.07416 0.1252683
v 0.1510547 7.44681 0.02074775
v -2.565888 6.258064 1.722571
v -0.4860564 6.428028 0.5230459
v 0.1437619 6.999117 -0.09008322
v -0.007077741 7.390816 0.02216185
v 1.258545 5.592319 -2.036177
v 0.1633433 6.328564 -0.3764845
v -0.1149345 9.198686 -0.03921783
v -0.01335409 9.653197 0.1231171
v -2.0105 7.554882 -1.693357
v -0.4600649 8.447343 -0.08304983
v -0.007235486 9.326726 0.2779545
v 0.04386126 9.7173 -0.01883854
v 0.4093398 8.302306 3.072303
v 0.1829299 8.640229 0.6999892
v -0.04146148 2.738964 0.1920464
v -0.9886106 1.8701 2.022382
v 0.1753643 3.133242 -0.009912864
v -0.1296045 2.017378 0.5884056
v 0.06089216 5.013865 0.3298765
v 1.980739 3.836672 2.319796
v -0.04060955 5.410986 0.05558017
v 0.4005502 4.29571 0.5631832
v 0.05843191 5.161913 -0.0776867
v -0.275462 3.565519 -2.601867
v -0.01363274 5.602562 0.1317917
v -0.09598074 4.395245 -0.3496003
v -0.1546759 7.07416 0.1252683
v -2.565888 6.258064 1.722571
v 0.1510547 7.44681 0.02074775
v -0.4860564 6.428028 0.5230459
v 0.1437619 6.999117 -0.09008322
v 1.258545 5.592319 -2.036177
v -0.007077741 7.390816 0.02216185
v 0.1633433 6.328564 -0.3764845
v -0.1149345 9.198686 -0.03921783
v -2.0105 7.554882 -1.693357
v -0.01335409 9.653197 0.1231171
v -0.4600649 8.447343 -0.08304983
v -0.007235486 9.326726 0.2779545
v 0.4093398 8.302306 3.072303
v 0.04386126 9.7173 -0.01883854
v 0.1829299 8.640229 0.6999892
v -0.7608802 10.36044 1.125319
v -2.972181 11.57432 2.589991
v -0.2411173 10.70937 0.3411567
v 0.2145441 10.92739 0.02162103
v -0.7608802 10.36044 1.125319
v -0.2411173 10.70937 0.3411567
v -2.972181 11.57432 2.589991
v 0.2145441 10.92739 0.02162103
v -0.09564558 5.061844 0.0249816
v 0.1386448 5.473125 0.1635599
v -2.790333 3.783173 -0.3425345
v -0.4850372 4.333046 0.07774557
v 0.1548837 6.976057 0.1772768
v 0.1947245 7.401443 -0.06909809
v 0.9400014 5.51322 2.682304
v 0.3416293 6.220922 0.460927
v 0.1576636 9.229545 0.07539633
v -0.1367655 9.724119 -0.05381593
v 3.393198 7.663885 0.08665019
v 0.6009165 8.352187 -0.04500869
v -0.09564558 5.061844 0.0249816
v -2.790333 3.783173 -0.3425345
v 0.1386448 5.473125 0.1635599
v -0.4850372 4.333046 0.07774557
v 0.1548837 6.976057 0.1772768
v 0.9400014 5.51322 2.682304
v 0.1947245 7.401443 -0.06909809
v 0.3416293 6.220922 0.460927
v 0.1576636 9.229545 0.07539633
v 3.393198 7.663885 0.08665019
v -0.1367655 9.724119 -0.05381593
v 0.6009165 8.352187 -0.04500869
v -0.4775334 10.73707 -1.029082
v -0.1793425 10.03951 -4.580519
v 0.05300023 11.63629 -0.3431125
v 0.1226353 12.25096 0.07048694
v -0.4775334 10.73707 -1.029082
v 0.05300023 11.63629 -0.3431125
v -0.1793425 10.03951 -4.580519
v 0.1226353 12.25096 0.07048694
v -0.3181354 11.67299 -0.008469658
v 0.2608434 12.28067 0.0463201
v -5.330858 10.70736 -0.464374
v -1.314054 10.75051 0.3802401
v -0.3181354 11.67299 -0.008469658
v -5.330858 10.70736 -0.464374
v 0.2608434 12.28067 0.0463201
v -1.314054 10.75051 0.3802401
v 0.0240487 16.23364 -0.2524425
v 0.141899 16.52574 0.03857013
v -1.716064 15.66677 -2.117509
v -0.326557 15.68114 -0.5526208
v -0.1478851 17.37599 -0.005095276
v 0.237998 17.72493 -0.05597089
v -3.080489 16.89673 1.141872
v -0.658986 16.75801 0.3512673
v 0.0240487 16.23364 -0.2524425
v -1.716064 15.66677 -2.117509
v 0.141899 16.52574 0.03857013
v -0.326557 15.68114 -0.5526208
v -0.1478851 17.37599 -0.005095276
v -3.080489 16.89673 1.141872
v 0.237998 17.72493 -0.05597089
v -0.658986 16.75801 0.3512673
v -0.202491 13.99219 -0.1764783
v 0.1882937 14.39918 0.09288199
v -3.36437 13.64519 -2.273105
v -1.038192 13.37294 -0.3173507
v -0.202491 13.99219 -0.1764783
v -3.36437 13.64519 -2.273105
v 0.1882937 14.39918 0.09288199
v -1.038192 13.37294 -0.3173507
v -0.1262968 19.11485 -0.1159685
v 0.223498 19.45665 -0.003597035
v -2.271991 18.42253 -1.469904
v -0.6588525 18.46833 -0.02609642
v -0.1262968 19.11485 -0.1159685
v -2.271991 18.42253 -1.469904
v 0.223498 19.45665 -0.003597035
v -0.6588525 18.46833 -0.02609642
v -0.1596191 14.85503 -0.03274848
v 0.2875738 15.06024 -0.1312303
v -2.729249 15.14348 1.599125
v -0.7542694 14.40186 0.3554619
v -0.1596191 14.85503 -0.03274848
v -2.729249 15.14348 1.599125
v 0.2875738 15.06024 -0.1312303
v -0.7542694 14.40186 0.3554619
v -0.04377136 13.34469 -0.01565399
v 0.0803469 13.79207 0.1507559
v -2.022182 11.81187 -1.679332
v -0.4253614 12.61157 -0.06563285
v 0.07094645 13.46418 0.3023824
v 0.1402549 13.8547 0.009232086
v 0.4449412 12.3931 3.085252
v 0.2285582 12.76508 0.7170887
v -0.04377136 13.34469 -0.01565399
v -2.022182 11.81187 -1.679332
v 0.0803469 13.79207 0.1507559
v -0.4253614 12.61157 -0.06563285
v 0.07094645 13.46418 0.3023824
v 0.4449412 12.3931 3.085252
v 0.1402549 13.8547 0.009232086
v 0.2285582 12.76508 0.7170887
v 0.2303189 13.36106 0.09835416
v -0.03993442 13.87068 -0.02508472
v 3.385477 11.63914 0.08356532
v 0.62982 12.46432 -0.03208182
v 0.2303189 13.36106 0.09835416
v 3.385477 11.63914 0.08356532
v -0.03993442 13.87068 -0.02508472
v 0.62982 12.46432 -0.03208182
v 0.2360667 15.53636 -0.1273918
v 0.05768783 15.98374 -0.02120588
v 2.096175 14.00354 -1.92236
v 0.3254085 14.80325 -0.5017368
v -0.0921472 15.65585 -0.04630359
v 0.1922372 16.04637 0.05304489
v -2.8988 14.58478 0.03673721
v -0.5209708 14.95675 0.06737392
v 0.2360667 15.53636 -0.1273918
v 2.096175 14.00354 -1.92236
v 0.05768783 15.98374 -0.02120588
v 0.3254085 14.80325 -0.5017368
v -0.0921472 15.65585 -0.04630359
v -2.8988 14.58478 0.03673721
v 0.1922372 16.04637 0.05304489
v -0.5209708 14.95675 0.06737392
v 0.07628354 15.52952 0.2066664
v 0.2270909 16.03914 -0.04930448
v -0.2366169 13.80761 3.346323
v 0.1645116 14.63278 0.6175415
v 0.07628354 15.52952 0.2066664
v -0.2366169 13.80761 3.346323
v 0.2270909 16.03914 -0.04930448
v 0.1645116 14.63278 0.6175415
v 0.2624715 19.86199 -0.5207704
v 1.230053 19.65501 -1.722462
v 0.2621385 20.38085 -0.1571743
v 0.1857625 20.67361 0.03211714
v 0.2624715 19.86199 -0.5207704
v 0.2621385 20.38085 -0.1571743
v 1.230053 19.65501 -1.722462
v 0.1857625 20.67361 0.03211714
v 0.4766296 21.22732 0.09620402
v 1.005945 20.87008 1.110795
v 0.2917532 21.67425 0.03161266
v 0.2208587 21.92544 -0.05453128
v 0.4766296 21.22732 0.09620402
v 0.2917532 21.67425 0.03161266
v 1.005945 20.87008 1.110795
v 0.2208587 21.92544 -0.05453128

vn -0.9760742 -0.05743408 0.2092285
vn -0.9179688 0.2324219 0.3210449
vn -0.8725586 0.3356934 0.3547363
vn -0.9711914 -0.1831055 0.1534424
vn 0.0309906 0.276123 0.9604492
vn 0.07800293 0.3781738 0.9223633
vn -0.09051514 -0.0004272461 0.9960938
vn -0.1522217 -0.1489258 0.9770508
vn 0.5537109 0.1971436 -0.809082
vn 0.4855957 0.2932129 -0.8232422
vn 0.6904297 -0.05969238 -0.7207031
vn 0.737793 -0.1953125 -0.6459961
vn -0.9614258 0.1641846 -0.2208252
vn -0.9438477 0.2751465 -0.1834717
vn -0.9448242 -0.12854 -0.302002
vn -0.8999023 -0.2807617 -0.3339844
vn 0.9462891 0.1552734 -0.2839355
vn 0.90625 0.2526855 -0.3383789
vn 0.9868164 -0.1022949 -0.1270752
vn 0.9707031 -0.2366943 -0.03817749
vn -0.0375061 0.06439209 -0.9970703
vn -0.1018066 0.1627197 -0.9814453
vn 0.1282959 -0.1895752 -0.9736328
vn 0.2125244 -0.3186035 -0.9238281
vn -0.5805664 0.203125 0.7885742
vn -0.5297852 0.3103027 0.7890625
vn -0.671875 -0.08221436 0.7358398
vn -0.6953125 -0.2322998 0.6801758
vn 0.9179688 -0.2324219 -0.3210449
vn 0.9760742 0.05743408 -0.2092285
vn 0.8725586 -0.3356934 -0.3547363
vn 0.9711914 0.1831055 -0.1534424
vn -0.0309906 -0.276123 -0.9604492
vn 0.09051514 0.0004272461 -0.9960938
vn -0.07800293 -0.3781738 -0.9223633
vn 0.1522217 0.1489258 -0.9770508
vn -0.5537109 -0.1971436 0.809082
vn -0.6904297 0.05969238 0.7207031
vn -0.4855957 -0.2932129 0.8232422
vn -0.737793 0.1953125 0.6459961
vn 0.9614258 -0.1641846 0.2208252
vn 0.9448242 0.12854 0.302002
vn 0.9438477 -0.2753906 0.1834717
vn 0.8999023 0.2807617 0.3339844
vn -0.9462891 -0.1552734 0.2839355
vn -0.9868164 0.1022949 0.1270752
vn -0.90625 -0.2526855 0.3383789
vn -0.9707031 0.2366943 0.03817749
vn 0.0375061 -0.06439209 0.9970703
vn -0.1282959 0.1895752 0.9736328
vn 0.1018066 -0.1627197 0.9814453
vn -0.2125244 0.3186035 0.9238281
vn 0.5805664 -0.203125 -0.7885742
vn 0.671875 0.08221436 -0.7358398
vn 0.5297852 -0.3103027 -0.7890625
vn 0.6953125 0.2322998 -0.6801758
vn 0.9003906 0.4326172 0.04632568
vn 0.9536133 0.2866211 0.0916748
vn 0.9853516 -0.00567627 0.1695557
vn 0.9731445 -0.1206055 0.1960449
vn -0.9003906 -0.4326172 -0.04632568
vn -0.9853516 0.00567627 -0.1695557
vn -0.9536133 -0.2866211 -0.0916748
vn -0.9731445 0.1206055 -0.1960449
vn -0.6191406 0.2327881 -0.75
vn -0.6391602 0.3344727 -0.6928711
vn -0.5292969 -0.04095459 -0.8476563
vn -0.4606934 -0.1864014 -0.8676758
vn -0.3896484 0.2440186 0.8881836
vn -0.3225098 0.3415527 0.8828125
vn -0.5351563 -0.01940918 0.8442383
vn -0.5932617 -0.1601563 0.7890625
vn 0.715332 0.2365723 0.6577148
vn 0.7280273 0.3376465 0.5966797
vn 0.6376953 -0.03546143 0.7695313
vn 0.5722656 -0.1801758 0.800293
vn 0.6191406 -0.2327881 0.75
vn 0.5292969 0.04095459 0.8476563
vn 0.6391602 -0.3344727 0.6928711
vn 0.4606934 0.1864014 0.8676758
vn 0.3896484 -0.2440186 -0.8881836
vn 0.5351563 0.01940918 -0.8442383
vn 0.3225098 -0.3415527 -0.8828125
vn 0.5932617 0.1601563 -0.7890625
vn -0.715332 -0.2365723 -0.6577148
vn -0.6376953 0.03546143 -0.7695313
vn -0.7280273 -0.3376465 -0.5966797
vn -0.5722656 0.1801758 -0.800293
vn -0.7089844 0.5996094 0.3710938
vn -0.7441406 0.4755859 0.4694824
vn -0.7563477 0.2111816 0.6196289
vn -0.7416992 0.1017456 0.6625977
vn 0.7089844 -0.5996094 -0.3710938
vn 0.7563477 -0.2111816 -0.6196289
vn 0.7441406 -0.4755859 -0.4694824
vn 0.7416992 -0.1017456 -0.6625977
vn -0.5615234 -0.1119385 -0.8198242
vn -0.5834961 0.004272461 -0.8120117
vn -0.4699707 -0.4001465 -0.7866211
vn -0.402832 -0.5395508 -0.7392578
vn 0.5615234 0.1119385 0.8198242
vn 0.4699707 0.4001465 0.7866211
vn 0.5834961 -0.004272461 0.8120117
vn 0.402832 0.5395508 0.7392578
vn 0.02629089 0.3354492 -0.9418945
vn -0.002189636 0.4416504 -0.8974609
vn 0.0970459 0.04428101 -0.9941406
vn 0.1313477 -0.1137085 -0.9848633
vn -0.8813477 0.1907959 -0.4318848
vn -0.8632813 0.3041992 -0.4025879
vn -0.871582 -0.1096802 -0.4782715
vn -0.8330078 -0.2668457 -0.4848633
vn -0.02629089 -0.3354492 0.9418945
vn -0.0970459 -0.04428101 0.9941406
vn 0.002189636 -0.4416504 0.8974609
vn -0.1313477 0.1137085 0.9848633
vn 0.8813477 -0.1907959 0.4318848
vn 0.871582 0.1096802 0.4782715
vn 0.8632813 -0.3041992 0.4025879
vn 0.8330078 0.2668457 0.4848633
vn -0.1178589 -0.09454346 -0.9882813
vn -0.1291504 0.02337646 -0.9912109
vn -0.08172607 -0.3881836 -0.9179688
vn -0.05926514 -0.53125 -0.8452148
vn 0.1178589 0.09454346 0.9882813
vn 0.08172607 0.3881836 0.9179688
vn 0.1291504 -0.02340698 0.9912109
vn 0.05926514 0.53125 0.8452148
vn -0.02787781 -0.4003906 -0.9160156
vn -0.0451355 -0.3491211 -0.9360352
vn 0.01050568 -0.5092773 -0.8603516
vn 0.02598572 -0.5507813 -0.8339844
vn 0.02787781 0.4003906 0.9160156
vn -0.01050568 0.5092773 0.8603516
vn 0.0451355 0.3491211 0.9360352
vn -0.02598572 0.5507813 0.8339844
vn -0.8505859 0.4333496 -0.298584
vn -0.7919922 0.5361328 -0.2912598
vn -0.9438477 0.1437988 -0.2980957
vn -0.9580078 -0.01712036 -0.286377
vn 0.8505859 -0.4333496 0.298584
vn 0.9438477 -0.1437988 0.2980957
vn 0.7919922 -0.5361328 0.2912598
vn 0.9580078 0.01712036 0.286377
vn -0.03829956 0.04150391 -0.9985352
vn -0.09820557 0.1429443 -0.9848633
vn 0.1164551 -0.21875 -0.96875
vn 0.1950684 -0.3500977 -0.9160156
vn -0.5683594 0.2474365 0.784668
vn -0.5131836 0.3522949 0.7827148
vn -0.6723633 -0.03491211 0.7397461
vn -0.7026367 -0.1851807 0.6875
vn 0.03829956 -0.04150391 0.9985352
vn -0.1164551 0.21875 0.96875
vn 0.09820557 -0.1429443 0.9848633
vn -0.1950684 0.3500977 0.9160156
vn 0.5683594 -0.2474365 -0.784668
vn 0.6723633 0.03491211 -0.7397461
vn 0.5131836 -0.3522949 -0.7827148
vn 0.7026367 0.1851807 -0.6875
vn 0.7275391 0.2213135 0.6494141
vn 0.7441406 0.3203125 0.5864258
vn 0.6386719 -0.04428101 0.7685547
vn 0.5664063 -0.1851807 0.8027344
vn -0.7275391 -0.2213135 -0.6494141
vn -0.6386719 0.04428101 -0.7685547
vn -0.7441406 -0.3203125 -0.5864258
vn -0.5664063 0.1851807 -0.8027344
vn 0.9970703 0.04150391 0.06555176
vn 0.9897461 0.1429443 0.004554749
vn 0.9516602 -0.21875 0.2164307
vn 0.8911133 -0.3500977 0.2893066
vn -0.7216797 0.2474365 -0.6464844
vn -0.7250977 0.3522949 -0.5917969
vn -0.6660156 -0.03491211 -0.7451172
vn -0.6108398 -0.1851807 -0.7700195
vn -0.9970703 -0.04150391 -0.06555176
vn -0.9516602 0.21875 -0.2164307
vn -0.9897461 -0.1429443 -0.004554749
vn -0.8911133 0.3500977 -0.2893066
vn 0.7216797 -0.2474365 0.6464844
vn 0.6660156 0.03491211 0.7451172
vn 0.7250977 -0.3522949 0.5917969
vn 0.6108398 0.1851807 0.7700195
vn -0.7216797 0.2213135 0.6557617
vn -0.6606445 0.3203125 0.6791992
vn -0.8305664 -0.04428101 0.5551758
vn -0.8574219 -0.1851807 0.4802246
vn 0.7216797 -0.2213135 -0.6557617
vn 0.8305664 0.04428101 -0.5551758
vn 0.6606445 -0.3203125 -0.6791992
vn 0.8574219 0.1851807 -0.4802246
vn -0.9038086 0.4272461 -0.02572632
vn -0.9311523 0.364502 0.003789902
vn -0.9731445 0.2202148 0.06811523
vn -0.9829102 0.15979 0.09387207
vn 0.9038086 -0.4272461 0.02572632
vn 0.9731445 -0.2202148 -0.06811523
vn 0.9311523 -0.364502 -0.003789902
vn 0.9829102 -0.15979 -0.09387207
vn 0.4389648 0.3144531 -0.8417969
vn 0.4099121 0.2546387 -0.8759766
vn 0.338623 0.1193848 -0.9331055
vn 0.3071289 0.06329346 -0.949707
vn -0.4389648 -0.3144531 0.8417969
vn -0.338623 -0.1193848 0.9331055
vn -0.4099121 -0.2546387 0.8759766
vn -0.3071289 -0.06329346 0.949707

vt 0.8422852 0.7006836
vt 0.9926758 0.2159424
vt 0.9921875 0.08068848
vt 0.9970703 0.3566895
vt 0.9926758 0.2159424
vt 0.9921875 0.08068848
vt 0.8422852 0.7006836
vt 0.9970703 0.3566895
vt 0.9926758 0.2159424
vt 0.9921875 0.08068848
vt 0.8422852 0.7006836
vt 0.9970703 0.3566895
vt 0.9926758 0.2159424
vt 0.9921875 0.08068848
vt 0.8422852 0.7006836
vt 0.9970703 0.3566895
vt 0.9926758 0.2159424
vt 0.9921875 0.08068848
vt 0.8422852 0.7006836
vt 0.9970703 0.3566895
vt 0.9926758 0.2159424
vt 0.9921875 0.08068848
vt 0.8422852 0.7006836
vt 0.9970703 0.3566895
vt 0.9926758 0.2159424
vt 0.9921875 0.08068848
vt 0.8422852 0.7006836
vt 0.9970703 0.3566895
vt 0.9926758 0.2159424
vt 0.8422852 0.7006836
vt 0.9921875 0.08068848
vt 0.9970703 0.3566895
vt 0.9926758 0.2159424
vt 0.8422852 0.7006836
vt 0.9921875 0.08068848
vt 0.9970703 0.3566895
vt 0.9926758 0.2159424
vt 0.8422852 0.7006836
vt 0.9921875 0.08068848
vt 0.9970703 0.3566895
vt 0.9926758 0.2159424
vt 0.8422852 0.7006836
vt 0.9921875 0.08068848
vt 0.9970703 0.3566895
vt 0.9926758 0.2159424
vt 0.8422852 0.7006836
vt 0.9921875 0.08068848
vt 0.9970703 0.3566895
vt 0.9926758 0.2159424
vt 0.8422852 0.7006836
vt 0.9921875 0.08068848
vt 0.9970703 0.3566895
vt 0.9926758 0.2159424
vt 0.8422852 0.7006836
vt 0.9921875 0.08068848
vt 0.9970703 0.3566895
vt 0.9970703 0.3566895
vt 0.8422852 0.7006836
vt 0.9926758 0.2159424
vt 0.9921875 0.08068848
vt 0.9970703 0.3566895
vt 0.9926758 0.2159424
vt 0.8422852 0.7006836
vt 0.9921875 0.08068848
vt 0.9926758 0.2159424
vt 0.9921875 0.08068848
vt 0.8422852 0.7006836
vt 0.9970703 0.3566895
vt 0.9926758 0.2159424
vt 0.9921875 0.08068848
vt 0.8422852 0.7006836
vt 0.9970703 0.3566895
vt 0.9926758 0.2159424
vt 0.9921875 0.08068848
vt 0.8422852 0.7006836
vt 0.9970703 0.3566895
vt 0.9926758 0.2159424
vt 0.8422852 0.7006836
vt 0.9921875 0.08068848
vt 0.9970703 0.3566895
vt 0.9926758 0.2159424
vt 0.8422852 0.7006836
vt 0.9921875 0.08068848
vt 0.9970703 0.3566895
vt 0.9926758 0.2159424
vt 0.8422852 0.7006836
vt 0.9921875 0.08068848
vt 0.9970703 0.3566895
vt 0.9970703 0.3566895
vt 0.8422852 0.7006836
vt 0.9926758 0.2159424
vt 0.9921875 0.08068848
vt 0.9970703 0.3566895
vt 0.9926758 0.2159424
vt 0.8422852 0.7006836
vt 0.9921875 0.08068848
vt 0.9926758 0.2159424
vt 0.9921875 0.08068848
vt 0.8422852 0.7006836
vt 0.9970703 0.3566895
vt 0.9926758 0.2159424
vt 0.8422852 0.7006836
vt 0.9921875 0.08068848
vt 0.9970703 0.3566895
vt 0.9926758 0.2159424
vt 0.9921875 0.08068848
vt 0.8422852 0.7006836
vt 0.9970703 0.3566895
vt 0.9926758 0.2159424
vt 0.9921875 0.08068848
vt 0.8422852 0.7006836
vt 0.9970703 0.3566895
vt 0.9926758 0.2159424
vt 0.8422852 0.7006836
vt 0.9921875 0.08068848
vt 0.9970703 0.3566895
vt 0.9926758 0.2159424
vt 0.8422852 0.7006836
vt 0.9921875 0.08068848
vt 0.9970703 0.3566895
vt 0.9926758 0.2159424
vt 0.9921875 0.08068848
vt 0.8422852 0.7006836
vt 0.9970703 0.3566895
vt 0.9926758 0.2159424
vt 0.8422852 0.7006836
vt 0.9921875 0.08068848
vt 0.9970703 0.3566895
vt 0.9926758 0.2159424
vt 0.9921875 0.08068848
vt 0.8422852 0.7006836
vt 0.9970703 0.3566895
vt 0.9926758 0.2159424
vt 0.8422852 0.7006836
vt 0.9921875 0.08068848
vt 0.9970703 0.3566895
vt 0.9926758 0.2159424
vt 0.9921875 0.08068848
vt 0.8422852 0.7006836
vt 0.9970703 0.3566895
vt 0.9926758 0.2159424
vt 0.8422852 0.7006836
vt 0.9921875 0.08068848
vt 0.9970703 0.3566895
vt 0.9926758 0.2159424
vt 0.9921875 0.08068848
vt 0.8422852 0.7006836
vt 0.9970703 0.3566895
vt 0.9926758 0.2159424
vt 0.9921875 0.08068848
vt 0.8422852 0.7006836
vt 0.9970703 0.3566895
vt 0.9926758 0.2159424
vt 0.8422852 0.7006836
vt 0.9921875 0.08068848
vt 0.9970703 0.3566895
vt 0.9926758 0.2159424
vt 0.8422852 0.7006836
vt 0.9921875 0.08068848
vt 0.9970703 0.3566895
vt 0.9926758 0.2159424
vt 0.9921875 0.08068848
vt 0.8422852 0.7006836
vt 0.9970703 0.3566895
vt 0.9926758 0.2159424
vt 0.8422852 0.7006836
vt 0.9921875 0.08068848
vt 0.9970703 0.3566895
vt 0.9926758 0.2159424
vt 0.9921875 0.08068848
vt 0.8422852 0.7006836
vt 0.9970703 0.3566895
vt 0.9926758 0.2159424
vt 0.9921875 0.08068848
vt 0.8422852 0.7006836
vt 0.9970703 0.3566895
vt 0.9926758 0.2159424
vt 0.8422852 0.7006836
vt 0.9921875 0.08068848
vt 0.9970703 0.3566895
vt 0.9926758 0.2159424
vt 0.8422852 0.7006836
vt 0.9921875 0.08068848
vt 0.9970703 0.3566895
vt 0.9926758 0.2159424
vt 0.9921875 0.08068848
vt 0.8422852 0.7006836
vt 0.9970703 0.3566895
vt 0.9926758 0.2159424
vt 0.8422852 0.7006836
vt 0.9921875 0.08068848
vt 0.9970703 0.3566895
vt 0.9970703 0.3566895
vt 0.8422852 0.7006836
vt 0.9926758 0.2159424
vt 0.9921875 0.08068848
vt 0.9970703 0.3566895
vt 0.9926758 0.2159424
vt 0.8422852 0.7006836
vt 0.9921875 0.08068848
vt 0.9970703 0.3566895
vt 0.8422852 0.7006836
vt 0.9926758 0.2159424
vt 0.9921875 0.08068848
vt 0.9970703 0.3566895
vt 0.9926758 0.2159424
vt 0.8422852 0.7006836
vt 0.9921875 0.08068848

g MEP_Con_01_h_11689_226
usemtl MEP_Con_01_h_11689_226
usemap MEP_Con_01_h_11689_226
f 1/1/1 3/3/3 2/2/2
f 4/4/4 1/1/1 2/2/2
f 5/5/5 7/7/7 6/6/6
f 8/8/8 7/7/7 5/5/5
f 9/9/9 11/11/11 10/10/10
f 12/12/12 11/11/11 9/9/9
f 13/13/13 15/15/15 14/14/14
f 16/16/16 15/15/15 13/13/13
f 17/17/17 19/19/19 18/18/18
f 20/20/20 19/19/19 17/17/17
f 21/21/21 23/23/23 22/22/22
f 24/24/24 23/23/23 21/21/21
f 25/25/25 27/27/27 26/26/26
f 28/28/28 27/27/27 25/25/25
f 29/29/29 31/31/31 30/30/30
f 32/32/32 29/29/29 30/30/30
f 33/33/33 35/35/35 34/34/34
f 36/36/36 33/33/33 34/34/34
f 37/37/37 39/39/39 38/38/38
f 40/40/40 37/37/37 38/38/38
f 41/41/41 43/43/43 42/42/42
f 44/44/44 41/41/41 42/42/42
f 45/45/45 47/47/47 46/46/46
f 48/48/48 45/45/45 46/46/46
f 49/49/49 51/51/51 50/50/50
f 52/52/52 49/49/49 50/50/50
f 53/53/53 55/55/55 54/54/54
f 56/56/56 53/53/53 54/54/54
f 57/57/57 59/59/59 58/58/58
f 59/59/59 60/60/60 58/58/58
f 61/61/61 63/63/63 62/62/62
f 62/62/62 63/63/63 64/64/64
f 65/65/65 67/67/67 66/66/66
f 68/68/68 67/67/67 65/65/65
f 69/69/69 71/71/71 70/70/70
f 72/72/72 71/71/71 69/69/69
f 73/73/73 75/75/75 74/74/74
f 76/76/76 75/75/75 73/73/73
f 77/77/77 79/79/79 78/78/78
f 80/80/80 77/77/77 78/78/78
f 81/81/81 83/83/83 82/82/82
f 84/84/84 81/81/81 82/82/82
f 85/85/85 87/87/87 86/86/86
f 88/88/88 85/85/85 86/86/86
f 89/89/89 91/91/91 90/90/90
f 91/91/91 92/92/92 90/90/90
f 93/93/93 95/95/95 94/94/94
f 94/94/94 95/95/95 96/96/96
f 97/97/97 99/99/99 98/98/98
f 100/100/100 99/99/99 97/97/97
f 101/101/101 103/103/103 102/102/102
f 104/104/104 101/101/101 102/102/102
f 105/105/105 107/107/107 106/106/106
f 108/108/108 107/107/107 105/105/105
f 109/109/109 111/111/111 110/110/110
f 112/112/112 111/111/111 109/109/109
f 113/113/113 115/115/115 114/114/114
f 116/116/116 113/113/113 114/114/114
f 117/117/117 119/119/119 118/118/118
f 120/120/120 117/117/117 118/118/118
f 121/121/121 123/123/123 122/122/122
f 124/124/124 123/123/123 121/121/121
f 125/125/125 127/127/127 126/126/126
f 128/128/128 125/125/125 126/126/126
f 129/129/129 131/131/131 130/130/130
f 132/132/132 131/131/131 129/129/129
f 133/133/133 135/135/135 134/134/134
f 136/136/136 133/133/133 134/134/134
f 137/137/137 139/139/139 138/138/138
f 140/140/140 139/139/139 137/137/137
f 141/141/141 143/143/143 142/142/142
f 144/144/144 141/141/141 142/142/142
f 145/145/145 147/147/147 146/146/146
f 148/148/148 147/147/147 145/145/145
f 149/149/149 151/151/151 150/150/150
f 152/152/152 151/151/151 149/149/149
f 153/153/153 155/155/155 154/154/154
f 156/156/156 153/153/153 154/154/154
f 157/157/157 159/159/159 158/158/158
f 160/160/160 157/157/157 158/158/158
f 161/161/161 163/163/163 162/162/162
f 164/164/164 163/163/163 161/161/161
f 165/165/165 167/167/167 166/166/166
f 168/168/168 165/165/165 166/166/166
f 169/169/169 171/171/171 170/170/170
f 172/172/172 171/171/171 169/169/169
f 173/173/173 175/175/175 174/174/174
f 176/176/176 175/175/175 173/173/173
f 177/177/177 179/179/179 178/178/178
f 180/180/180 177/177/177 178/178/178
f 181/181/181 183/183/183 182/182/182
f 184/184/184 181/181/181 182/182/182
f 185/185/185 187/187/187 186/186/186
f 188/188/188 187/187/187 185/185/185
f 189/189/189 191/191/191 190/190/190
f 192/192/192 189/189/189 190/190/190
f 193/193/193 195/195/195 194/194/194
f 195/195/195 196/196/196 194/194/194
f 197/197/197 199/199/199 198/198/198
f 198/198/198 199/199/199 200/200/200
f 201/201/201 203/203/203 202/202/202
f 203/203/203 204/204/204 202/202/202
f 205/205/205 207/207/207 206/206/206
f 206/206/206 207/207/207 208/208/208
