#MEP_ConTrunk_01_f_14167_99.obj

v 0.000947118 -0.2774609 0.6593141
v -0.5684074 -0.2774609 0.330618
v 0.002474997 0.5710191 0.3749637
v -0.3262268 0.5615581 0.1844271
v -0.08081088 8.782871 0.2617747
v 0.1649139 8.784748 0.2726112
v -0.1732282 8.739295 0.01500678
v 0.3012303 20.26084 0.2109261
v 0.3012303 20.26084 0.2109261
v -0.5683966 -0.2774609 -0.3268192
v 0.004028267 0.5533981 -0.3850908
v -0.325464 0.5527461 -0.1956185
v 0.0009533563 -0.2774609 -0.6555296
v 0.08503655 8.728449 -0.1873304
v -0.1732282 8.739295 0.01500678
v 0.3012303 20.26084 0.2109261
v -0.5684074 -0.2774609 0.330618
v -0.325464 0.5527461 -0.1956185
v -0.3262268 0.5615581 0.1844271
v -0.5683966 -0.2774609 -0.3268192
v -0.1732282 8.739295 0.01500678
v 0.5702835 -0.2774609 -0.326815
v 0.3327425 0.562858 -0.1944871
v 0.0009533563 -0.2774609 -0.6555296
v 0.004028267 0.5533981 -0.3850908
v 0.08503655 8.728449 -0.1873304
v 0.3167023 8.777877 0.03188077
v 0.3012303 20.26084 0.2109261
v 0.5702835 -0.2774609 -0.326815
v 0.5702971 -0.2774609 0.3306037
v 0.3327425 0.562858 -0.1944871
v 0.3319277 0.5716701 0.1855403
v 0.000947118 -0.2774609 0.6593141
v 0.002474997 0.5710191 0.3749637
v 0.1649139 8.784748 0.2726112
v 0.3167023 8.777877 0.03188077
v 0.3012303 20.26084 0.2109261

vn 0.7563477 0.3173828 0.5717773
vn -0.1164551 0.3193359 0.9404297
vn 0.7841797 0.1719971 0.5961914
vn -0.1296387 0.1781006 0.9755859
vn 0.2871094 0.02322388 0.9575195
vn 0.9863281 0.006652832 0.1654053
vn -0.796875 0.03915405 0.6030273
vn 0.02122498 0.9995117 -0.008872986
vn 0.02122498 0.9995117 -0.008872986
vn -0.8730469 0.3156738 0.3720703
vn -0.7861328 0.1777344 -0.5917969
vn -0.9077148 0.1810303 0.378418
vn -0.7602539 0.3085938 -0.5717773
vn -0.7709961 0.03442383 -0.6362305
vn -0.796875 0.03915405 0.6030273
vn 0.02122498 0.9995117 -0.008872986
vn -0.1164551 0.3193359 0.9404297
vn -0.9077148 0.1810303 0.378418
vn -0.1296387 0.1781006 0.9755859
vn -0.8730469 0.3156738 0.3720703
vn -0.796875 0.03915405 0.6030273
vn 0.1179199 0.3078613 -0.9443359
vn 0.1171875 0.1693115 -0.9785156
vn -0.7602539 0.3085938 -0.5717773
vn -0.7861328 0.1777344 -0.5917969
vn -0.7709961 0.03442383 -0.6362305
vn 0.4956055 0.01202393 -0.8686523
vn 0.02122498 0.9995117 -0.008872986
vn 0.1179199 0.3078613 -0.9443359
vn 0.875 0.3127441 -0.3691406
vn 0.1171875 0.1693115 -0.9785156
vn 0.9072266 0.1663818 -0.3859863
vn 0.7563477 0.3173828 0.5717773
vn 0.7841797 0.1719971 0.5961914
vn 0.9863281 0.006652832 0.1654053
vn 0.4956055 0.01202393 -0.8686523
vn 0.02122498 0.9995117 -0.008872986

vt 0.333252 0.003404617
vt 0.166748 0.003404617
vt 0.333252 0.2583008
vt 0.166748 0.2575684
vt 0.166748 2.626953
vt 0.333252 2.626953
vt 5.799532E-05 2.625
vt 0.166748 6.253906
vt 5.799532E-05 6.253906
vt 1 0.003404617
vt 0.8334961 0.2558594
vt 1 0.2563477
vt 0.8334961 0.003404617
vt 0.7290039 2.625
vt 1 2.625
vt 0.8334961 6.253906
vt 0.166748 0.003404617
vt 5.799532E-05 0.2563477
vt 0.166748 0.2575684
vt 5.799532E-05 0.003404617
vt 5.799532E-05 2.625
vt 0.6665039 0.003404617
vt 0.6665039 0.2563477
vt 0.8334961 0.003404617
vt 0.8334961 0.2558594
vt 0.7290039 2.625
vt 0.5 2.626953
vt 0.5 6.253906
vt 0.6665039 0.003404617
vt 0.5 0.003404617
vt 0.6665039 0.2563477
vt 0.5 0.2575684
vt 0.333252 0.003404617
vt 0.333252 0.2583008
vt 0.333252 2.626953
vt 0.5 2.626953
vt 0.333252 6.253906

g MEP_ConTrunk_01_f_14167_99
usemtl MEP_ConTrunk_01_f_14167_99
usemap MEP_ConTrunk_01_f_14167_99
f 1/1/1 3/3/3 2/2/2
f 3/3/3 4/4/4 2/2/2
f 4/4/4 3/3/3 5/5/5
f 3/3/3 6/6/6 5/5/5
f 4/4/4 5/5/5 7/7/7
f 6/6/6 8/8/8 5/5/5
f 5/5/5 9/9/9 7/7/7
f 10/10/10 12/12/12 11/11/11
f 13/13/13 10/10/10 11/11/11
f 11/11/11 12/12/12 14/14/14
f 12/12/12 15/15/15 14/14/14
f 15/15/15 16/16/16 14/14/14
f 17/17/17 19/19/19 18/18/18
f 20/20/20 17/17/17 18/18/18
f 18/18/18 19/19/19 21/21/21
f 22/22/22 24/24/24 23/23/23
f 24/24/24 25/25/25 23/23/23
f 25/25/25 26/26/26 23/23/23
f 23/23/23 26/26/26 27/27/27
f 26/26/26 28/28/28 27/27/27
f 29/29/29 31/31/31 30/30/30
f 31/31/31 32/32/32 30/30/30
f 30/30/30 32/32/32 33/33/33
f 32/32/32 34/34/34 33/33/33
f 34/34/34 32/32/32 35/35/35
f 32/32/32 36/36/36 35/35/35
f 32/32/32 31/31/31 36/36/36
f 36/36/36 37/37/37 35/35/35
