#MEP_ConTrunk_01_g_13355_6.obj

v 0.00093836 -0.2774612 0.6593435
v -0.5684065 -0.2774612 0.3306318
v 0.0001405891 0.5697008 0.3851365
v -0.331325 0.5601589 0.1929728
v -0.1711984 8.014687 0.278982
v 0.1276956 8.016972 0.2921513
v -0.2835957 7.961687 -0.02116745
v 0.2876889 24.00301 -0.04293656
v 0.2876889 24.00301 -0.04293656
v -0.5684012 -0.2774611 -0.326795
v 0.001736247 0.5519297 -0.3813547
v -0.3305441 0.5512719 -0.1902747
v 0.0009501072 -0.2774611 -0.6555066
v 0.03053716 7.948494 -0.2672879
v -0.2835957 7.961687 -0.02116745
v 0.2876889 24.00301 -0.04293656
v -0.5684065 -0.2774612 0.3306318
v -0.3305441 0.5512719 -0.1902747
v -0.331325 0.5601589 0.1929728
v -0.5684012 -0.2774611 -0.326795
v -0.2835957 7.961687 -0.02116745
v 0.5702949 -0.2774612 -0.3267948
v 0.3332189 0.5614709 -0.1891445
v 0.0009501072 -0.2774611 -0.6555066
v 0.001736247 0.5519297 -0.3813547
v 0.03053716 7.948494 -0.2672879
v 0.3123171 8.008614 -0.0006549355
v 0.2876889 24.00301 -0.04293656
v 0.5702949 -0.2774612 -0.3267948
v 0.5702884 -0.2774612 0.3306285
v 0.3332189 0.5614709 -0.1891445
v 0.3324042 0.5703558 0.1940992
v 0.00093836 -0.2774612 0.6593435
v 0.0001405891 0.5697008 0.3851365
v 0.1276956 8.016972 0.2921513
v 0.3123171 8.008614 -0.0006549355
v 0.2876889 24.00301 -0.04293656

vn -0.3273926 0.3098145 0.8925781
vn -0.9355469 0.3156738 0.159668
vn -0.3427734 0.1673584 0.9243164
vn -0.9716797 0.1729736 0.1606445
vn -0.8325195 0.03010559 0.5527344
vn 0.1256104 0.01545715 0.9921875
vn -0.8100586 0.03140259 -0.5859375
vn 0.01847839 1 -0.00105381
vn 0.01847839 1 -0.00105381
vn -0.605957 0.3166504 -0.7294922
vn 0.3400879 0.1737061 -0.9243164
vn -0.6259766 0.1765137 -0.7592773
vn 0.3288574 0.310791 -0.8916016
vn 0.385498 0.01856995 -0.9223633
vn -0.8100586 0.03140259 -0.5859375
vn 0.01847839 1 -0.00105381
vn -0.9355469 0.3156738 0.159668
vn -0.6259766 0.1765137 -0.7592773
vn -0.9716797 0.1729736 0.1606445
vn -0.605957 0.3166504 -0.7294922
vn -0.8100586 0.03140259 -0.5859375
vn 0.9379883 0.3059082 -0.1619873
vn 0.9716797 0.164917 -0.1694336
vn 0.3288574 0.310791 -0.8916016
vn 0.3400879 0.1737061 -0.9243164
vn 0.385498 0.01856995 -0.9223633
vn 0.9741211 0.007125854 0.2260742
vn 0.01847839 1 -0.00105381
vn 0.9379883 0.3059082 -0.1619873
vn 0.6108398 0.3061523 0.7304688
vn 0.9716797 0.164917 -0.1694336
vn 0.6318359 0.1621094 0.7578125
vn -0.3273926 0.3098145 0.8925781
vn -0.3427734 0.1673584 0.9243164
vn 0.1256104 0.01545715 0.9921875
vn 0.9741211 0.007125854 0.2260742
vn 0.01847839 1 -0.00105381

vt 0.333252 0.003404617
vt 0.166748 0.003404617
vt 0.333252 0.2583008
vt 0.166748 0.2575684
vt 0.166748 2.626953
vt 0.333252 2.626953
vt 5.799532E-05 2.625
vt 0.166748 6.253906
vt 5.799532E-05 6.253906
vt 1 0.003404617
vt 0.8334961 0.2558594
vt 1 0.2563477
vt 0.8334961 0.003404617
vt 0.7290039 2.625
vt 1 2.625
vt 0.8334961 6.253906
vt 0.166748 0.003404617
vt 5.799532E-05 0.2563477
vt 0.166748 0.2575684
vt 5.799532E-05 0.003404617
vt 5.799532E-05 2.625
vt 0.6665039 0.003404617
vt 0.6665039 0.2563477
vt 0.8334961 0.003404617
vt 0.8334961 0.2558594
vt 0.7290039 2.625
vt 0.5 2.626953
vt 0.5 6.253906
vt 0.6665039 0.003404617
vt 0.5 0.003404617
vt 0.6665039 0.2563477
vt 0.5 0.2575684
vt 0.333252 0.003404617
vt 0.333252 0.2583008
vt 0.333252 2.626953
vt 0.5 2.626953
vt 0.333252 6.253906

g MEP_ConTrunk_01_g_13355_6
usemtl MEP_ConTrunk_01_g_13355_6
usemap MEP_ConTrunk_01_g_13355_6
f 1/1/1 3/3/3 2/2/2
f 3/3/3 4/4/4 2/2/2
f 4/4/4 3/3/3 5/5/5
f 3/3/3 6/6/6 5/5/5
f 4/4/4 5/5/5 7/7/7
f 6/6/6 8/8/8 5/5/5
f 5/5/5 9/9/9 7/7/7
f 10/10/10 12/12/12 11/11/11
f 13/13/13 10/10/10 11/11/11
f 11/11/11 12/12/12 14/14/14
f 12/12/12 15/15/15 14/14/14
f 15/15/15 16/16/16 14/14/14
f 17/17/17 19/19/19 18/18/18
f 20/20/20 17/17/17 18/18/18
f 18/18/18 19/19/19 21/21/21
f 22/22/22 24/24/24 23/23/23
f 24/24/24 25/25/25 23/23/23
f 25/25/25 26/26/26 23/23/23
f 23/23/23 26/26/26 27/27/27
f 26/26/26 28/28/28 27/27/27
f 29/29/29 31/31/31 30/30/30
f 31/31/31 32/32/32 30/30/30
f 30/30/30 32/32/32 33/33/33
f 32/32/32 34/34/34 33/33/33
f 34/34/34 32/32/32 35/35/35
f 32/32/32 36/36/36 35/35/35
f 32/32/32 31/31/31 36/36/36
f 36/36/36 37/37/37 35/35/35
