#MEP_ConTrunk_01_f_13039_195.obj

v 0.0009263799 -0.2774608 0.6593472
v -0.56842 -0.2774608 0.3306366
v 0.002462246 0.5710192 0.3749838
v -0.3262252 0.5615582 0.1844326
v -0.08082841 8.782871 0.2617994
v 0.1649174 8.784748 0.272626
v -0.1732353 8.739295 0.01502851
v 0.3012391 20.26084 0.2109436
v 0.3012391 20.26084 0.2109436
v -0.5684088 -0.2774608 -0.3267893
v 0.004008051 0.5533984 -0.3850606
v -0.3254835 0.5527463 -0.1955859
v 0.000948772 -0.2774608 -0.6555047
v 0.08504104 8.728449 -0.187326
v -0.1732353 8.739295 0.01502851
v 0.3012391 20.26084 0.2109436
v -0.56842 -0.2774608 0.3306366
v -0.3254835 0.5527463 -0.1955859
v -0.3262252 0.5615582 0.1844326
v -0.5684088 -0.2774608 -0.3267893
v -0.1732353 8.739295 0.01502851
v 0.5702938 -0.2774608 -0.3267977
v 0.3327402 0.5628583 -0.1944773
v 0.000948772 -0.2774608 -0.6555047
v 0.004008051 0.5533984 -0.3850606
v 0.08504104 8.728449 -0.187326
v 0.31668 8.777877 0.03190253
v 0.3012391 20.26084 0.2109436
v 0.5702938 -0.2774608 -0.3267977
v 0.5702839 -0.2774608 0.3306319
v 0.3327402 0.5628583 -0.1944773
v 0.331936 0.5716703 0.1855485
v 0.0009263799 -0.2774608 0.6593472
v 0.002462246 0.5710192 0.3749838
v 0.1649174 8.784748 0.272626
v 0.31668 8.777877 0.03190253
v 0.3012391 20.26084 0.2109436

vn -0.3356934 0.3173828 0.8867188
vn -0.9350586 0.3193359 0.1530762
vn -0.3513184 0.1719971 0.9204102
vn -0.9726563 0.1781006 0.1502686
vn -0.8378906 0.02322388 0.5449219
vn 0.1189575 0.006652832 0.9926758
vn -0.8027344 0.03915405 -0.5947266
vn 0.01448822 0.9995117 0.01786804
vn 0.01448822 0.9995117 0.01786804
vn -0.6030273 0.3156738 -0.7329102
vn 0.3464355 0.1777344 -0.9208984
vn -0.6186523 0.1810303 -0.7641602
vn 0.3347168 0.3085938 -0.8901367
vn 0.3933105 0.03442383 -0.9189453
vn -0.8027344 0.03915405 -0.5947266
vn 0.01448822 0.9995117 0.01786804
vn -0.9350586 0.3193359 0.1530762
vn -0.6186523 0.1810303 -0.7641602
vn -0.9726563 0.1781006 0.1502686
vn -0.6030273 0.3156738 -0.7329102
vn -0.8027344 0.03915405 -0.5947266
vn 0.9389648 0.3078613 -0.15271
vn 0.972168 0.1693115 -0.1630859
vn 0.3347168 0.3085938 -0.8901367
vn 0.3464355 0.1777344 -0.9208984
vn 0.3933105 0.03442383 -0.9189453
vn 0.9726563 0.01202393 0.230957
vn 0.01448822 0.9995117 0.01786804
vn 0.9389648 0.3078613 -0.15271
vn 0.6005859 0.3127441 0.7358398
vn 0.972168 0.1693115 -0.1630859
vn 0.6259766 0.1663818 0.762207
vn -0.3356934 0.3173828 0.8867188
vn -0.3513184 0.1719971 0.9204102
vn 0.1189575 0.006652832 0.9926758
vn 0.9726563 0.01202393 0.230957
vn 0.01448822 0.9995117 0.01786804

vt 0.333252 0.003404617
vt 0.166748 0.003404617
vt 0.333252 0.2583008
vt 0.166748 0.2575684
vt 0.166748 2.626953
vt 0.333252 2.626953
vt 5.799532E-05 2.625
vt 0.166748 6.253906
vt 5.799532E-05 6.253906
vt 1 0.003404617
vt 0.8334961 0.2558594
vt 1 0.2563477
vt 0.8334961 0.003404617
vt 0.7290039 2.625
vt 1 2.625
vt 0.8334961 6.253906
vt 0.166748 0.003404617
vt 5.799532E-05 0.2563477
vt 0.166748 0.2575684
vt 5.799532E-05 0.003404617
vt 5.799532E-05 2.625
vt 0.6665039 0.003404617
vt 0.6665039 0.2563477
vt 0.8334961 0.003404617
vt 0.8334961 0.2558594
vt 0.7290039 2.625
vt 0.5 2.626953
vt 0.5 6.253906
vt 0.6665039 0.003404617
vt 0.5 0.003404617
vt 0.6665039 0.2563477
vt 0.5 0.2575684
vt 0.333252 0.003404617
vt 0.333252 0.2583008
vt 0.333252 2.626953
vt 0.5 2.626953
vt 0.333252 6.253906

g MEP_ConTrunk_01_f_13039_195
usemtl MEP_ConTrunk_01_f_13039_195
usemap MEP_ConTrunk_01_f_13039_195
f 1/1/1 3/3/3 2/2/2
f 3/3/3 4/4/4 2/2/2
f 4/4/4 3/3/3 5/5/5
f 3/3/3 6/6/6 5/5/5
f 4/4/4 5/5/5 7/7/7
f 6/6/6 8/8/8 5/5/5
f 5/5/5 9/9/9 7/7/7
f 10/10/10 12/12/12 11/11/11
f 13/13/13 10/10/10 11/11/11
f 11/11/11 12/12/12 14/14/14
f 12/12/12 15/15/15 14/14/14
f 15/15/15 16/16/16 14/14/14
f 17/17/17 19/19/19 18/18/18
f 20/20/20 17/17/17 18/18/18
f 18/18/18 19/19/19 21/21/21
f 22/22/22 24/24/24 23/23/23
f 24/24/24 25/25/25 23/23/23
f 25/25/25 26/26/26 23/23/23
f 23/23/23 26/26/26 27/27/27
f 26/26/26 28/28/28 27/27/27
f 29/29/29 31/31/31 30/30/30
f 31/31/31 32/32/32 30/30/30
f 30/30/30 32/32/32 33/33/33
f 32/32/32 34/34/34 33/33/33
f 34/34/34 32/32/32 35/35/35
f 32/32/32 36/36/36 35/35/35
f 32/32/32 31/31/31 36/36/36
f 36/36/36 37/37/37 35/35/35
