#MEP_ConTrunk_01_f_14994_139.obj

v 0.0009583965 -0.277461 0.6593359
v -0.5683981 -0.277461 0.3306347
v 0.00246197 0.571019 0.3749852
v -0.3262238 0.561558 0.1844398
v -0.08080505 8.782871 0.2617892
v 0.1649233 8.784748 0.2726377
v -0.1732263 8.739294 0.01503015
v 0.3012353 20.26084 0.2109462
v 0.3012353 20.26084 0.2109462
v -0.5683843 -0.277461 -0.3267953
v 0.004036094 0.553398 -0.3850716
v -0.3254537 0.552746 -0.1956039
v 0.0009540486 -0.277461 -0.6555116
v 0.08505933 8.728449 -0.1873423
v -0.1732263 8.739294 0.01503015
v 0.3012353 20.26084 0.2109462
v -0.5683981 -0.277461 0.3306347
v -0.3254537 0.552746 -0.1956039
v -0.3262238 0.561558 0.1844398
v -0.5683843 -0.277461 -0.3267953
v -0.1732263 8.739294 0.01503015
v 0.57029 -0.277461 -0.3267877
v 0.3327354 0.562858 -0.1944729
v 0.0009540486 -0.277461 -0.6555116
v 0.004036094 0.553398 -0.3850716
v 0.08505933 8.728449 -0.1873423
v 0.3166985 8.777876 0.03188948
v 0.3012353 20.26084 0.2109462
v 0.57029 -0.277461 -0.3267877
v 0.5702968 -0.277461 0.3306196
v 0.3327354 0.562858 -0.1944729
v 0.3319426 0.57167 0.1855504
v 0.0009583965 -0.277461 0.6593359
v 0.00246197 0.571019 0.3749852
v 0.1649233 8.784748 0.2726377
v 0.3166985 8.777876 0.03188948
v 0.3012353 20.26084 0.2109462

vn 0.6352539 0.3173828 0.7041016
vn -0.291748 0.3193359 0.9018555
vn 0.6577148 0.1719971 0.7333984
vn -0.3112793 0.1781006 0.9335938
vn 0.1013184 0.02322388 0.9946289
vn 0.9375 0.006652832 0.3483887
vn -0.8964844 0.03915405 0.4416504
vn 0.02252197 0.9995117 -0.004711151
vn 0.02252197 0.9995117 -0.004711151
vn -0.9272461 0.3156738 0.2008057
vn -0.6606445 0.1777344 -0.7294922
vn -0.9628906 0.1810303 0.2005615
vn -0.6386719 0.3085938 -0.7050781
vn -0.637207 0.03442383 -0.7700195
vn -0.8964844 0.03915405 0.4416504
vn 0.02252197 0.9995117 -0.004711151
vn -0.291748 0.3193359 0.9018555
vn -0.9628906 0.1810303 0.2005615
vn -0.3112793 0.1781006 0.9335938
vn -0.9272461 0.3156738 0.2008057
vn -0.8964844 0.03915405 0.4416504
vn 0.2939453 0.3078613 -0.9047852
vn 0.2995605 0.1693115 -0.9389648
vn -0.6386719 0.3085938 -0.7050781
vn -0.6606445 0.1777344 -0.7294922
vn -0.637207 0.03442383 -0.7700195
vn 0.6503906 0.01202393 -0.7592773
vn 0.02252197 0.9995117 -0.004711151
vn 0.2939453 0.3078613 -0.9047852
vn 0.9291992 0.3127441 -0.1975098
vn 0.2995605 0.1693115 -0.9389648
vn 0.9638672 0.1663818 -0.2078857
vn 0.6352539 0.3173828 0.7041016
vn 0.6577148 0.1719971 0.7333984
vn 0.9375 0.006652832 0.3483887
vn 0.6503906 0.01202393 -0.7592773
vn 0.02252197 0.9995117 -0.004711151

vt 0.333252 0.003404617
vt 0.166748 0.003404617
vt 0.333252 0.2583008
vt 0.166748 0.2575684
vt 0.166748 2.626953
vt 0.333252 2.626953
vt 5.799532E-05 2.625
vt 0.166748 6.253906
vt 5.799532E-05 6.253906
vt 1 0.003404617
vt 0.8334961 0.2558594
vt 1 0.2563477
vt 0.8334961 0.003404617
vt 0.7290039 2.625
vt 1 2.625
vt 0.8334961 6.253906
vt 0.166748 0.003404617
vt 5.799532E-05 0.2563477
vt 0.166748 0.2575684
vt 5.799532E-05 0.003404617
vt 5.799532E-05 2.625
vt 0.6665039 0.003404617
vt 0.6665039 0.2563477
vt 0.8334961 0.003404617
vt 0.8334961 0.2558594
vt 0.7290039 2.625
vt 0.5 2.626953
vt 0.5 6.253906
vt 0.6665039 0.003404617
vt 0.5 0.003404617
vt 0.6665039 0.2563477
vt 0.5 0.2575684
vt 0.333252 0.003404617
vt 0.333252 0.2583008
vt 0.333252 2.626953
vt 0.5 2.626953
vt 0.333252 6.253906

g MEP_ConTrunk_01_f_14994_139
usemtl MEP_ConTrunk_01_f_14994_139
usemap MEP_ConTrunk_01_f_14994_139
f 1/1/1 3/3/3 2/2/2
f 3/3/3 4/4/4 2/2/2
f 4/4/4 3/3/3 5/5/5
f 3/3/3 6/6/6 5/5/5
f 4/4/4 5/5/5 7/7/7
f 6/6/6 8/8/8 5/5/5
f 5/5/5 9/9/9 7/7/7
f 10/10/10 12/12/12 11/11/11
f 13/13/13 10/10/10 11/11/11
f 11/11/11 12/12/12 14/14/14
f 12/12/12 15/15/15 14/14/14
f 15/15/15 16/16/16 14/14/14
f 17/17/17 19/19/19 18/18/18
f 20/20/20 17/17/17 18/18/18
f 18/18/18 19/19/19 21/21/21
f 22/22/22 24/24/24 23/23/23
f 24/24/24 25/25/25 23/23/23
f 25/25/25 26/26/26 23/23/23
f 23/23/23 26/26/26 27/27/27
f 26/26/26 28/28/28 27/27/27
f 29/29/29 31/31/31 30/30/30
f 31/31/31 32/32/32 30/30/30
f 30/30/30 32/32/32 33/33/33
f 32/32/32 34/34/34 33/33/33
f 34/34/34 32/32/32 35/35/35
f 32/32/32 36/36/36 35/35/35
f 32/32/32 31/31/31 36/36/36
f 36/36/36 37/37/37 35/35/35
