#MEP_ConTrunk_01_f_12684_184.obj

v 0.0009410889 -0.277461 0.6593392
v -0.5684029 -0.277461 0.3306264
v 0.002461635 0.571019 0.3749786
v -0.3262227 0.561558 0.1844324
v -0.08081774 8.782871 0.2618027
v 0.1649196 8.784748 0.2726283
v -0.1732333 8.739295 0.0150269
v 0.3012471 20.26084 0.2109428
v 0.3012471 20.26084 0.2109428
v -0.5683812 -0.277461 -0.3267998
v 0.004040733 0.553398 -0.3850785
v -0.3254642 0.552746 -0.1955914
v 0.0009503568 -0.277461 -0.6555154
v 0.08504887 8.728449 -0.187324
v -0.1732333 8.739295 0.0150269
v 0.3012471 20.26084 0.2109428
v -0.5684029 -0.277461 0.3306264
v -0.3254642 0.552746 -0.1955914
v -0.3262227 0.561558 0.1844324
v -0.5683812 -0.277461 -0.3267998
v -0.1732333 8.739295 0.0150269
v 0.5702943 -0.277461 -0.3268026
v 0.3327485 0.562858 -0.1944759
v 0.0009503568 -0.277461 -0.6555154
v 0.004040733 0.553398 -0.3850785
v 0.08504887 8.728449 -0.187324
v 0.31671 8.777877 0.03189397
v 0.3012471 20.26084 0.2109428
v 0.5702943 -0.277461 -0.3268026
v 0.5703067 -0.277461 0.330626
v 0.3327485 0.562858 -0.1944759
v 0.331956 0.57167 0.1855455
v 0.0009410889 -0.277461 0.6593392
v 0.002461635 0.571019 0.3749786
v 0.1649196 8.784748 0.2726283
v 0.31671 8.777877 0.03189397
v 0.3012471 20.26084 0.2109428

vn -0.3654785 0.3173828 0.875
vn -0.9399414 0.3193359 0.1213379
vn -0.3823242 0.1719971 0.9077148
vn -0.9770508 0.1781006 0.1172485
vn -0.855957 0.02322388 0.5166016
vn 0.08526611 0.006652832 0.9960938
vn -0.7822266 0.03915405 -0.621582
vn 0.01387787 0.9995117 0.01834106
vn 0.01387787 0.9995117 0.01834106
vn -0.5776367 0.3156738 -0.7529297
vn 0.3774414 0.1777344 -0.9086914
vn -0.5927734 0.1810303 -0.784668
vn 0.364502 0.3085938 -0.878418
vn 0.4243164 0.03442383 -0.9047852
vn -0.7822266 0.03915405 -0.621582
vn 0.01387787 0.9995117 0.01834106
vn -0.9399414 0.3193359 0.1213379
vn -0.5927734 0.1810303 -0.784668
vn -0.9770508 0.1781006 0.1172485
vn -0.5776367 0.3156738 -0.7529297
vn -0.7822266 0.03915405 -0.621582
vn 0.9438477 0.3078613 -0.1208496
vn 0.9770508 0.1693115 -0.130127
vn 0.364502 0.3085938 -0.878418
vn 0.3774414 0.1777344 -0.9086914
vn 0.4243164 0.03442383 -0.9047852
vn 0.9643555 0.01202393 0.2636719
vn 0.01387787 0.9995117 0.01834106
vn 0.9438477 0.3078613 -0.1208496
vn 0.5751953 0.3127441 0.7558594
vn 0.9770508 0.1693115 -0.130127
vn 0.5996094 0.1663818 0.7827148
vn -0.3654785 0.3173828 0.875
vn -0.3823242 0.1719971 0.9077148
vn 0.08526611 0.006652832 0.9960938
vn 0.9643555 0.01202393 0.2636719
vn 0.01387787 0.9995117 0.01834106

vt 0.333252 0.003404617
vt 0.166748 0.003404617
vt 0.333252 0.2583008
vt 0.166748 0.2575684
vt 0.166748 2.626953
vt 0.333252 2.626953
vt 5.799532E-05 2.625
vt 0.166748 6.253906
vt 5.799532E-05 6.253906
vt 1 0.003404617
vt 0.8334961 0.2558594
vt 1 0.2563477
vt 0.8334961 0.003404617
vt 0.7290039 2.625
vt 1 2.625
vt 0.8334961 6.253906
vt 0.166748 0.003404617
vt 5.799532E-05 0.2563477
vt 0.166748 0.2575684
vt 5.799532E-05 0.003404617
vt 5.799532E-05 2.625
vt 0.6665039 0.003404617
vt 0.6665039 0.2563477
vt 0.8334961 0.003404617
vt 0.8334961 0.2558594
vt 0.7290039 2.625
vt 0.5 2.626953
vt 0.5 6.253906
vt 0.6665039 0.003404617
vt 0.5 0.003404617
vt 0.6665039 0.2563477
vt 0.5 0.2575684
vt 0.333252 0.003404617
vt 0.333252 0.2583008
vt 0.333252 2.626953
vt 0.5 2.626953
vt 0.333252 6.253906

g MEP_ConTrunk_01_f_12684_184
usemtl MEP_ConTrunk_01_f_12684_184
usemap MEP_ConTrunk_01_f_12684_184
f 1/1/1 3/3/3 2/2/2
f 3/3/3 4/4/4 2/2/2
f 4/4/4 3/3/3 5/5/5
f 3/3/3 6/6/6 5/5/5
f 4/4/4 5/5/5 7/7/7
f 6/6/6 8/8/8 5/5/5
f 5/5/5 9/9/9 7/7/7
f 10/10/10 12/12/12 11/11/11
f 13/13/13 10/10/10 11/11/11
f 11/11/11 12/12/12 14/14/14
f 12/12/12 15/15/15 14/14/14
f 15/15/15 16/16/16 14/14/14
f 17/17/17 19/19/19 18/18/18
f 20/20/20 17/17/17 18/18/18
f 18/18/18 19/19/19 21/21/21
f 22/22/22 24/24/24 23/23/23
f 24/24/24 25/25/25 23/23/23
f 25/25/25 26/26/26 23/23/23
f 23/23/23 26/26/26 27/27/27
f 26/26/26 28/28/28 27/27/27
f 29/29/29 31/31/31 30/30/30
f 31/31/31 32/32/32 30/30/30
f 30/30/30 32/32/32 33/33/33
f 32/32/32 34/34/34 33/33/33
f 34/34/34 32/32/32 35/35/35
f 32/32/32 36/36/36 35/35/35
f 32/32/32 31/31/31 36/36/36
f 36/36/36 37/37/37 35/35/35
