#MEP_Con_01_d_LOD_02(Clone)_13040_282.obj

v -0.08020312 -0.505634 -0.4107195
v 0.2674799 25.89249 0.1725502
v -0.04636684 -0.510988 0.4552659
v 0.4119215 -0.505634 -0.07358509
v 0.2674799 25.89249 0.1725502
v -0.4544821 -0.510988 -0.05370481
v -0.08020312 -0.505634 -0.4107195
v -0.04636684 -0.510988 0.4552659
v 0.2674799 25.89249 0.1725502
v 0.4119215 -0.505634 -0.07358509
v -0.4544821 -0.510988 -0.05370481
v 0.2674799 25.89249 0.1725502
v -1.31216 22.14209 -3.090913
v 0.2952541 22.1108 3.861367
v 1.260268 31.69208 2.402923
v -1.430722 31.06985 -1.938246
v 3.068596 22.20161 0.279799
v -4.062622 22.24152 0.2209029
v -1.39344 31.55883 0.9900957
v 2.110437 31.41819 -0.9953383
v -2.505404 18.03639 6.018248
v 2.951756 18.47284 -6.524194
v 1.613832 25.98559 -3.503546
v 0.7535506 25.84998 3.104067
v -4.738571 17.61271 -2.888832
v 5.471883 18.45897 3.430032
v 3.154682 26.49348 2.083189
v -3.677454 25.86773 -1.334004
v -1.31216 22.14209 -3.090913
v 1.260268 31.69208 2.402923
v 0.2952541 22.1108 3.861367
v -1.430722 31.06985 -1.938246
v 3.068596 22.20161 0.279799
v -1.39344 31.55883 0.9900957
v -4.062622 22.24152 0.2209029
v 2.110437 31.41819 -0.9953383
v -2.505404 18.03639 6.018248
v 1.613832 25.98559 -3.503546
v 2.951756 18.47284 -6.524194
v 0.7535506 25.84998 3.104067
v -4.738571 17.61271 -2.888832
v 3.154682 26.49348 2.083189
v 5.471883 18.45897 3.430032
v -3.677454 25.86773 -1.334004

vn -0.5268555 0.01226807 0.8496094
vn -0.9750977 0.01528931 0.2205811
vn -0.5268555 0.01226807 0.8496094
vn -0.8413086 0.009185791 -0.5405273
vn -0.9750977 0.01528931 0.2205811
vn -0.8413086 0.009185791 -0.5405273
vn 0.5268555 -0.01226807 -0.8496094
vn 0.5268555 -0.01226807 -0.8496094
vn 0.9750977 -0.01528931 -0.2205811
vn 0.8413086 -0.009185791 0.5405273
vn 0.8413086 -0.009185791 0.5405273
vn 0.9750977 -0.01528931 -0.2205811
vn 0.2585449 -0.06695557 -0.9638672
vn 0.3549805 -0.1313477 -0.9257813
vn 0.1734619 -0.01147461 -0.9848633
vn 0.02931213 0.08007813 -0.996582
vn 0.8925781 -0.0151062 0.4506836
vn 0.8212891 -0.07977295 0.5649414
vn 0.9580078 0.07446289 0.2763672
vn 0.9829102 0.1693115 0.07147217
vn -0.7626953 0.1546631 0.6279297
vn -0.84375 -0.002838135 0.5366211
vn -0.784668 0.1181641 0.6083984
vn -0.6157227 0.3459473 0.7080078
vn -0.4516602 0.0574646 -0.8901367
vn -0.4106445 0.009002686 -0.9116211
vn -0.4436035 0.04794312 -0.8950195
vn -0.4956055 0.1120605 -0.8613281
vn -0.2585449 0.06695557 0.9638672
vn -0.1734619 0.01147461 0.9848633
vn -0.3549805 0.1313477 0.9257813
vn -0.02931213 -0.08007813 0.996582
vn -0.8925781 0.0151062 -0.4506836
vn -0.9580078 -0.07446289 -0.2763672
vn -0.8212891 0.07977295 -0.5649414
vn -0.9829102 -0.1693115 -0.07147217
vn 0.7626953 -0.1546631 -0.6279297
vn 0.784668 -0.1181641 -0.6083984
vn 0.84375 0.002838135 -0.5366211
vn 0.6157227 -0.3459473 -0.7080078
vn 0.4516602 -0.0574646 0.8901367
vn 0.4436035 -0.04794312 0.8950195
vn 0.4106445 -0.009002686 0.9116211
vn 0.4956055 -0.1120605 0.8613281

vt 0.9433594 0.3640137
vt 0.9321289 0.4221191
vt 0.9516602 0.3674316
vt 0.9433594 0.3640137
vt 0.9321289 0.4221191
vt 0.9516602 0.3674316
vt 0.9433594 0.3640137
vt 0.9516602 0.3674316
vt 0.9321289 0.4221191
vt 0.9433594 0.3640137
vt 0.9516602 0.3674316
vt 0.9321289 0.4221191
vt 0.001989365 0.007873535
vt 0.9863281 0.002599716
vt 0.7783203 0.996582
vt 0.1824951 0.9921875
vt 0.001989365 0.007873535
vt 0.9863281 0.002599716
vt 0.7783203 0.996582
vt 0.1824951 0.9921875
vt 0.001989365 0.007873535
vt 0.9863281 0.002599716
vt 0.7783203 0.996582
vt 0.1824951 0.9921875
vt 0.001989365 0.007873535
vt 0.9863281 0.002599716
vt 0.7783203 0.996582
vt 0.1824951 0.9921875
vt 0.001989365 0.007873535
vt 0.7783203 0.996582
vt 0.9863281 0.002599716
vt 0.1824951 0.9921875
vt 0.001989365 0.007873535
vt 0.7783203 0.996582
vt 0.9863281 0.002599716
vt 0.1824951 0.9921875
vt 0.001989365 0.007873535
vt 0.7783203 0.996582
vt 0.9863281 0.002599716
vt 0.1824951 0.9921875
vt 0.001989365 0.007873535
vt 0.7783203 0.996582
vt 0.9863281 0.002599716
vt 0.1824951 0.9921875

g MEP_Con_01_d_LOD_02(Clone)_13040_282
usemtl MEP_Con_01_d_LOD_02(Clone)_13040_282
usemap MEP_Con_01_d_LOD_02(Clone)_13040_282
f 1/1/1 3/3/3 2/2/2
f 4/4/4 6/6/6 5/5/5
f 7/7/7 9/9/9 8/8/8
f 10/10/10 12/12/12 11/11/11
f 13/13/13 15/15/15 14/14/14
f 16/16/16 15/15/15 13/13/13
f 17/17/17 19/19/19 18/18/18
f 20/20/20 19/19/19 17/17/17
f 21/21/21 23/23/23 22/22/22
f 24/24/24 23/23/23 21/21/21
f 25/25/25 27/27/27 26/26/26
f 28/28/28 27/27/27 25/25/25
f 29/29/29 31/31/31 30/30/30
f 32/32/32 29/29/29 30/30/30
f 33/33/33 35/35/35 34/34/34
f 36/36/36 33/33/33 34/34/34
f 37/37/37 39/39/39 38/38/38
f 40/40/40 37/37/37 38/38/38
f 41/41/41 43/43/43 42/42/42
f 44/44/44 41/41/41 42/42/42
