#MEP_Con_01_d_LOD_02(Clone)_12076_255.obj

v -0.08019901 -0.5056341 -0.4107123
v 0.2674761 25.89249 0.172544
v -0.04636507 -0.5109881 0.455273
v 0.4119284 -0.5056341 -0.07358669
v 0.2674761 25.89249 0.172544
v -0.454482 -0.5109881 -0.053716
v -0.08019901 -0.5056341 -0.4107123
v -0.04636507 -0.5109881 0.455273
v 0.2674761 25.89249 0.172544
v 0.4119284 -0.5056341 -0.07358669
v -0.454482 -0.5109881 -0.053716
v 0.2674761 25.89249 0.172544
v -1.312161 22.14209 -3.090914
v 0.2952469 22.1108 3.86135
v 1.260273 31.69208 2.402931
v -1.430713 31.06985 -1.938225
v 3.068604 22.20161 0.2798112
v -4.062614 22.24152 0.2209139
v -1.393435 31.55883 0.9901053
v 2.110433 31.41819 -0.995347
v -2.505415 18.03639 6.018232
v 2.951762 18.47284 -6.524187
v 1.613826 25.98559 -3.50356
v 0.7535552 25.84997 3.10407
v -4.738574 17.61271 -2.88883
v 5.47188 18.45897 3.43002
v 3.154676 26.49347 2.083183
v -3.677461 25.86773 -1.334021
v -1.312161 22.14209 -3.090914
v 1.260273 31.69208 2.402931
v 0.2952469 22.1108 3.86135
v -1.430713 31.06985 -1.938225
v 3.068604 22.20161 0.2798112
v -1.393435 31.55883 0.9901053
v -4.062614 22.24152 0.2209139
v 2.110433 31.41819 -0.995347
v -2.505415 18.03639 6.018232
v 1.613826 25.98559 -3.50356
v 2.951762 18.47284 -6.524187
v 0.7535552 25.84997 3.10407
v -4.738574 17.61271 -2.88883
v 3.154676 26.49347 2.083183
v 5.47188 18.45897 3.43002
v -3.677461 25.86773 -1.334021

vn -0.4279785 0.01226807 0.9038086
vn -0.9443359 0.01528931 0.3288574
vn -0.4279785 0.01226807 0.9038086
vn -0.8964844 0.009185791 -0.4423828
vn -0.9443359 0.01528931 0.3288574
vn -0.8964844 0.009185791 -0.4423828
vn 0.4279785 -0.01226807 -0.9038086
vn 0.4279785 -0.01226807 -0.9038086
vn 0.9443359 -0.01528931 -0.3288574
vn 0.8964844 -0.009185791 0.4423828
vn 0.8964844 -0.009185791 0.4423828
vn 0.9443359 -0.01528931 -0.3288574
vn 0.1484375 -0.06695557 -0.9868164
vn 0.2487793 -0.1313477 -0.9594727
vn 0.06155396 -0.01147461 -0.9980469
vn -0.08294678 0.08007813 -0.9931641
vn 0.9375 -0.0151062 0.3474121
vn 0.8793945 -0.07977295 0.4692383
vn 0.9829102 0.07446289 0.1669922
vn 0.9848633 0.1693115 -0.03955078
vn -0.6875 0.1546631 0.7094727
vn -0.7783203 -0.002838135 0.6279297
vn -0.7114258 0.1181641 0.6928711
vn -0.5322266 0.3459473 0.7724609
vn -0.5488281 0.0574646 -0.8339844
vn -0.5107422 0.009002686 -0.8598633
vn -0.5415039 0.04794312 -0.8393555
vn -0.5893555 0.1120605 -0.800293
vn -0.1484375 0.06695557 0.9868164
vn -0.06155396 0.01147461 0.9980469
vn -0.2487793 0.1313477 0.9594727
vn 0.08294678 -0.08007813 0.9931641
vn -0.9375 0.0151062 -0.3474121
vn -0.9829102 -0.07446289 -0.1669922
vn -0.8793945 0.07977295 -0.4692383
vn -0.9848633 -0.1693115 0.03955078
vn 0.6875 -0.1546631 -0.7094727
vn 0.7114258 -0.1181641 -0.6928711
vn 0.7783203 0.002838135 -0.6279297
vn 0.5322266 -0.3459473 -0.7724609
vn 0.5488281 -0.0574646 0.8339844
vn 0.5415039 -0.04794312 0.8393555
vn 0.5107422 -0.009002686 0.8598633
vn 0.5893555 -0.1120605 0.800293

vt 0.9433594 0.3640137
vt 0.9321289 0.4221191
vt 0.9516602 0.3674316
vt 0.9433594 0.3640137
vt 0.9321289 0.4221191
vt 0.9516602 0.3674316
vt 0.9433594 0.3640137
vt 0.9516602 0.3674316
vt 0.9321289 0.4221191
vt 0.9433594 0.3640137
vt 0.9516602 0.3674316
vt 0.9321289 0.4221191
vt 0.001989365 0.007873535
vt 0.9863281 0.002599716
vt 0.7783203 0.996582
vt 0.1824951 0.9921875
vt 0.001989365 0.007873535
vt 0.9863281 0.002599716
vt 0.7783203 0.996582
vt 0.1824951 0.9921875
vt 0.001989365 0.007873535
vt 0.9863281 0.002599716
vt 0.7783203 0.996582
vt 0.1824951 0.9921875
vt 0.001989365 0.007873535
vt 0.9863281 0.002599716
vt 0.7783203 0.996582
vt 0.1824951 0.9921875
vt 0.001989365 0.007873535
vt 0.7783203 0.996582
vt 0.9863281 0.002599716
vt 0.1824951 0.9921875
vt 0.001989365 0.007873535
vt 0.7783203 0.996582
vt 0.9863281 0.002599716
vt 0.1824951 0.9921875
vt 0.001989365 0.007873535
vt 0.7783203 0.996582
vt 0.9863281 0.002599716
vt 0.1824951 0.9921875
vt 0.001989365 0.007873535
vt 0.7783203 0.996582
vt 0.9863281 0.002599716
vt 0.1824951 0.9921875

g MEP_Con_01_d_LOD_02(Clone)_12076_255
usemtl MEP_Con_01_d_LOD_02(Clone)_12076_255
usemap MEP_Con_01_d_LOD_02(Clone)_12076_255
f 1/1/1 3/3/3 2/2/2
f 4/4/4 6/6/6 5/5/5
f 7/7/7 9/9/9 8/8/8
f 10/10/10 12/12/12 11/11/11
f 13/13/13 15/15/15 14/14/14
f 16/16/16 15/15/15 13/13/13
f 17/17/17 19/19/19 18/18/18
f 20/20/20 19/19/19 17/17/17
f 21/21/21 23/23/23 22/22/22
f 24/24/24 23/23/23 21/21/21
f 25/25/25 27/27/27 26/26/26
f 28/28/28 27/27/27 25/25/25
f 29/29/29 31/31/31 30/30/30
f 32/32/32 29/29/29 30/30/30
f 33/33/33 35/35/35 34/34/34
f 36/36/36 33/33/33 34/34/34
f 37/37/37 39/39/39 38/38/38
f 40/40/40 37/37/37 38/38/38
f 41/41/41 43/43/43 42/42/42
f 44/44/44 41/41/41 42/42/42
