#MEP_Con_01_f_LOD_02(Clone)_14650_257.obj

v 1.207723 11.87269 -1.938242
v -1.258456 20.74399 1.482492
v 0.3704617 11.94678 2.309895
v 1.792862 20.68254 -1.119135
v -2.081285 11.88785 -0.7485068
v 1.608252 20.67806 0.7281319
v 2.488728 11.75238 0.9168347
v -1.396122 20.76712 -0.3666706
v -2.139319 6.102907 5.123927
v 2.138236 5.805046 -4.677766
v 1.279146 14.63286 -2.889706
v 0.4644589 14.15287 2.291847
v -4.344393 6.037307 -2.1918
v 4.661171 6.037306 3.588162
v 2.389147 14.78854 1.609303
v -2.410103 14.83608 -1.032893
v 1.207723 11.87269 -1.938242
v 0.3704617 11.94678 2.309895
v -1.258456 20.74399 1.482492
v 1.792862 20.68254 -1.119135
v -2.081285 11.88785 -0.7485068
v 2.488728 11.75238 0.9168347
v 1.608252 20.67806 0.7281319
v -1.396122 20.76712 -0.3666706
v -2.139319 6.102907 5.123927
v 1.279146 14.63286 -2.889706
v 2.138236 5.805046 -4.677766
v 0.4644589 14.15287 2.291847
v -4.344393 6.037307 -2.1918
v 2.389147 14.78854 1.609303
v 4.661171 6.037306 3.588162
v -2.410103 14.83608 -1.032893
v -0.05433962 -0.137548 -0.4407775
v 0.2283229 19.82228 0.1680707
v -0.02296964 -0.142512 0.3622102
v 0.4020026 -0.137548 -0.1281576
v 0.2283229 19.82228 0.1680707
v -0.4013893 -0.142512 -0.1097335
v -0.05433962 -0.137548 -0.4407775
v -0.02296964 -0.142512 0.3622102
v 0.2283229 19.82228 0.1680707
v 0.4020026 -0.137548 -0.1281576
v -0.4013893 -0.142512 -0.1097335
v 0.2283229 19.82228 0.1680707

vn -0.348877 -0.1195679 -0.9296875
vn -0.04931641 0.02542114 -0.9985352
vn -0.5009766 -0.1958008 -0.8427734
vn 0.1376953 0.1130981 -0.9838867
vn -0.9291992 -0.01394653 0.3686523
vn -0.9291992 -0.01394653 0.3686523
vn -0.9291992 -0.01394653 0.3686523
vn -0.9291992 -0.01394653 0.3686523
vn -0.3942871 0.08380127 -0.9150391
vn -0.3110352 -0.008209229 -0.9501953
vn -0.4140625 0.1067505 -0.9038086
vn -0.5419922 0.2648926 -0.7978516
vn 0.9833984 -0.02877808 -0.1799316
vn 0.9863281 -0.04998779 -0.1561279
vn 0.9824219 -0.02337646 -0.1860352
vn 0.9750977 0.009307861 -0.22229
vn 0.348877 0.1195679 0.9296875
vn 0.5009766 0.1958008 0.8427734
vn 0.04931641 -0.02542114 0.9985352
vn -0.1376953 -0.1130981 0.9838867
vn 0.9291992 0.01394653 -0.3686523
vn 0.9291992 0.01394653 -0.3686523
vn 0.9291992 0.01394653 -0.3686523
vn 0.9291992 0.01394653 -0.3686523
vn 0.3942871 -0.08380127 0.9150391
vn 0.4140625 -0.1067505 0.9038086
vn 0.3110352 0.008209229 0.9501953
vn 0.5419922 -0.2648926 0.7978516
vn -0.9833984 0.02877808 0.1799316
vn -0.9824219 0.02337646 0.1860352
vn -0.9863281 0.04998779 0.1561279
vn -0.9750977 -0.009307861 0.22229
vn -0.6938477 0.01293945 -0.7202148
vn 0.02667236 0.01965332 -0.9995117
vn -0.6938477 0.01293945 -0.7202148
vn 0.7314453 0.01461792 -0.6821289
vn 0.02667236 0.01965332 -0.9995117
vn 0.7314453 0.01461792 -0.6821289
vn 0.6938477 -0.01293945 0.7202148
vn 0.6938477 -0.01293945 0.7202148
vn -0.02667236 -0.01965332 0.9995117
vn -0.7314453 -0.01461792 0.6821289
vn -0.7314453 -0.01461792 0.6821289
vn -0.02667236 -0.01965332 0.9995117

vt 0.001989365 0.007873535
vt 0.7783203 0.996582
vt 0.9863281 0.002599716
vt 0.1824951 0.9921875
vt 0.001989365 0.007873535
vt 0.7783203 0.996582
vt 0.9863281 0.002599716
vt 0.1824951 0.9921875
vt 0.001989365 0.007873535
vt 0.9863281 0.002599716
vt 0.7783203 0.996582
vt 0.1824951 0.9921875
vt 0.001989365 0.007873535
vt 0.9863281 0.002599716
vt 0.7783203 0.996582
vt 0.1824951 0.9921875
vt 0.001989365 0.007873535
vt 0.9863281 0.002599716
vt 0.7783203 0.996582
vt 0.1824951 0.9921875
vt 0.001989365 0.007873535
vt 0.9863281 0.002599716
vt 0.7783203 0.996582
vt 0.1824951 0.9921875
vt 0.001989365 0.007873535
vt 0.7783203 0.996582
vt 0.9863281 0.002599716
vt 0.1824951 0.9921875
vt 0.001989365 0.007873535
vt 0.7783203 0.996582
vt 0.9863281 0.002599716
vt 0.1824951 0.9921875
vt 0.9433594 0.3640137
vt 0.9321289 0.4221191
vt 0.9516602 0.3674316
vt 0.9433594 0.3640137
vt 0.9321289 0.4221191
vt 0.9516602 0.3674316
vt 0.9433594 0.3640137
vt 0.9516602 0.3674316
vt 0.9321289 0.4221191
vt 0.9433594 0.3640137
vt 0.9516602 0.3674316
vt 0.9321289 0.4221191

g MEP_Con_01_f_LOD_02(Clone)_14650_257
usemtl MEP_Con_01_f_LOD_02(Clone)_14650_257
usemap MEP_Con_01_f_LOD_02(Clone)_14650_257
f 1/1/1 3/3/3 2/2/2
f 4/4/4 1/1/1 2/2/2
f 5/5/5 7/7/7 6/6/6
f 8/8/8 5/5/5 6/6/6
f 9/9/9 11/11/11 10/10/10
f 12/12/12 11/11/11 9/9/9
f 13/13/13 15/15/15 14/14/14
f 16/16/16 15/15/15 13/13/13
f 17/17/17 19/19/19 18/18/18
f 20/20/20 19/19/19 17/17/17
f 21/21/21 23/23/23 22/22/22
f 24/24/24 23/23/23 21/21/21
f 25/25/25 27/27/27 26/26/26
f 28/28/28 25/25/25 26/26/26
f 29/29/29 31/31/31 30/30/30
f 32/32/32 29/29/29 30/30/30
f 33/33/33 35/35/35 34/34/34
f 36/36/36 38/38/38 37/37/37
f 39/39/39 41/41/41 40/40/40
f 42/42/42 44/44/44 43/43/43
