#MEP_Con_01_h_LOD_01(Clone)_13620_309.obj

v -0.9886101 1.8701 2.0224
v -0.04146486 2.738964 0.192053
v 0.1753468 3.133242 -0.009901914
v -0.1296034 2.017378 0.5884206
v 0.06087561 5.013865 0.3298956
v -0.04061714 5.410986 0.05558349
v 1.980731 3.836672 2.319811
v 0.4005406 4.295711 0.5631942
v 0.05841805 5.161913 -0.07768289
v -0.01364329 5.602562 0.1318007
v -0.2754627 3.565519 -2.601867
v -0.09598399 4.395246 -0.3495843
v -0.1546777 7.074161 0.1252631
v 0.1510442 7.44681 0.02076587
v -2.5659 6.258064 1.722592
v -0.4860772 6.428028 0.5230639
v 0.1437611 6.999117 -0.09008083
v -0.007084949 7.390817 0.02217648
v 1.258542 5.592319 -2.036176
v 0.1633459 6.328565 -0.376462
v -0.1149318 9.198686 -0.03918958
v -0.01336327 9.653197 0.1231292
v -2.010503 7.554882 -1.693328
v -0.4600843 8.447343 -0.08304013
v -0.007241327 9.326726 0.2779584
v 0.04386236 9.7173 -0.01883346
v 0.4093481 8.302306 3.072322
v 0.1829284 8.640229 0.6999909
v -0.04146486 2.738964 0.192053
v -0.9886101 1.8701 2.0224
v 0.1753468 3.133242 -0.009901914
v -0.1296034 2.017378 0.5884206
v 0.06087561 5.013865 0.3298956
v 1.980731 3.836672 2.319811
v -0.04061714 5.410986 0.05558349
v 0.4005406 4.295711 0.5631942
v 0.05841805 5.161913 -0.07768289
v -0.2754627 3.565519 -2.601867
v -0.01364329 5.602562 0.1318007
v -0.09598399 4.395246 -0.3495843
v -0.1546777 7.074161 0.1252631
v -2.5659 6.258064 1.722592
v 0.1510442 7.44681 0.02076587
v -0.4860772 6.428028 0.5230639
v 0.1437611 6.999117 -0.09008083
v 1.258542 5.592319 -2.036176
v -0.007084949 7.390817 0.02217648
v 0.1633459 6.328565 -0.376462
v -0.1149318 9.198686 -0.03918958
v -2.010503 7.554882 -1.693328
v -0.01336327 9.653197 0.1231292
v -0.4600843 8.447343 -0.08304013
v -0.007241327 9.326726 0.2779584
v 0.4093481 8.302306 3.072322
v 0.04386236 9.7173 -0.01883346
v 0.1829284 8.640229 0.6999909
v -0.7608965 10.36044 1.125343
v -2.972184 11.57432 2.590007
v -0.2411304 10.70937 0.3411623
v 0.2145434 10.92739 0.02164462
v -0.7608965 10.36044 1.125343
v -0.2411304 10.70937 0.3411623
v -2.972184 11.57432 2.590007
v 0.2145434 10.92739 0.02164462
v -0.09563793 5.061844 0.0250042
v 0.138645 5.473125 0.1635587
v -2.790349 3.783173 -0.3425323
v -0.4850515 4.333046 0.07775982
v 0.1548583 6.976057 0.1772893
v 0.1947221 7.401443 -0.06908944
v 0.9400195 5.51322 2.682309
v 0.3416113 6.220922 0.4609447
v 0.1576524 9.229545 0.07542361
v -0.1367772 9.724119 -0.05382068
v 3.393194 7.663885 0.08665463
v 0.6009324 8.352187 -0.04500669
v -0.09563793 5.061844 0.0250042
v -2.790349 3.783173 -0.3425323
v 0.138645 5.473125 0.1635587
v -0.4850515 4.333046 0.07775982
v 0.1548583 6.976057 0.1772893
v 0.9400195 5.51322 2.682309
v 0.1947221 7.401443 -0.06908944
v 0.3416113 6.220922 0.4609447
v 0.1576524 9.229545 0.07542361
v 3.393194 7.663885 0.08665463
v -0.1367772 9.724119 -0.05382068
v 0.6009324 8.352187 -0.04500669
v -0.4775169 10.73707 -1.029068
v -0.1793382 10.03951 -4.580503
v 0.05301885 11.63629 -0.3431035
v 0.1226379 12.25096 0.07050977
v -0.4775169 10.73707 -1.029068
v 0.05301885 11.63629 -0.3431035
v -0.1793382 10.03951 -4.580503
v 0.1226379 12.25096 0.07050977
v -0.3181405 11.67299 -0.008464732
v 0.2608241 12.28067 0.04634425
v -5.330864 10.70736 -0.4643624
v -1.314051 10.75051 0.3802547
v -0.3181405 11.67299 -0.008464732
v -5.330864 10.70736 -0.4643624
v 0.2608241 12.28067 0.04634425
v -1.314051 10.75051 0.3802547
v 0.02404102 16.23364 -0.252433
v 0.1418835 16.52574 0.03858301
v -1.716066 15.66677 -2.117493
v -0.326573 15.68114 -0.5525976
v -0.07614157 17.31449 -0.02762271
v 0.2186553 17.74557 -0.05020942
v -2.789895 16.08077 1.094369
v -0.4231569 16.56796 0.2763329
v 0.02404102 16.23364 -0.252433
v -1.716066 15.66677 -2.117493
v 0.1418835 16.52574 0.03858301
v -0.326573 15.68114 -0.5525976
v -0.07614157 17.31449 -0.02762271
v -2.789895 16.08077 1.094369
v 0.2186553 17.74557 -0.05020942
v -0.4231569 16.56796 0.2763329
v -0.202508 13.99219 -0.1764545
v 0.1882947 14.39918 0.09289154
v -3.364364 13.64519 -2.273076
v -1.038192 13.37294 -0.3173377
v -0.202508 13.99219 -0.1764545
v -3.364364 13.64519 -2.273076
v 0.1882947 14.39918 0.09289154
v -1.038192 13.37294 -0.3173377
v -0.0677643 19.07122 -0.1653338
v 0.2588421 19.4246 -0.02302203
v -2.255338 18.38868 -1.455715
v -0.5305909 18.36757 -0.1466354
v -0.0677643 19.07122 -0.1653338
v -2.255338 18.38868 -1.455715
v 0.2588421 19.4246 -0.02302203
v -0.5305909 18.36757 -0.1466354
v -0.1596087 14.85503 -0.03272221
v 0.2875994 15.06024 -0.1312226
v -2.729246 15.14348 1.599148
v -0.7542598 14.40186 0.3554902
v -0.1596087 14.85503 -0.03272221
v -2.729246 15.14348 1.599148
v 0.2875994 15.06024 -0.1312226
v -0.7542598 14.40186 0.3554902
v -0.04378664 13.34469 -0.0156363
v 0.08034634 13.79207 0.1507611
v -2.022191 11.81187 -1.67933
v -0.4253728 12.61157 -0.06560703
v 0.07095847 13.46418 0.3024002
v 0.1402548 13.8547 0.009251969
v 0.4449375 12.3931 3.085268
v 0.2285516 12.76508 0.7171031
v -0.04378664 13.34469 -0.0156363
v -2.022191 11.81187 -1.67933
v 0.08034634 13.79207 0.1507611
v -0.4253728 12.61157 -0.06560703
v 0.07095847 13.46418 0.3024002
v 0.4449375 12.3931 3.085268
v 0.1402548 13.8547 0.009251969
v 0.2285516 12.76508 0.7171031
v 0.230304 13.36106 0.09835625
v -0.03993641 13.87068 -0.02505752
v 3.385475 11.63914 0.08359915
v 0.6298231 12.46432 -0.03204586
v 0.230304 13.36106 0.09835625
v 3.385475 11.63914 0.08359915
v -0.03993641 13.87068 -0.02505752
v 0.6298231 12.46432 -0.03204586
v 0.2360791 15.53636 -0.1273706
v 0.0576851 15.98374 -0.02119557
v 2.096184 14.00354 -1.92235
v 0.3254022 14.80325 -0.5017098
v -0.09215374 15.65585 -0.04628214
v 0.1922356 16.04637 0.05307817
v -2.898807 14.58478 0.03676176
v -0.5209718 14.95675 0.06739879
v 0.2360791 15.53636 -0.1273706
v 2.096184 14.00354 -1.92235
v 0.0576851 15.98374 -0.02119557
v 0.3254022 14.80325 -0.5017098
v -0.09215374 15.65585 -0.04628214
v -2.898807 14.58478 0.03676176
v 0.1922356 16.04637 0.05307817
v -0.5209718 14.95675 0.06739879
v 0.104845 15.52809 0.2381978
v 0.1981454 16.03845 -0.04253607
v 0.4747368 13.79365 3.364715
v 0.2773107 14.62944 0.6169119
v 0.104845 15.52809 0.2381978
v 0.4747368 13.79365 3.364715
v 0.1981454 16.03845 -0.04253607
v 0.2773107 14.62944 0.6169119
v 0.262469 19.86199 -0.5207531
v 1.230048 19.65501 -1.72243
v 0.262132 20.38085 -0.1571583
v 0.1857612 20.67361 0.03213518
v 0.262469 19.86199 -0.5207531
v 0.262132 20.38085 -0.1571583
v 1.230048 19.65501 -1.72243
v 0.1857612 20.67361 0.03213518
v 0.476619 21.22732 0.09622618
v 1.005945 20.87008 1.110813
v 0.2917572 21.67425 0.03163922
v 0.2208524 21.92544 -0.05453689
v 0.476619 21.22732 0.09622618
v 0.2917572 21.67425 0.03163922
v 1.005945 20.87008 1.110813
v 0.2208524 21.92544 -0.05453689
v -0.08021004 -0.205358 -0.4106887
v 0.2617466 23.88826 -0.03480783
v -0.04635227 -0.210712 0.4552972
v 0.4119255 -0.205358 -0.07355611
v 0.2617466 23.88826 -0.03480783
v -0.4544775 -0.210712 -0.05368226
v -0.08021004 -0.205358 -0.4106887
v -0.04635227 -0.210712 0.4552972
v 0.2617466 23.88826 -0.03480783
v 0.4119255 -0.205358 -0.07355611
v -0.4544775 -0.210712 -0.05368226
v 0.2617466 23.88826 -0.03480783

vn 0.1134033 -0.05743408 -0.9916992
vn -0.01109314 0.2324219 -0.9726563
vn -0.05770874 0.3356934 -0.9399414
vn 0.1645508 -0.1831055 -0.9692383
vn -0.9204102 0.276123 -0.2773438
vn -0.8989258 0.3781738 -0.2205811
vn -0.9150391 -0.0004272461 -0.4035645
vn -0.8774414 -0.1489258 -0.4562988
vn 0.590332 0.1971436 0.7827148
vn 0.6254883 0.2932129 0.7231445
vn 0.4626465 -0.05969238 0.8842773
vn 0.376709 -0.1953125 0.9052734
vn 0.5161133 0.1641846 -0.840332
vn 0.4750977 0.2751465 -0.8359375
vn 0.5878906 -0.12854 -0.7988281
vn 0.6040039 -0.2807617 -0.7460938
vn -0.03302002 0.1552734 0.9873047
vn 0.03131104 0.2526855 0.9667969
vn -0.194458 -0.1022949 0.9755859
vn -0.2736816 -0.2366943 0.9321289
vn 0.9570313 0.06439209 0.2827148
vn 0.9624023 0.1627197 0.2167969
vn 0.8813477 -0.1895752 0.432373
vn 0.8076172 -0.3186035 0.4963379
vn -0.5620117 0.203125 -0.8017578
vn -0.5786133 0.3103027 -0.7539063
vn -0.4831543 -0.08221436 -0.871582
vn -0.4223633 -0.2322998 -0.8759766
vn 0.01109314 -0.2324219 0.9726563
vn -0.1134033 0.05743408 0.9916992
vn 0.05770874 -0.3356934 0.9399414
vn -0.1645508 0.1831055 0.9692383
vn 0.9204102 -0.276123 0.2773438
vn 0.9150391 0.0004272461 0.4035645
vn 0.8989258 -0.3781738 0.2205811
vn 0.8774414 0.1489258 0.4562988
vn -0.590332 -0.1971436 -0.7827148
vn -0.4626465 0.05969238 -0.8842773
vn -0.6254883 -0.2932129 -0.7231445
vn -0.376709 0.1953125 -0.9052734
vn -0.5161133 -0.1641846 0.840332
vn -0.5878906 0.12854 0.7988281
vn -0.4750977 -0.2753906 0.8359375
vn -0.6040039 0.2807617 0.7460938
vn 0.03302002 -0.1552734 -0.9873047
vn 0.194458 0.1022949 -0.9755859
vn -0.03131104 -0.2526855 -0.9667969
vn 0.2736816 0.2366943 -0.9321289
vn -0.9570313 -0.06439209 -0.2827148
vn -0.8813477 0.1895752 -0.432373
vn -0.9624023 -0.1627197 -0.2167969
vn -0.8076172 0.3186035 -0.4963379
vn 0.5620117 -0.203125 0.8017578
vn 0.4831543 0.08221436 0.871582
vn 0.5786133 -0.3103027 0.7539063
vn 0.4223633 0.2322998 0.8759766
vn -0.3312988 0.4326172 0.8383789
vn -0.3913574 0.2866211 0.8745117
vn -0.4753418 -0.00567627 0.8798828
vn -0.4963379 -0.1206055 0.8598633
vn 0.3312988 -0.4326172 -0.8383789
vn 0.4753418 0.00567627 -0.8798828
vn 0.3913574 -0.2866211 -0.8745117
vn 0.4963379 0.1206055 -0.8598633
vn 0.9082031 0.2327881 -0.3474121
vn 0.8603516 0.3344727 -0.3842773
vn 0.972168 -0.04095459 -0.230835
vn 0.9692383 -0.1864014 -0.1595459
vn -0.7172852 0.2440186 -0.652832
vn -0.7338867 0.3415527 -0.5874023
vn -0.6293945 -0.01940918 -0.7768555
vn -0.5581055 -0.1601563 -0.8139648
vn -0.8515625 0.2365723 0.4680176
vn -0.7978516 0.3376465 0.4992676
vn -0.9326172 -0.03546143 0.3588867
vn -0.940918 -0.1801758 0.2866211
vn -0.9082031 -0.2327881 0.3474121
vn -0.972168 0.04095459 0.230835
vn -0.8603516 -0.3344727 0.3842773
vn -0.9692383 0.1864014 0.1595459
vn 0.7172852 -0.2440186 0.652832
vn 0.6293945 0.01940918 0.7768555
vn 0.7338867 -0.3415527 0.5874023
vn 0.5581055 0.1601563 0.8139648
vn 0.8515625 -0.2365723 -0.4680176
vn 0.9326172 0.03546143 -0.3588867
vn 0.7978516 -0.3376465 -0.4992676
vn 0.940918 0.1801758 -0.2866211
vn -0.1252441 0.5996094 -0.7905273
vn -0.2072754 0.4755859 -0.8549805
vn -0.3457031 0.2111816 -0.9145508
vn -0.3913574 0.1017456 -0.9145508
vn 0.1252441 -0.5996094 0.7905273
vn 0.3457031 -0.2111816 0.9145508
vn 0.2072754 -0.4755859 0.8549805
vn 0.3913574 -0.1017456 0.9145508
vn 0.9560547 -0.1119385 -0.2705078
vn 0.9560547 0.004272461 -0.2937012
vn 0.8955078 -0.4001465 -0.1940918
vn 0.8291016 -0.5395508 -0.145752
vn -0.9560547 0.1119385 0.2705078
vn -0.8955078 0.4001465 0.1940918
vn -0.9560547 -0.004272461 0.2937012
vn -0.8291016 0.5395508 0.145752
vn 0.8837891 0.3354492 0.3254395
vn 0.8510742 0.4416504 0.2844238
vn 0.9111328 0.04428101 0.4094238
vn 0.8911133 -0.1137085 0.4389648
vn 0.6469727 0.1734619 -0.7426758
vn 0.5947266 0.2792969 -0.7539063
vn 0.737793 -0.1068726 -0.6665039
vn 0.7583008 -0.2531738 -0.6005859
vn -0.8837891 -0.3354492 -0.3254395
vn -0.9111328 -0.04428101 -0.4094238
vn -0.8510742 -0.4416504 -0.2844238
vn -0.8911133 0.1137085 -0.4389648
vn -0.6469727 -0.1734619 0.7426758
vn -0.737793 0.1068726 0.6665039
vn -0.5947266 -0.2792969 0.7539063
vn -0.7583008 0.2531738 0.6005859
vn 0.9746094 -0.09454346 0.2038574
vn 0.9804688 0.02337646 0.1940918
vn 0.8959961 -0.3881836 0.2155762
vn 0.8198242 -0.53125 0.213623
vn -0.9746094 0.09454346 -0.2038574
vn -0.8959961 0.3881836 -0.2155762
vn -0.9804688 -0.02340698 -0.1940918
vn -0.8198242 0.53125 -0.213623
vn 0.9550781 -0.2202148 0.1992188
vn 0.9682617 -0.1654053 0.1862793
vn 0.9135742 -0.3383789 0.2253418
vn 0.8925781 -0.3847656 0.2347412
vn -0.9550781 0.2202148 -0.1992188
vn -0.9135742 0.3383789 -0.2253418
vn -0.9682617 0.1654053 -0.1862793
vn -0.8925781 0.3847656 -0.2347412
vn 0.5541992 0.4333496 -0.7104492
vn 0.5288086 0.5361328 -0.6577148
vn 0.5834961 0.1437988 -0.7993164
vn 0.5771484 -0.01712036 -0.8164063
vn -0.5541992 -0.4333496 0.7104492
vn -0.5834961 -0.1437988 0.7993164
vn -0.5288086 -0.5361328 0.6577148
vn -0.5771484 0.01712036 0.8164063
vn 0.9584961 0.04150391 0.2824707
vn 0.9648438 0.1429443 0.2213135
vn 0.8808594 -0.21875 0.4196777
vn 0.8061523 -0.3500977 0.4772949
vn -0.5625 0.2474365 -0.7890625
vn -0.578125 0.3522949 -0.7363281
vn -0.4863281 -0.03491211 -0.8730469
vn -0.427002 -0.1851807 -0.8852539
vn -0.9584961 -0.04150391 -0.2824707
vn -0.8808594 0.21875 -0.4196777
vn -0.9648438 -0.1429443 -0.2213135
vn -0.8061523 0.3500977 -0.4772949
vn 0.5625 -0.2474365 0.7890625
vn 0.4863281 0.03491211 0.8730469
vn 0.578125 -0.3522949 0.7363281
vn 0.427002 0.1851807 0.8852539
vn -0.8476563 0.2213135 0.4819336
vn -0.793457 0.3203125 0.5175781
vn -0.9321289 -0.04428101 0.3598633
vn -0.9418945 -0.1851807 0.2805176
vn 0.8476563 -0.2213135 -0.4819336
vn 0.9321289 0.04428101 -0.3598633
vn 0.793457 -0.3203125 -0.5175781
vn 0.9418945 0.1851807 -0.2805176
vn -0.3803711 0.04150391 0.9238281
vn -0.3203125 0.1429443 0.9365234
vn -0.5087891 -0.21875 0.8325195
vn -0.5585938 -0.3500977 0.7519531
vn 0.8432617 0.2474365 -0.4772949
vn 0.7919922 0.3522949 -0.498291
vn 0.9189453 -0.03491211 -0.3930664
vn 0.9248047 -0.1851807 -0.3330078
vn 0.3803711 -0.04150391 -0.9238281
vn 0.5087891 0.21875 -0.8325195
vn 0.3203125 -0.1429443 -0.9365234
vn 0.5585938 0.3500977 -0.7519531
vn -0.8432617 -0.2474365 0.4772949
vn -0.9189453 0.03491211 0.3930664
vn -0.7919922 -0.3522949 0.498291
vn -0.9248047 0.1851807 0.3330078
vn -0.5761719 0.2233887 -0.7861328
vn -0.6054688 0.3220215 -0.7275391
vn -0.4638672 -0.04159546 -0.8847656
vn -0.3859863 -0.182251 -0.9042969
vn 0.5761719 -0.2233887 0.7861328
vn 0.4638672 0.04159546 0.8847656
vn 0.6054688 -0.3220215 0.7275391
vn 0.3859863 0.182251 0.9042969
vn 0.3129883 0.4272461 -0.8481445
vn 0.2937012 0.364502 -0.8837891
vn 0.2460938 0.2202148 -0.9438477
vn 0.2247314 0.15979 -0.9614258
vn -0.3129883 -0.4272461 0.8481445
vn -0.2460938 -0.2202148 0.9438477
vn -0.2937012 -0.364502 0.8837891
vn -0.2247314 -0.15979 0.9614258
vn 0.6577148 0.3144531 0.6845703
vn 0.6992188 0.2546387 0.6679688
vn 0.7763672 0.1193848 0.6186523
vn 0.8017578 0.06329346 0.5942383
vn -0.6577148 -0.3144531 -0.6845703
vn -0.7763672 -0.1193848 -0.6186523
vn -0.6992188 -0.2546387 -0.6679688
vn -0.8017578 -0.06329346 -0.5942383
vn -0.4140625 0.0135498 -0.9101563
vn 0.3583984 0.01071167 -0.9335938
vn -0.4140625 0.0135498 -0.9101563
vn 0.9169922 0.001434326 -0.3994141
vn 0.3583984 0.01071167 -0.9335938
vn 0.9169922 0.001434326 -0.3994141
vn 0.4140625 -0.0135498 0.9101563
vn 0.4140625 -0.0135498 0.9101563
vn -0.3583984 -0.01071167 0.9335938
vn -0.9169922 -0.001434326 0.3994141
vn -0.9169922 -0.001434326 0.3994141
vn -0.3583984 -0.01071167 0.9335938

vt 0.8422852 0.7006836
vt 0.9926758 0.2159424
vt 0.9921875 0.08068848
vt 0.9970703 0.3566895
vt 0.9926758 0.2159424
vt 0.9921875 0.08068848
vt 0.8422852 0.7006836
vt 0.9970703 0.3566895
vt 0.9926758 0.2159424
vt 0.9921875 0.08068848
vt 0.8422852 0.7006836
vt 0.9970703 0.3566895
vt 0.9926758 0.2159424
vt 0.9921875 0.08068848
vt 0.8422852 0.7006836
vt 0.9970703 0.3566895
vt 0.9926758 0.2159424
vt 0.9921875 0.08068848
vt 0.8422852 0.7006836
vt 0.9970703 0.3566895
vt 0.9926758 0.2159424
vt 0.9921875 0.08068848
vt 0.8422852 0.7006836
vt 0.9970703 0.3566895
vt 0.9926758 0.2159424
vt 0.9921875 0.08068848
vt 0.8422852 0.7006836
vt 0.9970703 0.3566895
vt 0.9926758 0.2159424
vt 0.8422852 0.7006836
vt 0.9921875 0.08068848
vt 0.9970703 0.3566895
vt 0.9926758 0.2159424
vt 0.8422852 0.7006836
vt 0.9921875 0.08068848
vt 0.9970703 0.3566895
vt 0.9926758 0.2159424
vt 0.8422852 0.7006836
vt 0.9921875 0.08068848
vt 0.9970703 0.3566895
vt 0.9926758 0.2159424
vt 0.8422852 0.7006836
vt 0.9921875 0.08068848
vt 0.9970703 0.3566895
vt 0.9926758 0.2159424
vt 0.8422852 0.7006836
vt 0.9921875 0.08068848
vt 0.9970703 0.3566895
vt 0.9926758 0.2159424
vt 0.8422852 0.7006836
vt 0.9921875 0.08068848
vt 0.9970703 0.3566895
vt 0.9926758 0.2159424
vt 0.8422852 0.7006836
vt 0.9921875 0.08068848
vt 0.9970703 0.3566895
vt 0.9970703 0.3566895
vt 0.8422852 0.7006836
vt 0.9926758 0.2159424
vt 0.9921875 0.08068848
vt 0.9970703 0.3566895
vt 0.9926758 0.2159424
vt 0.8422852 0.7006836
vt 0.9921875 0.08068848
vt 0.9926758 0.2159424
vt 0.9921875 0.08068848
vt 0.8422852 0.7006836
vt 0.9970703 0.3566895
vt 0.9926758 0.2159424
vt 0.9921875 0.08068848
vt 0.8422852 0.7006836
vt 0.9970703 0.3566895
vt 0.9926758 0.2159424
vt 0.9921875 0.08068848
vt 0.8422852 0.7006836
vt 0.9970703 0.3566895
vt 0.9926758 0.2159424
vt 0.8422852 0.7006836
vt 0.9921875 0.08068848
vt 0.9970703 0.3566895
vt 0.9926758 0.2159424
vt 0.8422852 0.7006836
vt 0.9921875 0.08068848
vt 0.9970703 0.3566895
vt 0.9926758 0.2159424
vt 0.8422852 0.7006836
vt 0.9921875 0.08068848
vt 0.9970703 0.3566895
vt 0.9970703 0.3566895
vt 0.8422852 0.7006836
vt 0.9926758 0.2159424
vt 0.9921875 0.08068848
vt 0.9970703 0.3566895
vt 0.9926758 0.2159424
vt 0.8422852 0.7006836
vt 0.9921875 0.08068848
vt 0.9926758 0.2159424
vt 0.9921875 0.08068848
vt 0.8422852 0.7006836
vt 0.9970703 0.3566895
vt 0.9926758 0.2159424
vt 0.8422852 0.7006836
vt 0.9921875 0.08068848
vt 0.9970703 0.3566895
vt 0.9926758 0.2159424
vt 0.9921875 0.08068848
vt 0.8422852 0.7006836
vt 0.9970703 0.3566895
vt 0.9926758 0.2159424
vt 0.9921875 0.08068848
vt 0.8422852 0.7006836
vt 0.9970703 0.3566895
vt 0.9926758 0.2159424
vt 0.8422852 0.7006836
vt 0.9921875 0.08068848
vt 0.9970703 0.3566895
vt 0.9926758 0.2159424
vt 0.8422852 0.7006836
vt 0.9921875 0.08068848
vt 0.9970703 0.3566895
vt 0.9926758 0.2159424
vt 0.9921875 0.08068848
vt 0.8422852 0.7006836
vt 0.9970703 0.3566895
vt 0.9926758 0.2159424
vt 0.8422852 0.7006836
vt 0.9921875 0.08068848
vt 0.9970703 0.3566895
vt 0.9926758 0.2159424
vt 0.9921875 0.08068848
vt 0.8422852 0.7006836
vt 0.9970703 0.3566895
vt 0.9926758 0.2159424
vt 0.8422852 0.7006836
vt 0.9921875 0.08068848
vt 0.9970703 0.3566895
vt 0.9926758 0.2159424
vt 0.9921875 0.08068848
vt 0.8422852 0.7006836
vt 0.9970703 0.3566895
vt 0.9926758 0.2159424
vt 0.8422852 0.7006836
vt 0.9921875 0.08068848
vt 0.9970703 0.3566895
vt 0.9926758 0.2159424
vt 0.9921875 0.08068848
vt 0.8422852 0.7006836
vt 0.9970703 0.3566895
vt 0.9926758 0.2159424
vt 0.9921875 0.08068848
vt 0.8422852 0.7006836
vt 0.9970703 0.3566895
vt 0.9926758 0.2159424
vt 0.8422852 0.7006836
vt 0.9921875 0.08068848
vt 0.9970703 0.3566895
vt 0.9926758 0.2159424
vt 0.8422852 0.7006836
vt 0.9921875 0.08068848
vt 0.9970703 0.3566895
vt 0.9926758 0.2159424
vt 0.9921875 0.08068848
vt 0.8422852 0.7006836
vt 0.9970703 0.3566895
vt 0.9926758 0.2159424
vt 0.8422852 0.7006836
vt 0.9921875 0.08068848
vt 0.9970703 0.3566895
vt 0.9926758 0.2159424
vt 0.9921875 0.08068848
vt 0.8422852 0.7006836
vt 0.9970703 0.3566895
vt 0.9926758 0.2159424
vt 0.9921875 0.08068848
vt 0.8422852 0.7006836
vt 0.9970703 0.3566895
vt 0.9926758 0.2159424
vt 0.8422852 0.7006836
vt 0.9921875 0.08068848
vt 0.9970703 0.3566895
vt 0.9926758 0.2159424
vt 0.8422852 0.7006836
vt 0.9921875 0.08068848
vt 0.9970703 0.3566895
vt 0.9926758 0.2159424
vt 0.9921875 0.08068848
vt 0.8422852 0.7006836
vt 0.9970703 0.3566895
vt 0.9926758 0.2159424
vt 0.8422852 0.7006836
vt 0.9921875 0.08068848
vt 0.9970703 0.3566895
vt 0.9970703 0.3566895
vt 0.8422852 0.7006836
vt 0.9926758 0.2159424
vt 0.9921875 0.08068848
vt 0.9970703 0.3566895
vt 0.9926758 0.2159424
vt 0.8422852 0.7006836
vt 0.9921875 0.08068848
vt 0.9970703 0.3566895
vt 0.8422852 0.7006836
vt 0.9926758 0.2159424
vt 0.9921875 0.08068848
vt 0.9970703 0.3566895
vt 0.9926758 0.2159424
vt 0.8422852 0.7006836
vt 0.9921875 0.08068848
vt 0.9433594 0.3640137
vt 0.9321289 0.4221191
vt 0.9516602 0.3674316
vt 0.9433594 0.3640137
vt 0.9321289 0.4221191
vt 0.9516602 0.3674316
vt 0.9433594 0.3640137
vt 0.9516602 0.3674316
vt 0.9321289 0.4221191
vt 0.9433594 0.3640137
vt 0.9516602 0.3674316
vt 0.9321289 0.4221191

g MEP_Con_01_h_LOD_01(Clone)_13620_309
usemtl MEP_Con_01_h_LOD_01(Clone)_13620_309
usemap MEP_Con_01_h_LOD_01(Clone)_13620_309
f 1/1/1 3/3/3 2/2/2
f 4/4/4 1/1/1 2/2/2
f 5/5/5 7/7/7 6/6/6
f 8/8/8 7/7/7 5/5/5
f 9/9/9 11/11/11 10/10/10
f 12/12/12 11/11/11 9/9/9
f 13/13/13 15/15/15 14/14/14
f 16/16/16 15/15/15 13/13/13
f 17/17/17 19/19/19 18/18/18
f 20/20/20 19/19/19 17/17/17
f 21/21/21 23/23/23 22/22/22
f 24/24/24 23/23/23 21/21/21
f 25/25/25 27/27/27 26/26/26
f 28/28/28 27/27/27 25/25/25
f 29/29/29 31/31/31 30/30/30
f 32/32/32 29/29/29 30/30/30
f 33/33/33 35/35/35 34/34/34
f 36/36/36 33/33/33 34/34/34
f 37/37/37 39/39/39 38/38/38
f 40/40/40 37/37/37 38/38/38
f 41/41/41 43/43/43 42/42/42
f 44/44/44 41/41/41 42/42/42
f 45/45/45 47/47/47 46/46/46
f 48/48/48 45/45/45 46/46/46
f 49/49/49 51/51/51 50/50/50
f 52/52/52 49/49/49 50/50/50
f 53/53/53 55/55/55 54/54/54
f 56/56/56 53/53/53 54/54/54
f 57/57/57 59/59/59 58/58/58
f 59/59/59 60/60/60 58/58/58
f 61/61/61 63/63/63 62/62/62
f 62/62/62 63/63/63 64/64/64
f 65/65/65 67/67/67 66/66/66
f 68/68/68 67/67/67 65/65/65
f 69/69/69 71/71/71 70/70/70
f 72/72/72 71/71/71 69/69/69
f 73/73/73 75/75/75 74/74/74
f 76/76/76 75/75/75 73/73/73
f 77/77/77 79/79/79 78/78/78
f 80/80/80 77/77/77 78/78/78
f 81/81/81 83/83/83 82/82/82
f 84/84/84 81/81/81 82/82/82
f 85/85/85 87/87/87 86/86/86
f 88/88/88 85/85/85 86/86/86
f 89/89/89 91/91/91 90/90/90
f 91/91/91 92/92/92 90/90/90
f 93/93/93 95/95/95 94/94/94
f 94/94/94 95/95/95 96/96/96
f 97/97/97 99/99/99 98/98/98
f 100/100/100 99/99/99 97/97/97
f 101/101/101 103/103/103 102/102/102
f 104/104/104 101/101/101 102/102/102
f 105/105/105 107/107/107 106/106/106
f 108/108/108 107/107/107 105/105/105
f 109/109/109 111/111/111 110/110/110
f 112/112/112 111/111/111 109/109/109
f 113/113/113 115/115/115 114/114/114
f 116/116/116 113/113/113 114/114/114
f 117/117/117 119/119/119 118/118/118
f 120/120/120 117/117/117 118/118/118
f 121/121/121 123/123/123 122/122/122
f 124/124/124 123/123/123 121/121/121
f 125/125/125 127/127/127 126/126/126
f 128/128/128 125/125/125 126/126/126
f 129/129/129 131/131/131 130/130/130
f 132/132/132 131/131/131 129/129/129
f 133/133/133 135/135/135 134/134/134
f 136/136/136 133/133/133 134/134/134
f 137/137/137 139/139/139 138/138/138
f 140/140/140 139/139/139 137/137/137
f 141/141/141 143/143/143 142/142/142
f 144/144/144 141/141/141 142/142/142
f 145/145/145 147/147/147 146/146/146
f 148/148/148 147/147/147 145/145/145
f 149/149/149 151/151/151 150/150/150
f 152/152/152 151/151/151 149/149/149
f 153/153/153 155/155/155 154/154/154
f 156/156/156 153/153/153 154/154/154
f 157/157/157 159/159/159 158/158/158
f 160/160/160 157/157/157 158/158/158
f 161/161/161 163/163/163 162/162/162
f 164/164/164 163/163/163 161/161/161
f 165/165/165 167/167/167 166/166/166
f 168/168/168 165/165/165 166/166/166
f 169/169/169 171/171/171 170/170/170
f 172/172/172 171/171/171 169/169/169
f 173/173/173 175/175/175 174/174/174
f 176/176/176 175/175/175 173/173/173
f 177/177/177 179/179/179 178/178/178
f 180/180/180 177/177/177 178/178/178
f 181/181/181 183/183/183 182/182/182
f 184/184/184 181/181/181 182/182/182
f 185/185/185 187/187/187 186/186/186
f 188/188/188 187/187/187 185/185/185
f 189/189/189 191/191/191 190/190/190
f 192/192/192 189/189/189 190/190/190
f 193/193/193 195/195/195 194/194/194
f 195/195/195 196/196/196 194/194/194
f 197/197/197 199/199/199 198/198/198
f 198/198/198 199/199/199 200/200/200
f 201/201/201 203/203/203 202/202/202
f 203/203/203 204/204/204 202/202/202
f 205/205/205 207/207/207 206/206/206
f 206/206/206 207/207/207 208/208/208
f 209/209/209 211/211/211 210/210/210
f 212/212/212 214/214/214 213/213/213
f 215/215/215 217/217/217 216/216/216
f 218/218/218 220/220/220 219/219/219
