#MEP_Con_01_h_LOD_01(Clone)_11719_317.obj

v -0.9886199 1.8701 2.022387
v -0.04145153 2.738964 0.1920441
v 0.1753534 3.133242 -0.009913615
v -0.1296166 2.017378 0.5883886
v 0.06088124 5.013865 0.3298961
v -0.04061544 5.410986 0.05557256
v 1.980741 3.836672 2.319812
v 0.4005668 4.29571 0.5631934
v 0.05844088 5.161913 -0.07769298
v -0.01362472 5.602562 0.1317901
v -0.2754528 3.565519 -2.601883
v -0.09598703 4.395245 -0.3495936
v -0.1546631 7.07416 0.1252499
v 0.1510401 7.44681 0.02074995
v -2.565882 6.258064 1.722574
v -0.4860671 6.428028 0.5230413
v 0.1437683 6.999117 -0.09007499
v -0.007084334 7.390816 0.02216449
v 1.258551 5.592319 -2.03618
v 0.163342 6.328564 -0.3764911
v -0.1149408 9.198686 -0.03922339
v -0.01335918 9.653197 0.1231126
v -2.010512 7.554882 -1.693353
v -0.460083 8.447343 -0.08305722
v -0.007231349 9.326726 0.2779484
v 0.04387001 9.7173 -0.0188532
v 0.4093315 8.302306 3.072304
v 0.182943 8.640229 0.6999753
v -0.04145153 2.738964 0.1920441
v -0.9886199 1.8701 2.022387
v 0.1753534 3.133242 -0.009913615
v -0.1296166 2.017378 0.5883886
v 0.06088124 5.013865 0.3298961
v 1.980741 3.836672 2.319812
v -0.04061544 5.410986 0.05557256
v 0.4005668 4.29571 0.5631934
v 0.05844088 5.161913 -0.07769298
v -0.2754528 3.565519 -2.601883
v -0.01362472 5.602562 0.1317901
v -0.09598703 4.395245 -0.3495936
v -0.1546631 7.07416 0.1252499
v -2.565882 6.258064 1.722574
v 0.1510401 7.44681 0.02074995
v -0.4860671 6.428028 0.5230413
v 0.1437683 6.999117 -0.09007499
v 1.258551 5.592319 -2.03618
v -0.007084334 7.390816 0.02216449
v 0.163342 6.328564 -0.3764911
v -0.1149408 9.198686 -0.03922339
v -2.010512 7.554882 -1.693353
v -0.01335918 9.653197 0.1231126
v -0.460083 8.447343 -0.08305722
v -0.007231349 9.326726 0.2779484
v 0.4093315 8.302306 3.072304
v 0.04387001 9.7173 -0.0188532
v 0.182943 8.640229 0.6999753
v -0.7608927 10.36044 1.125335
v -2.972184 11.57432 2.589989
v -0.2411215 10.70937 0.341143
v 0.2145513 10.92739 0.02163807
v -0.7608927 10.36044 1.125335
v -0.2411215 10.70937 0.341143
v -2.972184 11.57432 2.589989
v 0.2145513 10.92739 0.02163807
v -0.09564367 5.061844 0.02498856
v 0.1386513 5.473125 0.1635419
v -2.790332 3.783173 -0.3425371
v -0.4850352 4.333046 0.0777403
v 0.1548688 6.976057 0.1772785
v 0.194733 7.401443 -0.06912012
v 0.9400125 5.51322 2.682295
v 0.3416294 6.220922 0.4609278
v 0.1576603 9.229545 0.0754092
v -0.1367714 9.724119 -0.05383113
v 3.393199 7.663885 0.08662847
v 0.6009257 8.352187 -0.04501626
v -0.09564367 5.061844 0.02498856
v -2.790332 3.783173 -0.3425371
v 0.1386513 5.473125 0.1635419
v -0.4850352 4.333046 0.0777403
v 0.1548688 6.976057 0.1772785
v 0.9400125 5.51322 2.682295
v 0.194733 7.401443 -0.06912012
v 0.3416294 6.220922 0.4609278
v 0.1576603 9.229545 0.0754092
v 3.393199 7.663885 0.08662847
v -0.1367714 9.724119 -0.05383113
v 0.6009257 8.352187 -0.04501626
v -0.4775147 10.73707 -1.029091
v -0.179337 10.03951 -4.58053
v 0.05300939 11.63629 -0.343117
v 0.1226268 12.25096 0.07050107
v -0.4775147 10.73707 -1.029091
v 0.05300939 11.63629 -0.343117
v -0.179337 10.03951 -4.58053
v 0.1226268 12.25096 0.07050107
v -0.3181228 11.67299 -0.008473638
v 0.2608316 12.28067 0.04632556
v -5.330845 10.70736 -0.4643641
v -1.314063 10.75051 0.3802348
v -0.3181228 11.67299 -0.008473638
v -5.330845 10.70736 -0.4643641
v 0.2608316 12.28067 0.04632556
v -1.314063 10.75051 0.3802348
v 0.02406138 16.23364 -0.2524325
v 0.1418913 16.52574 0.03855673
v -1.71606 15.66677 -2.117511
v -0.3265505 15.68114 -0.5526143
v -0.07612291 17.31449 -0.02763756
v 0.2186833 17.74557 -0.05021544
v -2.789876 16.08077 1.094361
v -0.4231598 16.56796 0.2763124
v 0.02406138 16.23364 -0.2524325
v -1.71606 15.66677 -2.117511
v 0.1418913 16.52574 0.03855673
v -0.3265505 15.68114 -0.5526143
v -0.07612291 17.31449 -0.02763756
v -2.789876 16.08077 1.094361
v 0.2186833 17.74557 -0.05021544
v -0.4231598 16.56796 0.2763124
v -0.2024989 13.99218 -0.176479
v 0.1882882 14.39918 0.09287035
v -3.364364 13.64519 -2.273097
v -1.038188 13.37294 -0.3173489
v -0.2024989 13.99218 -0.176479
v -3.364364 13.64519 -2.273097
v 0.1882882 14.39918 0.09287035
v -1.038188 13.37294 -0.3173489
v -0.06775207 19.07122 -0.1653242
v 0.2588469 19.4246 -0.0230337
v -2.255333 18.38868 -1.455746
v -0.5305838 18.36757 -0.1466686
v -0.06775207 19.07122 -0.1653242
v -2.255333 18.38868 -1.455746
v 0.2588469 19.4246 -0.0230337
v -0.5305838 18.36757 -0.1466686
v -0.1596075 14.85503 -0.03273854
v 0.2875908 15.06024 -0.1312252
v -2.729244 15.14348 1.59915
v -0.7542664 14.40186 0.3554552
v -0.1596075 14.85503 -0.03273854
v -2.729244 15.14348 1.59915
v 0.2875908 15.06024 -0.1312252
v -0.7542664 14.40186 0.3554552
v -0.04377923 13.34469 -0.01565677
v 0.08035696 13.79207 0.1507586
v -2.022183 11.81187 -1.679343
v -0.4253602 12.61157 -0.0656163
v 0.07094915 13.46418 0.3023821
v 0.1402562 13.8547 0.009226724
v 0.4449396 12.3931 3.085244
v 0.2285477 12.76508 0.7170866
v -0.04377923 13.34469 -0.01565677
v -2.022183 11.81187 -1.679343
v 0.08035696 13.79207 0.1507586
v -0.4253602 12.61157 -0.0656163
v 0.07094915 13.46418 0.3023821
v 0.4449396 12.3931 3.085244
v 0.1402562 13.8547 0.009226724
v 0.2285477 12.76508 0.7170866
v 0.2303169 13.36106 0.09835187
v -0.03994254 13.87068 -0.02508405
v 3.385482 11.63914 0.08358984
v 0.6298186 12.46432 -0.03207275
v 0.2303169 13.36106 0.09835187
v 3.385482 11.63914 0.08358984
v -0.03994254 13.87068 -0.02508405
v 0.6298186 12.46432 -0.03207275
v 0.2360761 15.53636 -0.1273866
v 0.05768302 15.98374 -0.02121624
v 2.096181 14.00354 -1.922374
v 0.3254027 14.80325 -0.5017361
v -0.09214631 15.65585 -0.04628549
v 0.1922355 16.04637 0.05306209
v -2.898811 14.58478 0.03673336
v -0.5209604 14.95675 0.06739631
v 0.2360761 15.53636 -0.1273866
v 2.096181 14.00354 -1.922374
v 0.05768302 15.98374 -0.02121624
v 0.3254027 14.80325 -0.5017361
v -0.09214631 15.65585 -0.04628549
v -2.898811 14.58478 0.03673336
v 0.1922355 16.04637 0.05306209
v -0.5209604 14.95675 0.06739631
v 0.1048416 15.52809 0.2381661
v 0.1981338 16.03845 -0.04254694
v 0.4747199 13.79365 3.364698
v 0.2773296 14.62944 0.6169099
v 0.1048416 15.52809 0.2381661
v 0.4747199 13.79365 3.364698
v 0.1981338 16.03845 -0.04254694
v 0.2773296 14.62944 0.6169099
v 0.2624863 19.86199 -0.5207565
v 1.230044 19.65501 -1.722462
v 0.262126 20.38085 -0.1571631
v 0.1857659 20.67361 0.03211718
v 0.2624863 19.86199 -0.5207565
v 0.262126 20.38085 -0.1571631
v 1.230044 19.65501 -1.722462
v 0.1857659 20.67361 0.03211718
v 0.4766077 21.22732 0.09620374
v 1.00594 20.87008 1.110793
v 0.2917548 21.67425 0.03161991
v 0.2208631 21.92544 -0.0545302
v 0.4766077 21.22732 0.09620374
v 0.2917548 21.67425 0.03161991
v 1.00594 20.87008 1.110793
v 0.2208631 21.92544 -0.0545302
v -0.08018858 -0.205358 -0.4106915
v 0.2617559 23.88826 -0.03482629
v -0.04635398 -0.210712 0.4552927
v 0.4119378 -0.205358 -0.07356794
v 0.2617559 23.88826 -0.03482629
v -0.4544765 -0.210712 -0.05368747
v -0.08018858 -0.205358 -0.4106915
v -0.04635398 -0.210712 0.4552927
v 0.2617559 23.88826 -0.03482629
v 0.4119378 -0.205358 -0.07356794
v -0.4544765 -0.210712 -0.05368747
v 0.2617559 23.88826 -0.03482629

vn -0.8144531 -0.05743408 0.5776367
vn -0.7167969 0.2324219 0.6577148
vn -0.6616211 0.3356934 0.6704102
vn -0.831543 -0.1831055 0.5244141
vn 0.4077148 0.276123 0.8701172
vn 0.4360352 0.3781738 0.8168945
vn 0.3100586 -0.0004272461 0.9506836
vn 0.2459717 -0.1489258 0.9575195
vn 0.1889648 0.1971436 -0.9619141
vn 0.1209717 0.2932129 -0.9482422
vn 0.3496094 -0.05969238 -0.9350586
vn 0.4226074 -0.1953125 -0.8847656
vn -0.9707031 0.1641846 0.1767578
vn -0.9394531 0.2751465 0.2042236
vn -0.9873047 -0.12854 0.09564209
vn -0.9584961 -0.2807617 0.04846191
vn 0.7573242 0.1552734 -0.6342773
vn 0.6992188 0.2526855 -0.6689453
vn 0.8564453 -0.1022949 -0.5063477
vn 0.8769531 -0.2366943 -0.418457
vn -0.4282227 0.06439209 -0.9013672
vn -0.4812012 0.1627197 -0.8613281
vn -0.2666016 -0.1895752 -0.9448242
vn -0.1695557 -0.3186035 -0.9326172
vn -0.2219238 0.203125 0.9536133
vn -0.1751709 0.3103027 0.9345703
vn -0.3266602 -0.08221436 0.9414063
vn -0.3703613 -0.2322998 0.8994141
vn 0.7167969 -0.2324219 -0.6577148
vn 0.8144531 0.05743408 -0.5776367
vn 0.6616211 -0.3356934 -0.6704102
vn 0.831543 0.1831055 -0.5244141
vn -0.4077148 -0.276123 -0.8701172
vn -0.3100586 0.0004272461 -0.9506836
vn -0.4360352 -0.3781738 -0.8168945
vn -0.2459717 0.1489258 -0.9575195
vn -0.1889648 -0.1971436 0.9619141
vn -0.3496094 0.05969238 0.9350586
vn -0.1209717 -0.2932129 0.9482422
vn -0.4226074 0.1953125 0.8847656
vn 0.9707031 -0.1641846 -0.1767578
vn 0.9873047 0.12854 -0.09564209
vn 0.9394531 -0.2753906 -0.2042236
vn 0.9584961 0.2807617 -0.04846191
vn -0.7573242 -0.1552734 0.6342773
vn -0.8564453 0.1022949 0.5063477
vn -0.6992188 -0.2526855 0.6689453
vn -0.8769531 0.2366943 0.418457
vn 0.4282227 -0.06439209 0.9013672
vn 0.2666016 0.1895752 0.9448242
vn 0.4812012 -0.1627197 0.8613281
vn 0.1695557 0.3186035 0.9326172
vn 0.2219238 -0.203125 -0.9536133
vn 0.3266602 0.08221436 -0.9414063
vn 0.1751709 -0.3103027 -0.9345703
vn 0.3703613 0.2322998 -0.8994141
vn 0.8457031 0.4326172 -0.3129883
vn 0.9121094 0.2866211 -0.2924805
vn 0.972168 -0.00567627 -0.2333984
vn 0.9716797 -0.1206055 -0.2042236
vn -0.8457031 -0.4326172 0.3129883
vn -0.972168 0.00567627 0.2333984
vn -0.9121094 -0.2866211 0.2924805
vn -0.9716797 0.1206055 0.2042236
vn -0.8652344 0.2327881 -0.4445801
vn -0.8603516 0.3344727 -0.3840332
vn -0.8208008 -0.04095459 -0.5698242
vn -0.7661133 -0.1864014 -0.6152344
vn -0.00724411 0.2440186 0.9697266
vn 0.05236816 0.3415527 0.9384766
vn -0.1583252 -0.01940918 0.9873047
vn -0.2333984 -0.1601563 0.9589844
vn 0.9169922 0.2365723 0.3215332
vn 0.9042969 0.3376465 0.2609863
vn 0.8896484 -0.03546143 0.454834
vn 0.8417969 -0.1801758 0.5092773
vn 0.8652344 -0.2327881 0.4445801
vn 0.8208008 0.04095459 0.5698242
vn 0.8603516 -0.3344727 0.3840332
vn 0.7661133 0.1864014 0.6152344
vn 0.00724411 -0.2440186 -0.9697266
vn 0.1583252 0.01940918 -0.9873047
vn -0.05236816 -0.3415527 -0.9384766
vn 0.2333984 0.1601563 -0.9589844
vn -0.9169922 -0.2365723 -0.3215332
vn -0.8896484 0.03546143 -0.454834
vn -0.9042969 -0.3376465 -0.2609863
vn -0.8417969 0.1801758 -0.5092773
vn -0.5048828 0.5996094 0.6210938
vn -0.4980469 0.4755859 0.7250977
vn -0.4499512 0.2111816 0.8676758
vn -0.4199219 0.1017456 0.9018555
vn 0.5048828 -0.5996094 -0.6210938
vn 0.4499512 -0.2111816 -0.8676758
vn 0.4980469 -0.4755859 -0.7250977
vn 0.4199219 -0.1017456 -0.9018555
vn -0.8398438 -0.1119385 -0.53125
vn -0.8569336 0.004272461 -0.515625
vn -0.7421875 -0.4001465 -0.5371094
vn -0.6621094 -0.5395508 -0.5200195
vn 0.8398438 0.1119385 0.53125
vn 0.7421875 0.4001465 0.5371094
vn 0.8569336 -0.004272461 0.515625
vn 0.6621094 0.5395508 0.5200195
vn -0.3476563 0.3354492 -0.8754883
vn -0.3564453 0.4416504 -0.8232422
vn -0.3034668 0.04428101 -0.9516602
vn -0.2683105 -0.1137085 -0.956543
vn -0.9848633 0.1734619 0.01396179
vn -0.9584961 0.2792969 0.06015015
vn -0.9887695 -0.1068726 -0.104248
vn -0.9536133 -0.2531738 -0.1638184
vn 0.3476563 -0.3354492 0.8754883
vn 0.3034668 -0.04428101 0.9516602
vn 0.3564453 -0.4416504 0.8232422
vn 0.2683105 0.1137085 0.956543
vn 0.9848633 -0.1734619 -0.01396179
vn 0.9887695 0.1068726 0.104248
vn 0.9584961 -0.2792969 -0.06015015
vn 0.9536133 0.2531738 0.1638184
vn -0.4987793 -0.09454346 -0.8618164
vn -0.5102539 0.02337646 -0.8598633
vn -0.4375 -0.3881836 -0.8110352
vn -0.3881836 -0.53125 -0.7529297
vn 0.4987793 0.09454346 0.8618164
vn 0.4375 0.3881836 0.8110352
vn 0.5102539 -0.02340698 0.8598633
vn 0.3881836 0.53125 0.7529297
vn -0.4890137 -0.2202148 -0.84375
vn -0.5078125 -0.1654053 -0.8457031
vn -0.4421387 -0.3383789 -0.8305664
vn -0.4211426 -0.3847656 -0.8212891
vn 0.4890137 0.2202148 0.84375
vn 0.4421387 0.3383789 0.8305664
vn 0.5078125 0.1654053 0.8457031
vn 0.4211426 0.3847656 0.8212891
vn -0.8989258 0.4333496 0.06152344
vn -0.8427734 0.5361328 0.04525757
vn -0.9848633 0.1437988 0.09893799
vn -0.9931641 -0.01712036 0.1152344
vn 0.8989258 -0.4333496 -0.06152344
vn 0.9848633 -0.1437988 -0.09893799
vn 0.8427734 -0.5361328 -0.04525757
vn 0.9931641 0.01712036 -0.1152344
vn -0.4294434 0.04150391 -0.9023438
vn -0.479248 0.1429443 -0.8662109
vn -0.2756348 -0.21875 -0.9360352
vn -0.1824951 -0.3500977 -0.9189453
vn -0.2121582 0.2474365 0.9453125
vn -0.1622314 0.3522949 0.921875
vn -0.3254395 -0.03491211 0.9448242
vn -0.3737793 -0.1851807 0.9086914
vn 0.4294434 -0.04150391 0.9023438
vn 0.2756348 0.21875 0.9360352
vn 0.479248 -0.1429443 0.8662109
vn 0.1824951 0.3500977 0.9189453
vn 0.2121582 -0.2474365 -0.9453125
vn 0.3254395 0.03491211 -0.9448242
vn 0.1622314 -0.3522949 -0.921875
vn 0.3737793 0.1851807 -0.9086914
vn 0.9248047 0.2213135 0.3095703
vn 0.9150391 0.3203125 0.2451172
vn 0.8901367 -0.04428101 0.4536133
vn 0.8374023 -0.1851807 0.5136719
vn -0.9248047 -0.2213135 -0.3095703
vn -0.8901367 0.04428101 -0.4536133
vn -0.9150391 -0.3203125 -0.2451172
vn -0.8374023 0.1851807 -0.5136719
vn 0.9418945 0.04150391 -0.3334961
vn 0.9111328 0.1429443 -0.3867188
vn 0.9594727 -0.21875 -0.177002
vn 0.9326172 -0.3500977 -0.08618164
vn -0.918457 0.2474365 -0.309082
vn -0.8999023 0.3522949 -0.2570801
vn -0.90625 -0.03491211 -0.421875
vn -0.8652344 -0.1851807 -0.4660645
vn -0.9418945 -0.04150391 0.3334961
vn -0.9594727 0.21875 0.177002
vn -0.9111328 -0.1429443 0.3867188
vn -0.9326172 0.3500977 0.08618164
vn 0.918457 -0.2474365 0.309082
vn 0.90625 0.03491211 0.421875
vn 0.8999023 -0.3522949 0.2570801
vn 0.8652344 0.1851807 0.4660645
vn -0.2009277 0.2233887 0.9536133
vn -0.1374512 0.3220215 0.9365234
vn -0.3493652 -0.04159546 0.9360352
vn -0.4157715 -0.182251 0.8911133
vn 0.2009277 -0.2233887 -0.9536133
vn 0.3493652 0.04159546 -0.9360352
vn 0.1374512 -0.3220215 -0.9365234
vn 0.4157715 0.182251 -0.8911133
vn -0.840332 0.4272461 0.333252
vn -0.8540039 0.364502 0.3713379
vn -0.8671875 0.2202148 0.4467773
vn -0.8657227 0.15979 0.4743652
vn 0.840332 -0.4272461 -0.333252
vn 0.8671875 -0.2202148 -0.4467773
vn 0.8540039 -0.364502 -0.3713379
vn 0.8657227 -0.15979 -0.4743652
vn 0.07086182 0.3144531 -0.9467773
vn 0.03068542 0.2546387 -0.9663086
vn -0.05743408 0.1193848 -0.9912109
vn -0.09295654 0.06329346 -0.9936523
vn -0.07086182 -0.3144531 0.9467773
vn 0.05743408 -0.1193848 0.9912109
vn -0.03068542 -0.2546387 0.9663086
vn 0.09295654 -0.06329346 0.9936523
vn -0.401123 0.0135498 0.9160156
vn -0.934082 0.01071167 0.3564453
vn -0.401123 0.0135498 0.9160156
vn -0.9091797 0.001434326 -0.4160156
vn -0.934082 0.01071167 0.3564453
vn -0.9091797 0.001434326 -0.4160156
vn 0.401123 -0.0135498 -0.9160156
vn 0.401123 -0.0135498 -0.9160156
vn 0.934082 -0.01071167 -0.3564453
vn 0.9091797 -0.001434326 0.4160156
vn 0.9091797 -0.001434326 0.4160156
vn 0.934082 -0.01071167 -0.3564453

vt 0.8422852 0.7006836
vt 0.9926758 0.2159424
vt 0.9921875 0.08068848
vt 0.9970703 0.3566895
vt 0.9926758 0.2159424
vt 0.9921875 0.08068848
vt 0.8422852 0.7006836
vt 0.9970703 0.3566895
vt 0.9926758 0.2159424
vt 0.9921875 0.08068848
vt 0.8422852 0.7006836
vt 0.9970703 0.3566895
vt 0.9926758 0.2159424
vt 0.9921875 0.08068848
vt 0.8422852 0.7006836
vt 0.9970703 0.3566895
vt 0.9926758 0.2159424
vt 0.9921875 0.08068848
vt 0.8422852 0.7006836
vt 0.9970703 0.3566895
vt 0.9926758 0.2159424
vt 0.9921875 0.08068848
vt 0.8422852 0.7006836
vt 0.9970703 0.3566895
vt 0.9926758 0.2159424
vt 0.9921875 0.08068848
vt 0.8422852 0.7006836
vt 0.9970703 0.3566895
vt 0.9926758 0.2159424
vt 0.8422852 0.7006836
vt 0.9921875 0.08068848
vt 0.9970703 0.3566895
vt 0.9926758 0.2159424
vt 0.8422852 0.7006836
vt 0.9921875 0.08068848
vt 0.9970703 0.3566895
vt 0.9926758 0.2159424
vt 0.8422852 0.7006836
vt 0.9921875 0.08068848
vt 0.9970703 0.3566895
vt 0.9926758 0.2159424
vt 0.8422852 0.7006836
vt 0.9921875 0.08068848
vt 0.9970703 0.3566895
vt 0.9926758 0.2159424
vt 0.8422852 0.7006836
vt 0.9921875 0.08068848
vt 0.9970703 0.3566895
vt 0.9926758 0.2159424
vt 0.8422852 0.7006836
vt 0.9921875 0.08068848
vt 0.9970703 0.3566895
vt 0.9926758 0.2159424
vt 0.8422852 0.7006836
vt 0.9921875 0.08068848
vt 0.9970703 0.3566895
vt 0.9970703 0.3566895
vt 0.8422852 0.7006836
vt 0.9926758 0.2159424
vt 0.9921875 0.08068848
vt 0.9970703 0.3566895
vt 0.9926758 0.2159424
vt 0.8422852 0.7006836
vt 0.9921875 0.08068848
vt 0.9926758 0.2159424
vt 0.9921875 0.08068848
vt 0.8422852 0.7006836
vt 0.9970703 0.3566895
vt 0.9926758 0.2159424
vt 0.9921875 0.08068848
vt 0.8422852 0.7006836
vt 0.9970703 0.3566895
vt 0.9926758 0.2159424
vt 0.9921875 0.08068848
vt 0.8422852 0.7006836
vt 0.9970703 0.3566895
vt 0.9926758 0.2159424
vt 0.8422852 0.7006836
vt 0.9921875 0.08068848
vt 0.9970703 0.3566895
vt 0.9926758 0.2159424
vt 0.8422852 0.7006836
vt 0.9921875 0.08068848
vt 0.9970703 0.3566895
vt 0.9926758 0.2159424
vt 0.8422852 0.7006836
vt 0.9921875 0.08068848
vt 0.9970703 0.3566895
vt 0.9970703 0.3566895
vt 0.8422852 0.7006836
vt 0.9926758 0.2159424
vt 0.9921875 0.08068848
vt 0.9970703 0.3566895
vt 0.9926758 0.2159424
vt 0.8422852 0.7006836
vt 0.9921875 0.08068848
vt 0.9926758 0.2159424
vt 0.9921875 0.08068848
vt 0.8422852 0.7006836
vt 0.9970703 0.3566895
vt 0.9926758 0.2159424
vt 0.8422852 0.7006836
vt 0.9921875 0.08068848
vt 0.9970703 0.3566895
vt 0.9926758 0.2159424
vt 0.9921875 0.08068848
vt 0.8422852 0.7006836
vt 0.9970703 0.3566895
vt 0.9926758 0.2159424
vt 0.9921875 0.08068848
vt 0.8422852 0.7006836
vt 0.9970703 0.3566895
vt 0.9926758 0.2159424
vt 0.8422852 0.7006836
vt 0.9921875 0.08068848
vt 0.9970703 0.3566895
vt 0.9926758 0.2159424
vt 0.8422852 0.7006836
vt 0.9921875 0.08068848
vt 0.9970703 0.3566895
vt 0.9926758 0.2159424
vt 0.9921875 0.08068848
vt 0.8422852 0.7006836
vt 0.9970703 0.3566895
vt 0.9926758 0.2159424
vt 0.8422852 0.7006836
vt 0.9921875 0.08068848
vt 0.9970703 0.3566895
vt 0.9926758 0.2159424
vt 0.9921875 0.08068848
vt 0.8422852 0.7006836
vt 0.9970703 0.3566895
vt 0.9926758 0.2159424
vt 0.8422852 0.7006836
vt 0.9921875 0.08068848
vt 0.9970703 0.3566895
vt 0.9926758 0.2159424
vt 0.9921875 0.08068848
vt 0.8422852 0.7006836
vt 0.9970703 0.3566895
vt 0.9926758 0.2159424
vt 0.8422852 0.7006836
vt 0.9921875 0.08068848
vt 0.9970703 0.3566895
vt 0.9926758 0.2159424
vt 0.9921875 0.08068848
vt 0.8422852 0.7006836
vt 0.9970703 0.3566895
vt 0.9926758 0.2159424
vt 0.9921875 0.08068848
vt 0.8422852 0.7006836
vt 0.9970703 0.3566895
vt 0.9926758 0.2159424
vt 0.8422852 0.7006836
vt 0.9921875 0.08068848
vt 0.9970703 0.3566895
vt 0.9926758 0.2159424
vt 0.8422852 0.7006836
vt 0.9921875 0.08068848
vt 0.9970703 0.3566895
vt 0.9926758 0.2159424
vt 0.9921875 0.08068848
vt 0.8422852 0.7006836
vt 0.9970703 0.3566895
vt 0.9926758 0.2159424
vt 0.8422852 0.7006836
vt 0.9921875 0.08068848
vt 0.9970703 0.3566895
vt 0.9926758 0.2159424
vt 0.9921875 0.08068848
vt 0.8422852 0.7006836
vt 0.9970703 0.3566895
vt 0.9926758 0.2159424
vt 0.9921875 0.08068848
vt 0.8422852 0.7006836
vt 0.9970703 0.3566895
vt 0.9926758 0.2159424
vt 0.8422852 0.7006836
vt 0.9921875 0.08068848
vt 0.9970703 0.3566895
vt 0.9926758 0.2159424
vt 0.8422852 0.7006836
vt 0.9921875 0.08068848
vt 0.9970703 0.3566895
vt 0.9926758 0.2159424
vt 0.9921875 0.08068848
vt 0.8422852 0.7006836
vt 0.9970703 0.3566895
vt 0.9926758 0.2159424
vt 0.8422852 0.7006836
vt 0.9921875 0.08068848
vt 0.9970703 0.3566895
vt 0.9970703 0.3566895
vt 0.8422852 0.7006836
vt 0.9926758 0.2159424
vt 0.9921875 0.08068848
vt 0.9970703 0.3566895
vt 0.9926758 0.2159424
vt 0.8422852 0.7006836
vt 0.9921875 0.08068848
vt 0.9970703 0.3566895
vt 0.8422852 0.7006836
vt 0.9926758 0.2159424
vt 0.9921875 0.08068848
vt 0.9970703 0.3566895
vt 0.9926758 0.2159424
vt 0.8422852 0.7006836
vt 0.9921875 0.08068848
vt 0.9433594 0.3640137
vt 0.9321289 0.4221191
vt 0.9516602 0.3674316
vt 0.9433594 0.3640137
vt 0.9321289 0.4221191
vt 0.9516602 0.3674316
vt 0.9433594 0.3640137
vt 0.9516602 0.3674316
vt 0.9321289 0.4221191
vt 0.9433594 0.3640137
vt 0.9516602 0.3674316
vt 0.9321289 0.4221191

g MEP_Con_01_h_LOD_01(Clone)_11719_317
usemtl MEP_Con_01_h_LOD_01(Clone)_11719_317
usemap MEP_Con_01_h_LOD_01(Clone)_11719_317
f 1/1/1 3/3/3 2/2/2
f 4/4/4 1/1/1 2/2/2
f 5/5/5 7/7/7 6/6/6
f 8/8/8 7/7/7 5/5/5
f 9/9/9 11/11/11 10/10/10
f 12/12/12 11/11/11 9/9/9
f 13/13/13 15/15/15 14/14/14
f 16/16/16 15/15/15 13/13/13
f 17/17/17 19/19/19 18/18/18
f 20/20/20 19/19/19 17/17/17
f 21/21/21 23/23/23 22/22/22
f 24/24/24 23/23/23 21/21/21
f 25/25/25 27/27/27 26/26/26
f 28/28/28 27/27/27 25/25/25
f 29/29/29 31/31/31 30/30/30
f 32/32/32 29/29/29 30/30/30
f 33/33/33 35/35/35 34/34/34
f 36/36/36 33/33/33 34/34/34
f 37/37/37 39/39/39 38/38/38
f 40/40/40 37/37/37 38/38/38
f 41/41/41 43/43/43 42/42/42
f 44/44/44 41/41/41 42/42/42
f 45/45/45 47/47/47 46/46/46
f 48/48/48 45/45/45 46/46/46
f 49/49/49 51/51/51 50/50/50
f 52/52/52 49/49/49 50/50/50
f 53/53/53 55/55/55 54/54/54
f 56/56/56 53/53/53 54/54/54
f 57/57/57 59/59/59 58/58/58
f 59/59/59 60/60/60 58/58/58
f 61/61/61 63/63/63 62/62/62
f 62/62/62 63/63/63 64/64/64
f 65/65/65 67/67/67 66/66/66
f 68/68/68 67/67/67 65/65/65
f 69/69/69 71/71/71 70/70/70
f 72/72/72 71/71/71 69/69/69
f 73/73/73 75/75/75 74/74/74
f 76/76/76 75/75/75 73/73/73
f 77/77/77 79/79/79 78/78/78
f 80/80/80 77/77/77 78/78/78
f 81/81/81 83/83/83 82/82/82
f 84/84/84 81/81/81 82/82/82
f 85/85/85 87/87/87 86/86/86
f 88/88/88 85/85/85 86/86/86
f 89/89/89 91/91/91 90/90/90
f 91/91/91 92/92/92 90/90/90
f 93/93/93 95/95/95 94/94/94
f 94/94/94 95/95/95 96/96/96
f 97/97/97 99/99/99 98/98/98
f 100/100/100 99/99/99 97/97/97
f 101/101/101 103/103/103 102/102/102
f 104/104/104 101/101/101 102/102/102
f 105/105/105 107/107/107 106/106/106
f 108/108/108 107/107/107 105/105/105
f 109/109/109 111/111/111 110/110/110
f 112/112/112 111/111/111 109/109/109
f 113/113/113 115/115/115 114/114/114
f 116/116/116 113/113/113 114/114/114
f 117/117/117 119/119/119 118/118/118
f 120/120/120 117/117/117 118/118/118
f 121/121/121 123/123/123 122/122/122
f 124/124/124 123/123/123 121/121/121
f 125/125/125 127/127/127 126/126/126
f 128/128/128 125/125/125 126/126/126
f 129/129/129 131/131/131 130/130/130
f 132/132/132 131/131/131 129/129/129
f 133/133/133 135/135/135 134/134/134
f 136/136/136 133/133/133 134/134/134
f 137/137/137 139/139/139 138/138/138
f 140/140/140 139/139/139 137/137/137
f 141/141/141 143/143/143 142/142/142
f 144/144/144 141/141/141 142/142/142
f 145/145/145 147/147/147 146/146/146
f 148/148/148 147/147/147 145/145/145
f 149/149/149 151/151/151 150/150/150
f 152/152/152 151/151/151 149/149/149
f 153/153/153 155/155/155 154/154/154
f 156/156/156 153/153/153 154/154/154
f 157/157/157 159/159/159 158/158/158
f 160/160/160 157/157/157 158/158/158
f 161/161/161 163/163/163 162/162/162
f 164/164/164 163/163/163 161/161/161
f 165/165/165 167/167/167 166/166/166
f 168/168/168 165/165/165 166/166/166
f 169/169/169 171/171/171 170/170/170
f 172/172/172 171/171/171 169/169/169
f 173/173/173 175/175/175 174/174/174
f 176/176/176 175/175/175 173/173/173
f 177/177/177 179/179/179 178/178/178
f 180/180/180 177/177/177 178/178/178
f 181/181/181 183/183/183 182/182/182
f 184/184/184 181/181/181 182/182/182
f 185/185/185 187/187/187 186/186/186
f 188/188/188 187/187/187 185/185/185
f 189/189/189 191/191/191 190/190/190
f 192/192/192 189/189/189 190/190/190
f 193/193/193 195/195/195 194/194/194
f 195/195/195 196/196/196 194/194/194
f 197/197/197 199/199/199 198/198/198
f 198/198/198 199/199/199 200/200/200
f 201/201/201 203/203/203 202/202/202
f 203/203/203 204/204/204 202/202/202
f 205/205/205 207/207/207 206/206/206
f 206/206/206 207/207/207 208/208/208
f 209/209/209 211/211/211 210/210/210
f 212/212/212 214/214/214 213/213/213
f 215/215/215 217/217/217 216/216/216
f 218/218/218 220/220/220 219/219/219
