#MEP_Con_01_d_LOD_02(Clone)_15127_385.obj

v -0.08019502 -0.505634 -0.4107102
v 0.2674926 25.89249 0.1725674
v -0.04635343 -0.510988 0.4552913
v 0.4119349 -0.505634 -0.07355881
v 0.2674926 25.89249 0.1725674
v -0.4544815 -0.510988 -0.05370368
v -0.08019502 -0.505634 -0.4107102
v -0.04635343 -0.510988 0.4552913
v 0.2674926 25.89249 0.1725674
v 0.4119349 -0.505634 -0.07355881
v -0.4544815 -0.510988 -0.05370368
v 0.2674926 25.89249 0.1725674
v -1.312158 22.14209 -3.090907
v 0.2952621 22.1108 3.861373
v 1.260283 31.69208 2.402947
v -1.4307 31.06985 -1.938213
v 3.068608 22.20161 0.2798104
v -4.062618 22.24152 0.2209056
v -1.393438 31.55883 0.9901043
v 2.110444 31.41819 -0.9953305
v -2.5054 18.03639 6.018254
v 2.951771 18.47284 -6.524172
v 1.613832 25.98559 -3.503539
v 0.7535463 25.84997 3.10406
v -4.738567 17.61271 -2.888827
v 5.471874 18.45897 3.430025
v 3.154683 26.49347 2.083191
v -3.67745 25.86773 -1.333994
v -1.312158 22.14209 -3.090907
v 1.260283 31.69208 2.402947
v 0.2952621 22.1108 3.861373
v -1.4307 31.06985 -1.938213
v 3.068608 22.20161 0.2798104
v -1.393438 31.55883 0.9901043
v -4.062618 22.24152 0.2209056
v 2.110444 31.41819 -0.9953305
v -2.5054 18.03639 6.018254
v 1.613832 25.98559 -3.503539
v 2.951771 18.47284 -6.524172
v 0.7535463 25.84997 3.10406
v -4.738567 17.61271 -2.888827
v 3.154683 26.49347 2.083191
v 5.471874 18.45897 3.430025
v -3.67745 25.86773 -1.333994

vn -0.8964844 0.01226807 -0.4423828
vn -0.3137207 0.01528931 -0.9492188
vn -0.8964844 0.01226807 -0.4423828
vn 0.4567871 0.009185791 -0.8896484
vn -0.3137207 0.01528931 -0.9492188
vn 0.4567871 0.009185791 -0.8896484
vn 0.8964844 -0.01226807 0.4423828
vn 0.8964844 -0.01226807 0.4423828
vn 0.3137207 -0.01528931 0.9492188
vn -0.4567871 -0.009185791 0.8896484
vn -0.4567871 -0.009185791 0.8896484
vn 0.3137207 -0.01528931 0.9492188
vn 0.984375 -0.06695557 0.1643066
vn 0.9555664 -0.1313477 0.2641602
vn 0.9970703 -0.01147461 0.07757568
vn 0.9946289 0.08007813 -0.06695557
vn -0.3625488 -0.0151062 0.9316406
vn -0.4831543 -0.07977295 0.8720703
vn -0.1827393 0.07446289 0.9804688
vn 0.02374268 0.1693115 0.9853516
vn -0.6987305 0.1546631 -0.6987305
vn -0.6152344 -0.002838135 -0.7880859
vn -0.6816406 0.1181641 -0.722168
vn -0.7641602 0.3459473 -0.5449219
vn 0.8427734 0.0574646 -0.5356445
vn 0.8676758 0.009002686 -0.496582
vn 0.8476563 0.04794312 -0.527832
vn 0.8095703 0.1120605 -0.5766602
vn -0.984375 0.06695557 -0.1643066
vn -0.9970703 0.01147461 -0.07757568
vn -0.9555664 0.1313477 -0.2641602
vn -0.9946289 -0.08007813 0.06695557
vn 0.3625488 0.0151062 -0.9316406
vn 0.1827393 -0.07446289 -0.9804688
vn 0.4831543 0.07977295 -0.8720703
vn -0.02374268 -0.1693115 -0.9853516
vn 0.6987305 -0.1546631 0.6987305
vn 0.6816406 -0.1181641 0.722168
vn 0.6152344 0.002838135 0.7880859
vn 0.7641602 -0.3459473 0.5449219
vn -0.8427734 -0.0574646 0.5356445
vn -0.8476563 -0.04794312 0.527832
vn -0.8676758 -0.009002686 0.496582
vn -0.8095703 -0.1120605 0.5766602

vt 0.9433594 0.3640137
vt 0.9321289 0.4221191
vt 0.9516602 0.3674316
vt 0.9433594 0.3640137
vt 0.9321289 0.4221191
vt 0.9516602 0.3674316
vt 0.9433594 0.3640137
vt 0.9516602 0.3674316
vt 0.9321289 0.4221191
vt 0.9433594 0.3640137
vt 0.9516602 0.3674316
vt 0.9321289 0.4221191
vt 0.001989365 0.007873535
vt 0.9863281 0.002599716
vt 0.7783203 0.996582
vt 0.1824951 0.9921875
vt 0.001989365 0.007873535
vt 0.9863281 0.002599716
vt 0.7783203 0.996582
vt 0.1824951 0.9921875
vt 0.001989365 0.007873535
vt 0.9863281 0.002599716
vt 0.7783203 0.996582
vt 0.1824951 0.9921875
vt 0.001989365 0.007873535
vt 0.9863281 0.002599716
vt 0.7783203 0.996582
vt 0.1824951 0.9921875
vt 0.001989365 0.007873535
vt 0.7783203 0.996582
vt 0.9863281 0.002599716
vt 0.1824951 0.9921875
vt 0.001989365 0.007873535
vt 0.7783203 0.996582
vt 0.9863281 0.002599716
vt 0.1824951 0.9921875
vt 0.001989365 0.007873535
vt 0.7783203 0.996582
vt 0.9863281 0.002599716
vt 0.1824951 0.9921875
vt 0.001989365 0.007873535
vt 0.7783203 0.996582
vt 0.9863281 0.002599716
vt 0.1824951 0.9921875

g MEP_Con_01_d_LOD_02(Clone)_15127_385
usemtl MEP_Con_01_d_LOD_02(Clone)_15127_385
usemap MEP_Con_01_d_LOD_02(Clone)_15127_385
f 1/1/1 3/3/3 2/2/2
f 4/4/4 6/6/6 5/5/5
f 7/7/7 9/9/9 8/8/8
f 10/10/10 12/12/12 11/11/11
f 13/13/13 15/15/15 14/14/14
f 16/16/16 15/15/15 13/13/13
f 17/17/17 19/19/19 18/18/18
f 20/20/20 19/19/19 17/17/17
f 21/21/21 23/23/23 22/22/22
f 24/24/24 23/23/23 21/21/21
f 25/25/25 27/27/27 26/26/26
f 28/28/28 27/27/27 25/25/25
f 29/29/29 31/31/31 30/30/30
f 32/32/32 29/29/29 30/30/30
f 33/33/33 35/35/35 34/34/34
f 36/36/36 33/33/33 34/34/34
f 37/37/37 39/39/39 38/38/38
f 40/40/40 37/37/37 38/38/38
f 41/41/41 43/43/43 42/42/42
f 44/44/44 41/41/41 42/42/42
