#MEP_Con_01_d_LOD_02(Clone)_14881_206.obj

v -0.08018181 -0.5056338 -0.4107097
v 0.2674898 25.8925 0.1725747
v -0.04636266 -0.5109878 0.4552767
v 0.4119372 -0.5056338 -0.0735721
v 0.2674898 25.8925 0.1725747
v -0.4544676 -0.5109878 -0.05369639
v -0.08018181 -0.5056338 -0.4107097
v -0.04636266 -0.5109878 0.4552767
v 0.2674898 25.8925 0.1725747
v 0.4119372 -0.5056338 -0.0735721
v -0.4544676 -0.5109878 -0.05369639
v 0.2674898 25.8925 0.1725747
v -1.312154 22.14209 -3.090889
v 0.2952619 22.1108 3.861381
v 1.260278 31.69208 2.402924
v -1.43071 31.06985 -1.93822
v 3.068604 22.20161 0.2798167
v -4.062617 22.24152 0.2209191
v -1.393432 31.55883 0.9901161
v 2.110446 31.41819 -0.9953384
v -2.505397 18.03639 6.01825
v 2.951782 18.47285 -6.524176
v 1.613832 25.98559 -3.503554
v 0.7535484 25.84997 3.104075
v -4.738568 17.61271 -2.888831
v 5.471874 18.45897 3.430037
v 3.154691 26.49347 2.083185
v -3.67745 25.86773 -1.334008
v -1.312154 22.14209 -3.090889
v 1.260278 31.69208 2.402924
v 0.2952619 22.1108 3.861381
v -1.43071 31.06985 -1.93822
v 3.068604 22.20161 0.2798167
v -1.393432 31.55883 0.9901161
v -4.062617 22.24152 0.2209191
v 2.110446 31.41819 -0.9953384
v -2.505397 18.03639 6.01825
v 1.613832 25.98559 -3.503554
v 2.951782 18.47285 -6.524176
v 0.7535484 25.84997 3.104075
v -4.738568 17.61271 -2.888831
v 3.154691 26.49347 2.083185
v 5.471874 18.45897 3.430037
v -3.67745 25.86773 -1.334008

vn -0.3596191 0.01226807 -0.9331055
vn 0.4125977 0.01528931 -0.9106445
vn -0.3596191 0.01226807 -0.9331055
vn 0.9389648 0.009185791 -0.3444824
vn 0.4125977 0.01528931 -0.9106445
vn 0.9389648 0.009185791 -0.3444824
vn 0.3596191 -0.01226807 0.9331055
vn 0.3596191 -0.01226807 0.9331055
vn -0.4125977 -0.01528931 0.9106445
vn -0.9389648 -0.009185791 0.3444824
vn -0.9389648 -0.009185791 0.3444824
vn -0.4125977 -0.01528931 0.9106445
vn 0.6123047 -0.06695557 0.7875977
vn 0.5239258 -0.1313477 0.8417969
vn 0.6806641 -0.01147461 0.7324219
vn 0.7768555 0.08007813 0.6245117
vn -0.8979492 -0.0151062 0.4396973
vn -0.9462891 -0.07977295 0.3137207
vn -0.7988281 0.07446289 0.597168
vn -0.6503906 0.1693115 0.7407227
vn -0.04019165 0.1546631 -0.9873047
vn 0.081604 -0.002838135 -0.996582
vn -0.01169586 0.1181641 -0.9931641
vn -0.192627 0.3459473 -0.918457
vn 0.9824219 0.0574646 0.1772461
vn 0.9746094 0.009002686 0.2229004
vn 0.9814453 0.04794312 0.1862793
vn 0.9858398 0.1120605 0.1246338
vn -0.6123047 0.06695557 -0.7875977
vn -0.6806641 0.01147461 -0.7324219
vn -0.5239258 0.1313477 -0.8417969
vn -0.7768555 -0.08007813 -0.6245117
vn 0.8979492 0.0151062 -0.4396973
vn 0.7988281 -0.07446289 -0.597168
vn 0.9462891 0.07977295 -0.3137207
vn 0.6503906 -0.1693115 -0.7407227
vn 0.04019165 -0.1546631 0.9873047
vn 0.01169586 -0.1181641 0.9931641
vn -0.081604 0.002838135 0.996582
vn 0.192627 -0.3459473 0.918457
vn -0.9824219 -0.0574646 -0.1772461
vn -0.9814453 -0.04794312 -0.1862793
vn -0.9746094 -0.009002686 -0.2229004
vn -0.9858398 -0.1120605 -0.1246338

vt 0.9433594 0.3640137
vt 0.9321289 0.4221191
vt 0.9516602 0.3674316
vt 0.9433594 0.3640137
vt 0.9321289 0.4221191
vt 0.9516602 0.3674316
vt 0.9433594 0.3640137
vt 0.9516602 0.3674316
vt 0.9321289 0.4221191
vt 0.9433594 0.3640137
vt 0.9516602 0.3674316
vt 0.9321289 0.4221191
vt 0.001989365 0.007873535
vt 0.9863281 0.002599716
vt 0.7783203 0.996582
vt 0.1824951 0.9921875
vt 0.001989365 0.007873535
vt 0.9863281 0.002599716
vt 0.7783203 0.996582
vt 0.1824951 0.9921875
vt 0.001989365 0.007873535
vt 0.9863281 0.002599716
vt 0.7783203 0.996582
vt 0.1824951 0.9921875
vt 0.001989365 0.007873535
vt 0.9863281 0.002599716
vt 0.7783203 0.996582
vt 0.1824951 0.9921875
vt 0.001989365 0.007873535
vt 0.7783203 0.996582
vt 0.9863281 0.002599716
vt 0.1824951 0.9921875
vt 0.001989365 0.007873535
vt 0.7783203 0.996582
vt 0.9863281 0.002599716
vt 0.1824951 0.9921875
vt 0.001989365 0.007873535
vt 0.7783203 0.996582
vt 0.9863281 0.002599716
vt 0.1824951 0.9921875
vt 0.001989365 0.007873535
vt 0.7783203 0.996582
vt 0.9863281 0.002599716
vt 0.1824951 0.9921875

g MEP_Con_01_d_LOD_02(Clone)_14881_206
usemtl MEP_Con_01_d_LOD_02(Clone)_14881_206
usemap MEP_Con_01_d_LOD_02(Clone)_14881_206
f 1/1/1 3/3/3 2/2/2
f 4/4/4 6/6/6 5/5/5
f 7/7/7 9/9/9 8/8/8
f 10/10/10 12/12/12 11/11/11
f 13/13/13 15/15/15 14/14/14
f 16/16/16 15/15/15 13/13/13
f 17/17/17 19/19/19 18/18/18
f 20/20/20 19/19/19 17/17/17
f 21/21/21 23/23/23 22/22/22
f 24/24/24 23/23/23 21/21/21
f 25/25/25 27/27/27 26/26/26
f 28/28/28 27/27/27 25/25/25
f 29/29/29 31/31/31 30/30/30
f 32/32/32 29/29/29 30/30/30
f 33/33/33 35/35/35 34/34/34
f 36/36/36 33/33/33 34/34/34
f 37/37/37 39/39/39 38/38/38
f 40/40/40 37/37/37 38/38/38
f 41/41/41 43/43/43 42/42/42
f 44/44/44 41/41/41 42/42/42
