#MEP_Con_01_f_LOD_02(Clone)_12635_376.obj

v 1.207715 11.8727 -1.938249
v -1.25845 20.74399 1.482488
v 0.370461 11.94678 2.30989
v 1.792852 20.68254 -1.119146
v -2.081287 11.88785 -0.7485182
v 1.608259 20.67806 0.7281248
v 2.488717 11.75238 0.9168373
v -1.396126 20.76712 -0.3666985
v -2.139296 6.102907 5.123914
v 2.13823 5.805046 -4.677753
v 1.27915 14.63286 -2.889722
v 0.4644381 14.15287 2.291853
v -4.344402 6.037307 -2.191811
v 4.661166 6.037306 3.588147
v 2.38913 14.78854 1.609292
v -2.410107 14.83608 -1.032909
v 1.207715 11.8727 -1.938249
v 0.370461 11.94678 2.30989
v -1.25845 20.74399 1.482488
v 1.792852 20.68254 -1.119146
v -2.081287 11.88785 -0.7485182
v 2.488717 11.75238 0.9168373
v 1.608259 20.67806 0.7281248
v -1.396126 20.76712 -0.3666985
v -2.139296 6.102907 5.123914
v 1.27915 14.63286 -2.889722
v 2.13823 5.805046 -4.677753
v 0.4644381 14.15287 2.291853
v -4.344402 6.037307 -2.191811
v 2.38913 14.78854 1.609292
v 4.661166 6.037306 3.588147
v -2.410107 14.83608 -1.032909
v -0.05432549 -0.1375478 -0.440767
v 0.2283252 19.82228 0.1680681
v -0.02295045 -0.1425118 0.3622164
v 0.4020058 -0.1375478 -0.1281515
v 0.2283252 19.82228 0.1680681
v -0.4013892 -0.1425118 -0.1097205
v -0.05432549 -0.1375478 -0.440767
v -0.02295045 -0.1425118 0.3622164
v 0.2283252 19.82228 0.1680681
v 0.4020058 -0.1375478 -0.1281515
v -0.4013892 -0.1425118 -0.1097205
v 0.2283252 19.82228 0.1680681

vn -0.9594727 -0.1195679 0.2558594
vn -0.9985352 0.02542114 -0.04898071
vn -0.8881836 -0.1958008 0.4160156
vn -0.9658203 0.1130981 -0.2336426
vn 0.2756348 -0.01394653 0.9609375
vn 0.2756348 -0.01394653 0.9609375
vn 0.2756348 -0.01394653 0.9609375
vn 0.2756348 -0.01394653 0.9609375
vn -0.949707 0.08380127 0.3024902
vn -0.9765625 -0.008209229 0.2161865
vn -0.9404297 0.1067505 0.3234863
vn -0.847168 0.2648926 0.4609375
vn -0.08251953 -0.02877808 -0.9960938
vn -0.05847168 -0.04998779 -0.9970703
vn -0.08862305 -0.02337646 -0.9956055
vn -0.1254883 0.009307861 -0.9921875
vn 0.9594727 0.1195679 -0.2558594
vn 0.8881836 0.1958008 -0.4160156
vn 0.9985352 -0.02542114 0.04898071
vn 0.9658203 -0.1130981 0.2336426
vn -0.2756348 0.01394653 -0.9609375
vn -0.2756348 0.01394653 -0.9609375
vn -0.2756348 0.01394653 -0.9609375
vn -0.2756348 0.01394653 -0.9609375
vn 0.949707 -0.08380127 -0.3024902
vn 0.9404297 -0.1067505 -0.3234863
vn 0.9765625 0.008209229 -0.2161865
vn 0.847168 -0.2648926 -0.4609375
vn 0.08251953 0.02877808 0.9960938
vn 0.08862305 0.02337646 0.9956055
vn 0.05847168 0.04998779 0.9970703
vn 0.1254883 -0.009307861 0.9921875
vn -0.784668 0.01293945 0.6196289
vn -0.9921875 0.01965332 -0.1246948
vn -0.784668 0.01293945 0.6196289
vn -0.6069336 0.01461792 -0.7949219
vn -0.9921875 0.01965332 -0.1246948
vn -0.6069336 0.01461792 -0.7949219
vn 0.784668 -0.01293945 -0.6196289
vn 0.784668 -0.01293945 -0.6196289
vn 0.9921875 -0.01965332 0.1246948
vn 0.6069336 -0.01461792 0.7949219
vn 0.6069336 -0.01461792 0.7949219
vn 0.9921875 -0.01965332 0.1246948

vt 0.001989365 0.007873535
vt 0.7783203 0.996582
vt 0.9863281 0.002599716
vt 0.1824951 0.9921875
vt 0.001989365 0.007873535
vt 0.7783203 0.996582
vt 0.9863281 0.002599716
vt 0.1824951 0.9921875
vt 0.001989365 0.007873535
vt 0.9863281 0.002599716
vt 0.7783203 0.996582
vt 0.1824951 0.9921875
vt 0.001989365 0.007873535
vt 0.9863281 0.002599716
vt 0.7783203 0.996582
vt 0.1824951 0.9921875
vt 0.001989365 0.007873535
vt 0.9863281 0.002599716
vt 0.7783203 0.996582
vt 0.1824951 0.9921875
vt 0.001989365 0.007873535
vt 0.9863281 0.002599716
vt 0.7783203 0.996582
vt 0.1824951 0.9921875
vt 0.001989365 0.007873535
vt 0.7783203 0.996582
vt 0.9863281 0.002599716
vt 0.1824951 0.9921875
vt 0.001989365 0.007873535
vt 0.7783203 0.996582
vt 0.9863281 0.002599716
vt 0.1824951 0.9921875
vt 0.9433594 0.3640137
vt 0.9321289 0.4221191
vt 0.9516602 0.3674316
vt 0.9433594 0.3640137
vt 0.9321289 0.4221191
vt 0.9516602 0.3674316
vt 0.9433594 0.3640137
vt 0.9516602 0.3674316
vt 0.9321289 0.4221191
vt 0.9433594 0.3640137
vt 0.9516602 0.3674316
vt 0.9321289 0.4221191

g MEP_Con_01_f_LOD_02(Clone)_12635_376
usemtl MEP_Con_01_f_LOD_02(Clone)_12635_376
usemap MEP_Con_01_f_LOD_02(Clone)_12635_376
f 1/1/1 3/3/3 2/2/2
f 4/4/4 1/1/1 2/2/2
f 5/5/5 7/7/7 6/6/6
f 8/8/8 5/5/5 6/6/6
f 9/9/9 11/11/11 10/10/10
f 12/12/12 11/11/11 9/9/9
f 13/13/13 15/15/15 14/14/14
f 16/16/16 15/15/15 13/13/13
f 17/17/17 19/19/19 18/18/18
f 20/20/20 19/19/19 17/17/17
f 21/21/21 23/23/23 22/22/22
f 24/24/24 23/23/23 21/21/21
f 25/25/25 27/27/27 26/26/26
f 28/28/28 25/25/25 26/26/26
f 29/29/29 31/31/31 30/30/30
f 32/32/32 29/29/29 30/30/30
f 33/33/33 35/35/35 34/34/34
f 36/36/36 38/38/38 37/37/37
f 39/39/39 41/41/41 40/40/40
f 42/42/42 44/44/44 43/43/43
