#MEP_ConTrunk_01_h_12766_40.obj

v 0.0009490378 -0.2774611 0.6593393
v -0.5683918 -0.2774611 0.3306383
v 0.0001629281 0.5697012 0.3851195
v -0.3312975 0.5601592 0.1929718
v -0.171159 8.014688 0.2789802
v 0.1277149 8.016972 0.2921504
v -0.2835774 7.961687 -0.02117
v 0.2877197 24.00301 -0.04294525
v 0.2877197 24.00301 -0.04294525
v -0.5683932 -0.2774611 -0.326806
v 0.001725558 0.55193 -0.381363
v -0.3305437 0.5512719 -0.1902673
v 0.0009532148 -0.2774611 -0.655516
v 0.0305727 7.948495 -0.2672879
v -0.2835774 7.961687 -0.02117
v 0.2877197 24.00301 -0.04294525
v -0.5683918 -0.2774611 0.3306383
v -0.3305437 0.5512719 -0.1902673
v -0.3312975 0.5601592 0.1929718
v -0.5683932 -0.2774611 -0.326806
v -0.2835774 7.961687 -0.02117
v 0.5703009 -0.2774611 -0.3267816
v 0.3332427 0.561471 -0.1891433
v 0.0009532148 -0.2774611 -0.655516
v 0.001725558 0.55193 -0.381363
v 0.0305727 7.948495 -0.2672879
v 0.3123316 8.008615 -0.0006447296
v 0.2877197 24.00301 -0.04294525
v 0.5703009 -0.2774611 -0.3267816
v 0.5702954 -0.2774611 0.3306293
v 0.3332427 0.561471 -0.1891433
v 0.3324339 0.5703559 0.1941
v 0.0009490378 -0.2774611 0.6593393
v 0.0001629281 0.5697012 0.3851195
v 0.1277149 8.016972 0.2921504
v 0.3123316 8.008615 -0.0006447296
v 0.2877197 24.00301 -0.04294525

vn 0.7475586 0.3076172 0.5883789
vn -0.137207 0.3110352 0.9404297
vn 0.7734375 0.1650391 0.6123047
vn -0.1474609 0.1680908 0.9746094
vn 0.2685547 0.0256958 0.9628906
vn 0.9824219 0.01535034 0.1868896
vn -0.8071289 0.02792358 0.5893555
vn 0.003894806 1 -0.01309204
vn 0.003894806 1 -0.01309204
vn -0.8813477 0.3144531 0.3525391
vn -0.7739258 0.1760254 -0.6079102
vn -0.9160156 0.1739502 0.3618164
vn -0.7470703 0.3129883 -0.5869141
vn -0.7583008 0.02108765 -0.6513672
vn -0.8071289 0.02792358 0.5893555
vn 0.003894806 1 -0.01309204
vn -0.137207 0.3110352 0.9404297
vn -0.9160156 0.1739502 0.3618164
vn -0.1474609 0.1680908 0.9746094
vn -0.8813477 0.3144531 0.3525391
vn -0.8071289 0.02792358 0.5893555
vn 0.135498 0.3105469 -0.940918
vn 0.1387939 0.1697998 -0.9755859
vn -0.7470703 0.3129883 -0.5869141
vn -0.7739258 0.1760254 -0.6079102
vn -0.7583008 0.02108765 -0.6513672
vn 0.515625 0.01165771 -0.8564453
vn 0.003894806 1 -0.01309204
vn 0.135498 0.3105469 -0.940918
vn 0.8828125 0.3085938 -0.3537598
vn 0.1387939 0.1697998 -0.9755859
vn 0.9160156 0.1645508 -0.3662109
vn 0.7475586 0.3076172 0.5883789
vn 0.7734375 0.1650391 0.6123047
vn 0.9824219 0.01535034 0.1868896
vn 0.515625 0.01165771 -0.8564453
vn 0.003894806 1 -0.01309204

vt 0.333252 0.003404617
vt 0.166748 0.003404617
vt 0.333252 0.2583008
vt 0.166748 0.2575684
vt 0.166748 2.626953
vt 0.333252 2.626953
vt 5.799532E-05 2.625
vt 0.166748 6.253906
vt 5.799532E-05 6.253906
vt 1 0.003404617
vt 0.8334961 0.2558594
vt 1 0.2563477
vt 0.8334961 0.003404617
vt 0.7290039 2.625
vt 1 2.625
vt 0.8334961 6.253906
vt 0.166748 0.003404617
vt 5.799532E-05 0.2563477
vt 0.166748 0.2575684
vt 5.799532E-05 0.003404617
vt 5.799532E-05 2.625
vt 0.6665039 0.003404617
vt 0.6665039 0.2563477
vt 0.8334961 0.003404617
vt 0.8334961 0.2558594
vt 0.7290039 2.625
vt 0.5 2.626953
vt 0.5 6.253906
vt 0.6665039 0.003404617
vt 0.5 0.003404617
vt 0.6665039 0.2563477
vt 0.5 0.2575684
vt 0.333252 0.003404617
vt 0.333252 0.2583008
vt 0.333252 2.626953
vt 0.5 2.626953
vt 0.333252 6.253906

g MEP_ConTrunk_01_h_12766_40
usemtl MEP_ConTrunk_01_h_12766_40
usemap MEP_ConTrunk_01_h_12766_40
f 1/1/1 3/3/3 2/2/2
f 3/3/3 4/4/4 2/2/2
f 4/4/4 3/3/3 5/5/5
f 3/3/3 6/6/6 5/5/5
f 4/4/4 5/5/5 7/7/7
f 6/6/6 8/8/8 5/5/5
f 5/5/5 9/9/9 7/7/7
f 10/10/10 12/12/12 11/11/11
f 13/13/13 10/10/10 11/11/11
f 11/11/11 12/12/12 14/14/14
f 12/12/12 15/15/15 14/14/14
f 15/15/15 16/16/16 14/14/14
f 17/17/17 19/19/19 18/18/18
f 20/20/20 17/17/17 18/18/18
f 18/18/18 19/19/19 21/21/21
f 22/22/22 24/24/24 23/23/23
f 24/24/24 25/25/25 23/23/23
f 25/25/25 26/26/26 23/23/23
f 23/23/23 26/26/26 27/27/27
f 26/26/26 28/28/28 27/27/27
f 29/29/29 31/31/31 30/30/30
f 31/31/31 32/32/32 30/30/30
f 30/30/30 32/32/32 33/33/33
f 32/32/32 34/34/34 33/33/33
f 34/34/34 32/32/32 35/35/35
f 32/32/32 36/36/36 35/35/35
f 32/32/32 31/31/31 36/36/36
f 36/36/36 37/37/37 35/35/35
