#MEP_ConTrunk_01_h_14409_168.obj

v 0.0009502805 -0.277461 0.659327
v -0.5684026 -0.277461 0.3306245
v 0.0001470022 0.569701 0.3851019
v -0.3313226 0.560159 0.1929533
v -0.1711844 8.014688 0.2789729
v 0.1276977 8.016972 0.2921327
v -0.2835935 7.961687 -0.02117127
v 0.287706 24.00301 -0.04294605
v 0.287706 24.00301 -0.04294605
v -0.5684043 -0.277461 -0.3268138
v 0.001739014 0.55193 -0.3813567
v -0.3305429 0.551272 -0.1902812
v 0.0009473494 -0.277461 -0.6555064
v 0.03054225 7.948495 -0.2673163
v -0.2835935 7.961687 -0.02117127
v 0.287706 24.00301 -0.04294605
v -0.5684026 -0.277461 0.3306245
v -0.3305429 0.551272 -0.1902812
v -0.3313226 0.560159 0.1929533
v -0.5684043 -0.277461 -0.3268138
v -0.2835935 7.961687 -0.02117127
v 0.5702896 -0.277461 -0.3267929
v 0.3332091 0.561471 -0.1891649
v 0.0009473494 -0.277461 -0.6555064
v 0.001739014 0.55193 -0.3813567
v 0.03054225 7.948495 -0.2673163
v 0.3123053 8.008615 -0.0006686953
v 0.287706 24.00301 -0.04294605
v 0.5702896 -0.277461 -0.3267929
v 0.5702801 -0.277461 0.3306131
v 0.3332091 0.561471 -0.1891649
v 0.3324187 0.570356 0.1940805
v 0.0009502805 -0.277461 0.659327
v 0.0001470022 0.569701 0.3851019
v 0.1276977 8.016972 0.2921327
v 0.3123053 8.008615 -0.0006686953
v 0.287706 24.00301 -0.04294605

vn 0.6655273 0.3076172 0.6801758
vn -0.2575684 0.3110352 0.9150391
vn 0.6875 0.1650391 0.7070313
vn -0.2722168 0.1680908 0.9472656
vn 0.1420898 0.0256958 0.9897461
vn 0.949707 0.01535034 0.3122559
vn -0.8764648 0.02792358 0.4802246
vn 0.005554199 1 -0.01248169
vn 0.005554199 1 -0.01248169
vn -0.9194336 0.3144531 0.2357178
vn -0.6889648 0.1760254 -0.703125
vn -0.9550781 0.1739502 0.2404785
vn -0.6645508 0.3129883 -0.6782227
vn -0.6679688 0.02108765 -0.7441406
vn -0.8764648 0.02792358 0.4802246
vn 0.005554199 1 -0.01248169
vn -0.2575684 0.3110352 0.9150391
vn -0.9550781 0.1739502 0.2404785
vn -0.2722168 0.1680908 0.9472656
vn -0.9194336 0.3144531 0.2357178
vn -0.8764648 0.02792358 0.4802246
vn 0.2558594 0.3105469 -0.9155273
vn 0.2636719 0.1697998 -0.949707
vn -0.6645508 0.3129883 -0.6782227
vn -0.6889648 0.1760254 -0.703125
vn -0.6679688 0.02108765 -0.7441406
vn 0.6220703 0.01165771 -0.7827148
vn 0.005554199 1 -0.01248169
vn 0.2558594 0.3105469 -0.9155273
vn 0.9213867 0.3085938 -0.2368164
vn 0.2636719 0.1697998 -0.949707
vn 0.9555664 0.1645508 -0.244751
vn 0.6655273 0.3076172 0.6801758
vn 0.6875 0.1650391 0.7070313
vn 0.949707 0.01535034 0.3122559
vn 0.6220703 0.01165771 -0.7827148
vn 0.005554199 1 -0.01248169

vt 0.333252 0.003404617
vt 0.166748 0.003404617
vt 0.333252 0.2583008
vt 0.166748 0.2575684
vt 0.166748 2.626953
vt 0.333252 2.626953
vt 5.799532E-05 2.625
vt 0.166748 6.253906
vt 5.799532E-05 6.253906
vt 1 0.003404617
vt 0.8334961 0.2558594
vt 1 0.2563477
vt 0.8334961 0.003404617
vt 0.7290039 2.625
vt 1 2.625
vt 0.8334961 6.253906
vt 0.166748 0.003404617
vt 5.799532E-05 0.2563477
vt 0.166748 0.2575684
vt 5.799532E-05 0.003404617
vt 5.799532E-05 2.625
vt 0.6665039 0.003404617
vt 0.6665039 0.2563477
vt 0.8334961 0.003404617
vt 0.8334961 0.2558594
vt 0.7290039 2.625
vt 0.5 2.626953
vt 0.5 6.253906
vt 0.6665039 0.003404617
vt 0.5 0.003404617
vt 0.6665039 0.2563477
vt 0.5 0.2575684
vt 0.333252 0.003404617
vt 0.333252 0.2583008
vt 0.333252 2.626953
vt 0.5 2.626953
vt 0.333252 6.253906

g MEP_ConTrunk_01_h_14409_168
usemtl MEP_ConTrunk_01_h_14409_168
usemap MEP_ConTrunk_01_h_14409_168
f 1/1/1 3/3/3 2/2/2
f 3/3/3 4/4/4 2/2/2
f 4/4/4 3/3/3 5/5/5
f 3/3/3 6/6/6 5/5/5
f 4/4/4 5/5/5 7/7/7
f 6/6/6 8/8/8 5/5/5
f 5/5/5 9/9/9 7/7/7
f 10/10/10 12/12/12 11/11/11
f 13/13/13 10/10/10 11/11/11
f 11/11/11 12/12/12 14/14/14
f 12/12/12 15/15/15 14/14/14
f 15/15/15 16/16/16 14/14/14
f 17/17/17 19/19/19 18/18/18
f 20/20/20 17/17/17 18/18/18
f 18/18/18 19/19/19 21/21/21
f 22/22/22 24/24/24 23/23/23
f 24/24/24 25/25/25 23/23/23
f 25/25/25 26/26/26 23/23/23
f 23/23/23 26/26/26 27/27/27
f 26/26/26 28/28/28 27/27/27
f 29/29/29 31/31/31 30/30/30
f 31/31/31 32/32/32 30/30/30
f 30/30/30 32/32/32 33/33/33
f 32/32/32 34/34/34 33/33/33
f 34/34/34 32/32/32 35/35/35
f 32/32/32 36/36/36 35/35/35
f 32/32/32 31/31/31 36/36/36
f 36/36/36 37/37/37 35/35/35
