#MEP_ConTrunk_01_d_14660_79.obj

v 0.0009227443 -0.2513418 0.635767
v -0.548068 -0.2513418 0.3187903
v 0.0001531148 0.5160718 0.3713643
v -0.3194565 0.5074291 0.1860789
v -0.08487442 10.50702 0.4098729
v 0.1915642 10.509 0.4220399
v -0.1888275 10.46097 0.1322815
v 0.3343614 31.1316 -0.04991718
v 0.3343614 31.1316 -0.04991718
v -0.54808 -0.2513418 -0.3151118
v 0.001671227 0.4999738 -0.3677208
v -0.3187183 0.4993782 -0.1834859
v 0.0009210548 -0.2513418 -0.632058
v 0.1016925 10.4495 -0.09535306
v -0.1888275 10.46097 0.1322815
v 0.3343614 31.1316 -0.04991718
v -0.548068 -0.2513418 0.3187903
v -0.3187183 0.4993782 -0.1834859
v -0.3194565 0.5074291 0.1860789
v -0.54808 -0.2513418 -0.3151118
v -0.1888275 10.46097 0.1322815
v 0.549891 -0.2513418 -0.3151037
v 0.3213226 0.5086169 -0.1823909
v 0.0009210548 -0.2513418 -0.632058
v 0.001671227 0.4999738 -0.3677208
v 0.1016925 10.4495 -0.09535306
v 0.3622817 10.50174 0.1512467
v 0.3343614 31.1316 -0.04991718
v 0.549891 -0.2513418 -0.3151037
v 0.549903 -0.2513418 0.3187984
v 0.3213226 0.5086169 -0.1823909
v 0.3205204 0.5166659 0.1871503
v 0.0009227443 -0.2513418 0.635767
v 0.0001531148 0.5160718 0.3713643
v 0.1915642 10.509 0.4220399
v 0.3622817 10.50174 0.1512467
v 0.3343614 31.1316 -0.04991718

vn -0.6464844 0.3254395 0.6899414
vn -0.9194336 0.3288574 -0.2161865
vn -0.6767578 0.168335 0.7167969
vn -0.9560547 0.1781006 -0.2325439
vn -0.9819336 0.01809692 0.1893311
vn -0.2702637 0.006835938 0.9628906
vn -0.5209961 0.0249939 -0.8530273
vn 0.01425934 1 -0.009643555
vn 0.01425934 1 -0.009643555
vn -0.2736816 0.3325195 -0.9023438
vn 0.6694336 0.1922607 -0.7172852
vn -0.2800293 0.1900635 -0.940918
vn 0.6445313 0.3310547 -0.6889648
vn 0.7163086 0.01980591 -0.6977539
vn -0.5209961 0.0249939 -0.8530273
vn 0.01425934 1 -0.009643555
vn -0.9194336 0.3288574 -0.2161865
vn -0.2800293 0.1900635 -0.940918
vn -0.9560547 0.1781006 -0.2325439
vn -0.2736816 0.3325195 -0.9023438
vn -0.5209961 0.0249939 -0.8530273
vn 0.9199219 0.3286133 0.2143555
vn 0.9589844 0.1802979 0.2196045
vn 0.6445313 0.3310547 -0.6889648
vn 0.6694336 0.1922607 -0.7172852
vn 0.7163086 0.01980591 -0.6977539
vn 0.8061523 0.005493164 0.5913086
vn 0.01425934 1 -0.009643555
vn 0.9199219 0.3286133 0.2143555
vn 0.2749023 0.326416 0.9042969
vn 0.9589844 0.1802979 0.2196045
vn 0.2873535 0.1682129 0.9428711
vn -0.6464844 0.3254395 0.6899414
vn -0.6767578 0.168335 0.7167969
vn -0.2702637 0.006835938 0.9628906
vn 0.8061523 0.005493164 0.5913086
vn 0.01425934 1 -0.009643555

vt 0.333252 0.003404617
vt 0.166748 0.003404617
vt 0.333252 0.2583008
vt 0.166748 0.2575684
vt 0.166748 2.923828
vt 0.333252 2.925781
vt 5.799532E-05 2.923828
vt 0.166748 6.832031
vt 5.799532E-05 6.832031
vt 1 0.003404617
vt 0.8334961 0.2558594
vt 1 0.2563477
vt 0.8334961 0.003404617
vt 0.7290039 2.921875
vt 1 2.923828
vt 0.8334961 6.832031
vt 0.166748 0.003404617
vt 5.799532E-05 0.2563477
vt 0.166748 0.2575684
vt 5.799532E-05 0.003404617
vt 5.799532E-05 2.923828
vt 0.6665039 0.003404617
vt 0.6665039 0.2563477
vt 0.8334961 0.003404617
vt 0.8334961 0.2558594
vt 0.7290039 2.921875
vt 0.5 2.923828
vt 0.5 6.832031
vt 0.6665039 0.003404617
vt 0.5 0.003404617
vt 0.6665039 0.2563477
vt 0.5 0.2575684
vt 0.333252 0.003404617
vt 0.333252 0.2583008
vt 0.333252 2.925781
vt 0.5 2.923828
vt 0.333252 6.832031

g MEP_ConTrunk_01_d_14660_79
usemtl MEP_ConTrunk_01_d_14660_79
usemap MEP_ConTrunk_01_d_14660_79
f 1/1/1 3/3/3 2/2/2
f 3/3/3 4/4/4 2/2/2
f 4/4/4 3/3/3 5/5/5
f 3/3/3 6/6/6 5/5/5
f 4/4/4 5/5/5 7/7/7
f 6/6/6 8/8/8 5/5/5
f 5/5/5 9/9/9 7/7/7
f 10/10/10 12/12/12 11/11/11
f 13/13/13 10/10/10 11/11/11
f 11/11/11 12/12/12 14/14/14
f 12/12/12 15/15/15 14/14/14
f 15/15/15 16/16/16 14/14/14
f 17/17/17 19/19/19 18/18/18
f 20/20/20 17/17/17 18/18/18
f 18/18/18 19/19/19 21/21/21
f 22/22/22 24/24/24 23/23/23
f 24/24/24 25/25/25 23/23/23
f 25/25/25 26/26/26 23/23/23
f 23/23/23 26/26/26 27/27/27
f 26/26/26 28/28/28 27/27/27
f 29/29/29 31/31/31 30/30/30
f 31/31/31 32/32/32 30/30/30
f 30/30/30 32/32/32 33/33/33
f 32/32/32 34/34/34 33/33/33
f 34/34/34 32/32/32 35/35/35
f 32/32/32 36/36/36 35/35/35
f 32/32/32 31/31/31 36/36/36
f 36/36/36 37/37/37 35/35/35
