#MEP_ConTrunk_01_h_13648_110.obj

v 0.000954894 -0.277461 0.6593256
v -0.5683959 -0.277461 0.3306363
v 0.0001598695 0.569701 0.3851388
v -0.3313017 0.560159 0.1929617
v -0.1711803 8.014688 0.2789809
v 0.1277152 8.016972 0.292138
v -0.2835823 7.961687 -0.0211781
v 0.2877088 24.00301 -0.04293687
v 0.2877088 24.00301 -0.04293687
v -0.5683901 -0.277461 -0.3267882
v 0.001736309 0.55193 -0.3813542
v -0.3305435 0.551272 -0.1902685
v 0.0009487973 -0.277461 -0.6554985
v 0.03056572 7.948495 -0.2672944
v -0.2835823 7.961687 -0.0211781
v 0.2877088 24.00301 -0.04293687
v -0.5683959 -0.277461 0.3306363
v -0.3305435 0.551272 -0.1902685
v -0.3313017 0.560159 0.1929617
v -0.5683901 -0.277461 -0.3267882
v -0.2835823 7.961687 -0.0211781
v 0.5702995 -0.277461 -0.3268092
v 0.3332354 0.561471 -0.1891509
v 0.0009487973 -0.277461 -0.6554985
v 0.001736309 0.55193 -0.3813542
v 0.03056572 7.948495 -0.2672944
v 0.3123196 8.008615 -0.0006548941
v 0.2877088 24.00301 -0.04293687
v 0.5702995 -0.277461 -0.3268092
v 0.5703064 -0.277461 0.3306241
v 0.3332354 0.561471 -0.1891509
v 0.3324222 0.570356 0.1940781
v 0.000954894 -0.277461 0.6593256
v 0.0001598695 0.569701 0.3851388
v 0.1277152 8.016972 0.292138
v 0.3123196 8.008615 -0.0006548941
v 0.2877088 24.00301 -0.04293687

vn -0.7797852 0.3076172 0.5454102
vn -0.8603516 0.3110352 -0.4035645
vn -0.8095703 0.1650391 0.5629883
vn -0.8901367 0.1680908 -0.4230957
vn -0.9995117 0.0256958 -0.02146912
vn -0.4631348 0.01535034 0.8862305
vn -0.3305664 0.02792358 -0.9433594
vn 0.01140594 1 0.007514954
vn 0.01140594 1 0.007514954
vn -0.08239746 0.3144531 -0.9458008
vn 0.8061523 0.1760254 -0.5649414
vn -0.08123779 0.1739502 -0.9814453
vn 0.777832 0.3129883 -0.5449219
vn 0.8432617 0.02108765 -0.5375977
vn -0.3305664 0.02792358 -0.9433594
vn 0.01140594 1 0.007514954
vn -0.8603516 0.3110352 -0.4035645
vn -0.08123779 0.1739502 -0.9814453
vn -0.8901367 0.1680908 -0.4230957
vn -0.08239746 0.3144531 -0.9458008
vn -0.3305664 0.02792358 -0.9433594
vn 0.8613281 0.3105469 0.4018555
vn 0.8935547 0.1697998 0.4152832
vn 0.777832 0.3129883 -0.5449219
vn 0.8061523 0.1760254 -0.5649414
vn 0.8432617 0.02108765 -0.5375977
vn 0.6708984 0.01165771 0.7416992
vn 0.01140594 1 0.007514954
vn 0.8613281 0.3105469 0.4018555
vn 0.08319092 0.3085938 0.9477539
vn 0.8935547 0.1697998 0.4152832
vn 0.08538818 0.1645508 0.9824219
vn -0.7797852 0.3076172 0.5454102
vn -0.8095703 0.1650391 0.5629883
vn -0.4631348 0.01535034 0.8862305
vn 0.6708984 0.01165771 0.7416992
vn 0.01140594 1 0.007514954

vt 0.333252 0.003404617
vt 0.166748 0.003404617
vt 0.333252 0.2583008
vt 0.166748 0.2575684
vt 0.166748 2.626953
vt 0.333252 2.626953
vt 5.799532E-05 2.625
vt 0.166748 6.253906
vt 5.799532E-05 6.253906
vt 1 0.003404617
vt 0.8334961 0.2558594
vt 1 0.2563477
vt 0.8334961 0.003404617
vt 0.7290039 2.625
vt 1 2.625
vt 0.8334961 6.253906
vt 0.166748 0.003404617
vt 5.799532E-05 0.2563477
vt 0.166748 0.2575684
vt 5.799532E-05 0.003404617
vt 5.799532E-05 2.625
vt 0.6665039 0.003404617
vt 0.6665039 0.2563477
vt 0.8334961 0.003404617
vt 0.8334961 0.2558594
vt 0.7290039 2.625
vt 0.5 2.626953
vt 0.5 6.253906
vt 0.6665039 0.003404617
vt 0.5 0.003404617
vt 0.6665039 0.2563477
vt 0.5 0.2575684
vt 0.333252 0.003404617
vt 0.333252 0.2583008
vt 0.333252 2.626953
vt 0.5 2.626953
vt 0.333252 6.253906

g MEP_ConTrunk_01_h_13648_110
usemtl MEP_ConTrunk_01_h_13648_110
usemap MEP_ConTrunk_01_h_13648_110
f 1/1/1 3/3/3 2/2/2
f 3/3/3 4/4/4 2/2/2
f 4/4/4 3/3/3 5/5/5
f 3/3/3 6/6/6 5/5/5
f 4/4/4 5/5/5 7/7/7
f 6/6/6 8/8/8 5/5/5
f 5/5/5 9/9/9 7/7/7
f 10/10/10 12/12/12 11/11/11
f 13/13/13 10/10/10 11/11/11
f 11/11/11 12/12/12 14/14/14
f 12/12/12 15/15/15 14/14/14
f 15/15/15 16/16/16 14/14/14
f 17/17/17 19/19/19 18/18/18
f 20/20/20 17/17/17 18/18/18
f 18/18/18 19/19/19 21/21/21
f 22/22/22 24/24/24 23/23/23
f 24/24/24 25/25/25 23/23/23
f 25/25/25 26/26/26 23/23/23
f 23/23/23 26/26/26 27/27/27
f 26/26/26 28/28/28 27/27/27
f 29/29/29 31/31/31 30/30/30
f 31/31/31 32/32/32 30/30/30
f 30/30/30 32/32/32 33/33/33
f 32/32/32 34/34/34 33/33/33
f 34/34/34 32/32/32 35/35/35
f 32/32/32 36/36/36 35/35/35
f 32/32/32 31/31/31 36/36/36
f 36/36/36 37/37/37 35/35/35
