#MEP_Con_01_d_LOD_02(Clone)_12844_296.obj

v -0.08018629 -0.505634 -0.4106927
v 0.2674834 25.89249 0.1725642
v -0.04636756 -0.510988 0.4552695
v 0.4119309 -0.505634 -0.073562
v 0.2674834 25.89249 0.1725642
v -0.4544624 -0.510988 -0.05367975
v -0.08018629 -0.505634 -0.4106927
v -0.04636756 -0.510988 0.4552695
v 0.2674834 25.89249 0.1725642
v 0.4119309 -0.505634 -0.073562
v -0.4544624 -0.510988 -0.05367975
v 0.2674834 25.89249 0.1725642
v -1.312146 22.14209 -3.090903
v 0.2952605 22.1108 3.861375
v 1.26027 31.69208 2.402928
v -1.430712 31.06985 -1.938229
v 3.068615 22.20161 0.2798183
v -4.062612 22.24152 0.2209183
v -1.393425 31.55883 0.990114
v 2.110446 31.41819 -0.9953242
v -2.505399 18.03639 6.018255
v 2.951775 18.47284 -6.524167
v 1.613848 25.98559 -3.503538
v 0.7535433 25.84997 3.104067
v -4.738564 17.61271 -2.888822
v 5.471893 18.45897 3.430035
v 3.154696 26.49347 2.083206
v -3.677451 25.86773 -1.333997
v -1.312146 22.14209 -3.090903
v 1.26027 31.69208 2.402928
v 0.2952605 22.1108 3.861375
v -1.430712 31.06985 -1.938229
v 3.068615 22.20161 0.2798183
v -1.393425 31.55883 0.990114
v -4.062612 22.24152 0.2209183
v 2.110446 31.41819 -0.9953242
v -2.505399 18.03639 6.018255
v 1.613848 25.98559 -3.503538
v 2.951775 18.47284 -6.524167
v 0.7535433 25.84997 3.104067
v -4.738564 17.61271 -2.888822
v 3.154696 26.49347 2.083206
v 5.471893 18.45897 3.430035
v -3.677451 25.86773 -1.333997

vn -0.5834961 0.01226807 -0.8120117
vn 0.1696777 0.01528931 -0.9853516
vn -0.5834961 0.01226807 -0.8120117
vn 0.8212891 0.009185791 -0.5703125
vn 0.1696777 0.01528931 -0.9853516
vn 0.8212891 0.009185791 -0.5703125
vn 0.5834961 -0.01226807 0.8120117
vn 0.5834961 -0.01226807 0.8120117
vn -0.1696777 -0.01528931 0.9853516
vn -0.8212891 -0.009185791 0.5703125
vn -0.8212891 -0.009185791 0.5703125
vn -0.1696777 -0.01528931 0.9853516
vn 0.7915039 -0.06695557 0.6079102
vn 0.7192383 -0.1313477 0.6826172
vn 0.8432617 -0.01147461 0.5371094
vn 0.9091797 0.08007813 0.4084473
vn -0.7583008 -0.0151062 0.6518555
vn -0.8364258 -0.07977295 0.5419922
vn -0.6220703 0.07446289 0.7792969
vn -0.4423828 0.1693115 0.8808594
vn -0.2878418 0.1546631 -0.9453125
vn -0.1724854 -0.002838135 -0.9848633
vn -0.2617188 0.1181641 -0.9580078
vn -0.4182129 0.3459473 -0.8398438
vn 0.9956055 0.0574646 -0.07635498
vn 0.9995117 0.009002686 -0.03025818
vn 0.996582 0.04794312 -0.06726074
vn 0.9853516 0.1120605 -0.1280518
vn -0.7915039 0.06695557 -0.6079102
vn -0.8432617 0.01147461 -0.5371094
vn -0.7192383 0.1313477 -0.6826172
vn -0.9091797 -0.08007813 -0.4084473
vn 0.7583008 0.0151062 -0.6518555
vn 0.6220703 -0.07446289 -0.7792969
vn 0.8364258 0.07977295 -0.5419922
vn 0.4423828 -0.1693115 -0.8808594
vn 0.2878418 -0.1546631 0.9453125
vn 0.2617188 -0.1181641 0.9580078
vn 0.1724854 0.002838135 0.9848633
vn 0.4182129 -0.3459473 0.8398438
vn -0.9956055 -0.0574646 0.07635498
vn -0.996582 -0.04794312 0.06726074
vn -0.9995117 -0.009002686 0.03025818
vn -0.9853516 -0.1120605 0.1280518

vt 0.9433594 0.3640137
vt 0.9321289 0.4221191
vt 0.9516602 0.3674316
vt 0.9433594 0.3640137
vt 0.9321289 0.4221191
vt 0.9516602 0.3674316
vt 0.9433594 0.3640137
vt 0.9516602 0.3674316
vt 0.9321289 0.4221191
vt 0.9433594 0.3640137
vt 0.9516602 0.3674316
vt 0.9321289 0.4221191
vt 0.001989365 0.007873535
vt 0.9863281 0.002599716
vt 0.7783203 0.996582
vt 0.1824951 0.9921875
vt 0.001989365 0.007873535
vt 0.9863281 0.002599716
vt 0.7783203 0.996582
vt 0.1824951 0.9921875
vt 0.001989365 0.007873535
vt 0.9863281 0.002599716
vt 0.7783203 0.996582
vt 0.1824951 0.9921875
vt 0.001989365 0.007873535
vt 0.9863281 0.002599716
vt 0.7783203 0.996582
vt 0.1824951 0.9921875
vt 0.001989365 0.007873535
vt 0.7783203 0.996582
vt 0.9863281 0.002599716
vt 0.1824951 0.9921875
vt 0.001989365 0.007873535
vt 0.7783203 0.996582
vt 0.9863281 0.002599716
vt 0.1824951 0.9921875
vt 0.001989365 0.007873535
vt 0.7783203 0.996582
vt 0.9863281 0.002599716
vt 0.1824951 0.9921875
vt 0.001989365 0.007873535
vt 0.7783203 0.996582
vt 0.9863281 0.002599716
vt 0.1824951 0.9921875

g MEP_Con_01_d_LOD_02(Clone)_12844_296
usemtl MEP_Con_01_d_LOD_02(Clone)_12844_296
usemap MEP_Con_01_d_LOD_02(Clone)_12844_296
f 1/1/1 3/3/3 2/2/2
f 4/4/4 6/6/6 5/5/5
f 7/7/7 9/9/9 8/8/8
f 10/10/10 12/12/12 11/11/11
f 13/13/13 15/15/15 14/14/14
f 16/16/16 15/15/15 13/13/13
f 17/17/17 19/19/19 18/18/18
f 20/20/20 19/19/19 17/17/17
f 21/21/21 23/23/23 22/22/22
f 24/24/24 23/23/23 21/21/21
f 25/25/25 27/27/27 26/26/26
f 28/28/28 27/27/27 25/25/25
f 29/29/29 31/31/31 30/30/30
f 32/32/32 29/29/29 30/30/30
f 33/33/33 35/35/35 34/34/34
f 36/36/36 33/33/33 34/34/34
f 37/37/37 39/39/39 38/38/38
f 40/40/40 37/37/37 38/38/38
f 41/41/41 43/43/43 42/42/42
f 44/44/44 41/41/41 42/42/42
