#MEP_Con_01_f_LOD_02(Clone)_15117_293.obj

v 1.207711 11.8727 -1.938246
v -1.258473 20.74399 1.482486
v 0.3704704 11.94678 2.309903
v 1.792855 20.68254 -1.119145
v -2.081295 11.88785 -0.7485127
v 1.608246 20.67806 0.7281253
v 2.488728 11.75238 0.9168399
v -1.39612 20.76712 -0.3666785
v -2.139309 6.102907 5.123916
v 2.138246 5.805046 -4.677748
v 1.279137 14.63286 -2.889719
v 0.4644413 14.15287 2.291841
v -4.34439 6.037307 -2.191811
v 4.661176 6.037306 3.588152
v 2.389136 14.78854 1.609289
v -2.410107 14.83608 -1.032907
v 1.207711 11.8727 -1.938246
v 0.3704704 11.94678 2.309903
v -1.258473 20.74399 1.482486
v 1.792855 20.68254 -1.119145
v -2.081295 11.88785 -0.7485127
v 2.488728 11.75238 0.9168399
v 1.608246 20.67806 0.7281253
v -1.39612 20.76712 -0.3666785
v -2.139309 6.102907 5.123916
v 1.279137 14.63286 -2.889719
v 2.138246 5.805046 -4.677748
v 0.4644413 14.15287 2.291841
v -4.34439 6.037307 -2.191811
v 2.389136 14.78854 1.609289
v 4.661176 6.037306 3.588152
v -2.410107 14.83608 -1.032907
v -0.05431852 -0.137548 -0.4407659
v 0.2283266 19.82228 0.1680698
v -0.02295582 -0.142512 0.3622221
v 0.4019913 -0.137548 -0.1281619
v 0.2283266 19.82228 0.1680698
v -0.4013986 -0.142512 -0.1097336
v -0.05431852 -0.137548 -0.4407659
v -0.02295582 -0.142512 0.3622221
v 0.2283266 19.82228 0.1680698
v 0.4019913 -0.137548 -0.1281619
v -0.4013986 -0.142512 -0.1097336
v 0.2283266 19.82228 0.1680698

vn -0.1073608 -0.1195679 -0.9868164
vn 0.1998291 0.02542114 -0.9794922
vn -0.2763672 -0.1958008 -0.940918
vn 0.3774414 0.1130981 -0.9189453
vn -0.9916992 -0.01394653 0.126709
vn -0.9916992 -0.01394653 0.126709
vn -0.9916992 -0.01394653 0.126709
vn -0.9916992 -0.01394653 0.126709
vn -0.1550293 0.08380127 -0.984375
vn -0.06561279 -0.008209229 -0.9980469
vn -0.177002 0.1067505 -0.9785156
vn -0.3271484 0.2648926 -0.9072266
vn 0.9970703 -0.02877808 0.06951904
vn 0.9941406 -0.04998779 0.09344482
vn 0.9975586 -0.02337646 0.06341553
vn 0.9995117 0.009307861 0.02644348
vn 0.1073608 0.1195679 0.9868164
vn 0.2763672 0.1958008 0.940918
vn -0.1998291 -0.02542114 0.9794922
vn -0.3774414 -0.1130981 0.9189453
vn 0.9916992 0.01394653 -0.126709
vn 0.9916992 0.01394653 -0.126709
vn 0.9916992 0.01394653 -0.126709
vn 0.9916992 0.01394653 -0.126709
vn 0.1550293 -0.08380127 0.984375
vn 0.177002 -0.1067505 0.9785156
vn 0.06561279 0.008209229 0.9980469
vn 0.3271484 -0.2648926 0.9072266
vn -0.9970703 0.02877808 -0.06951904
vn -0.9975586 0.02337646 -0.06341553
vn -0.9941406 0.04998779 -0.09344482
vn -0.9995117 -0.009307861 -0.02644348
vn -0.4934082 0.01293945 -0.8696289
vn 0.2736816 0.01965332 -0.9614258
vn -0.4934082 0.01293945 -0.8696289
vn 0.8774414 0.01461792 -0.479248
vn 0.2736816 0.01965332 -0.9614258
vn 0.8774414 0.01461792 -0.479248
vn 0.4934082 -0.01293945 0.8696289
vn 0.4934082 -0.01293945 0.8696289
vn -0.2736816 -0.01965332 0.9614258
vn -0.8774414 -0.01461792 0.479248
vn -0.8774414 -0.01461792 0.479248
vn -0.2736816 -0.01965332 0.9614258

vt 0.001989365 0.007873535
vt 0.7783203 0.996582
vt 0.9863281 0.002599716
vt 0.1824951 0.9921875
vt 0.001989365 0.007873535
vt 0.7783203 0.996582
vt 0.9863281 0.002599716
vt 0.1824951 0.9921875
vt 0.001989365 0.007873535
vt 0.9863281 0.002599716
vt 0.7783203 0.996582
vt 0.1824951 0.9921875
vt 0.001989365 0.007873535
vt 0.9863281 0.002599716
vt 0.7783203 0.996582
vt 0.1824951 0.9921875
vt 0.001989365 0.007873535
vt 0.9863281 0.002599716
vt 0.7783203 0.996582
vt 0.1824951 0.9921875
vt 0.001989365 0.007873535
vt 0.9863281 0.002599716
vt 0.7783203 0.996582
vt 0.1824951 0.9921875
vt 0.001989365 0.007873535
vt 0.7783203 0.996582
vt 0.9863281 0.002599716
vt 0.1824951 0.9921875
vt 0.001989365 0.007873535
vt 0.7783203 0.996582
vt 0.9863281 0.002599716
vt 0.1824951 0.9921875
vt 0.9433594 0.3640137
vt 0.9321289 0.4221191
vt 0.9516602 0.3674316
vt 0.9433594 0.3640137
vt 0.9321289 0.4221191
vt 0.9516602 0.3674316
vt 0.9433594 0.3640137
vt 0.9516602 0.3674316
vt 0.9321289 0.4221191
vt 0.9433594 0.3640137
vt 0.9516602 0.3674316
vt 0.9321289 0.4221191

g MEP_Con_01_f_LOD_02(Clone)_15117_293
usemtl MEP_Con_01_f_LOD_02(Clone)_15117_293
usemap MEP_Con_01_f_LOD_02(Clone)_15117_293
f 1/1/1 3/3/3 2/2/2
f 4/4/4 1/1/1 2/2/2
f 5/5/5 7/7/7 6/6/6
f 8/8/8 5/5/5 6/6/6
f 9/9/9 11/11/11 10/10/10
f 12/12/12 11/11/11 9/9/9
f 13/13/13 15/15/15 14/14/14
f 16/16/16 15/15/15 13/13/13
f 17/17/17 19/19/19 18/18/18
f 20/20/20 19/19/19 17/17/17
f 21/21/21 23/23/23 22/22/22
f 24/24/24 23/23/23 21/21/21
f 25/25/25 27/27/27 26/26/26
f 28/28/28 25/25/25 26/26/26
f 29/29/29 31/31/31 30/30/30
f 32/32/32 29/29/29 30/30/30
f 33/33/33 35/35/35 34/34/34
f 36/36/36 38/38/38 37/37/37
f 39/39/39 41/41/41 40/40/40
f 42/42/42 44/44/44 43/43/43
