#MEP_Con_01_h_LOD_01(Clone)_12674_412.obj

v -0.9886349 1.8701 2.022382
v -0.04147056 2.738964 0.1920395
v 0.1753507 3.133242 -0.009911973
v -0.1296141 2.017378 0.5884021
v 0.06085371 5.013865 0.329879
v -0.0406285 5.410986 0.05557545
v 1.98071 3.836672 2.3198
v 0.4005324 4.29571 0.5631847
v 0.05841437 5.161913 -0.07770001
v -0.01364558 5.602562 0.1317901
v -0.2754732 3.565519 -2.601879
v -0.09599105 4.395245 -0.3496041
v -0.1546854 7.07416 0.125255
v 0.1510415 7.446809 0.02075941
v -2.565907 6.258064 1.722571
v -0.4860893 6.428028 0.5230541
v 0.1437588 6.999116 -0.0900895
v -0.007094651 7.390816 0.02215953
v 1.258553 5.592319 -2.036188
v 0.1633369 6.328564 -0.3764831
v -0.1149483 9.198687 -0.0392156
v -0.01338545 9.653198 0.1231154
v -2.010529 7.554882 -1.693351
v -0.4600978 8.447344 -0.08304938
v -0.00726367 9.326727 0.2779443
v 0.04384754 9.7173 -0.0188516
v 0.4093114 8.302307 3.072306
v 0.1829157 8.64023 0.6999754
v -0.04147056 2.738964 0.1920395
v -0.9886349 1.8701 2.022382
v 0.1753507 3.133242 -0.009911973
v -0.1296141 2.017378 0.5884021
v 0.06085371 5.013865 0.329879
v 1.98071 3.836672 2.3198
v -0.0406285 5.410986 0.05557545
v 0.4005324 4.29571 0.5631847
v 0.05841437 5.161913 -0.07770001
v -0.2754732 3.565519 -2.601879
v -0.01364558 5.602562 0.1317901
v -0.09599105 4.395245 -0.3496041
v -0.1546854 7.07416 0.125255
v -2.565907 6.258064 1.722571
v 0.1510415 7.446809 0.02075941
v -0.4860893 6.428028 0.5230541
v 0.1437588 6.999116 -0.0900895
v 1.258553 5.592319 -2.036188
v -0.007094651 7.390816 0.02215953
v 0.1633369 6.328564 -0.3764831
v -0.1149483 9.198687 -0.0392156
v -2.010529 7.554882 -1.693351
v -0.01338545 9.653198 0.1231154
v -0.4600978 8.447344 -0.08304938
v -0.00726367 9.326727 0.2779443
v 0.4093114 8.302307 3.072306
v 0.04384754 9.7173 -0.0188516
v 0.1829157 8.64023 0.6999754
v -0.7608961 10.36044 1.125327
v -2.97221 11.57432 2.589992
v -0.2411301 10.70937 0.3411476
v 0.2145291 10.92739 0.02162906
v -0.7608961 10.36044 1.125327
v -0.2411301 10.70937 0.3411476
v -2.97221 11.57432 2.589992
v 0.2145291 10.92739 0.02162906
v -0.09566378 5.061844 0.02498366
v 0.1386351 5.473125 0.1635509
v -2.790346 3.783173 -0.3425434
v -0.4850655 4.333046 0.07773899
v 0.1548684 6.976057 0.1772811
v 0.1947159 7.401443 -0.06910948
v 0.9399828 5.51322 2.682296
v 0.3416229 6.220922 0.4609255
v 0.1576461 9.229546 0.07540184
v -0.1367784 9.724119 -0.05382865
v 3.393198 7.663885 0.08664045
v 0.6008971 8.352188 -0.04502646
v -0.09566378 5.061844 0.02498366
v -2.790346 3.783173 -0.3425434
v 0.1386351 5.473125 0.1635509
v -0.4850655 4.333046 0.07773899
v 0.1548684 6.976057 0.1772811
v 0.9399828 5.51322 2.682296
v 0.1947159 7.401443 -0.06910948
v 0.3416229 6.220922 0.4609255
v 0.1576461 9.229546 0.07540184
v 3.393198 7.663885 0.08664045
v -0.1367784 9.724119 -0.05382865
v 0.6008971 8.352188 -0.04502646
v -0.477542 10.73707 -1.029089
v -0.1793566 10.03951 -4.580523
v 0.05300749 11.63629 -0.3431169
v 0.1226303 12.25096 0.07049841
v -0.477542 10.73707 -1.029089
v 0.05300749 11.63629 -0.3431169
v -0.1793566 10.03951 -4.580523
v 0.1226303 12.25096 0.07049841
v -0.3181344 11.67299 -0.008471824
v 0.2608115 12.28067 0.04632516
v -5.33087 10.70736 -0.4643755
v -1.314066 10.75051 0.3802422
v -0.3181344 11.67299 -0.008471824
v -5.33087 10.70736 -0.4643755
v 0.2608115 12.28067 0.04632516
v -1.314066 10.75051 0.3802422
v 0.02405335 16.23364 -0.2524436
v 0.14189 16.52574 0.03857073
v -1.716077 15.66677 -2.117504
v -0.3265782 15.68114 -0.5526161
v -0.07613229 17.31449 -0.02762724
v 0.218654 17.74557 -0.05022101
v -2.789887 16.08077 1.094357
v -0.4231769 16.56796 0.2763158
v 0.02405335 16.23364 -0.2524436
v -1.716077 15.66677 -2.117504
v 0.14189 16.52574 0.03857073
v -0.3265782 15.68114 -0.5526161
v -0.07613229 17.31449 -0.02762724
v -2.789887 16.08077 1.094357
v 0.218654 17.74557 -0.05022101
v -0.4231769 16.56796 0.2763158
v -0.2025059 13.99219 -0.1764691
v 0.1882955 14.39918 0.09287477
v -3.364391 13.64519 -2.273099
v -1.038209 13.37294 -0.3173614
v -0.2025059 13.99219 -0.1764691
v -3.364391 13.64519 -2.273099
v 0.1882955 14.39918 0.09287477
v -1.038209 13.37294 -0.3173614
v -0.06776474 19.07122 -0.1653409
v 0.2588508 19.4246 -0.02303147
v -2.255355 18.38868 -1.455732
v -0.5305842 18.36757 -0.1466523
v -0.06776474 19.07122 -0.1653409
v -2.255355 18.38868 -1.455732
v 0.2588508 19.4246 -0.02303147
v -0.5305842 18.36757 -0.1466523
v -0.1596294 14.85503 -0.0327435
v 0.2875736 15.06024 -0.1312384
v -2.729274 15.14348 1.599135
v -0.7542723 14.40186 0.3554705
v -0.1596294 14.85503 -0.0327435
v -2.729274 15.14348 1.599135
v 0.2875736 15.06024 -0.1312384
v -0.7542723 14.40186 0.3554705
v -0.04380057 13.34469 -0.01564725
v 0.08032432 13.79207 0.1507516
v -2.02219 11.81187 -1.679335
v -0.4253754 12.61157 -0.06562612
v 0.07095031 13.46418 0.3023831
v 0.1402484 13.8547 0.00922781
v 0.4449387 12.3931 3.085255
v 0.2285227 12.76508 0.717088
v -0.04380057 13.34469 -0.01564725
v -2.02219 11.81187 -1.679335
v 0.08032432 13.79207 0.1507516
v -0.4253754 12.61157 -0.06562612
v 0.07095031 13.46418 0.3023831
v 0.4449387 12.3931 3.085255
v 0.1402484 13.8547 0.00922781
v 0.2285227 12.76508 0.717088
v 0.2303072 13.36106 0.09835293
v -0.03996688 13.87068 -0.02508083
v 3.385464 11.63914 0.08357605
v 0.6297926 12.46432 -0.03207106
v 0.2303072 13.36106 0.09835293
v 3.385464 11.63914 0.08357605
v -0.03996688 13.87068 -0.02508083
v 0.6297926 12.46432 -0.03207106
v 0.2360757 15.53636 -0.1273935
v 0.0576645 15.98374 -0.02121049
v 2.096153 14.00354 -1.922371
v 0.32538 14.80325 -0.5017262
v -0.092161 15.65585 -0.04630328
v 0.1922152 16.04637 0.05305668
v -2.898826 14.58478 0.03673628
v -0.5210028 14.95675 0.06738382
v 0.2360757 15.53636 -0.1273935
v 2.096153 14.00354 -1.922371
v 0.0576645 15.98374 -0.02121049
v 0.32538 14.80325 -0.5017262
v -0.092161 15.65585 -0.04630328
v -2.898826 14.58478 0.03673628
v 0.1922152 16.04637 0.05305668
v -0.5210028 14.95675 0.06738382
v 0.1048135 15.52809 0.2381796
v 0.1981192 16.03845 -0.04254973
v 0.4747269 13.79365 3.3647
v 0.277319 14.62944 0.6168958
v 0.1048135 15.52809 0.2381796
v 0.4747269 13.79365 3.3647
v 0.1981192 16.03845 -0.04254973
v 0.277319 14.62944 0.6168958
v 0.2624721 19.86199 -0.5207669
v 1.230021 19.65501 -1.722453
v 0.2621258 20.38085 -0.157174
v 0.1857437 20.67361 0.0321153
v 0.2624721 19.86199 -0.5207669
v 0.2621258 20.38085 -0.157174
v 1.230021 19.65501 -1.722453
v 0.1857437 20.67361 0.0321153
v 0.4766168 21.22732 0.09621511
v 1.005923 20.87008 1.1108
v 0.2917377 21.67425 0.03162214
v 0.2208329 21.92544 -0.05454212
v 0.4766168 21.22732 0.09621511
v 0.2917377 21.67425 0.03162214
v 1.005923 20.87008 1.1108
v 0.2208329 21.92544 -0.05454212
v -0.08022121 -0.205358 -0.4107024
v 0.2617533 23.88826 -0.03481954
v -0.0463706 -0.210712 0.4552807
v 0.4119114 -0.205358 -0.07356302
v 0.2617533 23.88826 -0.03481954
v -0.4544798 -0.210712 -0.05369045
v -0.08022121 -0.205358 -0.4107024
v -0.0463706 -0.210712 0.4552807
v 0.2617533 23.88826 -0.03481954
v 0.4119114 -0.205358 -0.07356302
v -0.4544798 -0.210712 -0.05369045
v 0.2617533 23.88826 -0.03481954

vn -0.9077148 -0.05743408 -0.4157715
vn -0.9277344 0.2324219 -0.2915039
vn -0.9116211 0.3356934 -0.2371826
vn -0.8701172 -0.1831055 -0.4572754
vn -0.5493164 0.276123 0.7885742
vn -0.4887695 0.3781738 0.7861328
vn -0.6679688 -0.0004272461 0.7441406
vn -0.7060547 -0.1489258 0.6923828
vn 0.9272461 0.1971436 -0.3178711
vn 0.8813477 0.2932129 -0.369873
vn 0.984375 -0.05969238 -0.1651611
vn 0.9775391 -0.1953125 -0.0769043
vn -0.6386719 0.1641846 -0.7519531
vn -0.6469727 0.2751465 -0.7109375
vn -0.5766602 -0.12854 -0.8066406
vn -0.5214844 -0.2807617 -0.8056641
vn 0.9282227 0.1552734 0.3378906
vn 0.9287109 0.2526855 0.2705078
vn 0.8666992 -0.1022949 0.487793
vn 0.8012695 -0.2366943 0.5498047
vn 0.565918 0.06439209 -0.8217773
vn 0.5048828 0.1627197 -0.8476563
vn 0.6845703 -0.1895752 -0.7036133
vn 0.7226563 -0.3186035 -0.6137695
vn -0.9365234 0.203125 0.2851563
vn -0.8964844 0.3103027 0.315918
vn -0.9785156 -0.08221436 0.1884766
vn -0.9638672 -0.2322998 0.1293945
vn 0.9277344 -0.2324219 0.2915039
vn 0.9077148 0.05743408 0.4157715
vn 0.9116211 -0.3356934 0.2371826
vn 0.8701172 0.1831055 0.4572754
vn 0.5493164 -0.276123 -0.7885742
vn 0.6679688 0.0004272461 -0.7441406
vn 0.4887695 -0.3781738 -0.7861328
vn 0.7060547 0.1489258 -0.6923828
vn -0.9272461 -0.1971436 0.3178711
vn -0.984375 0.05969238 0.1651611
vn -0.8813477 -0.2932129 0.369873
vn -0.9775391 0.1953125 0.0769043
vn 0.6386719 -0.1641846 0.7519531
vn 0.5766602 0.12854 0.8066406
vn 0.6469727 -0.2753906 0.7109375
vn 0.5214844 0.2807617 0.8056641
vn -0.9282227 -0.1552734 -0.3378906
vn -0.8666992 0.1022949 -0.487793
vn -0.9287109 -0.2526855 -0.2705078
vn -0.8012695 0.2366943 -0.5498047
vn -0.565918 -0.06439209 0.8217773
vn -0.6845703 0.1895752 0.7036133
vn -0.5048828 -0.1627197 0.8476563
vn -0.7226563 0.3186035 0.6137695
vn 0.9365234 -0.203125 -0.2851563
vn 0.9785156 0.08221436 -0.1884766
vn 0.8964844 -0.3103027 -0.315918
vn 0.9638672 0.2322998 -0.1293945
vn 0.6938477 0.4326172 0.5751953
vn 0.7099609 0.2866211 0.6435547
vn 0.6884766 -0.00567627 0.7250977
vn 0.6630859 -0.1206055 0.7387695
vn -0.6938477 -0.4326172 -0.5751953
vn -0.6884766 0.00567627 -0.7250977
vn -0.7099609 -0.2866211 -0.6435547
vn -0.6630859 0.1206055 -0.7387695
vn -0.04803467 0.2327881 -0.9711914
vn -0.09814453 0.3344727 -0.9370117
vn 0.0824585 -0.04095459 -0.9956055
vn 0.1494141 -0.1864014 -0.9711914
vn -0.8432617 0.2440186 0.4790039
vn -0.7861328 0.3415527 0.5151367
vn -0.934082 -0.01940918 0.3569336
vn -0.9472656 -0.1601563 0.277832
vn 0.1804199 0.2365723 0.9545898
vn 0.2266846 0.3376465 0.9135742
vn 0.05148315 -0.03546143 0.9980469
vn -0.0196991 -0.1801758 0.9833984
vn 0.04803467 -0.2327881 0.9711914
vn -0.0824585 0.04095459 0.9956055
vn 0.09814453 -0.3344727 0.9370117
vn -0.1494141 0.1864014 0.9711914
vn 0.8432617 -0.2440186 -0.4790039
vn 0.934082 0.01940918 -0.3569336
vn 0.7861328 -0.3415527 -0.5151367
vn 0.9472656 0.1601563 -0.277832
vn -0.1804199 -0.2365723 -0.9545898
vn -0.05148315 0.03546143 -0.9980469
vn -0.2266846 -0.3376465 -0.9135742
vn 0.0196991 0.1801758 -0.9833984
vn -0.7905273 0.5996094 -0.1264648
vn -0.8769531 0.4755859 -0.06842041
vn -0.9765625 0.2111816 0.04455566
vn -0.9907227 0.1017456 0.08789063
vn 0.7905273 -0.5996094 0.1264648
vn 0.9765625 -0.2111816 -0.04455566
vn 0.8769531 -0.4755859 0.06842041
vn 0.9907227 -0.1017456 -0.08789063
vn 0.03985596 -0.1119385 -0.9926758
vn 0.01765442 0.004272461 -1
vn 0.09362793 -0.4001465 -0.9116211
vn 0.1189575 -0.5395508 -0.8334961
vn -0.03985596 0.1119385 0.9926758
vn -0.09362793 0.4001465 0.9116211
vn -0.01765442 -0.004272461 1
vn -0.1189575 0.5395508 0.8334961
vn 0.5839844 0.3354492 -0.7392578
vn 0.534668 0.4416504 -0.7207031
vn 0.6723633 0.04428101 -0.7392578
vn 0.6938477 -0.1137085 -0.7109375
vn -0.5048828 0.1734619 -0.8457031
vn -0.5317383 0.2792969 -0.7998047
vn -0.404541 -0.1068726 -0.9082031
vn -0.3354492 -0.2531738 -0.9072266
vn -0.5839844 -0.3354492 0.7392578
vn -0.6723633 -0.04428101 0.7392578
vn -0.534668 -0.4416504 0.7207031
vn -0.6938477 0.1137085 0.7109375
vn 0.5048828 -0.1734619 0.8457031
vn 0.404541 0.1068726 0.9082031
vn 0.5317383 -0.2792969 0.7998047
vn 0.3354492 0.2531738 0.9072266
vn 0.4963379 -0.09454346 -0.862793
vn 0.4890137 0.02337646 -0.8720703
vn 0.4831543 -0.3881836 -0.784668
vn 0.4577637 -0.53125 -0.7128906
vn -0.4963379 0.09454346 0.862793
vn -0.4831543 0.3881836 0.784668
vn -0.4890137 -0.02340698 0.8720703
vn -0.4577637 0.53125 0.7128906
vn 0.4858398 -0.2202148 -0.8457031
vn 0.4777832 -0.1654053 -0.862793
vn 0.4978027 -0.3383789 -0.7983398
vn 0.5004883 -0.3847656 -0.7758789
vn -0.4858398 0.2202148 0.8457031
vn -0.4978027 0.3383789 0.7983398
vn -0.4777832 0.1654053 0.862793
vn -0.5004883 0.3847656 0.7758789
vn -0.503418 0.4333496 -0.7475586
vn -0.4609375 0.5361328 -0.7070313
vn -0.5786133 0.1437988 -0.8032227
vn -0.5966797 -0.01712036 -0.8022461
vn 0.503418 -0.4333496 0.7475586
vn 0.5786133 -0.1437988 0.8032227
vn 0.4609375 -0.5361328 0.7070313
vn 0.5966797 0.01712036 0.8022461
vn 0.565918 0.04150391 -0.8232422
vn 0.5097656 0.1429443 -0.8481445
vn 0.6723633 -0.21875 -0.7070313
vn 0.7041016 -0.3500977 -0.6176758
vn -0.9248047 0.2474365 0.2893066
vn -0.8793945 0.3522949 0.3208008
vn -0.980957 -0.03491211 0.1911621
vn -0.9741211 -0.1851807 0.1311035
vn -0.565918 -0.04150391 0.8232422
vn -0.6723633 0.21875 0.7070313
vn -0.5097656 -0.1429443 0.8481445
vn -0.7041016 0.3500977 0.6176758
vn 0.9248047 -0.2474365 -0.2893066
vn 0.980957 0.03491211 -0.1911621
vn 0.8793945 -0.3522949 -0.3208008
vn 0.9741211 0.1851807 -0.1311035
vn 0.1947021 0.2213135 0.9555664
vn 0.2457275 0.3203125 0.9150391
vn 0.0526123 -0.04428101 0.9975586
vn -0.02571106 -0.1851807 0.9824219
vn -0.1947021 -0.2213135 -0.9555664
vn -0.0526123 0.04428101 -0.9975586
vn -0.2457275 -0.3203125 -0.9150391
vn 0.02571106 0.1851807 -0.9824219
vn 0.7602539 0.04150391 0.6484375
vn 0.7905273 0.1429443 0.5952148
vn 0.6333008 -0.21875 0.7421875
vn 0.5415039 -0.3500977 0.7646484
vn -0.1918945 0.2474365 -0.949707
vn -0.2277832 0.3522949 -0.9077148
vn -0.08825684 -0.03491211 -0.9956055
vn -0.02932739 -0.1851807 -0.9824219
vn -0.7602539 -0.04150391 -0.6484375
vn -0.6333008 0.21875 -0.7421875
vn -0.7905273 -0.1429443 -0.5952148
vn -0.5415039 0.3500977 -0.7646484
vn 0.1918945 -0.2474365 0.949707
vn 0.08825684 0.03491211 0.9956055
vn 0.2277832 -0.3522949 0.9077148
vn 0.02932739 0.1851807 0.9824219
vn -0.9262695 0.2233887 0.3034668
vn -0.8798828 0.3220215 0.3498535
vn -0.9853516 -0.04159546 0.1660156
vn -0.9794922 -0.182251 0.08605957
vn 0.9262695 -0.2233887 -0.3034668
vn 0.9853516 0.04159546 -0.1660156
vn 0.8798828 -0.3220215 -0.3498535
vn 0.9794922 0.182251 -0.08605957
vn -0.7089844 0.4272461 -0.5610352
vn -0.7485352 0.364502 -0.5537109
vn -0.8208008 0.2202148 -0.5268555
vn -0.84375 0.15979 -0.512207
vn 0.7089844 -0.4272461 0.5610352
vn 0.8208008 -0.2202148 0.5268555
vn 0.7485352 -0.364502 0.5537109
vn 0.84375 -0.15979 0.512207
vn 0.8549805 0.3144531 -0.4123535
vn 0.8520508 0.2546387 -0.4570313
vn 0.8295898 0.1193848 -0.5458984
vn 0.8139648 0.06329346 -0.5776367
vn -0.8549805 -0.3144531 0.4123535
vn -0.8295898 -0.1193848 0.5458984
vn -0.8520508 -0.2546387 0.4570313
vn -0.8139648 -0.06329346 0.5776367
vn -0.9936523 0.0135498 0.111084
vn -0.7758789 0.01071167 -0.6303711
vn -0.9936523 0.0135498 0.111084
vn -0.0949707 0.001434326 -0.9956055
vn -0.7758789 0.01071167 -0.6303711
vn -0.0949707 0.001434326 -0.9956055
vn 0.9936523 -0.0135498 -0.111084
vn 0.9936523 -0.0135498 -0.111084
vn 0.7758789 -0.01071167 0.6303711
vn 0.0949707 -0.001434326 0.9956055
vn 0.0949707 -0.001434326 0.9956055
vn 0.7758789 -0.01071167 0.6303711

vt 0.8422852 0.7006836
vt 0.9926758 0.2159424
vt 0.9921875 0.08068848
vt 0.9970703 0.3566895
vt 0.9926758 0.2159424
vt 0.9921875 0.08068848
vt 0.8422852 0.7006836
vt 0.9970703 0.3566895
vt 0.9926758 0.2159424
vt 0.9921875 0.08068848
vt 0.8422852 0.7006836
vt 0.9970703 0.3566895
vt 0.9926758 0.2159424
vt 0.9921875 0.08068848
vt 0.8422852 0.7006836
vt 0.9970703 0.3566895
vt 0.9926758 0.2159424
vt 0.9921875 0.08068848
vt 0.8422852 0.7006836
vt 0.9970703 0.3566895
vt 0.9926758 0.2159424
vt 0.9921875 0.08068848
vt 0.8422852 0.7006836
vt 0.9970703 0.3566895
vt 0.9926758 0.2159424
vt 0.9921875 0.08068848
vt 0.8422852 0.7006836
vt 0.9970703 0.3566895
vt 0.9926758 0.2159424
vt 0.8422852 0.7006836
vt 0.9921875 0.08068848
vt 0.9970703 0.3566895
vt 0.9926758 0.2159424
vt 0.8422852 0.7006836
vt 0.9921875 0.08068848
vt 0.9970703 0.3566895
vt 0.9926758 0.2159424
vt 0.8422852 0.7006836
vt 0.9921875 0.08068848
vt 0.9970703 0.3566895
vt 0.9926758 0.2159424
vt 0.8422852 0.7006836
vt 0.9921875 0.08068848
vt 0.9970703 0.3566895
vt 0.9926758 0.2159424
vt 0.8422852 0.7006836
vt 0.9921875 0.08068848
vt 0.9970703 0.3566895
vt 0.9926758 0.2159424
vt 0.8422852 0.7006836
vt 0.9921875 0.08068848
vt 0.9970703 0.3566895
vt 0.9926758 0.2159424
vt 0.8422852 0.7006836
vt 0.9921875 0.08068848
vt 0.9970703 0.3566895
vt 0.9970703 0.3566895
vt 0.8422852 0.7006836
vt 0.9926758 0.2159424
vt 0.9921875 0.08068848
vt 0.9970703 0.3566895
vt 0.9926758 0.2159424
vt 0.8422852 0.7006836
vt 0.9921875 0.08068848
vt 0.9926758 0.2159424
vt 0.9921875 0.08068848
vt 0.8422852 0.7006836
vt 0.9970703 0.3566895
vt 0.9926758 0.2159424
vt 0.9921875 0.08068848
vt 0.8422852 0.7006836
vt 0.9970703 0.3566895
vt 0.9926758 0.2159424
vt 0.9921875 0.08068848
vt 0.8422852 0.7006836
vt 0.9970703 0.3566895
vt 0.9926758 0.2159424
vt 0.8422852 0.7006836
vt 0.9921875 0.08068848
vt 0.9970703 0.3566895
vt 0.9926758 0.2159424
vt 0.8422852 0.7006836
vt 0.9921875 0.08068848
vt 0.9970703 0.3566895
vt 0.9926758 0.2159424
vt 0.8422852 0.7006836
vt 0.9921875 0.08068848
vt 0.9970703 0.3566895
vt 0.9970703 0.3566895
vt 0.8422852 0.7006836
vt 0.9926758 0.2159424
vt 0.9921875 0.08068848
vt 0.9970703 0.3566895
vt 0.9926758 0.2159424
vt 0.8422852 0.7006836
vt 0.9921875 0.08068848
vt 0.9926758 0.2159424
vt 0.9921875 0.08068848
vt 0.8422852 0.7006836
vt 0.9970703 0.3566895
vt 0.9926758 0.2159424
vt 0.8422852 0.7006836
vt 0.9921875 0.08068848
vt 0.9970703 0.3566895
vt 0.9926758 0.2159424
vt 0.9921875 0.08068848
vt 0.8422852 0.7006836
vt 0.9970703 0.3566895
vt 0.9926758 0.2159424
vt 0.9921875 0.08068848
vt 0.8422852 0.7006836
vt 0.9970703 0.3566895
vt 0.9926758 0.2159424
vt 0.8422852 0.7006836
vt 0.9921875 0.08068848
vt 0.9970703 0.3566895
vt 0.9926758 0.2159424
vt 0.8422852 0.7006836
vt 0.9921875 0.08068848
vt 0.9970703 0.3566895
vt 0.9926758 0.2159424
vt 0.9921875 0.08068848
vt 0.8422852 0.7006836
vt 0.9970703 0.3566895
vt 0.9926758 0.2159424
vt 0.8422852 0.7006836
vt 0.9921875 0.08068848
vt 0.9970703 0.3566895
vt 0.9926758 0.2159424
vt 0.9921875 0.08068848
vt 0.8422852 0.7006836
vt 0.9970703 0.3566895
vt 0.9926758 0.2159424
vt 0.8422852 0.7006836
vt 0.9921875 0.08068848
vt 0.9970703 0.3566895
vt 0.9926758 0.2159424
vt 0.9921875 0.08068848
vt 0.8422852 0.7006836
vt 0.9970703 0.3566895
vt 0.9926758 0.2159424
vt 0.8422852 0.7006836
vt 0.9921875 0.08068848
vt 0.9970703 0.3566895
vt 0.9926758 0.2159424
vt 0.9921875 0.08068848
vt 0.8422852 0.7006836
vt 0.9970703 0.3566895
vt 0.9926758 0.2159424
vt 0.9921875 0.08068848
vt 0.8422852 0.7006836
vt 0.9970703 0.3566895
vt 0.9926758 0.2159424
vt 0.8422852 0.7006836
vt 0.9921875 0.08068848
vt 0.9970703 0.3566895
vt 0.9926758 0.2159424
vt 0.8422852 0.7006836
vt 0.9921875 0.08068848
vt 0.9970703 0.3566895
vt 0.9926758 0.2159424
vt 0.9921875 0.08068848
vt 0.8422852 0.7006836
vt 0.9970703 0.3566895
vt 0.9926758 0.2159424
vt 0.8422852 0.7006836
vt 0.9921875 0.08068848
vt 0.9970703 0.3566895
vt 0.9926758 0.2159424
vt 0.9921875 0.08068848
vt 0.8422852 0.7006836
vt 0.9970703 0.3566895
vt 0.9926758 0.2159424
vt 0.9921875 0.08068848
vt 0.8422852 0.7006836
vt 0.9970703 0.3566895
vt 0.9926758 0.2159424
vt 0.8422852 0.7006836
vt 0.9921875 0.08068848
vt 0.9970703 0.3566895
vt 0.9926758 0.2159424
vt 0.8422852 0.7006836
vt 0.9921875 0.08068848
vt 0.9970703 0.3566895
vt 0.9926758 0.2159424
vt 0.9921875 0.08068848
vt 0.8422852 0.7006836
vt 0.9970703 0.3566895
vt 0.9926758 0.2159424
vt 0.8422852 0.7006836
vt 0.9921875 0.08068848
vt 0.9970703 0.3566895
vt 0.9970703 0.3566895
vt 0.8422852 0.7006836
vt 0.9926758 0.2159424
vt 0.9921875 0.08068848
vt 0.9970703 0.3566895
vt 0.9926758 0.2159424
vt 0.8422852 0.7006836
vt 0.9921875 0.08068848
vt 0.9970703 0.3566895
vt 0.8422852 0.7006836
vt 0.9926758 0.2159424
vt 0.9921875 0.08068848
vt 0.9970703 0.3566895
vt 0.9926758 0.2159424
vt 0.8422852 0.7006836
vt 0.9921875 0.08068848
vt 0.9433594 0.3640137
vt 0.9321289 0.4221191
vt 0.9516602 0.3674316
vt 0.9433594 0.3640137
vt 0.9321289 0.4221191
vt 0.9516602 0.3674316
vt 0.9433594 0.3640137
vt 0.9516602 0.3674316
vt 0.9321289 0.4221191
vt 0.9433594 0.3640137
vt 0.9516602 0.3674316
vt 0.9321289 0.4221191

g MEP_Con_01_h_LOD_01(Clone)_12674_412
usemtl MEP_Con_01_h_LOD_01(Clone)_12674_412
usemap MEP_Con_01_h_LOD_01(Clone)_12674_412
f 1/1/1 3/3/3 2/2/2
f 4/4/4 1/1/1 2/2/2
f 5/5/5 7/7/7 6/6/6
f 8/8/8 7/7/7 5/5/5
f 9/9/9 11/11/11 10/10/10
f 12/12/12 11/11/11 9/9/9
f 13/13/13 15/15/15 14/14/14
f 16/16/16 15/15/15 13/13/13
f 17/17/17 19/19/19 18/18/18
f 20/20/20 19/19/19 17/17/17
f 21/21/21 23/23/23 22/22/22
f 24/24/24 23/23/23 21/21/21
f 25/25/25 27/27/27 26/26/26
f 28/28/28 27/27/27 25/25/25
f 29/29/29 31/31/31 30/30/30
f 32/32/32 29/29/29 30/30/30
f 33/33/33 35/35/35 34/34/34
f 36/36/36 33/33/33 34/34/34
f 37/37/37 39/39/39 38/38/38
f 40/40/40 37/37/37 38/38/38
f 41/41/41 43/43/43 42/42/42
f 44/44/44 41/41/41 42/42/42
f 45/45/45 47/47/47 46/46/46
f 48/48/48 45/45/45 46/46/46
f 49/49/49 51/51/51 50/50/50
f 52/52/52 49/49/49 50/50/50
f 53/53/53 55/55/55 54/54/54
f 56/56/56 53/53/53 54/54/54
f 57/57/57 59/59/59 58/58/58
f 59/59/59 60/60/60 58/58/58
f 61/61/61 63/63/63 62/62/62
f 62/62/62 63/63/63 64/64/64
f 65/65/65 67/67/67 66/66/66
f 68/68/68 67/67/67 65/65/65
f 69/69/69 71/71/71 70/70/70
f 72/72/72 71/71/71 69/69/69
f 73/73/73 75/75/75 74/74/74
f 76/76/76 75/75/75 73/73/73
f 77/77/77 79/79/79 78/78/78
f 80/80/80 77/77/77 78/78/78
f 81/81/81 83/83/83 82/82/82
f 84/84/84 81/81/81 82/82/82
f 85/85/85 87/87/87 86/86/86
f 88/88/88 85/85/85 86/86/86
f 89/89/89 91/91/91 90/90/90
f 91/91/91 92/92/92 90/90/90
f 93/93/93 95/95/95 94/94/94
f 94/94/94 95/95/95 96/96/96
f 97/97/97 99/99/99 98/98/98
f 100/100/100 99/99/99 97/97/97
f 101/101/101 103/103/103 102/102/102
f 104/104/104 101/101/101 102/102/102
f 105/105/105 107/107/107 106/106/106
f 108/108/108 107/107/107 105/105/105
f 109/109/109 111/111/111 110/110/110
f 112/112/112 111/111/111 109/109/109
f 113/113/113 115/115/115 114/114/114
f 116/116/116 113/113/113 114/114/114
f 117/117/117 119/119/119 118/118/118
f 120/120/120 117/117/117 118/118/118
f 121/121/121 123/123/123 122/122/122
f 124/124/124 123/123/123 121/121/121
f 125/125/125 127/127/127 126/126/126
f 128/128/128 125/125/125 126/126/126
f 129/129/129 131/131/131 130/130/130
f 132/132/132 131/131/131 129/129/129
f 133/133/133 135/135/135 134/134/134
f 136/136/136 133/133/133 134/134/134
f 137/137/137 139/139/139 138/138/138
f 140/140/140 139/139/139 137/137/137
f 141/141/141 143/143/143 142/142/142
f 144/144/144 141/141/141 142/142/142
f 145/145/145 147/147/147 146/146/146
f 148/148/148 147/147/147 145/145/145
f 149/149/149 151/151/151 150/150/150
f 152/152/152 151/151/151 149/149/149
f 153/153/153 155/155/155 154/154/154
f 156/156/156 153/153/153 154/154/154
f 157/157/157 159/159/159 158/158/158
f 160/160/160 157/157/157 158/158/158
f 161/161/161 163/163/163 162/162/162
f 164/164/164 163/163/163 161/161/161
f 165/165/165 167/167/167 166/166/166
f 168/168/168 165/165/165 166/166/166
f 169/169/169 171/171/171 170/170/170
f 172/172/172 171/171/171 169/169/169
f 173/173/173 175/175/175 174/174/174
f 176/176/176 175/175/175 173/173/173
f 177/177/177 179/179/179 178/178/178
f 180/180/180 177/177/177 178/178/178
f 181/181/181 183/183/183 182/182/182
f 184/184/184 181/181/181 182/182/182
f 185/185/185 187/187/187 186/186/186
f 188/188/188 187/187/187 185/185/185
f 189/189/189 191/191/191 190/190/190
f 192/192/192 189/189/189 190/190/190
f 193/193/193 195/195/195 194/194/194
f 195/195/195 196/196/196 194/194/194
f 197/197/197 199/199/199 198/198/198
f 198/198/198 199/199/199 200/200/200
f 201/201/201 203/203/203 202/202/202
f 203/203/203 204/204/204 202/202/202
f 205/205/205 207/207/207 206/206/206
f 206/206/206 207/207/207 208/208/208
f 209/209/209 211/211/211 210/210/210
f 212/212/212 214/214/214 213/213/213
f 215/215/215 217/217/217 216/216/216
f 218/218/218 220/220/220 219/219/219
