#MEP_ConTrunk_01_h_13014_108.obj

v 0.000959345 -0.2774608 0.6593503
v -0.5683967 -0.2774608 0.3306297
v 0.0001539487 0.5697012 0.3851332
v -0.3312893 0.5601592 0.1929515
v -0.171178 8.014688 0.2789777
v 0.1277172 8.016972 0.2921479
v -0.2835917 7.961687 -0.02117678
v 0.2877033 24.00301 -0.04293312
v 0.2877033 24.00301 -0.04293312
v -0.5683938 -0.2774608 -0.3268023
v 0.001743609 0.5519302 -0.381359
v -0.3305418 0.5512722 -0.1902667
v 0.0009652685 -0.2774608 -0.6555135
v 0.03056421 7.948495 -0.267294
v -0.2835917 7.961687 -0.02117678
v 0.2877033 24.00301 -0.04293312
v -0.5683967 -0.2774608 0.3306297
v -0.3305418 0.5512722 -0.1902667
v -0.3312893 0.5601592 0.1929515
v -0.5683938 -0.2774608 -0.3268023
v -0.2835917 7.961687 -0.02117678
v 0.5702909 -0.2774608 -0.3267946
v 0.3332461 0.5614712 -0.1891435
v 0.0009652685 -0.2774608 -0.6555135
v 0.001743609 0.5519302 -0.381359
v 0.03056421 7.948495 -0.267294
v 0.312324 8.008615 -0.0006571184
v 0.2877033 24.00301 -0.04293312
v 0.5702909 -0.2774608 -0.3267946
v 0.5702879 -0.2774608 0.3306374
v 0.3332461 0.5614712 -0.1891435
v 0.3324055 0.5703561 0.1941001
v 0.000959345 -0.2774608 0.6593503
v 0.0001539487 0.5697012 0.3851332
v 0.1277172 8.016972 0.2921479
v 0.312324 8.008615 -0.0006571184
v 0.2877033 24.00301 -0.04293312

vn 0.05322266 0.3076172 0.9501953
vn -0.7958984 0.3110352 0.519043
vn 0.05233765 0.1650391 0.9848633
vn -0.8286133 0.1680908 0.5341797
vn -0.5444336 0.0256958 0.8383789
vn 0.5097656 0.01535034 0.8603516
vn -0.9760742 0.02792358 -0.2155762
vn 0.01239777 1 -0.005737305
vn 0.01239777 1 -0.005737305
vn -0.8476563 0.3144531 -0.4277344
vn -0.05599976 0.1760254 -0.9829102
vn -0.8769531 0.1739502 -0.4475098
vn -0.05392456 0.3129883 -0.9482422
vn -0.01300049 0.02108765 -0.9995117
vn -0.9760742 0.02792358 -0.2155762
vn 0.01239777 1 -0.005737305
vn -0.7958984 0.3110352 0.519043
vn -0.8769531 0.1739502 -0.4475098
vn -0.8286133 0.1680908 0.5341797
vn -0.8476563 0.3144531 -0.4277344
vn -0.9760742 0.02792358 -0.2155762
vn 0.7954102 0.3105469 -0.5205078
vn 0.8237305 0.1697998 -0.5415039
vn -0.05392456 0.3129883 -0.9482422
vn -0.05599976 0.1760254 -0.9829102
vn -0.01300049 0.02108765 -0.9995117
vn 0.9838867 0.01165771 -0.1796875
vn 0.01239777 1 -0.005737305
vn 0.7954102 0.3105469 -0.5205078
vn 0.8496094 0.3085938 0.4282227
vn 0.8237305 0.1697998 -0.5415039
vn 0.8803711 0.1645508 0.4448242
vn 0.05322266 0.3076172 0.9501953
vn 0.05233765 0.1650391 0.9848633
vn 0.5097656 0.01535034 0.8603516
vn 0.9838867 0.01165771 -0.1796875
vn 0.01239777 1 -0.005737305

vt 0.333252 0.003404617
vt 0.166748 0.003404617
vt 0.333252 0.2583008
vt 0.166748 0.2575684
vt 0.166748 2.626953
vt 0.333252 2.626953
vt 5.799532E-05 2.625
vt 0.166748 6.253906
vt 5.799532E-05 6.253906
vt 1 0.003404617
vt 0.8334961 0.2558594
vt 1 0.2563477
vt 0.8334961 0.003404617
vt 0.7290039 2.625
vt 1 2.625
vt 0.8334961 6.253906
vt 0.166748 0.003404617
vt 5.799532E-05 0.2563477
vt 0.166748 0.2575684
vt 5.799532E-05 0.003404617
vt 5.799532E-05 2.625
vt 0.6665039 0.003404617
vt 0.6665039 0.2563477
vt 0.8334961 0.003404617
vt 0.8334961 0.2558594
vt 0.7290039 2.625
vt 0.5 2.626953
vt 0.5 6.253906
vt 0.6665039 0.003404617
vt 0.5 0.003404617
vt 0.6665039 0.2563477
vt 0.5 0.2575684
vt 0.333252 0.003404617
vt 0.333252 0.2583008
vt 0.333252 2.626953
vt 0.5 2.626953
vt 0.333252 6.253906

g MEP_ConTrunk_01_h_13014_108
usemtl MEP_ConTrunk_01_h_13014_108
usemap MEP_ConTrunk_01_h_13014_108
f 1/1/1 3/3/3 2/2/2
f 3/3/3 4/4/4 2/2/2
f 4/4/4 3/3/3 5/5/5
f 3/3/3 6/6/6 5/5/5
f 4/4/4 5/5/5 7/7/7
f 6/6/6 8/8/8 5/5/5
f 5/5/5 9/9/9 7/7/7
f 10/10/10 12/12/12 11/11/11
f 13/13/13 10/10/10 11/11/11
f 11/11/11 12/12/12 14/14/14
f 12/12/12 15/15/15 14/14/14
f 15/15/15 16/16/16 14/14/14
f 17/17/17 19/19/19 18/18/18
f 20/20/20 17/17/17 18/18/18
f 18/18/18 19/19/19 21/21/21
f 22/22/22 24/24/24 23/23/23
f 24/24/24 25/25/25 23/23/23
f 25/25/25 26/26/26 23/23/23
f 23/23/23 26/26/26 27/27/27
f 26/26/26 28/28/28 27/27/27
f 29/29/29 31/31/31 30/30/30
f 31/31/31 32/32/32 30/30/30
f 30/30/30 32/32/32 33/33/33
f 32/32/32 34/34/34 33/33/33
f 34/34/34 32/32/32 35/35/35
f 32/32/32 36/36/36 35/35/35
f 32/32/32 31/31/31 36/36/36
f 36/36/36 37/37/37 35/35/35
