#MEP_ConTrunk_01_h_14907_143.obj

v 0.000924722 -0.2774611 0.6593347
v -0.5684023 -0.2774611 0.3306228
v 0.0001619801 0.569701 0.3851242
v -0.3313241 0.560159 0.1929638
v -0.1711863 8.014688 0.2789719
v 0.1276838 8.016972 0.2921433
v -0.2835898 7.961687 -0.02116914
v 0.2877062 24.00301 -0.04294808
v 0.2877062 24.00301 -0.04294808
v -0.5684098 -0.2774611 -0.3267982
v 0.001737745 0.55193 -0.3813534
v -0.3305667 0.5512719 -0.1902772
v 0.0009404375 -0.2774611 -0.6555091
v 0.03054309 7.948495 -0.2672959
v -0.2835898 7.961687 -0.02116914
v 0.2877062 24.00301 -0.04294808
v -0.5684023 -0.2774611 0.3306228
v -0.3305667 0.5512719 -0.1902772
v -0.3313241 0.560159 0.1929638
v -0.5684098 -0.2774611 -0.3267982
v -0.2835898 7.961687 -0.02116914
v 0.5702677 -0.2774611 -0.326801
v 0.3332208 0.561471 -0.1891512
v 0.0009404375 -0.2774611 -0.6555091
v 0.001737745 0.55193 -0.3813534
v 0.03054309 7.948495 -0.2672959
v 0.312308 8.008615 -0.0006582519
v 0.2877062 24.00301 -0.04294808
v 0.5702677 -0.2774611 -0.326801
v 0.5702749 -0.2774611 0.3306239
v 0.3332208 0.561471 -0.1891512
v 0.3324022 0.5703559 0.1940892
v 0.000924722 -0.2774611 0.6593347
v 0.0001619801 0.569701 0.3851242
v 0.1276838 8.016972 0.2921433
v 0.312308 8.008615 -0.0006582519
v 0.2877062 24.00301 -0.04294808

vn 0.06860352 0.3076172 0.9492188
vn -0.7875977 0.3110352 0.5317383
vn 0.06829834 0.1650391 0.9838867
vn -0.8198242 0.1680908 0.5473633
vn -0.5307617 0.0256958 0.847168
vn 0.5234375 0.01535034 0.8520508
vn -0.9794922 0.02792358 -0.199707
vn 0.01229858 1 -0.005939484
vn 0.01229858 1 -0.005939484
vn -0.8544922 0.3144531 -0.4140625
vn -0.07196045 0.1760254 -0.9819336
vn -0.8842773 0.1739502 -0.4333496
vn -0.0692749 0.3129883 -0.9472656
vn -0.02922058 0.02108765 -0.9995117
vn -0.9794922 0.02792358 -0.199707
vn 0.01229858 1 -0.005939484
vn -0.7875977 0.3110352 0.5317383
vn -0.8842773 0.1739502 -0.4333496
vn -0.8198242 0.1680908 0.5473633
vn -0.8544922 0.3144531 -0.4140625
vn -0.9794922 0.02792358 -0.199707
vn 0.7866211 0.3105469 -0.5336914
vn 0.8144531 0.1697998 -0.5546875
vn -0.0692749 0.3129883 -0.9472656
vn -0.07196045 0.1760254 -0.9819336
vn -0.02922058 0.02108765 -0.9995117
vn 0.9804688 0.01165771 -0.1956787
vn 0.01229858 1 -0.005939484
vn 0.7866211 0.3105469 -0.5336914
vn 0.8564453 0.3085938 0.4143066
vn 0.8144531 0.1697998 -0.5546875
vn 0.8876953 0.1645508 0.4304199
vn 0.06860352 0.3076172 0.9492188
vn 0.06829834 0.1650391 0.9838867
vn 0.5234375 0.01535034 0.8520508
vn 0.9804688 0.01165771 -0.1956787
vn 0.01229858 1 -0.005939484

vt 0.333252 0.003404617
vt 0.166748 0.003404617
vt 0.333252 0.2583008
vt 0.166748 0.2575684
vt 0.166748 2.626953
vt 0.333252 2.626953
vt 5.799532E-05 2.625
vt 0.166748 6.253906
vt 5.799532E-05 6.253906
vt 1 0.003404617
vt 0.8334961 0.2558594
vt 1 0.2563477
vt 0.8334961 0.003404617
vt 0.7290039 2.625
vt 1 2.625
vt 0.8334961 6.253906
vt 0.166748 0.003404617
vt 5.799532E-05 0.2563477
vt 0.166748 0.2575684
vt 5.799532E-05 0.003404617
vt 5.799532E-05 2.625
vt 0.6665039 0.003404617
vt 0.6665039 0.2563477
vt 0.8334961 0.003404617
vt 0.8334961 0.2558594
vt 0.7290039 2.625
vt 0.5 2.626953
vt 0.5 6.253906
vt 0.6665039 0.003404617
vt 0.5 0.003404617
vt 0.6665039 0.2563477
vt 0.5 0.2575684
vt 0.333252 0.003404617
vt 0.333252 0.2583008
vt 0.333252 2.626953
vt 0.5 2.626953
vt 0.333252 6.253906

g MEP_ConTrunk_01_h_14907_143
usemtl MEP_ConTrunk_01_h_14907_143
usemap MEP_ConTrunk_01_h_14907_143
f 1/1/1 3/3/3 2/2/2
f 3/3/3 4/4/4 2/2/2
f 4/4/4 3/3/3 5/5/5
f 3/3/3 6/6/6 5/5/5
f 4/4/4 5/5/5 7/7/7
f 6/6/6 8/8/8 5/5/5
f 5/5/5 9/9/9 7/7/7
f 10/10/10 12/12/12 11/11/11
f 13/13/13 10/10/10 11/11/11
f 11/11/11 12/12/12 14/14/14
f 12/12/12 15/15/15 14/14/14
f 15/15/15 16/16/16 14/14/14
f 17/17/17 19/19/19 18/18/18
f 20/20/20 17/17/17 18/18/18
f 18/18/18 19/19/19 21/21/21
f 22/22/22 24/24/24 23/23/23
f 24/24/24 25/25/25 23/23/23
f 25/25/25 26/26/26 23/23/23
f 23/23/23 26/26/26 27/27/27
f 26/26/26 28/28/28 27/27/27
f 29/29/29 31/31/31 30/30/30
f 31/31/31 32/32/32 30/30/30
f 30/30/30 32/32/32 33/33/33
f 32/32/32 34/34/34 33/33/33
f 34/34/34 32/32/32 35/35/35
f 32/32/32 36/36/36 35/35/35
f 32/32/32 31/31/31 36/36/36
f 36/36/36 37/37/37 35/35/35
