#MEP_Con_01_d_LOD_02(Clone)_13875_407.obj

v -0.08019824 -0.5056339 -0.4107037
v 0.2674727 25.89249 0.1725668
v -0.04638 -0.5109879 0.4552735
v 0.4119083 -0.5056339 -0.07356331
v 0.2674727 25.89249 0.1725668
v -0.4544879 -0.5109879 -0.05369105
v -0.08019824 -0.5056339 -0.4107037
v -0.04638 -0.5109879 0.4552735
v 0.2674727 25.89249 0.1725668
v 0.4119083 -0.5056339 -0.07356331
v -0.4544879 -0.5109879 -0.05369105
v 0.2674727 25.89249 0.1725668
v -1.31218 22.14209 -3.090906
v 0.2952485 22.1108 3.861377
v 1.260271 31.69208 2.402937
v -1.430709 31.06985 -1.938223
v 3.068601 22.20161 0.2798205
v -4.062635 22.24152 0.2209139
v -1.393438 31.55883 0.9901064
v 2.110429 31.41819 -0.9953342
v -2.505415 18.03639 6.018255
v 2.951751 18.47284 -6.52417
v 1.613809 25.98559 -3.503547
v 0.7535491 25.84997 3.10407
v -4.738595 17.61271 -2.888827
v 5.471882 18.45897 3.43003
v 3.154688 26.49347 2.083195
v -3.677468 25.86773 -1.334004
v -1.31218 22.14209 -3.090906
v 1.260271 31.69208 2.402937
v 0.2952485 22.1108 3.861377
v -1.430709 31.06985 -1.938223
v 3.068601 22.20161 0.2798205
v -1.393438 31.55883 0.9901064
v -4.062635 22.24152 0.2209139
v 2.110429 31.41819 -0.9953342
v -2.505415 18.03639 6.018255
v 1.613809 25.98559 -3.503547
v 2.951751 18.47284 -6.52417
v 0.7535491 25.84997 3.10407
v -4.738595 17.61271 -2.888827
v 3.154688 26.49347 2.083195
v 5.471882 18.45897 3.43003
v -3.677468 25.86773 -1.334004

vn -0.9824219 0.01226807 0.1855469
vn -0.8212891 0.01528931 -0.5703125
vn -0.9824219 0.01226807 0.1855469
vn -0.1696777 0.009185791 -0.9853516
vn -0.8212891 0.01528931 -0.5703125
vn -0.1696777 0.009185791 -0.9853516
vn 0.9824219 -0.01226807 -0.1855469
vn 0.9824219 -0.01226807 -0.1855469
vn 0.8212891 -0.01528931 0.5703125
vn 0.1696777 -0.009185791 0.9853516
vn 0.1696777 -0.009185791 0.9853516
vn 0.8212891 -0.01528931 0.5703125
vn 0.8852539 -0.06695557 -0.4604492
vn 0.9223633 -0.1313477 -0.3632813
vn 0.8432617 -0.01147461 -0.5371094
vn 0.7543945 0.08007813 -0.6513672
vn 0.2705078 -0.0151062 0.9624023
vn 0.1379395 -0.07977295 0.9873047
vn 0.4433594 0.07446289 0.8930664
vn 0.6113281 0.1693115 0.7729492
vn -0.9780273 0.1546631 -0.1384277
vn -0.9658203 -0.002838135 -0.2600098
vn -0.9790039 0.1181641 -0.1674805
vn -0.9379883 0.3459473 0.02398682
vn 0.3515625 0.0574646 -0.9345703
vn 0.3950195 0.009002686 -0.918457
vn 0.3601074 0.04794312 -0.9316406
vn 0.300293 0.1120605 -0.9472656
vn -0.8852539 0.06695557 0.4604492
vn -0.8432617 0.01147461 0.5371094
vn -0.9223633 0.1313477 0.3632813
vn -0.7543945 -0.08007813 0.6513672
vn -0.2705078 0.0151062 -0.9624023
vn -0.4433594 -0.07446289 -0.8930664
vn -0.1379395 0.07977295 -0.9873047
vn -0.6113281 -0.1693115 -0.7729492
vn 0.9780273 -0.1546631 0.1384277
vn 0.9790039 -0.1181641 0.1674805
vn 0.9658203 0.002838135 0.2600098
vn 0.9379883 -0.3459473 -0.02398682
vn -0.3515625 -0.0574646 0.9345703
vn -0.3601074 -0.04794312 0.9316406
vn -0.3950195 -0.009002686 0.918457
vn -0.300293 -0.1120605 0.9472656

vt 0.9433594 0.3640137
vt 0.9321289 0.4221191
vt 0.9516602 0.3674316
vt 0.9433594 0.3640137
vt 0.9321289 0.4221191
vt 0.9516602 0.3674316
vt 0.9433594 0.3640137
vt 0.9516602 0.3674316
vt 0.9321289 0.4221191
vt 0.9433594 0.3640137
vt 0.9516602 0.3674316
vt 0.9321289 0.4221191
vt 0.001989365 0.007873535
vt 0.9863281 0.002599716
vt 0.7783203 0.996582
vt 0.1824951 0.9921875
vt 0.001989365 0.007873535
vt 0.9863281 0.002599716
vt 0.7783203 0.996582
vt 0.1824951 0.9921875
vt 0.001989365 0.007873535
vt 0.9863281 0.002599716
vt 0.7783203 0.996582
vt 0.1824951 0.9921875
vt 0.001989365 0.007873535
vt 0.9863281 0.002599716
vt 0.7783203 0.996582
vt 0.1824951 0.9921875
vt 0.001989365 0.007873535
vt 0.7783203 0.996582
vt 0.9863281 0.002599716
vt 0.1824951 0.9921875
vt 0.001989365 0.007873535
vt 0.7783203 0.996582
vt 0.9863281 0.002599716
vt 0.1824951 0.9921875
vt 0.001989365 0.007873535
vt 0.7783203 0.996582
vt 0.9863281 0.002599716
vt 0.1824951 0.9921875
vt 0.001989365 0.007873535
vt 0.7783203 0.996582
vt 0.9863281 0.002599716
vt 0.1824951 0.9921875

g MEP_Con_01_d_LOD_02(Clone)_13875_407
usemtl MEP_Con_01_d_LOD_02(Clone)_13875_407
usemap MEP_Con_01_d_LOD_02(Clone)_13875_407
f 1/1/1 3/3/3 2/2/2
f 4/4/4 6/6/6 5/5/5
f 7/7/7 9/9/9 8/8/8
f 10/10/10 12/12/12 11/11/11
f 13/13/13 15/15/15 14/14/14
f 16/16/16 15/15/15 13/13/13
f 17/17/17 19/19/19 18/18/18
f 20/20/20 19/19/19 17/17/17
f 21/21/21 23/23/23 22/22/22
f 24/24/24 23/23/23 21/21/21
f 25/25/25 27/27/27 26/26/26
f 28/28/28 27/27/27 25/25/25
f 29/29/29 31/31/31 30/30/30
f 32/32/32 29/29/29 30/30/30
f 33/33/33 35/35/35 34/34/34
f 36/36/36 33/33/33 34/34/34
f 37/37/37 39/39/39 38/38/38
f 40/40/40 37/37/37 38/38/38
f 41/41/41 43/43/43 42/42/42
f 44/44/44 41/41/41 42/42/42
