#MEP_Con_01_f_LOD_02(Clone)_12164_285.obj

v 1.207716 11.8727 -1.938243
v -1.258468 20.74399 1.48249
v 0.3704576 11.94678 2.309902
v 1.792855 20.68254 -1.119133
v -2.081292 11.88785 -0.7485002
v 1.60825 20.67806 0.7281305
v 2.488728 11.75238 0.916844
v -1.396127 20.76712 -0.3666941
v -2.139302 6.102907 5.123919
v 2.138239 5.805046 -4.677751
v 1.279148 14.63286 -2.889715
v 0.4644433 14.15287 2.291832
v -4.344401 6.037307 -2.191798
v 4.661161 6.037306 3.588135
v 2.389137 14.78854 1.609306
v -2.41011 14.83608 -1.032912
v 1.207716 11.8727 -1.938243
v 0.3704576 11.94678 2.309902
v -1.258468 20.74399 1.48249
v 1.792855 20.68254 -1.119133
v -2.081292 11.88785 -0.7485002
v 2.488728 11.75238 0.916844
v 1.60825 20.67806 0.7281305
v -1.396127 20.76712 -0.3666941
v -2.139302 6.102907 5.123919
v 1.279148 14.63286 -2.889715
v 2.138239 5.805046 -4.677751
v 0.4644433 14.15287 2.291832
v -4.344401 6.037307 -2.191798
v 2.389137 14.78854 1.609306
v 4.661161 6.037306 3.588135
v -2.41011 14.83608 -1.032912
v -0.05432736 -0.137548 -0.4407604
v 0.2283314 19.82228 0.1680847
v -0.02296 -0.142512 0.3622117
v 0.4020056 -0.137548 -0.1281419
v 0.2283314 19.82228 0.1680847
v -0.4013797 -0.142512 -0.1097173
v -0.05432736 -0.137548 -0.4407604
v -0.02296 -0.142512 0.3622117
v 0.2283314 19.82228 0.1680847
v 0.4020056 -0.137548 -0.1281419
v -0.4013797 -0.142512 -0.1097173
v 0.2283314 19.82228 0.1680847

vn -0.7895508 -0.1195679 -0.6020508
vn -0.5722656 0.02542114 -0.8198242
vn -0.8725586 -0.1958008 -0.447998
vn -0.40625 0.1130981 -0.9067383
vn -0.5913086 -0.01394653 0.8061523
vn -0.5913086 -0.01394653 0.8061523
vn -0.5913086 -0.01394653 0.8061523
vn -0.5913086 -0.01394653 0.8061523
vn -0.8203125 0.08380127 -0.565918
vn -0.7685547 -0.008209229 -0.6401367
vn -0.8310547 0.1067505 -0.5458984
vn -0.8828125 0.2648926 -0.3879395
vn 0.7373047 -0.02877808 -0.6748047
vn 0.7529297 -0.04998779 -0.65625
vn 0.7333984 -0.02337646 -0.6791992
vn 0.7080078 0.009307861 -0.7060547
vn 0.7895508 0.1195679 0.6020508
vn 0.8725586 0.1958008 0.447998
vn 0.5722656 -0.02542114 0.8198242
vn 0.40625 -0.1130981 0.9067383
vn 0.5913086 0.01394653 -0.8061523
vn 0.5913086 0.01394653 -0.8061523
vn 0.5913086 0.01394653 -0.8061523
vn 0.5913086 0.01394653 -0.8061523
vn 0.8203125 -0.08380127 0.565918
vn 0.8310547 -0.1067505 0.5458984
vn 0.7685547 0.008209229 0.6401367
vn 0.8828125 -0.2648926 0.3879395
vn -0.7373047 0.02877808 0.6748047
vn -0.7333984 0.02337646 0.6791992
vn -0.7529297 0.04998779 0.65625
vn -0.7080078 -0.009307861 0.7060547
vn -0.9702148 0.01293945 -0.2416992
vn -0.5083008 0.01965332 -0.8608398
vn -0.9702148 0.01293945 -0.2416992
vn 0.2573242 0.01461792 -0.9663086
vn -0.5083008 0.01965332 -0.8608398
vn 0.2573242 0.01461792 -0.9663086
vn 0.9702148 -0.01293945 0.2416992
vn 0.9702148 -0.01293945 0.2416992
vn 0.5083008 -0.01965332 0.8608398
vn -0.2573242 -0.01461792 0.9663086
vn -0.2573242 -0.01461792 0.9663086
vn 0.5083008 -0.01965332 0.8608398

vt 0.001989365 0.007873535
vt 0.7783203 0.996582
vt 0.9863281 0.002599716
vt 0.1824951 0.9921875
vt 0.001989365 0.007873535
vt 0.7783203 0.996582
vt 0.9863281 0.002599716
vt 0.1824951 0.9921875
vt 0.001989365 0.007873535
vt 0.9863281 0.002599716
vt 0.7783203 0.996582
vt 0.1824951 0.9921875
vt 0.001989365 0.007873535
vt 0.9863281 0.002599716
vt 0.7783203 0.996582
vt 0.1824951 0.9921875
vt 0.001989365 0.007873535
vt 0.9863281 0.002599716
vt 0.7783203 0.996582
vt 0.1824951 0.9921875
vt 0.001989365 0.007873535
vt 0.9863281 0.002599716
vt 0.7783203 0.996582
vt 0.1824951 0.9921875
vt 0.001989365 0.007873535
vt 0.7783203 0.996582
vt 0.9863281 0.002599716
vt 0.1824951 0.9921875
vt 0.001989365 0.007873535
vt 0.7783203 0.996582
vt 0.9863281 0.002599716
vt 0.1824951 0.9921875
vt 0.9433594 0.3640137
vt 0.9321289 0.4221191
vt 0.9516602 0.3674316
vt 0.9433594 0.3640137
vt 0.9321289 0.4221191
vt 0.9516602 0.3674316
vt 0.9433594 0.3640137
vt 0.9516602 0.3674316
vt 0.9321289 0.4221191
vt 0.9433594 0.3640137
vt 0.9516602 0.3674316
vt 0.9321289 0.4221191

g MEP_Con_01_f_LOD_02(Clone)_12164_285
usemtl MEP_Con_01_f_LOD_02(Clone)_12164_285
usemap MEP_Con_01_f_LOD_02(Clone)_12164_285
f 1/1/1 3/3/3 2/2/2
f 4/4/4 1/1/1 2/2/2
f 5/5/5 7/7/7 6/6/6
f 8/8/8 5/5/5 6/6/6
f 9/9/9 11/11/11 10/10/10
f 12/12/12 11/11/11 9/9/9
f 13/13/13 15/15/15 14/14/14
f 16/16/16 15/15/15 13/13/13
f 17/17/17 19/19/19 18/18/18
f 20/20/20 19/19/19 17/17/17
f 21/21/21 23/23/23 22/22/22
f 24/24/24 23/23/23 21/21/21
f 25/25/25 27/27/27 26/26/26
f 28/28/28 25/25/25 26/26/26
f 29/29/29 31/31/31 30/30/30
f 32/32/32 29/29/29 30/30/30
f 33/33/33 35/35/35 34/34/34
f 36/36/36 38/38/38 37/37/37
f 39/39/39 41/41/41 40/40/40
f 42/42/42 44/44/44 43/43/43
