#MEP_ConTrunk_01_f_14037_59.obj

v 0.0009595431 -0.277461 0.6593418
v -0.5683927 -0.277461 0.3306236
v 0.002479244 0.571019 0.3749826
v -0.3262115 0.561558 0.1844317
v -0.08080976 8.782871 0.261792
v 0.1649316 8.784748 0.2726291
v -0.1732296 8.739295 0.01502636
v 0.301241 20.26084 0.2109408
v 0.301241 20.26084 0.2109408
v -0.5683892 -0.277461 -0.3267916
v 0.004039689 0.553398 -0.3850632
v -0.3254542 0.552746 -0.1955889
v 0.0009465297 -0.277461 -0.6555122
v 0.08505779 8.728449 -0.1873249
v -0.1732296 8.739295 0.01502636
v 0.301241 20.26084 0.2109408
v -0.5683927 -0.277461 0.3306236
v -0.3254542 0.552746 -0.1955889
v -0.3262115 0.561558 0.1844317
v -0.5683892 -0.277461 -0.3267916
v -0.1732296 8.739295 0.01502636
v 0.5702987 -0.277461 -0.326794
v 0.3327425 0.562858 -0.1944804
v 0.0009465297 -0.277461 -0.6555122
v 0.004039689 0.553398 -0.3850632
v 0.08505779 8.728449 -0.1873249
v 0.3167098 8.777877 0.03189258
v 0.301241 20.26084 0.2109408
v 0.5702987 -0.277461 -0.326794
v 0.5702928 -0.277461 0.3306241
v 0.3327425 0.562858 -0.1944804
v 0.3319395 0.57167 0.1855447
v 0.0009595431 -0.277461 0.6593418
v 0.002479244 0.571019 0.3749826
v 0.1649316 8.784748 0.2726291
v 0.3167098 8.777877 0.03189258
v 0.301241 20.26084 0.2109408

vn -0.6972656 0.3173828 0.6425781
vn -0.9047852 0.3193359 -0.2819824
vn -0.7265625 0.1719971 0.6655273
vn -0.9365234 0.1781006 -0.3012695
vn -0.9936523 0.02322388 0.1118774
vn -0.3383789 0.006652832 0.940918
vn -0.4511719 0.03915405 -0.8916016
vn 0.004947662 0.9995117 0.02246094
vn 0.004947662 0.9995117 0.02246094
vn -0.2106934 0.3156738 -0.925293
vn 0.722168 0.1777344 -0.668457
vn -0.2108154 0.1810303 -0.9604492
vn 0.6982422 0.3085938 -0.6459961
vn 0.7631836 0.03442383 -0.6450195
vn -0.4511719 0.03915405 -0.8916016
vn 0.004947662 0.9995117 0.02246094
vn -0.9047852 0.3193359 -0.2819824
vn -0.2108154 0.1810303 -0.9604492
vn -0.9365234 0.1781006 -0.3012695
vn -0.2106934 0.3156738 -0.925293
vn -0.4511719 0.03915405 -0.8916016
vn 0.9082031 0.3078613 0.2841797
vn 0.9418945 0.1693115 0.2895508
vn 0.6982422 0.3085938 -0.6459961
vn 0.722168 0.1777344 -0.668457
vn 0.7631836 0.03442383 -0.6450195
vn 0.7661133 0.01202393 0.6425781
vn 0.004947662 0.9995117 0.02246094
vn 0.9082031 0.3078613 0.2841797
vn 0.2073975 0.3127441 0.9267578
vn 0.9418945 0.1693115 0.2895508
vn 0.2181396 0.1663818 0.9614258
vn -0.6972656 0.3173828 0.6425781
vn -0.7265625 0.1719971 0.6655273
vn -0.3383789 0.006652832 0.940918
vn 0.7661133 0.01202393 0.6425781
vn 0.004947662 0.9995117 0.02246094

vt 0.333252 0.003404617
vt 0.166748 0.003404617
vt 0.333252 0.2583008
vt 0.166748 0.2575684
vt 0.166748 2.626953
vt 0.333252 2.626953
vt 5.799532E-05 2.625
vt 0.166748 6.253906
vt 5.799532E-05 6.253906
vt 1 0.003404617
vt 0.8334961 0.2558594
vt 1 0.2563477
vt 0.8334961 0.003404617
vt 0.7290039 2.625
vt 1 2.625
vt 0.8334961 6.253906
vt 0.166748 0.003404617
vt 5.799532E-05 0.2563477
vt 0.166748 0.2575684
vt 5.799532E-05 0.003404617
vt 5.799532E-05 2.625
vt 0.6665039 0.003404617
vt 0.6665039 0.2563477
vt 0.8334961 0.003404617
vt 0.8334961 0.2558594
vt 0.7290039 2.625
vt 0.5 2.626953
vt 0.5 6.253906
vt 0.6665039 0.003404617
vt 0.5 0.003404617
vt 0.6665039 0.2563477
vt 0.5 0.2575684
vt 0.333252 0.003404617
vt 0.333252 0.2583008
vt 0.333252 2.626953
vt 0.5 2.626953
vt 0.333252 6.253906

g MEP_ConTrunk_01_f_14037_59
usemtl MEP_ConTrunk_01_f_14037_59
usemap MEP_ConTrunk_01_f_14037_59
f 1/1/1 3/3/3 2/2/2
f 3/3/3 4/4/4 2/2/2
f 4/4/4 3/3/3 5/5/5
f 3/3/3 6/6/6 5/5/5
f 4/4/4 5/5/5 7/7/7
f 6/6/6 8/8/8 5/5/5
f 5/5/5 9/9/9 7/7/7
f 10/10/10 12/12/12 11/11/11
f 13/13/13 10/10/10 11/11/11
f 11/11/11 12/12/12 14/14/14
f 12/12/12 15/15/15 14/14/14
f 15/15/15 16/16/16 14/14/14
f 17/17/17 19/19/19 18/18/18
f 20/20/20 17/17/17 18/18/18
f 18/18/18 19/19/19 21/21/21
f 22/22/22 24/24/24 23/23/23
f 24/24/24 25/25/25 23/23/23
f 25/25/25 26/26/26 23/23/23
f 23/23/23 26/26/26 27/27/27
f 26/26/26 28/28/28 27/27/27
f 29/29/29 31/31/31 30/30/30
f 31/31/31 32/32/32 30/30/30
f 30/30/30 32/32/32 33/33/33
f 32/32/32 34/34/34 33/33/33
f 34/34/34 32/32/32 35/35/35
f 32/32/32 36/36/36 35/35/35
f 32/32/32 31/31/31 36/36/36
f 36/36/36 37/37/37 35/35/35
