#MEP_Con_01_f_LOD_02(Clone)_12600_258.obj

v 1.207714 11.8727 -1.938248
v -1.258483 20.74399 1.482501
v 0.3704386 11.94678 2.309905
v 1.792837 20.68254 -1.119133
v -2.081299 11.88785 -0.7485102
v 1.608239 20.67806 0.7281361
v 2.488705 11.75238 0.9168398
v -1.396151 20.76712 -0.3666718
v -2.139318 6.102907 5.123932
v 2.13822 5.805046 -4.677746
v 1.279136 14.63286 -2.889716
v 0.4644406 14.15287 2.291848
v -4.344425 6.037307 -2.191804
v 4.661158 6.037306 3.588153
v 2.389119 14.78854 1.609302
v -2.410127 14.83608 -1.032896
v 1.207714 11.8727 -1.938248
v 0.3704386 11.94678 2.309905
v -1.258483 20.74399 1.482501
v 1.792837 20.68254 -1.119133
v -2.081299 11.88785 -0.7485102
v 2.488705 11.75238 0.9168398
v 1.608239 20.67806 0.7281361
v -1.396151 20.76712 -0.3666718
v -2.139318 6.102907 5.123932
v 1.279136 14.63286 -2.889716
v 2.13822 5.805046 -4.677746
v 0.4644406 14.15287 2.291848
v -4.344425 6.037307 -2.191804
v 2.389119 14.78854 1.609302
v 4.661158 6.037306 3.588153
v -2.410127 14.83608 -1.032896
v -0.05435579 -0.1375482 -0.4407549
v 0.2283229 19.82228 0.1680731
v -0.02297965 -0.1425122 0.3622259
v 0.4019964 -0.1375482 -0.1281536
v 0.2283229 19.82228 0.1680731
v -0.4013885 -0.1425122 -0.1097308
v -0.05435579 -0.1375482 -0.4407549
v -0.02297965 -0.1425122 0.3622259
v 0.2283229 19.82228 0.1680731
v 0.4019964 -0.1375482 -0.1281536
v -0.4013885 -0.1425122 -0.1097308
v 0.2283229 19.82228 0.1680731

vn -0.6875 -0.1195679 -0.7163086
vn -0.4396973 0.02542114 -0.8979492
vn -0.793457 -0.1958008 -0.5766602
vn -0.262207 0.1130981 -0.9584961
vn -0.7080078 -0.01394653 0.7060547
vn -0.7080078 -0.01394653 0.7060547
vn -0.7080078 -0.01394653 0.7060547
vn -0.7080078 -0.01394653 0.7060547
vn -0.7236328 0.08380127 -0.6850586
vn -0.6611328 -0.008209229 -0.7504883
vn -0.7373047 0.1067505 -0.6669922
vn -0.8129883 0.2648926 -0.5185547
vn 0.8320313 -0.02877808 -0.5537109
vn 0.8447266 -0.04998779 -0.5332031
vn 0.8291016 -0.02337646 -0.5585938
vn 0.8081055 0.009307861 -0.5893555
vn 0.6875 0.1195679 0.7163086
vn 0.793457 0.1958008 0.5766602
vn 0.4396973 -0.02542114 0.8979492
vn 0.262207 -0.1130981 0.9584961
vn 0.7080078 0.01394653 -0.7060547
vn 0.7080078 0.01394653 -0.7060547
vn 0.7080078 0.01394653 -0.7060547
vn 0.7080078 0.01394653 -0.7060547
vn 0.7236328 -0.08380127 0.6850586
vn 0.7373047 -0.1067505 0.6669922
vn 0.6611328 0.008209229 0.7504883
vn 0.8129883 -0.2648926 0.5185547
vn -0.8320313 0.02877808 0.5537109
vn -0.8291016 0.02337646 0.5585938
vn -0.8447266 0.04998779 0.5332031
vn -0.8081055 -0.009307861 0.5893555
vn -0.921875 0.01293945 -0.3876953
vn -0.3701172 0.01965332 -0.9287109
vn -0.921875 0.01293945 -0.3876953
vn 0.4025879 0.01461792 -0.9155273
vn -0.3701172 0.01965332 -0.9287109
vn 0.4025879 0.01461792 -0.9155273
vn 0.921875 -0.01293945 0.3876953
vn 0.921875 -0.01293945 0.3876953
vn 0.3701172 -0.01965332 0.9287109
vn -0.4025879 -0.01461792 0.9155273
vn -0.4025879 -0.01461792 0.9155273
vn 0.3701172 -0.01965332 0.9287109

vt 0.001989365 0.007873535
vt 0.7783203 0.996582
vt 0.9863281 0.002599716
vt 0.1824951 0.9921875
vt 0.001989365 0.007873535
vt 0.7783203 0.996582
vt 0.9863281 0.002599716
vt 0.1824951 0.9921875
vt 0.001989365 0.007873535
vt 0.9863281 0.002599716
vt 0.7783203 0.996582
vt 0.1824951 0.9921875
vt 0.001989365 0.007873535
vt 0.9863281 0.002599716
vt 0.7783203 0.996582
vt 0.1824951 0.9921875
vt 0.001989365 0.007873535
vt 0.9863281 0.002599716
vt 0.7783203 0.996582
vt 0.1824951 0.9921875
vt 0.001989365 0.007873535
vt 0.9863281 0.002599716
vt 0.7783203 0.996582
vt 0.1824951 0.9921875
vt 0.001989365 0.007873535
vt 0.7783203 0.996582
vt 0.9863281 0.002599716
vt 0.1824951 0.9921875
vt 0.001989365 0.007873535
vt 0.7783203 0.996582
vt 0.9863281 0.002599716
vt 0.1824951 0.9921875
vt 0.9433594 0.3640137
vt 0.9321289 0.4221191
vt 0.9516602 0.3674316
vt 0.9433594 0.3640137
vt 0.9321289 0.4221191
vt 0.9516602 0.3674316
vt 0.9433594 0.3640137
vt 0.9516602 0.3674316
vt 0.9321289 0.4221191
vt 0.9433594 0.3640137
vt 0.9516602 0.3674316
vt 0.9321289 0.4221191

g MEP_Con_01_f_LOD_02(Clone)_12600_258
usemtl MEP_Con_01_f_LOD_02(Clone)_12600_258
usemap MEP_Con_01_f_LOD_02(Clone)_12600_258
f 1/1/1 3/3/3 2/2/2
f 4/4/4 1/1/1 2/2/2
f 5/5/5 7/7/7 6/6/6
f 8/8/8 5/5/5 6/6/6
f 9/9/9 11/11/11 10/10/10
f 12/12/12 11/11/11 9/9/9
f 13/13/13 15/15/15 14/14/14
f 16/16/16 15/15/15 13/13/13
f 17/17/17 19/19/19 18/18/18
f 20/20/20 19/19/19 17/17/17
f 21/21/21 23/23/23 22/22/22
f 24/24/24 23/23/23 21/21/21
f 25/25/25 27/27/27 26/26/26
f 28/28/28 25/25/25 26/26/26
f 29/29/29 31/31/31 30/30/30
f 32/32/32 29/29/29 30/30/30
f 33/33/33 35/35/35 34/34/34
f 36/36/36 38/38/38 37/37/37
f 39/39/39 41/41/41 40/40/40
f 42/42/42 44/44/44 43/43/43
