#MEP_Con_01_h_12358_265.obj

v -0.9886353 1.8701 2.022389
v -0.0414615 2.738964 0.1920437
v 0.1753412 3.133242 -0.009903543
v -0.1296294 2.017378 0.5884069
v 0.06085218 5.013865 0.3298892
v -0.04063126 5.410986 0.05558302
v 1.980712 3.836672 2.319812
v 0.4005433 4.29571 0.5631906
v 0.05843203 5.161913 -0.07769723
v -0.01365114 5.602562 0.1318019
v -0.275474 3.565519 -2.60187
v -0.09599798 4.395245 -0.3495978
v -0.1546962 7.07416 0.125267
v 0.1510312 7.44681 0.02076242
v -2.565892 6.258064 1.722577
v -0.4860699 6.428028 0.5230548
v 0.1437523 6.999117 -0.09008139
v -0.007079484 7.390816 0.02216216
v 1.258541 5.592319 -2.036181
v 0.1633223 6.328564 -0.3764741
v -0.1149581 9.198685 -0.03920583
v -0.01338605 9.653196 0.1231265
v -2.010522 7.554883 -1.693342
v -0.4600971 8.447342 -0.08303854
v -0.007254029 9.326725 0.277951
v 0.04386291 9.7173 -0.01884794
v 0.4093182 8.302305 3.072315
v 0.1829187 8.640228 0.6999868
v -0.0414615 2.738964 0.1920437
v -0.9886353 1.8701 2.022389
v 0.1753412 3.133242 -0.009903543
v -0.1296294 2.017378 0.5884069
v 0.06085218 5.013865 0.3298892
v 1.980712 3.836672 2.319812
v -0.04063126 5.410986 0.05558302
v 0.4005433 4.29571 0.5631906
v 0.05843203 5.161913 -0.07769723
v -0.275474 3.565519 -2.60187
v -0.01365114 5.602562 0.1318019
v -0.09599798 4.395245 -0.3495978
v -0.1546962 7.07416 0.125267
v -2.565892 6.258064 1.722577
v 0.1510312 7.44681 0.02076242
v -0.4860699 6.428028 0.5230548
v 0.1437523 6.999117 -0.09008139
v 1.258541 5.592319 -2.036181
v -0.007079484 7.390816 0.02216216
v 0.1633223 6.328564 -0.3764741
v -0.1149581 9.198685 -0.03920583
v -2.010522 7.554883 -1.693342
v -0.01338605 9.653196 0.1231265
v -0.4600971 8.447342 -0.08303854
v -0.007254029 9.326725 0.277951
v 0.4093182 8.302305 3.072315
v 0.04386291 9.7173 -0.01884794
v 0.1829187 8.640228 0.6999868
v -0.760905 10.36044 1.125332
v -2.972184 11.57432 2.589997
v -0.2411211 10.70937 0.3411508
v 0.2145277 10.92739 0.02163563
v -0.760905 10.36044 1.125332
v -0.2411211 10.70937 0.3411508
v -2.972184 11.57432 2.589997
v 0.2145277 10.92739 0.02163563
v -0.09567271 5.061844 0.02499247
v 0.1386443 5.473125 0.1635552
v -2.790359 3.783173 -0.3425347
v -0.4850457 4.333046 0.07774571
v 0.1548652 6.976058 0.1772854
v 0.1947092 7.401443 -0.06909887
v 0.9399958 5.51322 2.682304
v 0.3416055 6.220922 0.4609315
v 0.1576532 9.229544 0.0754011
v -0.1367879 9.724119 -0.0538222
v 3.393189 7.663886 0.08664571
v 0.6009012 8.352186 -0.04501705
v -0.09567271 5.061844 0.02499247
v -2.790359 3.783173 -0.3425347
v 0.1386443 5.473125 0.1635552
v -0.4850457 4.333046 0.07774571
v 0.1548652 6.976058 0.1772854
v 0.9399958 5.51322 2.682304
v 0.1947092 7.401443 -0.06909887
v 0.3416055 6.220922 0.4609315
v 0.1576532 9.229544 0.0754011
v 3.393189 7.663886 0.08664571
v -0.1367879 9.724119 -0.0538222
v 0.6009012 8.352186 -0.04501705
v -0.4775383 10.73707 -1.029082
v -0.1793574 10.03951 -4.580515
v 0.05298959 11.63629 -0.34311
v 0.1226271 12.25096 0.07050227
v -0.4775383 10.73707 -1.029082
v 0.05298959 11.63629 -0.34311
v -0.1793574 10.03951 -4.580515
v 0.1226271 12.25096 0.07050227
v -0.3181401 11.67299 -0.008467134
v 0.2608223 12.28067 0.04632915
v -5.33086 10.70736 -0.4643691
v -1.31408 10.75051 0.3802546
v -0.3181401 11.67299 -0.008467134
v -5.33086 10.70736 -0.4643691
v 0.2608223 12.28067 0.04632915
v -1.31408 10.75051 0.3802546
v 0.02403248 16.23364 -0.2524375
v 0.1418853 16.52574 0.03857443
v -1.716074 15.66677 -2.117502
v -0.3265682 15.68114 -0.5526069
v -0.1478945 17.37599 -0.005103793
v 0.2379666 17.72493 -0.05595843
v -3.08048 16.89673 1.14187
v -0.6589937 16.75801 0.3512656
v 0.02403248 16.23364 -0.2524375
v -1.716074 15.66677 -2.117502
v 0.1418853 16.52574 0.03857443
v -0.3265682 15.68114 -0.5526069
v -0.1478945 17.37599 -0.005103793
v -3.08048 16.89673 1.14187
v 0.2379666 17.72493 -0.05595843
v -0.6589937 16.75801 0.3512656
v -0.2025205 13.99218 -0.17646
v 0.1882862 14.39918 0.09287836
v -3.364394 13.64519 -2.273089
v -1.03821 13.37294 -0.3173537
v -0.2025205 13.99218 -0.17646
v -3.364394 13.64519 -2.273089
v 0.1882862 14.39918 0.09287836
v -1.03821 13.37294 -0.3173537
v -0.1262838 19.11485 -0.1159758
v 0.2234831 19.45665 -0.003595121
v -2.271983 18.42253 -1.469908
v -0.6588672 18.46833 -0.02609996
v -0.1262838 19.11485 -0.1159758
v -2.271983 18.42253 -1.469908
v 0.2234831 19.45665 -0.003595121
v -0.6588672 18.46833 -0.02609996
v -0.1596362 14.85503 -0.03273481
v 0.287584 15.06024 -0.1312348
v -2.729279 15.14348 1.599146
v -0.754276 14.40186 0.3554747
v -0.1596362 14.85503 -0.03273481
v -2.729279 15.14348 1.599146
v 0.287584 15.06024 -0.1312348
v -0.754276 14.40186 0.3554747
v -0.04379195 13.34468 -0.0156429
v 0.08033944 13.79207 0.1507584
v -2.022192 11.81186 -1.679326
v -0.4253763 12.61157 -0.06562131
v 0.07094943 13.46418 0.3023871
v 0.1402358 13.85469 0.009233765
v 0.4449128 12.3931 3.085265
v 0.2285287 12.76508 0.7170975
v -0.04379195 13.34468 -0.0156429
v -2.022192 11.81186 -1.679326
v 0.08033944 13.79207 0.1507584
v -0.4253763 12.61157 -0.06562131
v 0.07094943 13.46418 0.3023871
v 0.4449128 12.3931 3.085265
v 0.1402358 13.85469 0.009233765
v 0.2285287 12.76508 0.7170975
v 0.2302956 13.36106 0.09836008
v -0.03996228 13.87068 -0.02507088
v 3.385471 11.63914 0.08357914
v 0.6298125 12.46432 -0.03206674
v 0.2302956 13.36106 0.09836008
v 3.385471 11.63914 0.08357914
v -0.03996228 13.87068 -0.02507088
v 0.6298125 12.46432 -0.03206674
v 0.2360512 15.53636 -0.1273858
v 0.05767775 15.98374 -0.02120578
v 2.096149 14.00354 -1.922358
v 0.325391 14.80325 -0.5017222
v -0.09216855 15.65585 -0.04629629
v 0.1922244 16.04637 0.0530603
v -2.898828 14.58478 0.03674274
v -0.5209857 14.95675 0.06739266
v 0.2360512 15.53636 -0.1273858
v 2.096149 14.00354 -1.922358
v 0.05767775 15.98374 -0.02120578
v 0.325391 14.80325 -0.5017222
v -0.09216855 15.65585 -0.04629629
v -2.898828 14.58478 0.03674274
v 0.1922244 16.04637 0.0530603
v -0.5209857 14.95675 0.06739266
v 0.07626377 15.52952 0.2066733
v 0.2270786 16.03914 -0.04930299
v -0.2366252 13.80761 3.346315
v 0.1645063 14.63278 0.6175525
v 0.07626377 15.52952 0.2066733
v -0.2366252 13.80761 3.346315
v 0.2270786 16.03914 -0.04930299
v 0.1645063 14.63278 0.6175525
v 0.2624694 19.86199 -0.5207631
v 1.230036 19.65501 -1.722447
v 0.2621187 20.38085 -0.1571675
v 0.185742 20.67361 0.03212373
v 0.2624694 19.86199 -0.5207631
v 0.2621187 20.38085 -0.1571675
v 1.230036 19.65501 -1.722447
v 0.185742 20.67361 0.03212373
v 0.4766 21.22732 0.09622145
v 1.00594 20.87008 1.110806
v 0.2917356 21.67425 0.03163098
v 0.2208511 21.92544 -0.05453731
v 0.4766 21.22732 0.09622145
v 0.2917356 21.67425 0.03163098
v 1.00594 20.87008 1.110806
v 0.2208511 21.92544 -0.05453731

vn -0.703125 -0.05743408 -0.7089844
vn -0.765625 0.2324219 -0.5996094
vn -0.7695313 0.3356934 -0.5429688
vn -0.6533203 -0.1831055 -0.734375
vn -0.7919922 0.276123 0.5444336
vn -0.734375 0.3781738 0.5634766
vn -0.887207 -0.0004272461 0.4614258
vn -0.9047852 -0.1489258 0.3991699
vn 0.9799805 0.1971436 0.0291748
vn 0.9555664 0.2932129 -0.03567505
vn 0.9794922 -0.05969238 0.1921387
vn 0.9423828 -0.1953125 0.2724609
vn -0.3330078 0.1641846 -0.9287109
vn -0.3549805 0.2751465 -0.8935547
vn -0.2556152 -0.12854 -0.9580078
vn -0.2044678 -0.2807617 -0.9375
vn 0.7495117 0.1552734 0.6430664
vn 0.7739258 0.2526855 0.5805664
vn 0.6396484 -0.1022949 0.7617188
vn 0.5561523 -0.2366943 0.796875
vn 0.8193359 0.06439209 -0.5698242
vn 0.7709961 0.1627197 -0.6152344
vn 0.8886719 -0.1895752 -0.4174805
vn 0.8920898 -0.3186035 -0.3198242
vn -0.9770508 0.203125 -0.06304932
vn -0.9501953 0.3103027 -0.02006531
vn -0.9824219 -0.08221436 -0.168335
vn -0.9477539 -0.2322998 -0.2183838
vn 0.765625 -0.2324219 0.5996094
vn 0.703125 0.05743408 0.7089844
vn 0.7695313 -0.3356934 0.5429688
vn 0.6533203 0.1831055 0.734375
vn 0.7919922 -0.276123 -0.5444336
vn 0.887207 0.0004272461 -0.4614258
vn 0.734375 -0.3781738 -0.5634766
vn 0.9047852 0.1489258 -0.3991699
vn -0.9799805 -0.1971436 -0.0291748
vn -0.9794922 0.05969238 -0.1921387
vn -0.9555664 -0.2932129 0.03567505
vn -0.9423828 0.1953125 -0.2724609
vn 0.3330078 -0.1641846 0.9287109
vn 0.2556152 0.12854 0.9580078
vn 0.3549805 -0.2753906 0.8935547
vn 0.2044678 0.2807617 0.9375
vn -0.7495117 -0.1552734 -0.6430664
vn -0.6396484 0.1022949 -0.7617188
vn -0.7739258 -0.2526855 -0.5805664
vn -0.5561523 0.2366943 -0.796875
vn -0.8193359 -0.06439209 0.5698242
vn -0.8886719 0.1895752 0.4174805
vn -0.7709961 -0.1627197 0.6152344
vn -0.8920898 0.3186035 0.3198242
vn 0.9770508 -0.203125 0.06304932
vn 0.9824219 0.08221436 0.168335
vn 0.9501953 -0.3103027 0.02006531
vn 0.9477539 0.2322998 0.2183838
vn 0.4470215 0.4326172 0.7827148
vn 0.4375 0.2866211 0.8520508
vn 0.3891602 -0.00567627 0.9208984
vn 0.3603516 -0.1206055 0.9248047
vn -0.4470215 -0.4326172 -0.7827148
vn -0.3891602 0.00567627 -0.9208984
vn -0.4375 -0.2866211 -0.8520508
vn -0.3603516 0.1206055 -0.9248047
vn 0.2971191 0.2327881 -0.9262695
vn 0.2382813 0.3344727 -0.9116211
vn 0.4279785 -0.04095459 -0.902832
vn 0.4819336 -0.1864014 -0.8564453
vn -0.9580078 0.2440186 0.1513672
vn -0.9169922 0.3415527 0.2050781
vn -1 -0.01940918 0.005172729
vn -0.984375 -0.1601563 -0.07348633
vn -0.1673584 0.2365723 0.9570313
vn -0.1096191 0.3376465 0.9350586
vn -0.3032227 -0.03546143 0.9521484
vn -0.3647461 -0.1801758 0.9135742
vn -0.2971191 -0.2327881 0.9262695
vn -0.4279785 0.04095459 0.902832
vn -0.2382813 -0.3344727 0.9116211
vn -0.4819336 0.1864014 0.8564453
vn 0.9580078 -0.2440186 -0.1513672
vn 1 0.01940918 -0.005172729
vn 0.9169922 -0.3415527 -0.2050781
vn 0.984375 0.1601563 0.07348633
vn 0.1673584 -0.2365723 -0.9570313
vn 0.3032227 0.03546143 -0.9521484
vn 0.1096191 -0.3376465 -0.9350586
vn 0.3647461 0.1801758 -0.9135742
vn -0.6953125 0.5996094 -0.3967285
vn -0.796875 0.4755859 -0.3730469
vn -0.9296875 0.2111816 -0.3022461
vn -0.9584961 0.1017456 -0.2668457
vn 0.6953125 -0.5996094 0.3967285
vn 0.9296875 -0.2111816 0.3022461
vn 0.796875 -0.4755859 0.3730469
vn 0.9584961 -0.1017456 0.2668457
vn 0.3869629 -0.1119385 -0.9150391
vn 0.3686523 0.004272461 -0.9296875
vn 0.4086914 -0.4001465 -0.8203125
vn 0.4047852 -0.5395508 -0.7382813
vn -0.3869629 0.1119385 0.9150391
vn -0.4086914 0.4001465 0.8203125
vn -0.3686523 -0.004272461 0.9296875
vn -0.4047852 0.5395508 0.7382813
vn 0.8071289 0.3354492 -0.486084
vn 0.7539063 0.4416504 -0.486084
vn 0.8891602 0.04428101 -0.4550781
vn 0.8999023 -0.1137085 -0.4208984
vn -0.1123047 0.1907959 -0.9750977
vn -0.1269531 0.3041992 -0.9438477
vn -0.06781006 -0.1096802 -0.9916992
vn -0.04135132 -0.2668457 -0.9628906
vn -0.8071289 -0.3354492 0.486084
vn -0.8891602 -0.04428101 0.4550781
vn -0.7539063 -0.4416504 0.486084
vn -0.8999023 0.1137085 0.4208984
vn 0.1123047 -0.1907959 0.9750977
vn 0.06781006 0.1096802 0.9916992
vn 0.1269531 -0.3041992 0.9438477
vn 0.04135132 0.2668457 0.9628906
vn 0.7685547 -0.09454346 -0.6328125
vn 0.7646484 0.02337646 -0.644043
vn 0.7285156 -0.3881836 -0.5644531
vn 0.6796875 -0.53125 -0.5058594
vn -0.7685547 0.09454346 0.6328125
vn -0.7285156 0.3881836 0.5644531
vn -0.7646484 -0.02340698 0.644043
vn -0.6796875 0.53125 0.5058594
vn 0.7558594 -0.4003906 -0.5180664
vn 0.7636719 -0.3491211 -0.543457
vn 0.7299805 -0.5092773 -0.4555664
vn 0.7163086 -0.5507813 -0.4284668
vn -0.7558594 0.4003906 0.5180664
vn -0.7299805 0.5092773 0.4555664
vn -0.7636719 0.3491211 0.543457
vn -0.7163086 0.5507813 0.4284668
vn -0.2076416 0.4333496 -0.8769531
vn -0.182373 0.5361328 -0.8242188
vn -0.2585449 0.1437988 -0.9550781
vn -0.276123 -0.01712036 -0.9609375
vn 0.2076416 -0.4333496 0.8769531
vn 0.2585449 -0.1437988 0.9550781
vn 0.182373 -0.5361328 0.8242188
vn 0.276123 0.01712036 0.9609375
vn 0.8198242 0.04150391 -0.5712891
vn 0.7758789 0.1429443 -0.6142578
vn 0.878418 -0.21875 -0.4248047
vn 0.8764648 -0.3500977 -0.3303223
vn -0.9672852 0.2474365 -0.05480957
vn -0.9360352 0.3522949 -0.009414673
vn -0.9853516 -0.03491211 -0.166626
vn -0.9575195 -0.1851807 -0.2203369
vn -0.8198242 -0.04150391 0.5712891
vn -0.878418 0.21875 0.4248047
vn -0.7758789 -0.1429443 0.6142578
vn -0.8764648 0.3500977 0.3303223
vn 0.9672852 -0.2474365 0.05480957
vn 0.9853516 0.03491211 0.166626
vn 0.9360352 -0.3522949 0.009414673
vn 0.9575195 0.1851807 0.2203369
vn -0.1542969 0.2213135 0.9628906
vn -0.09216309 0.3203125 0.9428711
vn -0.302002 -0.04428101 0.9521484
vn -0.3701172 -0.1851807 0.9101563
vn 0.1542969 -0.2213135 -0.9628906
vn 0.302002 0.04428101 -0.9521484
vn 0.09216309 -0.3203125 -0.9428711
vn 0.3701172 0.1851807 -0.9101563
vn 0.4829102 0.04150391 0.8745117
vn 0.5302734 0.1429443 0.8354492
vn 0.331543 -0.21875 0.9179688
vn 0.2374268 -0.3500977 0.90625
vn 0.1549072 0.2474365 -0.956543
vn 0.1065674 0.3522949 -0.9296875
vn 0.2680664 -0.03491211 -0.9628906
vn 0.3186035 -0.1851807 -0.9296875
vn -0.4829102 -0.04150391 -0.8745117
vn -0.331543 0.21875 -0.9179688
vn -0.5302734 -0.1429443 -0.8354492
vn -0.2374268 0.3500977 -0.90625
vn -0.1549072 -0.2474365 0.956543
vn -0.2680664 0.03491211 0.9628906
vn -0.1065674 -0.3522949 0.9296875
vn -0.3186035 0.1851807 0.9296875
vn -0.9418945 0.2213135 -0.253418
vn -0.9282227 0.3203125 -0.1895752
vn -0.9155273 -0.04428101 -0.3994141
vn -0.8671875 -0.1851807 -0.4626465
vn 0.9418945 -0.2213135 0.253418
vn 0.9155273 0.04428101 0.3994141
vn 0.9282227 -0.3203125 0.1895752
vn 0.8671875 0.1851807 0.4626465
vn -0.4660645 0.4272461 -0.7744141
vn -0.5058594 0.364502 -0.7817383
vn -0.5825195 0.2202148 -0.7822266
vn -0.609375 0.15979 -0.7763672
vn 0.4660645 -0.4272461 0.7744141
vn 0.5825195 -0.2202148 0.7822266
vn 0.5058594 -0.364502 0.7817383
vn 0.609375 -0.15979 0.7763672
vn 0.9453125 0.3144531 -0.08483887
vn 0.9584961 0.2546387 -0.1276855
vn 0.9682617 0.1193848 -0.2186279
vn 0.965332 0.06329346 -0.2541504
vn -0.9453125 -0.3144531 0.08483887
vn -0.9682617 -0.1193848 0.2186279
vn -0.9584961 -0.2546387 0.1276855
vn -0.965332 -0.06329346 0.2541504

vt 0.8422852 0.7006836
vt 0.9926758 0.2159424
vt 0.9921875 0.08068848
vt 0.9970703 0.3566895
vt 0.9926758 0.2159424
vt 0.9921875 0.08068848
vt 0.8422852 0.7006836
vt 0.9970703 0.3566895
vt 0.9926758 0.2159424
vt 0.9921875 0.08068848
vt 0.8422852 0.7006836
vt 0.9970703 0.3566895
vt 0.9926758 0.2159424
vt 0.9921875 0.08068848
vt 0.8422852 0.7006836
vt 0.9970703 0.3566895
vt 0.9926758 0.2159424
vt 0.9921875 0.08068848
vt 0.8422852 0.7006836
vt 0.9970703 0.3566895
vt 0.9926758 0.2159424
vt 0.9921875 0.08068848
vt 0.8422852 0.7006836
vt 0.9970703 0.3566895
vt 0.9926758 0.2159424
vt 0.9921875 0.08068848
vt 0.8422852 0.7006836
vt 0.9970703 0.3566895
vt 0.9926758 0.2159424
vt 0.8422852 0.7006836
vt 0.9921875 0.08068848
vt 0.9970703 0.3566895
vt 0.9926758 0.2159424
vt 0.8422852 0.7006836
vt 0.9921875 0.08068848
vt 0.9970703 0.3566895
vt 0.9926758 0.2159424
vt 0.8422852 0.7006836
vt 0.9921875 0.08068848
vt 0.9970703 0.3566895
vt 0.9926758 0.2159424
vt 0.8422852 0.7006836
vt 0.9921875 0.08068848
vt 0.9970703 0.3566895
vt 0.9926758 0.2159424
vt 0.8422852 0.7006836
vt 0.9921875 0.08068848
vt 0.9970703 0.3566895
vt 0.9926758 0.2159424
vt 0.8422852 0.7006836
vt 0.9921875 0.08068848
vt 0.9970703 0.3566895
vt 0.9926758 0.2159424
vt 0.8422852 0.7006836
vt 0.9921875 0.08068848
vt 0.9970703 0.3566895
vt 0.9970703 0.3566895
vt 0.8422852 0.7006836
vt 0.9926758 0.2159424
vt 0.9921875 0.08068848
vt 0.9970703 0.3566895
vt 0.9926758 0.2159424
vt 0.8422852 0.7006836
vt 0.9921875 0.08068848
vt 0.9926758 0.2159424
vt 0.9921875 0.08068848
vt 0.8422852 0.7006836
vt 0.9970703 0.3566895
vt 0.9926758 0.2159424
vt 0.9921875 0.08068848
vt 0.8422852 0.7006836
vt 0.9970703 0.3566895
vt 0.9926758 0.2159424
vt 0.9921875 0.08068848
vt 0.8422852 0.7006836
vt 0.9970703 0.3566895
vt 0.9926758 0.2159424
vt 0.8422852 0.7006836
vt 0.9921875 0.08068848
vt 0.9970703 0.3566895
vt 0.9926758 0.2159424
vt 0.8422852 0.7006836
vt 0.9921875 0.08068848
vt 0.9970703 0.3566895
vt 0.9926758 0.2159424
vt 0.8422852 0.7006836
vt 0.9921875 0.08068848
vt 0.9970703 0.3566895
vt 0.9970703 0.3566895
vt 0.8422852 0.7006836
vt 0.9926758 0.2159424
vt 0.9921875 0.08068848
vt 0.9970703 0.3566895
vt 0.9926758 0.2159424
vt 0.8422852 0.7006836
vt 0.9921875 0.08068848
vt 0.9926758 0.2159424
vt 0.9921875 0.08068848
vt 0.8422852 0.7006836
vt 0.9970703 0.3566895
vt 0.9926758 0.2159424
vt 0.8422852 0.7006836
vt 0.9921875 0.08068848
vt 0.9970703 0.3566895
vt 0.9926758 0.2159424
vt 0.9921875 0.08068848
vt 0.8422852 0.7006836
vt 0.9970703 0.3566895
vt 0.9926758 0.2159424
vt 0.9921875 0.08068848
vt 0.8422852 0.7006836
vt 0.9970703 0.3566895
vt 0.9926758 0.2159424
vt 0.8422852 0.7006836
vt 0.9921875 0.08068848
vt 0.9970703 0.3566895
vt 0.9926758 0.2159424
vt 0.8422852 0.7006836
vt 0.9921875 0.08068848
vt 0.9970703 0.3566895
vt 0.9926758 0.2159424
vt 0.9921875 0.08068848
vt 0.8422852 0.7006836
vt 0.9970703 0.3566895
vt 0.9926758 0.2159424
vt 0.8422852 0.7006836
vt 0.9921875 0.08068848
vt 0.9970703 0.3566895
vt 0.9926758 0.2159424
vt 0.9921875 0.08068848
vt 0.8422852 0.7006836
vt 0.9970703 0.3566895
vt 0.9926758 0.2159424
vt 0.8422852 0.7006836
vt 0.9921875 0.08068848
vt 0.9970703 0.3566895
vt 0.9926758 0.2159424
vt 0.9921875 0.08068848
vt 0.8422852 0.7006836
vt 0.9970703 0.3566895
vt 0.9926758 0.2159424
vt 0.8422852 0.7006836
vt 0.9921875 0.08068848
vt 0.9970703 0.3566895
vt 0.9926758 0.2159424
vt 0.9921875 0.08068848
vt 0.8422852 0.7006836
vt 0.9970703 0.3566895
vt 0.9926758 0.2159424
vt 0.9921875 0.08068848
vt 0.8422852 0.7006836
vt 0.9970703 0.3566895
vt 0.9926758 0.2159424
vt 0.8422852 0.7006836
vt 0.9921875 0.08068848
vt 0.9970703 0.3566895
vt 0.9926758 0.2159424
vt 0.8422852 0.7006836
vt 0.9921875 0.08068848
vt 0.9970703 0.3566895
vt 0.9926758 0.2159424
vt 0.9921875 0.08068848
vt 0.8422852 0.7006836
vt 0.9970703 0.3566895
vt 0.9926758 0.2159424
vt 0.8422852 0.7006836
vt 0.9921875 0.08068848
vt 0.9970703 0.3566895
vt 0.9926758 0.2159424
vt 0.9921875 0.08068848
vt 0.8422852 0.7006836
vt 0.9970703 0.3566895
vt 0.9926758 0.2159424
vt 0.9921875 0.08068848
vt 0.8422852 0.7006836
vt 0.9970703 0.3566895
vt 0.9926758 0.2159424
vt 0.8422852 0.7006836
vt 0.9921875 0.08068848
vt 0.9970703 0.3566895
vt 0.9926758 0.2159424
vt 0.8422852 0.7006836
vt 0.9921875 0.08068848
vt 0.9970703 0.3566895
vt 0.9926758 0.2159424
vt 0.9921875 0.08068848
vt 0.8422852 0.7006836
vt 0.9970703 0.3566895
vt 0.9926758 0.2159424
vt 0.8422852 0.7006836
vt 0.9921875 0.08068848
vt 0.9970703 0.3566895
vt 0.9970703 0.3566895
vt 0.8422852 0.7006836
vt 0.9926758 0.2159424
vt 0.9921875 0.08068848
vt 0.9970703 0.3566895
vt 0.9926758 0.2159424
vt 0.8422852 0.7006836
vt 0.9921875 0.08068848
vt 0.9970703 0.3566895
vt 0.8422852 0.7006836
vt 0.9926758 0.2159424
vt 0.9921875 0.08068848
vt 0.9970703 0.3566895
vt 0.9926758 0.2159424
vt 0.8422852 0.7006836
vt 0.9921875 0.08068848

g MEP_Con_01_h_12358_265
usemtl MEP_Con_01_h_12358_265
usemap MEP_Con_01_h_12358_265
f 1/1/1 3/3/3 2/2/2
f 4/4/4 1/1/1 2/2/2
f 5/5/5 7/7/7 6/6/6
f 8/8/8 7/7/7 5/5/5
f 9/9/9 11/11/11 10/10/10
f 12/12/12 11/11/11 9/9/9
f 13/13/13 15/15/15 14/14/14
f 16/16/16 15/15/15 13/13/13
f 17/17/17 19/19/19 18/18/18
f 20/20/20 19/19/19 17/17/17
f 21/21/21 23/23/23 22/22/22
f 24/24/24 23/23/23 21/21/21
f 25/25/25 27/27/27 26/26/26
f 28/28/28 27/27/27 25/25/25
f 29/29/29 31/31/31 30/30/30
f 32/32/32 29/29/29 30/30/30
f 33/33/33 35/35/35 34/34/34
f 36/36/36 33/33/33 34/34/34
f 37/37/37 39/39/39 38/38/38
f 40/40/40 37/37/37 38/38/38
f 41/41/41 43/43/43 42/42/42
f 44/44/44 41/41/41 42/42/42
f 45/45/45 47/47/47 46/46/46
f 48/48/48 45/45/45 46/46/46
f 49/49/49 51/51/51 50/50/50
f 52/52/52 49/49/49 50/50/50
f 53/53/53 55/55/55 54/54/54
f 56/56/56 53/53/53 54/54/54
f 57/57/57 59/59/59 58/58/58
f 59/59/59 60/60/60 58/58/58
f 61/61/61 63/63/63 62/62/62
f 62/62/62 63/63/63 64/64/64
f 65/65/65 67/67/67 66/66/66
f 68/68/68 67/67/67 65/65/65
f 69/69/69 71/71/71 70/70/70
f 72/72/72 71/71/71 69/69/69
f 73/73/73 75/75/75 74/74/74
f 76/76/76 75/75/75 73/73/73
f 77/77/77 79/79/79 78/78/78
f 80/80/80 77/77/77 78/78/78
f 81/81/81 83/83/83 82/82/82
f 84/84/84 81/81/81 82/82/82
f 85/85/85 87/87/87 86/86/86
f 88/88/88 85/85/85 86/86/86
f 89/89/89 91/91/91 90/90/90
f 91/91/91 92/92/92 90/90/90
f 93/93/93 95/95/95 94/94/94
f 94/94/94 95/95/95 96/96/96
f 97/97/97 99/99/99 98/98/98
f 100/100/100 99/99/99 97/97/97
f 101/101/101 103/103/103 102/102/102
f 104/104/104 101/101/101 102/102/102
f 105/105/105 107/107/107 106/106/106
f 108/108/108 107/107/107 105/105/105
f 109/109/109 111/111/111 110/110/110
f 112/112/112 111/111/111 109/109/109
f 113/113/113 115/115/115 114/114/114
f 116/116/116 113/113/113 114/114/114
f 117/117/117 119/119/119 118/118/118
f 120/120/120 117/117/117 118/118/118
f 121/121/121 123/123/123 122/122/122
f 124/124/124 123/123/123 121/121/121
f 125/125/125 127/127/127 126/126/126
f 128/128/128 125/125/125 126/126/126
f 129/129/129 131/131/131 130/130/130
f 132/132/132 131/131/131 129/129/129
f 133/133/133 135/135/135 134/134/134
f 136/136/136 133/133/133 134/134/134
f 137/137/137 139/139/139 138/138/138
f 140/140/140 139/139/139 137/137/137
f 141/141/141 143/143/143 142/142/142
f 144/144/144 141/141/141 142/142/142
f 145/145/145 147/147/147 146/146/146
f 148/148/148 147/147/147 145/145/145
f 149/149/149 151/151/151 150/150/150
f 152/152/152 151/151/151 149/149/149
f 153/153/153 155/155/155 154/154/154
f 156/156/156 153/153/153 154/154/154
f 157/157/157 159/159/159 158/158/158
f 160/160/160 157/157/157 158/158/158
f 161/161/161 163/163/163 162/162/162
f 164/164/164 163/163/163 161/161/161
f 165/165/165 167/167/167 166/166/166
f 168/168/168 165/165/165 166/166/166
f 169/169/169 171/171/171 170/170/170
f 172/172/172 171/171/171 169/169/169
f 173/173/173 175/175/175 174/174/174
f 176/176/176 175/175/175 173/173/173
f 177/177/177 179/179/179 178/178/178
f 180/180/180 177/177/177 178/178/178
f 181/181/181 183/183/183 182/182/182
f 184/184/184 181/181/181 182/182/182
f 185/185/185 187/187/187 186/186/186
f 188/188/188 187/187/187 185/185/185
f 189/189/189 191/191/191 190/190/190
f 192/192/192 189/189/189 190/190/190
f 193/193/193 195/195/195 194/194/194
f 195/195/195 196/196/196 194/194/194
f 197/197/197 199/199/199 198/198/198
f 198/198/198 199/199/199 200/200/200
f 201/201/201 203/203/203 202/202/202
f 203/203/203 204/204/204 202/202/202
f 205/205/205 207/207/207 206/206/206
f 206/206/206 207/207/207 208/208/208
