#MEP_ConTrunk_01_d_12935_95.obj

v 0.0009253113 -0.251342 0.6357643
v -0.5480746 -0.251342 0.3188003
v 0.0001698245 0.516072 0.3713672
v -0.319464 0.507429 0.1860602
v -0.0848804 10.50702 0.4098674
v 0.1915502 10.509 0.4220536
v -0.1888396 10.46097 0.1322762
v 0.3343849 31.1316 -0.04990987
v 0.3343849 31.1316 -0.04990987
v -0.5480653 -0.251342 -0.3151121
v 0.001665335 0.499974 -0.3677226
v -0.3187246 0.499378 -0.183472
v 0.000914286 -0.251342 -0.6320711
v 0.1016921 10.44951 -0.0953626
v -0.1888396 10.46097 0.1322762
v 0.3343849 31.1316 -0.04990987
v -0.5480746 -0.251342 0.3188003
v -0.3187246 0.499378 -0.183472
v -0.319464 0.507429 0.1860602
v -0.5480653 -0.251342 -0.3151121
v -0.1888396 10.46097 0.1322762
v 0.5499142 -0.251342 -0.3151071
v 0.3213162 0.508617 -0.1823861
v 0.000914286 -0.251342 -0.6320711
v 0.001665335 0.499974 -0.3677226
v 0.1016921 10.44951 -0.0953626
v 0.362289 10.50174 0.1512431
v 0.3343849 31.1316 -0.04990987
v 0.5499142 -0.251342 -0.3151071
v 0.5499049 -0.251342 0.3188053
v 0.3213162 0.508617 -0.1823861
v 0.3205346 0.516666 0.1871547
v 0.0009253113 -0.251342 0.6357643
v 0.0001698245 0.516072 0.3713672
v 0.1915502 10.509 0.4220536
v 0.362289 10.50174 0.1512431
v 0.3343849 31.1316 -0.04990987

vn -0.7890625 0.3254395 0.5209961
vn -0.84375 0.3288574 -0.423584
vn -0.824707 0.168335 0.5400391
vn -0.8759766 0.1781006 -0.447998
vn -0.9990234 0.01809692 -0.04370117
vn -0.4863281 0.006835938 0.8735352
vn -0.3085938 0.0249939 -0.9506836
vn 0.01611328 1 -0.006069183
vn 0.01611328 1 -0.006069183
vn -0.05682373 0.3325195 -0.9414063
vn 0.8178711 0.1922607 -0.5424805
vn -0.05392456 0.1900635 -0.9804688
vn 0.7871094 0.3310547 -0.5209961
vn 0.8583984 0.01980591 -0.512207
vn -0.3085938 0.0249939 -0.9506836
vn 0.01611328 1 -0.006069183
vn -0.84375 0.3288574 -0.423584
vn -0.05392456 0.1900635 -0.9804688
vn -0.8759766 0.1781006 -0.447998
vn -0.05682373 0.3325195 -0.9414063
vn -0.3085938 0.0249939 -0.9506836
vn 0.8452148 0.3286133 0.4221191
vn 0.8818359 0.1802979 0.4362793
vn 0.7871094 0.3310547 -0.5209961
vn 0.8178711 0.1922607 -0.5424805
vn 0.8583984 0.01980591 -0.512207
vn 0.6469727 0.005493164 0.762207
vn 0.01611328 1 -0.006069183
vn 0.8452148 0.3286133 0.4221191
vn 0.05758667 0.326416 0.9433594
vn 0.8818359 0.1802979 0.4362793
vn 0.06054688 0.1682129 0.9838867
vn -0.7890625 0.3254395 0.5209961
vn -0.824707 0.168335 0.5400391
vn -0.4863281 0.006835938 0.8735352
vn 0.6469727 0.005493164 0.762207
vn 0.01611328 1 -0.006069183

vt 0.333252 0.003404617
vt 0.166748 0.003404617
vt 0.333252 0.2583008
vt 0.166748 0.2575684
vt 0.166748 2.923828
vt 0.333252 2.925781
vt 5.799532E-05 2.923828
vt 0.166748 6.832031
vt 5.799532E-05 6.832031
vt 1 0.003404617
vt 0.8334961 0.2558594
vt 1 0.2563477
vt 0.8334961 0.003404617
vt 0.7290039 2.921875
vt 1 2.923828
vt 0.8334961 6.832031
vt 0.166748 0.003404617
vt 5.799532E-05 0.2563477
vt 0.166748 0.2575684
vt 5.799532E-05 0.003404617
vt 5.799532E-05 2.923828
vt 0.6665039 0.003404617
vt 0.6665039 0.2563477
vt 0.8334961 0.003404617
vt 0.8334961 0.2558594
vt 0.7290039 2.921875
vt 0.5 2.923828
vt 0.5 6.832031
vt 0.6665039 0.003404617
vt 0.5 0.003404617
vt 0.6665039 0.2563477
vt 0.5 0.2575684
vt 0.333252 0.003404617
vt 0.333252 0.2583008
vt 0.333252 2.925781
vt 0.5 2.923828
vt 0.333252 6.832031

g MEP_ConTrunk_01_d_12935_95
usemtl MEP_ConTrunk_01_d_12935_95
usemap MEP_ConTrunk_01_d_12935_95
f 1/1/1 3/3/3 2/2/2
f 3/3/3 4/4/4 2/2/2
f 4/4/4 3/3/3 5/5/5
f 3/3/3 6/6/6 5/5/5
f 4/4/4 5/5/5 7/7/7
f 6/6/6 8/8/8 5/5/5
f 5/5/5 9/9/9 7/7/7
f 10/10/10 12/12/12 11/11/11
f 13/13/13 10/10/10 11/11/11
f 11/11/11 12/12/12 14/14/14
f 12/12/12 15/15/15 14/14/14
f 15/15/15 16/16/16 14/14/14
f 17/17/17 19/19/19 18/18/18
f 20/20/20 17/17/17 18/18/18
f 18/18/18 19/19/19 21/21/21
f 22/22/22 24/24/24 23/23/23
f 24/24/24 25/25/25 23/23/23
f 25/25/25 26/26/26 23/23/23
f 23/23/23 26/26/26 27/27/27
f 26/26/26 28/28/28 27/27/27
f 29/29/29 31/31/31 30/30/30
f 31/31/31 32/32/32 30/30/30
f 30/30/30 32/32/32 33/33/33
f 32/32/32 34/34/34 33/33/33
f 34/34/34 32/32/32 35/35/35
f 32/32/32 36/36/36 35/35/35
f 32/32/32 31/31/31 36/36/36
f 36/36/36 37/37/37 35/35/35
