#MEP_Con_01_h_LOD_01(Clone)_14867_203.obj

v -0.9886202 1.8701 2.022372
v -0.04145786 2.738964 0.1920406
v 0.1753463 3.133242 -0.009920809
v -0.1296185 2.017378 0.5883973
v 0.06088167 5.013865 0.3298839
v -0.04062017 5.410986 0.0555703
v 1.980748 3.836672 2.31981
v 0.4005534 4.29571 0.563181
v 0.05843806 5.161913 -0.07769911
v -0.0136148 5.602562 0.1318021
v -0.2754589 3.565519 -2.601879
v -0.09599309 4.395245 -0.3496111
v -0.1546718 7.07416 0.1252465
v 0.1510555 7.44681 0.02076731
v -2.565901 6.258064 1.722566
v -0.4860594 6.428028 0.5230632
v 0.1437714 6.999117 -0.09007952
v -0.007076059 7.390816 0.02216061
v 1.258547 5.592319 -2.03619
v 0.1633532 6.328564 -0.37648
v -0.1149238 9.198686 -0.039209
v -0.01335813 9.653197 0.1231298
v -2.010517 7.554882 -1.693354
v -0.4600826 8.447343 -0.08305503
v -0.007232755 9.326726 0.277952
v 0.0438805 9.7173 -0.01884514
v 0.4093462 8.302306 3.072316
v 0.182946 8.640229 0.6999834
v -0.04145786 2.738964 0.1920406
v -0.9886202 1.8701 2.022372
v 0.1753463 3.133242 -0.009920809
v -0.1296185 2.017378 0.5883973
v 0.06088167 5.013865 0.3298839
v 1.980748 3.836672 2.31981
v -0.04062017 5.410986 0.0555703
v 0.4005534 4.29571 0.563181
v 0.05843806 5.161913 -0.07769911
v -0.2754589 3.565519 -2.601879
v -0.0136148 5.602562 0.1318021
v -0.09599309 4.395245 -0.3496111
v -0.1546718 7.07416 0.1252465
v -2.565901 6.258064 1.722566
v 0.1510555 7.44681 0.02076731
v -0.4860594 6.428028 0.5230632
v 0.1437714 6.999117 -0.09007952
v 1.258547 5.592319 -2.03619
v -0.007076059 7.390816 0.02216061
v 0.1633532 6.328564 -0.37648
v -0.1149238 9.198686 -0.039209
v -2.010517 7.554882 -1.693354
v -0.01335813 9.653197 0.1231298
v -0.4600826 8.447343 -0.08305503
v -0.007232755 9.326726 0.277952
v 0.4093462 8.302306 3.072316
v 0.0438805 9.7173 -0.01884514
v 0.182946 8.640229 0.6999834
v -0.7608982 10.36044 1.125317
v -2.972186 11.57432 2.589985
v -0.241122 10.70937 0.3411441
v 0.2145473 10.92739 0.0216309
v -0.7608982 10.36044 1.125317
v -0.241122 10.70937 0.3411441
v -2.972186 11.57432 2.589985
v 0.2145473 10.92739 0.0216309
v -0.09564638 5.061844 0.02498509
v 0.1386466 5.473125 0.1635422
v -2.790335 3.783173 -0.3425371
v -0.48504 4.333046 0.07774099
v 0.1548773 6.976057 0.177284
v 0.1947291 7.401443 -0.06911781
v 0.9400044 5.51322 2.682287
v 0.341624 6.220922 0.4609223
v 0.1576546 9.229545 0.07539895
v -0.1367575 9.724119 -0.05381967
v 3.393203 7.663885 0.08663786
v 0.6009322 8.352187 -0.04500994
v -0.09564638 5.061844 0.02498509
v -2.790335 3.783173 -0.3425371
v 0.1386466 5.473125 0.1635422
v -0.48504 4.333046 0.07774099
v 0.1548773 6.976057 0.177284
v 0.9400044 5.51322 2.682287
v 0.1947291 7.401443 -0.06911781
v 0.341624 6.220922 0.4609223
v 0.1576546 9.229545 0.07539895
v 3.393203 7.663885 0.08663786
v -0.1367575 9.724119 -0.05381967
v 0.6009322 8.352187 -0.04500994
v -0.4775282 10.73707 -1.029098
v -0.1793476 10.03951 -4.580528
v 0.05299935 11.63629 -0.3431263
v 0.122626 12.25096 0.07049109
v -0.4775282 10.73707 -1.029098
v 0.05299935 11.63629 -0.3431263
v -0.1793476 10.03951 -4.580528
v 0.122626 12.25096 0.07049109
v -0.31813 11.67299 -0.008471127
v 0.2608255 12.28067 0.04631695
v -5.330854 10.70736 -0.4643755
v -1.314042 10.75051 0.3802545
v -0.31813 11.67299 -0.008471127
v -5.330854 10.70736 -0.4643755
v 0.2608255 12.28067 0.04631695
v -1.314042 10.75051 0.3802545
v 0.02406189 16.23364 -0.2524439
v 0.1418875 16.52574 0.03856722
v -1.716057 15.66677 -2.1175
v -0.3265669 15.68114 -0.5526207
v -0.07613032 17.31449 -0.02763662
v 0.2186757 17.74557 -0.05021136
v -2.789883 16.08077 1.094353
v -0.423158 16.56796 0.2763053
v 0.02406189 16.23364 -0.2524439
v -1.716057 15.66677 -2.1175
v 0.1418875 16.52574 0.03856722
v -0.3265669 15.68114 -0.5526207
v -0.07613032 17.31449 -0.02763662
v -2.789883 16.08077 1.094353
v 0.2186757 17.74557 -0.05021136
v -0.423158 16.56796 0.2763053
v -0.2024915 13.99218 -0.1764657
v 0.1882989 14.39918 0.09288157
v -3.364361 13.64519 -2.273089
v -1.038203 13.37294 -0.3173659
v -0.2024915 13.99218 -0.1764657
v -3.364361 13.64519 -2.273089
v 0.1882989 14.39918 0.09288157
v -1.038203 13.37294 -0.3173659
v -0.06775678 19.07122 -0.1653392
v 0.2588653 19.4246 -0.02302294
v -2.255335 18.38868 -1.455732
v -0.5305911 18.36757 -0.1466658
v -0.06775678 19.07122 -0.1653392
v -2.255335 18.38868 -1.455732
v 0.2588653 19.4246 -0.02302294
v -0.5305911 18.36757 -0.1466658
v -0.1596137 14.85503 -0.03274311
v 0.2875969 15.06024 -0.1312319
v -2.729239 15.14348 1.599141
v -0.7542746 14.40186 0.355461
v -0.1596137 14.85503 -0.03274311
v -2.729239 15.14348 1.599141
v 0.2875969 15.06024 -0.1312319
v -0.7542746 14.40186 0.355461
v -0.04377447 13.34469 -0.0156464
v 0.08035453 13.79207 0.1507542
v -2.022176 11.81187 -1.679334
v -0.4253654 12.61157 -0.06562769
v 0.07096555 13.46418 0.3023911
v 0.1402409 13.8547 0.009217784
v 0.4449537 12.3931 3.085262
v 0.2285418 12.76508 0.7170852
v -0.04377447 13.34469 -0.0156464
v -2.022176 11.81187 -1.679334
v 0.08035453 13.79207 0.1507542
v -0.4253654 12.61157 -0.06562769
v 0.07096555 13.46418 0.3023911
v 0.4449537 12.3931 3.085262
v 0.1402409 13.8547 0.009217784
v 0.2285418 12.76508 0.7170852
v 0.2303086 13.36106 0.09834287
v -0.03994286 13.87068 -0.02508673
v 3.385475 11.63914 0.0835775
v 0.6298282 12.46432 -0.03206396
v 0.2303086 13.36106 0.09834287
v 3.385475 11.63914 0.0835775
v -0.03994286 13.87068 -0.02508673
v 0.6298282 12.46432 -0.03206396
v 0.2360786 15.53636 -0.1273926
v 0.0576908 15.98374 -0.02120042
v 2.09619 14.00354 -1.922359
v 0.325411 14.80325 -0.5017164
v -0.09214927 15.65585 -0.04630082
v 0.1922274 16.04637 0.05305542
v -2.898804 14.58478 0.03673955
v -0.5209679 14.95675 0.06738736
v 0.2360786 15.53636 -0.1273926
v 2.09619 14.00354 -1.922359
v 0.0576908 15.98374 -0.02120042
v 0.325411 14.80325 -0.5017164
v -0.09214927 15.65585 -0.04630082
v -2.898804 14.58478 0.03673955
v 0.1922274 16.04637 0.05305542
v -0.5209679 14.95675 0.06738736
v 0.10484 15.52809 0.2381833
v 0.1981293 16.03845 -0.04255825
v 0.4747344 13.79365 3.364704
v 0.2773227 14.62944 0.6168951
v 0.10484 15.52809 0.2381833
v 0.4747344 13.79365 3.364704
v 0.1981293 16.03845 -0.04255825
v 0.2773227 14.62944 0.6168951
v 0.2624838 19.86199 -0.5207614
v 1.230056 19.65501 -1.722448
v 0.2621261 20.38085 -0.1571697
v 0.1857574 20.67361 0.03210919
v 0.2624838 19.86199 -0.5207614
v 0.2621261 20.38085 -0.1571697
v 1.230056 19.65501 -1.722448
v 0.1857574 20.67361 0.03210919
v 0.476626 21.22732 0.09621666
v 1.005931 20.87008 1.110796
v 0.2917438 21.67425 0.03162089
v 0.2208677 21.92544 -0.05453764
v 0.476626 21.22732 0.09621666
v 0.2917438 21.67425 0.03162089
v 1.005931 20.87008 1.110796
v 0.2208677 21.92544 -0.05453764
v -0.08018909 -0.205358 -0.4106944
v 0.2617625 23.88826 -0.03482273
v -0.04635547 -0.210712 0.4552795
v 0.4119396 -0.205358 -0.07355973
v 0.2617625 23.88826 -0.03482273
v -0.4544758 -0.210712 -0.05368965
v -0.08018909 -0.205358 -0.4106944
v -0.04635547 -0.210712 0.4552795
v 0.2617625 23.88826 -0.03482273
v 0.4119396 -0.205358 -0.07355973
v -0.4544758 -0.210712 -0.05368965
v 0.2617625 23.88826 -0.03482273

vn -0.2702637 -0.05743408 -0.9609375
vn -0.3781738 0.2324219 -0.8959961
vn -0.4089355 0.3356934 -0.8486328
vn -0.2142334 -0.1831055 -0.9594727
vn -0.956543 0.276123 0.09130859
vn -0.9155273 0.3781738 0.1358643
vn -0.9995117 -0.0004272461 -0.0276947
vn -0.9848633 -0.1489258 -0.09051514
vn 0.8422852 0.1971436 0.5014648
vn 0.8525391 0.2932129 0.4328613
vn 0.7626953 -0.05969238 0.644043
vn 0.6914063 -0.1953125 0.6958008
vn 0.1600342 0.1641846 -0.9731445
vn 0.1237183 0.2751465 -0.9536133
vn 0.2419434 -0.12854 -0.9619141
vn 0.2768555 -0.2807617 -0.9189453
vn 0.3427734 0.1552734 0.9262695
vn 0.3947754 0.2526855 0.8833008
vn 0.1888428 -0.1022949 0.9765625
vn 0.09912109 -0.2366943 0.9663086
vn 0.9926758 0.06439209 -0.1000977
vn 0.9731445 0.1627197 -0.1633301
vn 0.9794922 -0.1895752 0.06689453
vn 0.9350586 -0.3186035 0.1539307
vn -0.8232422 0.203125 -0.5297852
vn -0.8208008 0.3103027 -0.479248
vn -0.7768555 -0.08221436 -0.6245117
vn -0.722168 -0.2322998 -0.6513672
vn 0.3781738 -0.2324219 0.8959961
vn 0.2702637 0.05743408 0.9609375
vn 0.4089355 -0.3356934 0.8486328
vn 0.2142334 0.1831055 0.9594727
vn 0.956543 -0.276123 -0.09130859
vn 0.9995117 0.0004272461 0.0276947
vn 0.9155273 -0.3781738 -0.1358643
vn 0.9848633 0.1489258 0.09051514
vn -0.8422852 -0.1971436 -0.5014648
vn -0.7626953 0.05969238 -0.644043
vn -0.8525391 -0.2932129 -0.4328613
vn -0.6914063 0.1953125 -0.6958008
vn -0.1600342 -0.1641846 0.9731445
vn -0.2419434 0.12854 0.9619141
vn -0.1237183 -0.2753906 0.9536133
vn -0.2768555 0.2807617 0.9189453
vn -0.3427734 -0.1552734 -0.9262695
vn -0.1888428 0.1022949 -0.9765625
vn -0.3947754 -0.2526855 -0.8833008
vn -0.09912109 0.2366943 -0.9663086
vn -0.9926758 -0.06439209 0.1000977
vn -0.9794922 0.1895752 -0.06689453
vn -0.9731445 -0.1627197 0.1633301
vn -0.9350586 0.3186035 -0.1539307
vn 0.8232422 -0.203125 0.5297852
vn 0.7768555 0.08221436 0.6245117
vn 0.8208008 -0.3103027 0.479248
vn 0.722168 0.2322998 0.6513672
vn 0.01036072 0.4326172 0.9013672
vn -0.03152466 0.2866211 0.9575195
vn -0.1072998 -0.00567627 0.9941406
vn -0.1343994 -0.1206055 0.9833984
vn -0.01036072 -0.4326172 -0.9013672
vn 0.1072998 0.00567627 -0.9941406
vn 0.03152466 -0.2866211 -0.9575195
vn 0.1343994 0.1206055 -0.9833984
vn 0.7094727 0.2327881 -0.6650391
vn 0.6513672 0.3344727 -0.6811523
vn 0.8125 -0.04095459 -0.581543
vn 0.8369141 -0.1864014 -0.5141602
vn -0.9106445 0.2440186 -0.3330078
vn -0.9013672 0.3415527 -0.2663574
vn -0.8764648 -0.01940918 -0.4812012
vn -0.824707 -0.1601563 -0.5424805
vn -0.6113281 0.2365723 0.7553711
vn -0.5498047 0.3376465 0.7636719
vn -0.7275391 -0.03546143 0.6850586
vn -0.7626953 -0.1801758 0.6210938
vn -0.7094727 -0.2327881 0.6650391
vn -0.8125 0.04095459 0.581543
vn -0.6513672 -0.3344727 0.6811523
vn -0.8369141 0.1864014 0.5141602
vn 0.9106445 -0.2440186 0.3330078
vn 0.8764648 0.01940918 0.4812012
vn 0.9013672 -0.3415527 0.2663574
vn 0.824707 0.1601563 0.5424805
vn 0.6113281 -0.2365723 -0.7553711
vn 0.7275391 0.03546143 -0.6850586
vn 0.5498047 -0.3376465 -0.7636719
vn 0.7626953 0.1801758 -0.6210938
vn -0.4150391 0.5996094 -0.6845703
vn -0.5151367 0.4755859 -0.7128906
vn -0.6655273 0.2111816 -0.7158203
vn -0.7080078 0.1017456 -0.6987305
vn 0.4150391 -0.5996094 0.6845703
vn 0.6655273 -0.2111816 0.7158203
vn 0.5151367 -0.4755859 0.7128906
vn 0.7080078 -0.1017456 0.6987305
vn 0.7827148 -0.1119385 -0.6118164
vn 0.7739258 0.004272461 -0.6333008
vn 0.7558594 -0.4001465 -0.5185547
vn 0.7124023 -0.5395508 -0.4484863
vn -0.7827148 0.1119385 0.6118164
vn -0.7558594 0.4001465 0.5185547
vn -0.7739258 -0.004272461 0.6333008
vn -0.7124023 0.5395508 0.4484863
vn 0.9414063 0.3354492 -0.03295898
vn 0.8955078 0.4416504 -0.05859375
vn 0.9985352 0.04428101 0.03433228
vn 0.9912109 -0.1137085 0.06915283
vn 0.3181152 0.1734619 -0.9321289
vn 0.265625 0.2792969 -0.9228516
vn 0.4309082 -0.1068726 -0.8959961
vn 0.4748535 -0.2531738 -0.8427734
vn -0.9414063 -0.3354492 0.03295898
vn -0.9985352 -0.04428101 -0.03433228
vn -0.8955078 -0.4416504 0.05859375
vn -0.9912109 0.1137085 -0.06915283
vn -0.3181152 -0.1734619 0.9321289
vn -0.4309082 0.1068726 0.8959961
vn -0.265625 -0.2792969 0.9228516
vn -0.4748535 0.2531738 0.8427734
vn 0.9790039 -0.09454346 -0.1798096
vn 0.9814453 0.02337646 -0.1911621
vn 0.9111328 -0.3881836 -0.1392822
vn 0.8398438 -0.53125 -0.1123047
vn -0.9790039 0.09454346 0.1798096
vn -0.9111328 0.3881836 0.1392822
vn -0.9814453 -0.02340698 0.1911621
vn -0.8398438 0.53125 0.1123047
vn 0.9594727 -0.2202148 -0.1767578
vn 0.9667969 -0.1654053 -0.1938477
vn 0.9311523 -0.3383789 -0.1369629
vn 0.9150391 -0.3847656 -0.1202393
vn -0.9594727 0.2202148 0.1767578
vn -0.9311523 0.3383789 0.1369629
vn -0.9667969 0.1654053 0.1938477
vn -0.9150391 0.3847656 0.1202393
vn 0.2445068 0.4333496 -0.8676758
vn 0.2408447 0.5361328 -0.809082
vn 0.2380371 0.1437988 -0.9604492
vn 0.2255859 -0.01712036 -0.9741211
vn -0.2445068 -0.4333496 0.8676758
vn -0.2380371 -0.1437988 0.9604492
vn -0.2408447 -0.5361328 0.809082
vn -0.2255859 0.01712036 0.9741211
vn 0.9941406 0.04150391 -0.1010132
vn 0.9765625 0.1429443 -0.1599121
vn 0.9741211 -0.21875 0.05532837
vn 0.9267578 -0.3500977 0.137085
vn -0.8188477 0.2474365 -0.5180664
vn -0.8134766 0.3522949 -0.4628906
vn -0.7802734 -0.03491211 -0.6245117
vn -0.7299805 -0.1851807 -0.6577148
vn -0.9941406 -0.04150391 0.1010132
vn -0.9741211 0.21875 -0.05532837
vn -0.9765625 -0.1429443 0.1599121
vn -0.9267578 0.3500977 -0.137085
vn 0.8188477 -0.2474365 0.5180664
vn 0.7802734 0.03491211 0.6245117
vn 0.8134766 -0.3522949 0.4628906
vn 0.7299805 0.1851807 0.6577148
vn -0.6025391 0.2213135 0.7666016
vn -0.5385742 0.3203125 0.7792969
vn -0.7265625 -0.04428101 0.6855469
vn -0.765625 -0.1851807 0.6157227
vn 0.6025391 -0.2213135 -0.7666016
vn 0.7265625 0.04428101 -0.6855469
vn 0.5385742 -0.3203125 -0.7792969
vn 0.765625 0.1851807 -0.6157227
vn -0.002767563 0.04150391 0.9990234
vn 0.05767822 0.1429443 0.9882813
vn -0.1561279 -0.21875 0.9633789
vn -0.232666 -0.3500977 0.9072266
vn 0.6000977 0.2474365 -0.7607422
vn 0.5449219 0.3522949 -0.7607422
vn 0.7021484 -0.03491211 -0.7114258
vn 0.7299805 -0.1851807 -0.6577148
vn 0.002767563 -0.04150391 -0.9990234
vn 0.1561279 0.21875 -0.9633789
vn -0.05767822 -0.1429443 -0.9882813
vn 0.232666 0.3500977 -0.9072266
vn -0.6000977 -0.2474365 0.7607422
vn -0.7021484 0.03491211 0.7114258
vn -0.5449219 -0.3522949 0.7607422
vn -0.7299805 0.1851807 0.6577148
vn -0.8305664 0.2233887 -0.5102539
vn -0.8359375 0.3220215 -0.4445801
vn -0.7641602 -0.04159546 -0.644043
vn -0.6992188 -0.182251 -0.6914063
vn 0.8305664 -0.2233887 0.5102539
vn 0.7641602 0.04159546 0.644043
vn 0.8359375 -0.3220215 0.4445801
vn 0.6992188 0.182251 0.6914063
vn -0.03114319 0.4272461 -0.9033203
vn -0.06231689 0.364502 -0.9291992
vn -0.1291504 0.2202148 -0.9667969
vn -0.1553955 0.15979 -0.9746094
vn 0.03114319 -0.4272461 0.9033203
vn 0.1291504 -0.2202148 0.9667969
vn 0.06231689 -0.364502 0.9291992
vn 0.1553955 -0.15979 0.9746094
vn 0.8676758 0.3144531 0.3850098
vn 0.8999023 0.2546387 0.3540039
vn 0.9526367 0.1193848 0.2792969
vn 0.9667969 0.06329346 0.2467041
vn -0.8676758 -0.3144531 -0.3850098
vn -0.9526367 -0.1193848 -0.2792969
vn -0.8999023 -0.2546387 -0.3540039
vn -0.9667969 -0.06329346 -0.2467041
vn -0.7275391 0.0135498 -0.6860352
vn -0.02134705 0.01071167 -0.9995117
vn -0.7275391 0.0135498 -0.6860352
vn 0.6977539 0.001434326 -0.7163086
vn -0.02134705 0.01071167 -0.9995117
vn 0.6977539 0.001434326 -0.7163086
vn 0.7275391 -0.0135498 0.6860352
vn 0.7275391 -0.0135498 0.6860352
vn 0.02134705 -0.01071167 0.9995117
vn -0.6977539 -0.001434326 0.7163086
vn -0.6977539 -0.001434326 0.7163086
vn 0.02134705 -0.01071167 0.9995117

vt 0.8422852 0.7006836
vt 0.9926758 0.2159424
vt 0.9921875 0.08068848
vt 0.9970703 0.3566895
vt 0.9926758 0.2159424
vt 0.9921875 0.08068848
vt 0.8422852 0.7006836
vt 0.9970703 0.3566895
vt 0.9926758 0.2159424
vt 0.9921875 0.08068848
vt 0.8422852 0.7006836
vt 0.9970703 0.3566895
vt 0.9926758 0.2159424
vt 0.9921875 0.08068848
vt 0.8422852 0.7006836
vt 0.9970703 0.3566895
vt 0.9926758 0.2159424
vt 0.9921875 0.08068848
vt 0.8422852 0.7006836
vt 0.9970703 0.3566895
vt 0.9926758 0.2159424
vt 0.9921875 0.08068848
vt 0.8422852 0.7006836
vt 0.9970703 0.3566895
vt 0.9926758 0.2159424
vt 0.9921875 0.08068848
vt 0.8422852 0.7006836
vt 0.9970703 0.3566895
vt 0.9926758 0.2159424
vt 0.8422852 0.7006836
vt 0.9921875 0.08068848
vt 0.9970703 0.3566895
vt 0.9926758 0.2159424
vt 0.8422852 0.7006836
vt 0.9921875 0.08068848
vt 0.9970703 0.3566895
vt 0.9926758 0.2159424
vt 0.8422852 0.7006836
vt 0.9921875 0.08068848
vt 0.9970703 0.3566895
vt 0.9926758 0.2159424
vt 0.8422852 0.7006836
vt 0.9921875 0.08068848
vt 0.9970703 0.3566895
vt 0.9926758 0.2159424
vt 0.8422852 0.7006836
vt 0.9921875 0.08068848
vt 0.9970703 0.3566895
vt 0.9926758 0.2159424
vt 0.8422852 0.7006836
vt 0.9921875 0.08068848
vt 0.9970703 0.3566895
vt 0.9926758 0.2159424
vt 0.8422852 0.7006836
vt 0.9921875 0.08068848
vt 0.9970703 0.3566895
vt 0.9970703 0.3566895
vt 0.8422852 0.7006836
vt 0.9926758 0.2159424
vt 0.9921875 0.08068848
vt 0.9970703 0.3566895
vt 0.9926758 0.2159424
vt 0.8422852 0.7006836
vt 0.9921875 0.08068848
vt 0.9926758 0.2159424
vt 0.9921875 0.08068848
vt 0.8422852 0.7006836
vt 0.9970703 0.3566895
vt 0.9926758 0.2159424
vt 0.9921875 0.08068848
vt 0.8422852 0.7006836
vt 0.9970703 0.3566895
vt 0.9926758 0.2159424
vt 0.9921875 0.08068848
vt 0.8422852 0.7006836
vt 0.9970703 0.3566895
vt 0.9926758 0.2159424
vt 0.8422852 0.7006836
vt 0.9921875 0.08068848
vt 0.9970703 0.3566895
vt 0.9926758 0.2159424
vt 0.8422852 0.7006836
vt 0.9921875 0.08068848
vt 0.9970703 0.3566895
vt 0.9926758 0.2159424
vt 0.8422852 0.7006836
vt 0.9921875 0.08068848
vt 0.9970703 0.3566895
vt 0.9970703 0.3566895
vt 0.8422852 0.7006836
vt 0.9926758 0.2159424
vt 0.9921875 0.08068848
vt 0.9970703 0.3566895
vt 0.9926758 0.2159424
vt 0.8422852 0.7006836
vt 0.9921875 0.08068848
vt 0.9926758 0.2159424
vt 0.9921875 0.08068848
vt 0.8422852 0.7006836
vt 0.9970703 0.3566895
vt 0.9926758 0.2159424
vt 0.8422852 0.7006836
vt 0.9921875 0.08068848
vt 0.9970703 0.3566895
vt 0.9926758 0.2159424
vt 0.9921875 0.08068848
vt 0.8422852 0.7006836
vt 0.9970703 0.3566895
vt 0.9926758 0.2159424
vt 0.9921875 0.08068848
vt 0.8422852 0.7006836
vt 0.9970703 0.3566895
vt 0.9926758 0.2159424
vt 0.8422852 0.7006836
vt 0.9921875 0.08068848
vt 0.9970703 0.3566895
vt 0.9926758 0.2159424
vt 0.8422852 0.7006836
vt 0.9921875 0.08068848
vt 0.9970703 0.3566895
vt 0.9926758 0.2159424
vt 0.9921875 0.08068848
vt 0.8422852 0.7006836
vt 0.9970703 0.3566895
vt 0.9926758 0.2159424
vt 0.8422852 0.7006836
vt 0.9921875 0.08068848
vt 0.9970703 0.3566895
vt 0.9926758 0.2159424
vt 0.9921875 0.08068848
vt 0.8422852 0.7006836
vt 0.9970703 0.3566895
vt 0.9926758 0.2159424
vt 0.8422852 0.7006836
vt 0.9921875 0.08068848
vt 0.9970703 0.3566895
vt 0.9926758 0.2159424
vt 0.9921875 0.08068848
vt 0.8422852 0.7006836
vt 0.9970703 0.3566895
vt 0.9926758 0.2159424
vt 0.8422852 0.7006836
vt 0.9921875 0.08068848
vt 0.9970703 0.3566895
vt 0.9926758 0.2159424
vt 0.9921875 0.08068848
vt 0.8422852 0.7006836
vt 0.9970703 0.3566895
vt 0.9926758 0.2159424
vt 0.9921875 0.08068848
vt 0.8422852 0.7006836
vt 0.9970703 0.3566895
vt 0.9926758 0.2159424
vt 0.8422852 0.7006836
vt 0.9921875 0.08068848
vt 0.9970703 0.3566895
vt 0.9926758 0.2159424
vt 0.8422852 0.7006836
vt 0.9921875 0.08068848
vt 0.9970703 0.3566895
vt 0.9926758 0.2159424
vt 0.9921875 0.08068848
vt 0.8422852 0.7006836
vt 0.9970703 0.3566895
vt 0.9926758 0.2159424
vt 0.8422852 0.7006836
vt 0.9921875 0.08068848
vt 0.9970703 0.3566895
vt 0.9926758 0.2159424
vt 0.9921875 0.08068848
vt 0.8422852 0.7006836
vt 0.9970703 0.3566895
vt 0.9926758 0.2159424
vt 0.9921875 0.08068848
vt 0.8422852 0.7006836
vt 0.9970703 0.3566895
vt 0.9926758 0.2159424
vt 0.8422852 0.7006836
vt 0.9921875 0.08068848
vt 0.9970703 0.3566895
vt 0.9926758 0.2159424
vt 0.8422852 0.7006836
vt 0.9921875 0.08068848
vt 0.9970703 0.3566895
vt 0.9926758 0.2159424
vt 0.9921875 0.08068848
vt 0.8422852 0.7006836
vt 0.9970703 0.3566895
vt 0.9926758 0.2159424
vt 0.8422852 0.7006836
vt 0.9921875 0.08068848
vt 0.9970703 0.3566895
vt 0.9970703 0.3566895
vt 0.8422852 0.7006836
vt 0.9926758 0.2159424
vt 0.9921875 0.08068848
vt 0.9970703 0.3566895
vt 0.9926758 0.2159424
vt 0.8422852 0.7006836
vt 0.9921875 0.08068848
vt 0.9970703 0.3566895
vt 0.8422852 0.7006836
vt 0.9926758 0.2159424
vt 0.9921875 0.08068848
vt 0.9970703 0.3566895
vt 0.9926758 0.2159424
vt 0.8422852 0.7006836
vt 0.9921875 0.08068848
vt 0.9433594 0.3640137
vt 0.9321289 0.4221191
vt 0.9516602 0.3674316
vt 0.9433594 0.3640137
vt 0.9321289 0.4221191
vt 0.9516602 0.3674316
vt 0.9433594 0.3640137
vt 0.9516602 0.3674316
vt 0.9321289 0.4221191
vt 0.9433594 0.3640137
vt 0.9516602 0.3674316
vt 0.9321289 0.4221191

g MEP_Con_01_h_LOD_01(Clone)_14867_203
usemtl MEP_Con_01_h_LOD_01(Clone)_14867_203
usemap MEP_Con_01_h_LOD_01(Clone)_14867_203
f 1/1/1 3/3/3 2/2/2
f 4/4/4 1/1/1 2/2/2
f 5/5/5 7/7/7 6/6/6
f 8/8/8 7/7/7 5/5/5
f 9/9/9 11/11/11 10/10/10
f 12/12/12 11/11/11 9/9/9
f 13/13/13 15/15/15 14/14/14
f 16/16/16 15/15/15 13/13/13
f 17/17/17 19/19/19 18/18/18
f 20/20/20 19/19/19 17/17/17
f 21/21/21 23/23/23 22/22/22
f 24/24/24 23/23/23 21/21/21
f 25/25/25 27/27/27 26/26/26
f 28/28/28 27/27/27 25/25/25
f 29/29/29 31/31/31 30/30/30
f 32/32/32 29/29/29 30/30/30
f 33/33/33 35/35/35 34/34/34
f 36/36/36 33/33/33 34/34/34
f 37/37/37 39/39/39 38/38/38
f 40/40/40 37/37/37 38/38/38
f 41/41/41 43/43/43 42/42/42
f 44/44/44 41/41/41 42/42/42
f 45/45/45 47/47/47 46/46/46
f 48/48/48 45/45/45 46/46/46
f 49/49/49 51/51/51 50/50/50
f 52/52/52 49/49/49 50/50/50
f 53/53/53 55/55/55 54/54/54
f 56/56/56 53/53/53 54/54/54
f 57/57/57 59/59/59 58/58/58
f 59/59/59 60/60/60 58/58/58
f 61/61/61 63/63/63 62/62/62
f 62/62/62 63/63/63 64/64/64
f 65/65/65 67/67/67 66/66/66
f 68/68/68 67/67/67 65/65/65
f 69/69/69 71/71/71 70/70/70
f 72/72/72 71/71/71 69/69/69
f 73/73/73 75/75/75 74/74/74
f 76/76/76 75/75/75 73/73/73
f 77/77/77 79/79/79 78/78/78
f 80/80/80 77/77/77 78/78/78
f 81/81/81 83/83/83 82/82/82
f 84/84/84 81/81/81 82/82/82
f 85/85/85 87/87/87 86/86/86
f 88/88/88 85/85/85 86/86/86
f 89/89/89 91/91/91 90/90/90
f 91/91/91 92/92/92 90/90/90
f 93/93/93 95/95/95 94/94/94
f 94/94/94 95/95/95 96/96/96
f 97/97/97 99/99/99 98/98/98
f 100/100/100 99/99/99 97/97/97
f 101/101/101 103/103/103 102/102/102
f 104/104/104 101/101/101 102/102/102
f 105/105/105 107/107/107 106/106/106
f 108/108/108 107/107/107 105/105/105
f 109/109/109 111/111/111 110/110/110
f 112/112/112 111/111/111 109/109/109
f 113/113/113 115/115/115 114/114/114
f 116/116/116 113/113/113 114/114/114
f 117/117/117 119/119/119 118/118/118
f 120/120/120 117/117/117 118/118/118
f 121/121/121 123/123/123 122/122/122
f 124/124/124 123/123/123 121/121/121
f 125/125/125 127/127/127 126/126/126
f 128/128/128 125/125/125 126/126/126
f 129/129/129 131/131/131 130/130/130
f 132/132/132 131/131/131 129/129/129
f 133/133/133 135/135/135 134/134/134
f 136/136/136 133/133/133 134/134/134
f 137/137/137 139/139/139 138/138/138
f 140/140/140 139/139/139 137/137/137
f 141/141/141 143/143/143 142/142/142
f 144/144/144 141/141/141 142/142/142
f 145/145/145 147/147/147 146/146/146
f 148/148/148 147/147/147 145/145/145
f 149/149/149 151/151/151 150/150/150
f 152/152/152 151/151/151 149/149/149
f 153/153/153 155/155/155 154/154/154
f 156/156/156 153/153/153 154/154/154
f 157/157/157 159/159/159 158/158/158
f 160/160/160 157/157/157 158/158/158
f 161/161/161 163/163/163 162/162/162
f 164/164/164 163/163/163 161/161/161
f 165/165/165 167/167/167 166/166/166
f 168/168/168 165/165/165 166/166/166
f 169/169/169 171/171/171 170/170/170
f 172/172/172 171/171/171 169/169/169
f 173/173/173 175/175/175 174/174/174
f 176/176/176 175/175/175 173/173/173
f 177/177/177 179/179/179 178/178/178
f 180/180/180 177/177/177 178/178/178
f 181/181/181 183/183/183 182/182/182
f 184/184/184 181/181/181 182/182/182
f 185/185/185 187/187/187 186/186/186
f 188/188/188 187/187/187 185/185/185
f 189/189/189 191/191/191 190/190/190
f 192/192/192 189/189/189 190/190/190
f 193/193/193 195/195/195 194/194/194
f 195/195/195 196/196/196 194/194/194
f 197/197/197 199/199/199 198/198/198
f 198/198/198 199/199/199 200/200/200
f 201/201/201 203/203/203 202/202/202
f 203/203/203 204/204/204 202/202/202
f 205/205/205 207/207/207 206/206/206
f 206/206/206 207/207/207 208/208/208
f 209/209/209 211/211/211 210/210/210
f 212/212/212 214/214/214 213/213/213
f 215/215/215 217/217/217 216/216/216
f 218/218/218 220/220/220 219/219/219
