#MEP_Con_01_h_12884_283.obj

v -0.9886201 1.8701 2.022375
v -0.0414568 2.738964 0.1920417
v 0.1753582 3.133242 -0.009895469
v -0.1296138 2.017378 0.5884031
v 0.06087194 5.013865 0.3298679
v -0.04061018 5.410986 0.05557083
v 1.980739 3.836672 2.319789
v 0.4005526 4.29571 0.5631754
v 0.05843776 5.161913 -0.07768836
v -0.01362621 5.602562 0.1317865
v -0.2754533 3.565519 -2.601874
v -0.09598391 4.395245 -0.3495938
v -0.1546726 7.07416 0.1252462
v 0.1510447 7.44681 0.02075487
v -2.565888 6.258064 1.722563
v -0.4860701 6.428028 0.5230508
v 0.1437657 6.999117 -0.09007996
v -0.007079381 7.390816 0.02217149
v 1.258557 5.592319 -2.036172
v 0.1633459 6.328564 -0.376478
v -0.1149313 9.198686 -0.03920673
v -0.01336597 9.653197 0.1231301
v -2.010507 7.554882 -1.693333
v -0.4600731 8.447343 -0.08304714
v -0.007245257 9.326726 0.2779348
v 0.04387524 9.7173 -0.01884228
v 0.4093398 8.302306 3.072312
v 0.1829435 8.640229 0.6999851
v -0.0414568 2.738964 0.1920417
v -0.9886201 1.8701 2.022375
v 0.1753582 3.133242 -0.009895469
v -0.1296138 2.017378 0.5884031
v 0.06087194 5.013865 0.3298679
v 1.980739 3.836672 2.319789
v -0.04061018 5.410986 0.05557083
v 0.4005526 4.29571 0.5631754
v 0.05843776 5.161913 -0.07768836
v -0.2754533 3.565519 -2.601874
v -0.01362621 5.602562 0.1317865
v -0.09598391 4.395245 -0.3495938
v -0.1546726 7.07416 0.1252462
v -2.565888 6.258064 1.722563
v 0.1510447 7.44681 0.02075487
v -0.4860701 6.428028 0.5230508
v 0.1437657 6.999117 -0.09007996
v 1.258557 5.592319 -2.036172
v -0.007079381 7.390816 0.02217149
v 0.1633459 6.328564 -0.376478
v -0.1149313 9.198686 -0.03920673
v -2.010507 7.554882 -1.693333
v -0.01336597 9.653197 0.1231301
v -0.4600731 8.447343 -0.08304714
v -0.007245257 9.326726 0.2779348
v 0.4093398 8.302306 3.072312
v 0.04387524 9.7173 -0.01884228
v 0.1829435 8.640229 0.6999851
v -0.7608909 10.36044 1.125337
v -2.972181 11.57432 2.590003
v -0.2411207 10.70937 0.3411564
v 0.2145434 10.92739 0.02163795
v -0.7608909 10.36044 1.125337
v -0.2411207 10.70937 0.3411564
v -2.972181 11.57432 2.590003
v 0.2145434 10.92739 0.02163795
v -0.0956429 5.061844 0.02499675
v 0.1386503 5.473125 0.1635395
v -2.79034 3.783173 -0.3425459
v -0.4850394 4.333046 0.07775227
v 0.1548722 6.976057 0.1772904
v 0.1947346 7.401443 -0.06911406
v 0.9400093 5.51322 2.682291
v 0.3416193 6.220922 0.4609207
v 0.1576502 9.229545 0.07539321
v -0.1367662 9.724119 -0.05384009
v 3.393203 7.663885 0.08664072
v 0.6009246 8.352187 -0.04502783
v -0.0956429 5.061844 0.02499675
v -2.79034 3.783173 -0.3425459
v 0.1386503 5.473125 0.1635395
v -0.4850394 4.333046 0.07775227
v 0.1548722 6.976057 0.1772904
v 0.9400093 5.51322 2.682291
v 0.1947346 7.401443 -0.06911406
v 0.3416193 6.220922 0.4609207
v 0.1576502 9.229545 0.07539321
v 3.393203 7.663885 0.08664072
v -0.1367662 9.724119 -0.05384009
v 0.6009246 8.352187 -0.04502783
v -0.4775169 10.73707 -1.029075
v -0.1793415 10.03951 -4.58052
v 0.05301436 11.63629 -0.3431044
v 0.1226309 12.25096 0.0704868
v -0.4775169 10.73707 -1.029075
v 0.05301436 11.63629 -0.3431044
v -0.1793415 10.03951 -4.58052
v 0.1226309 12.25096 0.0704868
v -0.3181268 11.67299 -0.008455073
v 0.2608325 12.28067 0.04632941
v -5.330857 10.70736 -0.4643774
v -1.314057 10.75051 0.3802361
v -0.3181268 11.67299 -0.008455073
v -5.330857 10.70736 -0.4643774
v 0.2608325 12.28067 0.04632941
v -1.314057 10.75051 0.3802361
v 0.02405791 16.23364 -0.2524522
v 0.1418933 16.52574 0.03857754
v -1.716066 15.66677 -2.117514
v -0.3265538 15.68114 -0.5526247
v -0.1478827 17.37599 -0.005102781
v 0.2379923 17.72493 -0.05597593
v -3.080482 16.89673 1.141863
v -0.6589911 16.75801 0.3512541
v 0.02405791 16.23364 -0.2524522
v -1.716066 15.66677 -2.117514
v 0.1418933 16.52574 0.03857754
v -0.3265538 15.68114 -0.5526247
v -0.1478827 17.37599 -0.005102781
v -3.080482 16.89673 1.141863
v 0.2379923 17.72493 -0.05597593
v -0.6589911 16.75801 0.3512541
v -0.2024956 13.99218 -0.176472
v 0.1882951 14.39918 0.09286205
v -3.364371 13.64519 -2.273109
v -1.038192 13.37294 -0.3173573
v -0.2024956 13.99218 -0.176472
v -3.364371 13.64519 -2.273109
v 0.1882951 14.39918 0.09286205
v -1.038192 13.37294 -0.3173573
v -0.1262831 19.11485 -0.1159726
v 0.2235021 19.45665 -0.003616319
v -2.271984 18.42253 -1.469907
v -0.6588475 18.46833 -0.02611555
v -0.1262831 19.11485 -0.1159726
v -2.271984 18.42253 -1.469907
v 0.2235021 19.45665 -0.003616319
v -0.6588475 18.46833 -0.02611555
v -0.1596115 14.85503 -0.03273774
v 0.2875924 15.06024 -0.13123
v -2.729252 15.14348 1.59913
v -0.7542679 14.40186 0.3554637
v -0.1596115 14.85503 -0.03273774
v -2.729252 15.14348 1.59913
v 0.2875924 15.06024 -0.13123
v -0.7542679 14.40186 0.3554637
v -0.04378009 13.34469 -0.01564837
v 0.08035358 13.79207 0.1507555
v -2.022176 11.81187 -1.679347
v -0.4253647 12.61157 -0.06563446
v 0.07095131 13.46418 0.3023744
v 0.1402494 13.8547 0.009219763
v 0.444945 12.3931 3.085263
v 0.228547 12.76508 0.7170829
v -0.04378009 13.34469 -0.01564837
v -2.022176 11.81187 -1.679347
v 0.08035358 13.79207 0.1507555
v -0.4253647 12.61157 -0.06563446
v 0.07095131 13.46418 0.3023744
v 0.444945 12.3931 3.085263
v 0.1402494 13.8547 0.009219763
v 0.228547 12.76508 0.7170829
v 0.2303149 13.36106 0.09834765
v -0.03993804 13.87068 -0.0250826
v 3.385477 11.63914 0.08358564
v 0.6298194 12.46432 -0.03205588
v 0.2303149 13.36106 0.09834765
v 3.385477 11.63914 0.08358564
v -0.03993804 13.87068 -0.0250826
v 0.6298194 12.46432 -0.03205588
v 0.2360754 15.53636 -0.1273821
v 0.05768843 15.98374 -0.02121344
v 2.096183 14.00354 -1.922354
v 0.3254032 14.80325 -0.5017376
v -0.09215051 15.65585 -0.04629689
v 0.1922296 16.04637 0.05305566
v -2.898803 14.58478 0.03674813
v -0.520975 14.95675 0.06739862
v 0.2360754 15.53636 -0.1273821
v 2.096183 14.00354 -1.922354
v 0.05768843 15.98374 -0.02121344
v 0.3254032 14.80325 -0.5017376
v -0.09215051 15.65585 -0.04629689
v -2.898803 14.58478 0.03674813
v 0.1922296 16.04637 0.05305566
v -0.520975 14.95675 0.06739862
v 0.07626885 15.52952 0.2066643
v 0.2270942 16.03914 -0.04931048
v -0.23661 13.80761 3.346306
v 0.1645102 14.63278 0.6175432
v 0.07626885 15.52952 0.2066643
v -0.23661 13.80761 3.346306
v 0.2270942 16.03914 -0.04931048
v 0.1645102 14.63278 0.6175432
v 0.2624717 19.86199 -0.5207781
v 1.230045 19.65501 -1.722449
v 0.2621285 20.38085 -0.1571578
v 0.1857633 20.67361 0.03212554
v 0.2624717 19.86199 -0.5207781
v 0.2621285 20.38085 -0.1571578
v 1.230045 19.65501 -1.722449
v 0.1857633 20.67361 0.03212554
v 0.4766186 21.22732 0.09621695
v 1.005938 20.87008 1.110801
v 0.2917528 21.67425 0.03162864
v 0.2208562 21.92544 -0.0545447
v 0.4766186 21.22732 0.09621695
v 0.2917528 21.67425 0.03162864
v 1.005938 20.87008 1.110801
v 0.2208562 21.92544 -0.0545447

vn -0.7802734 -0.05743408 -0.6230469
vn -0.8295898 0.2324219 -0.5073242
vn -0.8271484 0.3356934 -0.4506836
vn -0.7338867 -0.1831055 -0.6542969
vn -0.7236328 0.276123 0.6323242
vn -0.6645508 0.3781738 0.6445313
vn -0.828125 -0.0004272461 0.5605469
vn -0.8525391 -0.1489258 0.5009766
vn 0.9765625 0.1971436 -0.08398438
vn 0.9448242 0.2932129 -0.1456299
vn 0.9951172 -0.05969238 0.07794189
vn 0.9672852 -0.1953125 0.1619873
vn -0.4377441 0.1641846 -0.8837891
vn -0.4555664 0.2751465 -0.8466797
vn -0.364502 -0.12854 -0.9223633
vn -0.3112793 -0.2807617 -0.9077148
vn 0.8188477 0.1552734 0.5527344
vn 0.8359375 0.2526855 0.4873047
vn 0.7231445 -0.1022949 0.6831055
vn 0.6445313 -0.2366943 0.7270508
vn 0.7480469 0.06439209 -0.6606445
vn 0.6953125 0.1627197 -0.7001953
vn 0.8344727 -0.1895752 -0.5170898
vn 0.8496094 -0.3186035 -0.4204102
vn -0.9780273 0.203125 0.05001831
vn -0.9462891 0.3103027 0.08966064
vn -0.9951172 -0.08221436 -0.05392456
vn -0.9667969 -0.2322998 -0.107666
vn 0.8295898 -0.2324219 0.5073242
vn 0.7802734 0.05743408 0.6230469
vn 0.8271484 -0.3356934 0.4506836
vn 0.7338867 0.1831055 0.6542969
vn 0.7236328 -0.276123 -0.6323242
vn 0.828125 0.0004272461 -0.5605469
vn 0.6645508 -0.3781738 -0.6445313
vn 0.8525391 0.1489258 -0.5009766
vn -0.9765625 -0.1971436 0.08398438
vn -0.9951172 0.05969238 -0.07794189
vn -0.9448242 -0.2932129 0.1456299
vn -0.9672852 0.1953125 -0.1619873
vn 0.4377441 -0.1641846 0.8837891
vn 0.364502 0.12854 0.9223633
vn 0.4555664 -0.2753906 0.8466797
vn 0.3112793 0.2807617 0.9077148
vn -0.8188477 -0.1552734 -0.5527344
vn -0.7231445 0.1022949 -0.6831055
vn -0.8359375 -0.2526855 -0.4873047
vn -0.6445313 0.2366943 -0.7270508
vn -0.7480469 -0.06439209 0.6606445
vn -0.8344727 0.1895752 0.5170898
vn -0.6953125 -0.1627197 0.7001953
vn -0.8496094 0.3186035 0.4204102
vn 0.9780273 -0.203125 -0.05001831
vn 0.9951172 0.08221436 0.05392456
vn 0.9462891 -0.3103027 -0.08966064
vn 0.9667969 0.2322998 0.107666
vn 0.5341797 0.4326172 0.7260742
vn 0.5327148 0.2866211 0.7958984
vn 0.4926758 -0.00567627 0.8701172
vn 0.4645996 -0.1206055 0.8774414
vn -0.5341797 -0.4326172 -0.7260742
vn -0.4926758 0.00567627 -0.8701172
vn -0.5327148 -0.2866211 -0.7958984
vn -0.4645996 0.1206055 -0.8774414
vn 0.1883545 0.2327881 -0.9541016
vn 0.1314697 0.3344727 -0.9331055
vn 0.3210449 -0.04095459 -0.9462891
vn 0.3798828 -0.1864014 -0.90625
vn -0.934082 0.2440186 0.2607422
vn -0.887207 0.3415527 0.3093262
vn -0.9926758 -0.01940918 0.1204224
vn -0.9863281 -0.1601563 0.04046631
vn -0.0559082 0.2365723 0.9702148
vn -0.001084328 0.3376465 0.9414063
vn -0.1915283 -0.03546143 0.980957
vn -0.2570801 -0.1801758 0.9492188
vn -0.1883545 -0.2327881 0.9541016
vn -0.3210449 0.04095459 0.9462891
vn -0.1314697 -0.3344727 0.9331055
vn -0.3798828 0.1864014 0.90625
vn 0.934082 -0.2440186 -0.2607422
vn 0.9926758 0.01940918 -0.1204224
vn 0.887207 -0.3415527 -0.3093262
vn 0.9863281 0.1601563 -0.04046631
vn 0.0559082 -0.2365723 -0.9702148
vn 0.1915283 0.03546143 -0.980957
vn 0.001084328 -0.3376465 -0.9414063
vn 0.2570801 0.1801758 -0.9492188
vn -0.7363281 0.5996094 -0.3139648
vn -0.8344727 0.4755859 -0.2785645
vn -0.9580078 0.2111816 -0.1929932
vn -0.9829102 0.1017456 -0.154541
vn 0.7363281 -0.5996094 0.3139648
vn 0.9580078 -0.2111816 0.1929932
vn 0.8344727 -0.4755859 0.2785645
vn 0.9829102 -0.1017456 0.154541
vn 0.2788086 -0.1119385 -0.9536133
vn 0.2590332 0.004272461 -0.9658203
vn 0.3115234 -0.4001465 -0.8618164
vn 0.3171387 -0.5395508 -0.7797852
vn -0.2788086 0.1119385 0.9536133
vn -0.3115234 0.4001465 0.8618164
vn -0.2590332 -0.004272461 0.9658203
vn -0.3171387 0.5395508 0.7797852
vn 0.7456055 0.3354492 -0.5761719
vn 0.6928711 0.4416504 -0.5698242
vn 0.8310547 0.04428101 -0.5546875
vn 0.8452148 -0.1137085 -0.5219727
vn -0.223999 0.1907959 -0.9555664
vn -0.2349854 0.3041992 -0.9233398
vn -0.1816406 -0.1096802 -0.9770508
vn -0.1520996 -0.2668457 -0.9516602
vn -0.7456055 -0.3354492 0.5761719
vn -0.8310547 -0.04428101 0.5546875
vn -0.6928711 -0.4416504 0.5698242
vn -0.8452148 0.1137085 0.5219727
vn 0.223999 -0.1907959 0.9555664
vn 0.1816406 0.1096802 0.9770508
vn 0.2349854 -0.3041992 0.9233398
vn 0.1520996 0.2668457 0.9516602
vn 0.6904297 -0.09454346 -0.7172852
vn 0.6855469 0.02337646 -0.7275391
vn 0.6586914 -0.3881836 -0.6445313
vn 0.6166992 -0.53125 -0.5810547
vn -0.6904297 0.09454346 0.7172852
vn -0.6586914 0.3881836 0.6445313
vn -0.6855469 -0.02340698 0.7275391
vn -0.6166992 0.53125 0.5810547
vn 0.6914063 -0.4003906 -0.6015625
vn 0.6958008 -0.3491211 -0.6274414
vn 0.6728516 -0.5092773 -0.5366211
vn 0.6621094 -0.5507813 -0.5083008
vn -0.6914063 0.4003906 0.6015625
vn -0.6728516 0.5092773 0.5366211
vn -0.6958008 0.3491211 0.6274414
vn -0.6621094 0.5507813 0.5083008
vn -0.307373 0.4333496 -0.847168
vn -0.276123 0.5361328 -0.7973633
vn -0.3669434 0.1437988 -0.9189453
vn -0.3850098 -0.01712036 -0.9228516
vn 0.307373 -0.4333496 0.847168
vn 0.3669434 -0.1437988 0.9189453
vn 0.276123 -0.5361328 0.7973633
vn 0.3850098 0.01712036 0.9228516
vn 0.7485352 0.04150391 -0.6621094
vn 0.7001953 0.1429443 -0.699707
vn 0.8237305 -0.21875 -0.5234375
vn 0.8325195 -0.3500977 -0.4291992
vn -0.9672852 0.2474365 0.05709839
vn -0.9306641 0.3522949 0.09857178
vn -0.9980469 -0.03491211 -0.05187988
vn -0.9765625 -0.1851807 -0.1083984
vn -0.7485352 -0.04150391 0.6621094
vn -0.8237305 0.21875 0.5234375
vn -0.7001953 -0.1429443 0.699707
vn -0.8325195 0.3500977 0.4291992
vn 0.9672852 -0.2474365 -0.05709839
vn 0.9980469 0.03491211 0.05187988
vn 0.9306641 -0.3522949 -0.09857178
vn 0.9765625 0.1851807 0.1083984
vn -0.04223633 0.2213135 0.9741211
vn 0.01712036 0.3203125 0.9472656
vn -0.1903076 -0.04428101 0.980957
vn -0.2626953 -0.1851807 0.9467773
vn 0.04223633 -0.2213135 -0.9741211
vn 0.1903076 0.04428101 -0.980957
vn -0.01712036 -0.3203125 -0.9472656
vn 0.2626953 0.1851807 -0.9467773
vn 0.5805664 0.04150391 0.8129883
vn 0.6230469 0.1429443 0.769043
vn 0.4350586 -0.21875 0.8735352
vn 0.340332 -0.3500977 0.8725586
vn 0.04364014 0.2474365 -0.9677734
vn -0.001367569 0.3522949 -0.9360352
vn 0.1552734 -0.03491211 -0.9873047
vn 0.2092285 -0.1851807 -0.9599609
vn -0.5805664 -0.04150391 -0.8129883
vn -0.4350586 0.21875 -0.8735352
vn -0.6230469 -0.1429443 -0.769043
vn -0.340332 0.3500977 -0.8725586
vn -0.04364014 -0.2474365 0.9677734
vn -0.1552734 0.03491211 0.9873047
vn 0.001367569 -0.3522949 0.9360352
vn -0.2092285 0.1851807 0.9599609
vn -0.9648438 0.2213135 -0.1431885
vn -0.9438477 0.3203125 -0.08129883
vn -0.9555664 -0.04428101 -0.2910156
vn -0.9145508 -0.1851807 -0.3596191
vn 0.9648438 -0.2213135 0.1431885
vn 0.9555664 0.04428101 0.2910156
vn 0.9438477 -0.3203125 0.08129883
vn 0.9145508 0.1851807 0.3596191
vn -0.5522461 0.4272461 -0.7158203
vn -0.5927734 0.364502 -0.7182617
vn -0.6689453 0.2202148 -0.7099609
vn -0.6948242 0.15979 -0.7011719
vn 0.5522461 -0.4272461 0.7158203
vn 0.6689453 -0.2202148 0.7099609
vn 0.5927734 -0.364502 0.7182617
vn 0.6948242 -0.15979 0.7011719
vn 0.9291992 0.3144531 -0.1932373
vn 0.9375 0.2546387 -0.2373047
vn 0.9370117 0.1193848 -0.3288574
vn 0.9291992 0.06329346 -0.3637695
vn -0.9291992 -0.3144531 0.1932373
vn -0.9370117 -0.1193848 0.3288574
vn -0.9375 -0.2546387 0.2373047
vn -0.9291992 -0.06329346 0.3637695

vt 0.8422852 0.7006836
vt 0.9926758 0.2159424
vt 0.9921875 0.08068848
vt 0.9970703 0.3566895
vt 0.9926758 0.2159424
vt 0.9921875 0.08068848
vt 0.8422852 0.7006836
vt 0.9970703 0.3566895
vt 0.9926758 0.2159424
vt 0.9921875 0.08068848
vt 0.8422852 0.7006836
vt 0.9970703 0.3566895
vt 0.9926758 0.2159424
vt 0.9921875 0.08068848
vt 0.8422852 0.7006836
vt 0.9970703 0.3566895
vt 0.9926758 0.2159424
vt 0.9921875 0.08068848
vt 0.8422852 0.7006836
vt 0.9970703 0.3566895
vt 0.9926758 0.2159424
vt 0.9921875 0.08068848
vt 0.8422852 0.7006836
vt 0.9970703 0.3566895
vt 0.9926758 0.2159424
vt 0.9921875 0.08068848
vt 0.8422852 0.7006836
vt 0.9970703 0.3566895
vt 0.9926758 0.2159424
vt 0.8422852 0.7006836
vt 0.9921875 0.08068848
vt 0.9970703 0.3566895
vt 0.9926758 0.2159424
vt 0.8422852 0.7006836
vt 0.9921875 0.08068848
vt 0.9970703 0.3566895
vt 0.9926758 0.2159424
vt 0.8422852 0.7006836
vt 0.9921875 0.08068848
vt 0.9970703 0.3566895
vt 0.9926758 0.2159424
vt 0.8422852 0.7006836
vt 0.9921875 0.08068848
vt 0.9970703 0.3566895
vt 0.9926758 0.2159424
vt 0.8422852 0.7006836
vt 0.9921875 0.08068848
vt 0.9970703 0.3566895
vt 0.9926758 0.2159424
vt 0.8422852 0.7006836
vt 0.9921875 0.08068848
vt 0.9970703 0.3566895
vt 0.9926758 0.2159424
vt 0.8422852 0.7006836
vt 0.9921875 0.08068848
vt 0.9970703 0.3566895
vt 0.9970703 0.3566895
vt 0.8422852 0.7006836
vt 0.9926758 0.2159424
vt 0.9921875 0.08068848
vt 0.9970703 0.3566895
vt 0.9926758 0.2159424
vt 0.8422852 0.7006836
vt 0.9921875 0.08068848
vt 0.9926758 0.2159424
vt 0.9921875 0.08068848
vt 0.8422852 0.7006836
vt 0.9970703 0.3566895
vt 0.9926758 0.2159424
vt 0.9921875 0.08068848
vt 0.8422852 0.7006836
vt 0.9970703 0.3566895
vt 0.9926758 0.2159424
vt 0.9921875 0.08068848
vt 0.8422852 0.7006836
vt 0.9970703 0.3566895
vt 0.9926758 0.2159424
vt 0.8422852 0.7006836
vt 0.9921875 0.08068848
vt 0.9970703 0.3566895
vt 0.9926758 0.2159424
vt 0.8422852 0.7006836
vt 0.9921875 0.08068848
vt 0.9970703 0.3566895
vt 0.9926758 0.2159424
vt 0.8422852 0.7006836
vt 0.9921875 0.08068848
vt 0.9970703 0.3566895
vt 0.9970703 0.3566895
vt 0.8422852 0.7006836
vt 0.9926758 0.2159424
vt 0.9921875 0.08068848
vt 0.9970703 0.3566895
vt 0.9926758 0.2159424
vt 0.8422852 0.7006836
vt 0.9921875 0.08068848
vt 0.9926758 0.2159424
vt 0.9921875 0.08068848
vt 0.8422852 0.7006836
vt 0.9970703 0.3566895
vt 0.9926758 0.2159424
vt 0.8422852 0.7006836
vt 0.9921875 0.08068848
vt 0.9970703 0.3566895
vt 0.9926758 0.2159424
vt 0.9921875 0.08068848
vt 0.8422852 0.7006836
vt 0.9970703 0.3566895
vt 0.9926758 0.2159424
vt 0.9921875 0.08068848
vt 0.8422852 0.7006836
vt 0.9970703 0.3566895
vt 0.9926758 0.2159424
vt 0.8422852 0.7006836
vt 0.9921875 0.08068848
vt 0.9970703 0.3566895
vt 0.9926758 0.2159424
vt 0.8422852 0.7006836
vt 0.9921875 0.08068848
vt 0.9970703 0.3566895
vt 0.9926758 0.2159424
vt 0.9921875 0.08068848
vt 0.8422852 0.7006836
vt 0.9970703 0.3566895
vt 0.9926758 0.2159424
vt 0.8422852 0.7006836
vt 0.9921875 0.08068848
vt 0.9970703 0.3566895
vt 0.9926758 0.2159424
vt 0.9921875 0.08068848
vt 0.8422852 0.7006836
vt 0.9970703 0.3566895
vt 0.9926758 0.2159424
vt 0.8422852 0.7006836
vt 0.9921875 0.08068848
vt 0.9970703 0.3566895
vt 0.9926758 0.2159424
vt 0.9921875 0.08068848
vt 0.8422852 0.7006836
vt 0.9970703 0.3566895
vt 0.9926758 0.2159424
vt 0.8422852 0.7006836
vt 0.9921875 0.08068848
vt 0.9970703 0.3566895
vt 0.9926758 0.2159424
vt 0.9921875 0.08068848
vt 0.8422852 0.7006836
vt 0.9970703 0.3566895
vt 0.9926758 0.2159424
vt 0.9921875 0.08068848
vt 0.8422852 0.7006836
vt 0.9970703 0.3566895
vt 0.9926758 0.2159424
vt 0.8422852 0.7006836
vt 0.9921875 0.08068848
vt 0.9970703 0.3566895
vt 0.9926758 0.2159424
vt 0.8422852 0.7006836
vt 0.9921875 0.08068848
vt 0.9970703 0.3566895
vt 0.9926758 0.2159424
vt 0.9921875 0.08068848
vt 0.8422852 0.7006836
vt 0.9970703 0.3566895
vt 0.9926758 0.2159424
vt 0.8422852 0.7006836
vt 0.9921875 0.08068848
vt 0.9970703 0.3566895
vt 0.9926758 0.2159424
vt 0.9921875 0.08068848
vt 0.8422852 0.7006836
vt 0.9970703 0.3566895
vt 0.9926758 0.2159424
vt 0.9921875 0.08068848
vt 0.8422852 0.7006836
vt 0.9970703 0.3566895
vt 0.9926758 0.2159424
vt 0.8422852 0.7006836
vt 0.9921875 0.08068848
vt 0.9970703 0.3566895
vt 0.9926758 0.2159424
vt 0.8422852 0.7006836
vt 0.9921875 0.08068848
vt 0.9970703 0.3566895
vt 0.9926758 0.2159424
vt 0.9921875 0.08068848
vt 0.8422852 0.7006836
vt 0.9970703 0.3566895
vt 0.9926758 0.2159424
vt 0.8422852 0.7006836
vt 0.9921875 0.08068848
vt 0.9970703 0.3566895
vt 0.9970703 0.3566895
vt 0.8422852 0.7006836
vt 0.9926758 0.2159424
vt 0.9921875 0.08068848
vt 0.9970703 0.3566895
vt 0.9926758 0.2159424
vt 0.8422852 0.7006836
vt 0.9921875 0.08068848
vt 0.9970703 0.3566895
vt 0.8422852 0.7006836
vt 0.9926758 0.2159424
vt 0.9921875 0.08068848
vt 0.9970703 0.3566895
vt 0.9926758 0.2159424
vt 0.8422852 0.7006836
vt 0.9921875 0.08068848

g MEP_Con_01_h_12884_283
usemtl MEP_Con_01_h_12884_283
usemap MEP_Con_01_h_12884_283
f 1/1/1 3/3/3 2/2/2
f 4/4/4 1/1/1 2/2/2
f 5/5/5 7/7/7 6/6/6
f 8/8/8 7/7/7 5/5/5
f 9/9/9 11/11/11 10/10/10
f 12/12/12 11/11/11 9/9/9
f 13/13/13 15/15/15 14/14/14
f 16/16/16 15/15/15 13/13/13
f 17/17/17 19/19/19 18/18/18
f 20/20/20 19/19/19 17/17/17
f 21/21/21 23/23/23 22/22/22
f 24/24/24 23/23/23 21/21/21
f 25/25/25 27/27/27 26/26/26
f 28/28/28 27/27/27 25/25/25
f 29/29/29 31/31/31 30/30/30
f 32/32/32 29/29/29 30/30/30
f 33/33/33 35/35/35 34/34/34
f 36/36/36 33/33/33 34/34/34
f 37/37/37 39/39/39 38/38/38
f 40/40/40 37/37/37 38/38/38
f 41/41/41 43/43/43 42/42/42
f 44/44/44 41/41/41 42/42/42
f 45/45/45 47/47/47 46/46/46
f 48/48/48 45/45/45 46/46/46
f 49/49/49 51/51/51 50/50/50
f 52/52/52 49/49/49 50/50/50
f 53/53/53 55/55/55 54/54/54
f 56/56/56 53/53/53 54/54/54
f 57/57/57 59/59/59 58/58/58
f 59/59/59 60/60/60 58/58/58
f 61/61/61 63/63/63 62/62/62
f 62/62/62 63/63/63 64/64/64
f 65/65/65 67/67/67 66/66/66
f 68/68/68 67/67/67 65/65/65
f 69/69/69 71/71/71 70/70/70
f 72/72/72 71/71/71 69/69/69
f 73/73/73 75/75/75 74/74/74
f 76/76/76 75/75/75 73/73/73
f 77/77/77 79/79/79 78/78/78
f 80/80/80 77/77/77 78/78/78
f 81/81/81 83/83/83 82/82/82
f 84/84/84 81/81/81 82/82/82
f 85/85/85 87/87/87 86/86/86
f 88/88/88 85/85/85 86/86/86
f 89/89/89 91/91/91 90/90/90
f 91/91/91 92/92/92 90/90/90
f 93/93/93 95/95/95 94/94/94
f 94/94/94 95/95/95 96/96/96
f 97/97/97 99/99/99 98/98/98
f 100/100/100 99/99/99 97/97/97
f 101/101/101 103/103/103 102/102/102
f 104/104/104 101/101/101 102/102/102
f 105/105/105 107/107/107 106/106/106
f 108/108/108 107/107/107 105/105/105
f 109/109/109 111/111/111 110/110/110
f 112/112/112 111/111/111 109/109/109
f 113/113/113 115/115/115 114/114/114
f 116/116/116 113/113/113 114/114/114
f 117/117/117 119/119/119 118/118/118
f 120/120/120 117/117/117 118/118/118
f 121/121/121 123/123/123 122/122/122
f 124/124/124 123/123/123 121/121/121
f 125/125/125 127/127/127 126/126/126
f 128/128/128 125/125/125 126/126/126
f 129/129/129 131/131/131 130/130/130
f 132/132/132 131/131/131 129/129/129
f 133/133/133 135/135/135 134/134/134
f 136/136/136 133/133/133 134/134/134
f 137/137/137 139/139/139 138/138/138
f 140/140/140 139/139/139 137/137/137
f 141/141/141 143/143/143 142/142/142
f 144/144/144 141/141/141 142/142/142
f 145/145/145 147/147/147 146/146/146
f 148/148/148 147/147/147 145/145/145
f 149/149/149 151/151/151 150/150/150
f 152/152/152 151/151/151 149/149/149
f 153/153/153 155/155/155 154/154/154
f 156/156/156 153/153/153 154/154/154
f 157/157/157 159/159/159 158/158/158
f 160/160/160 157/157/157 158/158/158
f 161/161/161 163/163/163 162/162/162
f 164/164/164 163/163/163 161/161/161
f 165/165/165 167/167/167 166/166/166
f 168/168/168 165/165/165 166/166/166
f 169/169/169 171/171/171 170/170/170
f 172/172/172 171/171/171 169/169/169
f 173/173/173 175/175/175 174/174/174
f 176/176/176 175/175/175 173/173/173
f 177/177/177 179/179/179 178/178/178
f 180/180/180 177/177/177 178/178/178
f 181/181/181 183/183/183 182/182/182
f 184/184/184 181/181/181 182/182/182
f 185/185/185 187/187/187 186/186/186
f 188/188/188 187/187/187 185/185/185
f 189/189/189 191/191/191 190/190/190
f 192/192/192 189/189/189 190/190/190
f 193/193/193 195/195/195 194/194/194
f 195/195/195 196/196/196 194/194/194
f 197/197/197 199/199/199 198/198/198
f 198/198/198 199/199/199 200/200/200
f 201/201/201 203/203/203 202/202/202
f 203/203/203 204/204/204 202/202/202
f 205/205/205 207/207/207 206/206/206
f 206/206/206 207/207/207 208/208/208
