#MEP_Con_01_f_LOD_02(Clone)_13296_214.obj

v 1.207715 11.8727 -1.93825
v -1.258468 20.74399 1.482487
v 0.3704562 11.94678 2.309893
v 1.792853 20.68254 -1.119147
v -2.081301 11.88785 -0.7485119
v 1.608247 20.67806 0.7281275
v 2.488725 11.75238 0.9168378
v -1.396134 20.76712 -0.3666971
v -2.139306 6.102907 5.123919
v 2.138243 5.805046 -4.677749
v 1.279143 14.63286 -2.889722
v 0.4644555 14.15287 2.291853
v -4.344398 6.037307 -2.191808
v 4.661159 6.037306 3.588139
v 2.389139 14.78854 1.609295
v -2.410106 14.83608 -1.032903
v 1.207715 11.8727 -1.93825
v 0.3704562 11.94678 2.309893
v -1.258468 20.74399 1.482487
v 1.792853 20.68254 -1.119147
v -2.081301 11.88785 -0.7485119
v 2.488725 11.75238 0.9168378
v 1.608247 20.67806 0.7281275
v -1.396134 20.76712 -0.3666971
v -2.139306 6.102907 5.123919
v 1.279143 14.63286 -2.889722
v 2.138243 5.805046 -4.677749
v 0.4644555 14.15287 2.291853
v -4.344398 6.037307 -2.191808
v 2.389139 14.78854 1.609295
v 4.661159 6.037306 3.588139
v -2.410106 14.83608 -1.032903
v -0.05432351 -0.137548 -0.4407606
v 0.2283186 19.82228 0.168062
v -0.02295755 -0.142512 0.3622173
v 0.4019955 -0.137548 -0.1281649
v 0.2283186 19.82228 0.168062
v -0.4013899 -0.142512 -0.1097327
v -0.05432351 -0.137548 -0.4407606
v -0.02295755 -0.142512 0.3622173
v 0.2283186 19.82228 0.168062
v 0.4019955 -0.137548 -0.1281649
v -0.4013899 -0.142512 -0.1097327
v 0.2283186 19.82228 0.168062

vn -0.6069336 -0.1195679 -0.7856445
vn -0.3413086 0.02542114 -0.9394531
vn -0.7270508 -0.1958008 -0.6577148
vn -0.1583252 0.1130981 -0.980957
vn -0.7792969 -0.01394653 0.6259766
vn -0.7792969 -0.01394653 0.6259766
vn -0.7792969 -0.01394653 0.6259766
vn -0.7792969 -0.01394653 0.6259766
vn -0.6464844 0.08380127 -0.7583008
vn -0.5771484 -0.008209229 -0.8164063
vn -0.6621094 0.1067505 -0.7416992
vn -0.7529297 0.2648926 -0.6025391
vn 0.8867188 -0.02877808 -0.4616699
vn 0.8964844 -0.04998779 -0.4396973
vn 0.8837891 -0.02337646 -0.467041
vn 0.8662109 0.009307861 -0.4997559
vn 0.6069336 0.1195679 0.7856445
vn 0.7270508 0.1958008 0.6577148
vn 0.3413086 -0.02542114 0.9394531
vn 0.1583252 -0.1130981 0.980957
vn 0.7792969 0.01394653 -0.6259766
vn 0.7792969 0.01394653 -0.6259766
vn 0.7792969 0.01394653 -0.6259766
vn 0.7792969 0.01394653 -0.6259766
vn 0.6464844 -0.08380127 0.7583008
vn 0.6621094 -0.1067505 0.7416992
vn 0.5771484 0.008209229 0.8164063
vn 0.7529297 -0.2648926 0.6025391
vn -0.8867188 0.02877808 0.4616699
vn -0.8837891 0.02337646 0.467041
vn -0.8964844 0.04998779 0.4396973
vn -0.8662109 -0.009307861 0.4997559
vn -0.875 0.01293945 -0.4838867
vn -0.269043 0.01965332 -0.9628906
vn -0.875 0.01293945 -0.4838867
vn 0.4978027 0.01461792 -0.8671875
vn -0.269043 0.01965332 -0.9628906
vn 0.4978027 0.01461792 -0.8671875
vn 0.875 -0.01293945 0.4838867
vn 0.875 -0.01293945 0.4838867
vn 0.269043 -0.01965332 0.9628906
vn -0.4978027 -0.01461792 0.8671875
vn -0.4978027 -0.01461792 0.8671875
vn 0.269043 -0.01965332 0.9628906

vt 0.001989365 0.007873535
vt 0.7783203 0.996582
vt 0.9863281 0.002599716
vt 0.1824951 0.9921875
vt 0.001989365 0.007873535
vt 0.7783203 0.996582
vt 0.9863281 0.002599716
vt 0.1824951 0.9921875
vt 0.001989365 0.007873535
vt 0.9863281 0.002599716
vt 0.7783203 0.996582
vt 0.1824951 0.9921875
vt 0.001989365 0.007873535
vt 0.9863281 0.002599716
vt 0.7783203 0.996582
vt 0.1824951 0.9921875
vt 0.001989365 0.007873535
vt 0.9863281 0.002599716
vt 0.7783203 0.996582
vt 0.1824951 0.9921875
vt 0.001989365 0.007873535
vt 0.9863281 0.002599716
vt 0.7783203 0.996582
vt 0.1824951 0.9921875
vt 0.001989365 0.007873535
vt 0.7783203 0.996582
vt 0.9863281 0.002599716
vt 0.1824951 0.9921875
vt 0.001989365 0.007873535
vt 0.7783203 0.996582
vt 0.9863281 0.002599716
vt 0.1824951 0.9921875
vt 0.9433594 0.3640137
vt 0.9321289 0.4221191
vt 0.9516602 0.3674316
vt 0.9433594 0.3640137
vt 0.9321289 0.4221191
vt 0.9516602 0.3674316
vt 0.9433594 0.3640137
vt 0.9516602 0.3674316
vt 0.9321289 0.4221191
vt 0.9433594 0.3640137
vt 0.9516602 0.3674316
vt 0.9321289 0.4221191

g MEP_Con_01_f_LOD_02(Clone)_13296_214
usemtl MEP_Con_01_f_LOD_02(Clone)_13296_214
usemap MEP_Con_01_f_LOD_02(Clone)_13296_214
f 1/1/1 3/3/3 2/2/2
f 4/4/4 1/1/1 2/2/2
f 5/5/5 7/7/7 6/6/6
f 8/8/8 5/5/5 6/6/6
f 9/9/9 11/11/11 10/10/10
f 12/12/12 11/11/11 9/9/9
f 13/13/13 15/15/15 14/14/14
f 16/16/16 15/15/15 13/13/13
f 17/17/17 19/19/19 18/18/18
f 20/20/20 19/19/19 17/17/17
f 21/21/21 23/23/23 22/22/22
f 24/24/24 23/23/23 21/21/21
f 25/25/25 27/27/27 26/26/26
f 28/28/28 25/25/25 26/26/26
f 29/29/29 31/31/31 30/30/30
f 32/32/32 29/29/29 30/30/30
f 33/33/33 35/35/35 34/34/34
f 36/36/36 38/38/38 37/37/37
f 39/39/39 41/41/41 40/40/40
f 42/42/42 44/44/44 43/43/43
