#MEP_ConTrunk_01_h_12029_3.obj

v 0.0009405089 -0.2774613 0.6593417
v -0.5684121 -0.2774613 0.3306322
v 0.0001500634 0.5697007 0.3851288
v -0.3313129 0.5601587 0.1929659
v -0.171202 8.014688 0.2789809
v 0.127691 8.016972 0.2921543
v -0.2836095 7.961687 -0.02116143
v 0.2877117 24.00301 -0.04294457
v 0.2877117 24.00301 -0.04294457
v -0.5684185 -0.2774613 -0.32679
v 0.00173111 0.5519297 -0.3813532
v -0.3305679 0.5512717 -0.1902675
v 0.0009276394 -0.2774613 -0.6555026
v 0.0305531 7.948495 -0.2672933
v -0.2836095 7.961687 -0.02116143
v 0.2877117 24.00301 -0.04294457
v -0.5684121 -0.2774613 0.3306322
v -0.3305679 0.5512717 -0.1902675
v -0.3313129 0.5601587 0.1929659
v -0.5684185 -0.2774613 -0.32679
v -0.2836095 7.961687 -0.02116143
v 0.5702802 -0.2774613 -0.326793
v 0.3332081 0.5614707 -0.1891428
v 0.0009276394 -0.2774613 -0.6555026
v 0.00173111 0.5519297 -0.3813532
v 0.0305531 7.948495 -0.2672933
v 0.3123209 8.008615 -0.0006545959
v 0.2877117 24.00301 -0.04294457
v 0.5702802 -0.2774613 -0.326793
v 0.5702866 -0.2774613 0.3306291
v 0.3332081 0.5614707 -0.1891428
v 0.3324013 0.5703558 0.194097
v 0.0009405089 -0.2774613 0.6593417
v 0.0001500634 0.5697007 0.3851288
v 0.127691 8.016972 0.2921543
v 0.3123209 8.008615 -0.0006545959
v 0.2877117 24.00301 -0.04294457

vn -0.2700195 0.3076172 0.9125977
vn -0.9243164 0.3110352 0.220459
vn -0.2827148 0.1650391 0.9448242
vn -0.9599609 0.1680908 0.2236328
vn -0.7949219 0.0256958 0.605957
vn 0.1898193 0.01535034 0.9819336
vn -0.8461914 0.02792358 -0.5317383
vn 0.01360321 1 -0.001225471
vn 0.01360321 1 -0.001225471
vn -0.6538086 0.3144531 -0.6884766
vn 0.2783203 0.1760254 -0.9443359
vn -0.6748047 0.1739502 -0.7167969
vn 0.2687988 0.3129883 -0.9111328
vn 0.324707 0.02108765 -0.9458008
vn -0.8461914 0.02792358 -0.5317383
vn 0.01360321 1 -0.001225471
vn -0.9243164 0.3110352 0.220459
vn -0.6748047 0.1739502 -0.7167969
vn -0.9599609 0.1680908 0.2236328
vn -0.6538086 0.3144531 -0.6884766
vn -0.8461914 0.02792358 -0.5317383
vn 0.9243164 0.3105469 -0.22229
vn 0.9575195 0.1697998 -0.2320557
vn 0.2687988 0.3129883 -0.9111328
vn 0.2783203 0.1760254 -0.9443359
vn 0.324707 0.02108765 -0.9458008
vn 0.9868164 0.01165771 0.1622314
vn 0.01360321 1 -0.001225471
vn 0.9243164 0.3105469 -0.22229
vn 0.6552734 0.3085938 0.6894531
vn 0.9575195 0.1697998 -0.2320557
vn 0.6791992 0.1645508 0.715332
vn -0.2700195 0.3076172 0.9125977
vn -0.2827148 0.1650391 0.9448242
vn 0.1898193 0.01535034 0.9819336
vn 0.9868164 0.01165771 0.1622314
vn 0.01360321 1 -0.001225471

vt 0.333252 0.003404617
vt 0.166748 0.003404617
vt 0.333252 0.2583008
vt 0.166748 0.2575684
vt 0.166748 2.626953
vt 0.333252 2.626953
vt 5.799532E-05 2.625
vt 0.166748 6.253906
vt 5.799532E-05 6.253906
vt 1 0.003404617
vt 0.8334961 0.2558594
vt 1 0.2563477
vt 0.8334961 0.003404617
vt 0.7290039 2.625
vt 1 2.625
vt 0.8334961 6.253906
vt 0.166748 0.003404617
vt 5.799532E-05 0.2563477
vt 0.166748 0.2575684
vt 5.799532E-05 0.003404617
vt 5.799532E-05 2.625
vt 0.6665039 0.003404617
vt 0.6665039 0.2563477
vt 0.8334961 0.003404617
vt 0.8334961 0.2558594
vt 0.7290039 2.625
vt 0.5 2.626953
vt 0.5 6.253906
vt 0.6665039 0.003404617
vt 0.5 0.003404617
vt 0.6665039 0.2563477
vt 0.5 0.2575684
vt 0.333252 0.003404617
vt 0.333252 0.2583008
vt 0.333252 2.626953
vt 0.5 2.626953
vt 0.333252 6.253906

g MEP_ConTrunk_01_h_12029_3
usemtl MEP_ConTrunk_01_h_12029_3
usemap MEP_ConTrunk_01_h_12029_3
f 1/1/1 3/3/3 2/2/2
f 3/3/3 4/4/4 2/2/2
f 4/4/4 3/3/3 5/5/5
f 3/3/3 6/6/6 5/5/5
f 4/4/4 5/5/5 7/7/7
f 6/6/6 8/8/8 5/5/5
f 5/5/5 9/9/9 7/7/7
f 10/10/10 12/12/12 11/11/11
f 13/13/13 10/10/10 11/11/11
f 11/11/11 12/12/12 14/14/14
f 12/12/12 15/15/15 14/14/14
f 15/15/15 16/16/16 14/14/14
f 17/17/17 19/19/19 18/18/18
f 20/20/20 17/17/17 18/18/18
f 18/18/18 19/19/19 21/21/21
f 22/22/22 24/24/24 23/23/23
f 24/24/24 25/25/25 23/23/23
f 25/25/25 26/26/26 23/23/23
f 23/23/23 26/26/26 27/27/27
f 26/26/26 28/28/28 27/27/27
f 29/29/29 31/31/31 30/30/30
f 31/31/31 32/32/32 30/30/30
f 30/30/30 32/32/32 33/33/33
f 32/32/32 34/34/34 33/33/33
f 34/34/34 32/32/32 35/35/35
f 32/32/32 36/36/36 35/35/35
f 32/32/32 31/31/31 36/36/36
f 36/36/36 37/37/37 35/35/35
