#mesh_dirt_floor_25_2856_3.obj

v -0.5885876 9.051628E-07 -9.859449E-06
v -0.5885876 9.051628E-07 -1.134477
v 0.5886203 9.051628E-07 -1.134477
v 0.5886203 9.051628E-07 -9.859449E-06
v -1.499984 9.051628E-07 -9.859449E-06
v 1.500017 9.051628E-07 -9.859449E-06
v 2.63447 9.051628E-07 1.134458
v -2.634468 9.051628E-07 1.134458

vn 0 1 0
vn 0 1 0
vn 0 1 0
vn 0 1 0
vn 0 1 0
vn 0 1 0
vn 0 1 0
vn 0 1 0

vt 0.7978516 0.004058838
vt 0.7978516 0.07940674
vt 0.8759766 0.07940674
vt 0.8759766 0.004058838
vt 0.4812012 0.004058838
vt 0.6801758 0.004058838
vt 0.7558594 0.07940674
vt 0.4057617 0.07940674

g mesh_dirt_floor_25_2856_3
usemtl mesh_dirt_floor_25_2856_3
usemap mesh_dirt_floor_25_2856_3
f 1/1/1 3/3/3 2/2/2
f 1/1/1 4/4/4 3/3/3
f 5/5/5 7/7/7 6/6/6
f 5/5/5 8/8/8 7/7/7
