#mesh_dirt_floor_04_3042_2.obj

v -0.5672082 -0.3567744 -0.932772
v 0.5672442 -0.3567744 -2.067224
v 0.5672442 -0.3567744 0.9327764
v -0.5672082 -0.3567744 2.067229
v -0.5597484 -0.3567744 2.063946
v -0.5597484 0.3567742 2.063946
v -0.5597484 0.3567742 -0.9402318
v -0.5597484 -0.3567744 -0.9402318

vn 0 1 0
vn 0 1 0
vn 0 1 0
vn 0 1 0
vn 1 0 0
vn 1 0 0
vn 1 0 0
vn 1 0 0

vt 0.6000977 0.004058838
vt 0.5258789 0.07940674
vt 0.7216797 0.07940674
vt 0.7958984 0.004058838
vt 0.7080078 0.004787445
vt 0.7080078 0.1030273
vt 1.008789 0.1030273
vt 1.008789 0.004787445

g mesh_dirt_floor_04_3042_2
usemtl mesh_dirt_floor_04_3042_2
usemap mesh_dirt_floor_04_3042_2
f 1/1/1 3/3/3 2/2/2
f 1/1/1 4/4/4 3/3/3
f 5/5/5 7/7/7 6/6/6
f 5/5/5 8/8/8 7/7/7
