#mesh_dirt_floor_26_3013_24.obj

v 0.5672373 9.051628E-07 -4.806903E-06
v 0.5672373 9.051628E-07 4.634458
v -0.5672151 9.051628E-07 3.499991
v -0.5672151 9.051628E-07 -4.806903E-06
v 0.5672373 9.051628E-07 -4.806903E-06
v -0.5672151 9.051628E-07 -4.806903E-06
v -0.5672151 9.051628E-07 -3.5
v 0.5672373 9.051628E-07 -4.634468

vn 0 1 0
vn 0 1 0
vn 0 1 0
vn 0 1 0
vn 0 1 0
vn 0 1 0
vn 0 1 0
vn 0 1 0

vt 0.6235352 0.07940674
vt 0.3156738 0.07940674
vt 0.3908691 0.004058838
vt 0.6235352 0.004058838
vt 0.8969727 0.07940674
vt 0.8969727 0.004058838
vt 0.6640625 0.004058838
vt 0.5888672 0.07940674

g mesh_dirt_floor_26_3013_24
usemtl mesh_dirt_floor_26_3013_24
usemap mesh_dirt_floor_26_3013_24
f 1/1/1 3/3/3 2/2/2
f 1/1/1 4/4/4 3/3/3
f 5/5/5 7/7/7 6/6/6
f 5/5/5 8/8/8 7/7/7
