#mesh_door_01_2898_128.obj

v 3.499995 -3.258546 3.814697E-06
v 3.499995 -9.536743E-07 3.814697E-06
v -4.768372E-06 -9.536743E-07 3.814697E-06
v -4.768372E-06 -3.258546 3.814697E-06
v -4.768372E-06 -3.258546 3.814697E-06
v -4.768372E-06 -9.536743E-07 3.814697E-06
v -3.500005 -9.536743E-07 3.814697E-06
v -3.500005 -3.258546 3.814697E-06

vn 0 0 -1
vn 0 0 -1
vn 0 0 -1
vn 0 0 -1
vn 0 0 -1
vn 0 0 -1
vn 0 0 -1
vn 0 0 -1

vt 1 0.5356445
vt 1 0.8847656
vt 0.7978516 0.8847656
vt 0.7978516 0.5356445
vt 0.7978516 0.5356445
vt 0.7978516 0.8847656
vt 1 0.8847656
vt 1 0.5356445

g mesh_door_01_2898_128
usemtl mesh_door_01_2898_128
usemap mesh_door_01_2898_128
f 1/1/1 3/3/3 2/2/2
f 1/1/1 4/4/4 3/3/3
f 5/5/5 7/7/7 6/6/6
f 5/5/5 8/8/8 7/7/7
