#mesh_wall_01_2737_108.obj

v 11 -9.536743E-07 3.814697E-06
v 11 4.606019 3.814697E-06
v 8.999995 4.606019 3.814697E-06
v 8.999995 -9.536743E-07 3.814697E-06
v 1.999995 -9.536743E-07 3.814697E-06
v 1.999995 4.606019 3.814697E-06
v -4.768372E-06 4.606019 3.814697E-06
v -4.768372E-06 -9.536743E-07 3.814697E-06
v 8.999995 -2.861023E-06 3.814697E-06
v 8.999995 3.258544 3.814697E-06
v 8.999995 3.258544 1.000004
v 8.999995 -2.861023E-06 1.000004
v 1.999995 -2.861023E-06 3.814697E-06
v 1.999995 -2.861023E-06 1.000004
v 1.999995 3.258544 1.000004
v 1.999995 3.258544 3.814697E-06
v 5.499995 3.258544 3.814697E-06
v 5.499995 4.606019 3.814697E-06
v 1.999995 4.606019 3.814697E-06
v 1.999995 3.258544 3.814697E-06
v 8.999995 3.258544 3.814697E-06
v 8.999995 4.606019 3.814697E-06
v 5.499995 4.606019 3.814697E-06
v 5.499995 3.258544 3.814697E-06
v 5.499995 3.258544 1.000004
v 5.499995 3.258544 3.814697E-06
v 1.999995 3.258544 3.814697E-06
v 1.999995 3.258544 1.000004
v 8.999995 3.258544 1.000004
v 8.999995 3.258544 3.814697E-06
v 5.499995 3.258544 3.814697E-06
v 5.499995 3.258544 1.000004
v 11 5.129118 3.814697E-06
v -4.768372E-06 5.129118 3.814697E-06
v -4.768372E-06 4.606019 3.814697E-06
v 11 4.606019 3.814697E-06

vn 0 0 -1
vn 0 0 -1
vn 0 0 -1
vn 0 0 -1
vn 0 0 -1
vn 0 0 -1
vn 0 0 -1
vn 0 0 -1
vn -1 0 0
vn -1 0 0
vn -1 0 0
vn -1 0 0
vn 1 0 0
vn 1 0 0
vn 1 0 0
vn 1 0 0
vn 0 0 -1
vn 0 0 -1
vn 0 0 -1
vn 0 0 -1
vn 0 0 -1
vn 0 0 -1
vn 0 0 -1
vn 0 0 -1
vn 0 -1 0
vn 0 -1 0
vn 0 -1 0
vn 0 -1 0
vn 0 -1 0
vn 0 -1 0
vn 0 -1 0
vn 0 -1 0
vn 0 0 -1
vn 0 0 -1
vn 0 0 -1
vn 0 0 -1

vt 0.5332031 0
vt 0.5332031 0.3999023
vt 0.6894531 0.3999023
vt 0.6894531 0
vt 0.5332031 0
vt 0.5332031 0.3999023
vt 0.6894531 0.3999023
vt 0.6894531 0
vt 0.5722656 0
vt 0.5722656 0.2834473
vt 0.6503906 0.2834473
vt 0.6503906 0
vt 0.6503906 0
vt 0.5722656 0
vt 0.5722656 0.2827148
vt 0.6503906 0.2827148
vt 0.4750977 0.2834473
vt 0.4750977 0.3999023
vt 0.7475586 0.3999023
vt 0.7475586 0.2834473
vt 0.4750977 0.2834473
vt 0.4750977 0.3999023
vt 0.7475586 0.3999023
vt 0.7475586 0.2834473
vt 0.527832 0.2949219
vt 0.527832 0.3481445
vt 0.6948242 0.3481445
vt 0.6948242 0.2949219
vt 0.527832 0.2949219
vt 0.527832 0.3481445
vt 0.6948242 0.3481445
vt 0.6948242 0.2949219
vt 1.227539 0.9189453
vt -0.1610107 0.9189453
vt -0.1610107 0.96875
vt 1.227539 0.96875

g mesh_wall_01_2737_108
usemtl mesh_wall_01_2737_108
usemap mesh_wall_01_2737_108
f 1/1/1 3/3/3 2/2/2
f 1/1/1 4/4/4 3/3/3
f 5/5/5 7/7/7 6/6/6
f 5/5/5 8/8/8 7/7/7
f 9/9/9 11/11/11 10/10/10
f 9/9/9 12/12/12 11/11/11
f 13/13/13 15/15/15 14/14/14
f 13/13/13 16/16/16 15/15/15
f 17/17/17 19/19/19 18/18/18
f 17/17/17 20/20/20 19/19/19
f 21/21/21 23/23/23 22/22/22
f 21/21/21 24/24/24 23/23/23
f 25/25/25 27/27/27 26/26/26
f 25/25/25 28/28/28 27/27/27
f 29/29/29 31/31/31 30/30/30
f 29/29/29 32/32/32 31/31/31
f 33/33/33 35/35/35 34/34/34
f 33/33/33 36/36/36 35/35/35
