#mesh_dirt_floor_19_2751_33.obj

v 0.6267756 9.000406E-07 -0.4317454
v 0.6267756 9.000406E-07 0.7027222
v -0.6267878 9.000406E-07 0.7027222
v -0.6267878 9.000406E-07 -0.4317454
v 0.6267756 9.000406E-07 -0.4317454
v -0.6267878 9.000406E-07 -0.4317454
v -0.6267878 9.000406E-07 -0.7027198
v 0.6267756 9.000406E-07 -0.7027198

vn 0 1 0
vn 0 1 0
vn 0 1 0
vn 0 1 0
vn 0 1 0
vn 0 1 0
vn 0 1 0
vn 0 1 0

vt -0.1252441 0.004058838
vt -0.1252441 0.07940674
vt 0.005226135 0.07940674
vt 0.005226135 0.004058838
vt 0.5473633 0.004058838
vt 0.6254883 0.004058838
vt 0.6254883 0.02206421
vt 0.5473633 0.02206421

g mesh_dirt_floor_19_2751_33
usemtl mesh_dirt_floor_19_2751_33
usemap mesh_dirt_floor_19_2751_33
f 1/1/1 3/3/3 2/2/2
f 1/1/1 4/4/4 3/3/3
f 5/5/5 7/7/7 6/6/6
f 5/5/5 8/8/8 7/7/7
