#mesh_dirt_floor_18_3069_49.obj

v 1.686593 -0.3567744 -0.5672377
v 0.5521401 -0.3567744 0.5672145
v -1.686617 -0.3567744 0.5672145
v -1.686617 -0.3567744 -0.5672377
v -1.686617 -0.3567744 -0.5630454
v -1.686617 0.3567742 -0.5630454
v 1.6824 0.3567742 -0.5630454
v 1.6824 -0.3567744 -0.5630454

vn 0 1 0
vn 0 1 0
vn 0 1 0
vn 0 1 0
vn 0 0 1
vn 0 0 1
vn 0 0 1
vn 0 0 1

vt -0.3210449 0.004058838
vt -0.2469482 0.07940674
vt -0.1252441 0.07940674
vt -0.1252441 0.004058838
vt 0.7119141 0.004787445
vt 0.7119141 0.1030273
vt 1.008789 0.1030273
vt 1.008789 0.004787445

g mesh_dirt_floor_18_3069_49
usemtl mesh_dirt_floor_18_3069_49
usemap mesh_dirt_floor_18_3069_49
f 1/1/1 3/3/3 2/2/2
f 1/1/1 4/4/4 3/3/3
f 5/5/5 7/7/7 6/6/6
f 5/5/5 8/8/8 7/7/7
