#mesh_dirt_floor_14_3070_52.obj

v 1.06723 -0.3567744 -0.5672266
v -0.06722282 -0.3567744 0.5672256
v -1.067213 -0.3567744 0.5672256
v 0.06723948 -0.3567744 -0.5672266
v 0.0660681 -0.3567744 -0.5651304
v 0.0660681 0.3567742 -0.5651304
v 1.064548 0.3567742 -0.565115
v 1.064548 -0.3567744 -0.565115

vn 0 1 0
vn 0 1 0
vn 0 1 0
vn 0 1 0
vn 0 0 1
vn 0 0 1
vn 0 0 1
vn 0 0 1

vt 0.6308594 0.004058838
vt 0.7045898 0.07940674
vt 0.7700195 0.07940674
vt 0.6958008 0.004058838
vt 0.6040039 0.004787445
vt 0.6040039 0.1030273
vt 0.7041016 0.1030273
vt 0.7041016 0.004787445

g mesh_dirt_floor_14_3070_52
usemtl mesh_dirt_floor_14_3070_52
usemap mesh_dirt_floor_14_3070_52
f 1/1/1 3/3/3 2/2/2
f 1/1/1 4/4/4 3/3/3
f 5/5/5 7/7/7 6/6/6
f 5/5/5 8/8/8 7/7/7
