#mesh_props_tripod_02_A_3023_87.obj

v -0.2110335 0.09546575 0.006063712
v -0.2110421 0.1258422 0.006063288
v 0.1718491 0.1258489 0.006075816
v 0.1718343 0.09546316 0.006058836
v -0.2110421 0.1258422 0.006063288
v -0.2110436 0.1258401 -0.004047928
v 0.1718476 0.1258468 -0.0040354
v 0.1718491 0.1258489 0.006075816
v -0.2110436 0.1258401 -0.004047928
v -0.2110351 0.09546367 -0.004047504
v 0.1718561 0.09547032 -0.004034976
v 0.1718476 0.1258468 -0.0040354
v -0.2110351 0.09546367 -0.004047504
v -0.2110335 0.09546575 0.006063712
v 0.1718343 0.09546316 0.006058836
v 0.1718561 0.09547032 -0.004034976
v -0.2110458 0.1494495 0.006063154
v -0.2110212 0.1798297 0.00606984
v 0.1718467 0.1798272 0.006064964
v 0.1718454 0.1494562 0.006075682
v -0.2110212 0.1798297 0.00606984
v -0.2110326 0.1798314 -0.004030189
v 0.1718452 0.1798234 -0.004045357
v 0.1718467 0.1798272 0.006064964
v -0.2110326 0.1798314 -0.004030189
v -0.211024 0.1494567 -0.004030659
v 0.1718438 0.1494541 -0.004035534
v 0.1718452 0.1798234 -0.004045357
v -0.211024 0.1494567 -0.004030659
v -0.2110458 0.1494495 0.006063154
v 0.1718454 0.1494562 0.006075682
v 0.1718438 0.1494541 -0.004035534
v -0.2110249 0.203437 0.006069706
v -0.2110335 0.2338135 0.006069282
v 0.1718344 0.2338109 0.006064407
v 0.1718429 0.2034345 0.006064831
v -0.2110335 0.2338135 0.006069282
v -0.211035 0.2338114 -0.004041934
v 0.1718329 0.2338088 -0.004046809
v 0.1718344 0.2338109 0.006064407
v -0.211035 0.2338114 -0.004041934
v -0.2110265 0.203435 -0.00404151
v 0.1718414 0.2034324 -0.004046385
v 0.1718329 0.2338088 -0.004046809
v -0.2110265 0.203435 -0.00404151
v -0.2110249 0.203437 0.006069706
v 0.1718429 0.2034345 0.006064831
v 0.1718414 0.2034324 -0.004046385
v -0.2110372 0.2574208 0.006069148
v -0.2110359 0.2877918 0.006058431
v 0.1718553 0.2877985 0.006070958
v 0.1718307 0.2574182 0.006064273
v -0.2110359 0.2877918 0.006058431
v -0.2110473 0.2877935 -0.004041598
v 0.1718538 0.2877947 -0.004039363
v 0.1718553 0.2877985 0.006070958
v -0.2110473 0.2877935 -0.004041598
v -0.2110387 0.2574187 -0.004042068
v 0.1718524 0.2574254 -0.00402954
v 0.1718538 0.2877947 -0.004039363
v -0.2110387 0.2574187 -0.004042068
v -0.2110372 0.2574208 0.006069148
v 0.1718307 0.2574182 0.006064273
v 0.1718524 0.2574254 -0.00402954

vn 0.5576172 -0.46875 0.6850586
vn 0.5576172 -0.46875 0.6850586
vn 0.5830078 -0.46875 0.6635742
vn 0.5830078 -0.46875 0.6635742
vn 0.3027344 0.8833008 0.3579102
vn 0.3027344 0.8833008 0.3579102
vn 0.3027344 0.8833008 0.3579102
vn 0.3027344 0.8833008 0.3579102
vn -0.5703125 0.46875 -0.6748047
vn -0.5703125 0.46875 -0.6748047
vn -0.5703125 0.46875 -0.6748047
vn -0.5703125 0.46875 -0.6748047
vn -0.3027344 -0.8833008 -0.3579102
vn -0.3027344 -0.8833008 -0.3579102
vn -0.3027344 -0.8833008 -0.3579102
vn -0.3027344 -0.8833008 -0.3579102
vn 0.5576172 -0.46875 0.6850586
vn 0.5576172 -0.46875 0.6850586
vn 0.5830078 -0.46875 0.6635742
vn 0.5830078 -0.46875 0.6635742
vn 0.3024902 0.8833008 0.3579102
vn 0.3024902 0.8833008 0.3579102
vn 0.3024902 0.8833008 0.3579102
vn 0.3024902 0.8833008 0.3579102
vn -0.5703125 0.46875 -0.6748047
vn -0.5703125 0.46875 -0.6748047
vn -0.5703125 0.46875 -0.6748047
vn -0.5703125 0.46875 -0.6748047
vn -0.3024902 -0.8833008 -0.3579102
vn -0.3024902 -0.8833008 -0.3579102
vn -0.3024902 -0.8833008 -0.3579102
vn -0.3024902 -0.8833008 -0.3579102
vn 0.5576172 -0.46875 0.6850586
vn 0.5576172 -0.46875 0.6850586
vn 0.5830078 -0.46875 0.6635742
vn 0.5830078 -0.46875 0.6635742
vn 0.3027344 0.8833008 0.3579102
vn 0.3027344 0.8833008 0.3579102
vn 0.3027344 0.8833008 0.3579102
vn 0.3027344 0.8833008 0.3579102
vn -0.5703125 0.46875 -0.6748047
vn -0.5703125 0.46875 -0.6748047
vn -0.5703125 0.46875 -0.6748047
vn -0.5703125 0.46875 -0.6748047
vn -0.3027344 -0.8833008 -0.3579102
vn -0.3027344 -0.8833008 -0.3579102
vn -0.3027344 -0.8833008 -0.3579102
vn -0.3027344 -0.8833008 -0.3579102
vn 0.5576172 -0.46875 0.6850586
vn 0.5576172 -0.46875 0.6850586
vn 0.5830078 -0.46875 0.6635742
vn 0.5830078 -0.46875 0.6635742
vn 0.3024902 0.8833008 0.3579102
vn 0.3024902 0.8833008 0.3579102
vn 0.3024902 0.8833008 0.3579102
vn 0.3024902 0.8833008 0.3579102
vn -0.5703125 0.46875 -0.6748047
vn -0.5703125 0.46875 -0.6748047
vn -0.5703125 0.46875 -0.6748047
vn -0.5703125 0.46875 -0.6748047
vn -0.3024902 -0.8833008 -0.3579102
vn -0.3024902 -0.8833008 -0.3579102
vn -0.3024902 -0.8833008 -0.3579102
vn -0.3024902 -0.8833008 -0.3579102

vt 0.0271759 0.8662109
vt 0.0271759 0.875
vt 0.03564453 0.875
vt 0.03564453 0.8662109
vt 0.0271759 0.8662109
vt 0.0271759 0.875
vt 0.03564453 0.875
vt 0.03564453 0.8662109
vt 0.0271759 0.8662109
vt 0.0271759 0.875
vt 0.03564453 0.875
vt 0.03564453 0.8662109
vt 0.0271759 0.8662109
vt 0.0271759 0.875
vt 0.03564453 0.875
vt 0.03564453 0.8662109
vt 0.0271759 0.8662109
vt 0.0271759 0.875
vt 0.03564453 0.875
vt 0.03564453 0.8662109
vt 0.0271759 0.8662109
vt 0.0271759 0.875
vt 0.03564453 0.875
vt 0.03564453 0.8662109
vt 0.0271759 0.8662109
vt 0.0271759 0.875
vt 0.03564453 0.875
vt 0.03564453 0.8662109
vt 0.0271759 0.8662109
vt 0.0271759 0.875
vt 0.03564453 0.875
vt 0.03564453 0.8662109
vt 0.0271759 0.8662109
vt 0.0271759 0.875
vt 0.03564453 0.875
vt 0.03564453 0.8662109
vt 0.0271759 0.8662109
vt 0.0271759 0.875
vt 0.03564453 0.875
vt 0.03564453 0.8662109
vt 0.0271759 0.8662109
vt 0.0271759 0.875
vt 0.03564453 0.875
vt 0.03564453 0.8662109
vt 0.0271759 0.8662109
vt 0.0271759 0.875
vt 0.03564453 0.875
vt 0.03564453 0.8662109
vt 0.0271759 0.8662109
vt 0.0271759 0.875
vt 0.03564453 0.875
vt 0.03564453 0.8662109
vt 0.0271759 0.8662109
vt 0.0271759 0.875
vt 0.03564453 0.875
vt 0.03564453 0.8662109
vt 0.0271759 0.8662109
vt 0.0271759 0.875
vt 0.03564453 0.875
vt 0.03564453 0.8662109
vt 0.0271759 0.8662109
vt 0.0271759 0.875
vt 0.03564453 0.875
vt 0.03564453 0.8662109

g mesh_props_tripod_02_A_3023_87
usemtl mesh_props_tripod_02_A_3023_87
usemap mesh_props_tripod_02_A_3023_87
f 1/1/1 3/3/3 2/2/2
f 1/1/1 4/4/4 3/3/3
f 5/5/5 7/7/7 6/6/6
f 5/5/5 8/8/8 7/7/7
f 9/9/9 11/11/11 10/10/10
f 9/9/9 12/12/12 11/11/11
f 13/13/13 15/15/15 14/14/14
f 13/13/13 16/16/16 15/15/15
f 17/17/17 19/19/19 18/18/18
f 17/17/17 20/20/20 19/19/19
f 21/21/21 23/23/23 22/22/22
f 21/21/21 24/24/24 23/23/23
f 25/25/25 27/27/27 26/26/26
f 25/25/25 28/28/28 27/27/27
f 29/29/29 31/31/31 30/30/30
f 29/29/29 32/32/32 31/31/31
f 33/33/33 35/35/35 34/34/34
f 33/33/33 36/36/36 35/35/35
f 37/37/37 39/39/39 38/38/38
f 37/37/37 40/40/40 39/39/39
f 41/41/41 43/43/43 42/42/42
f 41/41/41 44/44/44 43/43/43
f 45/45/45 47/47/47 46/46/46
f 45/45/45 48/48/48 47/47/47
f 49/49/49 51/51/51 50/50/50
f 49/49/49 52/52/52 51/51/51
f 53/53/53 55/55/55 54/54/54
f 53/53/53 56/56/56 55/55/55
f 57/57/57 59/59/59 58/58/58
f 57/57/57 60/60/60 59/59/59
f 61/61/61 63/63/63 62/62/62
f 61/61/61 64/64/64 63/63/63
