#mesh_dirt_floor_09_2863_21.obj

v -0.4330339 -0.3567744 0.587815
v -1.567486 -0.3567744 -0.5878204
v 0.4325248 -0.3567744 -0.5878204
v 1.567501 -0.3567744 0.587815
v 1.565652 -0.3567744 0.5840851
v 1.565652 0.3567742 0.5840851
v -0.4373803 0.3567742 0.5840851
v -0.4373803 -0.3567744 0.5840851

vn 0 1 0
vn 0 1 0
vn 0 1 0
vn 0 1 0
vn 0 0 -1
vn 0 0 -1
vn 0 0 -1
vn 0 0 -1

vt 1.03125 0.004058838
vt 0.9570313 0.07940674
vt 1.087891 0.07940674
vt 1.162109 0.004058838
vt 0.3164063 0.004787445
vt 0.3164063 0.1030273
vt 0.5175781 0.1030273
vt 0.5175781 0.004787445

g mesh_dirt_floor_09_2863_21
usemtl mesh_dirt_floor_09_2863_21
usemap mesh_dirt_floor_09_2863_21
f 1/1/1 3/3/3 2/2/2
f 1/1/1 4/4/4 3/3/3
f 5/5/5 7/7/7 6/6/6
f 5/5/5 8/8/8 7/7/7
