#mesh_dirt_floor_01_3099_31.obj

v -0.5672306 -0.3567744 -2.500011
v 0.5672219 -0.3567744 -1.365543
v 0.5672219 -0.3567744 2.5
v -0.5672306 -0.3567744 2.5
v -0.5648569 -0.3567744 2.5
v -0.5648569 0.3567742 2.5
v -0.5648569 0.3567742 -2.495418
v -0.5648569 -0.3567744 -2.495418

vn 0 1 0
vn 0 1 0
vn 0 1 0
vn 0 1 0
vn 1 0 0
vn 1 0 0
vn 1 0 0
vn 1 0 0

vt 0.2758789 0.004058838
vt 0.3498535 0.07940674
vt 0.6020508 0.07940674
vt 0.6020508 0.004058838
vt 0.5112305 0.004787445
vt 0.5112305 0.1030273
vt 1.008789 0.1030273
vt 1.008789 0.004787445

g mesh_dirt_floor_01_3099_31
usemtl mesh_dirt_floor_01_3099_31
usemap mesh_dirt_floor_01_3099_31
f 1/1/1 3/3/3 2/2/2
f 1/1/1 4/4/4 3/3/3
f 5/5/5 7/7/7 6/6/6
f 5/5/5 8/8/8 7/7/7
