#mesh_dirt_floor_13_3060_51.obj

v 0.5672296 -0.3567744 2.5
v -0.5672228 -0.3567744 2.5
v -0.5672228 -0.3567744 -1.365543
v 0.5672296 -0.3567744 -2.500011
v 0.5645478 -0.3567744 -2.497899
v 0.5645478 0.3567742 -2.497899
v 0.5645478 0.3567742 2.5
v 0.5645478 -0.3567744 2.5

vn 0 1 0
vn 0 1 0
vn 0 1 0
vn 0 1 0
vn -1 0 0
vn -1 0 0
vn -1 0 0
vn -1 0 0

vt -0.2456055 0.004058838
vt -0.2456055 0.07940674
vt 0.006607056 0.07940674
vt 0.08062744 0.004058838
vt 0.01322937 0.004787445
vt 0.01322937 0.1030273
vt 0.5112305 0.1030273
vt 0.5112305 0.004787445

g mesh_dirt_floor_13_3060_51
usemtl mesh_dirt_floor_13_3060_51
usemap mesh_dirt_floor_13_3060_51
f 1/1/1 3/3/3 2/2/2
f 1/1/1 4/4/4 3/3/3
f 5/5/5 7/7/7 6/6/6
f 5/5/5 8/8/8 7/7/7
