#mesh_dirt_floor_08_2802_10.obj

v 0.5672293 -0.3567744 1.067234
v -0.5672231 -0.3567744 -0.06723373
v -0.5672231 -0.3567744 -1.108407
v 0.5672293 -0.3567744 0.06722853
v 0.5628829 -0.3567744 0.0634986
v 0.5628829 0.3567742 0.0634986
v 0.5628829 0.3567742 1.027222
v 0.5628829 -0.3567744 1.027222

vn 0 1 0
vn 0 1 0
vn 0 1 0
vn 0 1 0
vn -1 0 0
vn -1 0 0
vn -1 0 0
vn -1 0 0

vt 0.2980957 0.004058838
vt 0.3720703 0.07940674
vt 0.4372559 0.07940674
vt 0.3632813 0.004058838
vt 0.7041016 0.004787445
vt 0.7041016 0.1030273
vt 0.8046875 0.1030273
vt 0.8046875 0.004787445

g mesh_dirt_floor_08_2802_10
usemtl mesh_dirt_floor_08_2802_10
usemap mesh_dirt_floor_08_2802_10
f 1/1/1 3/3/3 2/2/2
f 1/1/1 4/4/4 3/3/3
f 5/5/5 7/7/7 6/6/6
f 5/5/5 8/8/8 7/7/7
