#mesh_dirt_floor_15_2758_47.obj

v 0.5672395 -0.3567744 0.9327744
v -0.5672129 -0.3567744 2.067226
v -0.5672129 -0.3567744 -0.9327739
v 0.5672395 -0.3567744 -2.067226
v 0.5660681 -0.3567744 -2.063034
v 0.5660681 0.3567742 -2.063034
v 0.5660681 0.3567742 0.9348705
v 0.5660681 -0.3567744 0.9348705

vn 0 1 0
vn 0 1 0
vn 0 1 0
vn 0 1 0
vn -1 0 0
vn -1 0 0
vn -1 0 0
vn -1 0 0

vt 0.1020508 0.004058838
vt 0.02799988 0.07940674
vt 0.2237549 0.07940674
vt 0.2978516 0.004058838
vt 0.7080078 0.004787445
vt 0.7080078 0.1030273
vt 1.008789 0.1030273
vt 1.008789 0.004787445

g mesh_dirt_floor_15_2758_47
usemtl mesh_dirt_floor_15_2758_47
usemap mesh_dirt_floor_15_2758_47
f 1/1/1 3/3/3 2/2/2
f 1/1/1 4/4/4 3/3/3
f 5/5/5 7/7/7 6/6/6
f 5/5/5 8/8/8 7/7/7
