#mesh_dirt_floor_05_2897_14.obj

v -1.567207 -0.3567744 0.5672286
v -0.4327543 -0.3567744 -0.5672236
v 1.567226 -0.3567744 -0.5672236
v 0.4327735 -0.3567744 0.5672286
v 0.4392161 -0.3567744 0.5639456
v 0.4392161 0.3567742 0.5639456
v -1.559747 0.3567742 0.5639456
v -1.559747 -0.3567744 0.5639456

vn 0 1 0
vn 0 1 0
vn 0 1 0
vn 0 1 0
vn 0 0 -1
vn 0 0 -1
vn 0 0 -1
vn 0 0 -1

vt 1.158203 0.004058838
vt 1.232422 0.07940674
vt 1.362305 0.07940674
vt 1.288086 0.004058838
vt 0.3144531 0.004787445
vt 0.3144531 0.1030273
vt 0.5151367 0.1030273
vt 0.5151367 0.004787445

g mesh_dirt_floor_05_2897_14
usemtl mesh_dirt_floor_05_2897_14
usemap mesh_dirt_floor_05_2897_14
f 1/1/1 3/3/3 2/2/2
f 1/1/1 4/4/4 3/3/3
f 5/5/5 7/7/7 6/6/6
f 5/5/5 8/8/8 7/7/7
