#mesh_dirt_floor_10_2796_4.obj

v 0.5674993 -0.3567744 2.067229
v -0.5675079 -0.3567744 0.8915931
v -0.5675079 -0.3567744 -2.067224
v 0.5669753 -0.3567744 -0.932772
v 0.5651258 -0.3567744 -0.934082
v 0.5651258 0.3567742 -0.934082
v 0.5656498 0.3567742 2.063498
v 0.5656498 -0.3567744 2.063498

vn 0 1 0
vn 0 1 0
vn 0 1 0
vn 0 1 0
vn -1 0 0.0001749992
vn -1 0 0.0001749992
vn -1 0 0.0001749992
vn -1 0 0.0001749992

vt 0.3564453 0.004058838
vt 0.4331055 0.07940674
vt 0.6259766 0.07940674
vt 0.5522461 0.004058838
vt 0.7080078 0.004787445
vt 0.7080078 0.1030273
vt 1.008789 0.1030273
vt 1.008789 0.004787445

g mesh_dirt_floor_10_2796_4
usemtl mesh_dirt_floor_10_2796_4
usemap mesh_dirt_floor_10_2796_4
f 1/1/1 3/3/3 2/2/2
f 1/1/1 4/4/4 3/3/3
f 5/5/5 7/7/7 6/6/6
f 5/5/5 8/8/8 7/7/7
