#mesh_dirt_floor_02_2980_40.obj

v -0.5672292 -0.3567744 -2.500016
v 0.5672233 -0.3567744 -2.500016
v 0.5672233 -0.3567744 1.365528
v -0.5672292 -0.3567744 2.499995
v -0.5648555 -0.3567744 2.49252
v -0.5648555 0.3567742 2.49252
v -0.5648555 0.3567742 -2.500016
v -0.5648555 -0.3567744 -2.500016

vn 0 1 0
vn 0 1 0
vn 0 1 0
vn 0 1 0
vn 1 0 0
vn 1 0 0
vn 1 0 0
vn 1 0 0

vt 0.6020508 0.004058838
vt 0.6020508 0.07940674
vt 0.7822266 0.07940674
vt 0.8564453 0.004058838
vt 0.01322937 0.004787445
vt 0.01322937 0.1030273
vt 0.5112305 0.1030273
vt 0.5112305 0.004787445

g mesh_dirt_floor_02_2980_40
usemtl mesh_dirt_floor_02_2980_40
usemap mesh_dirt_floor_02_2980_40
f 1/1/1 3/3/3 2/2/2
f 1/1/1 4/4/4 3/3/3
f 5/5/5 7/7/7 6/6/6
f 5/5/5 8/8/8 7/7/7
