#mesh_dirt_floor_22_2687_36.obj

v -0.5672086 -0.3567744 -2.067226
v 0.5672438 -0.3567744 -2.067226
v 0.5672438 -0.3567744 2.067226
v -0.5672086 -0.3567744 0.9327744
v -0.5630472 -0.3567744 0.937352
v -0.5630472 0.3567742 0.937352
v -0.5630472 0.3567742 -2.067226
v -0.5630472 -0.3567744 -2.067226

vn 0 1 0
vn 0 1 0
vn 0 1 0
vn 0 1 0
vn 1 0 0
vn 1 0 0
vn 1 0 0
vn 1 0 0

vt 1.082031 0.004058838
vt 1.082031 0.07940674
vt 1.352539 0.07940674
vt 1.27832 0.004058838
vt 0.5073242 0.004787445
vt 0.5073242 0.1030273
vt 0.8125 0.1030273
vt 0.8125 0.004787445

g mesh_dirt_floor_22_2687_36
usemtl mesh_dirt_floor_22_2687_36
usemap mesh_dirt_floor_22_2687_36
f 1/1/1 3/3/3 2/2/2
f 1/1/1 4/4/4 3/3/3
f 5/5/5 7/7/7 6/6/6
f 5/5/5 8/8/8 7/7/7
