#mesh_dirt_floor_07_2747_34.obj

v -3.499994 9.000406E-07 0.5672175
v -2.365542 9.000406E-07 -0.5672347
v 1.907349E-06 9.000406E-07 -0.5672347
v 1.907349E-06 9.000406E-07 0.5672175
v 1.907349E-06 9.000406E-07 0.5672175
v 1.907349E-06 9.000406E-07 -0.5672347
v 2.365546 9.000406E-07 -0.5672347
v 3.499998 9.000406E-07 0.5672175

vn 0 1 0
vn 0 1 0
vn 0 1 0
vn 0 1 0
vn 0 1 0
vn 0 1 0
vn 0 1 0
vn 0 1 0

vt 1.182617 0.004058838
vt 1.256836 0.07940674
vt 1.411133 0.07940674
vt 1.411133 0.004058838
vt 1.411133 0.004058838
vt 1.411133 0.07940674
vt 1.56543 0.07940674
vt 1.638672 0.004058838

g mesh_dirt_floor_07_2747_34
usemtl mesh_dirt_floor_07_2747_34
usemap mesh_dirt_floor_07_2747_34
f 1/1/1 3/3/3 2/2/2
f 1/1/1 4/4/4 3/3/3
f 5/5/5 7/7/7 6/6/6
f 5/5/5 8/8/8 7/7/7
