#Ramp4_(5)_1865_89.obj

v 2.279145 7.594682 -3.645149
v 2.279148 -7.594677 -3.645148
v 2.279145 -6.451393 -3.55606
v 2.279147 6.451397 -3.556062
v 2.279145 -5.337804 -3.288799
v 2.279147 5.337808 -3.2888
v 2.279144 4.283608 -2.858212
v 2.279143 -4.28361 -2.858211
v 2.279144 3.303649 -2.249449
v 2.279143 -3.303651 -2.249449
v 2.279148 -2.427623 -1.507056
v 2.279144 2.427627 -1.507057
v 2.279149 -1.68523 -0.6458802
v 2.279146 1.685232 -0.6458805
v 2.279144 -1.09132 0.3340785
v 2.279144 1.091318 0.3340783
v 2.279143 -0.6458796 1.388276
v 2.279143 0.645884 1.388276
v 2.279143 -0.3786199 2.501866
v 2.279146 0.3786221 2.501866
v 2.279146 -0.2895322 3.645151
v 2.279143 0.2895346 3.645151
v 2.279143 0.2895346 3.645151
v 2.279146 -0.2895322 3.645151
v 0.007423009 -0.2895319 3.645151
v 0.007422801 0.2895378 3.645151
v -2.279149 -0.2895344 3.645151
v -2.279149 0.2895352 3.645151
v -2.27915 -6.451396 -3.556061
v -2.279147 -7.59468 -3.645148
v -2.279148 7.594682 -3.645149
v -2.279148 6.451395 -3.556062
v -2.27915 -5.337807 -3.288799
v -2.279148 5.337806 -3.2888
v -2.279147 -4.283607 -2.858211
v -2.279148 4.283609 -2.858212
v -2.279149 3.30365 -2.24945
v -2.279147 -3.303647 -2.249449
v -2.279146 -2.427625 -1.507056
v -2.279151 2.427625 -1.507057
v -2.279149 -1.68523 -0.6458804
v -2.279149 1.68523 -0.6458807
v -2.279146 1.091322 0.3340781
v -2.279146 -1.091316 0.3340783
v -2.279152 -0.6458819 1.388277
v -2.279149 0.6458848 1.388276
v -2.279147 -0.3786163 2.501866
v -2.279146 0.3786228 2.501866
v -2.279149 -0.2895344 3.645151
v -2.279149 0.2895352 3.645151

vn 0.6518555 0 0.7583008
vn 0.6518555 0 0.7583008
vn 0.6518555 0 0.7583008
vn 0.6518555 0 0.7583008
vn 0.6518555 0 0.7583008
vn 0.6518555 0 0.7583008
vn 0.6518555 0 0.7583008
vn 0.6518555 0 0.7583008
vn 0.6518555 0 0.7583008
vn 0.6518555 0 0.7583008
vn 0.6518555 0 0.7583008
vn 0.6518555 0 0.7583008
vn 0.6518555 0 0.7583008
vn 0.6518555 0 0.7583008
vn 0.6518555 0 0.7583008
vn 0.6518555 0 0.7583008
vn 0.6518555 0 0.7583008
vn 0.6518555 0 0.7583008
vn 0.6518555 0 0.7583008
vn 0.6518555 0 0.7583008
vn 0.6518555 0 0.7583008
vn 0.6518555 0 0.7583008
vn 0.0020504 0.9995117 -0.02235413
vn 0.0020504 0.9995117 -0.02235413
vn 0.0020504 0.9995117 -0.02235413
vn 0.0020504 0.9995117 -0.02235413
vn 0.0020504 0.9995117 -0.02235413
vn 0.0020504 0.9995117 -0.02235413
vn -0.6274414 0 -0.7788086
vn -0.6274414 0 -0.7788086
vn -0.6274414 0 -0.7788086
vn -0.6274414 0 -0.7788086
vn -0.6274414 0 -0.7788086
vn -0.6274414 0 -0.7788086
vn -0.6274414 0 -0.7788086
vn -0.6274414 0 -0.7788086
vn -0.6274414 0 -0.7788086
vn -0.6274414 0 -0.7788086
vn -0.6274414 0 -0.7788086
vn -0.6274414 0 -0.7788086
vn -0.6274414 0 -0.7788086
vn -0.6274414 0 -0.7788086
vn -0.6274414 0 -0.7788086
vn -0.6274414 0 -0.7788086
vn -0.6274414 0 -0.7788086
vn -0.6274414 0 -0.7788086
vn -0.6274414 0 -0.7788086
vn -0.6274414 0 -0.7788086
vn -0.6274414 0 -0.7788086
vn -0.6274414 0 -0.7788086

vt -1.713867 -1.519531
vt 2.757813 -1.519531
vt 2.421875 -1.493164
vt -1.37793 -1.493164
vt 2.09375 -1.414063
vt -1.049805 -1.414063
vt -0.7387695 -1.286133
vt 1.783203 -1.286133
vt -0.449707 -1.109375
vt 1.494141 -1.109375
vt 1.238281 -0.890625
vt -0.1937256 -0.890625
vt 1.019531 -0.6347656
vt 0.02462769 -0.6347656
vt 0.8432617 -0.3459473
vt 0.2010498 -0.3459473
vt 0.7128906 -0.03494263
vt 0.3312988 -0.03494263
vt 0.6357422 0.2937012
vt 0.4084473 0.2937012
vt 0.609375 0.6289063
vt 0.4348145 0.6289063
vt -0.3701172 -1.740234
vt -0.3701172 -1.568359
vt -1.041016 -1.568359
vt -1.041016 -1.740234
vt -1.713867 -1.568359
vt -1.713867 -1.740234
vt -1.731445 2.394531
vt -1.757813 2.730469
vt -1.757813 -1.740234
vt -1.731445 -1.405273
vt -1.652344 2.066406
vt -1.652344 -1.076172
vt -1.523438 1.753906
vt -1.523438 -0.7651367
vt -1.347656 -0.4782715
vt -1.347656 1.467773
vt -1.128906 1.210938
vt -1.128906 -0.2202148
vt -0.8710938 0.9931641
vt -0.8710938 -0.001842499
vt -0.5839844 0.1746826
vt -0.5839844 0.8164063
vt -0.2731934 0.6865234
vt -0.2731934 0.3024902
vt 0.05551147 0.609375
vt 0.05551147 0.3820801
vt 0.3908691 0.5825195
vt 0.3908691 0.4084473

g Ramp4_(5)_1865_89
usemtl Ramp4_(5)_1865_89
usemap Ramp4_(5)_1865_89
f 1/1/1 3/3/3 2/2/2
f 3/3/3 1/1/1 4/4/4
f 4/4/4 5/5/5 3/3/3
f 5/5/5 4/4/4 6/6/6
f 5/5/5 6/6/6 7/7/7
f 5/5/5 7/7/7 8/8/8
f 8/8/8 7/7/7 9/9/9
f 8/8/8 9/9/9 10/10/10
f 9/9/9 11/11/11 10/10/10
f 11/11/11 9/9/9 12/12/12
f 12/12/12 13/13/13 11/11/11
f 13/13/13 12/12/12 14/14/14
f 14/14/14 15/15/15 13/13/13
f 15/15/15 14/14/14 16/16/16
f 16/16/16 17/17/17 15/15/15
f 17/17/17 16/16/16 18/18/18
f 18/18/18 19/19/19 17/17/17
f 19/19/19 18/18/18 20/20/20
f 20/20/20 21/21/21 19/19/19
f 21/21/21 20/20/20 22/22/22
f 23/23/23 25/25/25 24/24/24
f 25/25/25 23/23/23 26/26/26
f 26/26/26 27/27/27 25/25/25
f 26/26/26 28/28/28 27/27/27
f 29/29/29 31/31/31 30/30/30
f 31/31/31 29/29/29 32/32/32
f 33/33/33 32/32/32 29/29/29
f 32/32/32 33/33/33 34/34/34
f 35/35/35 34/34/34 33/33/33
f 34/34/34 35/35/35 36/36/36
f 36/36/36 35/35/35 37/37/37
f 37/37/37 35/35/35 38/38/38
f 39/39/39 37/37/37 38/38/38
f 37/37/37 39/39/39 40/40/40
f 41/41/41 40/40/40 39/39/39
f 40/40/40 41/41/41 42/42/42
f 42/42/42 41/41/41 43/43/43
f 43/43/43 41/41/41 44/44/44
f 45/45/45 43/43/43 44/44/44
f 43/43/43 45/45/45 46/46/46
f 47/47/47 46/46/46 45/45/45
f 46/46/46 47/47/47 48/48/48
f 49/49/49 48/48/48 47/47/47
f 48/48/48 49/49/49 50/50/50
