#RampWide_(8)_1949_183.obj

v 0.01112569 -2.810441 -3.565819
v 11.36399 -2.81045 -3.565824
v 11.36399 -3.943514 -3.65469
v 0.01112495 -3.943505 -3.65469
v 0.01112642 -1.699606 -3.29922
v 11.36399 -1.699596 -3.29922
v 0.01112712 -0.6331893 -2.854878
v 11.36399 -0.6331794 -2.854878
v 0.01112776 0.3443702 -2.255018
v 11.36399 0.344361 -2.255023
v 0.01112832 1.210825 -1.521863
v 11.36399 1.210816 -1.521863
v 11.36399 1.943976 -0.6331844
v 0.0111288 1.943985 -0.6331844
v 0.01112919 2.543832 0.3443654
v 11.36399 2.543841 0.3443607
v 0.01112948 2.988173 1.388558
v 11.36399 2.988183 1.388558
v 0.01112966 3.254782 2.499408
v 11.36399 3.254792 2.499408
v 11.36399 3.343649 3.654685
v 0.01112972 3.343659 3.65469
v 0.01112569 -2.810441 -3.565819
v -11.36398 -3.943515 -3.654685
v -11.36397 -2.810451 -3.565819
v 0.01112495 -3.943505 -3.65469
v 0.01112642 -1.699606 -3.29922
v -11.36397 -1.699596 -3.299215
v 0.01112712 -0.6331893 -2.854878
v -11.36397 -0.63318 -2.854878
v 0.01112776 0.3443702 -2.255018
v -11.36397 0.3443605 -2.255018
v 0.01112832 1.210825 -1.521863
v -11.36397 1.210815 -1.521858
v -11.36397 1.943976 -0.6331796
v 0.0111288 1.943985 -0.6331844
v 0.01112919 2.543832 0.3443654
v -11.36397 2.543841 0.3443654
v 0.01112948 2.988173 1.388558
v -11.36397 2.988183 1.388563
v 0.01112966 3.254782 2.499408
v -11.36397 3.254792 2.499412
v -11.36397 3.343649 3.65469
v 0.01112972 3.343659 3.65469

vn 0.006278992 -0.9897461 0.1428223
vn 0.006278992 -0.9897461 0.1428223
vn 0.006278992 -0.996582 0.0793457
vn 0.006278992 -0.996582 0.0793457
vn 0.006278992 -0.9536133 0.3015137
vn 0.006278992 -0.9536133 0.3015137
vn 0.006278992 -0.8876953 0.4604492
vn 0.006278992 -0.8876953 0.4604492
vn 0.006278992 -0.809082 0.5874023
vn 0.006278992 -0.809082 0.5874023
vn 0.006278992 -0.699707 0.7143555
vn 0.006278992 -0.699707 0.7143555
vn 0.006278992 -0.5869141 0.8095703
vn 0.006278992 -0.5869141 0.8095703
vn 0.006278992 -0.4257813 0.9047852
vn 0.006278992 -0.4257813 0.9047852
vn 0.006278992 -0.3503418 0.9365234
vn 0.006278992 -0.3503418 0.9365234
vn 0.006278992 5.960464E-08 1
vn 0.006278992 5.960464E-08 1
vn 0.006278992 5.960464E-08 1
vn 0.006278992 5.960464E-08 1
vn 0.006278992 -0.9897461 0.1428223
vn 0.006278992 -0.996582 0.0793457
vn 0.006278992 -0.9897461 0.1428223
vn 0.006278992 -0.996582 0.0793457
vn 0.006278992 -0.9536133 0.3015137
vn 0.006278992 -0.9536133 0.3015137
vn 0.006278992 -0.8876953 0.4604492
vn 0.006278992 -0.8876953 0.4604492
vn 0.006278992 -0.809082 0.5874023
vn 0.006278992 -0.809082 0.5874023
vn 0.006278992 -0.699707 0.7143555
vn 0.006278992 -0.699707 0.7143555
vn 0.006278992 -0.5869141 0.8095703
vn 0.006278992 -0.5869141 0.8095703
vn 0.006278992 -0.4257813 0.9047852
vn 0.006278992 -0.4257813 0.9047852
vn 0.006278992 -0.3503418 0.9365234
vn 0.006278992 -0.3503418 0.9365234
vn 0.006278992 5.960464E-08 1
vn 0.006278992 5.960464E-08 1
vn 0.006278992 5.960464E-08 1
vn 0.006278992 5.960464E-08 1

vt -0.4951172 0.1074219
vt 0.5522461 0.1074219
vt 0.5522461 0.005077362
vt -0.4951172 0.005077362
vt -0.4951172 0.2039795
vt 0.5522461 0.2039795
vt -0.4951172 0.3034668
vt 0.5522461 0.3034668
vt -0.4951172 0.402832
vt 0.5522461 0.402832
vt -0.4951172 0.4992676
vt 0.5522461 0.4992676
vt 0.5522461 0.5986328
vt -0.4951172 0.5986328
vt -0.4951172 0.6982422
vt 0.5522461 0.6982422
vt -0.4951172 0.7919922
vt 0.5522461 0.7919922
vt -0.4951172 0.8911133
vt 0.5522461 0.8911133
vt 0.5522461 0.9907227
vt -0.4951172 0.9907227
vt -0.4951172 0.1074219
vt 0.5522461 0.005077362
vt 0.5522461 0.1074219
vt -0.4951172 0.005077362
vt -0.4951172 0.2039795
vt 0.5522461 0.2039795
vt -0.4951172 0.3034668
vt 0.5522461 0.3034668
vt -0.4951172 0.402832
vt 0.5522461 0.402832
vt -0.4951172 0.4992676
vt 0.5522461 0.4992676
vt 0.5522461 0.5986328
vt -0.4951172 0.5986328
vt -0.4951172 0.6982422
vt 0.5522461 0.6982422
vt -0.4951172 0.7919922
vt 0.5522461 0.7919922
vt -0.4951172 0.8911133
vt 0.5522461 0.8911133
vt 0.5522461 0.9907227
vt -0.4951172 0.9907227

g RampWide_(8)_1949_183
usemtl RampWide_(8)_1949_183
usemap RampWide_(8)_1949_183
f 1/1/1 3/3/3 2/2/2
f 3/3/3 1/1/1 4/4/4
f 2/2/2 5/5/5 1/1/1
f 5/5/5 2/2/2 6/6/6
f 6/6/6 7/7/7 5/5/5
f 7/7/7 6/6/6 8/8/8
f 8/8/8 9/9/9 7/7/7
f 9/9/9 8/8/8 10/10/10
f 10/10/10 11/11/11 9/9/9
f 11/11/11 10/10/10 12/12/12
f 13/13/13 11/11/11 12/12/12
f 11/11/11 13/13/13 14/14/14
f 13/13/13 15/15/15 14/14/14
f 15/15/15 13/13/13 16/16/16
f 16/16/16 17/17/17 15/15/15
f 17/17/17 16/16/16 18/18/18
f 18/18/18 19/19/19 17/17/17
f 19/19/19 18/18/18 20/20/20
f 21/21/21 19/19/19 20/20/20
f 19/19/19 21/21/21 22/22/22
f 23/23/23 25/25/25 24/24/24
f 23/23/23 24/24/24 26/26/26
f 27/27/27 25/25/25 23/23/23
f 27/27/27 28/28/28 25/25/25
f 29/29/29 28/28/28 27/27/27
f 29/29/29 30/30/30 28/28/28
f 31/31/31 30/30/30 29/29/29
f 31/31/31 32/32/32 30/30/30
f 33/33/33 32/32/32 31/31/31
f 33/33/33 34/34/34 32/32/32
f 33/33/33 35/35/35 34/34/34
f 35/35/35 33/33/33 36/36/36
f 37/37/37 35/35/35 36/36/36
f 37/37/37 38/38/38 35/35/35
f 39/39/39 38/38/38 37/37/37
f 39/39/39 40/40/40 38/38/38
f 41/41/41 40/40/40 39/39/39
f 41/41/41 42/42/42 40/40/40
f 41/41/41 43/43/43 42/42/42
f 43/43/43 41/41/41 44/44/44
