#Ramp4_(2)_1948_139.obj

v 2.279148 7.594669 -3.645148
v 2.279141 -7.594692 -3.645149
v 2.279139 -6.451382 -3.556061
v 2.27915 6.451389 -3.556061
v 2.279138 -5.337795 -3.2888
v 2.279151 5.337803 -3.288799
v 2.279138 4.283604 -2.858212
v 2.279151 -4.283596 -2.858212
v 2.279139 3.303654 -2.249449
v 2.27915 -3.303646 -2.249449
v 2.279148 -2.427639 -1.507056
v 2.279141 2.427616 -1.507056
v 2.279147 -1.685238 -0.6458805
v 2.279142 1.685245 -0.6458803
v 2.279146 -1.091305 0.3340783
v 2.279143 1.091312 0.3340784
v 2.279145 -0.6458707 1.388276
v 2.279143 0.6458774 1.388276
v 2.279145 -0.3786284 2.501866
v 2.279144 0.3786348 2.501866
v 2.279145 -0.2895172 3.645151
v 2.279144 0.2895233 3.645151
v 2.279144 0.2895233 3.645151
v 2.279145 -0.2895172 3.645151
v 0.007415943 -0.2895207 3.645151
v 0.007415046 0.2895198 3.645151
v -2.279144 -0.2895243 3.645151
v -2.279145 0.2895468 3.645151
v -2.279149 -6.451388 -3.556061
v -2.279147 -7.594668 -3.645148
v -2.27914 7.594693 -3.645148
v -2.279154 6.451383 -3.556061
v -2.279151 -5.337802 -3.2888
v -2.279152 5.337796 -3.2888
v -2.279153 -4.283603 -2.858212
v -2.279151 4.283597 -2.858211
v -2.279149 3.303647 -2.249449
v -2.279154 -3.303653 -2.249449
v -2.27914 -2.427616 -1.507056
v -2.279148 2.427639 -1.507056
v -2.279142 -1.685245 -0.6458806
v -2.279147 1.685238 -0.6458804
v -2.279146 1.091305 0.3340783
v -2.279143 -1.091312 0.3340782
v -2.279143 -0.6458777 1.388276
v -2.279145 0.6458703 1.388276
v -2.279144 -0.3786049 2.501866
v -2.279145 0.3786277 2.501866
v -2.279144 -0.2895243 3.645151
v -2.279145 0.2895468 3.645151

vn 1 -5.960464E-08 -0.01586914
vn 1 -5.960464E-08 -0.01586914
vn 1 -5.960464E-08 -0.01586914
vn 1 -5.960464E-08 -0.01586914
vn 1 -5.960464E-08 -0.01586914
vn 1 -5.960464E-08 -0.01586914
vn 1 -5.960464E-08 -0.01586914
vn 1 -5.960464E-08 -0.01586914
vn 1 -5.960464E-08 -0.01586914
vn 1 -5.960464E-08 -0.01586914
vn 1 -5.960464E-08 -0.01586914
vn 1 -5.960464E-08 -0.01586914
vn 1 -5.960464E-08 -0.01586914
vn 1 -5.960464E-08 -0.01586914
vn 1 -5.960464E-08 -0.01586914
vn 1 -5.960464E-08 -0.01586914
vn 1 -5.960464E-08 -0.01586914
vn 1 -5.960464E-08 -0.01586914
vn 1 -5.960464E-08 -0.01586914
vn 1 -5.960464E-08 -0.01586914
vn 1 -5.960464E-08 -0.01586914
vn 1 -5.960464E-08 -0.01586914
vn -0.01586914 0.9995117 -0.01586914
vn -0.01586914 0.9995117 -0.01586914
vn -0.01586914 0.9995117 -0.01586914
vn -0.01586914 0.9995117 -0.01586914
vn -0.01586914 0.9995117 -0.01586914
vn -0.01586914 0.9995117 -0.01586914
vn -1 5.960464E-08 -0.01586914
vn -1 5.960464E-08 -0.01586914
vn -1 5.960464E-08 -0.01586914
vn -1 5.960464E-08 -0.01586914
vn -1 5.960464E-08 -0.01586914
vn -1 5.960464E-08 -0.01586914
vn -1 5.960464E-08 -0.01586914
vn -1 5.960464E-08 -0.01586914
vn -1 5.960464E-08 -0.01586914
vn -1 5.960464E-08 -0.01586914
vn -1 5.960464E-08 -0.01586914
vn -1 5.960464E-08 -0.01586914
vn -1 5.960464E-08 -0.01586914
vn -1 5.960464E-08 -0.01586914
vn -1 5.960464E-08 -0.01586914
vn -1 5.960464E-08 -0.01586914
vn -1 5.960464E-08 -0.01586914
vn -1 5.960464E-08 -0.01586914
vn -1 5.960464E-08 -0.01586914
vn -1 5.960464E-08 -0.01586914
vn -1 5.960464E-08 -0.01586914
vn -1 5.960464E-08 -0.01586914

vt -1.713867 -1.519531
vt 2.757813 -1.519531
vt 2.421875 -1.493164
vt -1.37793 -1.493164
vt 2.09375 -1.414063
vt -1.049805 -1.414063
vt -0.7387695 -1.286133
vt 1.783203 -1.286133
vt -0.449707 -1.109375
vt 1.494141 -1.109375
vt 1.238281 -0.890625
vt -0.1937256 -0.890625
vt 1.019531 -0.6347656
vt 0.02462769 -0.6347656
vt 0.8432617 -0.3459473
vt 0.2010498 -0.3459473
vt 0.7128906 -0.03494263
vt 0.3312988 -0.03494263
vt 0.6357422 0.2937012
vt 0.4084473 0.2937012
vt 0.609375 0.6289063
vt 0.4348145 0.6289063
vt -0.3701172 -1.740234
vt -0.3701172 -1.568359
vt -1.041016 -1.568359
vt -1.041016 -1.740234
vt -1.713867 -1.568359
vt -1.713867 -1.740234
vt -1.731445 2.394531
vt -1.757813 2.730469
vt -1.757813 -1.740234
vt -1.731445 -1.405273
vt -1.652344 2.066406
vt -1.652344 -1.076172
vt -1.523438 1.753906
vt -1.523438 -0.7651367
vt -1.347656 -0.4782715
vt -1.347656 1.467773
vt -1.128906 1.210938
vt -1.128906 -0.2202148
vt -0.8710938 0.9931641
vt -0.8710938 -0.001842499
vt -0.5839844 0.1746826
vt -0.5839844 0.8164063
vt -0.2731934 0.6865234
vt -0.2731934 0.3024902
vt 0.05551147 0.609375
vt 0.05551147 0.3820801
vt 0.3908691 0.5825195
vt 0.3908691 0.4084473

g Ramp4_(2)_1948_139
usemtl Ramp4_(2)_1948_139
usemap Ramp4_(2)_1948_139
f 1/1/1 3/3/3 2/2/2
f 3/3/3 1/1/1 4/4/4
f 4/4/4 5/5/5 3/3/3
f 5/5/5 4/4/4 6/6/6
f 5/5/5 6/6/6 7/7/7
f 5/5/5 7/7/7 8/8/8
f 8/8/8 7/7/7 9/9/9
f 8/8/8 9/9/9 10/10/10
f 9/9/9 11/11/11 10/10/10
f 11/11/11 9/9/9 12/12/12
f 12/12/12 13/13/13 11/11/11
f 13/13/13 12/12/12 14/14/14
f 14/14/14 15/15/15 13/13/13
f 15/15/15 14/14/14 16/16/16
f 16/16/16 17/17/17 15/15/15
f 17/17/17 16/16/16 18/18/18
f 18/18/18 19/19/19 17/17/17
f 19/19/19 18/18/18 20/20/20
f 20/20/20 21/21/21 19/19/19
f 21/21/21 20/20/20 22/22/22
f 23/23/23 25/25/25 24/24/24
f 25/25/25 23/23/23 26/26/26
f 26/26/26 27/27/27 25/25/25
f 26/26/26 28/28/28 27/27/27
f 29/29/29 31/31/31 30/30/30
f 31/31/31 29/29/29 32/32/32
f 33/33/33 32/32/32 29/29/29
f 32/32/32 33/33/33 34/34/34
f 35/35/35 34/34/34 33/33/33
f 34/34/34 35/35/35 36/36/36
f 36/36/36 35/35/35 37/37/37
f 37/37/37 35/35/35 38/38/38
f 39/39/39 37/37/37 38/38/38
f 37/37/37 39/39/39 40/40/40
f 41/41/41 40/40/40 39/39/39
f 40/40/40 41/41/41 42/42/42
f 42/42/42 41/41/41 43/43/43
f 43/43/43 41/41/41 44/44/44
f 45/45/45 43/43/43 44/44/44
f 43/43/43 45/45/45 46/46/46
f 47/47/47 46/46/46 45/45/45
f 46/46/46 47/47/47 48/48/48
f 49/49/49 48/48/48 47/47/47
f 48/48/48 49/49/49 50/50/50
