#Rock_LOD1_13549_128.obj

v -1.77149 17.07492 35.22157
v -21.37469 20.28565 26.00099
v -1.771442 21.50535 3.799638
v -33.77341 23.19557 -4.41446
v 18.79716 16.94423 27.81484
v 35.60524 14.37727 4.654582
v -22.46297 22.48664 -24.67257
v 8.505816 17.07487 -25.6398
v 26.89892 16.94424 -19.59386
v -20.9541 -5.765666 26.70204
v -2.2213 2.271675 33.54877
v -8.370448 -18.21579 32.14026
v -22.5011 -18.21584 13.51473
v 14.23725 -18.21582 22.32956
v 18.79711 -0.4099151 27.68365
v -21.37469 20.28565 26.00099
v -1.77149 17.07492 35.22157
v 18.79716 16.94423 27.81484
v 14.23725 -18.21582 22.32956
v 18.79711 -0.4099151 27.68365
v 35.60517 2.271651 4.654708
v 35.60518 -18.21584 4.654676
v 22.71693 -18.21586 -12.23221
v 26.89885 -5.777096 -19.59375
v 35.60524 14.37727 4.654582
v 18.79716 16.94423 27.81484
v 26.89892 16.94424 -19.59386
v 8.505794 2.271621 -25.63979
v 1.213652 -18.21581 -14.09587
v 22.71693 -18.21586 -12.23221
v 26.89885 -5.777096 -19.59375
v -22.46301 2.271633 -24.67246
v -20.12048 -18.21584 -20.72419
v 26.89892 16.94424 -19.59386
v 8.505816 17.07487 -25.6398
v -22.46297 22.48664 -24.67257
v -22.46301 2.271633 -24.67246
v -28.77556 -18.21584 -9.803566
v -20.12048 -18.21584 -20.72419
v -35.70659 2.271667 -13.69554
v -20.9541 -5.765666 26.70204
v -22.5011 -18.21584 13.51473
v -35.70659 2.271667 -13.69554
v -28.77556 -18.21584 -9.803566
v -33.77341 23.19557 -4.41446
v -22.46297 22.48664 -24.67257
v -22.46301 2.271633 -24.67246
v -21.37469 20.28565 26.00099

vn 0.3798828 0.8564453 0.348877
vn 0.07672119 0.9370117 0.3405762
vn 0.1513672 0.9833984 -0.102417
vn -0.1680908 0.9829102 0.07592773
vn 0.5107422 0.8515625 0.1173706
vn 0.512207 0.8217773 -0.2496338
vn -0.2122803 0.9125977 -0.3496094
vn -0.06463623 0.8618164 -0.503418
vn 0.1602783 0.8359375 -0.5249023
vn -0.1694336 -0.2653809 0.9492188
vn 0.4462891 -0.2827148 0.8491211
vn 0.2524414 -0.5083008 0.8232422
vn -0.4094238 -0.4633789 0.7856445
vn 0.6791992 -0.5449219 0.4912109
vn 0.7866211 -0.371582 0.4926758
vn 0.07672119 0.9370117 0.3405762
vn 0.3798828 0.8564453 0.348877
vn 0.5107422 0.8515625 0.1173706
vn 0.6791992 -0.5449219 0.4912109
vn 0.7866211 -0.371582 0.4926758
vn 0.8496094 -0.4223633 -0.3164063
vn 0.6796875 -0.6953125 -0.2338867
vn -0.1122437 -0.8144531 -0.5698242
vn -0.06414795 -0.6337891 -0.7705078
vn 0.512207 0.8217773 -0.2496338
vn 0.5107422 0.8515625 0.1173706
vn 0.1602783 0.8359375 -0.5249023
vn -0.4472656 -0.463623 -0.7646484
vn -0.3935547 -0.7685547 -0.5043945
vn -0.1122437 -0.8144531 -0.5698242
vn -0.06414795 -0.6337891 -0.7705078
vn -0.7768555 -0.2744141 -0.5668945
vn -0.6147461 -0.6630859 -0.4267578
vn 0.1602783 0.8359375 -0.5249023
vn -0.06463623 0.8618164 -0.503418
vn -0.2122803 0.9125977 -0.3496094
vn -0.7768555 -0.2744141 -0.5668945
vn -0.7714844 -0.5737305 0.2758789
vn -0.6147461 -0.6630859 -0.4267578
vn -0.965332 -0.1130371 0.2357178
vn -0.1694336 -0.2653809 0.9492188
vn -0.4094238 -0.4633789 0.7856445
vn -0.965332 -0.1130371 0.2357178
vn -0.7714844 -0.5737305 0.2758789
vn -0.1680908 0.9829102 0.07592773
vn -0.2122803 0.9125977 -0.3496094
vn -0.7768555 -0.2744141 -0.5668945
vn 0.07672119 0.9370117 0.3405762

vt 0.1712646 0.5234375
vt 0.354248 0.5258789
vt 0.2875977 0.2844238
vt 0.5615234 0.3405762
vt 0.04238892 0.3908691
vt 0.0005002022 0.1524658
vt 0.550293 0.1448975
vt 0.3186035 0.02272034
vt 0.1564941 0.0005002022
vt 0.8891602 0.008934021
vt 0.8212891 0.1673584
vt 0.9946289 0.1152954
vt 0.9897461 -0.04147339
vt 0.9946289 0.3063965
vt 0.84375 0.3449707
vt 0.6689453 0.005378723
vt 0.6962891 0.1711426
vt 0.6972656 0.3449707
vt 0.5151367 0.3469238
vt 0.5039063 0.4975586
vt 0.6987305 0.5200195
vt 0.6987305 0.3469238
vt 0.8417969 0.3469238
vt 0.9038086 0.4521484
vt 0.6987305 0.6225586
vt 0.5029297 0.644043
vt 0.9038086 0.644043
vt 0.3742676 0.8251953
vt 0.3127441 0.9985352
vt 0.4943848 0.9985352
vt 0.5297852 0.8930664
vt 0.1124878 0.8251953
vt 0.1323242 0.9985352
vt 0.5297852 0.7011719
vt 0.3742676 0.7001953
vt 0.1124878 0.6542969
vt 0.1124878 0.8251953
vt 0.05908203 0.9985352
vt 0.1459961 0.9907227
vt 0.0005002022 0.8251953
vt 0.9326172 0.7548828
vt 0.8208008 0.6494141
vt 0.5908203 0.8227539
vt 0.6240234 0.6494141
vt 0.6694336 0.9995117
vt 0.4980469 0.9936523
vt 0.4748535 0.8369141
vt 0.9267578 0.9750977

g Rock_LOD1_13549_128
usemtl Rock_LOD1_13549_128
usemap Rock_LOD1_13549_128
f 1/1/1 3/3/3 2/2/2
f 2/2/2 3/3/3 4/4/4
f 5/5/5 3/3/3 1/1/1
f 3/3/3 5/5/5 6/6/6
f 3/3/3 7/7/7 4/4/4
f 7/7/7 3/3/3 8/8/8
f 6/6/6 9/9/9 3/3/3
f 3/3/3 9/9/9 8/8/8
f 10/10/10 12/12/12 11/11/11
f 12/12/12 10/10/10 13/13/13
f 14/14/14 11/11/11 12/12/12
f 11/11/11 14/14/14 15/15/15
f 11/11/11 16/16/16 10/10/10
f 16/16/16 11/11/11 17/17/17
f 17/17/17 11/11/11 18/18/18
f 18/18/18 11/11/11 15/15/15
f 19/19/19 21/21/21 20/20/20
f 21/21/21 19/19/19 22/22/22
f 21/21/21 22/22/22 23/23/23
f 21/21/21 23/23/23 24/24/24
f 25/25/25 20/20/20 21/21/21
f 20/20/20 25/25/25 26/26/26
f 21/21/21 27/27/27 25/25/25
f 27/27/27 21/21/21 24/24/24
f 28/28/28 30/30/30 29/29/29
f 30/30/30 28/28/28 31/31/31
f 29/29/29 32/32/32 28/28/28
f 32/32/32 29/29/29 33/33/33
f 28/28/28 34/34/34 31/31/31
f 34/34/34 28/28/28 35/35/35
f 28/28/28 32/32/32 35/35/35
f 36/36/36 35/35/35 32/32/32
f 37/37/37 39/39/39 38/38/38
f 38/38/38 40/40/40 37/37/37
f 41/41/41 43/43/43 42/42/42
f 42/42/42 43/43/43 44/44/44
f 41/41/41 45/45/45 43/43/43
f 45/45/45 46/46/46 43/43/43
f 43/43/43 46/46/46 47/47/47
f 45/45/45 41/41/41 48/48/48
