#Rock_LOD1_14742_153.obj

v -1.771492 17.07488 35.22157
v -21.37469 20.2855 26.00098
v -1.771453 21.50516 3.799687
v -33.7734 23.19543 -4.414435
v 18.79714 16.94422 27.81481
v 35.60518 14.37723 4.654645
v -22.46299 22.48657 -24.67249
v 8.505812 17.0749 -25.63993
v 26.89885 16.94425 -19.59378
v -20.9541 -5.765568 26.70196
v -2.221293 2.271661 33.54881
v -8.370473 -18.21583 32.14037
v -22.50111 -18.21574 13.51468
v 14.23723 -18.21581 22.32958
v 18.79715 -0.4099144 27.68358
v -21.37469 20.2855 26.00098
v -1.771492 17.07488 35.22157
v 18.79714 16.94422 27.81481
v 14.23723 -18.21581 22.32958
v 18.79715 -0.4099144 27.68358
v 35.60522 2.27152 4.654653
v 35.60516 -18.21581 4.65463
v 22.71698 -18.21587 -12.23229
v 26.8989 -5.777142 -19.59375
v 35.60518 14.37723 4.654645
v 18.79714 16.94422 27.81481
v 26.89885 16.94425 -19.59378
v 8.505828 2.271652 -25.63984
v 1.213567 -18.2158 -14.09581
v 22.71698 -18.21587 -12.23229
v 26.8989 -5.777142 -19.59375
v -22.463 2.271629 -24.67244
v -20.12052 -18.2158 -20.7242
v 26.89885 16.94425 -19.59378
v 8.505812 17.0749 -25.63993
v -22.46299 22.48657 -24.67249
v -22.463 2.271629 -24.67244
v -28.77557 -18.21583 -9.803643
v -20.12052 -18.2158 -20.7242
v -35.70659 2.271589 -13.69547
v -20.9541 -5.765568 26.70196
v -22.50111 -18.21574 13.51468
v -35.70659 2.271589 -13.69547
v -28.77557 -18.21583 -9.803643
v -33.7734 23.19543 -4.414435
v -22.46299 22.48657 -24.67249
v -22.463 2.271629 -24.67244
v -21.37469 20.2855 26.00098

vn -0.1514893 0.5341797 0.831543
vn -0.4443359 0.4311523 0.7851563
vn -0.456543 0.7548828 0.4707031
vn -0.6962891 0.4848633 0.5292969
vn -0.06665039 0.7333984 0.6767578
vn -0.08636475 0.9272461 0.3642578
vn -0.7358398 0.6635742 0.1361084
vn -0.6025391 0.7973633 0.02471924
vn -0.407959 0.9116211 0.05401611
vn 0.1149292 -0.8032227 0.5844727
vn 0.612793 -0.4348145 0.659668
vn 0.5834961 -0.6625977 0.4694824
vn 0.0181427 -0.9584961 0.2844238
vn 0.9160156 -0.2709961 0.2958984
vn 0.902832 -0.1068115 0.416748
vn -0.4443359 0.4311523 0.7851563
vn -0.1514893 0.5341797 0.831543
vn -0.06665039 0.7333984 0.6767578
vn 0.9160156 -0.2709961 0.2958984
vn 0.902832 -0.1068115 0.416748
vn 0.8989258 0.3615723 -0.248291
vn 0.9277344 0.05392456 -0.3693848
vn 0.3208008 -0.2403564 -0.9160156
vn 0.2346191 0.01393127 -0.972168
vn -0.08636475 0.9272461 0.3642578
vn -0.06665039 0.7333984 0.6767578
vn -0.407959 0.9116211 0.05401611
vn -0.1734619 -0.08258057 -0.9814453
vn 0.07330322 -0.3962402 -0.9150391
vn 0.3208008 -0.2403564 -0.9160156
vn 0.2346191 0.01393127 -0.972168
vn -0.5288086 -0.2502441 -0.8110352
vn -0.1585693 -0.4907227 -0.8569336
vn -0.407959 0.9116211 0.05401611
vn -0.6025391 0.7973633 0.02471924
vn -0.7358398 0.6635742 0.1361084
vn -0.5288086 -0.2502441 -0.8110352
vn -0.263916 -0.921875 -0.2832031
vn -0.1585693 -0.4907227 -0.8569336
vn -0.6914063 -0.7109375 -0.1276855
vn 0.1149292 -0.8032227 0.5844727
vn 0.0181427 -0.9584961 0.2844238
vn -0.6914063 -0.7109375 -0.1276855
vn -0.263916 -0.921875 -0.2832031
vn -0.6962891 0.4848633 0.5292969
vn -0.7358398 0.6635742 0.1361084
vn -0.5288086 -0.2502441 -0.8110352
vn -0.4443359 0.4311523 0.7851563

vt 0.1712646 0.5234375
vt 0.354248 0.5258789
vt 0.2875977 0.2844238
vt 0.5615234 0.3405762
vt 0.04238892 0.3908691
vt 0.0005002022 0.1524658
vt 0.550293 0.1448975
vt 0.3186035 0.02272034
vt 0.1564941 0.0005002022
vt 0.8891602 0.008934021
vt 0.8212891 0.1673584
vt 0.9946289 0.1152954
vt 0.9897461 -0.04147339
vt 0.9946289 0.3063965
vt 0.84375 0.3449707
vt 0.6689453 0.005378723
vt 0.6962891 0.1711426
vt 0.6972656 0.3449707
vt 0.5151367 0.3469238
vt 0.5039063 0.4975586
vt 0.6987305 0.5200195
vt 0.6987305 0.3469238
vt 0.8417969 0.3469238
vt 0.9038086 0.4521484
vt 0.6987305 0.6225586
vt 0.5029297 0.644043
vt 0.9038086 0.644043
vt 0.3742676 0.8251953
vt 0.3127441 0.9985352
vt 0.4943848 0.9985352
vt 0.5297852 0.8930664
vt 0.1124878 0.8251953
vt 0.1323242 0.9985352
vt 0.5297852 0.7011719
vt 0.3742676 0.7001953
vt 0.1124878 0.6542969
vt 0.1124878 0.8251953
vt 0.05908203 0.9985352
vt 0.1459961 0.9907227
vt 0.0005002022 0.8251953
vt 0.9326172 0.7548828
vt 0.8208008 0.6494141
vt 0.5908203 0.8227539
vt 0.6240234 0.6494141
vt 0.6694336 0.9995117
vt 0.4980469 0.9936523
vt 0.4748535 0.8369141
vt 0.9267578 0.9750977

g Rock_LOD1_14742_153
usemtl Rock_LOD1_14742_153
usemap Rock_LOD1_14742_153
f 1/1/1 3/3/3 2/2/2
f 2/2/2 3/3/3 4/4/4
f 5/5/5 3/3/3 1/1/1
f 3/3/3 5/5/5 6/6/6
f 3/3/3 7/7/7 4/4/4
f 7/7/7 3/3/3 8/8/8
f 6/6/6 9/9/9 3/3/3
f 3/3/3 9/9/9 8/8/8
f 10/10/10 12/12/12 11/11/11
f 12/12/12 10/10/10 13/13/13
f 14/14/14 11/11/11 12/12/12
f 11/11/11 14/14/14 15/15/15
f 11/11/11 16/16/16 10/10/10
f 16/16/16 11/11/11 17/17/17
f 17/17/17 11/11/11 18/18/18
f 18/18/18 11/11/11 15/15/15
f 19/19/19 21/21/21 20/20/20
f 21/21/21 19/19/19 22/22/22
f 21/21/21 22/22/22 23/23/23
f 21/21/21 23/23/23 24/24/24
f 25/25/25 20/20/20 21/21/21
f 20/20/20 25/25/25 26/26/26
f 21/21/21 27/27/27 25/25/25
f 27/27/27 21/21/21 24/24/24
f 28/28/28 30/30/30 29/29/29
f 30/30/30 28/28/28 31/31/31
f 29/29/29 32/32/32 28/28/28
f 32/32/32 29/29/29 33/33/33
f 28/28/28 34/34/34 31/31/31
f 34/34/34 28/28/28 35/35/35
f 28/28/28 32/32/32 35/35/35
f 36/36/36 35/35/35 32/32/32
f 37/37/37 39/39/39 38/38/38
f 38/38/38 40/40/40 37/37/37
f 41/41/41 43/43/43 42/42/42
f 42/42/42 43/43/43 44/44/44
f 41/41/41 45/45/45 43/43/43
f 45/45/45 46/46/46 43/43/43
f 43/43/43 46/46/46 47/47/47
f 45/45/45 41/41/41 48/48/48
