#Rock_LOD1_12613_142.obj

v -1.771422 17.07492 35.22161
v -21.37469 20.28563 26.00105
v -1.771479 21.50533 3.799644
v -33.7734 23.19555 -4.414516
v 18.79718 16.94424 27.81475
v 35.60535 14.37729 4.654642
v -22.46285 22.48665 -24.67245
v 8.505897 17.07492 -25.63988
v 26.89898 16.94425 -19.59386
v -20.95391 -5.765626 26.70192
v -2.221235 2.271669 33.54875
v -8.370429 -18.21582 32.14035
v -22.50105 -18.21583 13.5146
v 14.23733 -18.21581 22.32959
v 18.79726 -0.4098812 27.68351
v -21.37469 20.28563 26.00105
v -1.771422 17.07492 35.22161
v 18.79718 16.94424 27.81475
v 14.23733 -18.21581 22.32959
v 18.79726 -0.4098812 27.68351
v 35.60529 2.271682 4.654593
v 35.6053 -18.2158 4.654703
v 22.71713 -18.21579 -12.23227
v 26.89898 -5.777042 -19.59385
v 35.60535 14.37729 4.654642
v 18.79718 16.94424 27.81475
v 26.89898 16.94425 -19.59386
v 8.505953 2.271673 -25.63987
v 1.213678 -18.21582 -14.09579
v 22.71713 -18.21579 -12.23227
v 26.89898 -5.777042 -19.59385
v -22.46297 2.271648 -24.67257
v -20.12043 -18.21583 -20.72424
v 26.89898 16.94425 -19.59386
v 8.505897 17.07492 -25.63988
v -22.46285 22.48665 -24.67245
v -22.46297 2.271648 -24.67257
v -28.77542 -18.21581 -9.803589
v -20.12043 -18.21583 -20.72424
v -35.70658 2.271646 -13.6956
v -20.95391 -5.765626 26.70192
v -22.50105 -18.21583 13.5146
v -35.70658 2.271646 -13.6956
v -28.77542 -18.21581 -9.803589
v -33.7734 23.19555 -4.414516
v -22.46285 22.48665 -24.67245
v -22.46297 2.271648 -24.67257
v -21.37469 20.28563 26.00105

vn 0.2365723 0.8510742 0.4685059
vn -0.06378174 0.9130859 0.4023438
vn 0.09533691 0.9956055 -0.01237488
vn -0.2526855 0.9628906 0.09576416
vn 0.4118652 0.8706055 0.269043
vn 0.4897461 0.8671875 -0.09069824
vn -0.2044678 0.9204102 -0.3330078
vn -0.02534485 0.8896484 -0.4555664
vn 0.2006836 0.8793945 -0.4318848
vn -0.3378906 -0.3422852 0.8769531
vn 0.2849121 -0.3149414 0.9052734
vn 0.1175537 -0.5493164 0.8271484
vn -0.5244141 -0.5424805 0.65625
vn 0.6044922 -0.5361328 0.5893555
vn 0.6962891 -0.3569336 0.6225586
vn -0.06378174 0.9130859 0.4023438
vn 0.2365723 0.8510742 0.4685059
vn 0.4118652 0.8706055 0.269043
vn 0.6044922 -0.5361328 0.5893555
vn 0.6962891 -0.3569336 0.6225586
vn 0.9248047 -0.3459473 -0.1575928
vn 0.7626953 -0.6337891 -0.1275635
vn 0.06628418 -0.7768555 -0.6259766
vn 0.1405029 -0.5800781 -0.8022461
vn 0.4897461 0.8671875 -0.09069824
vn 0.4118652 0.8706055 0.269043
vn 0.2006836 0.8793945 -0.4318848
vn -0.2474365 -0.4343262 -0.8662109
vn -0.2249756 -0.7529297 -0.6181641
vn 0.06628418 -0.7768555 -0.6259766
vn 0.1405029 -0.5800781 -0.8022461
vn -0.6230469 -0.2802734 -0.7299805
vn -0.4645996 -0.6674805 -0.5820313
vn 0.2006836 0.8793945 -0.4318848
vn -0.02534485 0.8896484 -0.4555664
vn -0.2044678 0.9204102 -0.3330078
vn -0.6230469 -0.2802734 -0.7299805
vn -0.7661133 -0.6376953 0.07702637
vn -0.4645996 -0.6674805 -0.5820313
vn -0.9819336 -0.1883545 0.02401733
vn -0.3378906 -0.3422852 0.8769531
vn -0.5244141 -0.5424805 0.65625
vn -0.9819336 -0.1883545 0.02401733
vn -0.7661133 -0.6376953 0.07702637
vn -0.2526855 0.9628906 0.09576416
vn -0.2044678 0.9204102 -0.3330078
vn -0.6230469 -0.2802734 -0.7299805
vn -0.06378174 0.9130859 0.4023438

vt 0.1712646 0.5234375
vt 0.354248 0.5258789
vt 0.2875977 0.2844238
vt 0.5615234 0.3405762
vt 0.04238892 0.3908691
vt 0.0005002022 0.1524658
vt 0.550293 0.1448975
vt 0.3186035 0.02272034
vt 0.1564941 0.0005002022
vt 0.8891602 0.008934021
vt 0.8212891 0.1673584
vt 0.9946289 0.1152954
vt 0.9897461 -0.04147339
vt 0.9946289 0.3063965
vt 0.84375 0.3449707
vt 0.6689453 0.005378723
vt 0.6962891 0.1711426
vt 0.6972656 0.3449707
vt 0.5151367 0.3469238
vt 0.5039063 0.4975586
vt 0.6987305 0.5200195
vt 0.6987305 0.3469238
vt 0.8417969 0.3469238
vt 0.9038086 0.4521484
vt 0.6987305 0.6225586
vt 0.5029297 0.644043
vt 0.9038086 0.644043
vt 0.3742676 0.8251953
vt 0.3127441 0.9985352
vt 0.4943848 0.9985352
vt 0.5297852 0.8930664
vt 0.1124878 0.8251953
vt 0.1323242 0.9985352
vt 0.5297852 0.7011719
vt 0.3742676 0.7001953
vt 0.1124878 0.6542969
vt 0.1124878 0.8251953
vt 0.05908203 0.9985352
vt 0.1459961 0.9907227
vt 0.0005002022 0.8251953
vt 0.9326172 0.7548828
vt 0.8208008 0.6494141
vt 0.5908203 0.8227539
vt 0.6240234 0.6494141
vt 0.6694336 0.9995117
vt 0.4980469 0.9936523
vt 0.4748535 0.8369141
vt 0.9267578 0.9750977

g Rock_LOD1_12613_142
usemtl Rock_LOD1_12613_142
usemap Rock_LOD1_12613_142
f 1/1/1 3/3/3 2/2/2
f 2/2/2 3/3/3 4/4/4
f 5/5/5 3/3/3 1/1/1
f 3/3/3 5/5/5 6/6/6
f 3/3/3 7/7/7 4/4/4
f 7/7/7 3/3/3 8/8/8
f 6/6/6 9/9/9 3/3/3
f 3/3/3 9/9/9 8/8/8
f 10/10/10 12/12/12 11/11/11
f 12/12/12 10/10/10 13/13/13
f 14/14/14 11/11/11 12/12/12
f 11/11/11 14/14/14 15/15/15
f 11/11/11 16/16/16 10/10/10
f 16/16/16 11/11/11 17/17/17
f 17/17/17 11/11/11 18/18/18
f 18/18/18 11/11/11 15/15/15
f 19/19/19 21/21/21 20/20/20
f 21/21/21 19/19/19 22/22/22
f 21/21/21 22/22/22 23/23/23
f 21/21/21 23/23/23 24/24/24
f 25/25/25 20/20/20 21/21/21
f 20/20/20 25/25/25 26/26/26
f 21/21/21 27/27/27 25/25/25
f 27/27/27 21/21/21 24/24/24
f 28/28/28 30/30/30 29/29/29
f 30/30/30 28/28/28 31/31/31
f 29/29/29 32/32/32 28/28/28
f 32/32/32 29/29/29 33/33/33
f 28/28/28 34/34/34 31/31/31
f 34/34/34 28/28/28 35/35/35
f 28/28/28 32/32/32 35/35/35
f 36/36/36 35/35/35 32/32/32
f 37/37/37 39/39/39 38/38/38
f 38/38/38 40/40/40 37/37/37
f 41/41/41 43/43/43 42/42/42
f 42/42/42 43/43/43 44/44/44
f 41/41/41 45/45/45 43/43/43
f 45/45/45 46/46/46 43/43/43
f 43/43/43 46/46/46 47/47/47
f 45/45/45 41/41/41 48/48/48
