#Rock_LOD1_13243_158.obj

v -1.771495 17.07489 35.2215
v -21.37477 20.28575 26.00096
v -1.771547 21.50545 3.799671
v -33.77345 23.19551 -4.414489
v 18.79711 16.94436 27.81473
v 35.60515 14.37732 4.654566
v -22.46306 22.48674 -24.67258
v 8.505808 17.07494 -25.63992
v 26.89882 16.94432 -19.59389
v -20.95414 -5.765479 26.70186
v -2.221364 2.271815 33.54868
v -8.370489 -18.21584 32.14022
v -22.5011 -18.21582 13.5146
v 14.23719 -18.2157 22.32953
v 18.79709 -0.4097505 27.68345
v -21.37477 20.28575 26.00096
v -1.771495 17.07489 35.2215
v 18.79711 16.94436 27.81473
v 14.23719 -18.2157 22.32953
v 18.79709 -0.4097505 27.68345
v 35.60518 2.271623 4.654605
v 35.60517 -18.21585 4.654623
v 22.71694 -18.21583 -12.23238
v 26.89882 -5.776958 -19.59384
v 35.60515 14.37732 4.654566
v 18.79711 16.94436 27.81473
v 26.89882 16.94432 -19.59389
v 8.505788 2.271719 -25.63989
v 1.21354 -18.2157 -14.09584
v 22.71694 -18.21583 -12.23238
v 26.89882 -5.776958 -19.59384
v -22.46306 2.271759 -24.67252
v -20.12051 -18.21583 -20.72425
v 26.89882 16.94432 -19.59389
v 8.505808 17.07494 -25.63992
v -22.46306 22.48674 -24.67258
v -22.46306 2.271759 -24.67252
v -28.7756 -18.21573 -9.803652
v -20.12051 -18.21583 -20.72425
v -35.70665 2.271693 -13.69559
v -20.95414 -5.765479 26.70186
v -22.5011 -18.21582 13.5146
v -35.70665 2.271693 -13.69559
v -28.7756 -18.21573 -9.803652
v -33.77345 23.19551 -4.414489
v -22.46306 22.48674 -24.67258
v -22.46306 2.271759 -24.67252
v -21.37477 20.28575 26.00096

vn -0.6503906 0.6118164 0.4499512
vn -0.8496094 0.4570313 0.2631836
vn -0.6831055 0.7285156 -0.05731201
vn -0.8959961 0.4335938 -0.09649658
vn -0.4980469 0.7988281 0.3374023
vn -0.3327637 0.9418945 0.04138184
vn -0.6962891 0.5473633 -0.4638672
vn -0.5292969 0.6845703 -0.5009766
vn -0.3981934 0.831543 -0.3869629
vn -0.227417 -0.6855469 0.6914063
vn 0.1044312 -0.2344971 0.9663086
vn 0.2075195 -0.4880371 0.8476563
vn -0.1144409 -0.8945313 0.4321289
vn 0.5581055 -0.07531738 0.8261719
vn 0.467041 0.09960938 0.8789063
vn -0.8496094 0.4570313 0.2631836
vn -0.6503906 0.6118164 0.4499512
vn -0.4980469 0.7988281 0.3374023
vn 0.5581055 -0.07531738 0.8261719
vn 0.467041 0.09960938 0.8789063
vn 0.8466797 0.4650879 0.2592773
vn 0.9575195 0.1525879 0.2454834
vn 0.8222656 -0.3088379 -0.4777832
vn 0.7763672 -0.08203125 -0.625
vn -0.3327637 0.9418945 0.04138184
vn -0.4980469 0.7988281 0.3374023
vn -0.3981934 0.831543 -0.3869629
vn 0.4631348 -0.2438965 -0.8520508
vn 0.6328125 -0.5009766 -0.590332
vn 0.8222656 -0.3088379 -0.4777832
vn 0.7763672 -0.08203125 -0.625
vn 0.08581543 -0.4421387 -0.8930664
vn 0.4179688 -0.6230469 -0.6611328
vn -0.3981934 0.831543 -0.3869629
vn -0.5292969 0.6845703 -0.5009766
vn -0.6962891 0.5473633 -0.4638672
vn 0.08581543 -0.4421387 -0.8930664
vn 0.005558014 -0.9829102 -0.1849365
vn 0.4179688 -0.6230469 -0.6611328
vn -0.4375 -0.824707 -0.3583984
vn -0.227417 -0.6855469 0.6914063
vn -0.1144409 -0.8945313 0.4321289
vn -0.4375 -0.824707 -0.3583984
vn 0.005558014 -0.9829102 -0.1849365
vn -0.8959961 0.4335938 -0.09649658
vn -0.6962891 0.5473633 -0.4638672
vn 0.08581543 -0.4421387 -0.8930664
vn -0.8496094 0.4570313 0.2631836

vt 0.1712646 0.5234375
vt 0.354248 0.5258789
vt 0.2875977 0.2844238
vt 0.5615234 0.3405762
vt 0.04238892 0.3908691
vt 0.0005002022 0.1524658
vt 0.550293 0.1448975
vt 0.3186035 0.02272034
vt 0.1564941 0.0005002022
vt 0.8891602 0.008934021
vt 0.8212891 0.1673584
vt 0.9946289 0.1152954
vt 0.9897461 -0.04147339
vt 0.9946289 0.3063965
vt 0.84375 0.3449707
vt 0.6689453 0.005378723
vt 0.6962891 0.1711426
vt 0.6972656 0.3449707
vt 0.5151367 0.3469238
vt 0.5039063 0.4975586
vt 0.6987305 0.5200195
vt 0.6987305 0.3469238
vt 0.8417969 0.3469238
vt 0.9038086 0.4521484
vt 0.6987305 0.6225586
vt 0.5029297 0.644043
vt 0.9038086 0.644043
vt 0.3742676 0.8251953
vt 0.3127441 0.9985352
vt 0.4943848 0.9985352
vt 0.5297852 0.8930664
vt 0.1124878 0.8251953
vt 0.1323242 0.9985352
vt 0.5297852 0.7011719
vt 0.3742676 0.7001953
vt 0.1124878 0.6542969
vt 0.1124878 0.8251953
vt 0.05908203 0.9985352
vt 0.1459961 0.9907227
vt 0.0005002022 0.8251953
vt 0.9326172 0.7548828
vt 0.8208008 0.6494141
vt 0.5908203 0.8227539
vt 0.6240234 0.6494141
vt 0.6694336 0.9995117
vt 0.4980469 0.9936523
vt 0.4748535 0.8369141
vt 0.9267578 0.9750977

g Rock_LOD1_13243_158
usemtl Rock_LOD1_13243_158
usemap Rock_LOD1_13243_158
f 1/1/1 3/3/3 2/2/2
f 2/2/2 3/3/3 4/4/4
f 5/5/5 3/3/3 1/1/1
f 3/3/3 5/5/5 6/6/6
f 3/3/3 7/7/7 4/4/4
f 7/7/7 3/3/3 8/8/8
f 6/6/6 9/9/9 3/3/3
f 3/3/3 9/9/9 8/8/8
f 10/10/10 12/12/12 11/11/11
f 12/12/12 10/10/10 13/13/13
f 14/14/14 11/11/11 12/12/12
f 11/11/11 14/14/14 15/15/15
f 11/11/11 16/16/16 10/10/10
f 16/16/16 11/11/11 17/17/17
f 17/17/17 11/11/11 18/18/18
f 18/18/18 11/11/11 15/15/15
f 19/19/19 21/21/21 20/20/20
f 21/21/21 19/19/19 22/22/22
f 21/21/21 22/22/22 23/23/23
f 21/21/21 23/23/23 24/24/24
f 25/25/25 20/20/20 21/21/21
f 20/20/20 25/25/25 26/26/26
f 21/21/21 27/27/27 25/25/25
f 27/27/27 21/21/21 24/24/24
f 28/28/28 30/30/30 29/29/29
f 30/30/30 28/28/28 31/31/31
f 29/29/29 32/32/32 28/28/28
f 32/32/32 29/29/29 33/33/33
f 28/28/28 34/34/34 31/31/31
f 34/34/34 28/28/28 35/35/35
f 28/28/28 32/32/32 35/35/35
f 36/36/36 35/35/35 32/32/32
f 37/37/37 39/39/39 38/38/38
f 38/38/38 40/40/40 37/37/37
f 41/41/41 43/43/43 42/42/42
f 42/42/42 43/43/43 44/44/44
f 41/41/41 45/45/45 43/43/43
f 45/45/45 46/46/46 43/43/43
f 43/43/43 46/46/46 47/47/47
f 45/45/45 41/41/41 48/48/48
