#Rock_LOD1_13613_118.obj

v -1.771551 17.07491 35.22151
v -21.37475 20.28562 26.00101
v -1.771553 21.50532 3.799671
v -33.77348 23.19556 -4.41447
v 18.79711 16.94423 27.81481
v 35.60514 14.37724 4.654606
v -22.46305 22.48663 -24.67252
v 8.505812 17.0749 -25.63986
v 26.89883 16.94422 -19.59385
v -20.95413 -5.765655 26.7019
v -2.221346 2.271653 33.54874
v -8.370525 -18.21583 32.14031
v -22.50112 -18.21583 13.51462
v 14.23719 -18.21583 22.32949
v 18.79712 -0.4099099 27.68353
v -21.37475 20.28562 26.00101
v -1.771551 17.07491 35.22151
v 18.79711 16.94423 27.81481
v 14.23719 -18.21583 22.32949
v 18.79712 -0.4099099 27.68353
v 35.60515 2.271652 4.654661
v 35.60515 -18.21583 4.654621
v 22.71692 -18.21583 -12.23235
v 26.89884 -5.777069 -19.59383
v 35.60514 14.37724 4.654606
v 18.79711 16.94423 27.81481
v 26.89883 16.94422 -19.59385
v 8.505786 2.27165 -25.63989
v 1.21357 -18.21583 -14.0958
v 22.71692 -18.21583 -12.23235
v 26.89884 -5.777069 -19.59383
v -22.46303 2.271649 -24.67251
v -20.12053 -18.21583 -20.7242
v 26.89883 16.94422 -19.59385
v 8.505812 17.0749 -25.63986
v -22.46305 22.48663 -24.67252
v -22.46303 2.271649 -24.67251
v -28.7756 -18.21583 -9.803618
v -20.12053 -18.21583 -20.7242
v -35.70664 2.271651 -13.69551
v -20.95413 -5.765655 26.7019
v -22.50112 -18.21583 13.51462
v -35.70664 2.271651 -13.69551
v -28.7756 -18.21583 -9.803618
v -33.77348 23.19556 -4.41447
v -22.46305 22.48663 -24.67252
v -22.46303 2.271649 -24.67251
v -21.37475 20.28562 26.00101

vn -0.1635742 0.8354492 0.5244141
vn -0.4240723 0.8710938 0.2468262
vn 0.03781128 0.9985352 0.0335083
vn -0.3935547 0.909668 -0.1329346
vn 0.1619873 0.8579102 0.4873047
vn 0.4882813 0.8359375 0.2509766
vn -0.02957153 0.8964844 -0.4423828
vn 0.2492676 0.878418 -0.407959
vn 0.4570313 0.8623047 -0.2180176
vn -0.8549805 -0.3232422 0.4052734
vn -0.3374023 -0.2932129 0.8945313
vn -0.4355469 -0.5234375 0.7324219
vn -0.8588867 -0.4946289 0.1340332
vn 0.2088623 -0.4645996 0.8603516
vn 0.2558594 -0.2915039 0.921875
vn -0.4240723 0.8710938 0.2468262
vn -0.1635742 0.8354492 0.5244141
vn 0.1619873 0.8579102 0.4873047
vn 0.2088623 -0.4645996 0.8603516
vn 0.2558594 -0.2915039 0.921875
vn 0.8671875 -0.2250977 0.4443359
vn 0.7792969 -0.4833984 0.3989258
vn 0.5649414 -0.7143555 -0.4133301
vn 0.7192383 -0.5014648 -0.4804688
vn 0.4882813 0.8359375 0.2509766
vn 0.1619873 0.8579102 0.4873047
vn 0.4570313 0.8623047 -0.2180176
vn 0.3991699 -0.4033203 -0.8232422
vn 0.2758789 -0.7265625 -0.6293945
vn 0.5649414 -0.7143555 -0.4133301
vn 0.7192383 -0.5014648 -0.4804688
vn -0.07623291 -0.2736816 -0.9589844
vn -0.0008559227 -0.6459961 -0.7631836
vn 0.4570313 0.8623047 -0.2180176
vn 0.2492676 0.878418 -0.407959
vn -0.02957153 0.8964844 -0.4423828
vn -0.07623291 -0.2736816 -0.9589844
vn -0.6987305 -0.5795898 -0.4199219
vn -0.0008559227 -0.6459961 -0.7631836
vn -0.8110352 -0.1894531 -0.5537109
vn -0.8549805 -0.3232422 0.4052734
vn -0.8588867 -0.4946289 0.1340332
vn -0.8110352 -0.1894531 -0.5537109
vn -0.6987305 -0.5795898 -0.4199219
vn -0.3935547 0.909668 -0.1329346
vn -0.02957153 0.8964844 -0.4423828
vn -0.07623291 -0.2736816 -0.9589844
vn -0.4240723 0.8710938 0.2468262

vt 0.1712646 0.5234375
vt 0.354248 0.5258789
vt 0.2875977 0.2844238
vt 0.5615234 0.3405762
vt 0.04238892 0.3908691
vt 0.0005002022 0.1524658
vt 0.550293 0.1448975
vt 0.3186035 0.02272034
vt 0.1564941 0.0005002022
vt 0.8891602 0.008934021
vt 0.8212891 0.1673584
vt 0.9946289 0.1152954
vt 0.9897461 -0.04147339
vt 0.9946289 0.3063965
vt 0.84375 0.3449707
vt 0.6689453 0.005378723
vt 0.6962891 0.1711426
vt 0.6972656 0.3449707
vt 0.5151367 0.3469238
vt 0.5039063 0.4975586
vt 0.6987305 0.5200195
vt 0.6987305 0.3469238
vt 0.8417969 0.3469238
vt 0.9038086 0.4521484
vt 0.6987305 0.6225586
vt 0.5029297 0.644043
vt 0.9038086 0.644043
vt 0.3742676 0.8251953
vt 0.3127441 0.9985352
vt 0.4943848 0.9985352
vt 0.5297852 0.8930664
vt 0.1124878 0.8251953
vt 0.1323242 0.9985352
vt 0.5297852 0.7011719
vt 0.3742676 0.7001953
vt 0.1124878 0.6542969
vt 0.1124878 0.8251953
vt 0.05908203 0.9985352
vt 0.1459961 0.9907227
vt 0.0005002022 0.8251953
vt 0.9326172 0.7548828
vt 0.8208008 0.6494141
vt 0.5908203 0.8227539
vt 0.6240234 0.6494141
vt 0.6694336 0.9995117
vt 0.4980469 0.9936523
vt 0.4748535 0.8369141
vt 0.9267578 0.9750977

g Rock_LOD1_13613_118
usemtl Rock_LOD1_13613_118
usemap Rock_LOD1_13613_118
f 1/1/1 3/3/3 2/2/2
f 2/2/2 3/3/3 4/4/4
f 5/5/5 3/3/3 1/1/1
f 3/3/3 5/5/5 6/6/6
f 3/3/3 7/7/7 4/4/4
f 7/7/7 3/3/3 8/8/8
f 6/6/6 9/9/9 3/3/3
f 3/3/3 9/9/9 8/8/8
f 10/10/10 12/12/12 11/11/11
f 12/12/12 10/10/10 13/13/13
f 14/14/14 11/11/11 12/12/12
f 11/11/11 14/14/14 15/15/15
f 11/11/11 16/16/16 10/10/10
f 16/16/16 11/11/11 17/17/17
f 17/17/17 11/11/11 18/18/18
f 18/18/18 11/11/11 15/15/15
f 19/19/19 21/21/21 20/20/20
f 21/21/21 19/19/19 22/22/22
f 21/21/21 22/22/22 23/23/23
f 21/21/21 23/23/23 24/24/24
f 25/25/25 20/20/20 21/21/21
f 20/20/20 25/25/25 26/26/26
f 21/21/21 27/27/27 25/25/25
f 27/27/27 21/21/21 24/24/24
f 28/28/28 30/30/30 29/29/29
f 30/30/30 28/28/28 31/31/31
f 29/29/29 32/32/32 28/28/28
f 32/32/32 29/29/29 33/33/33
f 28/28/28 34/34/34 31/31/31
f 34/34/34 28/28/28 35/35/35
f 28/28/28 32/32/32 35/35/35
f 36/36/36 35/35/35 32/32/32
f 37/37/37 39/39/39 38/38/38
f 38/38/38 40/40/40 37/37/37
f 41/41/41 43/43/43 42/42/42
f 42/42/42 43/43/43 44/44/44
f 41/41/41 45/45/45 43/43/43
f 45/45/45 46/46/46 43/43/43
f 43/43/43 46/46/46 47/47/47
f 45/45/45 41/41/41 48/48/48
