#Rock_LOD1_11628_79.obj

v -1.771502 17.07491 35.22159
v -21.37473 20.28562 26.00101
v -1.771497 21.50532 3.799759
v -33.77346 23.19555 -4.414462
v 18.79713 16.94423 27.81485
v 35.60518 14.37724 4.654688
v -22.46301 22.48663 -24.6725
v 8.505825 17.0749 -25.63982
v 26.89886 16.94423 -19.59383
v -20.95406 -5.765655 26.70198
v -2.221315 2.271652 33.54878
v -8.370482 -18.21583 32.14032
v -22.50107 -18.21583 13.51466
v 14.23723 -18.21583 22.32959
v 18.79714 -0.4099097 27.68359
v -21.37473 20.28562 26.00101
v -1.771502 17.07491 35.22159
v 18.79713 16.94423 27.81485
v 14.23723 -18.21583 22.32959
v 18.79714 -0.4099097 27.68359
v 35.60518 2.271651 4.654688
v 35.60518 -18.21583 4.654688
v 22.71696 -18.21583 -12.23229
v 26.89886 -5.777069 -19.59383
v 35.60518 14.37724 4.654688
v 18.79713 16.94423 27.81485
v 26.89886 16.94423 -19.59383
v 8.505825 2.27165 -25.63982
v 1.213584 -18.21583 -14.09579
v 22.71696 -18.21583 -12.23229
v 26.89886 -5.777069 -19.59383
v -22.46301 2.27165 -24.6725
v -20.12048 -18.21583 -20.72413
v 26.89886 16.94423 -19.59383
v 8.505825 17.0749 -25.63982
v -22.46301 22.48663 -24.6725
v -22.46301 2.27165 -24.6725
v -28.77556 -18.21583 -9.803602
v -20.12048 -18.21583 -20.72413
v -35.70663 2.271651 -13.69551
v -20.95406 -5.765655 26.70198
v -22.50107 -18.21583 13.51466
v -35.70663 2.271651 -13.69551
v -28.77556 -18.21583 -9.803602
v -33.77346 23.19555 -4.414462
v -22.46301 22.48663 -24.6725
v -22.46301 2.27165 -24.6725
v -21.37473 20.28562 26.00101

vn 0.02854919 0.5654297 0.8242188
vn -0.5244141 0.6186523 0.5849609
vn 0.107666 0.9936523 0.02793884
vn -0.7275391 0.6865234 -0.002437592
vn 0.5039063 0.5961914 0.625
vn 0.8291016 0.5498047 0.1035156
vn -0.2980957 0.6611328 -0.6884766
vn 0.1672363 0.6259766 -0.7617188
vn 0.5756836 0.5932617 -0.5629883
vn -0.7133789 -0.1455078 0.6855469
vn -0.02537537 -0.1318359 0.9907227
vn -0.1973877 -0.2595215 0.9453125
vn -0.8603516 -0.2380371 0.4504395
vn 0.5390625 -0.22229 0.8120117
vn 0.5761719 -0.1303711 0.8071289
vn -0.5244141 0.6186523 0.5849609
vn 0.02854919 0.5654297 0.8242188
vn 0.5039063 0.5961914 0.625
vn 0.5390625 -0.22229 0.8120117
vn 0.5761719 -0.1303711 0.8071289
vn 0.9863281 -0.09869385 0.1331787
vn 0.9638672 -0.2312012 0.1318359
vn 0.5297852 -0.4133301 -0.7407227
vn 0.5957031 -0.2493896 -0.7631836
vn 0.8291016 0.5498047 0.1035156
vn 0.5039063 0.5961914 0.625
vn 0.5756836 0.5932617 -0.5629883
vn 0.1170044 -0.1954346 -0.9736328
vn 0.0723877 -0.4296875 -0.8999023
vn 0.5297852 -0.4133301 -0.7407227
vn 0.5957031 -0.2493896 -0.7631836
vn -0.4111328 -0.1276855 -0.902832
vn -0.3190918 -0.3552246 -0.878418
vn 0.5756836 0.5932617 -0.5629883
vn 0.1672363 0.6259766 -0.7617188
vn -0.2980957 0.6611328 -0.6884766
vn -0.4111328 -0.1276855 -0.902832
vn -0.9379883 -0.2941895 -0.1844482
vn -0.3190918 -0.3552246 -0.878418
vn -0.9643555 -0.0838623 -0.2502441
vn -0.7133789 -0.1455078 0.6855469
vn -0.8603516 -0.2380371 0.4504395
vn -0.9643555 -0.0838623 -0.2502441
vn -0.9379883 -0.2941895 -0.1844482
vn -0.7275391 0.6865234 -0.002437592
vn -0.2980957 0.6611328 -0.6884766
vn -0.4111328 -0.1276855 -0.902832
vn -0.5244141 0.6186523 0.5849609

vt 0.1712646 0.5234375
vt 0.354248 0.5258789
vt 0.2875977 0.2844238
vt 0.5615234 0.3405762
vt 0.04238892 0.3908691
vt 0.0005002022 0.1524658
vt 0.550293 0.1448975
vt 0.3186035 0.02272034
vt 0.1564941 0.0005002022
vt 0.8891602 0.008934021
vt 0.8212891 0.1673584
vt 0.9946289 0.1152954
vt 0.9897461 -0.04147339
vt 0.9946289 0.3063965
vt 0.84375 0.3449707
vt 0.6689453 0.005378723
vt 0.6962891 0.1711426
vt 0.6972656 0.3449707
vt 0.5151367 0.3469238
vt 0.5039063 0.4975586
vt 0.6987305 0.5200195
vt 0.6987305 0.3469238
vt 0.8417969 0.3469238
vt 0.9038086 0.4521484
vt 0.6987305 0.6225586
vt 0.5029297 0.644043
vt 0.9038086 0.644043
vt 0.3742676 0.8251953
vt 0.3127441 0.9985352
vt 0.4943848 0.9985352
vt 0.5297852 0.8930664
vt 0.1124878 0.8251953
vt 0.1323242 0.9985352
vt 0.5297852 0.7011719
vt 0.3742676 0.7001953
vt 0.1124878 0.6542969
vt 0.1124878 0.8251953
vt 0.05908203 0.9985352
vt 0.1459961 0.9907227
vt 0.0005002022 0.8251953
vt 0.9326172 0.7548828
vt 0.8208008 0.6494141
vt 0.5908203 0.8227539
vt 0.6240234 0.6494141
vt 0.6694336 0.9995117
vt 0.4980469 0.9936523
vt 0.4748535 0.8369141
vt 0.9267578 0.9750977

g Rock_LOD1_11628_79
usemtl Rock_LOD1_11628_79
usemap Rock_LOD1_11628_79
f 1/1/1 3/3/3 2/2/2
f 2/2/2 3/3/3 4/4/4
f 5/5/5 3/3/3 1/1/1
f 3/3/3 5/5/5 6/6/6
f 3/3/3 7/7/7 4/4/4
f 7/7/7 3/3/3 8/8/8
f 6/6/6 9/9/9 3/3/3
f 3/3/3 9/9/9 8/8/8
f 10/10/10 12/12/12 11/11/11
f 12/12/12 10/10/10 13/13/13
f 14/14/14 11/11/11 12/12/12
f 11/11/11 14/14/14 15/15/15
f 11/11/11 16/16/16 10/10/10
f 16/16/16 11/11/11 17/17/17
f 17/17/17 11/11/11 18/18/18
f 18/18/18 11/11/11 15/15/15
f 19/19/19 21/21/21 20/20/20
f 21/21/21 19/19/19 22/22/22
f 21/21/21 22/22/22 23/23/23
f 21/21/21 23/23/23 24/24/24
f 25/25/25 20/20/20 21/21/21
f 20/20/20 25/25/25 26/26/26
f 21/21/21 27/27/27 25/25/25
f 27/27/27 21/21/21 24/24/24
f 28/28/28 30/30/30 29/29/29
f 30/30/30 28/28/28 31/31/31
f 29/29/29 32/32/32 28/28/28
f 32/32/32 29/29/29 33/33/33
f 28/28/28 34/34/34 31/31/31
f 34/34/34 28/28/28 35/35/35
f 28/28/28 32/32/32 35/35/35
f 36/36/36 35/35/35 32/32/32
f 37/37/37 39/39/39 38/38/38
f 38/38/38 40/40/40 37/37/37
f 41/41/41 43/43/43 42/42/42
f 42/42/42 43/43/43 44/44/44
f 41/41/41 45/45/45 43/43/43
f 45/45/45 46/46/46 43/43/43
f 43/43/43 46/46/46 47/47/47
f 45/45/45 41/41/41 48/48/48
