#Rock_LOD1_13345_104.obj

v -1.771484 17.07491 35.22155
v -21.37478 20.28563 26.00098
v -1.771529 21.50532 3.799659
v -33.77345 23.19557 -4.414416
v 18.79707 16.94421 27.81483
v 35.60519 14.37723 4.654652
v -22.46303 22.48663 -24.67256
v 8.50581 17.0749 -25.63984
v 26.89884 16.94421 -19.59379
v -20.95423 -5.765669 26.70194
v -2.221333 2.271653 33.54866
v -8.370632 -18.21585 32.14035
v -22.50112 -18.21583 13.51468
v 14.23712 -18.21585 22.32954
v 18.79717 -0.4099073 27.68355
v -21.37478 20.28563 26.00098
v -1.771484 17.07491 35.22155
v 18.79707 16.94421 27.81483
v 14.23712 -18.21585 22.32954
v 18.79717 -0.4099073 27.68355
v 35.60507 2.271618 4.654611
v 35.60521 -18.21584 4.654646
v 22.71687 -18.21586 -12.23232
v 26.89874 -5.777103 -19.59387
v 35.60519 14.37723 4.654652
v 18.79707 16.94421 27.81483
v 26.89884 16.94421 -19.59379
v 8.505704 2.271624 -25.63984
v 1.213592 -18.21584 -14.09583
v 22.71687 -18.21586 -12.23232
v 26.89874 -5.777103 -19.59387
v -22.463 2.271661 -24.6725
v -20.12057 -18.21584 -20.72422
v 26.89884 16.94421 -19.59379
v 8.50581 17.0749 -25.63984
v -22.46303 22.48663 -24.67256
v -22.463 2.271661 -24.6725
v -28.77565 -18.21584 -9.803591
v -20.12057 -18.21584 -20.72422
v -35.7066 2.27167 -13.69552
v -20.95423 -5.765669 26.70194
v -22.50112 -18.21583 13.51468
v -35.7066 2.27167 -13.69552
v -28.77565 -18.21584 -9.803591
v -33.77345 23.19557 -4.414416
v -22.46303 22.48663 -24.67256
v -22.463 2.271661 -24.6725
v -21.37478 20.28563 26.00098

vn 0.008468628 0.8510742 0.5249023
vn -0.2329102 0.9130859 0.3342285
vn 0.09118652 0.9956055 0.03045654
vn -0.269043 0.9628906 -0.02406311
vn 0.2531738 0.8706055 0.421875
vn 0.4802246 0.8671875 0.131958
vn -0.03866577 0.9204102 -0.3886719
vn 0.1759033 0.8896484 -0.4208984
vn 0.3688965 0.8793945 -0.3010254
vn -0.6865234 -0.3422852 0.6416016
vn -0.1385498 -0.3149414 0.9389648
vn -0.255127 -0.5493164 0.7958984
vn -0.7583008 -0.5424805 0.3618164
vn 0.2868652 -0.5361328 0.7939453
vn 0.3547363 -0.3569336 0.8642578
vn -0.2329102 0.9130859 0.3342285
vn 0.008468628 0.8510742 0.5249023
vn 0.2531738 0.8706055 0.421875
vn 0.2868652 -0.5361328 0.7939453
vn 0.3547363 -0.3569336 0.8642578
vn 0.9008789 -0.3459473 0.2617188
vn 0.7421875 -0.6337891 0.2178955
vn 0.3327637 -0.7768555 -0.534668
vn 0.4765625 -0.5800781 -0.6606445
vn 0.4802246 0.8671875 0.131958
vn 0.2531738 0.8706055 0.421875
vn 0.3688965 0.8793945 -0.3010254
vn 0.1552734 -0.4343262 -0.887207
vn 0.06726074 -0.7529297 -0.6542969
vn 0.3327637 -0.7768555 -0.534668
vn 0.4765625 -0.5800781 -0.6606445
vn -0.2421875 -0.2802734 -0.9287109
vn -0.1641846 -0.6674805 -0.7265625
vn 0.3688965 0.8793945 -0.3010254
vn 0.1759033 0.8896484 -0.4208984
vn -0.03866577 0.9204102 -0.3886719
vn -0.2421875 -0.2802734 -0.9287109
vn -0.7231445 -0.6376953 -0.2648926
vn -0.1641846 -0.6674805 -0.7265625
vn -0.894043 -0.1883545 -0.4067383
vn -0.6865234 -0.3422852 0.6416016
vn -0.7583008 -0.5424805 0.3618164
vn -0.894043 -0.1883545 -0.4067383
vn -0.7231445 -0.6376953 -0.2648926
vn -0.269043 0.9628906 -0.02406311
vn -0.03866577 0.9204102 -0.3886719
vn -0.2421875 -0.2802734 -0.9287109
vn -0.2329102 0.9130859 0.3342285

vt 0.1712646 0.5234375
vt 0.354248 0.5258789
vt 0.2875977 0.2844238
vt 0.5615234 0.3405762
vt 0.04238892 0.3908691
vt 0.0005002022 0.1524658
vt 0.550293 0.1448975
vt 0.3186035 0.02272034
vt 0.1564941 0.0005002022
vt 0.8891602 0.008934021
vt 0.8212891 0.1673584
vt 0.9946289 0.1152954
vt 0.9897461 -0.04147339
vt 0.9946289 0.3063965
vt 0.84375 0.3449707
vt 0.6689453 0.005378723
vt 0.6962891 0.1711426
vt 0.6972656 0.3449707
vt 0.5151367 0.3469238
vt 0.5039063 0.4975586
vt 0.6987305 0.5200195
vt 0.6987305 0.3469238
vt 0.8417969 0.3469238
vt 0.9038086 0.4521484
vt 0.6987305 0.6225586
vt 0.5029297 0.644043
vt 0.9038086 0.644043
vt 0.3742676 0.8251953
vt 0.3127441 0.9985352
vt 0.4943848 0.9985352
vt 0.5297852 0.8930664
vt 0.1124878 0.8251953
vt 0.1323242 0.9985352
vt 0.5297852 0.7011719
vt 0.3742676 0.7001953
vt 0.1124878 0.6542969
vt 0.1124878 0.8251953
vt 0.05908203 0.9985352
vt 0.1459961 0.9907227
vt 0.0005002022 0.8251953
vt 0.9326172 0.7548828
vt 0.8208008 0.6494141
vt 0.5908203 0.8227539
vt 0.6240234 0.6494141
vt 0.6694336 0.9995117
vt 0.4980469 0.9936523
vt 0.4748535 0.8369141
vt 0.9267578 0.9750977

g Rock_LOD1_13345_104
usemtl Rock_LOD1_13345_104
usemap Rock_LOD1_13345_104
f 1/1/1 3/3/3 2/2/2
f 2/2/2 3/3/3 4/4/4
f 5/5/5 3/3/3 1/1/1
f 3/3/3 5/5/5 6/6/6
f 3/3/3 7/7/7 4/4/4
f 7/7/7 3/3/3 8/8/8
f 6/6/6 9/9/9 3/3/3
f 3/3/3 9/9/9 8/8/8
f 10/10/10 12/12/12 11/11/11
f 12/12/12 10/10/10 13/13/13
f 14/14/14 11/11/11 12/12/12
f 11/11/11 14/14/14 15/15/15
f 11/11/11 16/16/16 10/10/10
f 16/16/16 11/11/11 17/17/17
f 17/17/17 11/11/11 18/18/18
f 18/18/18 11/11/11 15/15/15
f 19/19/19 21/21/21 20/20/20
f 21/21/21 19/19/19 22/22/22
f 21/21/21 22/22/22 23/23/23
f 21/21/21 23/23/23 24/24/24
f 25/25/25 20/20/20 21/21/21
f 20/20/20 25/25/25 26/26/26
f 21/21/21 27/27/27 25/25/25
f 27/27/27 21/21/21 24/24/24
f 28/28/28 30/30/30 29/29/29
f 30/30/30 28/28/28 31/31/31
f 29/29/29 32/32/32 28/28/28
f 32/32/32 29/29/29 33/33/33
f 28/28/28 34/34/34 31/31/31
f 34/34/34 28/28/28 35/35/35
f 28/28/28 32/32/32 35/35/35
f 36/36/36 35/35/35 32/32/32
f 37/37/37 39/39/39 38/38/38
f 38/38/38 40/40/40 37/37/37
f 41/41/41 43/43/43 42/42/42
f 42/42/42 43/43/43 44/44/44
f 41/41/41 45/45/45 43/43/43
f 45/45/45 46/46/46 43/43/43
f 43/43/43 46/46/46 47/47/47
f 45/45/45 41/41/41 48/48/48
