#Rock_LOD1_11572_107.obj

v -1.771615 17.07489 35.22149
v -21.37471 20.28564 26.00103
v -1.771555 21.50532 3.799769
v -33.77352 23.19555 -4.414428
v 18.79714 16.94423 27.81483
v 35.6052 14.37725 4.654692
v -22.46303 22.48663 -24.67247
v 8.505841 17.07491 -25.63985
v 26.89873 16.94419 -19.59386
v -20.95405 -5.765637 26.70198
v -2.221335 2.271659 33.54878
v -8.370458 -18.21581 32.14038
v -22.50106 -18.21582 13.51467
v 14.23728 -18.21581 22.32957
v 18.79702 -0.4099271 27.6835
v -21.37471 20.28564 26.00103
v -1.771615 17.07489 35.22149
v 18.79714 16.94423 27.81483
v 14.23728 -18.21581 22.32957
v 18.79702 -0.4099271 27.6835
v 35.60514 2.271645 4.654707
v 35.60518 -18.21583 4.654681
v 22.71691 -18.21584 -12.23225
v 26.89887 -5.777071 -19.59379
v 35.6052 14.37725 4.654692
v 18.79714 16.94423 27.81483
v 26.89873 16.94419 -19.59386
v 8.505714 2.271627 -25.63992
v 1.213503 -18.21585 -14.09585
v 22.71691 -18.21584 -12.23225
v 26.89887 -5.777071 -19.59379
v -22.4631 2.271636 -24.67248
v -20.12055 -18.21584 -20.72424
v 26.89873 16.94419 -19.59386
v 8.505841 17.07491 -25.63985
v -22.46303 22.48663 -24.67247
v -22.4631 2.271636 -24.67248
v -28.77554 -18.21582 -9.803505
v -20.12055 -18.21584 -20.72424
v -35.70663 2.271654 -13.69548
v -20.95405 -5.765637 26.70198
v -22.50106 -18.21582 13.51467
v -35.70663 2.271654 -13.69548
v -28.77554 -18.21582 -9.803505
v -33.77352 23.19555 -4.414428
v -22.46303 22.48663 -24.67247
v -22.4631 2.271636 -24.67248
v -21.37471 20.28564 26.00103

vn 0.3850098 0.8510742 0.3566895
vn 0.08044434 0.9130859 0.3994141
vn 0.08508301 0.9956055 -0.04483032
vn -0.2033691 0.9628906 0.1777344
vn 0.4797363 0.8706055 0.1087646
vn 0.4272461 0.8671875 -0.2556152
vn -0.3076172 0.9204102 -0.2408447
vn -0.1824951 0.8896484 -0.4182129
vn 0.03759766 0.8793945 -0.4746094
vn -0.0110321 -0.3422852 0.9394531
vn 0.5825195 -0.3149414 0.7495117
vn 0.3984375 -0.5493164 0.734375
vn -0.2629395 -0.5424805 0.7978516
vn 0.7719727 -0.5361328 0.3415527
vn 0.8696289 -0.3569336 0.3410645
vn 0.08044434 0.9130859 0.3994141
vn 0.3850098 0.8510742 0.3566895
vn 0.4797363 0.8706055 0.1087646
vn 0.7719727 -0.5361328 0.3415527
vn 0.8696289 -0.3569336 0.3410645
vn 0.8120117 -0.3459473 -0.4699707
vn 0.6704102 -0.6337891 -0.385498
vn -0.1561279 -0.7768555 -0.6098633
vn -0.1478271 -0.5800781 -0.8007813
vn 0.4272461 0.8671875 -0.2556152
vn 0.4797363 0.8706055 0.1087646
vn 0.03759766 0.8793945 -0.4746094
vn -0.5336914 -0.4343262 -0.7255859
vn -0.4262695 -0.7529297 -0.5009766
vn -0.1561279 -0.7768555 -0.6098633
vn -0.1478271 -0.5800781 -0.8007813
vn -0.8383789 -0.2802734 -0.4672852
vn -0.6381836 -0.6674805 -0.3835449
vn 0.03759766 0.8793945 -0.4746094
vn -0.1824951 0.8896484 -0.4182129
vn -0.3076172 0.9204102 -0.2408447
vn -0.8383789 -0.2802734 -0.4672852
vn -0.6914063 -0.6376953 0.3393555
vn -0.6381836 -0.6674805 -0.3835449
vn -0.9121094 -0.1883545 0.3647461
vn -0.0110321 -0.3422852 0.9394531
vn -0.2629395 -0.5424805 0.7978516
vn -0.9121094 -0.1883545 0.3647461
vn -0.6914063 -0.6376953 0.3393555
vn -0.2033691 0.9628906 0.1777344
vn -0.3076172 0.9204102 -0.2408447
vn -0.8383789 -0.2802734 -0.4672852
vn 0.08044434 0.9130859 0.3994141

vt 0.1712646 0.5234375
vt 0.354248 0.5258789
vt 0.2875977 0.2844238
vt 0.5615234 0.3405762
vt 0.04238892 0.3908691
vt 0.0005002022 0.1524658
vt 0.550293 0.1448975
vt 0.3186035 0.02272034
vt 0.1564941 0.0005002022
vt 0.8891602 0.008934021
vt 0.8212891 0.1673584
vt 0.9946289 0.1152954
vt 0.9897461 -0.04147339
vt 0.9946289 0.3063965
vt 0.84375 0.3449707
vt 0.6689453 0.005378723
vt 0.6962891 0.1711426
vt 0.6972656 0.3449707
vt 0.5151367 0.3469238
vt 0.5039063 0.4975586
vt 0.6987305 0.5200195
vt 0.6987305 0.3469238
vt 0.8417969 0.3469238
vt 0.9038086 0.4521484
vt 0.6987305 0.6225586
vt 0.5029297 0.644043
vt 0.9038086 0.644043
vt 0.3742676 0.8251953
vt 0.3127441 0.9985352
vt 0.4943848 0.9985352
vt 0.5297852 0.8930664
vt 0.1124878 0.8251953
vt 0.1323242 0.9985352
vt 0.5297852 0.7011719
vt 0.3742676 0.7001953
vt 0.1124878 0.6542969
vt 0.1124878 0.8251953
vt 0.05908203 0.9985352
vt 0.1459961 0.9907227
vt 0.0005002022 0.8251953
vt 0.9326172 0.7548828
vt 0.8208008 0.6494141
vt 0.5908203 0.8227539
vt 0.6240234 0.6494141
vt 0.6694336 0.9995117
vt 0.4980469 0.9936523
vt 0.4748535 0.8369141
vt 0.9267578 0.9750977

g Rock_LOD1_11572_107
usemtl Rock_LOD1_11572_107
usemap Rock_LOD1_11572_107
f 1/1/1 3/3/3 2/2/2
f 2/2/2 3/3/3 4/4/4
f 5/5/5 3/3/3 1/1/1
f 3/3/3 5/5/5 6/6/6
f 3/3/3 7/7/7 4/4/4
f 7/7/7 3/3/3 8/8/8
f 6/6/6 9/9/9 3/3/3
f 3/3/3 9/9/9 8/8/8
f 10/10/10 12/12/12 11/11/11
f 12/12/12 10/10/10 13/13/13
f 14/14/14 11/11/11 12/12/12
f 11/11/11 14/14/14 15/15/15
f 11/11/11 16/16/16 10/10/10
f 16/16/16 11/11/11 17/17/17
f 17/17/17 11/11/11 18/18/18
f 18/18/18 11/11/11 15/15/15
f 19/19/19 21/21/21 20/20/20
f 21/21/21 19/19/19 22/22/22
f 21/21/21 22/22/22 23/23/23
f 21/21/21 23/23/23 24/24/24
f 25/25/25 20/20/20 21/21/21
f 20/20/20 25/25/25 26/26/26
f 21/21/21 27/27/27 25/25/25
f 27/27/27 21/21/21 24/24/24
f 28/28/28 30/30/30 29/29/29
f 30/30/30 28/28/28 31/31/31
f 29/29/29 32/32/32 28/28/28
f 32/32/32 29/29/29 33/33/33
f 28/28/28 34/34/34 31/31/31
f 34/34/34 28/28/28 35/35/35
f 28/28/28 32/32/32 35/35/35
f 36/36/36 35/35/35 32/32/32
f 37/37/37 39/39/39 38/38/38
f 38/38/38 40/40/40 37/37/37
f 41/41/41 43/43/43 42/42/42
f 42/42/42 43/43/43 44/44/44
f 41/41/41 45/45/45 43/43/43
f 45/45/45 46/46/46 43/43/43
f 43/43/43 46/46/46 47/47/47
f 45/45/45 41/41/41 48/48/48
