#Rock_LOD1_14804_119.obj

v -1.77152 17.07491 35.22154
v -21.37474 20.28562 26.00099
v -1.771527 21.50532 3.799673
v -33.77345 23.19555 -4.414468
v 18.79712 16.94423 27.8148
v 35.60516 14.37724 4.654612
v -22.46302 22.48663 -24.67252
v 8.505814 17.0749 -25.63991
v 26.89885 16.94423 -19.59383
v -20.95411 -5.765656 26.70191
v -2.221322 2.271652 33.54872
v -8.370497 -18.21583 32.14027
v -22.50109 -18.21583 13.51465
v 14.23724 -18.21583 22.32949
v 18.79712 -0.4099109 27.68353
v -21.37474 20.28562 26.00099
v -1.77152 17.07491 35.22154
v 18.79712 16.94423 27.8148
v 14.23724 -18.21583 22.32949
v 18.79712 -0.4099109 27.68353
v 35.60516 2.271652 4.654612
v 35.60516 -18.21583 4.654612
v 22.71694 -18.21583 -12.23236
v 26.89885 -5.77707 -19.59383
v 35.60516 14.37724 4.654612
v 18.79712 16.94423 27.8148
v 26.89885 16.94423 -19.59383
v 8.505814 2.27165 -25.63991
v 1.213559 -18.21583 -14.09583
v 22.71694 -18.21583 -12.23236
v 26.89885 -5.77707 -19.59383
v -22.46302 2.27165 -24.67252
v -20.12053 -18.21583 -20.72421
v 26.89885 16.94423 -19.59383
v 8.505814 17.0749 -25.63991
v -22.46302 22.48663 -24.67252
v -22.46302 2.27165 -24.67252
v -28.77556 -18.21583 -9.803601
v -20.12053 -18.21583 -20.72421
v -35.70663 2.27165 -13.69553
v -20.95411 -5.765656 26.70191
v -22.50109 -18.21583 13.51465
v -35.70663 2.27165 -13.69553
v -28.77556 -18.21583 -9.803601
v -33.77345 23.19555 -4.414468
v -22.46302 22.48663 -24.67252
v -22.46302 2.27165 -24.67252
v -21.37474 20.28562 26.00099

vn 0.6772461 0.5654297 0.4707031
vn 0.154541 0.6186523 0.7705078
vn 0.08685303 0.9936523 -0.06945801
vn -0.4375 0.6865234 0.5810547
vn 0.8022461 0.5961914 -0.0289917
vn 0.5795898 0.5498047 -0.6015625
vn -0.7299805 0.6611328 -0.1737061
vn -0.5097656 0.6259766 -0.590332
vn -0.1060181 0.5932617 -0.7978516
vn 0.121521 -0.1455078 0.9819336
vn 0.7783203 -0.1318359 0.6137695
vn 0.6386719 -0.2595215 0.7241211
vn -0.1547852 -0.2380371 0.9589844
vn 0.9736328 -0.22229 0.0546875
vn 0.9912109 -0.1303711 0.02218628
vn 0.154541 0.6186523 0.7705078
vn 0.6772461 0.5654297 0.4707031
vn 0.8022461 0.5961914 -0.0289917
vn 0.9736328 -0.22229 0.0546875
vn 0.9912109 -0.1303711 0.02218628
vn 0.6972656 -0.09869385 -0.7099609
vn 0.6831055 -0.2312012 -0.6928711
vn -0.2756348 -0.4133301 -0.8681641
vn -0.2543945 -0.2493896 -0.9345703
vn 0.5795898 0.5498047 -0.6015625
vn 0.8022461 0.5961914 -0.0289917
vn -0.1060181 0.5932617 -0.7978516
vn -0.7094727 -0.1954346 -0.6767578
vn -0.6772461 -0.4296875 -0.597168
vn -0.2756348 -0.4133301 -0.8681641
vn -0.2543945 -0.2493896 -0.9345703
vn -0.96875 -0.1276855 -0.2115479
vn -0.8945313 -0.3552246 -0.270752
vn -0.1060181 0.5932617 -0.7978516
vn -0.5097656 0.6259766 -0.590332
vn -0.7299805 0.6611328 -0.1737061
vn -0.96875 -0.1276855 -0.2115479
vn -0.7094727 -0.2941895 0.640625
vn -0.8945313 -0.3552246 -0.270752
vn -0.7783203 -0.0838623 0.6225586
vn 0.121521 -0.1455078 0.9819336
vn -0.1547852 -0.2380371 0.9589844
vn -0.7783203 -0.0838623 0.6225586
vn -0.7094727 -0.2941895 0.640625
vn -0.4375 0.6865234 0.5810547
vn -0.7299805 0.6611328 -0.1737061
vn -0.96875 -0.1276855 -0.2115479
vn 0.154541 0.6186523 0.7705078

vt 0.1712646 0.5234375
vt 0.354248 0.5258789
vt 0.2875977 0.2844238
vt 0.5615234 0.3405762
vt 0.04238892 0.3908691
vt 0.0005002022 0.1524658
vt 0.550293 0.1448975
vt 0.3186035 0.02272034
vt 0.1564941 0.0005002022
vt 0.8891602 0.008934021
vt 0.8212891 0.1673584
vt 0.9946289 0.1152954
vt 0.9897461 -0.04147339
vt 0.9946289 0.3063965
vt 0.84375 0.3449707
vt 0.6689453 0.005378723
vt 0.6962891 0.1711426
vt 0.6972656 0.3449707
vt 0.5151367 0.3469238
vt 0.5039063 0.4975586
vt 0.6987305 0.5200195
vt 0.6987305 0.3469238
vt 0.8417969 0.3469238
vt 0.9038086 0.4521484
vt 0.6987305 0.6225586
vt 0.5029297 0.644043
vt 0.9038086 0.644043
vt 0.3742676 0.8251953
vt 0.3127441 0.9985352
vt 0.4943848 0.9985352
vt 0.5297852 0.8930664
vt 0.1124878 0.8251953
vt 0.1323242 0.9985352
vt 0.5297852 0.7011719
vt 0.3742676 0.7001953
vt 0.1124878 0.6542969
vt 0.1124878 0.8251953
vt 0.05908203 0.9985352
vt 0.1459961 0.9907227
vt 0.0005002022 0.8251953
vt 0.9326172 0.7548828
vt 0.8208008 0.6494141
vt 0.5908203 0.8227539
vt 0.6240234 0.6494141
vt 0.6694336 0.9995117
vt 0.4980469 0.9936523
vt 0.4748535 0.8369141
vt 0.9267578 0.9750977

g Rock_LOD1_14804_119
usemtl Rock_LOD1_14804_119
usemap Rock_LOD1_14804_119
f 1/1/1 3/3/3 2/2/2
f 2/2/2 3/3/3 4/4/4
f 5/5/5 3/3/3 1/1/1
f 3/3/3 5/5/5 6/6/6
f 3/3/3 7/7/7 4/4/4
f 7/7/7 3/3/3 8/8/8
f 6/6/6 9/9/9 3/3/3
f 3/3/3 9/9/9 8/8/8
f 10/10/10 12/12/12 11/11/11
f 12/12/12 10/10/10 13/13/13
f 14/14/14 11/11/11 12/12/12
f 11/11/11 14/14/14 15/15/15
f 11/11/11 16/16/16 10/10/10
f 16/16/16 11/11/11 17/17/17
f 17/17/17 11/11/11 18/18/18
f 18/18/18 11/11/11 15/15/15
f 19/19/19 21/21/21 20/20/20
f 21/21/21 19/19/19 22/22/22
f 21/21/21 22/22/22 23/23/23
f 21/21/21 23/23/23 24/24/24
f 25/25/25 20/20/20 21/21/21
f 20/20/20 25/25/25 26/26/26
f 21/21/21 27/27/27 25/25/25
f 27/27/27 21/21/21 24/24/24
f 28/28/28 30/30/30 29/29/29
f 30/30/30 28/28/28 31/31/31
f 29/29/29 32/32/32 28/28/28
f 32/32/32 29/29/29 33/33/33
f 28/28/28 34/34/34 31/31/31
f 34/34/34 28/28/28 35/35/35
f 28/28/28 32/32/32 35/35/35
f 36/36/36 35/35/35 32/32/32
f 37/37/37 39/39/39 38/38/38
f 38/38/38 40/40/40 37/37/37
f 41/41/41 43/43/43 42/42/42
f 42/42/42 43/43/43 44/44/44
f 41/41/41 45/45/45 43/43/43
f 45/45/45 46/46/46 43/43/43
f 43/43/43 46/46/46 47/47/47
f 45/45/45 41/41/41 48/48/48
