#Rock_LOD1_91682_8.obj

v -1.771487 17.07491 35.22153
v -21.37477 20.28562 26.00109
v -1.771476 21.50532 3.799849
v -33.77349 23.19555 -4.414328
v 18.79714 16.94422 27.81473
v 35.60516 14.37724 4.654566
v -22.463 22.48663 -24.67253
v 8.505875 17.07491 -25.63995
v 26.89889 16.94422 -19.59395
v -20.95406 -5.76565 26.70198
v -2.221237 2.271655 33.54875
v -8.370464 -18.21583 32.14047
v -22.50113 -18.21584 13.51466
v 14.23729 -18.21583 22.32957
v 18.7971 -0.4099134 27.68357
v -21.37477 20.28562 26.00109
v -1.771487 17.07491 35.22153
v 18.79714 16.94422 27.81473
v 14.23729 -18.21583 22.32957
v 18.7971 -0.4099134 27.68357
v 35.60516 2.271655 4.654566
v 35.60516 -18.21584 4.654566
v 22.71696 -18.21584 -12.23237
v 26.89889 -5.777065 -19.59395
v 35.60516 14.37724 4.654566
v 18.79714 16.94422 27.81473
v 26.89889 16.94422 -19.59395
v 8.505875 2.271655 -25.63995
v 1.213514 -18.21584 -14.09566
v 22.71696 -18.21584 -12.23237
v 26.89889 -5.777065 -19.59395
v -22.463 2.271645 -24.67253
v -20.12052 -18.21584 -20.72419
v 26.89889 16.94422 -19.59395
v 8.505875 17.07491 -25.63995
v -22.463 22.48663 -24.67253
v -22.463 2.271645 -24.67253
v -28.77551 -18.21584 -9.803569
v -20.12052 -18.21584 -20.72419
v -35.70657 2.271655 -13.69548
v -20.95406 -5.76565 26.70198
v -22.50113 -18.21584 13.51466
v -35.70657 2.271655 -13.69548
v -28.77551 -18.21584 -9.803569
v -33.77349 23.19555 -4.414328
v -22.463 22.48663 -24.67253
v -22.463 2.271645 -24.67253
v -21.37477 20.28562 26.00109

vn 0.1716309 0.5654297 0.8066406
vn -0.4145508 0.6186523 0.6674805
vn 0.1108398 0.9936523 0.008773804
vn -0.7167969 0.6865234 0.1242065
vn 0.6049805 0.5961914 0.527832
vn 0.8344727 0.5498047 -0.04232788
vn -0.4133301 0.6611328 -0.6259766
vn 0.03207397 0.6259766 -0.7792969
vn 0.46875 0.5932617 -0.6542969
vn -0.5830078 -0.1455078 0.7993164
vn 0.1474609 -0.1318359 0.9804688
vn -0.02981567 -0.2595215 0.965332
vn -0.769043 -0.2380371 0.5932617
vn 0.6723633 -0.22229 0.7060547
vn 0.7075195 -0.1303711 0.6943359
vn -0.4145508 0.6186523 0.6674805
vn 0.1716309 0.5654297 0.8066406
vn 0.6049805 0.5961914 0.527832
vn 0.6723633 -0.22229 0.7060547
vn 0.7075195 -0.1303711 0.6943359
vn 0.9941406 -0.09869385 -0.04055786
vn 0.972168 -0.2312012 -0.03793335
vn 0.3930664 -0.4133301 -0.8212891
vn 0.4538574 -0.2493896 -0.8554688
vn 0.8344727 0.5498047 -0.04232788
vn 0.6049805 0.5961914 0.527832
vn 0.46875 0.5932617 -0.6542969
vn -0.05426025 -0.1954346 -0.9790039
vn -0.08538818 -0.4296875 -0.8989258
vn 0.3930664 -0.4133301 -0.8212891
vn 0.4538574 -0.2493896 -0.8554688
vn -0.5620117 -0.1276855 -0.8173828
vn -0.4672852 -0.3552246 -0.8095703
vn 0.46875 0.5932617 -0.6542969
vn 0.03207397 0.6259766 -0.7792969
vn -0.4133301 0.6611328 -0.6259766
vn -0.5620117 -0.1276855 -0.8173828
vn -0.9555664 -0.2941895 -0.0184021
vn -0.4672852 -0.3552246 -0.8095703
vn -0.9931641 -0.0838623 -0.07861328
vn -0.5830078 -0.1455078 0.7993164
vn -0.769043 -0.2380371 0.5932617
vn -0.9931641 -0.0838623 -0.07861328
vn -0.9555664 -0.2941895 -0.0184021
vn -0.7167969 0.6865234 0.1242065
vn -0.4133301 0.6611328 -0.6259766
vn -0.5620117 -0.1276855 -0.8173828
vn -0.4145508 0.6186523 0.6674805

vt 0.1712646 0.5234375
vt 0.354248 0.5258789
vt 0.2875977 0.2844238
vt 0.5615234 0.3405762
vt 0.04238892 0.3908691
vt 0.0005002022 0.1524658
vt 0.550293 0.1448975
vt 0.3186035 0.02272034
vt 0.1564941 0.0005002022
vt 0.8891602 0.008934021
vt 0.8212891 0.1673584
vt 0.9946289 0.1152954
vt 0.9897461 -0.04147339
vt 0.9946289 0.3063965
vt 0.84375 0.3449707
vt 0.6689453 0.005378723
vt 0.6962891 0.1711426
vt 0.6972656 0.3449707
vt 0.5151367 0.3469238
vt 0.5039063 0.4975586
vt 0.6987305 0.5200195
vt 0.6987305 0.3469238
vt 0.8417969 0.3469238
vt 0.9038086 0.4521484
vt 0.6987305 0.6225586
vt 0.5029297 0.644043
vt 0.9038086 0.644043
vt 0.3742676 0.8251953
vt 0.3127441 0.9985352
vt 0.4943848 0.9985352
vt 0.5297852 0.8930664
vt 0.1124878 0.8251953
vt 0.1323242 0.9985352
vt 0.5297852 0.7011719
vt 0.3742676 0.7001953
vt 0.1124878 0.6542969
vt 0.1124878 0.8251953
vt 0.05908203 0.9985352
vt 0.1459961 0.9907227
vt 0.0005002022 0.8251953
vt 0.9326172 0.7548828
vt 0.8208008 0.6494141
vt 0.5908203 0.8227539
vt 0.6240234 0.6494141
vt 0.6694336 0.9995117
vt 0.4980469 0.9936523
vt 0.4748535 0.8369141
vt 0.9267578 0.9750977

g Rock_LOD1_91682_8
usemtl Rock_LOD1_91682_8
usemap Rock_LOD1_91682_8
f 1/1/1 3/3/3 2/2/2
f 2/2/2 3/3/3 4/4/4
f 5/5/5 3/3/3 1/1/1
f 3/3/3 5/5/5 6/6/6
f 3/3/3 7/7/7 4/4/4
f 7/7/7 3/3/3 8/8/8
f 6/6/6 9/9/9 3/3/3
f 3/3/3 9/9/9 8/8/8
f 10/10/10 12/12/12 11/11/11
f 12/12/12 10/10/10 13/13/13
f 14/14/14 11/11/11 12/12/12
f 11/11/11 14/14/14 15/15/15
f 11/11/11 16/16/16 10/10/10
f 16/16/16 11/11/11 17/17/17
f 17/17/17 11/11/11 18/18/18
f 18/18/18 11/11/11 15/15/15
f 19/19/19 21/21/21 20/20/20
f 21/21/21 19/19/19 22/22/22
f 21/21/21 22/22/22 23/23/23
f 21/21/21 23/23/23 24/24/24
f 25/25/25 20/20/20 21/21/21
f 20/20/20 25/25/25 26/26/26
f 21/21/21 27/27/27 25/25/25
f 27/27/27 21/21/21 24/24/24
f 28/28/28 30/30/30 29/29/29
f 30/30/30 28/28/28 31/31/31
f 29/29/29 32/32/32 28/28/28
f 32/32/32 29/29/29 33/33/33
f 28/28/28 34/34/34 31/31/31
f 34/34/34 28/28/28 35/35/35
f 28/28/28 32/32/32 35/35/35
f 36/36/36 35/35/35 32/32/32
f 37/37/37 39/39/39 38/38/38
f 38/38/38 40/40/40 37/37/37
f 41/41/41 43/43/43 42/42/42
f 42/42/42 43/43/43 44/44/44
f 41/41/41 45/45/45 43/43/43
f 45/45/45 46/46/46 43/43/43
f 43/43/43 46/46/46 47/47/47
f 45/45/45 41/41/41 48/48/48
