#Rock_LOD1_12230_105.obj

v -1.771589 17.07492 35.22153
v -21.37477 20.28564 26.00097
v -1.771558 21.50532 3.799736
v -33.77352 23.19556 -4.414467
v 18.79708 16.94424 27.81479
v 35.60515 14.37723 4.654697
v -22.46305 22.48663 -24.67253
v 8.505742 17.0749 -25.63989
v 26.89881 16.94421 -19.5938
v -20.9541 -5.765661 26.70198
v -2.221364 2.271656 33.54876
v -8.370493 -18.21584 32.14036
v -22.5011 -18.21584 13.51469
v 14.23721 -18.21582 22.32954
v 18.79709 -0.4098936 27.68352
v -21.37477 20.28564 26.00097
v -1.771589 17.07492 35.22153
v 18.79708 16.94424 27.81479
v 14.23721 -18.21582 22.32954
v 18.79709 -0.4098936 27.68352
v 35.60511 2.271652 4.654647
v 35.60512 -18.21582 4.654629
v 22.71688 -18.21583 -12.23235
v 26.89883 -5.777093 -19.59376
v 35.60515 14.37723 4.654697
v 18.79708 16.94424 27.81479
v 26.89881 16.94421 -19.5938
v 8.505797 2.27164 -25.63987
v 1.213543 -18.21583 -14.09582
v 22.71688 -18.21583 -12.23235
v 26.89883 -5.777093 -19.59376
v -22.46303 2.271622 -24.67245
v -20.12053 -18.21585 -20.72414
v 26.89881 16.94421 -19.5938
v 8.505742 17.0749 -25.63989
v -22.46305 22.48663 -24.67253
v -22.46303 2.271622 -24.67245
v -28.7756 -18.21584 -9.803594
v -20.12053 -18.21585 -20.72414
v -35.7067 2.271646 -13.69554
v -20.9541 -5.765661 26.70198
v -22.5011 -18.21584 13.51469
v -35.7067 2.271646 -13.69554
v -28.7756 -18.21584 -9.803594
v -33.77352 23.19556 -4.414467
v -22.46305 22.48663 -24.67253
v -22.46303 2.271622 -24.67245
v -21.37477 20.28564 26.00097

vn 0.3496094 0.9194336 0.1789551
vn 0.06744385 0.9472656 0.3134766
vn -0.07720947 0.9907227 -0.1122437
vn -0.2749023 0.9423828 0.1916504
vn 0.3591309 0.9291992 -0.08685303
vn 0.197876 0.8876953 -0.4152832
vn -0.4960938 0.8515625 -0.1699219
vn -0.4289551 0.8212891 -0.3762207
vn -0.237915 0.8330078 -0.4992676
vn 0.3291016 -0.2587891 0.9082031
vn 0.824707 -0.1750488 0.5380859
vn 0.6806641 -0.4306641 0.5927734
vn 0.07739258 -0.5 0.862793
vn 0.9082031 -0.4057617 0.1013184
vn 0.9741211 -0.2164307 0.06213379
vn 0.06744385 0.9472656 0.3134766
vn 0.3496094 0.9194336 0.1789551
vn 0.3591309 0.9291992 -0.08685303
vn 0.9082031 -0.4057617 0.1013184
vn 0.9741211 -0.2164307 0.06213379
vn 0.6679688 -0.2824707 -0.6884766
vn 0.6025391 -0.5771484 -0.5507813
vn -0.2232666 -0.8398438 -0.494873
vn -0.3027344 -0.6606445 -0.6870117
vn 0.197876 0.8876953 -0.4152832
vn 0.3591309 0.9291992 -0.08685303
vn -0.237915 0.8330078 -0.4992676
vn -0.6635742 -0.5576172 -0.4990234
vn -0.4470215 -0.840332 -0.3068848
vn -0.2232666 -0.8398438 -0.494873
vn -0.3027344 -0.6606445 -0.6870117
vn -0.8920898 -0.4206543 -0.1640625
vn -0.6225586 -0.7714844 -0.1318359
vn -0.237915 0.8330078 -0.4992676
vn -0.4289551 0.8212891 -0.3762207
vn -0.4960938 0.8515625 -0.1699219
vn -0.8920898 -0.4206543 -0.1640625
vn -0.4533691 -0.6865234 0.5683594
vn -0.6225586 -0.7714844 -0.1318359
vn -0.7177734 -0.2670898 0.6430664
vn 0.3291016 -0.2587891 0.9082031
vn 0.07739258 -0.5 0.862793
vn -0.7177734 -0.2670898 0.6430664
vn -0.4533691 -0.6865234 0.5683594
vn -0.2749023 0.9423828 0.1916504
vn -0.4960938 0.8515625 -0.1699219
vn -0.8920898 -0.4206543 -0.1640625
vn 0.06744385 0.9472656 0.3134766

vt 0.1712646 0.5234375
vt 0.354248 0.5258789
vt 0.2875977 0.2844238
vt 0.5615234 0.3405762
vt 0.04238892 0.3908691
vt 0.0005002022 0.1524658
vt 0.550293 0.1448975
vt 0.3186035 0.02272034
vt 0.1564941 0.0005002022
vt 0.8891602 0.008934021
vt 0.8212891 0.1673584
vt 0.9946289 0.1152954
vt 0.9897461 -0.04147339
vt 0.9946289 0.3063965
vt 0.84375 0.3449707
vt 0.6689453 0.005378723
vt 0.6962891 0.1711426
vt 0.6972656 0.3449707
vt 0.5151367 0.3469238
vt 0.5039063 0.4975586
vt 0.6987305 0.5200195
vt 0.6987305 0.3469238
vt 0.8417969 0.3469238
vt 0.9038086 0.4521484
vt 0.6987305 0.6225586
vt 0.5029297 0.644043
vt 0.9038086 0.644043
vt 0.3742676 0.8251953
vt 0.3127441 0.9985352
vt 0.4943848 0.9985352
vt 0.5297852 0.8930664
vt 0.1124878 0.8251953
vt 0.1323242 0.9985352
vt 0.5297852 0.7011719
vt 0.3742676 0.7001953
vt 0.1124878 0.6542969
vt 0.1124878 0.8251953
vt 0.05908203 0.9985352
vt 0.1459961 0.9907227
vt 0.0005002022 0.8251953
vt 0.9326172 0.7548828
vt 0.8208008 0.6494141
vt 0.5908203 0.8227539
vt 0.6240234 0.6494141
vt 0.6694336 0.9995117
vt 0.4980469 0.9936523
vt 0.4748535 0.8369141
vt 0.9267578 0.9750977

g Rock_LOD1_12230_105
usemtl Rock_LOD1_12230_105
usemap Rock_LOD1_12230_105
f 1/1/1 3/3/3 2/2/2
f 2/2/2 3/3/3 4/4/4
f 5/5/5 3/3/3 1/1/1
f 3/3/3 5/5/5 6/6/6
f 3/3/3 7/7/7 4/4/4
f 7/7/7 3/3/3 8/8/8
f 6/6/6 9/9/9 3/3/3
f 3/3/3 9/9/9 8/8/8
f 10/10/10 12/12/12 11/11/11
f 12/12/12 10/10/10 13/13/13
f 14/14/14 11/11/11 12/12/12
f 11/11/11 14/14/14 15/15/15
f 11/11/11 16/16/16 10/10/10
f 16/16/16 11/11/11 17/17/17
f 17/17/17 11/11/11 18/18/18
f 18/18/18 11/11/11 15/15/15
f 19/19/19 21/21/21 20/20/20
f 21/21/21 19/19/19 22/22/22
f 21/21/21 22/22/22 23/23/23
f 21/21/21 23/23/23 24/24/24
f 25/25/25 20/20/20 21/21/21
f 20/20/20 25/25/25 26/26/26
f 21/21/21 27/27/27 25/25/25
f 27/27/27 21/21/21 24/24/24
f 28/28/28 30/30/30 29/29/29
f 30/30/30 28/28/28 31/31/31
f 29/29/29 32/32/32 28/28/28
f 32/32/32 29/29/29 33/33/33
f 28/28/28 34/34/34 31/31/31
f 34/34/34 28/28/28 35/35/35
f 28/28/28 32/32/32 35/35/35
f 36/36/36 35/35/35 32/32/32
f 37/37/37 39/39/39 38/38/38
f 38/38/38 40/40/40 37/37/37
f 41/41/41 43/43/43 42/42/42
f 42/42/42 43/43/43 44/44/44
f 41/41/41 45/45/45 43/43/43
f 45/45/45 46/46/46 43/43/43
f 43/43/43 46/46/46 47/47/47
f 45/45/45 41/41/41 48/48/48
