#Rock_LOD1_12830_119.obj

v -1.771436 17.0749 35.22156
v -21.37465 20.28561 26.00101
v -1.771457 21.50531 3.799699
v -33.77343 23.19554 -4.414495
v 18.79716 16.94422 27.81476
v 35.60522 14.37722 4.654594
v -22.46296 22.48662 -24.67247
v 8.505872 17.07488 -25.63992
v 26.89892 16.9442 -19.59384
v -20.95405 -5.765655 26.70194
v -2.22124 2.271643 33.54874
v -8.370444 -18.21584 32.14027
v -22.50107 -18.21583 13.51464
v 14.23725 -18.21584 22.32947
v 18.79715 -0.4099162 27.68349
v -21.37465 20.28561 26.00101
v -1.771436 17.0749 35.22156
v 18.79716 16.94422 27.81476
v 14.23725 -18.21584 22.32947
v 18.79715 -0.4099162 27.68349
v 35.60519 2.271637 4.6546
v 35.60523 -18.21584 4.654644
v 22.71704 -18.21585 -12.23232
v 26.89887 -5.777085 -19.59386
v 35.60522 14.37722 4.654594
v 18.79716 16.94422 27.81476
v 26.89892 16.9442 -19.59384
v 8.505861 2.271629 -25.63992
v 1.213623 -18.21585 -14.09585
v 22.71704 -18.21585 -12.23232
v 26.89887 -5.777085 -19.59386
v -22.46297 2.271639 -24.67248
v -20.12048 -18.21585 -20.72421
v 26.89892 16.9442 -19.59384
v 8.505872 17.07488 -25.63992
v -22.46296 22.48662 -24.67247
v -22.46297 2.271639 -24.67248
v -28.77553 -18.21584 -9.803603
v -20.12048 -18.21585 -20.72421
v -35.70662 2.271643 -13.69555
v -20.95405 -5.765655 26.70194
v -22.50107 -18.21583 13.51464
v -35.70662 2.271643 -13.69555
v -28.77553 -18.21584 -9.803603
v -33.77343 23.19554 -4.414495
v -22.46296 22.48662 -24.67247
v -22.46297 2.271639 -24.67248
v -21.37465 20.28561 26.00101

vn 0.3754883 0.8188477 0.4343262
vn 0.07397461 0.8554688 0.5126953
vn 0.03051758 0.9960938 0.08569336
vn -0.2325439 0.9160156 0.3271484
vn 0.4440918 0.8769531 0.18396
vn 0.3562012 0.918457 -0.1711426
vn -0.3754883 0.9233398 -0.08209229
vn -0.2670898 0.9243164 -0.2727051
vn -0.05343628 0.9350586 -0.3498535
vn 0.09906006 -0.4641113 0.8803711
vn 0.6689453 -0.3745117 0.6420898
vn 0.4960938 -0.6157227 0.6118164
vn -0.1552734 -0.6591797 0.7358398
vn 0.8276367 -0.5273438 0.1921387
vn 0.9160156 -0.34375 0.2076416
vn 0.07397461 0.8554688 0.5126953
vn 0.3754883 0.8188477 0.4343262
vn 0.4440918 0.8769531 0.18396
vn 0.8276367 -0.5273438 0.1921387
vn 0.9160156 -0.34375 0.2076416
vn 0.777832 -0.2287598 -0.5854492
vn 0.659668 -0.5336914 -0.5288086
vn -0.1767578 -0.6972656 -0.6948242
vn -0.1973877 -0.4765625 -0.8564453
vn 0.3562012 0.918457 -0.1711426
vn 0.4440918 0.8769531 0.18396
vn -0.05343628 0.9350586 -0.3498535
vn -0.5805664 -0.3666992 -0.7270508
vn -0.435791 -0.7050781 -0.5595703
vn -0.1767578 -0.6972656 -0.6948242
vn -0.1973877 -0.4765625 -0.8564453
vn -0.8657227 -0.2678223 -0.4230957
vn -0.6391602 -0.6494141 -0.4123535
vn -0.05343628 0.9350586 -0.3498535
vn -0.2670898 0.9243164 -0.2727051
vn -0.3754883 0.9233398 -0.08209229
vn -0.8657227 -0.2678223 -0.4230957
vn -0.621582 -0.7192383 0.3095703
vn -0.6391602 -0.6494141 -0.4123535
vn -0.8608398 -0.2919922 0.416748
vn 0.09906006 -0.4641113 0.8803711
vn -0.1552734 -0.6591797 0.7358398
vn -0.8608398 -0.2919922 0.416748
vn -0.621582 -0.7192383 0.3095703
vn -0.2325439 0.9160156 0.3271484
vn -0.3754883 0.9233398 -0.08209229
vn -0.8657227 -0.2678223 -0.4230957
vn 0.07397461 0.8554688 0.5126953

vt 0.1712646 0.5234375
vt 0.354248 0.5258789
vt 0.2875977 0.2844238
vt 0.5615234 0.3405762
vt 0.04238892 0.3908691
vt 0.0005002022 0.1524658
vt 0.550293 0.1448975
vt 0.3186035 0.02272034
vt 0.1564941 0.0005002022
vt 0.8891602 0.008934021
vt 0.8212891 0.1673584
vt 0.9946289 0.1152954
vt 0.9897461 -0.04147339
vt 0.9946289 0.3063965
vt 0.84375 0.3449707
vt 0.6689453 0.005378723
vt 0.6962891 0.1711426
vt 0.6972656 0.3449707
vt 0.5151367 0.3469238
vt 0.5039063 0.4975586
vt 0.6987305 0.5200195
vt 0.6987305 0.3469238
vt 0.8417969 0.3469238
vt 0.9038086 0.4521484
vt 0.6987305 0.6225586
vt 0.5029297 0.644043
vt 0.9038086 0.644043
vt 0.3742676 0.8251953
vt 0.3127441 0.9985352
vt 0.4943848 0.9985352
vt 0.5297852 0.8930664
vt 0.1124878 0.8251953
vt 0.1323242 0.9985352
vt 0.5297852 0.7011719
vt 0.3742676 0.7001953
vt 0.1124878 0.6542969
vt 0.1124878 0.8251953
vt 0.05908203 0.9985352
vt 0.1459961 0.9907227
vt 0.0005002022 0.8251953
vt 0.9326172 0.7548828
vt 0.8208008 0.6494141
vt 0.5908203 0.8227539
vt 0.6240234 0.6494141
vt 0.6694336 0.9995117
vt 0.4980469 0.9936523
vt 0.4748535 0.8369141
vt 0.9267578 0.9750977

g Rock_LOD1_12830_119
usemtl Rock_LOD1_12830_119
usemap Rock_LOD1_12830_119
f 1/1/1 3/3/3 2/2/2
f 2/2/2 3/3/3 4/4/4
f 5/5/5 3/3/3 1/1/1
f 3/3/3 5/5/5 6/6/6
f 3/3/3 7/7/7 4/4/4
f 7/7/7 3/3/3 8/8/8
f 6/6/6 9/9/9 3/3/3
f 3/3/3 9/9/9 8/8/8
f 10/10/10 12/12/12 11/11/11
f 12/12/12 10/10/10 13/13/13
f 14/14/14 11/11/11 12/12/12
f 11/11/11 14/14/14 15/15/15
f 11/11/11 16/16/16 10/10/10
f 16/16/16 11/11/11 17/17/17
f 17/17/17 11/11/11 18/18/18
f 18/18/18 11/11/11 15/15/15
f 19/19/19 21/21/21 20/20/20
f 21/21/21 19/19/19 22/22/22
f 21/21/21 22/22/22 23/23/23
f 21/21/21 23/23/23 24/24/24
f 25/25/25 20/20/20 21/21/21
f 20/20/20 25/25/25 26/26/26
f 21/21/21 27/27/27 25/25/25
f 27/27/27 21/21/21 24/24/24
f 28/28/28 30/30/30 29/29/29
f 30/30/30 28/28/28 31/31/31
f 29/29/29 32/32/32 28/28/28
f 32/32/32 29/29/29 33/33/33
f 28/28/28 34/34/34 31/31/31
f 34/34/34 28/28/28 35/35/35
f 28/28/28 32/32/32 35/35/35
f 36/36/36 35/35/35 32/32/32
f 37/37/37 39/39/39 38/38/38
f 38/38/38 40/40/40 37/37/37
f 41/41/41 43/43/43 42/42/42
f 42/42/42 43/43/43 44/44/44
f 41/41/41 45/45/45 43/43/43
f 45/45/45 46/46/46 43/43/43
f 43/43/43 46/46/46 47/47/47
f 45/45/45 41/41/41 48/48/48
