#Rock_LOD1_12049_130.obj

v -1.771552 17.0749 35.22155
v -21.37476 20.28561 26.00101
v -1.771561 21.50531 3.799624
v -33.77358 23.19552 -4.414437
v 18.79706 16.94422 27.81477
v 35.60516 14.37725 4.654533
v -22.46302 22.48662 -24.67257
v 8.505783 17.0749 -25.63991
v 26.89887 16.94423 -19.59383
v -20.95416 -5.765675 26.70188
v -2.221326 2.271647 33.54863
v -8.370496 -18.21584 32.14032
v -22.50104 -18.21583 13.51456
v 14.2373 -18.21582 22.32952
v 18.79709 -0.4099148 27.68354
v -21.37476 20.28561 26.00101
v -1.771552 17.0749 35.22155
v 18.79706 16.94422 27.81477
v 14.2373 -18.21582 22.32952
v 18.79709 -0.4099148 27.68354
v 35.60522 2.271666 4.654629
v 35.60511 -18.21584 4.654585
v 22.71687 -18.21585 -12.23232
v 26.89875 -5.777082 -19.59383
v 35.60516 14.37725 4.654533
v 18.79706 16.94422 27.81477
v 26.89887 16.94423 -19.59383
v 8.505776 2.271641 -25.63996
v 1.213477 -18.21585 -14.09583
v 22.71687 -18.21585 -12.23232
v 26.89875 -5.777082 -19.59383
v -22.46299 2.271646 -24.67257
v -20.12057 -18.21585 -20.72418
v 26.89887 16.94423 -19.59383
v 8.505783 17.0749 -25.63991
v -22.46302 22.48662 -24.67257
v -22.46299 2.271646 -24.67257
v -28.77564 -18.21586 -9.803656
v -20.12057 -18.21585 -20.72418
v -35.70673 2.271623 -13.69557
v -20.95416 -5.765675 26.70188
v -22.50104 -18.21583 13.51456
v -35.70673 2.271623 -13.69557
v -28.77564 -18.21586 -9.803656
v -33.77358 23.19552 -4.414437
v -22.46302 22.48662 -24.67257
v -22.46299 2.271646 -24.67257
v -21.37476 20.28561 26.00101

vn -0.007896423 0.8510742 0.5249023
vn -0.2431641 0.9130859 0.3266602
vn 0.09020996 0.9956055 0.03329468
vn -0.2683105 0.9628906 -0.03244019
vn 0.2398682 0.8706055 0.4294434
vn 0.4758301 0.8671875 0.1468506
vn -0.02653503 0.9204102 -0.3898926
vn 0.1889648 0.8896484 -0.4152832
vn 0.3781738 0.8793945 -0.2893066
vn -0.7060547 -0.3422852 0.6196289
vn -0.1678467 -0.3149414 0.934082
vn -0.2797852 -0.5493164 0.7875977
vn -0.769043 -0.5424805 0.3378906
vn 0.2619629 -0.5361328 0.8022461
vn 0.3276367 -0.3569336 0.875
vn -0.2431641 0.9130859 0.3266602
vn -0.007896423 0.8510742 0.5249023
vn 0.2398682 0.8706055 0.4294434
vn 0.2619629 -0.5361328 0.8022461
vn 0.3276367 -0.3569336 0.875
vn 0.8925781 -0.3459473 0.2895508
vn 0.7348633 -0.6337891 0.2409668
vn 0.3493652 -0.7768555 -0.5239258
vn 0.4968262 -0.5800781 -0.6455078
vn 0.4758301 0.8671875 0.1468506
vn 0.2398682 0.8706055 0.4294434
vn 0.3781738 0.8793945 -0.2893066
vn 0.1828613 -0.4343262 -0.8818359
vn 0.08764648 -0.7529297 -0.6518555
vn 0.3493652 -0.7768555 -0.5239258
vn 0.4968262 -0.5800781 -0.6455078
vn -0.2131348 -0.2802734 -0.9360352
vn -0.1414795 -0.6674805 -0.730957
vn 0.3781738 0.8793945 -0.2893066
vn 0.1889648 0.8896484 -0.4152832
vn -0.02653503 0.9204102 -0.3898926
vn -0.2131348 -0.2802734 -0.9360352
vn -0.7143555 -0.6376953 -0.2873535
vn -0.1414795 -0.6674805 -0.730957
vn -0.8808594 -0.1883545 -0.4343262
vn -0.7060547 -0.3422852 0.6196289
vn -0.769043 -0.5424805 0.3378906
vn -0.8808594 -0.1883545 -0.4343262
vn -0.7143555 -0.6376953 -0.2873535
vn -0.2683105 0.9628906 -0.03244019
vn -0.02653503 0.9204102 -0.3898926
vn -0.2131348 -0.2802734 -0.9360352
vn -0.2431641 0.9130859 0.3266602

vt 0.1712646 0.5234375
vt 0.354248 0.5258789
vt 0.2875977 0.2844238
vt 0.5615234 0.3405762
vt 0.04238892 0.3908691
vt 0.0005002022 0.1524658
vt 0.550293 0.1448975
vt 0.3186035 0.02272034
vt 0.1564941 0.0005002022
vt 0.8891602 0.008934021
vt 0.8212891 0.1673584
vt 0.9946289 0.1152954
vt 0.9897461 -0.04147339
vt 0.9946289 0.3063965
vt 0.84375 0.3449707
vt 0.6689453 0.005378723
vt 0.6962891 0.1711426
vt 0.6972656 0.3449707
vt 0.5151367 0.3469238
vt 0.5039063 0.4975586
vt 0.6987305 0.5200195
vt 0.6987305 0.3469238
vt 0.8417969 0.3469238
vt 0.9038086 0.4521484
vt 0.6987305 0.6225586
vt 0.5029297 0.644043
vt 0.9038086 0.644043
vt 0.3742676 0.8251953
vt 0.3127441 0.9985352
vt 0.4943848 0.9985352
vt 0.5297852 0.8930664
vt 0.1124878 0.8251953
vt 0.1323242 0.9985352
vt 0.5297852 0.7011719
vt 0.3742676 0.7001953
vt 0.1124878 0.6542969
vt 0.1124878 0.8251953
vt 0.05908203 0.9985352
vt 0.1459961 0.9907227
vt 0.0005002022 0.8251953
vt 0.9326172 0.7548828
vt 0.8208008 0.6494141
vt 0.5908203 0.8227539
vt 0.6240234 0.6494141
vt 0.6694336 0.9995117
vt 0.4980469 0.9936523
vt 0.4748535 0.8369141
vt 0.9267578 0.9750977

g Rock_LOD1_12049_130
usemtl Rock_LOD1_12049_130
usemap Rock_LOD1_12049_130
f 1/1/1 3/3/3 2/2/2
f 2/2/2 3/3/3 4/4/4
f 5/5/5 3/3/3 1/1/1
f 3/3/3 5/5/5 6/6/6
f 3/3/3 7/7/7 4/4/4
f 7/7/7 3/3/3 8/8/8
f 6/6/6 9/9/9 3/3/3
f 3/3/3 9/9/9 8/8/8
f 10/10/10 12/12/12 11/11/11
f 12/12/12 10/10/10 13/13/13
f 14/14/14 11/11/11 12/12/12
f 11/11/11 14/14/14 15/15/15
f 11/11/11 16/16/16 10/10/10
f 16/16/16 11/11/11 17/17/17
f 17/17/17 11/11/11 18/18/18
f 18/18/18 11/11/11 15/15/15
f 19/19/19 21/21/21 20/20/20
f 21/21/21 19/19/19 22/22/22
f 21/21/21 22/22/22 23/23/23
f 21/21/21 23/23/23 24/24/24
f 25/25/25 20/20/20 21/21/21
f 20/20/20 25/25/25 26/26/26
f 21/21/21 27/27/27 25/25/25
f 27/27/27 21/21/21 24/24/24
f 28/28/28 30/30/30 29/29/29
f 30/30/30 28/28/28 31/31/31
f 29/29/29 32/32/32 28/28/28
f 32/32/32 29/29/29 33/33/33
f 28/28/28 34/34/34 31/31/31
f 34/34/34 28/28/28 35/35/35
f 28/28/28 32/32/32 35/35/35
f 36/36/36 35/35/35 32/32/32
f 37/37/37 39/39/39 38/38/38
f 38/38/38 40/40/40 37/37/37
f 41/41/41 43/43/43 42/42/42
f 42/42/42 43/43/43 44/44/44
f 41/41/41 45/45/45 43/43/43
f 45/45/45 46/46/46 43/43/43
f 43/43/43 46/46/46 47/47/47
f 45/45/45 41/41/41 48/48/48
