#Rock_LOD1_12304_22.obj

v -1.771456 17.07491 35.2215
v -21.37469 20.28562 26.00094
v -1.771492 21.50532 3.799673
v -33.77345 23.19555 -4.414483
v 18.79717 16.94423 27.81477
v 35.60516 14.37724 4.654634
v -22.46299 22.48663 -24.67253
v 8.505833 17.0749 -25.63987
v 26.89888 16.94422 -19.59384
v -20.95406 -5.765655 26.70188
v -2.221301 2.271653 33.5487
v -8.370444 -18.21583 32.14027
v -22.50105 -18.21583 13.51459
v 14.23724 -18.21583 22.3295
v 18.79716 -0.40991 27.68352
v -21.37469 20.28562 26.00094
v -1.771456 17.07491 35.2215
v 18.79717 16.94423 27.81477
v 14.23724 -18.21583 22.3295
v 18.79716 -0.40991 27.68352
v 35.60516 2.271651 4.654634
v 35.60516 -18.21583 4.654634
v 22.71698 -18.21583 -12.23238
v 26.89888 -5.777069 -19.59384
v 35.60516 14.37724 4.654634
v 18.79717 16.94423 27.81477
v 26.89888 16.94422 -19.59384
v 8.505833 2.27165 -25.63987
v 1.213605 -18.21583 -14.09584
v 22.71698 -18.21583 -12.23238
v 26.89888 -5.777069 -19.59384
v -22.46299 2.271649 -24.67253
v -20.12048 -18.21583 -20.72424
v 26.89888 16.94422 -19.59384
v 8.505833 17.0749 -25.63987
v -22.46299 22.48663 -24.67253
v -22.46299 2.271649 -24.67253
v -28.77554 -18.21583 -9.803635
v -20.12048 -18.21583 -20.72424
v -35.7066 2.271651 -13.69554
v -20.95406 -5.765655 26.70188
v -22.50105 -18.21583 13.51459
v -35.7066 2.271651 -13.69554
v -28.77554 -18.21583 -9.803635
v -33.77345 23.19555 -4.414483
v -22.46299 22.48663 -24.67253
v -22.46299 2.271649 -24.67253
v -21.37469 20.28562 26.00094

vn -0.5244141 0.5654297 0.6362305
vn -0.7802734 0.6186523 0.09106445
vn 0.06213379 0.9936523 0.09222412
vn -0.543457 0.6865234 -0.4836426
vn -0.03668213 0.5961914 0.8017578
vn 0.5522461 0.5498047 0.6264648
vn 0.2327881 0.6611328 -0.7133789
vn 0.6298828 0.6259766 -0.4599609
vn 0.8037109 0.5932617 -0.04043579
vn -0.9882813 -0.1455078 0.04086304
vn -0.675293 -0.1318359 0.7255859
vn -0.7739258 -0.2595215 0.5776367
vn -0.9428711 -0.2380371 -0.232666
vn -0.1340332 -0.22229 0.9658203
vn -0.1031494 -0.1303711 0.9863281
vn -0.7802734 0.6186523 0.09106445
vn -0.5244141 0.5654297 0.6362305
vn -0.03668213 0.5961914 0.8017578
vn -0.1340332 -0.22229 0.9658203
vn -0.1031494 -0.1303711 0.9863281
vn 0.6503906 -0.09869385 0.7529297
vn 0.6347656 -0.2312012 0.7373047
vn 0.8876953 -0.4133301 -0.2036133
vn 0.9521484 -0.2493896 -0.177124
vn 0.5522461 0.5498047 0.6264648
vn -0.03668213 0.5961914 0.8017578
vn 0.8037109 0.5932617 -0.04043579
vn 0.7329102 -0.1954346 -0.6518555
vn 0.6503906 -0.4296875 -0.6264648
vn 0.8876953 -0.4133301 -0.2036133
vn 0.9521484 -0.2493896 -0.177124
vn 0.2900391 -0.1276855 -0.9482422
vn 0.3430176 -0.3552246 -0.8696289
vn 0.8037109 0.5932617 -0.04043579
vn 0.6298828 0.6259766 -0.4599609
vn 0.2327881 0.6611328 -0.7133789
vn 0.2900391 -0.1276855 -0.9482422
vn -0.5805664 -0.2941895 -0.7592773
vn 0.3430176 -0.3552246 -0.8696289
vn -0.5566406 -0.0838623 -0.8266602
vn -0.9882813 -0.1455078 0.04086304
vn -0.9428711 -0.2380371 -0.232666
vn -0.5566406 -0.0838623 -0.8266602
vn -0.5805664 -0.2941895 -0.7592773
vn -0.543457 0.6865234 -0.4836426
vn 0.2327881 0.6611328 -0.7133789
vn 0.2900391 -0.1276855 -0.9482422
vn -0.7802734 0.6186523 0.09106445

vt 0.1712646 0.5234375
vt 0.354248 0.5258789
vt 0.2875977 0.2844238
vt 0.5615234 0.3405762
vt 0.04238892 0.3908691
vt 0.0005002022 0.1524658
vt 0.550293 0.1448975
vt 0.3186035 0.02272034
vt 0.1564941 0.0005002022
vt 0.8891602 0.008934021
vt 0.8212891 0.1673584
vt 0.9946289 0.1152954
vt 0.9897461 -0.04147339
vt 0.9946289 0.3063965
vt 0.84375 0.3449707
vt 0.6689453 0.005378723
vt 0.6962891 0.1711426
vt 0.6972656 0.3449707
vt 0.5151367 0.3469238
vt 0.5039063 0.4975586
vt 0.6987305 0.5200195
vt 0.6987305 0.3469238
vt 0.8417969 0.3469238
vt 0.9038086 0.4521484
vt 0.6987305 0.6225586
vt 0.5029297 0.644043
vt 0.9038086 0.644043
vt 0.3742676 0.8251953
vt 0.3127441 0.9985352
vt 0.4943848 0.9985352
vt 0.5297852 0.8930664
vt 0.1124878 0.8251953
vt 0.1323242 0.9985352
vt 0.5297852 0.7011719
vt 0.3742676 0.7001953
vt 0.1124878 0.6542969
vt 0.1124878 0.8251953
vt 0.05908203 0.9985352
vt 0.1459961 0.9907227
vt 0.0005002022 0.8251953
vt 0.9326172 0.7548828
vt 0.8208008 0.6494141
vt 0.5908203 0.8227539
vt 0.6240234 0.6494141
vt 0.6694336 0.9995117
vt 0.4980469 0.9936523
vt 0.4748535 0.8369141
vt 0.9267578 0.9750977

g Rock_LOD1_12304_22
usemtl Rock_LOD1_12304_22
usemap Rock_LOD1_12304_22
f 1/1/1 3/3/3 2/2/2
f 2/2/2 3/3/3 4/4/4
f 5/5/5 3/3/3 1/1/1
f 3/3/3 5/5/5 6/6/6
f 3/3/3 7/7/7 4/4/4
f 7/7/7 3/3/3 8/8/8
f 6/6/6 9/9/9 3/3/3
f 3/3/3 9/9/9 8/8/8
f 10/10/10 12/12/12 11/11/11
f 12/12/12 10/10/10 13/13/13
f 14/14/14 11/11/11 12/12/12
f 11/11/11 14/14/14 15/15/15
f 11/11/11 16/16/16 10/10/10
f 16/16/16 11/11/11 17/17/17
f 17/17/17 11/11/11 18/18/18
f 18/18/18 11/11/11 15/15/15
f 19/19/19 21/21/21 20/20/20
f 21/21/21 19/19/19 22/22/22
f 21/21/21 22/22/22 23/23/23
f 21/21/21 23/23/23 24/24/24
f 25/25/25 20/20/20 21/21/21
f 20/20/20 25/25/25 26/26/26
f 21/21/21 27/27/27 25/25/25
f 27/27/27 21/21/21 24/24/24
f 28/28/28 30/30/30 29/29/29
f 30/30/30 28/28/28 31/31/31
f 29/29/29 32/32/32 28/28/28
f 32/32/32 29/29/29 33/33/33
f 28/28/28 34/34/34 31/31/31
f 34/34/34 28/28/28 35/35/35
f 28/28/28 32/32/32 35/35/35
f 36/36/36 35/35/35 32/32/32
f 37/37/37 39/39/39 38/38/38
f 38/38/38 40/40/40 37/37/37
f 41/41/41 43/43/43 42/42/42
f 42/42/42 43/43/43 44/44/44
f 41/41/41 45/45/45 43/43/43
f 45/45/45 46/46/46 43/43/43
f 43/43/43 46/46/46 47/47/47
f 45/45/45 41/41/41 48/48/48
