#Rock_LOD1_89189_9.obj

v -1.771455 17.0749 35.22154
v -21.37474 20.28563 26.00097
v -1.771559 21.50532 3.799765
v -33.77335 23.19556 -4.414471
v 18.79718 16.94423 27.81472
v 35.60505 14.37724 4.6547
v -22.46309 22.48663 -24.67246
v 8.505852 17.0749 -25.6399
v 26.89893 16.94423 -19.59396
v -20.95413 -5.76565 26.70194
v -2.221264 2.271655 33.54876
v -8.370418 -18.21583 32.14024
v -22.50096 -18.21584 13.51459
v 14.2371 -18.21583 22.32958
v 18.79706 -0.4099134 27.68366
v -21.37474 20.28563 26.00097
v -1.771455 17.0749 35.22154
v 18.79718 16.94423 27.81472
v 14.2371 -18.21583 22.32958
v 18.79706 -0.4099134 27.68366
v 35.60505 2.271655 4.6547
v 35.60505 -18.21584 4.6547
v 22.71695 -18.21584 -12.23233
v 26.89893 -5.777065 -19.59396
v 35.60505 14.37724 4.6547
v 18.79718 16.94423 27.81472
v 26.89893 16.94423 -19.59396
v 8.505852 2.271655 -25.6399
v 1.213729 -18.21584 -14.09585
v 22.71695 -18.21584 -12.23233
v 26.89893 -5.777065 -19.59396
v -22.46309 2.271645 -24.67246
v -20.12036 -18.21584 -20.72422
v 26.89893 16.94423 -19.59396
v 8.505852 17.0749 -25.6399
v -22.46309 22.48663 -24.67246
v -22.46309 2.271645 -24.67246
v -28.77552 -18.21584 -9.80352
v -20.12036 -18.21584 -20.72422
v -35.70663 2.271655 -13.6955
v -20.95413 -5.76565 26.70194
v -22.50096 -18.21584 13.51459
v -35.70663 2.271655 -13.6955
v -28.77552 -18.21584 -9.80352
v -33.77335 23.19556 -4.414471
v -22.46309 22.48663 -24.67246
v -22.46309 2.271645 -24.67246
v -21.37474 20.28563 26.00097

vn 0.6044922 0.5654297 0.5605469
vn 0.04544067 0.6186523 0.7841797
vn 0.09570313 0.9936523 -0.05664063
vn -0.5146484 0.6865234 0.5141602
vn 0.7983398 0.5961914 0.08331299
vn 0.6577148 0.5498047 -0.5151367
vn -0.6987305 0.6611328 -0.2739258
vn -0.4223633 0.6259766 -0.6557617
vn 0.006443024 0.5932617 -0.8051758
vn -0.01676941 -0.1455078 0.9892578
vn 0.6850586 -0.1318359 0.7167969
vn 0.53125 -0.2595215 0.8066406
vn -0.2871094 -0.2380371 0.9277344
vn 0.9560547 -0.22229 0.1900635
vn 0.9785156 -0.1303711 0.1604004
vn 0.04544067 0.6186523 0.7841797
vn 0.6044922 0.5654297 0.5605469
vn 0.7983398 0.5961914 0.08331299
vn 0.9560547 -0.22229 0.1900635
vn 0.9785156 -0.1303711 0.1604004
vn 0.7895508 -0.09869385 -0.6054688
vn 0.7729492 -0.2312012 -0.5908203
vn -0.1516113 -0.4133301 -0.8979492
vn -0.1213989 -0.2493896 -0.9609375
vn 0.6577148 0.5498047 -0.5151367
vn 0.7983398 0.5961914 0.08331299
vn 0.006443024 0.5932617 -0.8051758
vn -0.6079102 -0.1954346 -0.7695313
vn -0.5874023 -0.4296875 -0.6860352
vn -0.1516113 -0.4133301 -0.8979492
vn -0.1213989 -0.2493896 -0.9609375
vn -0.9301758 -0.1276855 -0.3447266
vn -0.8481445 -0.3552246 -0.3930664
vn 0.006443024 0.5932617 -0.8051758
vn -0.4223633 0.6259766 -0.6557617
vn -0.6987305 0.6611328 -0.2739258
vn -0.9301758 -0.1276855 -0.3447266
vn -0.7919922 -0.2941895 0.5351563
vn -0.8481445 -0.3552246 -0.3930664
vn -0.8574219 -0.0838623 0.5078125
vn -0.01676941 -0.1455078 0.9892578
vn -0.2871094 -0.2380371 0.9277344
vn -0.8574219 -0.0838623 0.5078125
vn -0.7919922 -0.2941895 0.5351563
vn -0.5146484 0.6865234 0.5141602
vn -0.6987305 0.6611328 -0.2739258
vn -0.9301758 -0.1276855 -0.3447266
vn 0.04544067 0.6186523 0.7841797

vt 0.1712646 0.5234375
vt 0.354248 0.5258789
vt 0.2875977 0.2844238
vt 0.5615234 0.3405762
vt 0.04238892 0.3908691
vt 0.0005002022 0.1524658
vt 0.550293 0.1448975
vt 0.3186035 0.02272034
vt 0.1564941 0.0005002022
vt 0.8891602 0.008934021
vt 0.8212891 0.1673584
vt 0.9946289 0.1152954
vt 0.9897461 -0.04147339
vt 0.9946289 0.3063965
vt 0.84375 0.3449707
vt 0.6689453 0.005378723
vt 0.6962891 0.1711426
vt 0.6972656 0.3449707
vt 0.5151367 0.3469238
vt 0.5039063 0.4975586
vt 0.6987305 0.5200195
vt 0.6987305 0.3469238
vt 0.8417969 0.3469238
vt 0.9038086 0.4521484
vt 0.6987305 0.6225586
vt 0.5029297 0.644043
vt 0.9038086 0.644043
vt 0.3742676 0.8251953
vt 0.3127441 0.9985352
vt 0.4943848 0.9985352
vt 0.5297852 0.8930664
vt 0.1124878 0.8251953
vt 0.1323242 0.9985352
vt 0.5297852 0.7011719
vt 0.3742676 0.7001953
vt 0.1124878 0.6542969
vt 0.1124878 0.8251953
vt 0.05908203 0.9985352
vt 0.1459961 0.9907227
vt 0.0005002022 0.8251953
vt 0.9326172 0.7548828
vt 0.8208008 0.6494141
vt 0.5908203 0.8227539
vt 0.6240234 0.6494141
vt 0.6694336 0.9995117
vt 0.4980469 0.9936523
vt 0.4748535 0.8369141
vt 0.9267578 0.9750977

g Rock_LOD1_89189_9
usemtl Rock_LOD1_89189_9
usemap Rock_LOD1_89189_9
f 1/1/1 3/3/3 2/2/2
f 2/2/2 3/3/3 4/4/4
f 5/5/5 3/3/3 1/1/1
f 3/3/3 5/5/5 6/6/6
f 3/3/3 7/7/7 4/4/4
f 7/7/7 3/3/3 8/8/8
f 6/6/6 9/9/9 3/3/3
f 3/3/3 9/9/9 8/8/8
f 10/10/10 12/12/12 11/11/11
f 12/12/12 10/10/10 13/13/13
f 14/14/14 11/11/11 12/12/12
f 11/11/11 14/14/14 15/15/15
f 11/11/11 16/16/16 10/10/10
f 16/16/16 11/11/11 17/17/17
f 17/17/17 11/11/11 18/18/18
f 18/18/18 11/11/11 15/15/15
f 19/19/19 21/21/21 20/20/20
f 21/21/21 19/19/19 22/22/22
f 21/21/21 22/22/22 23/23/23
f 21/21/21 23/23/23 24/24/24
f 25/25/25 20/20/20 21/21/21
f 20/20/20 25/25/25 26/26/26
f 21/21/21 27/27/27 25/25/25
f 27/27/27 21/21/21 24/24/24
f 28/28/28 30/30/30 29/29/29
f 30/30/30 28/28/28 31/31/31
f 29/29/29 32/32/32 28/28/28
f 32/32/32 29/29/29 33/33/33
f 28/28/28 34/34/34 31/31/31
f 34/34/34 28/28/28 35/35/35
f 28/28/28 32/32/32 35/35/35
f 36/36/36 35/35/35 32/32/32
f 37/37/37 39/39/39 38/38/38
f 38/38/38 40/40/40 37/37/37
f 41/41/41 43/43/43 42/42/42
f 42/42/42 43/43/43 44/44/44
f 41/41/41 45/45/45 43/43/43
f 45/45/45 46/46/46 43/43/43
f 43/43/43 46/46/46 47/47/47
f 45/45/45 41/41/41 48/48/48
