#Rock_LOD1_12319_143.obj

v -1.771531 17.07496 35.22157
v -21.37478 20.28572 26.00104
v -1.771546 21.50531 3.7997
v -33.77353 23.19558 -4.414446
v 18.79707 16.94422 27.81481
v 35.60514 14.37722 4.654638
v -22.46303 22.48657 -24.67253
v 8.505795 17.07496 -25.63984
v 26.89886 16.94424 -19.5938
v -20.95412 -5.765646 26.70193
v -2.221358 2.271592 33.5487
v -8.370544 -18.21589 32.14028
v -22.50114 -18.21574 13.51469
v 14.23722 -18.21587 22.32952
v 18.79711 -0.4098616 27.68356
v -21.37478 20.28572 26.00104
v -1.771531 17.07496 35.22157
v 18.79707 16.94422 27.81481
v 14.23722 -18.21587 22.32952
v 18.79711 -0.4098616 27.68356
v 35.60514 2.27164 4.654646
v 35.60512 -18.21585 4.654637
v 22.71693 -18.21586 -12.23234
v 26.8988 -5.777026 -19.59378
v 35.60514 14.37722 4.654638
v 18.79707 16.94422 27.81481
v 26.89886 16.94424 -19.5938
v 8.50582 2.271676 -25.63985
v 1.213599 -18.21582 -14.09579
v 22.71693 -18.21586 -12.23234
v 26.8988 -5.777026 -19.59378
v -22.46304 2.271714 -24.67247
v -20.12056 -18.2158 -20.72417
v 26.89886 16.94424 -19.5938
v 8.505795 17.07496 -25.63984
v -22.46303 22.48657 -24.67253
v -22.46304 2.271714 -24.67247
v -28.77561 -18.21578 -9.803574
v -20.12056 -18.2158 -20.72417
v -35.70667 2.271562 -13.69557
v -20.95412 -5.765646 26.70193
v -22.50114 -18.21574 13.51469
v -35.70667 2.271562 -13.69557
v -28.77561 -18.21578 -9.803574
v -33.77353 23.19558 -4.414446
v -22.46303 22.48657 -24.67253
v -22.46304 2.271714 -24.67247
v -21.37478 20.28572 26.00104

vn -0.4602051 0.3388672 0.8208008
vn -0.6499023 0.4621582 0.6035156
vn -0.3190918 0.7666016 0.5576172
vn -0.6108398 0.7133789 0.3435059
vn -0.2255859 0.458252 0.8598633
vn 0.04962158 0.6713867 0.7392578
vn -0.298584 0.9428711 0.1491699
vn -0.08868408 0.9750977 0.2032471
vn 0.05575562 0.9262695 0.3720703
vn -0.6337891 -0.7734375 0.01203918
vn -0.2354736 -0.8408203 0.4875488
vn -0.210083 -0.9541016 0.2126465
vn -0.5478516 -0.7695313 -0.3286133
vn 0.2644043 -0.8510742 0.4538574
vn 0.236084 -0.7436523 0.6254883
vn -0.6499023 0.4621582 0.6035156
vn -0.4602051 0.3388672 0.8208008
vn -0.2255859 0.458252 0.8598633
vn 0.2644043 -0.8510742 0.4538574
vn 0.236084 -0.7436523 0.6254883
vn 0.8666992 -0.2741699 0.4169922
vn 0.8505859 -0.4970703 0.1716309
vn 0.7348633 -0.2174072 -0.6420898
vn 0.8164063 0.03616333 -0.5766602
vn 0.04962158 0.6713867 0.7392578
vn -0.2255859 0.458252 0.8598633
vn 0.05575562 0.9262695 0.3720703
vn 0.5322266 0.2329102 -0.8139648
vn 0.5209961 -0.1707764 -0.8359375
vn 0.7348633 -0.2174072 -0.6420898
vn 0.8164063 0.03616333 -0.5766602
vn 0.1307373 0.3098145 -0.9418945
vn 0.3010254 -0.09991455 -0.9482422
vn 0.05575562 0.9262695 0.3720703
vn -0.08868408 0.9750977 0.2032471
vn -0.298584 0.9428711 0.1491699
vn 0.1307373 0.3098145 -0.9418945
vn -0.3210449 -0.4541016 -0.8310547
vn 0.3010254 -0.09991455 -0.9482422
vn -0.6132813 -0.04901123 -0.7880859
vn -0.6337891 -0.7734375 0.01203918
vn -0.5478516 -0.7695313 -0.3286133
vn -0.6132813 -0.04901123 -0.7880859
vn -0.3210449 -0.4541016 -0.8310547
vn -0.6108398 0.7133789 0.3435059
vn -0.298584 0.9428711 0.1491699
vn 0.1307373 0.3098145 -0.9418945
vn -0.6499023 0.4621582 0.6035156

vt 0.1712646 0.5234375
vt 0.354248 0.5258789
vt 0.2875977 0.2844238
vt 0.5615234 0.3405762
vt 0.04238892 0.3908691
vt 0.0005002022 0.1524658
vt 0.550293 0.1448975
vt 0.3186035 0.02272034
vt 0.1564941 0.0005002022
vt 0.8891602 0.008934021
vt 0.8212891 0.1673584
vt 0.9946289 0.1152954
vt 0.9897461 -0.04147339
vt 0.9946289 0.3063965
vt 0.84375 0.3449707
vt 0.6689453 0.005378723
vt 0.6962891 0.1711426
vt 0.6972656 0.3449707
vt 0.5151367 0.3469238
vt 0.5039063 0.4975586
vt 0.6987305 0.5200195
vt 0.6987305 0.3469238
vt 0.8417969 0.3469238
vt 0.9038086 0.4521484
vt 0.6987305 0.6225586
vt 0.5029297 0.644043
vt 0.9038086 0.644043
vt 0.3742676 0.8251953
vt 0.3127441 0.9985352
vt 0.4943848 0.9985352
vt 0.5297852 0.8930664
vt 0.1124878 0.8251953
vt 0.1323242 0.9985352
vt 0.5297852 0.7011719
vt 0.3742676 0.7001953
vt 0.1124878 0.6542969
vt 0.1124878 0.8251953
vt 0.05908203 0.9985352
vt 0.1459961 0.9907227
vt 0.0005002022 0.8251953
vt 0.9326172 0.7548828
vt 0.8208008 0.6494141
vt 0.5908203 0.8227539
vt 0.6240234 0.6494141
vt 0.6694336 0.9995117
vt 0.4980469 0.9936523
vt 0.4748535 0.8369141
vt 0.9267578 0.9750977

g Rock_LOD1_12319_143
usemtl Rock_LOD1_12319_143
usemap Rock_LOD1_12319_143
f 1/1/1 3/3/3 2/2/2
f 2/2/2 3/3/3 4/4/4
f 5/5/5 3/3/3 1/1/1
f 3/3/3 5/5/5 6/6/6
f 3/3/3 7/7/7 4/4/4
f 7/7/7 3/3/3 8/8/8
f 6/6/6 9/9/9 3/3/3
f 3/3/3 9/9/9 8/8/8
f 10/10/10 12/12/12 11/11/11
f 12/12/12 10/10/10 13/13/13
f 14/14/14 11/11/11 12/12/12
f 11/11/11 14/14/14 15/15/15
f 11/11/11 16/16/16 10/10/10
f 16/16/16 11/11/11 17/17/17
f 17/17/17 11/11/11 18/18/18
f 18/18/18 11/11/11 15/15/15
f 19/19/19 21/21/21 20/20/20
f 21/21/21 19/19/19 22/22/22
f 21/21/21 22/22/22 23/23/23
f 21/21/21 23/23/23 24/24/24
f 25/25/25 20/20/20 21/21/21
f 20/20/20 25/25/25 26/26/26
f 21/21/21 27/27/27 25/25/25
f 27/27/27 21/21/21 24/24/24
f 28/28/28 30/30/30 29/29/29
f 30/30/30 28/28/28 31/31/31
f 29/29/29 32/32/32 28/28/28
f 32/32/32 29/29/29 33/33/33
f 28/28/28 34/34/34 31/31/31
f 34/34/34 28/28/28 35/35/35
f 28/28/28 32/32/32 35/35/35
f 36/36/36 35/35/35 32/32/32
f 37/37/37 39/39/39 38/38/38
f 38/38/38 40/40/40 37/37/37
f 41/41/41 43/43/43 42/42/42
f 42/42/42 43/43/43 44/44/44
f 41/41/41 45/45/45 43/43/43
f 45/45/45 46/46/46 43/43/43
f 43/43/43 46/46/46 47/47/47
f 45/45/45 41/41/41 48/48/48
